<svg width="96" height="96" viewBox="0 0 96 96" fill="none" xmlns="http://www.w3.org/2000/svg">
<path d="M63.75 38.6101V69.8101C63.75 71.0035 63.2759 72.1481 62.432 72.992C61.5881 73.8359 60.4435 74.3101 59.25 74.3101H35.25C34.3235 74.3146 33.4192 74.0272 32.6653 73.4887C31.9114 72.9502 31.3462 72.1879 31.05 71.3101L30.75 58.8901V24.8101C30.75 23.6166 31.2241 22.472 32.068 21.6281C32.9119 20.7842 34.0565 20.3101 35.25 20.3101H59.25C60.4435 20.3101 61.5881 20.7842 62.432 21.6281C63.2759 22.472 63.75 23.6166 63.75 24.8101V38.6101Z" fill="#469ED6"/>
<path d="M59.2498 75.8101H35.2498C34.0147 75.799 32.813 75.4069 31.809 74.6874C30.8049 73.9679 30.0474 72.9561 29.6398 71.7901V71.3701L29.3398 58.9501V24.8101C29.3398 23.2188 29.972 21.6926 31.0972 20.5674C32.2224 19.4422 33.7485 18.8101 35.3398 18.8101H59.3398C60.9311 18.8101 62.4573 19.4422 63.5825 20.5674C64.7077 21.6926 65.3398 23.2188 65.3398 24.8101V69.8101C65.3399 70.6056 65.1818 71.3933 64.8747 72.1271C64.5675 72.861 64.1175 73.5265 63.5508 74.0848C62.9841 74.6432 62.312 75.0833 61.5736 75.3794C60.8352 75.6756 60.0453 75.822 59.2498 75.8101ZM32.5498 71.0401C32.7843 71.5618 33.1631 72.0056 33.6414 72.3192C34.1198 72.6328 34.6779 72.8031 35.2498 72.8101H59.2498C60.0455 72.8101 60.8086 72.494 61.3712 71.9314C61.9338 71.3688 62.2498 70.6057 62.2498 69.8101V24.8101C62.2498 24.0144 61.9338 23.2513 61.3712 22.6887C60.8086 22.1261 60.0455 21.8101 59.2498 21.8101H35.2498C34.4542 21.8101 33.6911 22.1261 33.1285 22.6887C32.5659 23.2513 32.2498 24.0144 32.2498 24.8101V58.8901L32.5498 71.0401Z" fill="#57565C"/>
<path d="M48 1.5C38.8032 1.5 29.8129 4.22718 22.166 9.33666C14.5191 14.4461 8.5591 21.7085 5.03962 30.2052C1.52015 38.702 0.599293 48.0516 2.39351 57.0717C4.18772 66.0918 8.61642 74.3773 15.1196 80.8805C21.6227 87.3836 29.9082 91.8123 38.9283 93.6065C47.9484 95.4007 57.298 94.4799 65.7948 90.9604C74.2916 87.4409 81.5539 81.4809 86.6634 73.834C91.7728 66.1871 94.5 57.1968 94.5 48C94.5 35.6674 89.6009 23.84 80.8805 15.1195C72.16 6.39909 60.3326 1.5 48 1.5ZM10.5 48C10.4935 40.9658 12.4672 34.0718 16.1952 28.1067C19.9232 22.1417 25.2551 17.3465 31.5807 14.2697C37.9064 11.193 44.9703 9.95894 51.9645 10.7088C58.9586 11.4587 65.6004 14.1622 71.13 18.51L18.51 71.13C13.3156 64.5398 10.4937 56.3913 10.5 48ZM48 85.5C39.6088 85.5063 31.4603 82.6844 24.87 77.49L77.49 24.87C81.8378 30.3996 84.5413 37.0414 85.2912 44.0356C86.0411 51.0297 84.8071 58.0937 81.7303 64.4193C78.6536 70.7449 73.8583 76.0768 67.8933 79.8048C61.9282 83.5329 55.0342 85.5065 48 85.5Z" fill="#ED4769"/>
<path d="M21.8701 77.49C28.4604 82.6844 36.6089 85.5063 45.0001 85.5H46.3801C38.5539 85.1711 31.0291 82.39 24.8701 77.55L77.4301 24.87C77.0401 24.27 76.6201 23.7 76.2001 23.13L21.8701 77.49Z" fill="#EB304A"/>
<path d="M48 1.49995H46.5C58.5199 1.9322 69.9033 7.01105 78.2539 15.6674C86.6045 24.3237 91.271 35.8823 91.271 47.91C91.271 59.9376 86.6045 71.4962 78.2539 80.1525C69.9033 88.8088 58.5199 93.8877 46.5 94.3199H48C60.3326 94.3199 72.16 89.4208 80.8805 80.7004C89.6009 71.98 94.5 60.1525 94.5 47.8199C94.5 35.4874 89.6009 23.6599 80.8805 14.9395C72.16 6.21904 60.3326 1.31995 48 1.31995V1.49995Z" fill="#EB304A"/>
<path d="M7.5 48C7.5 56.73 13.5 64.74 18.51 71.13L17.25 69.39C13.3908 63.8726 11.0922 57.416 10.5967 50.7012C10.1012 43.9863 11.4271 37.2622 14.4345 31.2381C17.4419 25.214 22.0195 20.1133 27.6842 16.4739C33.3489 12.8344 39.8909 10.7913 46.62 10.56L45 10.5C35.0544 10.5 25.5161 14.4509 18.4835 21.4835C11.4509 28.5161 7.5 38.0544 7.5 48Z" fill="#EB304A"/>
<path d="M41.2498 66.84H53.2498V69.84H41.2498V66.84ZM55.4698 20.34L51.8098 26.34H42.6898L39.0298 20.34" fill="#57565C"/>
</svg>
