<svg width="24" height="25" viewBox="0 0 24 25" fill="none" xmlns="http://www.w3.org/2000/svg">
<path d="M10.75 2.95031C11.45 2.36031 12.58 2.36031 13.26 2.95031L14.84 4.30031C15.14 4.55031 15.71 4.76031 16.11 4.76031H17.81C18.87 4.76031 19.74 5.63031 19.74 6.69031V8.39031C19.74 8.79031 19.95 9.35031 20.2 9.65031L21.55 11.2303C22.14 11.9303 22.14 13.0603 21.55 13.7403L20.2 15.3203C19.95 15.6203 19.74 16.1803 19.74 16.5803V18.2803C19.74 19.3403 18.87 20.2103 17.81 20.2103H16.11C15.71 20.2103 15.15 20.4203 14.85 20.6703L13.27 22.0203C12.57 22.6103 11.44 22.6103 10.76 22.0203L9.18001 20.6703C8.88001 20.4203 8.31 20.2103 7.92 20.2103H6.17C5.11 20.2103 4.24 19.3403 4.24 18.2803V16.5703C4.24 16.1803 4.04 15.6103 3.79 15.3203L2.44 13.7303C1.86 13.0403 1.86 11.9203 2.44 11.2303L3.79 9.64031C4.04 9.34031 4.24 8.78031 4.24 8.39031V6.70031C4.24 5.64031 5.11 4.77031 6.17 4.77031H7.9C8.3 4.77031 8.86 4.56031 9.16 4.31031L10.75 2.95031Z" stroke="#1E232C" stroke-width="2" stroke-linecap="round" stroke-linejoin="round"/>
<path d="M12 8.62988V13.4599" stroke="#1E232C" stroke-width="2" stroke-linecap="round" stroke-linejoin="round"/>
<path d="M11.9945 16.5H12.0035" stroke="#1E232C" stroke-width="2" stroke-linecap="round" stroke-linejoin="round"/>
</svg>
