<svg xmlns="http://www.w3.org/2000/svg" viewBox="0 0 128 128" id="magic-wand"><circle cx="64" cy="64" r="64" fill="#EF4C45"></circle><path fill="#CD2E30" d="M73.5 33.5 61.2 21.2l-.3 6.1-6.1.3 12.8 12.8 3.3-3.3-.5-.5zM128 64c0-2.2-.1-4.3-.3-6.5L94.8 24.7 22 94.1l33.3 33.3c2.8.4 5.7.6 8.7.6 35.3 0 64-28.7 64-64z"></path><path fill="#535E6F" d="m77.6 46.7-4.1-4.1L22 90.3c-1.1 1-1.1 2.7-.1 3.8l4.1 4.1c1 1 2.8 1 3.8-.1l47.8-51.4z"></path><path fill="#E5E8EC" d="m29.6 83.3-7.5 7c-1.1 1-1.1 2.7-.1 3.8l4.1 4.1c1 1 2.8 1 3.8-.1l7-7.5-7.3-7.3z"></path><path fill="#FFCC04" d="M97.1 48.4c1.5 0 2.4-1.7 1.5-2.9l-5.8-7.8c-.4-.5-.5-1.1-.3-1.7l3.1-9.2c.5-1.4-.9-2.8-2.3-2.3l-9.2 3.1c-.6.2-1.2.1-1.7-.3l-7.8-5.8c-1.2-.9-2.9 0-2.9 1.5l.1 9.7c0 .6-.3 1.2-.8 1.5l-7.9 5.6c-1.2.9-.9 2.8.5 3.2l9.3 2.9c.6.2 1 .6 1.2 1.2l2.9 9.3c.5 1.5 2.4 1.8 3.2.5l5.6-7.9c.3-.5.9-.8 1.5-.8l9.8.2z"></path><path fill="#FFF" d="m90.5 61.5 1 3.8 1-3.8 3.8-1-3.8-1-1-3.8-1 3.8-3.8 1zM102.4 38l.8 3.4.9-3.4 3.4-.9-3.4-.9-.9-3.4-.8 3.4-3.4.9zM59.9 28.9l1.3 5.1 1.3-5.1 5.1-1.3-5.1-1.3-1.3-5.1-1.3 5.1-5.1 1.3z"></path></svg>