<svg width="24" height="24" viewBox="0 0 24 24" fill="none" xmlns="http://www.w3.org/2000/svg">
<path d="M11.6437 12.9506C14.0437 12.9506 15.9684 11.0021 15.9684 8.62586C15.9684 6.24962 14.0437 4.27734 11.6437 4.27734C9.24366 4.27734 7.31891 6.22586 7.31891 8.6021C7.31891 10.9783 9.24366 12.9506 11.6437 12.9506ZM11.6437 5.41794C13.4021 5.41794 14.8278 6.84368 14.8278 8.6021C14.8278 10.3605 13.4021 11.7863 11.6437 11.7863C9.88524 11.7863 8.4595 10.3843 8.4595 8.62586C8.4595 6.86744 9.88524 5.41794 11.6437 5.41794ZM4.13475 19.7229H12.7127C14.7561 19.7229 12.7127 18.9625 12.7127 18.6536C10.5741 16.0397 15.089 14.0199 13.9009 13.711H9.00604C6.01198 13.711 3.56445 16.1585 3.56445 19.1526C3.56445 19.4615 3.82584 19.7229 4.13475 19.7229ZM9.00604 14.8516H12.4751C12.1187 15.9209 11.4058 16.5625 12.1187 18.5823H4.75257C5.03772 16.4674 6.8199 14.8516 9.00604 14.8516Z" fill="white"/>
<path fill-rule="evenodd" clip-rule="evenodd" d="M15.4447 13.3071C16.3243 13.3069 17.1768 13.6118 17.8569 14.1696C18.537 14.7275 19.0025 15.504 19.1743 16.3666C19.3461 17.2293 19.2134 18.1249 18.7989 18.9007C18.3844 19.6765 17.7137 20.2847 16.9011 20.6214C16.0885 20.9582 15.1843 21.0028 14.3425 20.7476C13.5007 20.4924 12.7735 19.9532 12.2847 19.2219C11.7959 18.4906 11.5757 17.6124 11.6618 16.7371C11.7479 15.8617 12.1348 15.0432 12.7567 14.4211C13.1094 14.0676 13.5284 13.7873 13.9897 13.5961C14.4509 13.405 14.9454 13.3067 15.4447 13.3071ZM17.7958 15.5021L13.8363 19.4602C14.3844 19.8352 15.0464 20.0069 15.7078 19.9454C16.3691 19.884 16.9881 19.5933 17.4578 19.1236C17.9274 18.6539 18.2181 18.0349 18.2795 17.3735C18.3409 16.7122 18.1692 16.0502 17.7941 15.5021H17.7958ZM13.1509 18.7962L17.1333 14.8175C16.5849 14.4139 15.91 14.2201 15.231 14.2714C14.5521 14.3227 13.9139 14.6155 13.4323 15.0968C12.9507 15.5782 12.6575 16.2162 12.6059 16.8951C12.5543 17.5741 12.7477 18.249 13.1509 18.7977V18.7962Z" fill="white"/>
</svg>
