<svg xmlns="http://www.w3.org/2000/svg" viewBox="0 0 24 24" id="block-user">
    <g>
        <path
            d="M11.17,12.75A5.25,5.25,0,1,0,5.92,7.5,5.25,5.25,0,0,0,11.17,12.75Zm0-9A3.75,3.75,0,1,1,7.42,7.5,3.75,3.75,0,0,1,11.17,3.75ZM12.81,21a.76.76,0,0,1-.75.75H4.83a2.76,2.76,0,0,1-2.65-3.51,6.92,6.92,0,0,1,6.63-5H11.4a.75.75,0,0,1,0,1.5H8.81a5.4,5.4,0,0,0-5.18,3.91,1.25,1.25,0,0,0,1.2,1.59h7.23A.76.76,0,0,1,12.81,21Zm9.11-4a4.75,4.75,0,0,0-4.75-4.75,4.7,4.7,0,0,0-3.4,1.46l0,0s0,.07-.07.1a4.73,4.73,0,0,0,6.73,6.64l.05,0s0,0,0,0A4.68,4.68,0,0,0,21.92,17Zm-1.5,0a3.22,3.22,0,0,1-.55,1.81L15.36,14.3A3.25,3.25,0,0,1,20.42,17Zm-6.5,0a3.25,3.25,0,0,1,.43-1.58l4.41,4.4a3.18,3.18,0,0,1-1.59.43A3.26,3.26,0,0,1,13.92,17Z">
        </path>
    </g>
</svg>