<svg width="24" height="24" viewBox="0 0 24 24" fill="none" xmlns="http://www.w3.org/2000/svg">
<path d="M19.9161 13.3555C19.6897 13.3555 19.4529 13.2832 19.2265 13.2316C18.7684 13.1288 18.3179 12.9943 17.8783 12.829C17.4008 12.6548 16.876 12.6638 16.4048 12.8544C15.9336 13.045 15.5493 13.4036 15.3258 13.8613L15.0994 14.3362C14.0999 13.7676 13.1765 13.0738 12.3514 12.2716C11.5516 11.444 10.8599 10.5178 10.293 9.51527L10.7665 9.29848C11.2228 9.07438 11.5803 8.68893 11.7704 8.21629C11.9604 7.74366 11.9694 7.21724 11.7957 6.73833C11.6322 6.29344 11.4981 5.83823 11.3943 5.37568C11.3428 5.14857 11.3017 4.91113 11.2708 4.68402C11.1458 3.95688 10.7661 3.29839 10.2 2.82713C9.63396 2.35588 8.91874 2.10283 8.18317 2.11355H5.08527C4.65017 2.11298 4.21987 2.20465 3.82256 2.38256C3.42526 2.56046 3.06992 2.82059 2.77986 3.14587C2.48378 3.47998 2.26332 3.87443 2.13363 4.3021C2.00393 4.72978 1.96808 5.18054 2.02854 5.62343C2.588 9.92008 4.54516 13.9115 7.59653 16.9789C10.6546 20.0395 14.6341 22.0026 18.9178 22.5638C19.0514 22.574 19.1855 22.574 19.3191 22.5638C20.0781 22.5649 20.8109 22.2856 21.3776 21.7792C21.7019 21.4882 21.9612 21.1318 22.1386 20.7333C22.3159 20.3348 22.4073 19.9032 22.4068 19.4668V16.3699C22.4012 15.6566 22.1503 14.9671 21.6965 14.4178C21.2427 13.8686 20.6138 13.4934 19.9161 13.3555ZM20.4204 19.5494C20.4201 19.6934 20.3897 19.8358 20.3312 19.9674C20.2727 20.099 20.1874 20.2168 20.0808 20.3133C19.968 20.4164 19.8337 20.493 19.6878 20.5376C19.5418 20.5823 19.3878 20.5938 19.2368 20.5714C15.3961 20.0683 11.8268 18.3127 9.07858 15.575C6.32801 12.8161 4.56247 9.2235 4.05607 5.35503C4.03371 5.20362 4.0452 5.04913 4.0897 4.90272C4.1342 4.75632 4.2106 4.62167 4.31337 4.50853C4.41075 4.40029 4.52989 4.31397 4.66294 4.25526C4.79598 4.19654 4.93992 4.16676 5.08527 4.16787H8.17288C8.41079 4.16203 8.64337 4.23908 8.83102 4.38589C9.01867 4.5327 9.1498 4.7402 9.20208 4.97307C9.20208 5.2518 9.29471 5.54085 9.35646 5.81957C9.47542 6.36036 9.63365 6.89171 9.8299 7.40934L8.38901 8.09067C8.14135 8.2047 7.94889 8.4126 7.85383 8.66877C7.75089 8.9201 7.75089 9.202 7.85383 9.45333C9.33506 12.6357 11.8855 15.1938 15.0582 16.6795C15.3088 16.7828 15.5899 16.7828 15.8404 16.6795C16.0958 16.5842 16.3031 16.3912 16.4168 16.1427L17.0652 14.6975C17.5962 14.8917 18.1394 15.0503 18.6913 15.1724C18.9589 15.2343 19.2471 15.2859 19.525 15.3272C19.7572 15.3797 19.964 15.5112 20.1104 15.6994C20.2568 15.8876 20.3336 16.1209 20.3278 16.3595L20.4204 19.5494ZM14.3481 2C14.1114 2 13.8644 2 13.6277 2C13.3547 2.02327 13.1021 2.15435 12.9255 2.36441C12.7489 2.57446 12.6627 2.84628 12.6859 3.12006C12.7091 3.39385 12.8398 3.64718 13.0492 3.82432C13.2587 4.00146 13.5297 4.08791 13.8026 4.06463H14.3481C15.9859 4.06463 17.5566 4.7172 18.7146 5.87879C19.8727 7.04037 20.5233 8.61581 20.5233 10.2585C20.5233 10.4444 20.5233 10.6198 20.5233 10.8057C20.5005 11.078 20.5863 11.3483 20.7618 11.5573C20.9374 11.7663 21.1884 11.8969 21.4599 11.9206H21.5422C21.7999 11.9216 22.0485 11.8257 22.2391 11.6518C22.4297 11.4778 22.5482 11.2385 22.5714 10.9812C22.5714 10.7437 22.5714 10.496 22.5714 10.2585C22.5714 8.07002 21.7054 5.97099 20.1635 4.42252C18.6216 2.87404 16.53 2.00274 14.3481 2ZM16.4065 10.2585C16.4065 10.5323 16.5149 10.7949 16.7079 10.9885C16.901 11.1821 17.1627 11.2909 17.4357 11.2909C17.7087 11.2909 17.9705 11.1821 18.1635 10.9885C18.3565 10.7949 18.4649 10.5323 18.4649 10.2585C18.4649 9.16338 18.0312 8.11309 17.2591 7.3387C16.4871 6.56431 15.4399 6.12927 14.3481 6.12927C14.0751 6.12927 13.8134 6.23803 13.6203 6.43163C13.4273 6.62522 13.3189 6.8878 13.3189 7.16158C13.3189 7.43537 13.4273 7.69795 13.6203 7.89154C13.8134 8.08514 14.0751 8.1939 14.3481 8.1939C14.894 8.1939 15.4176 8.41142 15.8036 8.79862C16.1896 9.18581 16.4065 9.71096 16.4065 10.2585Z" fill="#5F3C08"/>
</svg>
