<svg width="24" height="24" viewBox="0 0 24 24" fill="none" xmlns="http://www.w3.org/2000/svg">
<path fill-rule="evenodd" clip-rule="evenodd" d="M21.6406 19.3281C21.0232 21.2041 18.6045 22.1401 16.8765 21.9841C14.5165 21.7708 11.9485 20.5188 9.99913 19.1401C7.13377 17.1134 4.44975 13.9787 2.88574 10.652C1.78039 8.30133 1.53239 5.41064 3.1764 3.26795C3.78441 2.47595 4.44308 2.05328 5.42976 2.00394C6.80043 1.93728 6.99244 2.72128 7.46311 3.94263C7.81378 4.85597 8.28178 5.78797 8.54311 6.73465C9.03245 8.50133 7.32177 8.57466 7.10577 10.0187C6.97243 10.9293 8.07511 12.1507 8.57378 12.8C9.53497 14.0647 10.7122 15.1494 12.0511 16.0041C12.8111 16.4827 14.0352 17.3454 14.9045 16.8694C16.2432 16.1361 16.1178 13.8787 17.9885 14.6427C18.9579 15.0374 19.8965 15.6067 20.8219 16.1054C22.2526 16.8747 22.1859 17.6721 21.6406 19.3281C22.0486 18.0907 21.2325 20.5654 21.6406 19.3281Z" fill="#0E2339"/>
</svg>
