<svg width="50" height="66" viewBox="0 0 50 66" fill="none" xmlns="http://www.w3.org/2000/svg">
<path d="M39 13H36.44L35.8 11C35.3851 9.82644 34.6155 8.81099 33.5978 8.0943C32.5801 7.37762 31.3647 6.99519 30.12 6.99998H19.88C18.6231 7.00233 17.3987 7.39935 16.3795 8.13499C15.3604 8.87064 14.598 9.90776 14.2 11.1L13.56 13.1H11C9.4087 13.1 7.88258 13.7321 6.75736 14.8573C5.63214 15.9826 5 17.5087 5 19.1V35.1C5 36.6913 5.63214 38.2174 6.75736 39.3426C7.88258 40.4678 9.4087 41.1 11 41.1H39C40.5913 41.1 42.1174 40.4678 43.2426 39.3426C44.3679 38.2174 45 36.6913 45 35.1V19.1C45.0133 18.3037 44.8679 17.5127 44.5723 16.7732C44.2767 16.0336 43.8369 15.3603 43.2784 14.7926C42.7199 14.2248 42.054 13.7738 41.3194 13.4661C40.5849 13.1583 39.7964 12.9999 39 13ZM41 35C41 35.5304 40.7893 36.0391 40.4142 36.4142C40.0391 36.7893 39.5304 37 39 37H11C10.4696 37 9.96086 36.7893 9.58579 36.4142C9.21071 36.0391 9 35.5304 9 35V19C9 18.4696 9.21071 17.9608 9.58579 17.5858C9.96086 17.2107 10.4696 17 11 17H15C15.4361 17.0227 15.8677 16.9021 16.2289 16.6566C16.59 16.411 16.8608 16.0539 17 15.64L18.08 12.36C18.2142 11.9627 18.4698 11.6177 18.8107 11.3737C19.1517 11.1296 19.5607 10.9989 19.98 11H30.22C30.6393 10.9989 31.0483 11.1296 31.3893 11.3737C31.7302 11.6177 31.9858 11.9627 32.12 12.36L33.2 15.64C33.3283 16.0215 33.5688 16.3554 33.8899 16.598C34.2111 16.8406 34.598 16.9807 35 17H39C39.5304 17 40.0391 17.2107 40.4142 17.5858C40.7893 17.9608 41 18.4696 41 19V35ZM25 17C23.4177 17 21.871 17.4692 20.5554 18.3482C19.2398 19.2273 18.2145 20.4767 17.609 21.9385C17.0035 23.4003 16.845 25.0089 17.1537 26.5607C17.4624 28.1126 18.2243 29.538 19.3431 30.6568C20.462 31.7757 21.8874 32.5376 23.4393 32.8463C24.9911 33.1549 26.5997 32.9965 28.0615 32.391C29.5233 31.7855 30.7727 30.7601 31.6518 29.4445C32.5308 28.129 33 26.5822 33 25C33 22.8783 32.1571 20.8434 30.6569 19.3431C29.1566 17.8428 27.1217 17 25 17ZM25 29C24.2089 29 23.4355 28.7654 22.7777 28.3259C22.1199 27.8863 21.6072 27.2616 21.3045 26.5307C21.0017 25.7998 20.9225 24.9955 21.0769 24.2196C21.2312 23.4437 21.6122 22.731 22.1716 22.1716C22.731 21.6121 23.4437 21.2312 24.2196 21.0768C24.9956 20.9225 25.7998 21.0017 26.5307 21.3045C27.2616 21.6072 27.8864 22.1199 28.3259 22.7777C28.7654 23.4355 29 24.2089 29 25C29 26.0608 28.5786 27.0783 27.8284 27.8284C27.0783 28.5786 26.0609 29 25 29Z" fill="#0E2339" fill-opacity="0.5"/>
<path d="M0.631234 56.812C0.631234 55.996 0.815234 55.264 1.18323 54.616C1.55123 53.96 2.05123 53.448 2.68323 53.08C3.32323 52.712 4.03123 52.528 4.80723 52.528C5.71923 52.528 6.51523 52.748 7.19523 53.188C7.87523 53.628 8.37123 54.252 8.68323 55.06H7.37523C7.14323 54.556 6.80723 54.168 6.36723 53.896C5.93523 53.624 5.41523 53.488 4.80723 53.488C4.22323 53.488 3.69923 53.624 3.23523 53.896C2.77123 54.168 2.40723 54.556 2.14323 55.06C1.87923 55.556 1.74723 56.14 1.74723 56.812C1.74723 57.476 1.87923 58.06 2.14323 58.564C2.40723 59.06 2.77123 59.444 3.23523 59.716C3.69923 59.988 4.22323 60.124 4.80723 60.124C5.41523 60.124 5.93523 59.992 6.36723 59.728C6.80723 59.456 7.14323 59.068 7.37523 58.564H8.68323C8.37123 59.364 7.87523 59.984 7.19523 60.424C6.51523 60.856 5.71923 61.072 4.80723 61.072C4.03123 61.072 3.32323 60.892 2.68323 60.532C2.05123 60.164 1.55123 59.656 1.18323 59.008C0.815234 58.36 0.631234 57.628 0.631234 56.812ZM9.90077 57.688C9.90077 57.016 10.0368 56.428 10.3088 55.924C10.5808 55.412 10.9528 55.016 11.4248 54.736C11.9048 54.456 12.4368 54.316 13.0208 54.316C13.5968 54.316 14.0968 54.44 14.5208 54.688C14.9448 54.936 15.2608 55.248 15.4688 55.624V54.424H16.5728V61H15.4688V59.776C15.2528 60.16 14.9288 60.48 14.4968 60.736C14.0728 60.984 13.5768 61.108 13.0088 61.108C12.4248 61.108 11.8968 60.964 11.4248 60.676C10.9528 60.388 10.5808 59.984 10.3088 59.464C10.0368 58.944 9.90077 58.352 9.90077 57.688ZM15.4688 57.7C15.4688 57.204 15.3688 56.772 15.1688 56.404C14.9688 56.036 14.6968 55.756 14.3528 55.564C14.0168 55.364 13.6448 55.264 13.2368 55.264C12.8288 55.264 12.4568 55.36 12.1208 55.552C11.7848 55.744 11.5168 56.024 11.3168 56.392C11.1168 56.76 11.0168 57.192 11.0168 57.688C11.0168 58.192 11.1168 58.632 11.3168 59.008C11.5168 59.376 11.7848 59.66 12.1208 59.86C12.4568 60.052 12.8288 60.148 13.2368 60.148C13.6448 60.148 14.0168 60.052 14.3528 59.86C14.6968 59.66 14.9688 59.376 15.1688 59.008C15.3688 58.632 15.4688 58.196 15.4688 57.7ZM26.3261 54.304C26.8381 54.304 27.2941 54.412 27.6941 54.628C28.0941 54.836 28.4101 55.152 28.6421 55.576C28.8741 56 28.9901 56.516 28.9901 57.124V61H27.9101V57.28C27.9101 56.624 27.7461 56.124 27.4181 55.78C27.0981 55.428 26.6621 55.252 26.1101 55.252C25.5421 55.252 25.0901 55.436 24.7541 55.804C24.4181 56.164 24.2501 56.688 24.2501 57.376V61H23.1701V57.28C23.1701 56.624 23.0061 56.124 22.6781 55.78C22.3581 55.428 21.9221 55.252 21.3701 55.252C20.8021 55.252 20.3501 55.436 20.0141 55.804C19.6781 56.164 19.5101 56.688 19.5101 57.376V61H18.4181V54.424H19.5101V55.372C19.7261 55.028 20.0141 54.764 20.3741 54.58C20.7421 54.396 21.1461 54.304 21.5861 54.304C22.1381 54.304 22.6261 54.428 23.0501 54.676C23.4741 54.924 23.7901 55.288 23.9981 55.768C24.1821 55.304 24.4861 54.944 24.9101 54.688C25.3341 54.432 25.8061 54.304 26.3261 54.304ZM36.7814 57.46C36.7814 57.668 36.7694 57.888 36.7454 58.12H31.4894C31.5294 58.768 31.7494 59.276 32.1494 59.644C32.5574 60.004 33.0494 60.184 33.6254 60.184C34.0974 60.184 34.4894 60.076 34.8014 59.86C35.1214 59.636 35.3454 59.34 35.4734 58.972H36.6494C36.4734 59.604 36.1214 60.12 35.5934 60.52C35.0654 60.912 34.4094 61.108 33.6254 61.108C33.0014 61.108 32.4414 60.968 31.9454 60.688C31.4574 60.408 31.0734 60.012 30.7934 59.5C30.5134 58.98 30.3734 58.38 30.3734 57.7C30.3734 57.02 30.5094 56.424 30.7814 55.912C31.0534 55.4 31.4334 55.008 31.9214 54.736C32.4174 54.456 32.9854 54.316 33.6254 54.316C34.2494 54.316 34.8014 54.452 35.2814 54.724C35.7614 54.996 36.1294 55.372 36.3854 55.852C36.6494 56.324 36.7814 56.86 36.7814 57.46ZM35.6534 57.232C35.6534 56.816 35.5614 56.46 35.3774 56.164C35.1934 55.86 34.9414 55.632 34.6214 55.48C34.3094 55.32 33.9614 55.24 33.5774 55.24C33.0254 55.24 32.5534 55.416 32.1614 55.768C31.7774 56.12 31.5574 56.608 31.5014 57.232H35.6534ZM39.3148 55.492C39.5068 55.116 39.7788 54.824 40.1308 54.616C40.4908 54.408 40.9268 54.304 41.4388 54.304V55.432H41.1508C39.9268 55.432 39.3148 56.096 39.3148 57.424V61H38.2228V54.424H39.3148V55.492ZM42.2914 57.688C42.2914 57.016 42.4274 56.428 42.6994 55.924C42.9714 55.412 43.3434 55.016 43.8154 54.736C44.2954 54.456 44.8274 54.316 45.4114 54.316C45.9874 54.316 46.4874 54.44 46.9114 54.688C47.3354 54.936 47.6514 55.248 47.8594 55.624V54.424H48.9634V61H47.8594V59.776C47.6434 60.16 47.3194 60.48 46.8874 60.736C46.4634 60.984 45.9674 61.108 45.3994 61.108C44.8154 61.108 44.2874 60.964 43.8154 60.676C43.3434 60.388 42.9714 59.984 42.6994 59.464C42.4274 58.944 42.2914 58.352 42.2914 57.688ZM47.8594 57.7C47.8594 57.204 47.7594 56.772 47.5594 56.404C47.3594 56.036 47.0874 55.756 46.7434 55.564C46.4074 55.364 46.0354 55.264 45.6274 55.264C45.2194 55.264 44.8474 55.36 44.5114 55.552C44.1754 55.744 43.9074 56.024 43.7074 56.392C43.5074 56.76 43.4074 57.192 43.4074 57.688C43.4074 58.192 43.5074 58.632 43.7074 59.008C43.9074 59.376 44.1754 59.66 44.5114 59.86C44.8474 60.052 45.2194 60.148 45.6274 60.148C46.0354 60.148 46.4074 60.052 46.7434 59.86C47.0874 59.66 47.3594 59.376 47.5594 59.008C47.7594 58.632 47.8594 58.196 47.8594 57.7Z" fill="#0E2339"/>
</svg>
