<svg width="96" height="96" viewBox="0 0 96 96" fill="none" xmlns="http://www.w3.org/2000/svg">
<g clip-path="url(#clip0_1586_64)">
<path d="M48 64C54.6274 64 60 58.6274 60 52C60 45.3726 54.6274 40 48 40C41.3726 40 36 45.3726 36 52C36 58.6274 41.3726 64 48 64Z" fill="#87919C"/>
<path d="M80 20H67.32L62.36 14.6C60.88 12.96 58.72 12 56.48 12H39.52C37.28 12 35.12 12.96 33.6 14.6L28.68 20H16C11.6 20 8 23.6 8 28V76C8 80.4 11.6 84 16 84H80C84.4 84 88 80.4 88 76V28C88 23.6 84.4 20 80 20ZM48 72C36.96 72 28 63.04 28 52C28 40.96 36.96 32 48 32C59.04 32 68 40.96 68 52C68 63.04 59.04 72 48 72Z" fill="#87919C"/>
</g>
<defs>
<clipPath id="clip0_1586_64">
<rect width="96" height="96" fill="white"/>
</clipPath>
</defs>
</svg>
