<svg width="64" height="64" viewBox="0 0 64 64" fill="none" xmlns="http://www.w3.org/2000/svg">
<g clip-path="url(#clip0_43_1532)">
<path d="M55.7729 64.1066H8.21903C2.02893 64.1066 -1.99344 57.5954 0.776453 52.0556L24.5574 4.49372C27.6243 -1.64822 36.3836 -1.64822 39.4506 4.49372L63.2315 52.0556C65.9934 57.5954 61.963 64.1066 55.7729 64.1066Z" fill="#F05543"/>
<path d="M37.5719 18.0864C37.5719 18.2228 37.5719 18.3593 37.5639 18.4958L35.4122 41.1849C35.2838 42.9752 33.7985 44.3642 32 44.3642C30.2096 44.3642 28.7163 42.9752 28.5879 41.1849L26.4442 18.4958C26.2114 15.2763 28.7645 12.5305 31.992 12.5305C35.0991 12.5385 37.5719 15.0515 37.5719 18.0864Z" fill="#E4E3FF"/>
<path d="M32 56.3349C34.1549 56.3349 35.9019 54.588 35.9019 52.433C35.9019 50.278 34.1549 48.5311 32 48.5311C29.845 48.5311 28.098 50.278 28.098 52.433C28.098 54.588 29.845 56.3349 32 56.3349Z" fill="#E4E3FF"/>
</g>
<defs>
<clipPath id="clip0_43_1532">
<rect width="64" height="64" fill="white"/>
</clipPath>
</defs>
</svg>
