<svg width="64" height="64" viewBox="0 0 64 64" fill="none" xmlns="http://www.w3.org/2000/svg">
<g clip-path="url(#clip0_2382_567)">
<path d="M55.7733 64.1066H8.21946C2.02935 64.1066 -1.99301 57.5954 0.776881 52.0556L24.5578 4.49372C27.6248 -1.64822 36.384 -1.64822 39.451 4.49372L63.2319 52.0556C65.9938 57.5954 61.9634 64.1066 55.7733 64.1066Z" fill="#F05543"/>
<path d="M37.5722 18.0864C37.5722 18.2228 37.5722 18.3593 37.5642 18.4958L35.4125 41.1849C35.284 42.9752 33.7987 44.3642 32.0003 44.3642C30.2099 44.3642 28.7166 42.9752 28.5881 41.1849L26.4444 18.4958C26.2116 15.2763 28.7647 12.5305 31.9923 12.5305C35.0994 12.5385 37.5722 15.0515 37.5722 18.0864Z" fill="#E4E3FF"/>
<path d="M31.9996 56.3349C34.1546 56.3349 35.9015 54.588 35.9015 52.433C35.9015 50.278 34.1546 48.5311 31.9996 48.5311C29.8446 48.5311 28.0977 50.278 28.0977 52.433C28.0977 54.588 29.8446 56.3349 31.9996 56.3349Z" fill="#E4E3FF"/>
</g>
<defs>
<clipPath id="clip0_2382_567">
<rect width="64" height="64" fill="white"/>
</clipPath>
</defs>
</svg>
