<svg width="64" height="64" viewBox="0 0 64 64" fill="none" xmlns="http://www.w3.org/2000/svg">
<path d="M49.5467 55.6978H14.4474C9.87852 55.6978 6.90963 50.8919 8.95407 46.803L26.5067 11.6978C28.7704 7.16446 35.2356 7.16446 37.4993 11.6978L55.0518 46.803C57.0904 50.8919 54.1156 55.6978 49.5467 55.6978Z" fill="#F05543"/>
<path d="M36.1126 21.7304C36.1126 21.8311 36.1126 21.9319 36.1067 22.0326L34.5185 38.7793C34.4237 40.1007 33.3274 41.1259 32 41.1259C30.6785 41.1259 29.5763 40.1007 29.4815 38.7793L27.8993 22.0326C27.7274 19.6563 29.6118 17.6296 31.9941 17.6296C34.2874 17.6356 36.1126 19.4904 36.1126 21.7304Z" fill="#E4E3FF"/>
<path d="M32 49.9615C33.5906 49.9615 34.88 48.6721 34.88 47.0815C34.88 45.4909 33.5906 44.2015 32 44.2015C30.4094 44.2015 29.12 45.4909 29.12 47.0815C29.12 48.6721 30.4094 49.9615 32 49.9615Z" fill="#E4E3FF"/>
</svg>
