<svg width="48" height="48" viewBox="0 0 48 48" fill="none" xmlns="http://www.w3.org/2000/svg">
<circle cx="24" cy="24" r="24" fill="#EF5862"/>
<path d="M20.2247 13.6094C19.5774 13.6094 18.93 13.8564 18.4362 14.3503C17.4484 15.338 17.4484 16.9395 18.4362 17.9273C19.4239 18.9151 22.0475 19.9371 23.0353 18.9494C24.023 17.9616 23.001 15.338 22.0132 14.3503C21.5193 13.8564 20.872 13.6094 20.2247 13.6094ZM27.778 13.6094C27.1307 13.6094 26.4833 13.8564 25.9894 14.3503C25.0016 15.338 23.9796 17.9616 24.9674 18.9494C25.9552 19.9371 28.5788 18.9151 29.5666 17.9273C30.5543 16.9395 30.5543 15.338 29.5666 14.3503C29.0727 13.8564 28.4253 13.6094 27.778 13.6094Z" fill="#FFA14E"/>
<path d="M17.8301 16.9531C17.9508 17.3091 18.1527 17.6437 18.4364 17.9274C19.4242 18.9152 22.0477 19.9372 23.0355 18.9494C23.474 18.5109 23.5159 17.7501 23.3411 16.9531H17.8301ZM24.662 16.9531C24.4872 17.7501 24.5291 18.5109 24.9676 18.9494C25.9554 19.9372 28.579 18.9152 29.5667 17.9274C29.8505 17.6437 30.0524 17.3091 30.1731 16.9531H24.662Z" fill="#FF7377"/>
<path d="M21.0312 18.3598H23.9999V16.7334C23.9999 16.0842 23.4773 15.5615 22.8281 15.5615H22.2031C21.5539 15.5615 21.0312 16.0842 21.0312 16.7334V18.3598ZM23.9999 18.3598H26.9686V16.7334C26.9686 16.0842 26.446 15.5615 25.7967 15.5615H25.1718C24.5226 15.5615 23.9999 16.0842 23.9999 16.7334V18.3598Z" fill="#FFD54F"/>
<path d="M23.9999 16.9531V18.3594H26.9686V16.9531H23.9999ZM21.0312 16.9531V18.3594H23.9999V16.9531H21.0312Z" fill="#FFBB4F"/>
<path d="M14.71 21.1006V32.7495C14.71 33.6584 15.4417 34.3902 16.3506 34.3902H31.6496C32.5586 34.3902 33.2903 33.6585 33.2903 32.7495V21.1006H14.71Z" fill="#FF6C6F"/>
<path d="M14.71 27.796V29.9522H33.2903V27.796H14.71ZM14.71 21.1006V23.2568H33.2903V21.1006H14.71Z" fill="#FA7894"/>
<path d="M14.4268 18.1719H33.5732C34.3522 18.1719 34.9794 18.7991 34.9794 19.5781V20.6323C34.9794 21.4113 34.3522 22.0385 33.5732 22.0385H14.4268C13.6477 22.0385 13.0205 21.4113 13.0205 20.6323V19.5781C13.0205 18.7991 13.6477 18.1719 14.4268 18.1719Z" fill="#FF6C6F"/>
<path d="M22.5156 18.1719V34.3906H25.4843V18.1719H22.5156Z" fill="#FFD54F"/>
<path d="M22.5156 27.7969V29.9531H25.4843V27.7969H22.5156Z" fill="#FFBB4F"/>
<path d="M14.71 25.9287V28.8974H33.2903V25.9287H14.71Z" fill="#FFD54F"/>
<path fill-rule="evenodd" clip-rule="evenodd" d="M13.9219 20.9131V21.1006H14.297V20.9131H13.9219ZM14.8594 20.9131V21.1006H15.2345V20.9131H14.8594ZM15.7966 20.9131V21.1006H16.1718V20.9131H15.7966ZM16.7344 20.9131V21.1006H17.1095V20.9131H16.7344ZM17.6719 20.9131V21.1006H18.0469V20.9131H17.6719ZM18.6091 20.9131V21.1006H18.9843V20.9131H18.6091ZM19.5469 20.9131V21.1006H19.922V20.9131H19.5469ZM20.4843 20.9131V21.1006H20.8594V20.9131H20.4843ZM21.4216 20.9131V21.1006H21.7968V20.9131H21.4216ZM26.1094 20.9131V21.1006H26.4844V20.9131H26.1094ZM27.0466 20.9131V21.1006H27.4218V20.9131H27.0466ZM27.9843 20.9131V21.1006H28.3594V20.9131H27.9843ZM28.9218 20.9131V21.1006H29.2968V20.9131H28.9218ZM29.9531 20.9131V21.1006H30.3282V20.9131H29.9531ZM30.8909 20.9131V21.1006H31.2659V20.9131H30.8909ZM31.8283 20.9131V21.1006H32.2034V20.9131H31.8283ZM32.7656 20.9131V21.1006H33.1407V20.9131H32.7656ZM33.7033 20.9131V21.1006H34.0784V20.9131H33.7033ZM15.7966 33.1012V33.2887H16.1718V33.1012H15.7966ZM16.7344 33.1012V33.2887H17.1095V33.1012H16.7344ZM17.6719 33.1012V33.2887H18.0469V33.1012H17.6719ZM18.6091 33.1012V33.2887H18.9843V33.1012H18.6091ZM19.5469 33.1012V33.2887H19.922V33.1012H19.5469ZM20.4843 33.1012V33.2887H20.8594V33.1012H20.4843ZM21.4216 33.1012V33.2887H21.7968V33.1012H21.4216ZM26.1094 33.1012V33.2887H26.4844V33.1012H26.1094ZM27.0466 33.1012V33.2887H27.4218V33.1012H27.0466ZM27.9843 33.1012V33.2887H28.3594V33.1012H27.9843ZM28.9218 33.1012V33.2887H29.2968V33.1012H28.9218ZM29.9531 33.1012V33.2887H30.3282V33.1012H29.9531ZM30.8909 33.1012V33.2887H31.2659V33.1012H30.8909ZM31.8283 33.1012V33.2887H32.2034V33.1012H31.8283Z" fill="#DB375B"/>
<path d="M14.71 27.4971V27.8722C20.9033 27.8722 27.0967 27.8722 33.29 27.8722V27.4971C27.0967 27.4971 20.9033 27.4971 14.71 27.4971Z" fill="#FFBB4F"/>
</svg>
