<svg width="24" height="24" viewBox="0 0 24 24" fill="none" xmlns="http://www.w3.org/2000/svg">
<path d="M19 0H5C3.67392 0 2.40215 0.526784 1.46447 1.46447C0.526784 2.40215 0 3.67392 0 5V19C0 20.3261 0.526784 21.5979 1.46447 22.5355C2.40215 23.4732 3.67392 24 5 24H19C20.3261 24 21.5979 23.4732 22.5355 22.5355C23.4732 21.5979 24 20.3261 24 19V5C24 3.67392 23.4732 2.40215 22.5355 1.46447C21.5979 0.526784 20.3261 0 19 0ZM22 19C22 19.7956 21.6839 20.5587 21.1213 21.1213C20.5587 21.6839 19.7956 22 19 22H5C4.20435 22 3.44129 21.6839 2.87868 21.1213C2.31607 20.5587 2 19.7956 2 19V5C2 4.20435 2.31607 3.44129 2.87868 2.87868C3.44129 2.31607 4.20435 2 5 2H19C19.7956 2 20.5587 2.31607 21.1213 2.87868C21.6839 3.44129 22 4.20435 22 5V19Z" fill="#0E2339" fill-opacity="0.5"/>
<path d="M15.9976 10.9999H12.9976V7.99988C12.9976 7.73466 12.8922 7.48031 12.7047 7.29277C12.5171 7.10523 12.2628 6.99988 11.9976 6.99988C11.7323 6.99988 11.478 7.10523 11.2905 7.29277C11.1029 7.48031 10.9976 7.73466 10.9976 7.99988V10.9999H7.99756C7.73234 10.9999 7.47799 11.1052 7.29045 11.2928C7.10292 11.4803 6.99756 11.7347 6.99756 11.9999C6.99756 12.2651 7.10292 12.5194 7.29045 12.707C7.47799 12.8945 7.73234 12.9999 7.99756 12.9999H10.9976V15.9999C10.9976 16.2651 11.1029 16.5194 11.2905 16.707C11.478 16.8945 11.7323 16.9999 11.9976 16.9999C12.2628 16.9999 12.5171 16.8945 12.7047 16.707C12.8922 16.5194 12.9976 16.2651 12.9976 15.9999V12.9999H15.9976C16.2628 12.9999 16.5171 12.8945 16.7047 12.707C16.8922 12.5194 16.9976 12.2651 16.9976 11.9999C16.9976 11.7347 16.8922 11.4803 16.7047 11.2928C16.5171 11.1052 16.2628 10.9999 15.9976 10.9999Z" fill="#0E2339" fill-opacity="0.5"/>
</svg>
