<svg width="24" height="24" viewBox="0 0 24 24" fill="none" xmlns="http://www.w3.org/2000/svg">
<path d="M22.5082 6.73799V20.3485C22.5082 20.9773 22.4934 21.6062 22.5082 22.235V22.262L23.2519 21.5251H1.66282C1.3703 21.5251 1.07779 21.5202 0.785273 21.5251H0.748089L1.49177 22.262V8.65147C1.49177 8.02265 1.50664 7.39383 1.49177 6.76501V6.73799L0.748089 7.47489H22.3372C22.6297 7.47489 22.9222 7.47735 23.2147 7.47489H23.2519C23.6411 7.47489 24.0129 7.13592 23.9956 6.73799C23.9782 6.33761 23.6684 6.00109 23.2519 6.00109H1.66282C1.3703 6.00109 1.07779 5.99864 0.785273 6.00109H0.748089C0.346501 6.00109 0.00440701 6.33761 0.00440701 6.73799V20.3485C0.00440701 20.9773 -0.00550876 21.6062 0.00440701 22.235V22.262C0.00440701 22.6599 0.344022 22.9989 0.748089 22.9989H22.3372C22.6297 22.9989 22.9222 23.0014 23.2147 22.9989H23.2519C23.6535 22.9989 23.9956 22.6624 23.9956 22.262V8.65147C23.9956 8.02265 24.0055 7.39383 23.9956 6.76501V6.73799C23.9956 6.35235 23.6535 5.9839 23.2519 6.00109C22.8478 6.01829 22.5082 6.32533 22.5082 6.73799Z" fill="#87919C"/>
<path d="M23.2621 6.45897H1.66159C1.36892 6.45897 1.07625 6.45383 0.783582 6.45897H0.746378C0.922476 6.89784 1.09609 7.33414 1.27219 7.77301C1.83025 7.15705 2.39079 6.54366 2.94884 5.9277C3.83925 4.94731 4.72967 3.96948 5.62008 2.98908L6.23022 2.31922C6.05412 2.39365 5.8805 2.47065 5.7044 2.54508H16.7539C17.2624 2.54508 17.7733 2.56047 18.2843 2.54508H18.3041C18.128 2.47065 17.9544 2.39365 17.7783 2.31922C18.3363 2.93518 18.8969 3.54857 19.4549 4.16453C20.3453 5.14493 21.2358 6.12276 22.1262 7.10316L22.7363 7.77301C23.0042 8.06816 23.5225 8.07329 23.7879 7.77301C24.0682 7.45733 24.0732 6.99793 23.7879 6.68482C23.282 6.12789 22.776 5.57096 22.27 5.0166C21.4143 4.0747 20.5562 3.1328 19.7005 2.1909C19.4425 1.90602 19.1846 1.62371 18.9242 1.33883C18.753 1.15147 18.5844 1.01545 18.2991 1.00518H6.08388C5.90034 1.00518 5.68456 0.982084 5.5035 1.03341C5.20091 1.12067 4.96529 1.46202 4.75943 1.68787L2.3635 4.32108L0.324735 6.56163L0.213123 6.68482C0.00478215 6.91324 -0.0597045 7.23661 0.0593477 7.52663C0.173439 7.80637 0.441307 7.99886 0.738937 7.99886H22.3395C22.6321 7.99886 22.9248 8.00143 23.2175 7.99886H23.2547C23.6441 7.99886 24.0161 7.64468 23.9988 7.22891C23.9888 6.81058 23.6788 6.45897 23.2621 6.45897Z" fill="#87919C"/>
<path d="M14.3392 6.70842V13.3074C14.7542 13.1051 15.172 12.9005 15.5871 12.6983C14.6518 12.282 13.7194 11.8658 12.7841 11.4495C12.6624 11.3954 12.5434 11.339 12.4216 11.2872C12.12 11.1579 11.8323 11.1791 11.5445 11.3037C11.4809 11.3296 11.42 11.3578 11.3591 11.386C10.8168 11.6282 10.2745 11.8705 9.72936 12.1103C9.28941 12.3055 8.85223 12.5007 8.41228 12.6959C8.82733 12.8982 9.24514 13.1028 9.66019 13.305V6.70607L8.83009 7.41159H15.1693C15.6037 7.41159 16.0187 7.08705 15.9993 6.70607C15.98 6.32274 15.6341 6.00055 15.1693 6.00055H8.83009C8.38184 6.00055 8 6.32274 8 6.70607V13.305C8 13.8577 8.70005 14.1587 9.24791 13.9141C10.1721 13.5026 11.0935 13.091 12.0177 12.6795L12.4161 12.5031H11.5777C12.5019 12.9146 13.4233 13.3262 14.3475 13.7377L14.7459 13.9141C15.2965 14.1587 15.9938 13.8577 15.9938 13.305V6.70607C15.9938 6.33685 15.612 5.98409 15.1637 6.00055C14.7182 6.01937 14.3392 6.31333 14.3392 6.70842Z" fill="#87919C"/>
</svg>
