<svg width="24" height="24" viewBox="0 0 24 24" fill="none" xmlns="http://www.w3.org/2000/svg">
<path fill-rule="evenodd" clip-rule="evenodd" d="M12 2C9.23858 2 7 4.23858 7 7V11C7 13.7614 9.23858 16 12 16C14.7614 16 17 13.7614 17 11V7C17 4.23858 14.7614 2 12 2ZM9 7C9 5.34315 10.3431 4 12 4C13.6569 4 15 5.34315 15 7V11C15 12.6569 13.6569 14 12 14C10.3431 14 9 12.6569 9 11V7Z" fill="#87919C"/>
<path d="M11.0019 18.9383C7.05465 18.4471 4 15.0803 4 11H6C6 14.3137 8.68629 17 12 17C15.3137 17 18 14.3137 18 11H20C20 15.0803 16.9453 18.4471 12.9981 18.9383C12.9994 18.9587 13 18.9793 13 19V20H15C15.5523 20 16 20.4477 16 21C16 21.5523 15.5523 22 15 22H9C8.44772 22 8 21.5523 8 21C8 20.4477 8.44772 20 9 20H11V19C11 18.9793 11.0006 18.9587 11.0019 18.9383Z" fill="#87919C"/>
</svg>
