<svg width="24" height="24" viewBox="0 0 24 24" fill="none" xmlns="http://www.w3.org/2000/svg">
<g clip-path="url(#clip0_54_257)">
<path d="M16.2307 1H7.76915C7.32032 1 6.88988 1.1783 6.57251 1.49567C6.25514 1.81303 6.07684 2.24348 6.07684 2.69231V7.76923C6.07684 8.21806 6.25514 8.6485 6.57251 8.96587C6.88988 9.28324 7.32032 9.46154 7.76915 9.46154H9.46146L11.9999 12L14.5384 9.46154H16.2307C16.6795 9.46154 17.11 9.28324 17.4273 8.96587C17.7447 8.6485 17.923 8.21806 17.923 7.76923V2.69231C17.923 2.24348 17.7447 1.81303 17.4273 1.49567C17.11 1.1783 16.6795 1 16.2307 1Z" stroke="#87919C" stroke-width="1.5" stroke-miterlimit="10" stroke-linecap="round" stroke-linejoin="round"/>
<path d="M12.0003 6.07703C12.4676 6.07703 12.8465 5.69819 12.8465 5.23087C12.8465 4.76356 12.4676 4.38472 12.0003 4.38472C11.533 4.38472 11.1542 4.76356 11.1542 5.23087C11.1542 5.69819 11.533 6.07703 12.0003 6.07703Z" fill="#87919C"/>
<path d="M9.46145 6.07703C9.92877 6.07703 10.3076 5.69819 10.3076 5.23087C10.3076 4.76356 9.92877 4.38472 9.46145 4.38472C8.99413 4.38472 8.6153 4.76356 8.6153 5.23087C8.6153 5.69819 8.99413 6.07703 9.46145 6.07703Z" fill="#87919C"/>
<path d="M14.5383 6.07703C15.0056 6.07703 15.3844 5.69819 15.3844 5.23087C15.3844 4.76356 15.0056 4.38472 14.5383 4.38472C14.071 4.38472 13.6921 4.76356 13.6921 5.23087C13.6921 5.69819 14.071 6.07703 14.5383 6.07703Z" fill="#87919C"/>
<path d="M3.53846 13.2668V8.19238C3.53846 7.85576 3.40474 7.53292 3.16671 7.2949C2.92869 7.05687 2.60585 6.92315 2.26923 6.92315C1.93261 6.92315 1.60978 7.05687 1.37175 7.2949C1.13372 7.53292 1 7.85576 1 8.19238V15.0056C0.999921 15.7975 1.27748 16.5643 1.78438 17.1726L5.23077 21.3078V23.0001" stroke="#87919C" stroke-width="1.5" stroke-miterlimit="10" stroke-linecap="round" stroke-linejoin="round"/>
<path d="M10.3077 23.0001V18.8048C10.3077 17.6975 9.87363 16.6342 9.09853 15.8433L5.69361 12.3698C5.45717 12.1334 5.13652 12.0006 4.80218 12.0006C4.46784 12.0006 4.1472 12.1334 3.91076 12.3698L3.90738 12.3724C3.67099 12.61 3.53834 12.9316 3.53845 13.2668C3.53801 13.5522 3.6357 13.8291 3.81515 14.0511L6.07692 17.077M20.4615 13.2668V8.19238C20.4615 7.85576 20.5953 7.53292 20.8333 7.2949C21.0713 7.05687 21.3941 6.92315 21.7308 6.92315C22.0674 6.92315 22.3902 7.05687 22.6282 7.2949C22.8663 7.53292 23 7.85576 23 8.19238V15.0056C23.0001 15.7975 22.7225 16.5643 22.2156 17.1726L18.7692 21.3078V23.0001" stroke="#87919C" stroke-width="1.5" stroke-miterlimit="10" stroke-linecap="round" stroke-linejoin="round"/>
<path d="M13.6921 22.9999V18.8047C13.6921 17.6973 14.1262 16.634 14.9013 15.8431L18.3062 12.3697C18.5426 12.1333 18.8633 12.0005 19.1976 12.0005C19.532 12.0005 19.8526 12.1333 20.0891 12.3697L20.0916 12.3722C20.3113 12.5914 20.4422 12.8839 20.4594 13.1938C20.4766 13.5036 20.3788 13.8089 20.1847 14.051L17.9229 17.0768" stroke="#87919C" stroke-width="1.5" stroke-miterlimit="10" stroke-linecap="round" stroke-linejoin="round"/>
</g>
<defs>
<clipPath id="clip0_54_257">
<rect width="24" height="24" fill="white"/>
</clipPath>
</defs>
</svg>
