<svg width="24" height="24" viewBox="0 0 24 24" fill="none" xmlns="http://www.w3.org/2000/svg">
<path d="M20.25 4.50005H19.335C19.1232 3.74975 18.7024 3.07515 18.1217 2.555C17.5409 2.03485 16.8242 1.69061 16.0552 1.56244C15.2862 1.43427 14.4966 1.52747 13.7786 1.83115C13.0605 2.13484 12.4437 2.63649 12 3.27755C11.5581 2.6337 10.9416 2.12934 10.223 1.82375C9.50432 1.51816 8.71339 1.42402 7.9431 1.5524C7.17281 1.68078 6.45516 2.02635 5.87448 2.5485C5.2938 3.07064 4.8742 3.74768 4.665 4.50005H3.75C3.15326 4.50005 2.58097 4.7371 2.15901 5.15906C1.73705 5.58102 1.5 6.15331 1.5 6.75005V9.00005C1.5013 9.46426 1.64616 9.9167 1.9147 10.2953C2.18325 10.674 2.56234 10.9603 3 11.1151V20.25C3 20.8468 3.23705 21.4191 3.65901 21.841C4.08097 22.263 4.65326 22.5 5.25 22.5H18.75C19.3467 22.5 19.919 22.263 20.341 21.841C20.7629 21.4191 21 20.8468 21 20.25V11.1151C21.4377 10.9603 21.8168 10.674 22.0853 10.2953C22.3538 9.9167 22.4987 9.46426 22.5 9.00005V6.75005C22.5 6.15331 22.2629 5.58102 21.841 5.15906C21.419 4.7371 20.8467 4.50005 20.25 4.50005ZM15.375 3.00005C15.8704 3.00089 16.3553 3.14229 16.7735 3.40782C17.1917 3.67334 17.526 4.05209 17.7375 4.50005H13.0125C13.224 4.05209 13.5583 3.67334 13.9765 3.40782C14.3947 3.14229 14.8796 3.00089 15.375 3.00005ZM8.625 3.00005C9.12057 2.99999 9.60591 3.14103 10.0243 3.40665C10.4426 3.67228 10.7767 4.05153 10.9875 4.50005H6.2625C6.47399 4.05209 6.80826 3.67334 7.22646 3.40782C7.64466 3.14229 8.12963 3.00089 8.625 3.00005ZM3 6.75005C3 6.55114 3.07902 6.36037 3.21967 6.21972C3.36032 6.07907 3.55109 6.00005 3.75 6.00005H11.25V9.75005H3.75C3.55109 9.75005 3.36032 9.67103 3.21967 9.53038C3.07902 9.38973 3 9.19896 3 9.00005V6.75005ZM5.25 21C5.05109 21 4.86032 20.921 4.71967 20.7804C4.57902 20.6397 4.5 20.449 4.5 20.25V11.2501H11.25V21H5.25ZM19.5 20.25C19.5 20.449 19.421 20.6397 19.2803 20.7804C19.1397 20.921 18.9489 21 18.75 21H12.75V11.2501H19.5V20.25ZM21 9.00005C21 9.19896 20.921 9.38973 20.7803 9.53038C20.6397 9.67103 20.4489 9.75005 20.25 9.75005H12.75V6.00005H20.25C20.4489 6.00005 20.6397 6.07907 20.7803 6.21972C20.921 6.36037 21 6.55114 21 6.75005V9.00005Z" fill="#0E2339" fill-opacity="0.5"/>
</svg>
