<svg width="82" height="72" viewBox="0 0 82 72" fill="none" xmlns="http://www.w3.org/2000/svg">
<path d="M53.6667 6H30.3333C28.1232 6 26.0036 6.87797 24.4408 8.44078C22.878 10.0036 22 12.1232 22 14.3333V37.6667C22 39.8768 22.878 41.9964 24.4408 43.5592C26.0036 45.122 28.1232 46 30.3333 46H53.6667C55.8768 46 57.9964 45.122 59.5592 43.5592C61.122 41.9964 62 39.8768 62 37.6667V14.3333C62 12.1232 61.122 10.0036 59.5592 8.44078C57.9964 6.87797 55.8768 6 53.6667 6ZM58.6667 37.6667C58.6667 38.9927 58.1399 40.2645 57.2022 41.2022C56.2645 42.1399 54.9927 42.6667 53.6667 42.6667H30.3333C29.0073 42.6667 27.7355 42.1399 26.7978 41.2022C25.8601 40.2645 25.3333 38.9927 25.3333 37.6667V14.3333C25.3333 13.0073 25.8601 11.7355 26.7978 10.7978C27.7355 9.86012 29.0073 9.33333 30.3333 9.33333H53.6667C54.9927 9.33333 56.2645 9.86012 57.2022 10.7978C58.1399 11.7355 58.6667 13.0073 58.6667 14.3333V37.6667Z" fill="#0E2339" fill-opacity="0.5"/>
<path d="M48.668 24.3337H43.668V19.3337C43.668 18.8916 43.4924 18.4677 43.1798 18.1551C42.8673 17.8426 42.4433 17.667 42.0013 17.667C41.5593 17.667 41.1354 17.8426 40.8228 18.1551C40.5102 18.4677 40.3346 18.8916 40.3346 19.3337V24.3337H35.3346C34.8926 24.3337 34.4687 24.5093 34.1561 24.8218C33.8436 25.1344 33.668 25.5583 33.668 26.0003C33.668 26.4424 33.8436 26.8663 34.1561 27.1788C34.4687 27.4914 34.8926 27.667 35.3346 27.667H40.3346V32.667C40.3346 33.109 40.5102 33.5329 40.8228 33.8455C41.1354 34.1581 41.5593 34.3337 42.0013 34.3337C42.4433 34.3337 42.8673 34.1581 43.1798 33.8455C43.4924 33.5329 43.668 33.109 43.668 32.667V27.667H48.668C49.11 27.667 49.5339 27.4914 49.8465 27.1788C50.159 26.8663 50.3346 26.4424 50.3346 26.0003C50.3346 25.5583 50.159 25.1344 49.8465 24.8218C49.5339 24.5093 49.11 24.3337 48.668 24.3337Z" fill="#0E2339" fill-opacity="0.5"/>
<path d="M0.851938 62.812C0.851938 61.996 1.03594 61.264 1.40394 60.616C1.77194 59.96 2.27194 59.448 2.90394 59.08C3.54394 58.712 4.25194 58.528 5.02794 58.528C5.93994 58.528 6.73594 58.748 7.41594 59.188C8.09594 59.628 8.59194 60.252 8.90394 61.06H7.59594C7.36394 60.556 7.02794 60.168 6.58794 59.896C6.15594 59.624 5.63594 59.488 5.02794 59.488C4.44394 59.488 3.91994 59.624 3.45594 59.896C2.99194 60.168 2.62794 60.556 2.36394 61.06C2.09994 61.556 1.96794 62.14 1.96794 62.812C1.96794 63.476 2.09994 64.06 2.36394 64.564C2.62794 65.06 2.99194 65.444 3.45594 65.716C3.91994 65.988 4.44394 66.124 5.02794 66.124C5.63594 66.124 6.15594 65.992 6.58794 65.728C7.02794 65.456 7.36394 65.068 7.59594 64.564H8.90394C8.59194 65.364 8.09594 65.984 7.41594 66.424C6.73594 66.856 5.93994 67.072 5.02794 67.072C4.25194 67.072 3.54394 66.892 2.90394 66.532C2.27194 66.164 1.77194 65.656 1.40394 65.008C1.03594 64.36 0.851938 63.628 0.851938 62.812ZM16.3615 60.424V67H15.2695V66.028C15.0615 66.364 14.7695 66.628 14.3935 66.82C14.0255 67.004 13.6175 67.096 13.1695 67.096C12.6575 67.096 12.1975 66.992 11.7895 66.784C11.3815 66.568 11.0575 66.248 10.8175 65.824C10.5855 65.4 10.4695 64.884 10.4695 64.276V60.424H11.5495V64.132C11.5495 64.78 11.7135 65.28 12.0415 65.632C12.3695 65.976 12.8175 66.148 13.3855 66.148C13.9695 66.148 14.4295 65.968 14.7655 65.608C15.1015 65.248 15.2695 64.724 15.2695 64.036V60.424H16.3615ZM20.5333 67.108C20.0293 67.108 19.5773 67.024 19.1773 66.856C18.7773 66.68 18.4613 66.44 18.2293 66.136C17.9973 65.824 17.8693 65.468 17.8453 65.068H18.9733C19.0053 65.396 19.1573 65.664 19.4293 65.872C19.7093 66.08 20.0733 66.184 20.5213 66.184C20.9373 66.184 21.2653 66.092 21.5053 65.908C21.7453 65.724 21.8653 65.492 21.8653 65.212C21.8653 64.924 21.7373 64.712 21.4813 64.576C21.2253 64.432 20.8293 64.292 20.2933 64.156C19.8053 64.028 19.4053 63.9 19.0933 63.772C18.7893 63.636 18.5253 63.44 18.3013 63.184C18.0853 62.92 17.9773 62.576 17.9773 62.152C17.9773 61.816 18.0773 61.508 18.2773 61.228C18.4773 60.948 18.7613 60.728 19.1293 60.568C19.4973 60.4 19.9173 60.316 20.3893 60.316C21.1173 60.316 21.7053 60.5 22.1533 60.868C22.6013 61.236 22.8413 61.74 22.8733 62.38H21.7813C21.7573 62.036 21.6173 61.76 21.3613 61.552C21.1133 61.344 20.7773 61.24 20.3533 61.24C19.9613 61.24 19.6493 61.324 19.4173 61.492C19.1853 61.66 19.0693 61.88 19.0693 62.152C19.0693 62.368 19.1373 62.548 19.2733 62.692C19.4173 62.828 19.5933 62.94 19.8013 63.028C20.0173 63.108 20.3133 63.2 20.6893 63.304C21.1613 63.432 21.5453 63.56 21.8413 63.688C22.1373 63.808 22.3893 63.992 22.5973 64.24C22.8133 64.488 22.9253 64.812 22.9333 65.212C22.9333 65.572 22.8333 65.896 22.6333 66.184C22.4333 66.472 22.1493 66.7 21.7813 66.868C21.4213 67.028 21.0053 67.108 20.5333 67.108ZM25.8068 61.324V65.2C25.8068 65.52 25.8748 65.748 26.0108 65.884C26.1468 66.012 26.3828 66.076 26.7188 66.076H27.5228V67H26.5388C25.9308 67 25.4748 66.86 25.1708 66.58C24.8668 66.3 24.7148 65.84 24.7148 65.2V61.324H23.8628V60.424H24.7148V58.768H25.8068V60.424H27.5228V61.324H25.8068ZM31.7139 67.108C31.0979 67.108 30.5379 66.968 30.0339 66.688C29.5379 66.408 29.1459 66.012 28.8579 65.5C28.5779 64.98 28.4379 64.38 28.4379 63.7C28.4379 63.028 28.5819 62.436 28.8699 61.924C29.1659 61.404 29.5659 61.008 30.0699 60.736C30.5739 60.456 31.1379 60.316 31.7619 60.316C32.3859 60.316 32.9499 60.456 33.4539 60.736C33.9579 61.008 34.3539 61.4 34.6419 61.912C34.9379 62.424 35.0859 63.02 35.0859 63.7C35.0859 64.38 34.9339 64.98 34.6299 65.5C34.3339 66.012 33.9299 66.408 33.4179 66.688C32.9059 66.968 32.3379 67.108 31.7139 67.108ZM31.7139 66.148C32.1059 66.148 32.4739 66.056 32.8179 65.872C33.1619 65.688 33.4379 65.412 33.6459 65.044C33.8619 64.676 33.9699 64.228 33.9699 63.7C33.9699 63.172 33.8659 62.724 33.6579 62.356C33.4499 61.988 33.1779 61.716 32.8419 61.54C32.5059 61.356 32.1419 61.264 31.7499 61.264C31.3499 61.264 30.9819 61.356 30.6459 61.54C30.3179 61.716 30.0539 61.988 29.8539 62.356C29.6539 62.724 29.5539 63.172 29.5539 63.7C29.5539 64.236 29.6499 64.688 29.8419 65.056C30.0419 65.424 30.3059 65.7 30.6339 65.884C30.9619 66.06 31.3219 66.148 31.7139 66.148ZM44.4297 60.304C44.9417 60.304 45.3977 60.412 45.7977 60.628C46.1977 60.836 46.5137 61.152 46.7457 61.576C46.9777 62 47.0937 62.516 47.0937 63.124V67H46.0137V63.28C46.0137 62.624 45.8497 62.124 45.5217 61.78C45.2017 61.428 44.7657 61.252 44.2137 61.252C43.6457 61.252 43.1937 61.436 42.8577 61.804C42.5217 62.164 42.3537 62.688 42.3537 63.376V67H41.2737V63.28C41.2737 62.624 41.1097 62.124 40.7817 61.78C40.4617 61.428 40.0257 61.252 39.4737 61.252C38.9057 61.252 38.4537 61.436 38.1177 61.804C37.7817 62.164 37.6137 62.688 37.6137 63.376V67H36.5217V60.424H37.6137V61.372C37.8297 61.028 38.1177 60.764 38.4777 60.58C38.8457 60.396 39.2497 60.304 39.6897 60.304C40.2417 60.304 40.7297 60.428 41.1537 60.676C41.5777 60.924 41.8937 61.288 42.1017 61.768C42.2857 61.304 42.5897 60.944 43.0137 60.688C43.4377 60.432 43.9097 60.304 44.4297 60.304ZM54.7362 67.084C54.1842 67.084 53.6882 66.988 53.2482 66.796C52.8162 66.596 52.4762 66.324 52.2282 65.98C51.9802 65.628 51.8522 65.224 51.8442 64.768H53.0082C53.0482 65.16 53.2082 65.492 53.4882 65.764C53.7762 66.028 54.1922 66.16 54.7362 66.16C55.2562 66.16 55.6642 66.032 55.9602 65.776C56.2642 65.512 56.4162 65.176 56.4162 64.768C56.4162 64.448 56.3282 64.188 56.1522 63.988C55.9762 63.788 55.7562 63.636 55.4922 63.532C55.2282 63.428 54.8722 63.316 54.4242 63.196C53.8722 63.052 53.4282 62.908 53.0922 62.764C52.7642 62.62 52.4802 62.396 52.2402 62.092C52.0082 61.78 51.8922 61.364 51.8922 60.844C51.8922 60.388 52.0082 59.984 52.2402 59.632C52.4722 59.28 52.7962 59.008 53.2122 58.816C53.6362 58.624 54.1202 58.528 54.6642 58.528C55.4482 58.528 56.0882 58.724 56.5842 59.116C57.0882 59.508 57.3722 60.028 57.4362 60.676H56.2362C56.1962 60.356 56.0282 60.076 55.7322 59.836C55.4362 59.588 55.0442 59.464 54.5562 59.464C54.1002 59.464 53.7282 59.584 53.4402 59.824C53.1522 60.056 53.0082 60.384 53.0082 60.808C53.0082 61.112 53.0922 61.36 53.2602 61.552C53.4362 61.744 53.6482 61.892 53.8962 61.996C54.1522 62.092 54.5082 62.204 54.9642 62.332C55.5162 62.484 55.9602 62.636 56.2962 62.788C56.6322 62.932 56.9202 63.16 57.1602 63.472C57.4002 63.776 57.5202 64.192 57.5202 64.72C57.5202 65.128 57.4122 65.512 57.1962 65.872C56.9802 66.232 56.6602 66.524 56.2362 66.748C55.8122 66.972 55.3122 67.084 54.7362 67.084ZM62.3911 60.304C62.8871 60.304 63.3351 60.412 63.7351 60.628C64.1351 60.836 64.4471 61.152 64.6711 61.576C64.9031 62 65.0191 62.516 65.0191 63.124V67H63.9391V63.28C63.9391 62.624 63.7751 62.124 63.4471 61.78C63.1191 61.428 62.6711 61.252 62.1031 61.252C61.5271 61.252 61.0671 61.432 60.7231 61.792C60.3871 62.152 60.2191 62.676 60.2191 63.364V67H59.1271V58.12H60.2191V61.36C60.4351 61.024 60.7311 60.764 61.1071 60.58C61.4911 60.396 61.9191 60.304 62.3911 60.304ZM69.6709 67.108C69.0549 67.108 68.4949 66.968 67.9909 66.688C67.4949 66.408 67.1029 66.012 66.8149 65.5C66.5349 64.98 66.3949 64.38 66.3949 63.7C66.3949 63.028 66.5389 62.436 66.8269 61.924C67.1229 61.404 67.5229 61.008 68.0269 60.736C68.5309 60.456 69.0949 60.316 69.7189 60.316C70.3429 60.316 70.9069 60.456 71.4109 60.736C71.9149 61.008 72.3109 61.4 72.5989 61.912C72.8949 62.424 73.0429 63.02 73.0429 63.7C73.0429 64.38 72.8909 64.98 72.5869 65.5C72.2909 66.012 71.8869 66.408 71.3749 66.688C70.8629 66.968 70.2949 67.108 69.6709 67.108ZM69.6709 66.148C70.0629 66.148 70.4309 66.056 70.7749 65.872C71.1189 65.688 71.3949 65.412 71.6029 65.044C71.8189 64.676 71.9269 64.228 71.9269 63.7C71.9269 63.172 71.8229 62.724 71.6149 62.356C71.4069 61.988 71.1349 61.716 70.7989 61.54C70.4629 61.356 70.0989 61.264 69.7069 61.264C69.3069 61.264 68.9389 61.356 68.6029 61.54C68.2749 61.716 68.0109 61.988 67.8109 62.356C67.6109 62.724 67.5109 63.172 67.5109 63.7C67.5109 64.236 67.6069 64.688 67.7989 65.056C67.9989 65.424 68.2629 65.7 68.5909 65.884C68.9189 66.06 69.2789 66.148 69.6709 66.148ZM75.5707 61.636C75.7867 61.26 76.1067 60.948 76.5307 60.7C76.9627 60.444 77.4627 60.316 78.0307 60.316C78.6147 60.316 79.1427 60.456 79.6147 60.736C80.0947 61.016 80.4707 61.412 80.7427 61.924C81.0147 62.428 81.1507 63.016 81.1507 63.688C81.1507 64.352 81.0147 64.944 80.7427 65.464C80.4707 65.984 80.0947 66.388 79.6147 66.676C79.1427 66.964 78.6147 67.108 78.0307 67.108C77.4707 67.108 76.9747 66.984 76.5427 66.736C76.1187 66.48 75.7947 66.164 75.5707 65.788V70.12H74.4787V60.424H75.5707V61.636ZM80.0347 63.688C80.0347 63.192 79.9347 62.76 79.7347 62.392C79.5347 62.024 79.2627 61.744 78.9187 61.552C78.5827 61.36 78.2107 61.264 77.8027 61.264C77.4027 61.264 77.0307 61.364 76.6867 61.564C76.3507 61.756 76.0787 62.04 75.8707 62.416C75.6707 62.784 75.5707 63.212 75.5707 63.7C75.5707 64.196 75.6707 64.632 75.8707 65.008C76.0787 65.376 76.3507 65.66 76.6867 65.86C77.0307 66.052 77.4027 66.148 77.8027 66.148C78.2107 66.148 78.5827 66.052 78.9187 65.86C79.2627 65.66 79.5347 65.376 79.7347 65.008C79.9347 64.632 80.0347 64.192 80.0347 63.688Z" fill="#0E2339"/>
</svg>
