<svg width="65" height="70" viewBox="0 0 65 70" fill="none" xmlns="http://www.w3.org/2000/svg">
<path d="M44.3171 8.75606V4H17V39.2439H21.6829V43.961H49V8.75606H44.3171ZM19.3415 6.34146H41.9756V36.9025H19.3415V6.34146ZM46.6585 41.6195H24.0244V39.2439H44.3171V11.0975H46.6585V41.6195Z" fill="#0E2339" fill-opacity="0.5"/>
<path d="M26.3398 21.6334L30.6582 27.8033L34.9766 21.6333L30.6582 15.4634L26.3398 21.6334ZM30.6582 23.7199L29.1978 21.6334L30.6582 19.5468L32.1187 21.6333L30.6582 23.7199Z" fill="#0E2339" fill-opacity="0.5"/>
<path d="M34.2121 9.84883V8.6781H21.6836V29.1487H22.8543C25.1988 29.1487 27.1063 31.0536 27.1063 33.3951V34.5658H39.6348V14.0952H38.4641C36.1196 14.0952 34.2121 12.1903 34.2121 9.84883ZM37.2934 32.2243H29.3435C28.8574 29.5281 26.7238 27.3965 24.0251 26.9112V11.0196H31.9749C32.461 13.7158 34.5947 15.8475 37.2934 16.3327V32.2243H37.2934Z" fill="#0E2339" fill-opacity="0.5"/>
<path d="M21.6836 32.2242H24.0251V34.5657H21.6836V32.2242Z" fill="#0E2339" fill-opacity="0.5"/>
<path d="M37.2891 8.6781H39.6305V11.0196H37.2891V8.6781Z" fill="#0E2339" fill-opacity="0.5"/>
<path d="M3.66194 65.084C3.10994 65.084 2.61394 64.988 2.17394 64.796C1.74194 64.596 1.40194 64.324 1.15394 63.98C0.905938 63.628 0.777938 63.224 0.769938 62.768H1.93394C1.97394 63.16 2.13394 63.492 2.41394 63.764C2.70194 64.028 3.11794 64.16 3.66194 64.16C4.18194 64.16 4.58994 64.032 4.88594 63.776C5.18994 63.512 5.34194 63.176 5.34194 62.768C5.34194 62.448 5.25394 62.188 5.07794 61.988C4.90194 61.788 4.68194 61.636 4.41794 61.532C4.15394 61.428 3.79794 61.316 3.34994 61.196C2.79794 61.052 2.35394 60.908 2.01794 60.764C1.68994 60.62 1.40594 60.396 1.16594 60.092C0.933938 59.78 0.817938 59.364 0.817938 58.844C0.817938 58.388 0.933938 57.984 1.16594 57.632C1.39794 57.28 1.72194 57.008 2.13794 56.816C2.56194 56.624 3.04594 56.528 3.58994 56.528C4.37394 56.528 5.01394 56.724 5.50994 57.116C6.01394 57.508 6.29794 58.028 6.36194 58.676H5.16194C5.12194 58.356 4.95394 58.076 4.65794 57.836C4.36194 57.588 3.96994 57.464 3.48194 57.464C3.02594 57.464 2.65394 57.584 2.36594 57.824C2.07794 58.056 1.93394 58.384 1.93394 58.808C1.93394 59.112 2.01794 59.36 2.18594 59.552C2.36194 59.744 2.57394 59.892 2.82194 59.996C3.07794 60.092 3.43394 60.204 3.88994 60.332C4.44194 60.484 4.88594 60.636 5.22194 60.788C5.55794 60.932 5.84594 61.16 6.08594 61.472C6.32594 61.776 6.44594 62.192 6.44594 62.72C6.44594 63.128 6.33794 63.512 6.12194 63.872C5.90594 64.232 5.58594 64.524 5.16194 64.748C4.73794 64.972 4.23794 65.084 3.66194 65.084ZM11.3169 58.304C11.8129 58.304 12.2609 58.412 12.6609 58.628C13.0609 58.836 13.3729 59.152 13.5969 59.576C13.8289 60 13.9449 60.516 13.9449 61.124V65H12.8649V61.28C12.8649 60.624 12.7009 60.124 12.3729 59.78C12.0449 59.428 11.5969 59.252 11.0289 59.252C10.4529 59.252 9.99291 59.432 9.64891 59.792C9.31291 60.152 9.14491 60.676 9.14491 61.364V65H8.05291V56.12H9.14491V59.36C9.36091 59.024 9.65691 58.764 10.0329 58.58C10.4169 58.396 10.8449 58.304 11.3169 58.304ZM18.5967 65.108C17.9807 65.108 17.4207 64.968 16.9167 64.688C16.4207 64.408 16.0287 64.012 15.7407 63.5C15.4607 62.98 15.3207 62.38 15.3207 61.7C15.3207 61.028 15.4647 60.436 15.7527 59.924C16.0487 59.404 16.4487 59.008 16.9527 58.736C17.4567 58.456 18.0207 58.316 18.6447 58.316C19.2687 58.316 19.8327 58.456 20.3367 58.736C20.8407 59.008 21.2367 59.4 21.5247 59.912C21.8207 60.424 21.9687 61.02 21.9687 61.7C21.9687 62.38 21.8167 62.98 21.5127 63.5C21.2167 64.012 20.8127 64.408 20.3007 64.688C19.7887 64.968 19.2207 65.108 18.5967 65.108ZM18.5967 64.148C18.9887 64.148 19.3567 64.056 19.7007 63.872C20.0447 63.688 20.3207 63.412 20.5287 63.044C20.7447 62.676 20.8527 62.228 20.8527 61.7C20.8527 61.172 20.7487 60.724 20.5407 60.356C20.3327 59.988 20.0607 59.716 19.7247 59.54C19.3887 59.356 19.0247 59.264 18.6327 59.264C18.2327 59.264 17.8647 59.356 17.5287 59.54C17.2007 59.716 16.9367 59.988 16.7367 60.356C16.5367 60.724 16.4367 61.172 16.4367 61.7C16.4367 62.236 16.5327 62.688 16.7247 63.056C16.9247 63.424 17.1887 63.7 17.5167 63.884C17.8447 64.06 18.2047 64.148 18.5967 64.148ZM32.1645 58.424L30.1125 65H28.9845L27.4005 59.78L25.8165 65H24.6885L22.6245 58.424H23.7405L25.2525 63.944L26.8845 58.424H28.0005L29.5965 63.956L31.0845 58.424H32.1645ZM39.0514 56.636C39.9634 56.636 40.7514 56.808 41.4154 57.152C42.0874 57.488 42.5994 57.972 42.9514 58.604C43.3114 59.236 43.4914 59.98 43.4914 60.836C43.4914 61.692 43.3114 62.436 42.9514 63.068C42.5994 63.692 42.0874 64.172 41.4154 64.508C40.7514 64.836 39.9634 65 39.0514 65H36.4474V56.636H39.0514ZM39.0514 64.1C40.1314 64.1 40.9554 63.816 41.5234 63.248C42.0914 62.672 42.3754 61.868 42.3754 60.836C42.3754 59.796 42.0874 58.984 41.5114 58.4C40.9434 57.816 40.1234 57.524 39.0514 57.524H37.5394V64.1H39.0514ZM50.9318 61.46C50.9318 61.668 50.9198 61.888 50.8958 62.12H45.6398C45.6798 62.768 45.8998 63.276 46.2998 63.644C46.7078 64.004 47.1998 64.184 47.7758 64.184C48.2478 64.184 48.6398 64.076 48.9518 63.86C49.2718 63.636 49.4958 63.34 49.6238 62.972H50.7998C50.6238 63.604 50.2718 64.12 49.7438 64.52C49.2158 64.912 48.5598 65.108 47.7758 65.108C47.1518 65.108 46.5918 64.968 46.0958 64.688C45.6078 64.408 45.2238 64.012 44.9438 63.5C44.6638 62.98 44.5238 62.38 44.5238 61.7C44.5238 61.02 44.6598 60.424 44.9318 59.912C45.2038 59.4 45.5838 59.008 46.0718 58.736C46.5678 58.456 47.1358 58.316 47.7758 58.316C48.3998 58.316 48.9518 58.452 49.4318 58.724C49.9118 58.996 50.2798 59.372 50.5358 59.852C50.7998 60.324 50.9318 60.86 50.9318 61.46ZM49.8038 61.232C49.8038 60.816 49.7118 60.46 49.5278 60.164C49.3438 59.86 49.0918 59.632 48.7718 59.48C48.4598 59.32 48.1118 59.24 47.7278 59.24C47.1758 59.24 46.7038 59.416 46.3118 59.768C45.9278 60.12 45.7078 60.608 45.6518 61.232H49.8038ZM51.9652 61.7C51.9652 61.02 52.1012 60.428 52.3732 59.924C52.6452 59.412 53.0212 59.016 53.5012 58.736C53.9892 58.456 54.5452 58.316 55.1692 58.316C55.9772 58.316 56.6412 58.512 57.1612 58.904C57.6892 59.296 58.0372 59.84 58.2052 60.536H57.0292C56.9172 60.136 56.6972 59.82 56.3692 59.588C56.0492 59.356 55.6492 59.24 55.1692 59.24C54.5452 59.24 54.0412 59.456 53.6572 59.888C53.2732 60.312 53.0812 60.916 53.0812 61.7C53.0812 62.492 53.2732 63.104 53.6572 63.536C54.0412 63.968 54.5452 64.184 55.1692 64.184C55.6492 64.184 56.0492 64.072 56.3692 63.848C56.6892 63.624 56.9092 63.304 57.0292 62.888H58.2052C58.0292 63.56 57.6772 64.1 57.1492 64.508C56.6212 64.908 55.9612 65.108 55.1692 65.108C54.5452 65.108 53.9892 64.968 53.5012 64.688C53.0212 64.408 52.6452 64.012 52.3732 63.5C52.1012 62.988 51.9652 62.388 51.9652 61.7ZM63.3343 65L60.7543 62.096V65H59.6623V56.12H60.7543V61.34L63.2863 58.424H64.8103L61.7143 61.7L64.8223 65H63.3343Z" fill="black"/>
</svg>
