<svg width="64" height="64" viewBox="0 0 64 64" fill="none" xmlns="http://www.w3.org/2000/svg">
<path d="M32 2C26.0666 2 20.2664 3.75947 15.3329 7.05591C10.3994 10.3524 6.55426 15.0377 4.28363 20.5195C2.013 26.0013 1.4189 32.0333 2.57646 37.8527C3.73401 43.6721 6.59123 49.0176 10.7868 53.2132C14.9824 57.4088 20.3279 60.266 26.1473 61.4236C31.9667 62.5811 37.9987 61.987 43.4805 59.7164C48.9623 57.4458 53.6477 53.6006 56.9441 48.6671C60.2405 43.7336 62 37.9334 62 32C62 24.0435 58.8393 16.4129 53.2132 10.7868C47.5871 5.16071 39.9565 2 32 2ZM48 25.7L30.86 42.84C30.4885 43.2119 30.0474 43.5069 29.5618 43.7082C29.0762 43.9095 28.5557 44.0131 28.03 44.0131C27.5044 44.0131 26.9838 43.9095 26.4983 43.7082C26.0127 43.5069 25.5715 43.2119 25.2 42.84L16 33.66C15.6284 33.2884 15.3336 32.8472 15.1324 32.3616C14.9313 31.876 14.8278 31.3556 14.8278 30.83C14.8278 30.3044 14.9313 29.784 15.1324 29.2984C15.3336 28.8128 15.6284 28.3716 16 28C16.3717 27.6284 16.8129 27.3336 17.2984 27.1324C17.784 26.9313 18.3044 26.8278 18.83 26.8278C19.3556 26.8278 19.876 26.9313 20.3616 27.1324C20.8472 27.3336 21.2884 27.6284 21.66 28L28 34.34L42.3 20C43.0559 19.2441 44.0811 18.8195 45.15 18.8195C46.219 18.8195 47.2441 19.2441 48 20C48.7559 20.7559 49.1805 21.781 49.1805 22.85C49.1805 23.919 48.7559 24.9441 48 25.7Z" fill="#35BA80"/>
</svg>
