<svg width="96" height="96" viewBox="0 0 96 96" fill="none" xmlns="http://www.w3.org/2000/svg">
<path d="M93.81 19.6796V76.8446C93.7994 78.8742 93.2922 80.8703 92.3326 82.6588C91.373 84.4472 89.9902 85.9735 88.305 87.1046L86.085 82.6046C86.9615 81.9048 87.6698 81.0173 88.1578 80.0074C88.6458 78.9976 88.9012 77.8912 88.905 76.7696V19.6796C88.905 17.6905 88.1149 15.7828 86.7083 14.3763C85.3018 12.9698 83.3942 12.1796 81.405 12.1796H14.52C12.5439 12.1994 10.6555 12.9983 9.26514 14.4027C7.87479 15.807 7.09492 17.7034 7.09502 19.6796V76.8446C7.09502 78.0089 7.36611 79.1573 7.88682 80.1987C8.40752 81.2401 9.16355 82.146 10.095 82.8446L7.75502 87.1646C6.03987 86.0455 4.63212 84.5149 3.66009 82.7123C2.68806 80.9098 2.18268 78.8926 2.19002 76.8446V19.6796C2.19399 16.4107 3.49431 13.2768 5.80578 10.9654C8.11724 8.6539 11.2511 7.35358 14.52 7.34961H81.48C84.7489 7.35358 87.8828 8.6539 90.1943 10.9654C92.5057 13.2768 93.8061 16.4107 93.81 19.6796Z" fill="#87919C"/>
<path d="M84.66 87.9898C83.6 88.4108 82.4705 88.6296 81.33 88.6348H14.055C13.1358 88.6233 12.2225 88.4871 11.34 88.2298L33.3 47.7298L44.655 68.0398L59.655 38.1748L84.66 87.9898Z" fill="#87919C"/>
<path d="M24.645 39.7353C30.1789 39.7353 34.665 35.2492 34.665 29.7153C34.665 24.1814 30.1789 19.6953 24.645 19.6953C19.1111 19.6953 14.625 24.1814 14.625 29.7153C14.625 35.2492 19.1111 39.7353 24.645 39.7353Z" fill="#87919C"/>
</svg>
