<svg width="48" height="66" viewBox="0 0 48 66" fill="none" xmlns="http://www.w3.org/2000/svg">
<path d="M42 12H39V9C39 8.20435 38.6839 7.44129 38.1213 6.87868C37.5587 6.31607 36.7957 6 36 6H6C5.20435 6 4.44129 6.31607 3.87868 6.87868C3.31607 7.44129 3 8.20435 3 9V33C3 33.7956 3.31607 34.5587 3.87868 35.1213C4.44129 35.6839 5.20435 36 6 36H9V39C9 39.7957 9.31607 40.5587 9.87868 41.1213C10.4413 41.6839 11.2044 42 12 42H42C42.7957 42 43.5587 41.6839 44.1213 41.1213C44.6839 40.5587 45 39.7957 45 39V15C45 14.2044 44.6839 13.4413 44.1213 12.8787C43.5587 12.3161 42.7957 12 42 12ZM9 15V33H6V9H36V12H12C11.2044 12 10.4413 12.3161 9.87868 12.8787C9.31607 13.4413 9 14.2044 9 15ZM42 39H12V15H42V39Z" fill="#0E2339" fill-opacity="0.5"/>
<path d="M18 24C19.6569 24 21 22.6569 21 21C21 19.3431 19.6569 18 18 18C16.3431 18 15 19.3431 15 21C15 22.6569 16.3431 24 18 24Z" fill="#0E2339" fill-opacity="0.5"/>
<path d="M30.6 24L25.164 31.764L22.2 28.8L15 36H39L30.6 24Z" fill="#0E2339" fill-opacity="0.5"/>
<path d="M9.74242 55.06C9.51042 54.572 9.17442 54.196 8.73442 53.932C8.29442 53.66 7.78242 53.524 7.19842 53.524C6.61442 53.524 6.08642 53.66 5.61442 53.932C5.15042 54.196 4.78242 54.58 4.51042 55.084C4.24642 55.58 4.11442 56.156 4.11442 56.812C4.11442 57.468 4.24642 58.044 4.51042 58.54C4.78242 59.036 5.15042 59.42 5.61442 59.692C6.08642 59.956 6.61442 60.088 7.19842 60.088C8.01442 60.088 8.68642 59.844 9.21442 59.356C9.74242 58.868 10.0504 58.208 10.1384 57.376H6.80242V56.488H11.3024V57.328C11.2384 58.016 11.0224 58.648 10.6544 59.224C10.2864 59.792 9.80242 60.244 9.20242 60.58C8.60242 60.908 7.93442 61.072 7.19842 61.072C6.42242 61.072 5.71442 60.892 5.07442 60.532C4.43442 60.164 3.92642 59.656 3.55042 59.008C3.18242 58.36 2.99842 57.628 2.99842 56.812C2.99842 55.996 3.18242 55.264 3.55042 54.616C3.92642 53.96 4.43442 53.452 5.07442 53.092C5.71442 52.724 6.42242 52.54 7.19842 52.54C8.08642 52.54 8.87042 52.76 9.55042 53.2C10.2384 53.64 10.7384 54.26 11.0504 55.06H9.74242ZM12.3383 57.688C12.3383 57.016 12.4743 56.428 12.7463 55.924C13.0183 55.412 13.3903 55.016 13.8623 54.736C14.3423 54.456 14.8743 54.316 15.4583 54.316C16.0343 54.316 16.5343 54.44 16.9583 54.688C17.3823 54.936 17.6983 55.248 17.9063 55.624V54.424H19.0103V61H17.9063V59.776C17.6903 60.16 17.3663 60.48 16.9343 60.736C16.5103 60.984 16.0143 61.108 15.4463 61.108C14.8623 61.108 14.3343 60.964 13.8623 60.676C13.3903 60.388 13.0183 59.984 12.7463 59.464C12.4743 58.944 12.3383 58.352 12.3383 57.688ZM17.9063 57.7C17.9063 57.204 17.8063 56.772 17.6063 56.404C17.4063 56.036 17.1343 55.756 16.7903 55.564C16.4543 55.364 16.0823 55.264 15.6743 55.264C15.2663 55.264 14.8943 55.36 14.5583 55.552C14.2223 55.744 13.9543 56.024 13.7543 56.392C13.5543 56.76 13.4543 57.192 13.4543 57.688C13.4543 58.192 13.5543 58.632 13.7543 59.008C13.9543 59.376 14.2223 59.66 14.5583 59.86C14.8943 60.052 15.2663 60.148 15.6743 60.148C16.0823 60.148 16.4543 60.052 16.7903 59.86C17.1343 59.66 17.4063 59.376 17.6063 59.008C17.8063 58.632 17.9063 58.196 17.9063 57.7ZM21.9476 52.12V61H20.8556V52.12H21.9476ZM24.9008 52.12V61H23.8088V52.12H24.9008ZM32.7619 57.46C32.7619 57.668 32.7499 57.888 32.7259 58.12H27.4699C27.5099 58.768 27.7299 59.276 28.1299 59.644C28.5379 60.004 29.0299 60.184 29.6059 60.184C30.0779 60.184 30.4699 60.076 30.7819 59.86C31.1019 59.636 31.3259 59.34 31.4539 58.972H32.6299C32.4539 59.604 32.1019 60.12 31.5739 60.52C31.0459 60.912 30.3899 61.108 29.6059 61.108C28.9819 61.108 28.4219 60.968 27.9259 60.688C27.4379 60.408 27.0539 60.012 26.7739 59.5C26.4939 58.98 26.3539 58.38 26.3539 57.7C26.3539 57.02 26.4899 56.424 26.7619 55.912C27.0339 55.4 27.4139 55.008 27.9019 54.736C28.3979 54.456 28.9659 54.316 29.6059 54.316C30.2299 54.316 30.7819 54.452 31.2619 54.724C31.7419 54.996 32.1099 55.372 32.3659 55.852C32.6299 56.324 32.7619 56.86 32.7619 57.46ZM31.6339 57.232C31.6339 56.816 31.5419 56.46 31.3579 56.164C31.1739 55.86 30.9219 55.632 30.6019 55.48C30.2899 55.32 29.9419 55.24 29.5579 55.24C29.0059 55.24 28.5339 55.416 28.1419 55.768C27.7579 56.12 27.5379 56.608 27.4819 57.232H31.6339ZM35.2953 55.492C35.4873 55.116 35.7593 54.824 36.1113 54.616C36.4713 54.408 36.9073 54.304 37.4193 54.304V55.432H37.1313C35.9073 55.432 35.2953 56.096 35.2953 57.424V61H34.2033V54.424H35.2953V55.492ZM44.3439 54.424L40.3839 64.096H39.2559L40.5519 60.928L37.8999 54.424H39.1119L41.1759 59.752L43.2159 54.424H44.3439Z" fill="black"/>
</svg>
