<svg width="22" height="24" viewBox="0 0 22 24" fill="none" xmlns="http://www.w3.org/2000/svg">
<path d="M17.9957 6.00437H17.5757C17.8496 5.44374 17.9932 4.82844 17.9957 4.20448C17.9992 3.36868 17.7526 2.55093 17.2875 1.8565C16.8223 1.16207 16.16 0.622725 15.3858 0.307892C14.6115 -0.00694033 13.7608 -0.0828543 12.943 0.0899207C12.1253 0.262696 11.3779 0.676253 10.7972 1.27736C10.2165 0.676253 9.46913 0.262696 8.65137 0.0899207C7.83361 -0.0828543 6.98285 -0.00694033 6.20861 0.307892C5.43436 0.622725 4.77205 1.16207 4.30692 1.8565C3.8418 2.55093 3.59514 3.36868 3.5987 4.20448C3.60124 4.82844 3.74482 5.44374 4.01872 6.00437H3.5987C2.64427 6.00437 1.72892 6.38352 1.05404 7.05841C0.379148 7.7333 0 8.64864 0 9.60308V12.0022C0 12.1597 0.0310278 12.3157 0.0913118 12.4613C0.151596 12.6068 0.239955 12.739 0.351345 12.8504C0.462736 12.9618 0.594975 13.0502 0.740513 13.1105C0.886052 13.1708 1.04204 13.2018 1.19957 13.2018H2.39914V20.4003C2.39914 21.3547 2.77828 22.27 3.45317 22.9449C4.12806 23.6198 5.04341 23.999 5.99784 23.999H15.5955C16.0681 23.999 16.536 23.9059 16.9726 23.725C17.4092 23.5442 17.806 23.2791 18.1401 22.9449C18.4743 22.6108 18.7394 22.214 18.9202 21.7774C19.1011 21.3408 19.1942 20.8729 19.1942 20.4003V13.2029H20.3937C20.5514 13.203 20.7075 13.1721 20.8531 13.1119C20.9988 13.0516 21.1312 12.9633 21.2427 12.8519C21.3542 12.7405 21.4426 12.6082 21.503 12.4626C21.5633 12.317 21.5944 12.1609 21.5944 12.0033V9.60308C21.5944 8.64864 21.2152 7.7333 20.5403 7.05841C19.8655 6.38352 18.9501 6.00437 17.9957 6.00437ZM9.59762 21.5998H5.99892C5.68078 21.5998 5.37566 21.4735 5.1507 21.2485C4.92573 21.0235 4.79935 20.7184 4.79935 20.4003V13.2029H9.59762V21.5998ZM9.59762 10.8026H2.39914V9.60308C2.39914 9.28493 2.52552 8.97982 2.75048 8.75486C2.97544 8.52989 3.28056 8.40351 3.5987 8.40351H9.59762V10.8026ZM9.59762 6.00437H7.79773C7.44175 6.00437 7.09376 5.89881 6.79777 5.70104C6.50178 5.50326 6.27108 5.22216 6.13485 4.89327C5.99862 4.56438 5.96298 4.20249 6.03243 3.85334C6.10187 3.5042 6.2733 3.18349 6.52502 2.93177C6.77674 2.68005 7.09745 2.50862 7.44659 2.43917C7.79574 2.36973 8.15763 2.40537 8.48652 2.5416C8.81541 2.67783 9.09651 2.90852 9.29429 3.20452C9.49206 3.50051 9.59762 3.8485 9.59762 4.20448V6.00437ZM11.9968 4.20448C11.9968 3.8485 12.1023 3.50051 12.3001 3.20452C12.4979 2.90852 12.779 2.67783 13.1079 2.5416C13.4368 2.40537 13.7987 2.36973 14.1478 2.43917C14.4969 2.50862 14.8176 2.68005 15.0694 2.93177C15.3211 3.18349 15.4925 3.5042 15.562 3.85334C15.6314 4.20249 15.5958 4.56438 15.4595 4.89327C15.3233 5.22216 15.0926 5.50326 14.7966 5.70104C14.5006 5.89881 14.1526 6.00437 13.7967 6.00437H11.9968V4.20448ZM16.795 20.4003C16.795 20.7184 16.6686 21.0235 16.4437 21.2485C16.2187 21.4735 15.9136 21.5998 15.5955 21.5998H11.9968V13.2029H16.795V20.4003ZM19.1952 10.8026H11.9968V8.40351H17.9957C18.1532 8.40351 18.3092 8.43454 18.4547 8.49482C18.6003 8.55511 18.7325 8.64347 18.8439 8.75486C18.9553 8.86625 19.0437 8.99849 19.1039 9.14402C19.1642 9.28956 19.1952 9.44555 19.1952 9.60308V10.8026Z" fill="#5F3C08"/>
</svg>
