<svg width="24" height="24" viewBox="0 0 24 24" fill="none" xmlns="http://www.w3.org/2000/svg">
<path d="M8.22469 1.6095C7.57736 1.6095 6.93005 1.85648 6.43615 2.35037C5.44837 3.33816 5.44837 4.93966 6.43615 5.92745C7.42394 6.91524 10.0475 7.93726 11.0353 6.94947C12.023 5.96169 11.001 3.33816 10.0132 2.35037C9.51934 1.85648 8.87202 1.6095 8.22469 1.6095ZM15.778 1.6095C15.1307 1.6095 14.4833 1.85648 13.9894 2.35037C13.0016 3.33816 11.9796 5.96169 12.9674 6.94947C13.9552 7.93726 16.5788 6.91524 17.5666 5.92745C18.5543 4.93966 18.5543 3.33816 17.5666 2.35037C17.0727 1.85648 16.4253 1.6095 15.778 1.6095Z" fill="#FFA14E"/>
<path d="M5.82812 4.95312C5.94885 5.3091 6.1507 5.64366 6.43448 5.92743C7.42226 6.91521 10.0457 7.93721 11.0335 6.94943C11.472 6.51095 11.5139 5.75009 11.3391 4.95312H5.82812ZM12.66 4.95312C12.4853 5.75009 12.5272 6.51095 12.9657 6.94943C13.9534 7.93721 16.577 6.91521 17.5648 5.92743C17.8486 5.64366 18.0504 5.3091 18.1711 4.95312H12.66Z" fill="#FF7377"/>
<path d="M9.03125 6.35934H11.9999V4.73291C11.9999 4.08369 11.4773 3.56104 10.8281 3.56104H10.2031C9.5539 3.56104 9.03125 4.08369 9.03125 4.73291V6.35934ZM11.9999 6.35934H14.9686V4.73291C14.9686 4.08369 14.446 3.56104 13.7967 3.56104H13.1718C12.5226 3.56104 11.9999 4.08369 11.9999 4.73291V6.35934Z" fill="#FFD54F"/>
<path d="M11.9999 4.95312V6.35937H14.9686V4.95312H11.9999ZM9.03125 4.95312V6.35937H11.9999V4.95312H9.03125Z" fill="#FFBB4F"/>
<path d="M2.71094 9.10107V20.75C2.71094 21.6589 3.44265 22.3907 4.35156 22.3907H19.6506C20.5595 22.3907 21.2912 21.6589 21.2912 20.75V9.10107H2.71094Z" fill="#F45558"/>
<path d="M2.71094 15.7965V17.9527H21.2912V15.7965H2.71094ZM2.71094 9.10107V11.2573H21.2912V9.10107H2.71094Z" fill="#DB375B"/>
<path d="M2.42578 6.17188H21.5722C22.3513 6.17188 22.9784 6.79906 22.9784 7.57812V8.63226C22.9784 9.41132 22.3513 10.0385 21.5722 10.0385H2.42578C1.64672 10.0385 1.01953 9.41132 1.01953 8.63226V7.57812C1.01953 6.79906 1.64672 6.17188 2.42578 6.17188Z" fill="#F45558"/>
<path d="M10.5156 6.17188V22.3906H13.4843V6.17188H10.5156Z" fill="#FFD54F"/>
<path d="M10.5156 15.7964V17.9526H13.4843V15.7964H10.5156Z" fill="#FFBB4F"/>
<path d="M2.71094 13.929V16.8976H21.2912V13.929H2.71094Z" fill="#FFD54F"/>
<path fill-rule="evenodd" clip-rule="evenodd" d="M1.92188 8.91357V9.10107H2.29697V8.91357H1.92188ZM2.85938 8.91357V9.10107H3.23447V8.91357H2.85938ZM3.7966 8.91357V9.10107H4.17178V8.91357H3.7966ZM4.73437 8.91357V9.10107H5.10946V8.91357H4.73437ZM5.67187 8.91357V9.10107H6.04686V8.91357H5.67187ZM6.60909 8.91357V9.10107H6.98427V8.91357H6.60909ZM7.54686 8.91357V9.10107H7.92196V8.91357H7.54686ZM8.48428 8.91357V9.10107H8.85935V8.91357H8.48428ZM9.42159 8.91357V9.10107H9.79677V8.91357H9.42159ZM14.1094 8.91357V9.10107H14.4844V8.91357H14.1094ZM15.0466 8.91357V9.10107H15.4218V8.91357H15.0466ZM15.9843 8.91357V9.10107H16.3594V8.91357H15.9843ZM16.9218 8.91357V9.10107H17.2968V8.91357H16.9218ZM17.9531 8.91357V9.10107H18.3282V8.91357H17.9531ZM18.8909 8.91357V9.10107H19.2659V8.91357H18.8909ZM19.8283 8.91357V9.10107H20.2034V8.91357H19.8283ZM20.7656 8.91357V9.10107H21.1407V8.91357H20.7656ZM21.7033 8.91357V9.10107H22.0784V8.91357H21.7033ZM3.7966 21.1017V21.2892H4.17178V21.1017H3.7966ZM4.73437 21.1017V21.2892H5.10946V21.1017H4.73437ZM5.67187 21.1017V21.2892H6.04686V21.1017H5.67187ZM6.60909 21.1017V21.2892H6.98427V21.1017H6.60909ZM7.54686 21.1017V21.2892H7.92196V21.1017H7.54686ZM8.48428 21.1017V21.2892H8.85935V21.1017H8.48428ZM9.42159 21.1017V21.2892H9.79677V21.1017H9.42159ZM14.1094 21.1017V21.2892H14.4844V21.1017H14.1094ZM15.0466 21.1017V21.2892H15.4218V21.1017H15.0466ZM15.9843 21.1017V21.2892H16.3594V21.1017H15.9843ZM16.9218 21.1017V21.2892H17.2968V21.1017H16.9218ZM17.9531 21.1017V21.2892H18.3282V21.1017H17.9531ZM18.8909 21.1017V21.2892H19.2659V21.1017H18.8909ZM19.8283 21.1017V21.2892H20.2034V21.1017H19.8283Z" fill="#DB375B"/>
<path d="M2.71094 15.4976V15.8726C8.90429 15.8726 15.0977 15.8726 21.291 15.8726V15.4976C15.0977 15.4976 8.90429 15.4976 2.71094 15.4976Z" fill="#FFBB4F"/>
</svg>
