<svg width="27" height="27" viewBox="0 0 27 27" fill="none" xmlns="http://www.w3.org/2000/svg">
<path d="M6.5 19.5029H10.74C10.8716 19.5036 11.0021 19.4784 11.1239 19.4286C11.2457 19.3789 11.3566 19.3055 11.45 19.2129L18.37 12.2829L21.21 9.50287C21.3037 9.40991 21.3781 9.2993 21.4289 9.17745C21.4797 9.05559 21.5058 8.92488 21.5058 8.79287C21.5058 8.66086 21.4797 8.53015 21.4289 8.40829C21.3781 8.28643 21.3037 8.17583 21.21 8.08287L16.97 3.79287C16.877 3.69914 16.7664 3.62475 16.6446 3.57398C16.5227 3.52321 16.392 3.49707 16.26 3.49707C16.128 3.49707 15.9973 3.52321 15.8754 3.57398C15.7536 3.62475 15.643 3.69914 15.55 3.79287L12.73 6.62287L5.79 13.5529C5.69732 13.6463 5.62399 13.7571 5.57423 13.879C5.52446 14.0008 5.49924 14.1313 5.5 14.2629V18.5029C5.5 18.7681 5.60536 19.0224 5.79289 19.21C5.98043 19.3975 6.23478 19.5029 6.5 19.5029ZM16.26 5.91287L19.09 8.74287L17.67 10.1629L14.84 7.33287L16.26 5.91287ZM7.5 14.6729L13.43 8.74287L16.26 11.5729L10.33 17.5029H7.5V14.6729ZM22.5 21.5029H4.5C4.23478 21.5029 3.98043 21.6082 3.79289 21.7958C3.60536 21.9833 3.5 22.2377 3.5 22.5029C3.5 22.7681 3.60536 23.0224 3.79289 23.21C3.98043 23.3975 4.23478 23.5029 4.5 23.5029H22.5C22.7652 23.5029 23.0196 23.3975 23.2071 23.21C23.3946 23.0224 23.5 22.7681 23.5 22.5029C23.5 22.2377 23.3946 21.9833 23.2071 21.7958C23.0196 21.6082 22.7652 21.5029 22.5 21.5029Z" fill="#0E2339"/>
</svg>
