<svg width="48" height="48" viewBox="0 0 48 48" fill="none" xmlns="http://www.w3.org/2000/svg">
<circle cx="24" cy="24" r="24" fill="#FDD48E"/>
<g clip-path="url(#clip0_905_308)">
<path d="M32.5762 21.2411L18.1762 14.0411C17.6077 13.7578 16.9656 13.6568 16.3376 13.752C15.7095 13.8472 15.1262 14.1339 14.6672 14.5729C14.2081 15.0119 13.8958 15.5819 13.7727 16.2051C13.6497 16.8283 13.7219 17.4742 13.9796 18.0548L16.4482 23.5782C16.5042 23.7117 16.533 23.8551 16.533 23.9999C16.533 24.1447 16.5042 24.2881 16.4482 24.4216L13.9796 29.9405C13.77 30.4104 13.6812 30.9252 13.7213 31.4381C13.7614 31.951 13.9291 32.4458 14.2092 32.8774C14.4893 33.309 14.8728 33.6637 15.3249 33.9092C15.7771 34.1548 16.2834 34.2834 16.7979 34.2833C17.2795 34.2785 17.7539 34.1661 18.1865 33.9542L32.5865 26.7542C33.0973 26.4972 33.5266 26.1034 33.8266 25.6167C34.1266 25.1299 34.2855 24.5694 34.2855 23.9976C34.2855 23.4259 34.1266 22.8653 33.8266 22.3786C33.5266 21.8918 33.0973 21.498 32.5865 21.2411H32.5762ZM31.6619 24.9131L17.2619 32.1131C17.0728 32.2038 16.8605 32.2347 16.6534 32.2014C16.4463 32.1681 16.2543 32.0722 16.1032 31.9267C15.9521 31.7812 15.8491 31.593 15.808 31.3873C15.767 31.1816 15.7897 30.9683 15.8733 30.7759L18.3305 25.2548C18.3624 25.1803 18.3899 25.1039 18.4128 25.0262H25.4985C25.7713 25.0262 26.0329 24.9178 26.2258 24.7249C26.4187 24.532 26.527 24.2704 26.527 23.9976C26.527 23.7248 26.4187 23.4632 26.2258 23.2703C26.0329 23.0774 25.7713 22.9691 25.4985 22.9691H18.4128C18.3899 22.8913 18.3624 22.815 18.3305 22.7405L15.8722 17.2193C15.789 17.027 15.7665 16.8138 15.8077 16.6084C15.849 16.4029 15.952 16.215 16.103 16.0697C16.254 15.9244 16.4458 15.8287 16.6527 15.7954C16.8596 15.7621 17.0718 15.7928 17.2608 15.8833L31.6608 23.0833C31.8286 23.1699 31.9695 23.301 32.0678 23.4622C32.1661 23.6235 32.2181 23.8087 32.2181 23.9976C32.2181 24.1865 32.1661 24.3717 32.0678 24.533C31.9695 24.6943 31.8286 24.8254 31.6608 24.9119L31.6619 24.9131Z" fill="#5F3C08"/>
</g>
<defs>
<clipPath id="clip0_905_308">
<rect width="32" height="32" fill="white" transform="translate(8 8)"/>
</clipPath>
</defs>
</svg>
