<svg width="48" height="48" viewBox="0 0 48 48" fill="none" xmlns="http://www.w3.org/2000/svg">
<circle cx="24" cy="24" r="24" fill="#EF5862"/>
<g clip-path="url(#clip0_8176_1170)">
<path d="M32.5752 21.2412L18.1752 14.0412C17.6067 13.7579 16.9646 13.6569 16.3366 13.7521C15.7086 13.8473 15.1252 14.134 14.6662 14.573C14.2071 15.0121 13.8948 15.5821 13.7717 16.2052C13.6487 16.8284 13.7209 17.4743 13.9786 18.0549L16.4472 23.5783C16.5032 23.7119 16.5321 23.8552 16.5321 24C16.5321 24.1448 16.5032 24.2882 16.4472 24.4218L13.9786 29.9406C13.769 30.4105 13.6802 30.9253 13.7203 31.4382C13.7604 31.9512 13.9281 32.4459 14.2082 32.8775C14.4883 33.3091 14.8718 33.6638 15.324 33.9094C15.7761 34.1549 16.2824 34.2835 16.7969 34.2835C17.2785 34.2787 17.753 34.1662 18.1855 33.9543L32.5855 26.7543C33.0963 26.4974 33.5256 26.1036 33.8256 25.6168C34.1256 25.1301 34.2845 24.5695 34.2845 23.9978C34.2845 23.426 34.1256 22.8654 33.8256 22.3787C33.5256 21.892 33.0963 21.4981 32.5855 21.2412H32.5752ZM31.6609 24.9132L17.2609 32.1132C17.0718 32.204 16.8595 32.2348 16.6524 32.2015C16.4453 32.1682 16.2533 32.0724 16.1022 31.9269C15.9512 31.7814 15.8482 31.5931 15.8071 31.3875C15.766 31.1818 15.7888 30.9684 15.8723 30.776L18.3295 25.2549C18.3614 25.1804 18.3889 25.1041 18.4118 25.0263H25.4975C25.7703 25.0263 26.0319 24.918 26.2248 24.7251C26.4177 24.5322 26.5261 24.2705 26.5261 23.9978C26.5261 23.725 26.4177 23.4633 26.2248 23.2704C26.0319 23.0775 25.7703 22.9692 25.4975 22.9692H18.4118C18.3889 22.8914 18.3614 22.8151 18.3295 22.7406L15.8712 17.2195C15.788 17.0271 15.7655 16.814 15.8067 16.6085C15.848 16.403 15.951 16.2151 16.102 16.0698C16.2531 15.9245 16.4449 15.8288 16.6518 15.7955C16.8587 15.7622 17.0708 15.7929 17.2598 15.8835L31.6598 23.0835C31.8277 23.17 31.9685 23.3011 32.0668 23.4624C32.1651 23.6236 32.2171 23.8089 32.2171 23.9978C32.2171 24.1866 32.1651 24.3719 32.0668 24.5331C31.9685 24.6944 31.8277 24.8255 31.6598 24.912L31.6609 24.9132Z" fill="white"/>
</g>
<defs>
<clipPath id="clip0_8176_1170">
<rect width="32" height="32" fill="white" transform="translate(8 8)"/>
</clipPath>
</defs>
</svg>
