<svg width="26" height="24" viewBox="0 0 26 24" fill="none" xmlns="http://www.w3.org/2000/svg">
<path d="M22.3333 22.8639H3.66667C2.19391 22.8639 1 21.67 1 20.1972V8.19718C1 6.72442 2.19391 5.53052 3.66667 5.53052H22.3333C23.8061 5.53052 25 6.72442 25 8.19718V20.1972C25 21.67 23.8061 22.8639 22.3333 22.8639Z" stroke="#0E2339" stroke-width="2"/>
<path d="M19.0002 14.8639C18.632 14.8639 18.3335 14.5653 18.3335 14.1972C18.3335 13.8291 18.632 13.5305 19.0002 13.5305C19.3683 13.5305 19.6668 13.8291 19.6668 14.1972C19.6668 14.5653 19.3683 14.8639 19.0002 14.8639Z" fill="#0E2339" stroke="#0E2339" stroke-width="2" stroke-linecap="round" stroke-linejoin="round"/>
<path d="M21 5.53049V3.66812C21 1.91604 19.3392 0.640054 17.6463 1.09149L2.97956 5.00261C1.81223 5.31391 1 6.37111 1 7.57924V8.19716" stroke="#0E2339" stroke-width="2"/>
</svg>
