<svg width="48" height="70" viewBox="0 0 48 70" fill="none" xmlns="http://www.w3.org/2000/svg">
<rect x="6" y="6" width="35.9221" height="35.9221" rx="7" stroke="#0E2339" stroke-opacity="0.5" stroke-width="4"/>
<rect x="24" y="8.70711" width="21.6274" height="21.6274" transform="rotate(45 24 8.70711)" stroke="#0E2339" stroke-opacity="0.5" stroke-dasharray="1 1"/>
<line x1="10.3105" y1="36.641" x2="36.6449" y2="10.3066" stroke="#0E2339" stroke-opacity="0.5" stroke-dasharray="1 1"/>
<line x1="36.6386" y1="37.3481" x2="10.3043" y2="11.0137" stroke="#0E2339" stroke-opacity="0.5" stroke-dasharray="1 1"/>
<path d="M10.6846 65L7.24061 61.184V65H6.14861V56.636H7.24061V60.512L10.6966 56.636H12.0766L8.28461 60.824L12.1126 65H10.6846ZM19.1642 58.424V65H18.0722V64.028C17.8642 64.364 17.5722 64.628 17.1962 64.82C16.8282 65.004 16.4202 65.096 15.9722 65.096C15.4602 65.096 15.0002 64.992 14.5922 64.784C14.1842 64.568 13.8602 64.248 13.6202 63.824C13.3882 63.4 13.2722 62.884 13.2722 62.276V58.424H14.3522V62.132C14.3522 62.78 14.5162 63.28 14.8442 63.632C15.1722 63.976 15.6202 64.148 16.1882 64.148C16.7722 64.148 17.2322 63.968 17.5682 63.608C17.9042 63.248 18.0722 62.724 18.0722 62.036V58.424H19.1642ZM24.212 58.304C25.012 58.304 25.66 58.548 26.156 59.036C26.652 59.516 26.9 60.212 26.9 61.124V65H25.82V61.28C25.82 60.624 25.656 60.124 25.328 59.78C25 59.428 24.552 59.252 23.984 59.252C23.408 59.252 22.948 59.432 22.604 59.792C22.268 60.152 22.1 60.676 22.1 61.364V65H21.008V58.424H22.1V59.36C22.316 59.024 22.608 58.764 22.976 58.58C23.352 58.396 23.764 58.304 24.212 58.304ZM28.2758 61.688C28.2758 61.016 28.4118 60.428 28.6838 59.924C28.9558 59.412 29.3278 59.016 29.7998 58.736C30.2798 58.456 30.8158 58.316 31.4078 58.316C31.9198 58.316 32.3958 58.436 32.8358 58.676C33.2758 58.908 33.6118 59.216 33.8438 59.6V56.12H34.9478V65H33.8438V63.764C33.6278 64.156 33.3078 64.48 32.8838 64.736C32.4598 64.984 31.9638 65.108 31.3958 65.108C30.8118 65.108 30.2798 64.964 29.7998 64.676C29.3278 64.388 28.9558 63.984 28.6838 63.464C28.4118 62.944 28.2758 62.352 28.2758 61.688ZM33.8438 61.7C33.8438 61.204 33.7438 60.772 33.5438 60.404C33.3438 60.036 33.0718 59.756 32.7278 59.564C32.3918 59.364 32.0198 59.264 31.6118 59.264C31.2038 59.264 30.8318 59.36 30.4958 59.552C30.1598 59.744 29.8918 60.024 29.6918 60.392C29.4918 60.76 29.3918 61.192 29.3918 61.688C29.3918 62.192 29.4918 62.632 29.6918 63.008C29.8918 63.376 30.1598 63.66 30.4958 63.86C30.8318 64.052 31.2038 64.148 31.6118 64.148C32.0198 64.148 32.3918 64.052 32.7278 63.86C33.0718 63.66 33.3438 63.376 33.5438 63.008C33.7438 62.632 33.8438 62.196 33.8438 61.7ZM37.8851 56.12V65H36.7931V56.12H37.8851ZM40.3103 57.356C40.1023 57.356 39.9263 57.284 39.7823 57.14C39.6383 56.996 39.5663 56.82 39.5663 56.612C39.5663 56.404 39.6383 56.228 39.7823 56.084C39.9263 55.94 40.1023 55.868 40.3103 55.868C40.5103 55.868 40.6783 55.94 40.8143 56.084C40.9583 56.228 41.0303 56.404 41.0303 56.612C41.0303 56.82 40.9583 56.996 40.8143 57.14C40.6783 57.284 40.5103 57.356 40.3103 57.356ZM40.8383 58.424V65H39.7463V58.424H40.8383Z" fill="black"/>
</svg>
