<svg width="160" height="70" viewBox="0 0 160 70" fill="none" xmlns="http://www.w3.org/2000/svg">
<g clip-path="url(#clip0_349_36)">
<path d="M94.1612 25.7952C101.135 25.7952 106.788 20.1419 106.788 13.1682C106.788 6.19455 101.135 0.54126 94.1612 0.54126C87.1875 0.54126 81.5342 6.19455 81.5342 13.1682C81.5342 20.1419 87.1875 25.7952 94.1612 25.7952Z" fill="#EA5862"/>
<path d="M93.9934 14.092C94.0619 14.1569 94.1503 14.1912 94.2441 14.1912C94.264 14.1912 94.282 14.1912 94.3019 14.1876C94.374 14.1767 94.4426 14.1443 94.4967 14.0938C94.5237 14.0685 94.5472 14.0396 94.567 14.009C97.0762 9.84027 93.6723 6.98297 93.638 6.9541C93.5569 6.88917 93.4522 6.8603 93.3476 6.87474C93.2448 6.89097 93.1546 6.94869 93.0951 7.03347C93.0698 7.07136 90.5408 10.8522 93.9934 14.092ZM93.4793 7.83619C94.1792 8.5902 95.5321 10.5311 94.1666 13.2099C92.1805 11.0452 92.9977 8.76878 93.4793 7.83619Z" fill="#95251F"/>
<path d="M101.586 9.75357C101.519 9.63632 101.389 9.57138 101.259 9.56958C101.22 9.56958 97.3468 9.69765 94.9134 13.8916C94.6988 14.2632 94.5076 14.6456 94.3452 15.0316C94.0728 14.7106 93.777 14.4075 93.4631 14.1261C89.9294 10.9604 86.2117 12.1491 86.1756 12.1617C86.0493 12.2032 85.9537 12.3096 85.9248 12.4377C85.9158 12.4756 85.1221 16.2871 88.6487 19.4457C90.8151 21.3866 93.0519 21.7059 94.5599 21.6265C94.5996 21.641 94.6411 21.6482 94.6825 21.6482H94.6916C94.715 21.6482 97.0438 21.5634 99.212 19.6026C99.9119 18.9695 100.525 18.2046 101.034 17.3262C103.464 13.1376 101.602 9.78785 101.582 9.75538L101.586 9.75357ZM93.7572 19.4908L90.1495 15.396C90.0845 15.3221 89.9925 15.277 89.8933 15.2734C89.7959 15.2698 89.7003 15.3022 89.6263 15.3672C89.4712 15.5061 89.4568 15.7352 89.5921 15.8885L94.0025 20.8942C92.6947 20.8635 90.9017 20.4594 89.1501 18.8901C86.4335 16.4549 86.5255 13.6246 86.6193 12.8075C87.4256 12.6307 90.2487 12.2429 92.9671 14.6781C93.373 15.0407 93.7355 15.4321 94.0494 15.8416C93.602 17.2738 93.6111 18.5347 93.759 19.489L93.7572 19.4908ZM100.397 16.96C99.0154 19.3411 97.152 20.3025 95.8208 20.6885C95.7847 20.6885 95.7486 20.6957 95.718 20.7066C95.7089 20.7102 95.5718 20.7517 95.3355 20.795L99.2716 14.3805C99.3239 14.2957 99.3401 14.1947 99.3166 14.0973C99.2932 14.0016 99.2337 13.9205 99.1489 13.87C99.0912 13.8357 99.0262 13.8195 98.9613 13.8195C98.835 13.8195 98.7106 13.8844 98.6402 13.998L94.724 20.3801C94.356 19.24 93.9899 16.9546 95.5538 14.2578C97.4262 11.0307 100.211 10.439 101.038 10.3326C101.368 11.0866 102.266 13.7365 100.395 16.96H100.397Z" fill="#95251F"/>
<path d="M94.2137 5.40991C96.3964 5.36842 98.4726 6.25952 99.9121 7.85413C100.217 8.19145 100.491 8.55763 100.727 8.94185C100.778 9.02483 100.859 9.08255 100.955 9.106C100.984 9.11141 101.011 9.11502 101.04 9.11502C101.11 9.11502 101.178 9.09518 101.242 9.0555L101.292 9.01761C101.426 8.89676 101.454 8.70014 101.361 8.54861C101.101 8.12651 100.8 7.72606 100.466 7.35446C98.8839 5.60472 96.6038 4.64147 94.2083 4.66852C94.0063 4.67213 93.8421 4.83989 93.8403 5.04192C93.8403 5.14113 93.8782 5.23493 93.9486 5.30528C94.0189 5.37563 94.1127 5.4063 94.2137 5.40991Z" fill="#95251F"/>
<path d="M86.2855 11.6134C86.3125 11.6188 86.3414 11.6225 86.3684 11.6225C86.4604 11.6225 86.5506 11.5882 86.6192 11.525C86.6733 11.4763 86.713 11.4114 86.731 11.3392C87.1152 9.84205 87.9306 8.49818 89.0905 7.44834C90.0862 6.54821 91.293 5.91326 92.5827 5.61201C92.7793 5.56692 92.9056 5.36849 92.8641 5.17187C92.8443 5.07446 92.7866 4.99149 92.7036 4.93918C92.6188 4.88506 92.5196 4.86883 92.4222 4.89228C91.0098 5.22418 89.6857 5.91867 88.5962 6.90357C87.3263 8.05263 86.4316 9.52638 86.0131 11.1661C85.9878 11.2635 86.0023 11.3645 86.0546 11.4493C86.1051 11.5341 86.1881 11.5918 86.2837 11.6152L86.2855 11.6134Z" fill="#95251F"/>
<path d="M45.6377 25.2539C52.6114 25.2539 58.2647 19.6007 58.2647 12.627C58.2647 5.65329 52.6114 0 45.6377 0C38.664 0 33.0107 5.65329 33.0107 12.627C33.0107 19.6007 38.664 25.2539 45.6377 25.2539Z" fill="#F9B642"/>
<path d="M48.8323 12.4989C48.8196 12.4285 48.78 12.369 48.7277 12.3203C48.1252 11.5014 46.9653 10.9927 45.6683 10.9927C44.3713 10.9927 43.2097 11.5014 42.609 12.3203C42.5567 12.369 42.5188 12.4267 42.5044 12.4971C42.5008 12.5205 42.5044 12.5422 42.5044 12.5656C42.5044 12.5873 42.4989 12.6107 42.5044 12.6324C42.5188 12.7045 42.5585 12.7641 42.6108 12.811C43.2151 13.6281 44.3731 14.135 45.6683 14.135C46.9635 14.135 48.127 13.6263 48.7295 12.8055C48.78 12.7586 48.8196 12.6991 48.8323 12.6306C48.8359 12.6071 48.8323 12.5855 48.8323 12.5638C48.8323 12.5404 48.8377 12.5187 48.8323 12.4953V12.4989ZM45.6683 13.4748C44.6816 13.4748 43.7707 13.123 43.2638 12.5656C43.7707 12.0082 44.6816 11.6565 45.6683 11.6565C46.655 11.6565 47.566 12.0082 48.0729 12.5656C47.566 13.123 46.655 13.4748 45.6683 13.4748Z" fill="#B98029"/>
<path d="M44.7397 12.5692C44.7397 13.067 45.1456 13.4711 45.6417 13.4711C46.1377 13.4711 46.5436 13.0652 46.5436 12.5692C46.5436 12.0731 46.1395 11.6672 45.6417 11.6672C45.1438 11.6672 44.7397 12.0713 44.7397 12.5692Z" fill="#B98029"/>
<path d="M53.0878 17.2177L51.5004 14.4669C51.4553 14.3893 51.3849 14.3352 51.2984 14.3117C51.2136 14.2901 51.1234 14.3009 51.0476 14.3442C50.97 14.3893 50.9159 14.4597 50.8925 14.5462C50.869 14.631 50.8817 14.7212 50.925 14.7988L52.2255 17.05H48.0695L50.1475 13.4513L50.3856 13.8644C50.4289 13.9419 50.501 13.9979 50.5876 14.0195C50.6742 14.043 50.7644 14.0303 50.8384 13.987C50.9159 13.942 50.9701 13.8716 50.9935 13.785C51.017 13.7002 51.0043 13.61 50.961 13.5325L50.5299 12.7875L53.086 8.35902C53.1455 8.2562 53.1455 8.12993 53.086 8.02712C53.0264 7.9261 52.9164 7.86116 52.7992 7.86116H47.6852L45.9535 4.86135C45.8381 4.66112 45.4936 4.66112 45.3781 4.86135L43.6464 7.86116H41.9814C41.7993 7.86116 41.6495 8.01088 41.6495 8.19307C41.6495 8.37526 41.7993 8.52498 41.9814 8.52498H43.2622L41.1841 12.1237L39.1061 8.52498H40.477C40.6592 8.52498 40.8089 8.37526 40.8089 8.19307C40.8089 8.01088 40.6592 7.86116 40.477 7.86116H38.5307C38.4116 7.86116 38.3016 7.9243 38.2439 8.02712C38.1843 8.12993 38.1843 8.25801 38.2439 8.35902L40.7999 12.7875L38.2439 17.2141C38.1843 17.317 38.1843 17.445 38.2439 17.546C38.3016 17.6489 38.4134 17.712 38.5307 17.712H43.6446L45.3763 20.71C45.434 20.8128 45.5459 20.876 45.6631 20.876C45.7804 20.876 45.8922 20.8128 45.9499 20.71L47.6816 17.7102H52.7955C52.9146 17.7102 53.0246 17.6471 53.0824 17.5442C53.1419 17.4414 53.1419 17.3134 53.0824 17.2123L53.0878 17.2177ZM52.2255 8.52678L50.1475 12.1255L48.0695 8.52678H52.2255ZM45.6685 5.69293L46.9222 7.86296H44.4167L45.6703 5.69293H45.6685ZM39.1115 17.0518L41.1896 13.4531L43.2676 17.0518H39.1115ZM45.6685 19.8856L44.4167 17.7156H46.9222L45.6703 19.8856H45.6685ZM47.3046 17.0518H44.0324L41.572 12.7893L44.0324 8.52678H47.3046L49.7651 12.7893L47.3046 17.0518Z" fill="#B98029"/>
<path d="M69.6289 25.2539C76.6026 25.2539 82.2559 19.6007 82.2559 12.627C82.2559 5.65329 76.6026 0 69.6289 0C62.6552 0 57.002 5.65329 57.002 12.627C57.002 19.6007 62.6552 25.2539 69.6289 25.2539Z" fill="#49BCCD"/>
<path d="M76.682 15.4284C76.7144 15.4375 76.7487 15.4411 76.783 15.4411C76.9616 15.4411 77.1167 15.3202 77.1618 15.147C77.2177 14.9378 77.0914 14.7231 76.8822 14.6672C73.5162 13.7815 71.1622 12.5531 69.8814 11.0144C71.7953 6.62383 69.8075 4.43215 69.7209 4.34016C69.6415 4.25718 69.5279 4.21389 69.4124 4.21749C69.2952 4.22471 69.1887 4.28243 69.1202 4.37623C69.0444 4.47905 67.2658 6.94131 68.2544 9.7427C69.1491 12.2789 71.9847 14.1928 76.6838 15.4284H76.682ZM69.3457 10.2496C69.2032 10.0006 69.0859 9.7445 68.9939 9.48475C68.3878 7.77289 69.0084 6.17107 69.4467 5.34671C69.8453 6.12056 70.3143 7.7314 69.3457 10.2496Z" fill="#3064AC"/>
<path d="M62.1917 15.4356H62.2188C65.5288 15.2101 67.854 14.1801 69.1275 12.3709C69.252 12.1941 69.2105 11.9488 69.0319 11.8243C68.8551 11.6998 68.6098 11.7431 68.4853 11.9199C67.3543 13.5253 65.2276 14.4453 62.1646 14.6527C62.06 14.6599 61.9644 14.7068 61.8959 14.7862C61.8273 14.8656 61.793 14.9666 61.8003 15.0712C61.8147 15.2769 61.9861 15.4374 62.1917 15.4374V15.4356Z" fill="#3064AC"/>
<path d="M77.7553 16.765C76.8606 16.1896 75.827 15.8486 74.7663 15.7783C72.7857 15.6502 70.8916 16.4403 69.5947 17.9213C68.3013 16.4421 66.4054 15.6466 64.4212 15.7783C63.3605 15.8486 62.3269 16.1896 61.4322 16.765C61.342 16.8245 61.2789 16.9183 61.259 17.0247C61.2392 17.1312 61.2645 17.243 61.3294 17.3296C61.9788 18.2045 62.8464 18.8971 63.8368 19.3355C64.6521 19.6962 65.5143 19.8784 66.4018 19.8784C67.5256 19.8784 68.6242 19.5754 69.5947 19.0054C70.5633 19.5754 71.6637 19.8784 72.7875 19.8784C73.675 19.8784 74.5372 19.6962 75.3526 19.3355C76.3429 18.8971 77.2105 18.2045 77.8599 17.3296C77.9249 17.243 77.9501 17.1312 77.9303 17.0247C77.9104 16.9183 77.8473 16.8245 77.7571 16.765H77.7553ZM76.9526 17.2033C76.4222 17.8076 75.7638 18.2947 75.0333 18.6175C73.4711 19.3084 71.6745 19.2381 70.1809 18.439C71.3101 17.1456 72.9877 16.4475 74.7158 16.5611C75.4951 16.6135 76.2635 16.8335 76.9526 17.2033ZM69.0066 18.439C67.513 19.2399 65.7164 19.3102 64.1542 18.6175C63.4237 18.2947 62.7653 17.8076 62.2349 17.2033C62.9258 16.8335 63.6943 16.6135 64.4717 16.5611C66.198 16.4457 67.8756 17.1456 69.0066 18.439Z" fill="#3064AC"/>
<path d="M1.85072 65.3645H2.46944L4.23721 69.8471H3.49222L3.01781 68.6295H1.28791L0.820716 69.8471H0.0703125L1.85072 65.3645ZM2.88072 68.1046L2.16098 66.178L1.41599 68.1046H2.87891H2.88072Z" fill="#252828"/>
<path d="M9.07887 66.4197C9.03738 66.3746 8.97605 66.3241 8.89488 66.2718C8.8137 66.2195 8.72171 66.169 8.61348 66.1239C8.50705 66.0788 8.38799 66.0409 8.25992 66.0102C8.13185 65.9814 8.00016 65.967 7.86488 65.967C7.56544 65.967 7.34717 66.0211 7.20467 66.1311C7.06216 66.2411 6.99361 66.3927 6.99361 66.5857C6.99361 66.6957 7.01526 66.7841 7.06036 66.8544C7.10545 66.9248 7.174 66.9843 7.266 67.0384C7.35799 67.0926 7.47344 67.1377 7.61414 67.1773C7.75304 67.217 7.91538 67.2603 8.09938 67.3072C8.32666 67.3613 8.5323 67.4227 8.71449 67.4912C8.89848 67.5579 9.05181 67.6409 9.17808 67.7365C9.30435 67.8339 9.40176 67.953 9.47211 68.0937C9.54246 68.2344 9.57673 68.4058 9.57673 68.6078C9.57673 68.8351 9.53344 69.0317 9.44686 69.194C9.36027 69.3582 9.24302 69.4917 9.0933 69.5963C8.94358 69.6991 8.77041 69.7749 8.57379 69.8236C8.37537 69.8723 8.16251 69.8957 7.93523 69.8957C7.5943 69.8957 7.26419 69.8452 6.94671 69.7424C6.62924 69.6396 6.34242 69.4881 6.08447 69.2915L6.40556 68.6854C6.45967 68.7395 6.53904 68.8008 6.64367 68.8694C6.74649 68.9361 6.86735 68.9992 7.00263 69.0551C7.13792 69.1111 7.28764 69.1598 7.44819 69.2013C7.60693 69.2409 7.77468 69.2608 7.94605 69.2608C8.22384 69.2608 8.4385 69.2121 8.59003 69.1147C8.74155 69.0173 8.81731 68.8748 8.81731 68.6854C8.81731 68.5717 8.78845 68.4761 8.73253 68.4003C8.67661 68.3246 8.59544 68.2578 8.48901 68.2019C8.38258 68.146 8.25631 68.0937 8.10298 68.0468C7.95146 68.0017 7.78009 67.953 7.58528 67.9007C7.3616 67.8412 7.16679 67.7798 7.00083 67.7149C6.83488 67.6499 6.69598 67.5706 6.58775 67.4768C6.47771 67.3848 6.39474 67.2765 6.33882 67.1521C6.2829 67.0276 6.25403 66.8779 6.25403 66.7011C6.25403 66.4828 6.29552 66.288 6.3803 66.1167C6.46328 65.9471 6.57873 65.8028 6.72484 65.6874C6.87095 65.5719 7.04232 65.4853 7.23894 65.4258C7.43736 65.3663 7.65202 65.3374 7.88291 65.3374C8.18596 65.3374 8.46556 65.3861 8.72351 65.4817C8.97966 65.5791 9.20514 65.6982 9.39815 65.8425L9.07707 66.4233L9.07887 66.4197Z" fill="#252828"/>
<path d="M15.248 65.9904H13.7581V69.8471H13.0437V65.9904H11.5483V65.3645H15.248V65.9904Z" fill="#252828"/>
<path d="M17.5513 69.8471V65.3645H19.503C19.7051 65.3645 19.8909 65.4078 20.0622 65.4908C20.2318 65.5756 20.3779 65.6856 20.5006 65.8227C20.6232 65.9598 20.7188 66.1149 20.7874 66.2899C20.8577 66.4649 20.892 66.6416 20.892 66.8238C20.892 66.9753 20.8704 67.1197 20.8289 67.2604C20.7874 67.3993 20.7279 67.5273 20.6521 67.6464C20.5763 67.7636 20.4843 67.8664 20.3743 67.953C20.2643 68.0396 20.1452 68.1028 20.0153 68.146L21.0688 69.8507H20.2661L19.2938 68.2922H18.2584V69.8507H17.5513V69.8471ZM18.2584 67.6626H19.4958C19.5968 67.6626 19.6888 67.641 19.77 67.5959C19.8512 67.5508 19.9233 67.4912 19.9811 67.4119C20.0388 67.3325 20.0857 67.2441 20.12 67.1431C20.1524 67.0421 20.1705 66.9339 20.1705 66.8202C20.1705 66.7066 20.1506 66.5983 20.1109 66.4991C20.0713 66.3981 20.0171 66.3097 19.9522 66.234C19.8873 66.1582 19.8115 66.0987 19.7249 66.0536C19.6383 66.0103 19.5499 65.9868 19.4561 65.9868H18.2566V67.6608L18.2584 67.6626Z" fill="#252828"/>
<path d="M25.2916 69.8794C24.9723 69.8794 24.6801 69.8144 24.4167 69.6863C24.1534 69.5583 23.9279 69.3869 23.7385 69.174C23.5491 68.9612 23.403 68.7177 23.3002 68.4453C23.1973 68.1711 23.145 67.8915 23.145 67.6065C23.145 67.3215 23.1991 67.022 23.3092 66.7479C23.4192 66.4737 23.5689 66.232 23.7601 66.0227C23.9513 65.8117 24.1786 65.6457 24.442 65.5212C24.7054 65.3968 24.9922 65.3354 25.3042 65.3354C25.6163 65.3354 25.9157 65.4022 26.1791 65.5339C26.4425 65.6655 26.6661 65.8405 26.8537 66.0534C27.0413 66.268 27.1857 66.5116 27.2903 66.7821C27.3931 67.0545 27.4454 67.3305 27.4454 67.6119C27.4454 67.9114 27.3913 68.1964 27.2849 68.4705C27.1766 68.7447 27.0269 68.9846 26.8339 69.1939C26.6391 69.4013 26.4118 69.5691 26.1484 69.6918C25.8851 69.8144 25.6001 69.8776 25.2934 69.8776L25.2916 69.8794ZM23.8648 67.6065C23.8648 67.8176 23.899 68.0214 23.9658 68.218C24.0325 68.4164 24.1299 68.5896 24.2526 68.7411C24.3771 68.8926 24.5268 69.0135 24.7035 69.1037C24.8803 69.1939 25.0788 69.239 25.297 69.239C25.5153 69.239 25.7245 69.1921 25.8995 69.0965C26.0745 69.0027 26.2224 68.8764 26.3451 68.7213C26.4677 68.5661 26.5597 68.3912 26.6228 68.1982C26.686 68.0033 26.7185 67.8067 26.7185 67.6047C26.7185 67.39 26.6842 67.1844 26.6174 66.9896C26.5507 66.793 26.4551 66.6216 26.3306 66.4719C26.2062 66.3222 26.0564 66.2031 25.8833 66.1111C25.7083 66.0209 25.5135 65.9758 25.2988 65.9758C25.0715 65.9758 24.8695 66.0227 24.6927 66.1183C24.5159 66.2121 24.3662 66.3366 24.2436 66.4881C24.1227 66.6396 24.0271 66.8128 23.964 67.0094C23.899 67.2042 23.8666 67.4045 23.8666 67.6065H23.8648Z" fill="#252828"/>
<path d="M29.8807 69.8471V65.3645H30.5878V69.2211H32.9924V69.8471H29.8789H29.8807Z" fill="#252828"/>
<path d="M36.8507 69.8794C36.5314 69.8794 36.2392 69.8144 35.9758 69.6863C35.7125 69.5583 35.487 69.3869 35.2976 69.174C35.1082 68.9612 34.9621 68.7177 34.8592 68.4453C34.7564 68.1711 34.7041 67.8915 34.7041 67.6065C34.7041 67.3215 34.7582 67.022 34.8683 66.7479C34.9783 66.4737 35.128 66.232 35.3192 66.0227C35.5104 65.8117 35.7377 65.6457 36.0011 65.5212C36.2644 65.3968 36.5512 65.3354 36.8633 65.3354C37.1754 65.3354 37.4748 65.4022 37.7382 65.5339C38.0015 65.6655 38.2252 65.8405 38.4128 66.0534C38.6004 66.268 38.7447 66.5116 38.8494 66.7821C38.9522 67.0545 39.0045 67.3305 39.0045 67.6119C39.0045 67.9114 38.9504 68.1964 38.8439 68.4705C38.7357 68.7447 38.586 68.9846 38.393 69.1939C38.1982 69.4013 37.9709 69.5691 37.7075 69.6918C37.4442 69.8144 37.1591 69.8776 36.8525 69.8776L36.8507 69.8794ZM35.4238 67.6065C35.4238 67.8176 35.4581 68.0214 35.5249 68.218C35.5916 68.4164 35.689 68.5896 35.8117 68.7411C35.9361 68.8926 36.0859 69.0135 36.2626 69.1037C36.4394 69.1939 36.6378 69.239 36.8561 69.239C37.0744 69.239 37.2836 69.1921 37.4586 69.0965C37.6336 69.0027 37.7815 68.8764 37.9041 68.7213C38.0268 68.5661 38.1188 68.3912 38.1819 68.1982C38.2451 68.0033 38.2775 67.8067 38.2775 67.6047C38.2775 67.39 38.2433 67.1844 38.1765 66.9896C38.1098 66.793 38.0142 66.6216 37.8897 66.4719C37.7652 66.3222 37.6155 66.2031 37.4424 66.1111C37.2674 66.0209 37.0726 65.9758 36.8579 65.9758C36.6306 65.9758 36.4286 66.0227 36.2518 66.1183C36.075 66.2121 35.9253 66.3366 35.8026 66.4881C35.6818 66.6396 35.5862 66.8128 35.523 67.0094C35.4581 67.2042 35.4256 67.4045 35.4256 67.6065H35.4238Z" fill="#252828"/>
<path d="M44.5786 69.2914C44.1998 69.6828 43.7651 69.8795 43.2726 69.8795C42.9732 69.8795 42.6954 69.8181 42.4392 69.6937C42.1831 69.5692 41.9594 69.4032 41.77 69.1922C41.5806 68.9811 41.4327 68.7376 41.3245 68.4598C41.2162 68.182 41.1621 67.8916 41.1621 67.5886C41.1621 67.2855 41.2162 66.9969 41.3245 66.7227C41.4309 66.4485 41.5806 66.2086 41.77 66.003C41.9594 65.7973 42.1849 65.6332 42.4465 65.5141C42.708 65.3933 42.9912 65.3337 43.2979 65.3337C43.7272 65.3337 44.088 65.4221 44.3766 65.6025C44.667 65.7811 44.8853 66.0174 45.0332 66.3132L44.4902 66.7047C44.3676 66.4611 44.1998 66.2772 43.9851 66.1545C43.7705 66.0318 43.5342 65.9705 43.278 65.9705C43.067 65.9705 42.8758 66.0156 42.7044 66.1058C42.5312 66.196 42.3833 66.3168 42.2625 66.4648C42.1398 66.6145 42.046 66.7876 41.9811 66.9861C41.9161 67.1845 41.8837 67.3901 41.8837 67.6048C41.8837 67.8321 41.9215 68.0449 41.9937 68.2416C42.0658 68.4382 42.1687 68.6113 42.2967 68.7593C42.4248 68.9072 42.5781 69.0226 42.7549 69.1092C42.9317 69.1958 43.1229 69.2391 43.3303 69.2391C43.5576 69.2391 43.7759 69.1868 43.9833 69.0821C44.1926 68.9775 44.391 68.8098 44.5804 68.5843V68.1045H43.6388V67.5795H45.1721V69.847H44.5786V69.2914Z" fill="#252828"/>
<path d="M47.8237 65.3645L49.0611 67.6121L50.3112 65.3645H51.0869L49.4129 68.2435V69.8471H48.7058V68.2308L47.0444 65.3645H47.8201H47.8237Z" fill="#252828"/>
<path d="M52.73 69.8469V69.0388H53.3036V69.8469H52.73Z" fill="#252828"/>
<path d="M59.668 69.8471V66.62L58.335 69.0642H57.9435L56.6051 66.62V69.8471H55.8979V65.3645H56.6556L58.1401 68.1046L59.6229 65.3645H60.3805V69.8471H59.668Z" fill="#252828"/>
<path d="M66.1708 69.2229V69.8488H63.0952V65.3662H66.1131V65.9921H63.8023V67.2675H65.8028V67.8555H63.8023V69.2247H66.169L66.1708 69.2229Z" fill="#252828"/>
<path d="M68.6078 69.8471V65.3645H70.1988C70.5595 65.3645 70.877 65.424 71.1476 65.5413C71.42 65.6585 71.6473 65.8191 71.8294 66.0211C72.0134 66.2231 72.1505 66.4594 72.2425 66.7318C72.3345 67.0024 72.3814 67.2928 72.3814 67.5995C72.3814 67.9404 72.3309 68.2489 72.2263 68.5249C72.1217 68.8008 71.9774 69.0371 71.788 69.232C71.5986 69.4286 71.3695 69.5801 71.0989 69.6865C70.8301 69.7948 70.5289 69.8471 70.197 69.8471H68.606H68.6078ZM71.6635 67.5995C71.6635 67.365 71.631 67.1467 71.5661 66.9501C71.5011 66.7535 71.4055 66.5839 71.2793 66.4414C71.153 66.2989 70.9997 66.1907 70.8175 66.1095C70.6371 66.0283 70.4297 65.9886 70.1988 65.9886H69.3149V69.2211H70.1988C70.4333 69.2211 70.6443 69.1797 70.8265 69.0985C71.0087 69.0173 71.1638 68.9019 71.2883 68.7576C71.4128 68.6114 71.5066 68.4401 71.5697 68.2435C71.6328 68.045 71.6635 67.8304 71.6635 67.5995Z" fill="#252828"/>
<path d="M74.833 69.8471V65.3645H75.5401V69.8471H74.833Z" fill="#252828"/>
<path d="M81.543 65.9904H80.053V69.8471H79.3387V65.9904H77.8433V65.3645H81.543V65.9904Z" fill="#252828"/>
<path d="M84.7251 65.3645H85.3438L87.1116 69.8471H86.3666L85.8922 68.6295H84.1623L83.6951 69.8471H82.9429L84.7233 65.3645H84.7251ZM85.7551 68.1046L85.0353 66.178L84.2903 68.1046H85.7551Z" fill="#252828"/>
<path d="M92.2202 65.9904H90.7302V69.8471H90.0159V65.9904H88.5205V65.3645H92.2202V65.9904Z" fill="#252828"/>
<path d="M94.5239 69.8471V65.3645H95.231V69.8471H94.5239Z" fill="#252828"/>
<path d="M99.8092 69.8794C99.4899 69.8794 99.1977 69.8144 98.9343 69.6863C98.671 69.5583 98.4455 69.3869 98.2561 69.174C98.0667 68.9612 97.9206 68.7177 97.8177 68.4453C97.7149 68.1711 97.6626 67.8915 97.6626 67.6065C97.6626 67.3215 97.7167 67.022 97.8268 66.7479C97.9368 66.4737 98.0865 66.232 98.2777 66.0227C98.4689 65.8117 98.6962 65.6457 98.9596 65.5212C99.2229 65.3968 99.5097 65.3354 99.8218 65.3354C100.134 65.3354 100.433 65.4022 100.697 65.5339C100.96 65.6655 101.184 65.8405 101.371 66.0534C101.559 66.268 101.703 66.5116 101.808 66.7821C101.911 67.0545 101.963 67.3305 101.963 67.6119C101.963 67.9114 101.909 68.1964 101.802 68.4705C101.694 68.7447 101.544 68.9846 101.351 69.1939C101.157 69.4013 100.929 69.5691 100.666 69.6918C100.403 69.8144 100.118 69.8776 99.811 69.8776L99.8092 69.8794ZM98.3823 67.6065C98.3823 67.8176 98.4166 68.0214 98.4834 68.218C98.5501 68.4164 98.6475 68.5896 98.7702 68.7411C98.8946 68.8926 99.0444 69.0135 99.2211 69.1037C99.3979 69.1939 99.5963 69.239 99.8146 69.239C100.033 69.239 100.242 69.1921 100.417 69.0965C100.592 69.0027 100.74 68.8764 100.863 68.7213C100.985 68.5661 101.077 68.3912 101.14 68.1982C101.204 68.0033 101.236 67.8067 101.236 67.6047C101.236 67.39 101.202 67.1844 101.135 66.9896C101.068 66.793 100.973 66.6216 100.848 66.4719C100.724 66.3222 100.574 66.2031 100.401 66.1111C100.226 66.0209 100.031 65.9758 99.8164 65.9758C99.5891 65.9758 99.3871 66.0227 99.2103 66.1183C99.0335 66.2121 98.8838 66.3366 98.7611 66.4881C98.6403 66.6396 98.5447 66.8128 98.4816 67.0094C98.4166 67.2042 98.3841 67.4045 98.3841 67.6065H98.3823Z" fill="#252828"/>
<path d="M105.105 66.6903V69.8471H104.398V65.3645H104.954L107.517 68.597V65.3717H108.231V69.8471H107.643L105.105 66.6903Z" fill="#252828"/>
<path d="M110.825 69.8469V69.0388H111.399V69.8469H110.825Z" fill="#252828"/>
<path d="M115.315 65.3645H115.934L117.701 69.8471H116.956L116.482 68.6295H114.752L114.285 69.8471H113.533L115.313 65.3645H115.315ZM116.345 68.1046L115.625 66.178L114.88 68.1046H116.345Z" fill="#252828"/>
<path d="M119.765 65.3645L121.003 67.6121L122.253 65.3645H123.028L121.354 68.2435V69.8471H120.647V68.2308L118.986 65.3645H119.761H119.765Z" fill="#252828"/>
<path d="M127.159 69.241C127.393 69.241 127.59 69.1959 127.745 69.1021C127.902 69.0101 128.026 68.8892 128.12 68.7377C128.214 68.588 128.283 68.4184 128.322 68.2272C128.362 68.036 128.382 67.8394 128.382 67.6374V65.3645H129.096V67.6374C129.096 67.944 129.06 68.2344 128.988 68.505C128.916 68.7774 128.802 69.0137 128.647 69.2175C128.492 69.4232 128.29 69.5837 128.045 69.701C127.799 69.82 127.503 69.8777 127.157 69.8777C126.811 69.8777 126.497 69.8164 126.251 69.692C126.006 69.5675 125.806 69.4015 125.654 69.1941C125.503 68.9866 125.393 68.7467 125.326 68.478C125.259 68.2092 125.225 67.9278 125.225 67.6374V65.3645H125.932V67.6374C125.932 67.8448 125.952 68.0432 125.992 68.2344C126.031 68.4256 126.1 68.597 126.194 68.7467C126.288 68.8964 126.416 69.0155 126.573 69.1057C126.731 69.1959 126.926 69.241 127.157 69.241H127.159Z" fill="#252828"/>
<path d="M131.741 69.8471V65.3645H133.692C133.895 65.3645 134.08 65.4078 134.252 65.4908C134.421 65.5756 134.567 65.6856 134.69 65.8227C134.813 65.9598 134.908 66.1149 134.977 66.2899C135.047 66.4649 135.081 66.6416 135.081 66.8238C135.081 66.9753 135.06 67.1197 135.018 67.2604C134.977 67.3993 134.917 67.5273 134.842 67.6464C134.766 67.7636 134.674 67.8664 134.564 67.953C134.454 68.0396 134.335 68.1028 134.205 68.146L135.258 69.8507H134.456L133.483 68.2922H132.448V69.8507H131.741V69.8471ZM132.448 67.6626H133.685C133.786 67.6626 133.878 67.641 133.959 67.5959C134.041 67.5508 134.113 67.4912 134.171 67.4119C134.228 67.3325 134.275 67.2441 134.309 67.1431C134.342 67.0421 134.36 66.9339 134.36 66.8202C134.36 66.7066 134.34 66.5983 134.3 66.4991C134.261 66.3981 134.207 66.3097 134.142 66.234C134.077 66.1582 134.001 66.0987 133.914 66.0536C133.828 66.0103 133.739 65.9868 133.646 65.9868H132.446V67.6608L132.448 67.6626Z" fill="#252828"/>
<path d="M137.796 65.3645L139.147 68.9578L140.493 65.3645H141.243L139.45 69.8471H138.844L137.044 65.3645H137.796Z" fill="#252828"/>
<path d="M146.572 69.2229V69.8488H143.497V65.3662H146.514V65.9921H144.204V67.2675H146.204V67.8555H144.204V69.2247H146.57L146.572 69.2229Z" fill="#252828"/>
<path d="M149.009 69.8471V65.3645H150.6C150.961 65.3645 151.278 65.424 151.549 65.5413C151.821 65.6585 152.049 65.8191 152.231 66.0211C152.415 66.2231 152.552 66.4594 152.644 66.7318C152.736 67.0024 152.783 67.2928 152.783 67.5995C152.783 67.9404 152.732 68.2489 152.628 68.5249C152.525 68.8008 152.379 69.0371 152.189 69.232C152 69.4286 151.771 69.5801 151.5 69.6865C151.231 69.7948 150.93 69.8471 150.598 69.8471H149.007H149.009ZM152.065 67.5995C152.065 67.365 152.032 67.1467 151.967 66.9501C151.903 66.7535 151.807 66.5839 151.681 66.4414C151.554 66.2989 151.401 66.1907 151.219 66.1095C151.038 66.0283 150.831 65.9886 150.6 65.9886H149.716V69.2211H150.6C150.835 69.2211 151.046 69.1797 151.228 69.0985C151.41 69.0173 151.565 68.9019 151.69 68.7576C151.814 68.6114 151.908 68.4401 151.971 68.2435C152.034 68.045 152.065 67.8304 152.065 67.5995Z" fill="#252828"/>
<path d="M156.396 65.3645H157.015L158.782 69.8471H158.037L157.563 68.6295H155.833L155.366 69.8471H154.614L156.394 65.3645H156.396ZM157.426 68.1046L156.706 66.178L155.961 68.1046H157.426Z" fill="#252828"/>
<path d="M0 60.0088C39.5242 59.9547 119.06 59.9547 158.573 60.0088C119.049 60.063 39.5134 60.063 0 60.0088Z" fill="#252828"/>
<path d="M159.244 46.6315L160 47.3874C158.994 49.267 157.567 50.7948 155.72 51.9691C153.872 53.1453 151.591 53.7315 148.872 53.7315C147.126 53.7315 145.423 53.4375 143.762 52.8512C142.1 52.265 140.614 51.4244 139.306 50.333C137.997 49.2435 136.972 47.8329 136.234 46.103C135.495 44.3749 135.194 42.4863 135.329 40.4389C135.462 37.955 136.085 35.7904 137.192 33.9432C138.3 32.0979 139.802 30.6801 141.698 29.6879C143.594 28.6976 145.784 28.2034 148.27 28.2034C149.913 28.2034 151.399 28.4216 152.725 28.8582C154.051 29.2947 155.108 29.8647 155.896 30.57C156.685 31.2753 157.374 32.0474 157.96 32.8862C158.546 33.725 158.957 34.5656 159.194 35.4044C159.428 36.2431 159.612 37.008 159.748 37.6952C159.881 38.3843 159.95 38.9471 159.95 39.3818V40.0366H145.046C145.046 40.9765 145.147 41.9415 145.347 42.9318C145.549 43.9221 145.876 44.9215 146.329 45.928C146.781 46.9346 147.453 47.7752 148.342 48.4462C149.231 49.119 150.281 49.487 151.49 49.5538C153.1 49.6548 154.587 49.4275 155.945 48.8737C157.305 48.3199 158.404 47.5731 159.242 46.6333L159.244 46.6315ZM148.621 30.4185C147.615 30.4185 146.505 31.4954 145.885 33.4905C145.263 35.4873 145.163 36.4271 144.997 38.7758H151.493C151.493 37.8359 151.45 36.8799 151.367 35.9058C151.282 34.9335 151.345 34.3148 151.161 33.2578C150.975 32.2007 150.059 30.4167 148.623 30.4167L148.621 30.4185Z" fill="#122338"/>
<path d="M132.809 48.98C132.775 50.0587 132.935 50.8668 133.289 51.4062C133.642 51.9455 134.274 52.2486 135.184 52.3153V53.7314H120.577V52.3153C121.013 52.2829 121.376 52.1818 121.663 52.0123C121.948 51.8445 122.15 51.5667 122.269 51.1789C122.386 50.7929 122.453 50.4375 122.471 50.1182C122.487 49.799 122.496 49.3191 122.496 48.677V36.041C122.496 34.0531 122.285 32.6299 121.865 31.7694C121.443 30.9108 120.728 30.4797 119.716 30.4797C118.704 30.4797 117.779 30.9685 116.937 31.9462C116.094 32.9239 115.674 34.2389 115.674 35.8894V48.677C115.674 49.182 115.681 49.5699 115.699 49.8386C115.716 50.1092 115.757 50.4195 115.826 50.773C115.892 51.1266 115.993 51.3972 116.129 51.5812C116.262 51.767 116.448 51.9275 116.684 52.061C116.919 52.1963 117.224 52.2811 117.593 52.3135V53.7295H104.2V52.3135C105.109 52.2468 105.733 51.9437 106.07 51.4044C106.406 50.865 106.575 50.0569 106.575 48.9782V35.029C106.575 33.9503 106.406 33.1422 106.07 32.6028C105.733 32.0635 105.111 31.7604 104.2 31.6937V30.431L114.258 28.1058H116.179V31.1381C117.864 29.1845 119.937 28.1744 122.395 28.1058C125.765 27.9723 128.342 28.8634 130.128 30.7845C131.914 32.7056 132.807 35.2166 132.807 38.3156V48.98H132.809Z" fill="#122338"/>
<path d="M100.273 48.8827C100.273 49.6259 100.331 50.2193 100.45 50.6667C100.567 51.1122 100.794 51.4748 101.131 51.7526C101.467 52.0304 101.94 52.2072 102.547 52.2811V53.7296H88.1924V52.2811C89.0673 52.2072 89.6751 51.9005 90.0125 51.3612C90.348 50.8236 90.5175 49.9957 90.5175 48.8809V34.8379C90.5175 33.761 90.348 32.9529 90.0125 32.4135C89.6751 31.876 89.0691 31.5693 88.1924 31.4935V29.8773L98.5537 28.0374H100.273V48.8791V48.8827Z" fill="#122338"/>
<path d="M77.6289 27.9525L85.7661 28.104V29.1647C85.362 29.1647 84.9994 29.2152 84.6802 29.3162C84.3591 29.4172 84.0903 29.5435 83.872 29.695C83.652 29.8465 83.4427 30.0666 83.2407 30.3516C83.0387 30.6384 82.8781 30.9 82.7609 31.1345C82.6418 31.3708 82.4993 31.6901 82.3315 32.0941L73.8408 53.7277H67.8268L58.5261 31.6396C58.122 30.8657 57.6747 30.2831 57.1858 29.8952C56.697 29.5092 56.0314 29.2639 55.189 29.1629V28.1022H71.4128V29.1629C70.5037 29.2314 69.9048 29.5507 69.618 30.1225C69.3312 30.6962 69.3907 31.5043 69.7948 32.5487L74.8492 47.0553L80.5097 32.2457C80.9137 31.2355 80.7874 30.4851 80.1308 29.9963C79.4742 29.5092 78.6391 29.2296 77.6289 29.1629V27.9507V27.9525Z" fill="#122338"/>
<path d="M50.4881 48.8827C50.4881 49.6259 50.5458 50.2193 50.6649 50.6667C50.7821 51.1122 51.0094 51.4748 51.3468 51.7526C51.6823 52.0304 52.1549 52.2072 52.7628 52.2811V53.7296H38.4077V52.2811C39.2826 52.2072 39.8905 51.9005 40.2278 51.3612C40.5633 50.8236 40.7329 49.9957 40.7329 48.8809V34.8379C40.7329 33.761 40.5633 32.9529 40.2278 32.4135C39.8905 31.876 39.2844 31.5693 38.4077 31.4935V29.8773L48.769 28.0374H50.4881V48.8791V48.8827Z" fill="#122338"/>
<path d="M15.4606 18.5022C18.8302 18.5022 21.8372 18.9568 24.4835 19.8677C27.1279 20.7769 29.2763 22.0414 30.9268 23.6576C32.5774 25.2757 33.8238 27.1372 34.6662 29.2423C35.5086 31.3492 35.9289 33.6492 35.9289 36.1421C35.9289 38.635 35.5068 40.9367 34.6662 43.0418C33.8238 45.1487 32.5774 47.0103 30.9268 48.6265C29.2763 50.2446 27.1279 51.5073 24.4835 52.4164C21.8372 53.3256 18.8302 53.782 15.4606 53.782H0.398438V52.6708C1.30758 52.604 1.93171 52.3172 2.26903 51.8122C2.60455 51.3071 2.77411 50.5314 2.77411 49.487V23.001C2.77411 21.9909 2.60455 21.2314 2.26903 20.7263C1.93171 20.2213 1.30938 19.9182 0.398438 19.8172V18.5022H15.4606ZM16.0162 52.669C17.701 52.669 19.2162 52.1729 20.5655 51.1772C21.913 50.1833 22.9827 48.8773 23.7746 47.2592C24.5665 45.6412 25.1653 43.8824 25.5694 41.9775C25.9735 40.0745 26.1755 38.1281 26.1755 36.1403C26.1755 34.1524 25.9735 32.2151 25.5694 30.3283C25.1653 28.4414 24.5665 26.6971 23.7746 25.0971C22.9827 23.4971 21.913 22.2163 20.5655 21.2567C19.218 20.297 17.701 19.8154 16.0162 19.8154H13.0344V52.669H16.0162Z" fill="#122338"/>
</g>
<defs>
<clipPath id="clip0_349_36">
<rect width="160" height="69.8921" fill="white"/>
</clipPath>
</defs>
</svg>
