<svg width="32" height="32" viewBox="0 0 32 32" fill="none" xmlns="http://www.w3.org/2000/svg">
<path d="M23.7232 7.93019V3.27262H27V2H5V3.27262H8.21779V7.93019C8.21975 8.82922 8.42481 9.71558 8.81693 10.5199C9.20904 11.3242 9.77757 12.0247 10.478 12.5664L14.9313 15.9953L10.478 19.4217C9.77725 19.9637 9.20854 20.6645 8.81641 21.4693C8.42428 22.2741 8.21939 23.1609 8.21779 24.0603V28.7214H5V30H27V28.7179H23.7232V24.0603C23.721 23.1615 23.5159 22.2754 23.1238 21.4713C22.7317 20.6672 22.1632 19.9669 21.4629 19.4253L17.0097 15.9953L21.4629 12.57C22.1638 12.0279 22.7327 11.3268 23.1248 10.5219C23.5169 9.71688 23.7217 8.82982 23.7232 7.93019ZM20.7126 20.4393C21.2596 20.8623 21.7034 21.4094 22.0092 22.0377C22.315 22.666 22.4744 23.3583 22.4749 24.0603V28.7214H9.466V24.0603C9.46721 23.3588 9.62706 22.6671 9.93302 22.0395C10.239 21.4119 10.6827 20.8654 11.2295 20.4429L15.9711 16.7958L20.7126 20.4393ZM20.7126 11.5441L15.9722 15.1911L11.2295 11.5488C10.6827 11.1261 10.239 10.5794 9.933 9.95155C9.62705 9.32374 9.4672 8.63188 9.466 7.93019V3.27262H22.4749V7.93019C22.4737 8.63188 22.3139 9.32374 22.0079 9.95155C21.702 10.5794 21.2582 11.1261 20.7115 11.5488L20.7126 11.5441Z" fill="#5F3C08"/>
<path d="M12.4093 10.758L16.0018 13.3758L19.5822 10.758C20.0218 10.4363 20.3785 10.0197 20.6245 9.54117C20.8705 9.0626 20.9991 8.53505 21 8H11.0036C11.005 8.53376 11.1324 9.06007 11.3762 9.53829C11.6199 10.0165 11.9734 10.4338 12.4093 10.758ZM11 27H20.9964V26.2988C20.9956 25.766 20.8677 25.2406 20.6227 24.7641C20.3777 24.2875 20.0224 23.8728 19.5846 23.5525L15.9982 20.9323L12.4118 23.5501C11.974 23.8704 11.6187 24.2852 11.3737 24.7617C11.1287 25.2383 11.0008 25.7637 11 26.2965V27Z" fill="#5F3C08"/>
</svg>
