<svg width="30" height="30" viewBox="0 0 30 30" fill="none" xmlns="http://www.w3.org/2000/svg">
<g clip-path="url(#clip0_2303_69)">
<path d="M20.5115 25.002C20.2286 24.9998 19.9546 24.9003 19.7361 24.7207L13.8201 19.9961H9.25562C8.92373 19.9956 8.60553 19.8636 8.37085 19.6289C8.13617 19.3942 8.00419 19.076 8.00366 18.7442V11.2344C8.00419 10.9025 8.13617 10.5843 8.37085 10.3496C8.60553 10.1149 8.92373 9.98297 9.25562 9.98244H13.5544C14.2244 10.6324 14.88 11.2637 15.49 11.8477L15.0369 12.211C14.8176 12.3886 14.5437 12.4841 14.2615 12.4844H10.5056V17.4902H14.2615C14.5437 17.4905 14.8176 17.588 15.0369 17.7656L19.2615 21.1426V15.4141C20.3615 16.4451 21.2165 17.242 21.7615 17.752V23.752C21.7627 23.9875 21.6957 24.2187 21.5701 24.418C21.4445 24.6173 21.2655 24.7764 21.0525 24.877C20.8847 24.9602 20.6988 25.003 20.5115 25.002ZM21.7634 14.6074L19.2634 12.1856V8.83595L17.3708 10.3496L15.5701 8.60548L19.8083 5.25783C20.0241 5.09239 20.2885 5.00316 20.5603 5.00392C20.732 5.00308 20.9021 5.03671 21.0603 5.10353C21.2734 5.20344 21.4542 5.36155 21.5798 5.56056C21.7055 5.75958 21.7707 5.99122 21.7693 6.22658V14.6074H21.7634Z" fill="#0E2339"/>
<path d="M26.4849 23.0096L25.7929 23.6806C25.7332 23.7413 25.6621 23.7894 25.5837 23.8223C25.5052 23.8552 25.421 23.8721 25.3359 23.8721C25.2508 23.8721 25.1666 23.8552 25.0881 23.8223C25.0097 23.7894 24.9386 23.7413 24.8789 23.6806L20.1549 19.1126C20.1549 19.1126 10.1509 9.88161 5.9849 5.36861C5.92266 5.31281 5.87288 5.24452 5.8388 5.16819C5.80472 5.09186 5.78711 5.00921 5.78711 4.92561C5.78711 4.84202 5.80472 4.75937 5.8388 4.68304C5.87288 4.60671 5.92266 4.53842 5.9849 4.48261L6.6749 3.81261C6.73455 3.75196 6.80568 3.70379 6.88414 3.67091C6.96261 3.63803 7.04683 3.62109 7.1319 3.62109C7.21697 3.62109 7.30119 3.63803 7.37965 3.67091C7.45811 3.70379 7.52925 3.75196 7.5889 3.81261L26.4849 22.1206C26.5471 22.1764 26.5969 22.2447 26.631 22.321C26.6651 22.3974 26.6827 22.48 26.6827 22.5636C26.6827 22.6472 26.6651 22.7299 26.631 22.8062C26.5969 22.8825 26.5471 22.9508 26.4849 23.0066V23.0096Z" fill="#0E2339"/>
</g>
<defs>
<clipPath id="clip0_2303_69">
<rect width="30" height="30" fill="white"/>
</clipPath>
</defs>
</svg>
