<svg width="24" height="24" viewBox="0 0 24 24" fill="none" xmlns="http://www.w3.org/2000/svg">
<path d="M19.6154 16.5128C19.6154 16.9799 19.2363 17.359 18.7692 17.359H17.359V18.7692C17.359 19.2363 16.9799 19.6154 16.5128 19.6154C16.0457 19.6154 15.6667 19.2363 15.6667 18.7692V17.359H14.2564C13.7893 17.359 13.4103 16.9799 13.4103 16.5128C13.4103 16.0457 13.7893 15.6667 14.2564 15.6667H15.6667V14.2564C15.6667 13.7893 16.0457 13.4103 16.5128 13.4103C16.9799 13.4103 17.359 13.7893 17.359 14.2564V15.6667H18.7692C19.2363 15.6667 19.6154 16.0457 19.6154 16.5128ZM23 16.5128C23 20.0904 20.0904 23 16.5128 23H4.10256C2.39108 23 1 21.6089 1 19.8974C1 15.8066 3.82841 12.3723 7.62933 11.4235C6.34544 10.3359 5.51282 8.73385 5.51282 6.92308C5.51282 3.65692 8.16974 1 11.4359 1C14.7021 1 17.359 3.65692 17.359 6.92308C17.359 8.06482 17.0307 9.12759 16.4666 10.0279C16.4824 10.0279 16.497 10.0256 16.5128 10.0256C20.0904 10.0256 23 12.9364 23 16.5128ZM11.4359 11.1538C13.7679 11.1538 15.6667 9.25621 15.6667 6.92308C15.6667 4.58995 13.7679 2.69231 11.4359 2.69231C9.1039 2.69231 7.20513 4.58995 7.20513 6.92308C7.20513 9.25621 9.1039 11.1538 11.4359 11.1538ZM12.1579 21.3077C10.8515 20.1197 10.0256 18.4138 10.0256 16.5128C10.0256 15.1522 10.4487 13.8897 11.1663 12.8462H9.74359C5.85579 12.8462 2.69231 16.0096 2.69231 19.8974C2.69231 20.6748 3.32523 21.3077 4.10256 21.3077H12.1579ZM21.3077 16.5128C21.3077 13.8683 19.1573 11.7179 16.5128 11.7179C13.8683 11.7179 11.7179 13.8683 11.7179 16.5128C11.7179 19.1573 13.8683 21.3077 16.5128 21.3077C19.1573 21.3077 21.3077 19.1573 21.3077 16.5128Z" fill="#0E2339" fill-opacity="0.5"/>
</svg>
