<svg width="20" height="20" viewBox="0 0 20 20" fill="none" xmlns="http://www.w3.org/2000/svg">
<path d="M17.9684 7.8652C17.8483 7.41633 17.4299 7.14585 17.0252 6.88433C16.7552 6.70987 16.476 6.52939 16.3599 6.32852C16.2403 6.12176 16.2225 5.78523 16.2054 5.45975C16.1803 4.98325 16.1544 4.49067 15.8318 4.16813C15.5093 3.84572 15.0167 3.81969 14.5403 3.79464C14.2148 3.77758 13.8783 3.7599 13.6715 3.64019C13.4707 3.52404 13.2902 3.24484 13.1157 2.97486C12.8541 2.57018 12.5836 2.15176 12.1347 2.03168C11.7039 1.91665 11.2696 2.13776 10.8497 2.35152C10.5542 2.50204 10.2486 2.65772 10 2.65772C9.75137 2.65772 9.44578 2.50204 9.15025 2.35152C8.73035 2.13752 8.29609 1.91627 7.86513 2.03168C7.41626 2.15176 7.14578 2.57018 6.88426 2.97486C6.70979 3.24485 6.52931 3.52405 6.32845 3.6402C6.12169 3.75978 5.78515 3.77758 5.45967 3.79465C4.98317 3.81982 4.49058 3.84573 4.16805 4.16826C3.84563 4.4908 3.8196 4.98338 3.79456 5.45976C3.77749 5.78524 3.75981 6.12177 3.6401 6.32853C3.52395 6.52939 3.24476 6.70988 2.97477 6.88434C2.57009 7.14598 2.15166 7.41646 2.03158 7.86533C1.91642 8.29641 2.13754 8.73055 2.35142 9.15032C2.50195 9.44584 2.65763 9.75143 2.65763 10.0001C2.65763 10.2487 2.50195 10.5543 2.35142 10.8498C2.13755 11.2697 1.91642 11.7037 2.03159 12.1349C2.15166 12.5838 2.57009 12.8543 2.97477 13.1158C3.24476 13.2902 3.52396 13.4707 3.64011 13.6716C3.75969 13.8783 3.7775 14.2149 3.79456 14.5404C3.81973 15.0169 3.84564 15.5094 4.16818 15.832C4.49071 16.1544 4.9833 16.1804 5.45968 16.2055C5.78516 16.2225 6.1217 16.2402 6.32845 16.3599C6.52932 16.4761 6.7098 16.7553 6.88427 17.0253C7.14591 17.4299 7.41639 17.8484 7.86526 17.9684C7.94534 17.9897 8.02786 18.0003 8.1107 18C8.46049 18 8.81004 17.8218 9.15026 17.6486C9.44578 17.4981 9.75138 17.3424 10 17.3424C10.2486 17.3424 10.5542 17.4981 10.8497 17.6486C11.2696 17.8625 11.7035 18.0835 12.1349 17.9684C12.5837 17.8484 12.8542 17.4299 13.1157 17.0253C13.2902 16.7553 13.4707 16.4761 13.6716 16.3599C13.8783 16.2403 14.2148 16.2225 14.5403 16.2055C15.0168 16.1803 15.5094 16.1544 15.832 15.8319C16.1544 15.5093 16.1804 15.0167 16.2054 14.5404C16.2225 14.2149 16.2402 13.8784 16.3599 13.6716C16.476 13.4707 16.7552 13.2902 17.0252 13.1158C17.4299 12.8541 17.8483 12.5837 17.9684 12.1348C18.0836 11.7037 17.8625 11.2696 17.6486 10.8498C17.4981 10.5543 17.3424 10.2487 17.3424 10.0001C17.3424 9.75144 17.4981 9.44584 17.6486 9.15032C17.8624 8.73042 18.0836 8.2964 17.9684 7.8652ZM15.6098 9.25197C15.618 9.31798 15.5997 9.38453 15.5589 9.43707C15.5182 9.48962 15.4582 9.52389 15.3923 9.5324C15.3815 9.53443 15.3706 9.53526 15.3596 9.53485C15.3113 9.53467 15.2641 9.52057 15.2236 9.49423C15.1831 9.4679 15.151 9.43045 15.1313 9.38637C15.1115 9.34228 15.1049 9.29344 15.1122 9.24569C15.1195 9.19793 15.1404 9.15329 15.1724 9.11711C15.2044 9.08093 15.2461 9.05474 15.2926 9.04168C15.3391 9.02861 15.3884 9.02924 15.4346 9.04347C15.4808 9.0577 15.5218 9.08494 15.5529 9.12192C15.584 9.1589 15.6038 9.20405 15.6098 9.25197ZM15.0189 7.94697C15.0818 7.92519 15.1507 7.92922 15.2106 7.95821C15.2704 7.98719 15.3164 8.03874 15.3383 8.10155H15.3395C15.361 8.16476 15.3567 8.23393 15.3275 8.294C15.2983 8.35406 15.2466 8.40015 15.1836 8.42224C15.1568 8.43105 15.1288 8.43569 15.1006 8.436C15.0412 8.43575 14.9839 8.41452 14.9387 8.37608C14.8935 8.33763 14.8633 8.28444 14.8535 8.22591C14.8438 8.16738 14.855 8.10728 14.8853 8.05623C14.9155 8.00519 14.9629 7.96649 15.0189 7.94697ZM13.7768 6.07118C13.8134 6.03782 13.859 6.01604 13.908 6.00859C13.957 6.00114 14.007 6.00835 14.0519 6.02932C14.0968 6.05028 14.1344 6.08406 14.1601 6.1264C14.1858 6.16873 14.1984 6.21773 14.1963 6.26721C14.1942 6.3167 14.1775 6.36445 14.1483 6.40446C14.1191 6.44446 14.0788 6.47493 14.0323 6.49202C13.9858 6.5091 13.9353 6.51205 13.8871 6.50047C13.839 6.4889 13.7953 6.46333 13.7617 6.42699C13.7166 6.37777 13.6928 6.31266 13.6957 6.24596C13.6985 6.17926 13.7277 6.11641 13.7768 6.07118ZM12.8979 5.36079C12.9368 5.30671 12.9956 5.27026 13.0614 5.25942C13.1271 5.24858 13.1945 5.26424 13.2487 5.30296H13.2499C13.3036 5.3422 13.3397 5.40104 13.3503 5.46671C13.3609 5.53238 13.3452 5.59959 13.3065 5.65373C13.2676 5.70776 13.2089 5.74415 13.1432 5.75491C13.0775 5.76567 13.0102 5.74993 12.956 5.71113C12.9019 5.67234 12.8654 5.61366 12.8545 5.54798C12.8436 5.4823 12.8592 5.41498 12.8979 5.36079ZM11.8934 4.84157C11.9118 4.80019 11.9411 4.76457 11.9782 4.73845C12.0152 4.71233 12.0586 4.69669 12.1038 4.69317C12.1489 4.68965 12.1942 4.69838 12.2349 4.71844C12.2755 4.73851 12.3099 4.76916 12.3346 4.80717C12.3593 4.84519 12.3732 4.88915 12.375 4.93443C12.3768 4.9797 12.3663 5.02462 12.3447 5.06445C12.3231 5.10427 12.2911 5.13752 12.2522 5.1607C12.2132 5.18388 12.1688 5.19612 12.1234 5.19614C12.088 5.19567 12.053 5.18842 12.0203 5.17478C11.9594 5.14728 11.9119 5.09679 11.8881 5.03436C11.8643 4.97192 11.8662 4.90261 11.8934 4.84157ZM10.8046 4.53978C10.8148 4.49343 10.8379 4.45091 10.8712 4.41714C10.9045 4.38336 10.9467 4.3597 10.9929 4.34889C11.0391 4.33808 11.0875 4.34056 11.1323 4.35604C11.1772 4.37153 11.2167 4.39939 11.2464 4.4364C11.2761 4.47342 11.2948 4.51808 11.3002 4.56522C11.3056 4.61237 11.2975 4.66008 11.2769 4.70285C11.2564 4.74562 11.2241 4.78169 11.1839 4.80691C11.1437 4.83213 11.0972 4.84546 11.0497 4.84537C11.032 4.84511 11.0143 4.84301 10.997 4.83911C10.9646 4.83217 10.934 4.81891 10.9068 4.80009C10.8796 4.78127 10.8564 4.75726 10.8385 4.72945C10.8206 4.70163 10.8084 4.67055 10.8026 4.638C10.7968 4.60545 10.7974 4.57207 10.8046 4.53978ZM9.93087 4.21675C9.98061 4.21726 10.0291 4.23251 10.0701 4.26056C10.1112 4.28861 10.143 4.32822 10.1616 4.37436C10.1801 4.4205 10.1846 4.47111 10.1744 4.51978C10.1642 4.56846 10.1398 4.61302 10.1043 4.64782C10.0687 4.68263 10.0237 4.70612 9.97482 4.71532C9.92595 4.72452 9.87544 4.71902 9.82969 4.69952C9.78394 4.68002 9.745 4.64739 9.71779 4.60575C9.69058 4.56412 9.67634 4.51535 9.67685 4.46562C9.67717 4.4326 9.68401 4.39996 9.69695 4.36958C9.7099 4.3392 9.7287 4.31166 9.75229 4.28855C9.77588 4.26544 9.8038 4.2472 9.83444 4.23488C9.86508 4.22256 9.89785 4.2164 9.93087 4.21675ZM8.75527 4.3248C8.82042 4.31249 8.88779 4.32645 8.9427 4.36361C8.9976 4.40077 9.03559 4.45814 9.04837 4.52319C9.06116 4.58825 9.0477 4.65572 9.01094 4.7109C8.97419 4.76607 8.91711 4.80448 8.85215 4.81775V4.81897C8.83589 4.82142 8.81948 4.82265 8.80304 4.82265C8.74056 4.82266 8.68032 4.79938 8.63408 4.75736C8.58784 4.71535 8.55891 4.65761 8.55295 4.59542C8.54698 4.53323 8.5644 4.47104 8.60181 4.421C8.63922 4.37096 8.69394 4.33667 8.75527 4.3248ZM7.62633 4.67054C7.65675 4.65753 7.68944 4.65067 7.72253 4.65034C7.75561 4.65001 7.78843 4.65622 7.8191 4.66862C7.84978 4.68102 7.8777 4.69936 7.90126 4.72258C7.92482 4.74581 7.94356 4.77346 7.9564 4.80395C7.96924 4.83444 7.97592 4.86717 7.97607 4.90025C7.97622 4.93334 7.96982 4.96612 7.95726 4.99673C7.94469 5.02733 7.9262 5.05515 7.90285 5.07859C7.8795 5.10202 7.85174 5.12061 7.82118 5.13328C7.79021 5.14664 7.75681 5.15349 7.72308 5.15342C7.66505 5.1534 7.60881 5.13329 7.56393 5.0965C7.51905 5.05971 7.48829 5.00851 7.47689 4.95161C7.46549 4.89471 7.47415 4.83561 7.50139 4.78437C7.52863 4.73313 7.57278 4.69291 7.62633 4.67054ZM6.59033 5.23887C6.63119 5.21078 6.67945 5.19542 6.72903 5.19473C6.77861 5.19405 6.82729 5.20807 6.8689 5.23503C6.91052 5.26199 6.94321 5.30068 6.96285 5.34621C6.98249 5.39173 6.9882 5.44206 6.97926 5.49083C6.97032 5.53961 6.94712 5.58463 6.91261 5.62023C6.87809 5.65583 6.8338 5.6804 6.78533 5.69084C6.73685 5.70128 6.68637 5.69713 6.64026 5.6789C6.59415 5.66067 6.55447 5.62918 6.52624 5.58842C6.48864 5.53349 6.47428 5.46592 6.48629 5.40045C6.49829 5.33497 6.53569 5.27689 6.59033 5.23887ZM4.96844 6.93615C4.99165 6.89903 5.02415 6.86862 5.06272 6.84792C5.1013 6.82723 5.14461 6.81696 5.18837 6.81814C5.23213 6.81933 5.27482 6.83192 5.31222 6.85467C5.34962 6.87742 5.38043 6.90955 5.4016 6.94786C5.42277 6.98618 5.43357 7.02936 5.43293 7.07313C5.43228 7.11691 5.42022 7.15975 5.39793 7.19743C5.37564 7.2351 5.34389 7.26631 5.30584 7.28795C5.26779 7.30959 5.22474 7.32092 5.18097 7.32081C5.13383 7.32123 5.08757 7.30815 5.04763 7.28312C5.01958 7.26559 4.99528 7.2427 4.97611 7.21575C4.95694 7.1888 4.94328 7.15833 4.93592 7.12609C4.92856 7.09385 4.92765 7.06047 4.93323 7.02787C4.93881 6.99528 4.95077 6.96411 4.96844 6.93615ZM4.44798 7.99596C4.46406 7.95295 4.49162 7.91517 4.52765 7.88671C4.56369 7.85825 4.60683 7.84021 4.65239 7.83453C4.69796 7.82885 4.74421 7.83576 4.78612 7.85451C4.82804 7.87325 4.86402 7.90312 4.89017 7.94087C4.91631 7.97862 4.93162 8.0228 4.93443 8.06863C4.93724 8.11447 4.92744 8.16019 4.90611 8.20085C4.88477 8.24151 4.85271 8.27555 4.81339 8.29927C4.77408 8.323 4.72902 8.33551 4.6831 8.33544C4.6534 8.3355 4.62395 8.32996 4.5963 8.31911C4.56523 8.30779 4.53671 8.29042 4.51239 8.268C4.48808 8.24558 4.46846 8.21856 4.45466 8.18851C4.44087 8.15845 4.43317 8.12596 4.43203 8.0929C4.43088 8.05985 4.4363 8.0269 4.44798 7.99596ZM4.1538 9.14012C4.16098 9.09248 4.18167 9.0479 4.21343 9.01168C4.24519 8.97545 4.28668 8.9491 4.33297 8.93576C4.37927 8.92242 4.42842 8.92264 4.47459 8.9364C4.52076 8.95017 4.562 8.9769 4.59343 9.01341C4.62486 9.04992 4.64515 9.09469 4.65189 9.1424C4.65862 9.1901 4.65153 9.23873 4.63144 9.28252C4.61135 9.32631 4.57912 9.36342 4.53857 9.38943C4.49802 9.41544 4.45085 9.42927 4.40267 9.42927C4.39043 9.42921 4.37821 9.42794 4.36621 9.42546C4.30027 9.41566 4.2409 9.38013 4.20109 9.32665C4.16129 9.27318 4.14428 9.20611 4.1538 9.14012ZM4.09094 10.0001C4.09094 9.95032 4.10569 9.90171 4.13332 9.86036C4.16095 9.81901 4.20022 9.78678 4.24617 9.76775C4.29211 9.74872 4.34267 9.74374 4.39145 9.75344C4.44022 9.76314 4.48503 9.78709 4.52019 9.82226C4.55536 9.85742 4.57931 9.90223 4.58901 9.951C4.59871 9.99978 4.59373 10.0503 4.5747 10.0963C4.55567 10.1422 4.52344 10.1815 4.48209 10.2091C4.44074 10.2368 4.39212 10.2515 4.34239 10.2515C4.27576 10.2513 4.2119 10.2248 4.16478 10.1777C4.11766 10.1306 4.09111 10.0667 4.09094 10.0001ZM4.45682 11.3742C4.39235 11.3741 4.33036 11.3493 4.28367 11.3048C4.23699 11.2604 4.20917 11.1997 4.20598 11.1353C4.20279 11.0709 4.22446 11.0077 4.26652 10.9589C4.30858 10.91 4.36781 10.8792 4.43196 10.8728C4.49612 10.8663 4.56028 10.8848 4.6112 10.9244C4.66211 10.9639 4.69588 11.0215 4.70552 11.0853C4.71516 11.149 4.69994 11.214 4.663 11.2669C4.62605 11.3197 4.57022 11.3563 4.50704 11.3692C4.49054 11.3727 4.4737 11.3744 4.45682 11.3742ZM4.89686 12.4303C4.86569 12.4446 4.8318 12.4518 4.79753 12.4517C4.75224 12.4517 4.70778 12.4395 4.66886 12.4163C4.62995 12.3931 4.59802 12.3599 4.57645 12.32C4.55489 12.2802 4.5445 12.2353 4.54637 12.19C4.54825 12.1448 4.56232 12.1008 4.5871 12.0629C4.61189 12.025 4.64646 11.9945 4.68716 11.9746C4.72786 11.9547 4.77317 11.9462 4.81831 11.95C4.86345 11.9538 4.90673 11.9697 4.94358 11.996C4.98042 12.0224 5.00946 12.0582 5.02762 12.0997C5.04086 12.13 5.04799 12.1626 5.04858 12.1956C5.04917 12.2286 5.04321 12.2615 5.03106 12.2922C5.0189 12.3229 5.00079 12.351 4.97776 12.3747C4.95472 12.3984 4.92723 12.4173 4.89686 12.4303ZM5.49528 13.3908C5.45277 13.4202 5.40233 13.436 5.35064 13.4361C5.29083 13.4359 5.23308 13.4143 5.18781 13.3752C5.14254 13.3361 5.11274 13.2821 5.10381 13.223C5.09488 13.1638 5.10739 13.1034 5.13909 13.0527C5.17079 13.002 5.21959 12.9643 5.27667 12.9464C5.33374 12.9285 5.39533 12.9317 5.4503 12.9552C5.50527 12.9788 5.55 13.0213 5.5764 13.0749C5.60281 13.1286 5.60914 13.1899 5.59426 13.2479C5.57938 13.3058 5.54427 13.3565 5.49528 13.3908ZM5.6927 6.00451C5.7271 5.96889 5.77128 5.94425 5.81966 5.9337C5.86804 5.92315 5.91846 5.92716 5.96456 5.94523C6.01067 5.9633 6.05039 5.99461 6.07873 6.03522C6.10706 6.07583 6.12274 6.12392 6.12378 6.17342C6.12482 6.22293 6.11118 6.27164 6.08458 6.3134C6.05798 6.35517 6.01961 6.38812 5.97431 6.40811C5.929 6.4281 5.87879 6.43423 5.83001 6.42573C5.78123 6.41722 5.73606 6.39446 5.70019 6.36032C5.67622 6.33752 5.657 6.3102 5.64364 6.27993C5.63028 6.24967 5.62304 6.21705 5.62234 6.18398C5.62165 6.1509 5.62751 6.11801 5.63958 6.08721C5.65166 6.05641 5.66971 6.0283 5.6927 6.00451ZM6.27479 14.208C6.25243 14.2323 6.22548 14.2519 6.19549 14.2656C6.16551 14.2794 6.13309 14.2871 6.10012 14.2883C6.06714 14.2894 6.03426 14.284 6.00338 14.2724C5.9725 14.2608 5.94423 14.2432 5.92021 14.2205V14.2193C5.88403 14.1854 5.85873 14.1414 5.8475 14.0931C5.83628 14.0448 5.83964 13.9942 5.85716 13.9478C5.87467 13.9014 5.90556 13.8612 5.94592 13.8323C5.98627 13.8035 6.03428 13.7872 6.08387 13.7856C6.13346 13.7841 6.1824 13.7972 6.22451 13.8235C6.26662 13.8497 6.3 13.8878 6.32044 13.933C6.34088 13.9782 6.34745 14.0285 6.33932 14.0774C6.3312 14.1264 6.30874 14.1718 6.27479 14.208ZM7.20385 14.853C7.17787 14.8954 7.1399 14.9291 7.09474 14.9499C7.04958 14.9707 6.99926 14.9777 6.95015 14.9699C6.90103 14.9621 6.85533 14.94 6.81881 14.9062C6.7823 14.8724 6.75661 14.8286 6.74501 14.7803C6.7334 14.7319 6.73639 14.6812 6.7536 14.6346C6.77081 14.5879 6.80147 14.5474 6.8417 14.5182C6.88193 14.4889 6.92993 14.4723 6.97962 14.4704C7.02931 14.4684 7.07846 14.4812 7.12086 14.5072C7.14909 14.5244 7.17365 14.547 7.19311 14.5737C7.21258 14.6004 7.22658 14.6307 7.23429 14.6628C7.242 14.695 7.24329 14.7283 7.23806 14.7609C7.23284 14.7936 7.22121 14.8248 7.20385 14.853ZM8.24488 15.2942C8.22811 15.3411 8.19781 15.382 8.15781 15.4116C8.11781 15.4413 8.06992 15.4584 8.02018 15.4609C7.97044 15.4633 7.9211 15.4509 7.87839 15.4253C7.83569 15.3997 7.80153 15.362 7.78025 15.317C7.75897 15.272 7.75151 15.2217 7.75883 15.1724C7.76615 15.1232 7.78791 15.0772 7.82136 15.0403C7.85482 15.0034 7.89846 14.9773 7.94676 14.9652C7.99507 14.9531 8.04588 14.9556 8.09276 14.9724C8.1239 14.9835 8.15255 15.0007 8.17706 15.0229C8.20157 15.0451 8.22146 15.0719 8.23559 15.1018C8.24972 15.1316 8.25781 15.164 8.25941 15.1971C8.261 15.2301 8.25607 15.2631 8.24488 15.2942ZM9.35369 15.513C9.34526 15.5731 9.31547 15.6282 9.26977 15.6681C9.22407 15.7081 9.16552 15.7302 9.10482 15.7306C9.09352 15.7306 9.08223 15.7292 9.06958 15.728C9.02041 15.7211 8.9744 15.6997 8.93735 15.6667C8.90029 15.6336 8.87386 15.5903 8.86139 15.5422C8.84892 15.4942 8.85097 15.4435 8.86727 15.3966C8.88358 15.3497 8.91341 15.3087 8.95301 15.2787C8.9926 15.2488 9.04019 15.2312 9.08976 15.2282C9.13932 15.2253 9.18865 15.2371 9.23152 15.2622C9.27438 15.2872 9.30886 15.3244 9.33061 15.3691C9.35235 15.4137 9.36038 15.4638 9.35369 15.513ZM10.2489 15.7707C10.2435 15.7719 10.238 15.7723 10.2325 15.7721C10.163 15.7757 10.0949 15.7518 10.0428 15.7055C9.99076 15.6593 9.95897 15.5945 9.95431 15.525C9.94965 15.4556 9.97248 15.3871 10.0179 15.3343C10.0633 15.2816 10.1276 15.2488 10.197 15.243C10.2664 15.2373 10.3352 15.2591 10.3887 15.3037C10.4421 15.3482 10.4759 15.4121 10.4827 15.4813C10.4895 15.5506 10.4688 15.6198 10.4251 15.6739C10.3813 15.7281 10.318 15.7628 10.2489 15.7707ZM11.4132 15.5759C11.3915 15.5819 11.369 15.5848 11.3465 15.5847C11.2856 15.5847 11.2268 15.5627 11.1809 15.5226C11.135 15.4825 11.1053 15.4272 11.0971 15.3668C11.089 15.3065 11.103 15.2452 11.1366 15.1944C11.1702 15.1436 11.2211 15.1068 11.2798 15.0907V15.0919C11.3116 15.083 11.3449 15.0805 11.3777 15.0846C11.4104 15.0886 11.4421 15.099 11.4708 15.1153C11.4995 15.1316 11.5248 15.1533 11.5451 15.1794C11.5654 15.2054 11.5803 15.2352 11.5891 15.267C11.5979 15.2989 11.6003 15.3321 11.5962 15.3649C11.5921 15.3976 11.5816 15.4293 11.5652 15.458C11.5489 15.4866 11.527 15.5118 11.5009 15.5321C11.4748 15.5523 11.445 15.5672 11.4132 15.5759ZM12.5145 15.1471C12.4787 15.1653 12.439 15.1748 12.3988 15.1749C12.3375 15.1746 12.2784 15.1519 12.2327 15.1111C12.187 15.0702 12.1579 15.014 12.1508 14.9531C12.1437 14.8922 12.1592 14.8308 12.1943 14.7806C12.2294 14.7303 12.2817 14.6947 12.3414 14.6804C12.401 14.6661 12.4638 14.6741 12.5178 14.703C12.5719 14.7318 12.6136 14.7795 12.6349 14.837C12.6562 14.8945 12.6557 14.9578 12.6336 15.0149C12.6114 15.0721 12.569 15.1191 12.5145 15.1471ZM13.504 14.5034V14.5022C13.4591 14.5386 13.4032 14.5586 13.3455 14.5588C13.308 14.5585 13.271 14.5501 13.2371 14.534C13.2032 14.5179 13.1733 14.4946 13.1494 14.4657C13.118 14.4269 13.0989 14.3797 13.0944 14.3301C13.0899 14.2804 13.1003 14.2305 13.1241 14.1868C13.148 14.143 13.1842 14.1072 13.2284 14.0841C13.2725 14.0609 13.3226 14.0514 13.3722 14.0566C13.4217 14.0619 13.4686 14.0818 13.5069 14.1137C13.5452 14.1456 13.5732 14.1882 13.5873 14.236C13.6014 14.2838 13.601 14.3347 13.5862 14.3823C13.5714 14.4299 13.5427 14.4721 13.504 14.5034ZM13.6095 9.85285C13.6061 9.85567 13.6026 9.85849 13.599 9.8612L12.202 10.9011C12.1868 10.9147 12.1757 10.9323 12.17 10.9519C12.1642 10.9715 12.1641 10.9923 12.1696 11.012L12.599 12.6358C12.6434 12.7912 12.6387 12.9565 12.5856 13.1091C12.5326 13.2617 12.4337 13.3942 12.3024 13.4885C12.17 13.5868 12.0104 13.6416 11.8456 13.6455C11.6808 13.6494 11.5188 13.6022 11.3819 13.5104L9.99398 12.5921C9.97469 12.5793 9.95203 12.5724 9.92885 12.5724C9.90567 12.5724 9.88301 12.5793 9.86371 12.5921L8.47571 13.5104C8.33877 13.6022 8.17676 13.6494 8.01193 13.6455C7.8471 13.6415 7.68753 13.5867 7.55512 13.4884C7.42341 13.3934 7.32434 13.26 7.27151 13.1065C7.21868 12.953 7.21469 12.7868 7.26008 12.6309L7.68428 11.0251C7.69091 11.0043 7.69125 10.9819 7.68524 10.9609C7.67924 10.9398 7.66716 10.921 7.65051 10.9068L6.17019 9.87728C6.1665 9.87482 6.16294 9.87212 6.15938 9.86942C6.03099 9.76962 5.93631 9.63284 5.88811 9.47754C5.8399 9.32223 5.84051 9.15587 5.88983 9.00092C5.93915 8.84597 6.03482 8.70987 6.16393 8.611C6.29303 8.51213 6.44936 8.45525 6.61182 8.44803L8.41444 8.3546C8.43641 8.35364 8.45765 8.34642 8.47564 8.33377C8.49363 8.32113 8.50763 8.30361 8.51598 8.28326L9.18328 6.60612C9.24317 6.45741 9.34616 6.33001 9.47902 6.24029C9.61188 6.15057 9.76853 6.10262 9.92885 6.10262C10.0892 6.10262 10.2458 6.15057 10.3787 6.24029C10.5115 6.33001 10.6145 6.45741 10.6744 6.60612L11.342 8.284C11.3503 8.30425 11.3642 8.32171 11.382 8.33432C11.3999 8.34694 11.421 8.35419 11.4429 8.35521L13.1391 8.44803C13.2991 8.45563 13.453 8.51139 13.5808 8.60801C13.7085 8.70462 13.8041 8.83759 13.8549 8.98947C13.9058 9.14135 13.9096 9.30505 13.8658 9.45912C13.822 9.61319 13.7327 9.75043 13.6095 9.85285ZM14.3425 13.6725C14.3188 13.7011 14.289 13.7242 14.2553 13.7401C14.2217 13.7559 14.1849 13.7642 14.1477 13.7642C14.0893 13.7644 14.0327 13.7439 13.9879 13.7063C13.9497 13.6746 13.9217 13.6323 13.9074 13.5847C13.8932 13.5371 13.8934 13.4863 13.908 13.4388C13.9226 13.3913 13.951 13.3492 13.9895 13.3178C14.028 13.2864 14.075 13.2671 14.1244 13.2624C14.1739 13.2577 14.2237 13.2677 14.2674 13.2913C14.3112 13.3148 14.347 13.3508 14.3703 13.3946C14.3937 13.4385 14.4035 13.4883 14.3985 13.5378C14.3936 13.5872 14.3741 13.6341 14.3425 13.6725ZM14.4078 7.29073C14.379 7.24298 14.3669 7.18704 14.3732 7.13164C14.3796 7.07624 14.4042 7.02452 14.4431 6.98456C14.482 6.9446 14.533 6.91866 14.5882 6.9108C14.6434 6.90293 14.6997 6.91359 14.7482 6.9411C14.7967 6.9686 14.8347 7.01141 14.8563 7.06283C14.8779 7.11424 14.8818 7.17136 14.8675 7.22525C14.8532 7.27914 14.8214 7.32677 14.7771 7.36068C14.7329 7.39458 14.6786 7.41286 14.6228 7.41265C14.5796 7.41244 14.5371 7.40111 14.4994 7.37976C14.4618 7.35841 14.4302 7.32776 14.4078 7.29073ZM14.995 12.6893C14.9738 12.7299 14.9418 12.764 14.9026 12.7877C14.8634 12.8115 14.8184 12.8239 14.7725 12.8238C14.7317 12.824 14.6916 12.814 14.6556 12.7948C14.6115 12.7717 14.5752 12.7361 14.5514 12.6923C14.5276 12.6486 14.5172 12.5988 14.5217 12.5492C14.5262 12.4996 14.5453 12.4525 14.5766 12.4137C14.6079 12.375 14.65 12.3464 14.6976 12.3316C14.7451 12.3168 14.796 12.3165 14.8438 12.3306C14.8915 12.3447 14.934 12.3727 14.9659 12.411C14.9977 12.4493 15.0175 12.4962 15.0226 12.5457C15.0278 12.5952 15.0182 12.6452 14.995 12.6893ZM15.435 11.593C15.4201 11.6455 15.3884 11.6917 15.3449 11.7246C15.3013 11.7575 15.2482 11.7753 15.1936 11.7753C15.1703 11.7754 15.147 11.7725 15.1245 11.7665C15.0766 11.7529 15.0338 11.7255 15.0014 11.6876C14.9691 11.6497 14.9488 11.6031 14.9429 11.5537C14.9371 11.5042 14.9461 11.4542 14.9687 11.4098C14.9914 11.3655 15.0267 11.3288 15.0701 11.3045C15.1136 11.2803 15.1633 11.2694 15.2129 11.2734C15.2626 11.2773 15.3099 11.2959 15.349 11.3268C15.388 11.3577 15.417 11.3995 15.4324 11.4468C15.4477 11.4942 15.4486 11.5451 15.435 11.593ZM15.391 10.6639C15.3847 10.6641 15.3784 10.6637 15.3721 10.6626C15.3392 10.6602 15.3071 10.6514 15.2777 10.6365C15.2482 10.6217 15.222 10.6012 15.2005 10.5762C15.179 10.5512 15.1626 10.5222 15.1524 10.4909C15.1422 10.4595 15.1382 10.4264 15.1408 10.3936H15.1396C15.1433 10.3448 15.1611 10.2981 15.1908 10.2593C15.2206 10.2205 15.2611 10.1912 15.3072 10.175C15.3534 10.1588 15.4033 10.1564 15.4508 10.1682C15.4983 10.1799 15.5413 10.2052 15.5746 10.2411C15.6079 10.2769 15.6301 10.3217 15.6384 10.3699C15.6466 10.4181 15.6407 10.4677 15.6212 10.5125C15.6017 10.5574 15.5695 10.5956 15.5287 10.6225C15.4878 10.6494 15.44 10.6638 15.391 10.6639Z" fill="#0E2339"/>
</svg>
