<svg width="24" height="24" viewBox="0 0 24 24" fill="none" xmlns="http://www.w3.org/2000/svg">
<path d="M19.6996 5.34313H18.2916L17.9396 4.22876C17.7115 3.57488 17.2882 3.00909 16.7285 2.60976C16.1687 2.21044 15.5003 1.99735 14.8157 2.00002H9.18383C8.49255 2.00134 7.81913 2.22255 7.25861 2.63243C6.6981 3.04232 6.2788 3.62019 6.05989 4.28448L5.7079 5.39885H4.29993C3.42474 5.39885 2.58538 5.75107 1.96653 6.37802C1.34767 7.00497 1 7.85531 1 8.74195V17.6569C1 18.5435 1.34767 19.3939 1.96653 20.0208C2.58538 20.6478 3.42474 21 4.29993 21H19.6996C20.5748 21 21.4142 20.6478 22.033 20.0208C22.6519 19.3939 22.9995 18.5435 22.9995 17.6569V8.74195C23.0068 8.29826 22.9269 7.85754 22.7643 7.44548C22.6017 7.03343 22.3598 6.65828 22.0527 6.34192C21.7455 6.02556 21.3793 5.77431 20.9753 5.60283C20.5713 5.43135 20.1376 5.34307 19.6996 5.34313ZM20.7996 17.6012C20.7996 17.8967 20.6837 18.1802 20.4774 18.3892C20.2711 18.5981 19.9913 18.7155 19.6996 18.7155H4.29993C4.0082 18.7155 3.72842 18.5981 3.52213 18.3892C3.31584 18.1802 3.19995 17.8967 3.19995 17.6012V8.68623C3.19995 8.39068 3.31584 8.10724 3.52213 7.89826C3.72842 7.68927 4.0082 7.57187 4.29993 7.57187H6.49989C6.73975 7.58455 6.97713 7.51734 7.17575 7.38051C7.37437 7.24368 7.52333 7.04475 7.59986 6.8141L8.19385 4.98653C8.26764 4.76519 8.40823 4.57295 8.59575 4.43697C8.78327 4.30099 9.00823 4.22816 9.23883 4.22876H14.8707C15.1013 4.22816 15.3263 4.30099 15.5138 4.43697C15.7013 4.57295 15.8419 4.76519 15.9157 4.98653L16.5097 6.8141C16.5803 7.02666 16.7125 7.21269 16.8891 7.34789C17.0658 7.48308 17.2785 7.56114 17.4997 7.57187H19.6996C19.9913 7.57187 20.2711 7.68927 20.4774 7.89826C20.6837 8.10724 20.7996 8.39068 20.7996 8.68623V17.6012ZM11.9998 7.57187C11.1296 7.57187 10.2789 7.83329 9.55531 8.32309C8.83175 8.81288 8.2678 9.50904 7.93479 10.3235C7.60177 11.138 7.51463 12.0343 7.68441 12.8989C7.85418 13.7636 8.27323 14.5579 8.88857 15.1812C9.5039 15.8046 10.2879 16.2292 11.1414 16.4012C11.9949 16.5732 12.8796 16.4849 13.6835 16.1475C14.4875 15.8101 15.1747 15.2388 15.6582 14.5058C16.1416 13.7727 16.3997 12.9109 16.3997 12.0293C16.3997 10.8471 15.9361 9.71337 15.111 8.87743C14.2858 8.04149 13.1667 7.57187 11.9998 7.57187ZM11.9998 14.2581C11.5647 14.2581 11.1393 14.1274 10.7775 13.8825C10.4158 13.6376 10.1338 13.2895 9.96728 12.8822C9.80077 12.475 9.7572 12.0269 9.84209 11.5945C9.92697 11.1622 10.1365 10.7651 10.4442 10.4534C10.7518 10.1417 11.1438 9.92942 11.5706 9.84343C11.9973 9.75743 12.4397 9.80157 12.8417 9.97025C13.2436 10.1389 13.5872 10.4246 13.829 10.7911C14.0707 11.1576 14.1997 11.5885 14.1997 12.0293C14.1997 12.6204 13.9679 13.1873 13.5554 13.6053C13.1428 14.0233 12.5832 14.2581 11.9998 14.2581Z" fill="#0E2339" fill-opacity="0.5"/>
</svg>
