<svg width="24" height="24" viewBox="0 0 24 24" fill="none" xmlns="http://www.w3.org/2000/svg">
<path d="M23 17.0128C23 20.5904 20.0904 23.5 16.5128 23.5H4.10256C2.39108 23.5 1 22.1089 1 20.3974C1 16.3066 3.82841 12.8723 7.62933 11.9235C6.34544 10.8359 5.51282 9.23385 5.51282 7.42308C5.51282 4.15692 8.16974 1.5 11.4359 1.5C14.7021 1.5 17.359 4.15692 17.359 7.42308C17.359 8.56482 17.0307 9.62759 16.4666 10.5279C16.4824 10.5279 16.497 10.5256 16.5128 10.5256C20.0904 10.5256 23 13.4364 23 17.0128ZM11.4359 11.6538C13.7679 11.6538 15.6667 9.75621 15.6667 7.42308C15.6667 5.08995 13.7679 3.19231 11.4359 3.19231C9.1039 3.19231 7.20513 5.08995 7.20513 7.42308C7.20513 9.75621 9.1039 11.6538 11.4359 11.6538ZM12.1579 21.8077C10.8515 20.6197 10.0256 18.9138 10.0256 17.0128C10.0256 15.6522 10.4487 14.3897 11.1663 13.3462H9.74359C5.85579 13.3462 2.69231 16.5096 2.69231 20.3974C2.69231 21.1748 3.32523 21.8077 4.10256 21.8077H12.1579ZM21.3077 17.0128C21.3077 14.3683 19.1573 12.2179 16.5128 12.2179C13.8683 12.2179 11.7179 14.3683 11.7179 17.0128C11.7179 19.6573 13.8683 21.8077 16.5128 21.8077C19.1573 21.8077 21.3077 19.6573 21.3077 17.0128Z" fill="#35BA80"/>
<path d="M18.5264 14.1164C18.4206 14.0574 18.3043 14.02 18.1841 14.0061C18.0638 13.9922 17.9421 14.0022 17.8257 14.0355C17.7093 14.0688 17.6006 14.1247 17.5059 14.2002C17.4111 14.2756 17.3321 14.369 17.2734 14.475L15.5629 17.5587L14.584 16.578C14.499 16.4899 14.3974 16.4195 14.285 16.3712C14.1726 16.3228 14.0517 16.2973 13.9293 16.2963C13.807 16.2952 13.6857 16.3186 13.5725 16.365C13.4592 16.4114 13.3564 16.4799 13.2699 16.5666C13.1833 16.6532 13.1149 16.7563 13.0686 16.8697C13.0223 16.9832 12.999 17.1047 13 17.2272C13.0011 17.3498 13.0265 17.4709 13.0748 17.5835C13.1231 17.6961 13.1933 17.798 13.2813 17.8831L15.1239 19.7291C15.2981 19.904 15.533 20 15.7753 20L15.9029 19.9908C16.0441 19.971 16.1788 19.9186 16.2964 19.8378C16.414 19.757 16.5113 19.65 16.5805 19.5251L18.8839 15.3717C18.9427 15.2657 18.9801 15.1492 18.9939 15.0288C19.0078 14.9084 18.9978 14.7864 18.9646 14.6699C18.9315 14.5533 18.8757 14.4444 18.8005 14.3495C18.7253 14.2545 18.6321 14.1753 18.5264 14.1164Z" fill="#35BA80"/>
</svg>
