<svg width="24" height="24" viewBox="0 0 24 24" fill="none" xmlns="http://www.w3.org/2000/svg">
<path d="M18.7913 2.8541V0H2.39844V21.1498H5.20865V23.9805H21.6016V2.8541H18.7913ZM3.80354 1.40511H17.3862V19.7447H3.80354V1.40511ZM20.1965 22.5754H6.61376V21.1498H18.7913V4.25921H20.1965V22.5754Z" fill="#0E2339" fill-opacity="0.5"/>
<path d="M8.0036 10.5814L10.595 14.284L13.1865 10.5814L10.595 6.87888L8.0036 10.5814ZM10.595 11.8336L9.71867 10.5814L10.595 9.3293L11.4715 10.5814L10.595 11.8336Z" fill="#0E2339" fill-opacity="0.5"/>
<path d="M12.7263 3.50993V2.80738H5.20795V15.0918H5.9105C7.31743 15.0918 8.46208 16.2349 8.46208 17.64V18.3425H15.9804V6.05814H15.2779C13.8709 6.05814 12.7263 4.91504 12.7263 3.50993ZM14.5753 16.9374H9.80466C9.51296 15.3194 8.23258 14.0402 6.6131 13.749V4.21249H11.3838C11.6755 5.83047 12.9558 7.10972 14.5754 7.40086V16.9374H14.5753Z" fill="#0E2339" fill-opacity="0.5"/>
<path d="M5.20795 16.937H6.61305V18.3421H5.20795V16.937Z" fill="#0E2339" fill-opacity="0.5"/>
<path d="M14.5746 2.80738H15.9797V4.21249H14.5746V2.80738Z" fill="#0E2339" fill-opacity="0.5"/>
</svg>
