<svg width="24" height="24" viewBox="0 0 24 24" fill="none" xmlns="http://www.w3.org/2000/svg">
<g clip-path="url(#clip0_1_356)">
<path d="M23.436 4.725C23.2535 4.59335 23.0466 4.52404 22.836 4.52404C22.6253 4.52404 22.4184 4.59335 22.236 4.725L18 7.335C17.9658 6.17036 17.5715 5.06771 16.9 4.25916C16.2285 3.45061 15.3323 2.99922 14.4 3H3.6C2.64522 3 1.72954 3.47411 1.05441 4.31802C0.379284 5.16193 0 6.30653 0 7.5V16.5C0 17.6935 0.379284 18.8381 1.05441 19.682C1.72954 20.5259 2.64522 21 3.6 21H14.4C15.3323 21.0008 16.2285 20.5494 16.9 19.7408C17.5715 18.9323 17.9658 17.8296 18 16.665L22.272 19.335C22.4539 19.4507 22.6565 19.5059 22.8604 19.4953C23.0643 19.4848 23.2626 19.4088 23.4362 19.2747C23.6098 19.1406 23.7528 18.9528 23.8516 18.7296C23.9503 18.5063 24.0014 18.2551 24 18V6C24.0004 5.74509 23.9488 5.49424 23.8501 5.27116C23.7514 5.04807 23.6089 4.86011 23.436 4.725ZM15.6 16.5C15.6 16.8978 15.4736 17.2794 15.2485 17.5607C15.0235 17.842 14.7182 18 14.4 18H3.6C3.28174 18 2.97651 17.842 2.75147 17.5607C2.52643 17.2794 2.4 16.8978 2.4 16.5V7.5C2.4 7.10218 2.52643 6.72065 2.75147 6.43934C2.97651 6.15804 3.28174 6 3.6 6H14.4C14.7182 6 15.0235 6.15804 15.2485 6.43934C15.4736 6.72065 15.6 7.10218 15.6 7.5V16.5ZM21.6 15.57L18 13.32V10.68L21.6 8.43V15.57Z" fill="#0E2339" fill-opacity="0.5"/>
</g>
<defs>
<clipPath id="clip0_1_356">
<rect width="24" height="24" fill="white"/>
</clipPath>
</defs>
</svg>
