<svg width="24" height="24" viewBox="0 0 24 24" fill="none" xmlns="http://www.w3.org/2000/svg">
<path d="M20.2732 13.135C20.0303 13.135 19.7764 13.0575 19.5335 13.0022C19.0417 12.8935 18.5584 12.7492 18.0873 12.5704C17.5752 12.3835 17.0122 12.3932 16.5068 12.5976C16.0014 12.802 15.5892 13.1867 15.3495 13.6776L15.1066 14.1758C14.0314 13.5759 13.0433 12.8308 12.1701 11.9614C11.3032 11.0857 10.5603 10.0947 9.96216 9.01633L10.4258 8.70632C10.9153 8.46597 11.2988 8.05256 11.5026 7.54565C11.7064 7.03874 11.7161 6.47415 11.5298 5.96051C11.3545 5.48711 11.2107 5.00258 11.0992 4.51011C11.044 4.26653 10.9999 4.01188 10.9668 3.75723C10.8327 2.97735 10.4254 2.27111 9.81822 1.76568C9.21104 1.26025 8.44387 0.988846 7.65488 1.00035H4.34299C3.86721 0.995871 3.39606 1.09425 2.96161 1.28881C2.52715 1.48336 2.1396 1.7695 1.82532 2.12777C1.51104 2.48604 1.27743 2.90801 1.14037 3.36497C1.00332 3.82192 0.966049 4.30313 1.0311 4.77583C1.61922 9.41423 3.73142 13.7239 7.03406 17.0241C10.3367 20.3244 14.6415 22.427 19.2686 23H19.6881C20.5022 23.0012 21.2882 22.7016 21.896 22.1585C22.2453 21.8453 22.5243 21.4612 22.7146 21.0318C22.9049 20.6024 23.0021 20.1373 23 19.6674V16.3459C22.9864 15.5768 22.7072 14.8363 22.2099 14.2507C21.7126 13.6651 21.0281 13.2708 20.2732 13.135ZM20.8252 19.7781C20.825 19.9353 20.7914 20.0907 20.7267 20.2338C20.6619 20.377 20.5676 20.5047 20.4498 20.6085C20.3268 20.7159 20.1826 20.7961 20.0266 20.8438C19.8706 20.8915 19.7064 20.9056 19.5446 20.8853C15.4101 20.3536 11.5698 18.4567 8.62936 15.4936C5.68893 12.5306 3.81574 8.67015 3.30526 4.52118C3.28769 4.359 3.30309 4.19493 3.35052 4.03888C3.39796 3.88284 3.47645 3.73806 3.58125 3.61329C3.6847 3.49519 3.81205 3.40054 3.95481 3.33563C4.09757 3.27073 4.25248 3.23705 4.40922 3.23685H7.72111C7.97784 3.23112 8.22852 3.31533 8.43002 3.47497C8.63151 3.63462 8.77121 3.85972 8.82508 4.11152C8.86923 4.41415 8.92443 4.71309 8.99067 5.00834C9.1182 5.59198 9.28792 6.16554 9.49849 6.72447L7.95294 7.44413C7.8208 7.50494 7.70193 7.59133 7.60316 7.69834C7.5044 7.80534 7.42768 7.93086 7.37742 8.06769C7.32715 8.20452 7.30434 8.34995 7.31027 8.49564C7.31621 8.64134 7.35078 8.78442 7.412 8.91668C9.00083 12.3298 11.7365 15.0735 15.1397 16.6669C15.4085 16.7777 15.71 16.7777 15.9788 16.6669C16.1164 16.6175 16.243 16.5412 16.351 16.4424C16.459 16.3435 16.5464 16.2242 16.608 16.0912L17.2925 14.5412C17.8632 14.7458 18.4457 14.9159 19.0367 15.0505C19.3311 15.1169 19.6292 15.1722 19.9309 15.2165C20.182 15.2705 20.4065 15.4107 20.5656 15.6127C20.7248 15.8148 20.8088 16.0662 20.8031 16.3237L20.8252 19.7781Z" fill="#0E2339" fill-opacity="0.5"/>
</svg>
