<svg width="24" height="24" viewBox="0 0 24 24" fill="none" xmlns="http://www.w3.org/2000/svg">
<circle cx="12" cy="12" r="11" stroke="#0E2339" stroke-opacity="0.5" stroke-width="2"/>
<path d="M10.92 18L8.04 12.976V11.792H9C9.56533 11.792 10.04 11.6693 10.424 11.424C10.808 11.168 11.0533 10.816 11.16 10.368H8.04V9.184H11.144C11.048 8.77867 10.8507 8.44267 10.552 8.176C10.2533 7.89867 9.83733 7.76 9.304 7.76H8.04V6.576H15.256V7.76H12.744C13.1173 8.16533 13.352 8.64 13.448 9.184H15.256V10.368H13.48C13.3733 11.1573 13.064 11.776 12.552 12.224C12.0507 12.6613 11.4107 12.96 10.632 13.12L13.768 18H10.92Z" fill="#0E2339" fill-opacity="0.5"/>
</svg>
