<svg width="32" height="32" viewBox="0 0 32 32" fill="none" xmlns="http://www.w3.org/2000/svg">
<path d="M25.6313 27.6767H0.666667C0.489856 27.6767 0.320286 27.6064 0.195262 27.4814C0.0702379 27.3564 0 27.1868 0 27.01V12.7207C0 12.5439 0.0702379 12.3743 0.195262 12.2493C0.320286 12.1242 0.489856 12.054 0.666667 12.054H25.6313C25.8081 12.054 25.9777 12.1242 26.1027 12.2493C26.2278 12.3743 26.298 12.5439 26.298 12.7207V27.01C26.298 27.1868 26.2278 27.3564 26.1027 27.4814C25.9777 27.6064 25.8081 27.6767 25.6313 27.6767ZM1.33333 26.3433H24.9647V13.3873H1.33333V26.3433Z" fill="#5F3C08"/>
<path d="M21.3335 25.6567H4.96888C4.79206 25.6567 4.62249 25.5864 4.49747 25.4614C4.37245 25.3364 4.30221 25.1668 4.30221 24.99C4.30168 24.6352 4.16045 24.2951 3.9095 24.0442C3.65854 23.7934 3.31835 23.6524 2.96354 23.652C2.78673 23.652 2.61716 23.5818 2.49214 23.4567C2.36711 23.3317 2.29688 23.1622 2.29688 22.9853V16.746C2.29688 16.5692 2.36711 16.3996 2.49214 16.2746C2.61716 16.1496 2.78673 16.0793 2.96354 16.0793C3.31842 16.0788 3.6586 15.9376 3.90954 15.6867C4.16047 15.4357 4.30168 15.0955 4.30221 14.7407C4.30221 14.5639 4.37245 14.3943 4.49747 14.2693C4.62249 14.1442 4.79206 14.074 4.96888 14.074H21.3335C21.5104 14.074 21.6799 14.1442 21.8049 14.2693C21.93 14.3943 22.0002 14.5639 22.0002 14.7407C22.0006 15.0947 22.141 15.4342 22.3908 15.685C22.6406 15.9358 22.9795 16.0776 23.3335 16.0793C23.5104 16.0793 23.6799 16.1496 23.8049 16.2746C23.93 16.3996 24.0002 16.5692 24.0002 16.746V22.9853C24.0002 23.1622 23.93 23.3317 23.8049 23.4567C23.6799 23.5818 23.5104 23.652 23.3335 23.652C22.9788 23.6524 22.6387 23.7934 22.3878 24.0443C22.137 24.2951 21.9959 24.6353 21.9955 24.99C21.9955 25.166 21.9259 25.3349 21.8019 25.4598C21.6779 25.5847 21.5095 25.6554 21.3335 25.6567ZM5.55421 24.3233H20.7542C20.8734 23.8617 21.1135 23.4402 21.4496 23.1022C21.7858 22.7642 22.2059 22.5218 22.6669 22.4V17.328C22.2047 17.2078 21.7831 16.9664 21.4454 16.6288C21.1078 16.2911 20.8664 15.8695 20.7462 15.4073H5.55088C5.43082 15.8695 5.18949 16.2913 4.85182 16.6289C4.51415 16.9666 4.09241 17.208 3.63021 17.328V22.4C4.09267 22.5204 4.51456 22.7622 4.85224 23.1003C5.18992 23.4385 5.43111 23.8607 5.55088 24.3233H5.55421Z" fill="#5F3C08"/>
<path d="M13.1495 23.54C12.4226 23.5401 11.712 23.3247 11.1076 22.9209C10.5032 22.5172 10.0321 21.9433 9.7539 21.2717C9.47571 20.6002 9.40293 19.8613 9.54475 19.1484C9.68657 18.4355 10.0366 17.7806 10.5506 17.2667C11.0647 16.7528 11.7195 16.4029 12.4325 16.2612C13.1454 16.1195 13.8843 16.1924 14.5558 16.4707C15.2273 16.749 15.8011 17.2202 16.2048 17.8247C16.6084 18.4292 16.8237 19.1398 16.8235 19.8667C16.8219 20.8405 16.4343 21.774 15.7456 22.4626C15.0569 23.1512 14.1233 23.5386 13.1495 23.54ZM13.1495 17.5247C12.6864 17.5245 12.2337 17.6617 11.8486 17.9189C11.4635 18.1761 11.1633 18.5416 10.9859 18.9694C10.8086 19.3972 10.7621 19.8679 10.8523 20.3221C10.9425 20.7763 11.1654 21.1936 11.4927 21.5211C11.8201 21.8486 12.2372 22.0718 12.6914 22.1622C13.1455 22.2527 13.6163 22.2065 14.0442 22.0294C14.472 21.8523 14.8378 21.5523 15.0952 21.1673C15.3525 20.7824 15.49 20.3297 15.4901 19.8667C15.4898 19.2459 15.2431 18.6506 14.8042 18.2115C14.3654 17.7724 13.7703 17.5254 13.1495 17.5247Z" fill="#5F3C08"/>
<path d="M27.2126 23.8587C27.0415 23.8587 26.877 23.793 26.7531 23.6751C26.6291 23.5572 26.5552 23.3962 26.5467 23.2254C26.5381 23.0545 26.5955 22.887 26.7071 22.7573C26.8186 22.6276 26.9757 22.5458 27.1459 22.5287L27.9153 22.448L26.5619 9.56334L5.09993 11.8167C4.924 11.8351 4.74794 11.783 4.61048 11.6716C4.47302 11.5603 4.38541 11.3989 4.36693 11.223C4.34846 11.0471 4.40062 10.871 4.51196 10.7336C4.62329 10.5961 4.78467 10.5085 4.9606 10.49L27.0833 8.16734C27.1704 8.1581 27.2585 8.16612 27.3425 8.19094C27.4265 8.21577 27.5048 8.25691 27.5729 8.31201C27.641 8.36712 27.6976 8.43511 27.7394 8.51209C27.7812 8.58907 27.8074 8.67354 27.8166 8.76067L29.3093 22.972C29.3185 23.0591 29.3105 23.1472 29.2857 23.2312C29.2608 23.3152 29.2197 23.3935 29.1646 23.4616C29.1095 23.5298 29.0415 23.5863 28.9645 23.6281C28.8875 23.67 28.8031 23.6962 28.7159 23.7053L27.2833 23.856C27.2593 23.8573 27.2359 23.8587 27.2126 23.8587Z" fill="#5F3C08"/>
<path d="M30.2447 19.8987C30.0789 19.8985 29.9191 19.8366 29.7965 19.725C29.6739 19.6133 29.5973 19.46 29.5816 19.295C29.566 19.1299 29.6124 18.9649 29.7118 18.8322C29.8113 18.6995 29.9566 18.6087 30.1194 18.5773L30.5534 18.494L28.1121 5.77L7.21807 9.778C7.13197 9.79451 7.04346 9.79389 6.95759 9.77619C6.87173 9.75848 6.79019 9.72404 6.71764 9.67482C6.57111 9.57543 6.47007 9.4219 6.43674 9.248C6.42024 9.1619 6.42085 9.07339 6.43856 8.98753C6.45626 8.90166 6.4907 8.82013 6.53992 8.74757C6.58913 8.67502 6.65216 8.61287 6.72539 8.56467C6.79863 8.51647 6.88064 8.48317 6.96674 8.46667L28.5161 4.33334C28.6896 4.30011 28.8692 4.33713 29.0155 4.43626C29.1617 4.53538 29.2627 4.68851 29.2961 4.86201L31.9881 18.896C32.0213 19.0696 31.9842 19.2493 31.8849 19.3956C31.7856 19.5419 31.6324 19.6427 31.4587 19.676L30.3707 19.8847C30.3293 19.8932 30.2871 19.8979 30.2447 19.8987Z" fill="#5F3C08"/>
</svg>
