<svg width="300" height="300" viewBox="0 0 300 300" fill="none" xmlns="http://www.w3.org/2000/svg">
<path d="M140.474 15.0635H33.9206C25.7432 15.0635 19.114 21.767 19.114 30.0363V269.964C19.114 278.233 25.7432 284.936 33.9206 284.936H140.474C148.652 284.936 155.281 278.233 155.281 269.964V30.0363C155.281 21.767 148.652 15.0635 140.474 15.0635Z" fill="#4E496D"/>
<path d="M137.827 15.0635H28.689C21.2252 15.0635 15.1746 21.182 15.1746 28.7295V271.27C15.1746 278.818 21.2252 284.936 28.689 284.936H137.827C145.291 284.936 151.342 278.818 151.342 271.27V28.7295C151.342 21.182 145.291 15.0635 137.827 15.0635Z" fill="#5F5C68"/>
<path d="M133.897 18.7749H32.6105C24.77 18.7749 18.4141 25.2022 18.4141 33.1306V264.764C18.4141 272.692 24.77 279.12 32.6105 279.12H133.897C141.737 279.12 148.093 272.692 148.093 264.764V33.1306C148.093 25.2022 141.737 18.7749 133.897 18.7749Z" fill="url(#paint0_linear_1074_1892)"/>
<path d="M138.285 15.0635H28.2313C21.0523 15.0635 15.1746 21.4156 15.1746 29.2105V44.764H151.342V29.2105C151.342 21.3974 145.491 15.0635 138.285 15.0635Z" fill="#645C7F"/>
<path d="M73.396 224.646H30.5555C26.3627 224.646 22.9637 228.083 22.9637 232.323V245.753C22.9637 249.993 26.3627 253.43 30.5555 253.43H73.396C77.5888 253.43 80.9877 249.993 80.9877 245.753V232.323C80.9877 228.083 77.5888 224.646 73.396 224.646Z" fill="url(#paint1_linear_1074_1892)"/>
<path d="M135.952 224.646H93.1112C88.9184 224.646 85.5194 228.083 85.5194 232.323V245.753C85.5194 249.993 88.9184 253.43 93.1112 253.43H135.952C140.144 253.43 143.543 249.993 143.543 245.753V232.323C143.543 228.083 140.144 224.646 135.952 224.646Z" fill="url(#paint2_linear_1074_1892)"/>
<path d="M97.3366 110.419C98.5822 102.616 93.337 95.27 85.6212 94.0105C77.9054 92.751 70.6408 98.055 69.3953 105.857C68.1497 113.66 73.3949 121.006 81.1107 122.265C88.8265 123.525 96.0911 118.221 97.3366 110.419Z" fill="#FAFFFD"/>
<path d="M83.3568 127.223C61.1109 127.223 59.7649 145.082 59.7649 161.216H106.949C106.949 145.082 105.585 127.223 83.3568 127.223Z" fill="#FAFFFD"/>
<path d="M83.3568 181.924C72.7059 181.924 62.2943 178.729 53.439 172.745C44.5837 166.76 37.6826 158.254 33.6088 148.303C29.5349 138.351 28.4712 127.401 30.5524 116.839C32.6336 106.276 37.766 96.5744 45.3005 88.9617C52.8349 81.3491 62.4329 76.1671 72.8802 74.0714C83.3275 71.9757 94.1548 73.0604 103.992 77.1883C113.83 81.3162 122.236 88.3018 128.147 97.2614C134.058 106.221 137.208 116.752 137.199 127.523C137.187 141.955 131.509 155.792 121.413 165.993C111.317 176.194 97.6289 181.924 83.3568 181.924ZM83.3568 76.8693C73.4497 76.8693 63.765 79.84 55.5276 85.4059C47.2901 90.9718 40.8698 98.8827 37.0785 108.138C33.2872 117.394 32.2953 127.579 34.228 137.405C36.1608 147.23 40.9315 156.256 47.9369 163.34C54.9423 170.424 63.8677 175.248 73.5845 177.203C83.3012 179.157 93.3729 178.154 102.526 174.32C111.679 170.486 119.502 163.994 125.006 155.664C130.51 147.334 133.448 137.541 133.448 127.523C133.434 114.093 128.152 101.217 118.761 91.7212C109.37 82.225 96.6374 76.8837 83.3568 76.8693ZM131.59 240.916H97.2032C96.7105 240.916 96.2381 240.719 95.8897 240.366C95.5414 240.014 95.3456 239.536 95.3456 239.038C95.3456 238.54 95.5414 238.062 95.8897 237.71C96.2381 237.358 96.7105 237.16 97.2032 237.16H131.59C132.083 237.16 132.556 237.358 132.904 237.71C133.252 238.062 133.448 238.54 133.448 239.038C133.448 239.536 133.252 240.014 132.904 240.366C132.556 240.719 132.083 240.916 131.59 240.916ZM90.0871 202.45H38.8562C38.602 202.468 38.3469 202.433 38.1067 202.347C37.8665 202.261 37.6464 202.126 37.4601 201.95C37.2737 201.774 37.1252 201.561 37.0236 201.325C36.922 201.089 36.8696 200.834 36.8696 200.576C36.8696 200.319 36.922 200.064 37.0236 199.827C37.1252 199.591 37.2737 199.378 37.4601 199.203C37.6464 199.027 37.8665 198.892 38.1067 198.806C38.3469 198.72 38.602 198.684 38.8562 198.702H90.0871C90.3412 198.684 90.5964 198.72 90.8365 198.806C91.0767 198.892 91.2968 199.027 91.4831 199.203C91.6695 199.378 91.818 199.591 91.9196 199.827C92.0212 200.064 92.0736 200.319 92.0736 200.576C92.0736 200.834 92.0212 201.089 91.9196 201.325C91.818 201.561 91.6695 201.774 91.4831 201.95C91.2968 202.126 91.0767 202.261 90.8365 202.347C90.5964 202.433 90.3412 202.468 90.0871 202.45ZM128.602 202.45H96.916C96.6619 202.468 96.4067 202.433 96.1666 202.347C95.9264 202.261 95.7063 202.126 95.52 201.95C95.3336 201.774 95.1851 201.561 95.0835 201.325C94.9819 201.089 94.9295 200.834 94.9295 200.576C94.9295 200.319 94.9819 200.064 95.0835 199.827C95.1851 199.591 95.3336 199.378 95.52 199.203C95.7063 199.027 95.9264 198.892 96.1666 198.806C96.4067 198.72 96.6619 198.684 96.916 198.702H128.62C128.874 198.684 129.129 198.72 129.37 198.806C129.61 198.892 129.83 199.027 130.016 199.203C130.203 199.378 130.351 199.591 130.453 199.827C130.554 200.064 130.607 200.319 130.607 200.576C130.607 200.834 130.554 201.089 130.453 201.325C130.351 201.561 130.203 201.774 130.016 201.95C129.83 202.126 129.61 202.261 129.37 202.347C129.129 202.433 128.874 202.468 128.62 202.45H128.602ZM69.1783 240.916H34.7821C34.2894 240.916 33.817 240.719 33.4686 240.366C33.1202 240.014 32.9245 239.536 32.9245 239.038C32.9245 238.54 33.1202 238.062 33.4686 237.71C33.817 237.358 34.2894 237.16 34.7821 237.16H69.1783C69.671 237.16 70.1435 237.358 70.4918 237.71C70.8402 238.062 71.0359 238.54 71.0359 239.038C71.0359 239.536 70.8402 240.014 70.4918 240.366C70.1435 240.719 69.671 240.916 69.1783 240.916Z" fill="#FAFFFD"/>
<path d="M140.259 48.3667H137.136V56.7605H140.259V48.3667Z" fill="url(#paint3_linear_1074_1892)"/>
<path d="M131.797 48.3667H128.674V56.7605H131.797V48.3667Z" fill="url(#paint4_linear_1074_1892)"/>
<path d="M136.032 48.3667H132.91V56.7605H136.032V48.3667Z" fill="url(#paint5_linear_1074_1892)"/>
<path d="M144.522 48.3667H141.372V56.7605H144.522V48.3667Z" fill="url(#paint6_linear_1074_1892)"/>
<path d="M127.561 50.2451H124.672V54.8821H127.561V50.2451Z" fill="url(#paint7_linear_1074_1892)"/>
<mask id="mask0_1074_1892" style="mask-type:luminance" maskUnits="userSpaceOnUse" x="15" y="15" width="137" height="270">
<path d="M136.535 15.0635H29.9812C21.8037 15.0635 15.1746 21.767 15.1746 30.0363V269.964C15.1746 278.233 21.8037 284.936 29.9812 284.936H136.535C144.712 284.936 151.342 278.233 151.342 269.964V30.0363C151.342 21.767 144.712 15.0635 136.535 15.0635Z" fill="white"/>
</mask>
<g mask="url(#mask0_1074_1892)">
<path opacity="0.15" d="M18.2346 326.57L124.6 -4.80957L-86.0937 5.64415C-86.0937 5.64415 -110.17 358.711 -110.601 366.443C-111.032 374.174 23.4663 347.069 23.4663 347.069L18.2346 326.57Z" fill="white"/>
</g>
<path d="M245.377 160.944H133.906C129.737 160.944 125.74 162.618 122.792 165.597C119.844 168.577 118.186 172.618 118.184 176.833V269.038C118.184 273.255 119.84 277.299 122.789 280.28C125.737 283.262 129.736 284.937 133.906 284.937H269.104C271.169 284.938 273.213 284.527 275.121 283.729C277.029 282.93 278.763 281.759 280.223 280.283C281.683 278.806 282.841 277.053 283.631 275.124C284.421 273.194 284.827 271.126 284.825 269.038V206.425C284.818 202.788 283.577 199.264 281.308 196.443L257.545 166.815C256.076 164.983 254.222 163.506 252.117 162.49C250.012 161.474 247.709 160.946 245.377 160.944Z" fill="url(#paint8_linear_1074_1892)"/>
<path d="M242.802 160.944H131.33C127.162 160.944 123.164 162.618 120.216 165.597C117.268 168.577 115.611 172.618 115.608 176.833V269.038C115.608 273.255 117.265 277.299 120.213 280.28C123.162 283.262 127.16 284.937 131.33 284.937H266.519C270.689 284.937 274.688 283.262 277.636 280.28C280.585 277.299 282.241 273.255 282.241 269.038V206.425C282.23 202.789 280.988 199.267 278.723 196.443L254.988 166.888C253.522 165.042 251.668 163.551 249.559 162.522C247.451 161.494 245.142 160.955 242.802 160.944Z" fill="url(#paint9_linear_1074_1892)"/>
<path d="M131.33 277.876C129.014 277.872 126.795 276.939 125.158 275.282C123.522 273.625 122.601 271.38 122.599 269.038V176.833C122.603 174.493 123.525 172.25 125.161 170.595C126.798 168.94 129.016 168.008 131.33 168.003H242.802C244.101 168 245.384 168.292 246.556 168.858C247.729 169.423 248.761 170.248 249.577 171.27L273.312 200.826C274.577 202.401 275.268 204.368 275.268 206.397V269.011C275.266 271.353 274.346 273.598 272.709 275.255C271.072 276.911 268.853 277.844 266.537 277.849L131.33 277.876Z" fill="url(#paint10_linear_1074_1892)"/>
<path d="M222.763 189.555H154.15C149.075 189.555 144.961 193.715 144.961 198.847V247.033C144.961 252.164 149.075 256.325 154.15 256.325H222.763C227.838 256.325 231.952 252.164 231.952 247.033V198.847C231.952 193.715 227.838 189.555 222.763 189.555Z" fill="#FFB500"/>
<path d="M172.403 189.555H170.303V256.325H172.403V189.555Z" fill="#FCFCFC"/>
<path d="M171.353 205.59H144.961V207.713H171.353V205.59Z" fill="#FCFCFC"/>
<path d="M171.353 221.878H144.961V224.002H171.353V221.878Z" fill="#FCFCFC"/>
<path d="M171.353 238.176H144.961V240.3H171.353V238.176Z" fill="#FCFCFC"/>
<path d="M206.611 189.555H204.511V256.325H206.611V189.555Z" fill="#FCFCFC"/>
<path d="M231.952 205.59H205.561V207.713H231.952V205.59Z" fill="#FCFCFC"/>
<path d="M231.952 221.878H205.561V224.002H231.952V221.878Z" fill="#FCFCFC"/>
<path d="M231.952 238.176H205.561V240.3H231.952V238.176Z" fill="#FCFCFC"/>
<mask id="mask1_1074_1892" style="mask-type:luminance" maskUnits="userSpaceOnUse" x="144" y="189" width="88" height="68">
<path d="M222.763 189.555H154.15C149.075 189.555 144.961 193.715 144.961 198.847V247.033C144.961 252.164 149.075 256.325 154.15 256.325H222.763C227.838 256.325 231.952 252.164 231.952 247.033V198.847C231.952 193.715 227.838 189.555 222.763 189.555Z" fill="white"/>
</mask>
<g mask="url(#mask1_1074_1892)">
<path opacity="0.21" d="M203.622 162.623L168.042 273.466H93.3267L131.16 165.59L203.622 162.623Z" fill="white"/>
</g>
<defs>
<linearGradient id="paint0_linear_1074_1892" x1="-16.1706" y1="73.7205" x2="225.485" y2="252.513" gradientUnits="userSpaceOnUse">
<stop stop-color="#00C7FF"/>
<stop offset="1" stop-color="#0097FF"/>
</linearGradient>
<linearGradient id="paint1_linear_1074_1892" x1="52.236" y1="227.223" x2="51.924" y2="241.279" gradientUnits="userSpaceOnUse">
<stop stop-color="#00D821"/>
<stop offset="0.25" stop-color="#00D42A"/>
<stop offset="1" stop-color="#00CA40"/>
</linearGradient>
<linearGradient id="paint2_linear_1074_1892" x1="85.5194" y1="239.038" x2="143.552" y2="239.038" gradientUnits="userSpaceOnUse">
<stop stop-color="#FF5388"/>
<stop offset="0.25" stop-color="#FF507F"/>
<stop offset="1" stop-color="#F94966"/>
</linearGradient>
<linearGradient id="paint3_linear_1074_1892" x1="137.136" y1="52.5682" x2="140.259" y2="52.5682" gradientUnits="userSpaceOnUse">
<stop stop-color="#00D821"/>
<stop offset="0.25" stop-color="#00D42A"/>
<stop offset="1" stop-color="#00CA40"/>
</linearGradient>
<linearGradient id="paint4_linear_1074_1892" x1="128.674" y1="52.5682" x2="131.797" y2="52.5682" gradientUnits="userSpaceOnUse">
<stop stop-color="#00D821"/>
<stop offset="0.25" stop-color="#00D42A"/>
<stop offset="1" stop-color="#00CA40"/>
</linearGradient>
<linearGradient id="paint5_linear_1074_1892" x1="132.91" y1="52.5682" x2="136.023" y2="52.5682" gradientUnits="userSpaceOnUse">
<stop stop-color="#00D821"/>
<stop offset="0.25" stop-color="#00D42A"/>
<stop offset="1" stop-color="#00CA40"/>
</linearGradient>
<linearGradient id="paint6_linear_1074_1892" x1="141.372" y1="52.5682" x2="144.522" y2="52.5682" gradientUnits="userSpaceOnUse">
<stop stop-color="#00D821"/>
<stop offset="0.25" stop-color="#00D42A"/>
<stop offset="1" stop-color="#00CA40"/>
</linearGradient>
<linearGradient id="paint7_linear_1074_1892" x1="124.672" y1="52.5682" x2="127.561" y2="52.5682" gradientUnits="userSpaceOnUse">
<stop stop-color="#00D821"/>
<stop offset="0.25" stop-color="#00D42A"/>
<stop offset="1" stop-color="#00CA40"/>
</linearGradient>
<linearGradient id="paint8_linear_1074_1892" x1="87.4757" y1="123.684" x2="195.533" y2="226.345" gradientUnits="userSpaceOnUse">
<stop stop-color="#00E2D6"/>
<stop offset="1" stop-color="#00C4E3"/>
</linearGradient>
<linearGradient id="paint9_linear_1074_1892" x1="84.9092" y1="123.684" x2="192.958" y2="226.345" gradientUnits="userSpaceOnUse">
<stop stop-color="#00FFF1"/>
<stop offset="1" stop-color="#00DDFF"/>
</linearGradient>
<linearGradient id="paint10_linear_1074_1892" x1="96.3417" y1="153.421" x2="209.758" y2="238.4" gradientUnits="userSpaceOnUse">
<stop stop-color="#00FFD6"/>
<stop offset="1" stop-color="#00F3ED"/>
</linearGradient>
</defs>
</svg>
