<svg width="300" height="300" viewBox="0 0 300 300" fill="none" xmlns="http://www.w3.org/2000/svg">
<path d="M287.614 247.033C287.614 250.32 260.392 253.345 216.556 254.936C172.719 256.528 119.167 256.428 76.7472 254.678C34.3278 252.928 9.73891 249.808 12.5361 246.528L149.967 247.031L287.614 247.033Z" fill="#F9F1CB"/>
<path d="M209.278 101.839V105.944L210.067 121.517C211.093 121.837 212.151 122.049 213.222 122.147C214.75 122.253 215.275 122.981 218.694 124.831C218.847 124.914 218.989 124.997 219.128 125.081C218.264 124.425 217.358 123.908 216.542 123.047C215.017 121.447 220.039 121.103 223.35 121.411C226.661 121.719 230.083 121.967 230.083 121.967C230.083 121.967 231.906 119.214 233.356 120.3C234.806 121.386 238.231 127.442 238.231 127.442C241.875 128.297 246.153 132.278 247.119 133.356C248.086 134.433 253.294 140.536 253.294 140.536C253.294 140.536 252.847 142.397 248.942 139.236C245.036 136.075 241.128 131.2 241.128 131.2C241.128 131.2 237.781 133.7 237.333 136.147C236.886 138.594 235.733 138.567 235.733 138.567C235.733 138.567 232.858 134.297 232.356 132.822C231.6 133.217 230.411 133.239 227.55 132.575C224.239 131.814 222.997 130.478 221.975 128.789C221.993 128.908 222.003 129.027 222.006 129.147C222.006 129.147 217.375 126.203 214.431 125.517C211.486 124.831 210.117 123.467 209.536 124.886C208.956 126.306 209.061 135.2 209.061 135.2C210.184 134.841 211.379 134.768 212.537 134.988C213.695 135.208 214.779 135.715 215.692 136.461C218.903 139.039 224.636 140.25 224.636 140.25C224.636 140.25 219.058 141.722 216.639 139.461C214.219 137.2 210.011 136.039 209.536 137.356C209.061 138.672 209.747 159.022 209.747 159.022C209.747 159.022 214.956 163.744 221.481 164.756C228.006 165.767 234.947 164.178 238.367 160.811C241.786 157.444 238.842 153.392 238.683 147.553C238.525 141.714 240.789 145.331 240.789 145.331C240.789 145.331 253.364 158.386 257.203 158.011C261.042 157.636 262.203 155.011 262.308 150.172C262.414 145.333 256.258 118.761 254.783 114.394C253.308 110.028 243.103 103.661 242.367 103.978C240.751 104.731 239.218 105.648 237.789 106.714C235.789 108.186 234.108 109.239 228.372 108.658C222.636 108.078 221.589 101.944 221.589 101.944C221.589 101.944 221.85 101.683 217.958 102.053C214.067 102.422 209.278 101.839 209.278 101.839Z" fill="#F37A81"/>
<path d="M81.4556 57.5943C81.4556 57.5943 78.2472 59.3554 77.0639 62.3804C75.8806 65.4054 68.7778 72.6416 68.4528 74.4027C68.1278 76.1638 67.3222 77.2693 67.6194 80.8471C67.9167 84.4249 70.0139 94.4749 67.7528 102.472C65.4917 110.469 59.3333 121.622 57.0194 125.358C54.7056 129.094 51.4944 136.353 52.0722 140.036C52.65 143.719 61.3833 149.758 64.85 151.086C68.3167 152.414 69.9528 151.919 69.5722 149.611C69.1917 147.303 69.1 142.389 70.3083 137.036C71.5167 131.683 72.0972 124.83 72.0972 124.83L72.625 122.464C72.625 122.464 75.15 123.042 76.9389 117.992C78.7278 112.942 78.6222 113.414 78.6222 113.414L84.0806 108.317L83.9333 106.047L83.9694 103.108L84.3278 102.044C84.3278 102.044 84.5639 98.9027 81.6639 96.1888C78.7639 93.4749 78.65 86.7027 78.65 86.7027L77.4583 85.0666L74.8167 84.9527C74.8167 84.9527 79.5806 82.7582 81.1056 79.7832C82.6306 76.8082 83.375 72.8999 83.7083 69.7027C84.0417 66.5054 85.8278 67.3943 87.5417 68.2499C89.2556 69.1054 90.925 72.3804 92.0417 75.7638C92.8342 78.3181 93.4834 80.9148 93.9861 83.5416L94.6167 91.2054L92.4222 94.8916L95.175 98.9082C95.175 98.9082 96.8139 98.3527 97.8167 99.7999C98.8195 101.247 105.703 102.069 105.703 102.069L105.147 92.436C105.147 92.436 103.547 87.1582 99.7528 84.4749C95.9583 81.7916 94.2861 81.0527 94.2861 81.0527C94.2861 81.0527 98.0417 74.5416 95.1028 69.4804C92.1639 64.4193 89.4444 64.1666 88.1917 62.0388C86.9389 59.911 85.9528 57.5027 81.4528 57.5943H81.4556Z" fill="#9A702D"/>
<path d="M84.7445 111.417C84.7445 111.417 82.3251 112.994 82.2973 113.678C82.2695 114.361 85.7751 120.067 86.5945 122.456C87.414 124.844 87.7834 127.886 86.9667 131.978C86.1501 136.069 86.2612 142.992 86.2612 142.992C86.2612 142.992 97.8306 144.658 98.9834 145.036C100.136 145.414 103 145.869 103.67 145.706C104.191 145.573 104.701 145.399 105.195 145.186L105.492 127.439L105.717 102.067L101.883 101.956C101.883 101.956 105.047 109.508 104.861 114.567C104.675 119.625 102.592 121.6 98.4723 122.008C94.3528 122.417 90.6945 119.328 90.6945 119.328C90.6945 119.328 85.2112 115.519 84.7528 111.417H84.7445ZM91.6112 161.111C91.1639 160.664 88.4001 156.111 88.4001 156.111L104.722 156.767C104.722 156.767 104.722 162.372 104.589 162.372C104.456 162.372 92.9223 162.45 91.6223 161.108L91.6112 161.111Z" fill="#FED251"/>
<path d="M88.2167 159.95C88.2167 159.95 86.2723 170.867 79.2195 180.022C72.1667 189.178 66.4417 194.122 60.4389 197.175C54.4361 200.228 46.5473 204.445 44.1278 209.167C41.7084 213.889 40.55 219.847 41.35 221.27C42.15 222.692 45.6639 225.267 50.7167 224.006C55.7695 222.745 63.2361 220.322 63.2361 220.322C63.2361 220.322 57.9223 217.586 52.9778 218.378C48.0334 219.17 57.8695 215.747 62.2889 217.325C66.7084 218.903 74.7056 221.586 78.2306 220.009C81.7556 218.431 91.9445 208.803 93.3334 199.017C94.7222 189.231 96.7 193.281 96.2778 197.7C95.8556 202.12 90.3861 215.114 84.8084 219.272C79.2306 223.431 77.7584 223.797 77.7584 223.797C77.7584 223.797 85.8611 228.689 92.4389 230.111C99.0167 231.534 104.014 231.636 105.067 230.267C106.119 228.897 105.803 225.847 105.803 225.059C105.803 224.27 104.592 185.234 104.592 185.234L105.169 161.872C105.169 161.872 93.8056 162.767 88.225 159.953L88.2167 159.95Z" fill="#6CAD8A"/>
<path d="M212.878 73.5724C213.481 73.0594 213.969 72.4243 214.309 71.7089C214.649 70.9936 214.833 70.2143 214.85 69.4224C214.886 66.7447 215.444 64.0669 215.872 63.2669C216.3 62.4669 217.175 62.1141 217.733 62.3919C218.292 62.6697 221.508 65.9447 222.456 65.6835C223.403 65.4224 226.25 61.3697 227.494 60.7169C228.739 60.0641 234.717 65.3669 236.853 67.5641C238.989 69.7613 240.722 70.1502 241.186 72.6224C241.65 75.0947 241.597 77.7752 241.356 78.2974C241.114 78.8197 239.103 77.9058 238.1 78.1863C237.097 78.4669 235.494 79.0197 235.419 80.7891C235.344 82.5585 234.731 83.8224 236.053 83.6724C237.375 83.5224 240.144 82.8391 240.256 83.1335C240.367 83.428 240.386 85.2724 240.2 86.2419C240.014 87.2113 239.883 88.3419 239.064 88.603C238.244 88.8641 235.606 88.4363 235.586 87.953C235.567 87.4697 234.769 84.0835 234.619 84.0252C234.469 83.9669 233.244 85.1058 232.647 81.6474C232.05 78.1891 231.847 75.2585 231.847 75.2585C231.847 75.2585 234.283 73.0363 234.322 72.9141C234.361 72.7919 229.986 75.4808 227.289 73.1752C224.592 70.8697 223.956 68.228 222.939 67.8974C221.922 67.5669 221.431 68.9947 221.153 69.4224C220.875 69.8502 219.05 72.1752 218.158 72.5863C217.267 72.9974 216.769 70.7447 216.578 72.8085C216.386 74.8724 216.242 77.1419 216.242 77.1419C216.242 77.1419 214.439 76.6974 213.656 75.2835C212.872 73.8697 212.878 73.5724 212.878 73.5724Z" fill="#9A702D"/>
<path d="M177.553 88.5249C177.553 88.5249 182.389 99.761 178.447 108.317C174.506 116.872 159.558 125.208 144.295 119.628C129.031 114.047 135.589 91.7999 135.589 91.7999C135.589 91.7999 135.739 109.211 148.239 113.005C160.739 116.8 169.072 112.561 173.386 106.086C177.7 99.611 177.553 88.5249 177.553 88.5249ZM201.439 107.647C201.439 107.647 197.717 200.803 186.111 215.833C174.506 230.864 163.717 226.547 163.717 226.547C163.717 226.547 161.633 230.714 157.392 230.714C153.15 230.714 151.586 226.025 151.586 226.025C151.586 226.025 131.497 229.003 122.72 217.544C113.942 206.086 110.278 195.669 110.278 195.669L110.947 225.208C110.947 225.208 108.344 236.597 123.375 237.558C138.406 238.519 180.739 237.114 180.739 237.114L189.072 236.317C189.072 236.317 199.714 239.122 200.461 229.672C201.208 220.222 200.914 167.778 200.914 167.778L201.439 107.647Z" fill="#F9F1CB"/>
<path d="M184.622 188.675C184.622 188.675 162.822 200.208 148.233 201.325C133.644 202.442 130.972 197.305 130.972 197.305C130.972 197.305 130.897 207.128 137.742 207.425C144.586 207.722 164.686 207.947 170.928 207.947C177.169 207.947 182.458 207.647 183.65 206.605C184.842 205.564 185.436 203.853 185.361 200.803C185.286 197.753 184.617 188.675 184.617 188.675H184.622ZM183.55 126.517C183.55 126.517 183.233 132.35 167.925 132.883C152.617 133.417 131.464 132.725 131.464 132.725C131.464 132.725 129.886 135.619 138.619 136.144C147.353 136.669 175.975 135.778 178.553 135.461C181.131 135.144 184.025 134.628 184.339 132.778C184.653 130.928 185.181 126.725 183.55 126.517ZM183.55 146.403C183.55 146.403 183.233 152.236 167.925 152.769C152.617 153.303 131.464 152.611 131.464 152.611C131.464 152.611 129.886 155.505 138.619 156.03C147.353 156.555 175.975 155.664 178.553 155.347C181.131 155.03 184.025 154.514 184.339 152.664C184.653 150.814 185.181 146.614 183.55 146.403ZM183.55 164.975C183.55 164.975 183.233 170.808 167.925 171.342C152.617 171.875 131.464 171.183 131.464 171.183C131.464 171.183 129.886 174.078 138.619 174.603C147.353 175.128 175.975 174.236 178.553 173.919C181.131 173.603 184.025 173.086 184.339 171.236C184.653 169.386 185.181 165.186 183.55 164.975Z" fill="#F9F1CB"/>
<path d="M209.961 166.553C209.961 166.553 209.961 184.864 209.75 189.33C209.539 193.797 208.639 204.536 208.856 204.43C209.072 204.325 214.906 194.172 215.539 193.436C216.172 192.7 223.431 183.175 223.431 183.175C223.431 183.175 228.769 182.778 230.556 182.519C232.342 182.261 238.633 193.122 240.789 196.858C242.944 200.594 243.103 201.172 243.103 204.169C243.103 207.167 243.053 218.85 244.214 219.48C245.375 220.111 251.842 223.53 253.422 219.164C255.003 214.797 256.2 204.747 256.2 204.747C256.2 204.747 257.672 196.753 255.042 191.753C252.411 186.753 242.222 165.555 242.222 165.555C242.222 165.555 240.436 165.214 239.408 166.083C238.381 166.953 226.544 172.194 218.442 169.764C210.339 167.333 209.972 166.555 209.972 166.555L209.961 166.553Z" fill="#72CCD1"/>
<path d="M112.339 43.939C107.508 43.939 105.625 47.7723 105.331 50.4084C105.253 51.1251 105.053 55.0473 104.931 59.1223C104.728 65.2334 104.811 69.1223 104.419 70.1917L106.514 68.6806L106.717 57.7306C106.914 50.4362 106.956 49.9779 107.572 48.7612C108.533 46.864 109.411 46.0001 112.15 45.6723C113.881 45.464 116.353 45.4695 120.056 45.5612C128.419 45.7723 133.3 45.7917 168.283 45.7612C191.558 45.7417 195.747 45.8001 197.858 46.1667C200.667 46.6556 203.136 47.6723 204.186 48.7556C206.006 50.6529 206.547 55.0029 206.061 63.8029C205.869 67.2362 205.6 71.2306 205.525 72.6917L205.369 76.7973L207.769 77.1862C207.183 76.8612 207.164 75.539 207.275 74.1445C207.347 73.2695 207.553 68.7417 207.725 64.0806C208.064 55.2112 207.947 53.1084 206.953 50.0695C206.342 48.2001 204.436 46.339 202.306 45.5279C198.431 44.0501 198.817 44.064 152.739 44.0029L112.339 43.939ZM176.169 49.2417C175.548 49.2102 174.925 49.2353 174.308 49.3167C173.658 49.5667 172.156 51.1112 170.644 53.089C170.068 53.771 169.359 54.3294 168.561 54.7306C167.303 55.3112 167.042 55.3195 154.544 55.2445C143.539 55.1806 141.689 55.1084 140.933 54.7251C140.45 54.4834 139.056 53.3167 137.836 52.1362C136.492 50.839 135.208 49.8556 134.592 49.6529C133.842 49.4084 131.103 49.3556 124.342 49.4584L117.1 49.5667C114.575 49.4779 112.15 53.2001 111.981 54.5667C111.886 55.2416 111.744 55.909 111.556 56.564C111.394 57.0973 111.164 59.4223 111.108 61.7279L110.958 68.0751C112.178 69.1001 113.233 71.9806 113.233 71.889C112.7 70.7167 112.636 66.3584 112.764 62.4056C112.861 59.2556 113.378 56.6556 113.686 54.739C113.883 53.5056 115.486 51.2945 117.181 51.2945L124.958 51.2279L134.311 51.1473L136.625 53.4001C138.847 55.5529 140.342 56.5667 141.858 56.9279C143.219 57.2501 165.542 57.2056 167.136 56.8695C169.401 56.3846 171.397 55.0583 172.722 53.1584C174.389 50.789 174.361 50.7973 179.364 51.0306C181.731 51.1417 185.233 51.2612 187.142 51.3084C190.633 51.3751 195.636 51.7306 196.789 51.9945C198.4 52.3612 200.178 54.7306 200.772 57.3112C201.131 58.8723 200.619 76.2973 200.186 77.3806C200.773 77.0367 201.418 76.8041 202.089 76.6945L202.283 72.3167C202.389 70.7556 202.489 66.7306 202.506 63.3723C202.531 58.3306 202.453 56.9834 202.058 55.6862C201.075 52.439 198.431 50.1445 195.536 50.0279C194.661 49.9917 189.675 49.7501 184.453 49.5167C180.842 49.3473 177.942 49.2529 176.172 49.239L176.169 49.2417ZM162.131 49.7501C160.525 49.7501 158.325 49.814 155.317 49.9029C150.439 50.0501 145.289 50.1806 143.875 50.1806C141.828 50.1806 141.308 50.2695 141.308 50.589C141.308 51.2473 141.806 51.3806 145.033 51.5779C149.844 51.8723 152.661 51.8556 158.947 51.5779C165.733 51.2501 166.308 51.1667 166.308 50.4834C166.308 49.9279 165.661 49.739 162.142 49.7584L162.131 49.7501ZM155.742 67.7279C155.033 67.7279 154.336 67.7279 153.675 67.7806C151.481 67.914 150.897 68.0584 148.886 69.0695C145.693 70.6684 142.882 72.9378 140.646 75.7226C138.41 78.5074 136.802 81.7421 135.931 85.2056C134.189 92.1751 134.767 98.3195 137.728 104.328C138.925 106.756 139.517 107.583 141.411 109.478C142.8 110.867 144.319 112.075 145.336 112.606C152.692 116.433 161.525 116.345 167.972 112.517C173.878 109.008 177.711 102.128 178.158 94.2112C178.371 89.8807 177.639 85.5558 176.014 81.5362C173.792 76.114 168.681 70.8584 163.703 68.8473C162.075 68.1917 158.806 67.7529 155.742 67.7279ZM155.622 69.3945C156.456 69.3945 157.406 69.439 158.469 69.5362C161.525 69.814 161.931 69.9167 163.972 70.9779C171.025 74.6473 175.469 81.5695 176.275 90.1445C176.703 94.6927 176.068 98.8343 174.372 102.57C173.854 103.675 173.26 104.743 172.594 105.767L171.583 107.267V106C171.583 101.922 168.117 98.1001 162.889 96.4167C159.811 95.4223 154.944 95.1862 151.589 95.8612C145.65 97.064 141.867 100.439 141.358 104.97L141.167 106.7L140.281 105.311C137.517 101 136.358 95.814 136.894 90.1306C137.694 81.6056 142.15 74.6362 149.117 71.0167C151.104 69.9118 153.348 69.3513 155.622 69.3917V69.3945ZM157.289 77.339C156.822 77.3456 156.357 77.3949 155.9 77.4862C148.531 78.8056 147.386 87.2668 154.233 89.9001C155.944 90.5584 158.731 90.6223 160.139 90.0334C164.306 88.289 164.472 83.4584 160.494 79.1112C159.328 77.8417 158.531 77.3445 157.303 77.3362L157.289 77.339ZM157.239 79.0779C158.814 79.0779 161.561 82.914 161.567 85.1306C161.567 86.2834 160.919 87.5667 160.108 88.0029C157.942 89.1695 154.383 88.4945 152.536 86.5667C151.931 85.9362 151.728 85.4167 151.631 84.2556C151.514 82.8334 151.561 82.6973 152.581 81.5667C153.769 80.2612 155.983 79.0834 157.253 79.0751L157.239 79.0779ZM112.5 81.3223L110.981 81.5167L110.911 83.6473C110.431 86.9612 110.144 97.3084 109.919 119.628C109.783 133.3 109.656 145.267 109.656 145.267L111.408 145.336L111.497 124.836C111.581 106.617 111.892 91.5584 112.331 84.8362L112.503 81.3167L112.5 81.3223ZM104.894 81.4279L104.797 81.514C104.994 81.8056 104.914 83.4056 104.856 86.2945L104.781 90.3223L104.756 101.142V101.156L104.728 107.822C104.603 110.725 104.511 120.183 104.517 128.839L104.528 145.278L106.344 145.331L106.222 141.636C106.169 139.992 106.158 131.461 106.222 122.678C106.286 113.895 106.372 101.37 106.4 94.8473C106.422 88.9168 106.494 82.9334 106.561 82.0251L104.894 81.4279ZM207.297 89.3862L205.383 89.8945L205.581 106.906C205.794 125 205.878 163.472 205.775 207.108C205.708 235.275 205.689 236.161 205.153 237.592C203.628 241.67 200.911 243.803 195.986 244.781C194.706 245.036 191.633 246.325 191.819 246.311L199.478 245.733L201.006 244.861C204.161 243.058 205.172 241.875 206.586 238.378C207.142 237.064 207.194 235.656 207.256 234.247V204.939L207.169 201.797C207.122 200.07 207.228 192.467 207.403 184.906C207.578 177.345 207.703 169.922 207.681 168.417C207.656 166.989 207.681 163.064 207.681 163.064V158.956L207.769 156.611L207.592 146.456L207.414 136.3V134.286L207.381 133.414C207.328 132.025 207.328 131.653 207.381 127.072C207.381 127.072 207.45 120.261 207.314 115.661C207.217 112.42 207.064 107.217 206.969 104.1C206.853 100.211 207.119 89.8445 207.303 89.3779L207.297 89.3862ZM199.614 89.9779L199.4 90.0195C200.094 90.2973 200.181 91.3029 200.328 92.7973C200.644 96.0334 200.567 143.025 200.208 166.425C199.839 190.506 199.769 203.092 199.931 217.675C200.028 226.778 199.653 230.858 198.467 233.231C197.911 234.342 197.633 234.572 195.9 235.292C194.103 236.039 193.581 236.125 189.094 236.308C182.133 236.603 133.619 236.806 127.011 236.567C118.4 236.258 117.056 236.011 114.872 234.433C112.275 232.547 111.608 229.92 111.6 221.553C111.6 218.72 111.475 214.781 111.322 212.803C110.911 207.208 110.706 163.853 111.069 159.106L111.375 155.117L109.458 155.395V156.992C109.458 158.595 109.325 203.45 109.686 214.631C109.853 219.747 109.978 224.908 109.964 226.106C109.931 228.606 110.489 231.6 111.281 233.153C112.039 234.645 114.106 236.486 116.003 237.347C117.503 238.036 117.9 238.081 124.386 238.306C133.894 238.636 144 238.678 163.969 238.472C188.442 238.222 192.608 238.058 195.244 237.236C199.089 236.036 200.244 234.72 200.944 230.667C201.442 227.856 201.778 218.67 201.611 213.242C201.433 207.861 201.458 199.839 201.722 177.27C202.236 133.397 202.306 105.947 202.033 97.3584L201.817 90.5167C201.761 88.714 199.636 89.9806 199.636 89.9806L199.614 89.9779ZM156.3 97.3056C157.917 97.2672 159.532 97.4258 161.111 97.7779C167.111 99.2306 170.811 103.589 169.661 107.853C169.075 110.036 167.775 111.025 163.461 112.575C162.367 112.97 152.794 114.42 146.517 111.245C145.047 110.506 144.806 110.253 144.072 108.7C143.064 106.57 143.019 104.997 143.911 103.089C144.672 101.464 146.689 99.5084 148.375 98.764C150.439 97.8584 153.431 97.3417 156.3 97.3056ZM164.633 123.028C160.907 123.028 156.602 123.061 151.717 123.128C134.494 123.361 133.333 123.406 132.519 123.9C130.853 124.908 130.619 125.697 130.653 130.097C130.689 134.745 131.053 135.889 132.689 136.464C133.419 136.722 138.194 136.814 151.856 136.831C168.603 136.85 174.997 136.675 180.856 136.028C184.411 135.639 185.228 134.664 185.414 130.6C185.583 126.892 184.858 124.911 182.994 123.933C181.811 123.333 175.814 123.028 164.639 123.028H164.633ZM165.656 124.925C174.028 124.925 180.864 124.995 181.392 125.167C183.114 125.722 183.642 126.608 183.814 129.164C184.111 133.564 183.536 134.345 179.95 134.353C178.631 134.353 176.114 134.472 174.356 134.614C172.597 134.756 162.714 134.947 152.386 135.039C134.244 135.197 133.589 135.186 132.961 134.678C132.333 134.17 132.303 133.897 132.189 130.956C132.064 127.664 132.331 126.106 133.133 125.439C133.497 125.142 151.708 124.928 165.661 124.925H165.656ZM170 129.458C163.164 129.458 149.936 129.636 148.594 129.8C147.35 129.95 146.758 130.597 147.461 131.039C148.381 131.622 168.786 131.256 173.472 130.572C174.75 130.383 175.061 129.8 174.028 129.528C173.833 129.481 172.267 129.458 170 129.458ZM141.064 130.183C139.44 130.183 138.756 130.519 139.011 131.189C139.189 131.658 141.914 131.72 142.744 131.275C143.717 130.747 142.847 130.183 141.05 130.183H141.064ZM164.639 142.75C160.913 142.75 156.607 142.783 151.722 142.85C134.5 143.083 133.339 143.128 132.525 143.622C130.858 144.631 130.625 145.42 130.658 149.82C130.694 154.467 131.058 155.611 132.694 156.186C133.425 156.445 138.2 156.536 151.861 156.553C168.608 156.572 175.003 156.397 180.861 155.753C184.417 155.361 185.233 154.386 185.419 150.322C185.589 146.614 184.864 144.633 183 143.67C181.811 143.056 175.814 142.753 164.639 142.75ZM165.661 144.647C174.033 144.647 180.869 144.717 181.397 144.889C183.119 145.445 183.647 146.331 183.819 148.886C184.117 153.286 183.542 154.067 179.956 154.075C178.636 154.075 176.119 154.195 174.361 154.336C172.603 154.478 162.719 154.67 152.392 154.761C134.25 154.922 133.594 154.908 132.967 154.4C132.339 153.892 132.308 153.617 132.194 150.675C132.069 147.386 132.336 145.828 133.139 145.161C133.497 144.864 151.708 144.65 165.661 144.647ZM170 149.181C163.164 149.181 149.936 149.358 148.594 149.522C147.35 149.672 146.758 150.32 147.461 150.764C148.381 151.347 168.786 150.978 173.472 150.292C174.75 150.106 175.061 149.522 174.028 149.25C173.833 149.203 172.267 149.183 170 149.181ZM141.064 149.906C139.44 149.906 138.756 150.241 139.011 150.911C139.189 151.381 141.914 151.442 142.744 150.997C143.717 150.47 142.847 149.906 141.05 149.906H141.064ZM104.031 153.611C103.964 153.975 104.083 157.411 104.083 157.411V182.439C104.083 193.997 104.222 204.717 104.419 208.55C104.603 212.125 104.758 218.92 104.767 223.647V232.242C104.767 232.242 104.925 234.992 105.011 236.031C105.269 239.108 105.903 241.972 106.722 243.764C107.097 244.597 108.036 246.15 108.036 246.278C108.036 246.278 107.881 246.295 107.942 246.3L111.194 246.531L112.364 246.295C111.911 246.278 111.597 246.264 111.531 246.247C109.697 245.692 107.972 242.947 107.242 238.906C106.908 237.056 106.803 234.708 106.814 229.495C106.814 225.675 106.708 220.864 106.561 218.8C105.728 207.386 105.65 202.639 105.7 172.333V154.797L104.031 153.611ZM164.361 161.361C160.635 161.361 156.33 161.395 151.444 161.461C134.222 161.695 133.061 161.739 132.247 162.233C130.581 163.242 130.347 164.031 130.381 168.431C130.417 173.078 130.781 174.222 132.417 174.797C133.147 175.056 137.922 175.147 151.583 175.164C168.331 175.183 174.725 175.008 180.581 174.361C184.139 173.972 184.956 172.997 185.142 168.933C185.311 165.225 184.586 163.245 182.722 162.281C181.533 161.667 175.536 161.361 164.361 161.361ZM165.383 163.258C173.756 163.258 180.592 163.328 181.119 163.5C182.842 164.056 183.369 164.942 183.542 167.497C183.839 171.897 183.264 172.678 179.678 172.686C178.358 172.686 175.842 172.806 174.083 172.947C172.325 173.089 162.442 173.281 152.114 173.372C133.972 173.531 133.317 173.52 132.689 173.011C132.061 172.503 132.031 172.228 131.917 169.289C131.792 165.997 132.058 164.439 132.861 163.772C133.219 163.475 151.431 163.261 165.383 163.258ZM139.536 165.758C139.167 165.758 139.033 165.931 138.917 166.508C138.792 167.139 138.564 167.372 137.947 167.495C137.378 167.608 137.142 167.82 137.142 168.217C137.142 168.545 137.328 168.772 137.583 168.772C137.925 168.772 137.981 168.953 137.839 169.606C137.736 170.061 137.733 170.561 137.839 170.717C138.031 171.025 138.919 170.67 139.228 170.161C139.333 169.989 139.681 170.097 140.114 170.439C141.022 171.153 141.861 171.172 141.861 170.478C141.837 170.143 141.686 169.83 141.439 169.603C141.067 169.295 141.092 169.214 141.647 168.936C142.547 168.489 142.428 167.85 141.389 167.547C140.728 167.353 140.478 167.103 140.417 166.575C140.356 166.047 140.139 165.839 139.706 165.778C139.649 165.769 139.591 165.763 139.533 165.761L139.536 165.758ZM148.147 165.758C147.778 165.758 147.644 165.931 147.528 166.508C147.403 167.139 147.175 167.372 146.561 167.495C145.947 167.617 145.756 167.82 145.756 168.217C145.756 168.545 145.939 168.772 146.194 168.772C146.536 168.772 146.592 168.953 146.45 169.606C146.349 169.969 146.349 170.353 146.45 170.717C146.642 171.025 147.533 170.67 147.839 170.161C147.944 169.989 148.292 170.097 148.725 170.439C149.633 171.153 150.472 171.172 150.472 170.478C150.449 170.143 150.298 169.829 150.05 169.603C149.678 169.295 149.703 169.214 150.258 168.936C151.158 168.489 151.039 167.85 150 167.547C149.339 167.353 149.089 167.103 149.028 166.575C148.967 166.047 148.75 165.839 148.317 165.778C148.26 165.769 148.202 165.763 148.144 165.761L148.147 165.758ZM157.869 165.758C157.5 165.758 157.367 165.931 157.25 166.508C157.125 167.139 156.897 167.372 156.281 167.495C155.711 167.608 155.475 167.82 155.475 168.217C155.475 168.545 155.661 168.772 155.914 168.772C156.258 168.772 156.314 168.953 156.172 169.606C156.069 170.061 156.067 170.561 156.172 170.717C156.364 171.025 157.253 170.67 157.561 170.161C157.667 169.989 158.014 170.097 158.447 170.439C159.356 171.153 160.194 171.172 160.194 170.478C160.17 170.143 160.019 169.83 159.772 169.603C159.4 169.295 159.425 169.214 159.981 168.936C160.878 168.489 160.761 167.85 159.722 167.547C159.061 167.353 158.811 167.103 158.75 166.575C158.689 166.047 158.472 165.839 158.039 165.778C157.982 165.769 157.924 165.763 157.867 165.761L157.869 165.758ZM167.869 165.758C167.5 165.758 167.367 165.931 167.25 166.508C167.125 167.139 166.897 167.372 166.281 167.495C165.711 167.608 165.475 167.82 165.475 168.217C165.475 168.545 165.661 168.772 165.914 168.772C166.258 168.772 166.314 168.953 166.172 169.606C166.069 170.061 166.067 170.561 166.172 170.717C166.364 171.025 167.253 170.67 167.561 170.161C167.667 169.989 168.014 170.097 168.447 170.439C169.356 171.153 170.194 171.172 170.194 170.478C170.17 170.143 170.019 169.83 169.772 169.603C169.4 169.295 169.425 169.214 169.981 168.936C170.878 168.489 170.761 167.85 169.722 167.547C169.061 167.353 168.811 167.103 168.75 166.575C168.689 166.047 168.472 165.839 168.039 165.778C167.982 165.769 167.924 165.763 167.867 165.761L167.869 165.758ZM177.036 165.758C176.667 165.758 176.533 165.931 176.417 166.508C176.292 167.139 176.064 167.372 175.447 167.495C174.878 167.608 174.642 167.82 174.642 168.217C174.642 168.545 174.828 168.772 175.083 168.772C175.425 168.772 175.481 168.953 175.339 169.606C175.236 170.061 175.233 170.561 175.339 170.717C175.531 171.025 176.419 170.67 176.728 170.161C176.833 169.989 177.181 170.097 177.614 170.439C178.522 171.153 179.361 171.172 179.361 170.478C179.337 170.143 179.186 169.83 178.939 169.603C178.567 169.295 178.592 169.214 179.147 168.936C180.047 168.489 179.928 167.85 178.889 167.547C178.228 167.353 177.978 167.103 177.917 166.575C177.856 166.047 177.639 165.839 177.206 165.778C177.149 165.769 177.091 165.763 177.033 165.761L177.036 165.758ZM135.961 184.6C133.694 184.6 131.794 185.414 131.339 187.128C131.011 188.35 130.678 188.622 130.547 194.589C130.381 202.122 130.614 203.478 132.492 205.978C134.419 208.528 134.028 208.478 149.608 208.331C156.881 208.264 164.642 208.331 166.856 208.478C172.208 208.836 181.119 208.689 182.5 208.22C183.658 207.825 184.981 206.628 185.694 205.325C186.086 204.606 186.144 203.478 186.117 197.203L186.083 189.917C186.083 188.2 185.422 185.325 182.086 185.325L166.503 185.278C157.928 185.261 147.206 185.083 142.672 184.883L135.961 184.6ZM136.328 186.089C136.883 186.103 137.628 186.167 138.744 186.272C147.708 187.128 160.533 187.336 172.464 186.828C176.664 186.647 179.328 186.936 180.797 186.87C185.022 186.683 184.367 191.064 184.367 191.064L184.569 196.303C184.806 202.478 184.786 203.211 184.356 204.22C183.683 205.783 182.931 206.345 180.944 206.761C178.85 207.2 175.878 207.178 167.825 206.672C163.347 206.395 158.817 206.333 150.881 206.467C144.922 206.567 139.111 206.658 137.964 206.672C135.411 206.7 134.375 206.22 133.397 204.547C132.344 202.753 132.033 199.85 132.25 193.808C132.456 188.014 132.65 187.364 134.439 186.483C135.014 186.173 135.668 186.039 136.319 186.097L136.328 186.089ZM144.106 193.531C139.55 193.531 138.828 193.65 138.731 193.9C138.417 194.714 139.647 194.981 144.639 195.178C151.072 195.433 172.336 195.503 174.719 195.278C176.247 195.133 176.594 195 176.594 194.62C176.566 194.457 176.493 194.306 176.382 194.184C176.271 194.062 176.128 193.974 175.969 193.931C175.625 193.817 167.144 193.653 157.122 193.592C150.933 193.547 146.825 193.522 144.094 193.531H144.106ZM166.05 201.308H165.447C162.781 201.353 161.772 201.586 161.658 202.181C161.578 202.595 161.781 202.661 163.047 202.642C165.783 202.597 167.289 202.292 167.392 201.764C167.461 201.386 167.297 201.3 166.053 201.303L166.05 201.308ZM156.231 217.12C153.858 217.081 151.306 218.606 150.467 221.153C149.597 223.783 150.886 227.181 153.222 228.414C156.453 230.12 160.183 228.136 161 224.286C161.238 223.282 161.227 222.235 160.97 221.235C160.714 220.235 160.217 219.313 159.525 218.547C159.1 218.095 158.586 217.736 158.015 217.492C157.444 217.248 156.829 217.125 156.208 217.131L156.231 217.12ZM30.7555 217.397C29.225 217.397 29.1333 218.414 29.9222 226.286C30.2166 229.186 30.2416 235.395 29.9638 236.692L29.7888 237.525L29.2611 236.356C27.9972 233.553 25.6027 232.07 24.8833 233.645C24.5861 234.297 24.7444 235.245 25.6472 238.22C25.825 238.803 25.7805 238.864 25.3194 238.683C24.6842 238.502 24.0331 238.381 23.375 238.322C22.1555 238.192 21.8611 238.258 21.3305 238.792C21.1103 238.962 20.9476 239.196 20.8642 239.462C20.7807 239.727 20.7806 240.012 20.8638 240.278C21.0555 241.225 22.8361 244.722 23.7416 245.536C23.9916 245.764 24.1055 245.892 23.6055 245.978C24.9472 246.106 26.2555 246.195 26.2555 246.195L24.5277 243.195C22.7277 240.078 22.2694 239.75 23.5833 240.014C24.0722 240.114 25.1333 240.27 25.9444 240.364C27.3611 240.533 27.4194 240.514 27.4111 239.875C27.303 238.947 27.1228 238.028 26.8722 237.128L26.3388 235.045L26.9638 235.817C27.5467 236.635 28.0659 237.497 28.5166 238.395C29.025 239.386 29.5388 240.261 29.6583 240.339C30.0583 240.586 30.9861 239.064 31.2833 237.667C32.05 234.092 31.8972 227.856 30.8527 220.189L30.6805 218.939L31.5416 219.747C32.8111 220.942 34.5777 224.553 35.3916 227.625C36.0277 230.022 36.1222 231.011 36.225 236.383C36.3277 241.756 36.4055 242.431 36.8027 242.353C37.0666 242.303 37.4 241.736 37.6138 240.964C37.9972 239.606 39.9638 237.1 40.35 237.478C40.9055 238.033 39.1777 242.422 37.4 244.842L36.4194 246.181L39.0666 246.122L39.0916 246.095C39.0491 246.096 39.0067 246.089 38.9666 246.075C39.2618 245.486 39.5863 244.912 39.9388 244.356C42.0388 240.87 42.8055 236.795 41.5111 235.889C40.6777 235.314 40.4333 235.333 39.2888 236.111L38.3333 236.772L38.0166 233.27C37.8341 231.299 37.5373 229.341 37.1277 227.406C35.95 222.506 32.6833 217.406 30.7388 217.406L30.7555 217.397ZM277.114 217.689C276.978 217.677 276.842 217.701 276.719 217.76C276.597 217.818 276.492 217.909 276.417 218.022C276.294 218.214 276.139 222.931 276.053 228.508L275.914 238.647L274.889 236.981C273.397 234.545 272.006 233.189 271.094 233.295C270.011 233.42 270.028 234.439 271.175 238.964C271.714 241.092 272.192 243.458 272.231 244.22L272.303 246.392L273.828 246.528V244.275C273.828 243.472 273.469 241.336 273.028 239.531C272.586 237.725 272.325 236.353 272.444 236.475C273 237.064 274.975 240.364 275.117 240.92C275.317 241.711 276.2 241.753 276.603 241.006C277.128 240.028 277.436 235.192 277.436 227.536C277.436 219.295 277.453 219.267 278.928 222.992C280.614 227.242 281.428 232.942 281.028 237.942C280.869 239.978 280.653 241.025 280.244 241.717C279.803 242.467 279.739 242.828 279.967 243.383C280.336 244.356 280.778 244.128 281.761 242.458C282.458 241.278 283.675 239.403 285.719 236.372C285.997 235.936 286.036 236.028 285.889 236.97C285.575 238.958 284.158 242.731 283.153 244.245L282.172 246.511L284.478 246.492L285.536 243.595C286.925 239.778 288.314 234.4 287.3 233.381C287.115 233.172 286.874 233.021 286.606 232.945C286.15 232.945 285.328 233.947 284.125 235.97C283.48 237.056 282.933 237.945 282.914 237.945C282.894 237.945 282.858 236.47 282.836 234.672C282.802 231.264 282.291 227.877 281.317 224.611C280.6 222.322 279.067 219.106 278.303 218.292C278.005 217.946 277.585 217.727 277.131 217.681L277.114 217.689ZM156.281 218.961C157.142 218.975 157.867 219.408 158.444 220.258C159.065 221.161 159.343 222.254 159.23 223.343C159.117 224.432 158.62 225.445 157.828 226.2C157.097 226.928 156.689 227.117 155.839 227.108C154.364 227.092 153.339 226.467 152.686 225.164C151.386 222.614 152.611 219.833 155.369 219.072C155.662 218.998 155.962 218.964 156.264 218.97L156.281 218.961Z" fill="#EFCA87"/>
<path d="M231.533 93.9224C231.533 93.9224 231.875 97.1057 229.35 98.1307C226.825 99.1557 225.508 98.6113 225.508 98.6113L226.086 95.9807L231.533 93.9224Z" fill="#F2D0B9"/>
<path d="M85.9473 89.214C85.9473 89.6288 85.8243 90.0343 85.5938 90.3791C85.3634 90.724 85.0358 90.9928 84.6526 91.1516C84.2694 91.3103 83.8477 91.3518 83.4409 91.2709C83.0341 91.19 82.6604 90.9902 82.3671 90.6969C82.0738 90.4036 81.874 90.03 81.7931 89.6231C81.7122 89.2163 81.7537 88.7946 81.9124 88.4114C82.0712 88.0282 82.34 87.7007 82.6849 87.4702C83.0298 87.2398 83.4352 87.1168 83.85 87.1168C84.1254 87.1168 84.3982 87.171 84.6526 87.2764C84.9071 87.3818 85.1382 87.5363 85.333 87.731C85.5277 87.9258 85.6822 88.157 85.7876 88.4114C85.893 88.6659 85.9473 88.9386 85.9473 89.214ZM229.842 84.3195C229.842 84.7344 229.72 85.1402 229.49 85.4855C229.26 85.8307 228.932 86.0999 228.549 86.2591C228.166 86.4183 227.744 86.4602 227.337 86.3796C226.93 86.299 226.556 86.0995 226.262 85.8063C225.969 85.5131 225.769 85.1394 225.688 84.7325C225.607 84.3256 225.648 83.9038 225.807 83.5204C225.965 83.137 226.234 82.8093 226.579 82.5787C226.924 82.3482 227.33 82.2251 227.744 82.2251C228.3 82.2251 228.833 82.4457 229.226 82.8384C229.62 83.2311 229.841 83.7638 229.842 84.3195Z" fill="#E8A1A4"/>
<path d="M86.8556 96.414C86.8556 96.414 88.9 99.8723 91.6917 99.7973C94.4834 99.7223 95.1889 98.9057 95.1889 98.9057L92.4361 94.8862C92.4361 94.8862 89.7945 97.789 86.8556 96.4112V96.414Z" fill="#F2D0B9"/>
<path d="M80.6223 56.3057C79.6278 56.3057 79.1472 56.4696 78.1223 56.9696C76.3723 57.8251 75.0889 59.2918 74.3195 61.3224C73.9278 62.3474 72.8723 63.7168 70.35 66.4668C67.8278 69.2168 66.6361 70.7613 65.8417 72.3279C64.7861 74.4057 64.7695 74.489 64.7778 77.5196C64.7778 79.214 65.025 83.1974 65.3167 86.3724C65.7806 91.3724 65.8084 92.6168 65.525 95.6779C64.7917 103.625 62.6473 109.381 56.5334 119.822C51.9334 127.678 50.6028 131.514 50.7861 136.403C50.8834 138.961 50.9834 139.406 51.9334 141.403C53.7834 145.292 58.1889 149.008 63.7973 151.389C64.7917 151.811 65.8167 152.272 66.0778 152.414C66.5667 152.621 67.0802 152.764 67.6056 152.839C68.4223 152.97 68.7834 152.886 69.2139 152.47C69.7695 151.939 69.7695 151.945 70.9667 152.983C72.8361 154.62 75.3889 155.295 82.9639 156.161C84.4723 156.333 84.5 156.353 85.1473 157.72C85.7389 158.972 85.7695 159.225 85.4723 160.406C84.9667 162.417 82.8223 167.495 81.05 170.875C74.8056 182.795 67.9945 189.45 54.9111 196.431C49.6334 199.253 48.2 200.186 46.0584 202.225C41.2139 206.845 38.8945 211.542 39.1334 216.258C39.3223 220.045 40.8 222.678 43.5778 224.217C44.925 224.964 45.2945 225.036 47.6973 225.036C50.3362 225.036 52.1084 224.7 56.5862 223.37C59.2139 222.578 61.8639 222.053 62.6056 222.175C63.1028 222.261 62.8834 222.672 60.8667 225.57C59.6 227.383 58.3084 229.139 57.9945 229.472C56.8195 230.725 57.0084 233.058 58.3945 234.358L59.075 235L58.1973 236.553C56.4167 239.7 53.8584 243.417 52.6834 244.564L51.475 245.745H45.2778C42.2917 245.745 39.7806 245.708 39.2056 245.661L39.1778 245.689L36.5334 245.745H26.3611C26.3611 245.745 25.0528 245.656 23.7111 245.528C23.0917 245.633 21.5223 245.67 18.0723 245.745L11.725 245.883C11.725 245.883 10.2195 246.025 10.2195 246.578C10.2195 247.131 11.725 247.272 11.725 247.272L23.9473 247.411C42.8111 247.625 273.808 247.67 282.281 247.458L289.058 247.292C289.058 247.292 289.781 247.061 289.781 246.578C289.781 246.095 289.753 245.883 287.111 245.806L284.439 245.728L282.136 245.745H273.803L272.278 245.606L268.197 245.683L264.117 245.758L263.544 244.467C262.411 241.903 261.375 241.103 255.628 238.356C249.564 235.447 249.833 235.781 250.611 232.183C252.278 224.458 252.494 223.672 253.158 222.803C253.536 222.306 254.019 221.111 254.228 220.147C254.436 219.183 254.994 216.667 255.467 214.553C256.681 209.12 257.133 205.942 257.314 201.311C257.569 195.008 257.761 195.553 249.397 178.864C242.4 164.895 242.175 164.42 242.217 162.897C242.247 161.536 242.142 161.2 241.383 160.258C240.781 159.506 240.594 159.064 240.767 158.789C241.139 158.203 241.064 155.014 240.636 153.117C238.692 144.481 238.669 144.081 240.45 146.47C242.5 149.167 248.472 154.975 250.833 156.511C253.447 158.214 255.225 158.839 257.419 158.831C259.219 158.831 259.703 158.633 261.586 157.206C263.356 155.872 264.3 154.506 264.969 152.303C265.931 149.139 265.633 146.411 262.853 132.758C260.25 119.981 259.572 117.136 258.236 113.367C257.403 110.989 257.236 110.761 254.797 108.35C252.942 106.511 250.908 104.925 247.317 102.539C243.392 99.9251 242.317 99.0668 242.003 98.3307C241.153 96.2946 239.442 95.4612 238.078 96.4196C237.522 96.8112 237.478 96.7501 236.764 94.4057C236.05 92.0612 235.439 89.2918 235.594 89.1279C235.633 89.0862 236.225 89.3001 236.908 89.6029C238.486 90.3029 239.553 90.0557 240.406 88.7918C240.936 88.0057 241.031 87.5001 241.031 85.3974C241.031 83.2946 241.119 82.8085 241.65 82.0918C242.233 81.3001 242.328 80.5613 242.128 78.3668C242.159 77.4146 242.252 76.4654 242.406 75.5251C242.664 73.7501 242.425 72.8279 242.406 71.2696C242.386 69.7863 241.703 68.9363 240.958 68.139L239.114 66.2196C235.731 62.6974 231.469 59.0529 229.778 58.2335C228.983 57.8811 228.125 57.6922 227.256 57.6779C225.942 57.6779 225.825 57.7446 224.217 59.4279C223.297 60.389 222.306 61.7029 222.017 62.3446C221.728 62.9863 221.403 63.5113 221.297 63.5113C221.013 63.3724 220.766 63.1687 220.575 62.9168C219.811 62.0557 216.878 60.7335 215.733 60.7335C213.494 60.7335 212.592 62.264 212.508 66.1974C212.478 67.7918 212.3 69.3001 212.108 69.664C211.039 71.6613 211.275 73.4168 212.9 75.7529C213.858 77.1251 213.922 77.3251 213.6 77.9557C212.767 79.6029 213.767 82.5863 215.322 83.0835C215.781 83.2307 216.186 83.3613 216.222 83.3807C216.258 83.4001 216.461 84.339 216.681 85.4751C217.189 88.1418 217.947 90.2724 218.958 91.8863C219.772 93.1863 222.517 95.4724 223.889 95.9946C224.444 96.2001 224.628 96.4696 224.628 97.0085C224.628 97.5946 224.531 97.7001 224.142 97.539C222.519 96.8751 221.764 96.8224 220.078 97.2446C218.111 97.7362 214.939 97.8001 210.894 97.3974C208.064 97.1196 207.944 97.3307 206.981 96.9751L206.942 98.6724C207.297 98.6724 209.442 99.0613 211.433 99.2807C214.903 99.664 218.058 99.5279 220.392 98.8946C220.947 98.7418 221.022 98.8251 221.022 99.6613C221.022 101.011 221.756 103.906 222.411 105.2C223.322 106.983 225.033 108.456 226.803 108.97C230.35 110 233.794 109.917 236.247 108.739C238.106 107.847 240.228 105.589 241.297 103.372C241.811 102.303 242.258 101.389 242.286 101.345C242.417 101.142 250.808 106.936 252.983 108.728C255.336 110.672 255.383 110.731 256.361 113.286C257.642 116.62 258.808 121.481 261.461 134.483C263.386 143.928 263.614 145.378 263.631 148.233C263.631 151.011 263.561 151.617 262.994 152.875C262.306 154.406 260.144 156.661 258.919 157.128C257.642 157.614 255.725 157.272 253.547 156.167C249.514 154.122 242.669 147.097 237.939 140.147L236.878 138.586L237.711 136.825C238.647 134.845 241.361 131.372 242.311 130.939C242.85 130.692 243.144 130.842 244.533 132.05C245.417 132.822 247.756 135.089 249.731 137.089C251.706 139.089 253.419 140.725 253.55 140.725C253.947 140.725 253.803 139.792 253.272 138.92C252.994 138.461 251.564 136.761 250.1 135.139C248.067 132.889 247.364 131.903 247.122 130.972C246.95 130.3 246.386 128.442 245.867 126.836C245.347 125.231 244.889 123.617 244.842 123.247C244.597 121.303 243.175 123.378 242.794 126.217C242.686 127.022 242.492 127.75 242.356 127.831C242.219 127.911 241.544 127.6 240.85 127.131C240.156 126.661 239.225 126.281 238.778 126.281C238.54 126.296 238.303 126.247 238.091 126.136C237.88 126.026 237.704 125.86 237.581 125.656C235.317 121.961 233.394 119.267 232.836 119.017C231.672 118.486 230.789 118.917 230.447 120.178C230.281 120.792 229.75 121.508 229.378 121.347C227.75 120.642 223.892 120.486 221.283 120.389C217.725 120.253 216.653 120.578 215.589 121.545C215.053 122.031 214.961 122.028 212.95 121.545C210.625 120.972 207.419 121.353 207.358 121.336V122.828C207.358 122.828 210.164 122.586 211.6 122.936C212.585 123.194 213.587 123.386 214.597 123.511C215.106 123.576 215.59 123.767 216.006 124.067C216.594 124.451 217.227 124.764 217.889 125C218.969 125.375 219.731 126.328 222.161 130.356C223.564 132.678 225.578 133.481 230.056 133.511H231.722L232.972 135.656C233.658 136.833 234.258 137.878 234.3 137.967C234.342 138.056 233.775 138.078 233.036 138.008C232.078 137.917 231.042 138.083 229.403 138.603C227.339 139.256 224.367 139.542 223.389 139.183C223.236 139.125 222.572 138.942 221.914 138.772C221.256 138.603 219.508 137.636 218.025 136.625C213.644 133.633 211.164 132.925 208.458 133.892L207.417 134.261V136.275L208.122 135.814C209.058 135.2 211.25 135.014 212.581 135.433C213.172 135.62 215.031 136.689 216.711 137.806C220.547 140.356 221.989 140.861 225.461 140.842C227.478 140.842 228.492 140.686 229.756 140.22C232.031 139.386 233.339 139.428 235.086 140.431C237.017 141.542 237.778 142.536 237.586 143.711C237.408 144.795 237.931 148.289 238.897 152.522C239.886 156.858 239.9 157.656 238.997 158.953C237.542 161.042 234.486 162.92 231.161 163.77C227.019 164.831 220.381 164.353 215.964 162.678C213.931 161.906 211.781 160.436 209.55 158.297L207.778 156.608L207.686 158.953L208.867 160.106C210.589 161.792 214.403 163.958 217.269 164.881C225.175 167.422 232.883 166.414 238.167 162.142L239.9 160.753L240.339 161.422C240.627 161.951 240.749 162.554 240.689 163.153C240.608 164.117 240.433 164.328 238.842 165.397C236.919 166.683 233.319 167.922 229.397 168.65C224.797 169.5 219.017 169.383 215.936 168.372C213.847 167.692 210.494 165.731 209.028 164.331L207.694 163.056V165.761C207.883 165.947 208.25 165.972 208.806 166.445C209.619 167.131 212.858 168.858 214.514 169.5C215.467 169.861 217.781 170.333 219.853 170.611C222.925 171.003 223.983 171.025 226.467 170.758C231.786 170.186 237.578 168.425 239.858 166.678C240.378 166.281 240.903 166.067 241.028 166.2C241.153 166.333 243.375 170.628 245.958 175.747C248.542 180.867 251.667 186.928 252.903 189.22C255.622 194.272 255.931 195.647 255.681 201.533C255.506 205.397 255.061 208.503 253.556 216.442C252.744 220.703 252.672 220.922 251.744 221.789C250.878 222.595 250.608 222.689 249.175 222.675C247.472 222.658 245.25 222.05 243.375 221.083C241.986 220.364 241.875 219.995 241.875 215.225C241.875 213.297 241.747 209.295 241.597 206.336L241.444 203.447C241.444 201.27 240.744 200.114 240.075 198.883L238.611 196.456C234.9 190.278 232.289 186.389 230.833 184.872L229.606 183.611L231.272 183C233.058 182.35 233.494 181.986 233.011 181.514C232.803 181.308 232.217 181.358 231.033 181.692C228.722 182.342 223.469 182.745 221.903 182.392C220.336 182.039 220.106 182.27 221.069 183.1L221.814 183.742L221.111 184.383C218.939 186.414 211.389 197.867 210.781 200.025C210.683 200.389 209.85 201.639 208.933 202.803L207.267 204.928V206.978L208.561 205.678C210.092 204.139 211.95 201.475 212.75 199.664C213.803 197.281 219.386 188.936 222.172 185.586L223.375 184.136L225.694 183.956C227.967 183.778 228.025 183.789 228.611 184.511C230.278 186.586 232.925 190.47 235.239 194.275C236.658 196.611 238.389 199.22 238.889 200.183C239.483 201.336 240.019 202.542 240 204.178L240.069 208.575C240.197 216.483 240.386 219.925 240.747 220.875C240.945 221.307 241.295 221.65 241.731 221.839C242.436 222.117 242.447 222.153 242.269 223.986C241.858 228.203 240.411 237.658 239.883 239.542C239.531 240.88 239.345 242.256 239.328 243.639V245.714H199.497C199.497 245.714 97.7028 245.697 87.275 245.714L67.1389 245.733V244.567C67.1389 243.8 66.9556 243.206 66.6028 242.828C66.1278 242.32 65.1917 239.153 65.1917 238.053C65.1917 237.692 65.2695 237.692 65.8111 238.072C66.6426 238.652 67.476 238.615 68.3111 237.961C68.8667 237.528 69.0389 237.075 69.1806 235.739C69.4167 233.453 69.875 232.683 72.7695 229.683C74.5917 227.797 75.2195 226.967 75.1167 226.575C75.0139 226.183 76.0973 226.606 80.1584 228.633C86.5056 231.808 89.4639 232.997 93.4056 233.958C96.3473 234.675 96.5695 234.689 100.194 234.406C102.258 234.247 104.825 233.695 104.917 233.928L104.778 232.222L102.833 232.564C96.4639 233.675 92 232.531 80.3334 226.75L73.1111 223.172L75.0556 222.553C78.9278 221.314 81.8889 219.347 85.1667 215.836C89.5667 211.114 92.8917 204.514 94.7972 196.697C95.8723 192.289 95.9667 188.27 94.9861 188.878C94.8361 188.97 94.6306 189.767 94.5278 190.65C94.0667 194.617 92.0778 200.792 89.6278 205.864C85.3334 214.753 78.35 220.864 71.7723 221.464C70.2361 221.603 69.8 221.517 67.6639 220.631C63.9139 219.075 60.8 218.283 57.0861 217.947C52.4334 217.528 49.4445 218.036 48.2723 219.447C47.6861 220.156 48.1806 220.5 49.1056 220.025C51.0306 219.031 54.625 219 59.8639 219.939C61.5445 220.239 61.6445 220.295 60.8945 220.495C57.5889 221.347 49.5889 223.239 48.725 223.378C47.8539 223.456 46.976 223.405 46.1195 223.228C43.3639 222.656 41.3389 220.108 40.8778 216.642C40.7762 215.396 40.8604 214.143 41.1278 212.922C41.3 212.108 42.3223 209.589 42.625 209.008C43.7667 206.786 46.7639 203.378 49.5056 201.422C50.4223 200.77 53.0473 199.245 55.3389 198.036C66.95 191.908 73.3084 186.486 78.875 177.961C82.2223 172.803 85.6 165.556 86.5695 161.389L86.9028 159.953L88.6167 160.747C91.4361 162.047 97.8528 163.095 101.95 162.917L104.092 162.822L104.108 161.392C102.678 162.206 92.9973 160.881 89.45 159.358C88.0472 158.756 86.0584 157.011 86.3945 156.678C86.4945 156.581 89.3611 156.706 92.7667 156.956C96.1722 157.206 100.114 157.408 101.528 157.408H104.097L104.053 155.764C103.544 155.87 103.85 155.886 102.369 155.964L100.783 156.047L101.364 154.714C101.683 153.981 101.986 153.325 102.036 153.278C102.086 153.231 102.575 153.456 103.125 153.797C103.436 153.989 105.764 155.167 105.764 155.167L106.356 155.483C106.681 155.656 107.564 155.761 108.3 155.839C109.377 155.991 110.472 155.736 111.372 155.125L112.425 154.175C113.205 153.381 113.828 152.447 114.261 151.422C114.842 150.092 114.867 149.847 115.178 149.967C116.35 150.417 119.197 150.092 120.644 149.986C123.011 149.817 123.714 148.992 122.489 147.892C121.311 146.833 115.303 144.986 113.214 144.895L111.408 144.814L109.656 144.745C109.103 144.813 108.545 144.836 107.989 144.814H106.342L104.525 144.761L103.261 144.822C102.381 144.992 101.783 144.964 101.3 144.731C100.919 144.547 98.0445 144.067 94.9111 143.667C91.7778 143.267 88.2167 142.722 86.9945 142.464L84.7723 141.992L84.6889 140.233C84.6989 138.376 84.8204 136.521 85.0528 134.678C85.2973 132.589 85.6223 129.82 85.7723 128.522C85.95 126.997 85.9528 125.967 85.7723 125.606C85.4638 124.698 85.2197 123.77 85.0417 122.828C84.2084 118.808 81.7389 115.431 80.8445 114.061L80.4556 113.464L81.8611 111.931L83.7667 110.056L83.9222 110.889C84.2723 112.758 86.4917 116.703 87.9695 118.083C90.0834 120.061 91.9611 120.811 95.175 120.964C99.4167 121.164 101.158 120.408 102.461 117.756C103.033 116.592 103.103 116.089 103.067 113.247C103.022 109.775 102.417 106.881 101.161 104.142C100.781 103.308 100.469 102.608 100.469 102.589C100.469 102.57 101.478 102.553 102.708 102.553L104.761 102.592V101.164L103.942 101.197C103.385 101.213 102.828 101.188 102.275 101.125C98.9417 100.703 99.1028 100.767 98.5334 99.6529C97.9639 98.539 97.5306 98.264 96.35 98.2446C95.7445 98.2446 95.4195 97.9362 94.5861 96.5779C93.5834 94.9612 93.5723 94.9113 94.0584 94.289C95.6611 92.2335 96.0639 89.5668 95.3723 85.6057C95.1361 84.2362 94.9861 83.0668 95.0445 83.0085C95.3584 82.6946 98.35 84.7168 99.9584 86.3418C103.039 89.4279 104.783 103.053 104.781 97.9113V90.3279L103.808 88.5224C102.469 86.0362 99.9195 83.5529 97.5334 82.4112L95.5556 81.4279C95.6784 81.0292 95.8432 80.6446 96.0472 80.2807C97.4361 77.4724 97.7139 73.264 96.7111 70.3029C95.7778 67.5529 93.175 64.5918 90.5 63.2418C89.1111 62.5418 88.9084 62.3251 88.6167 61.2474C88.2 59.7224 86.9195 58.1696 85.2834 57.2113C84.2889 56.6279 83.55 56.4418 81.8389 56.3418C81.3528 56.314 80.9639 56.2974 80.6306 56.2974L80.6223 56.3057ZM81.5139 57.9724C82.4652 57.969 83.4064 58.1678 84.275 58.5557C85.6889 59.2418 86.9667 60.7001 87.6084 62.3474C87.8556 62.9974 88.8473 63.8196 89.1334 63.9696C90.5861 64.7335 93.1861 66.9974 94.3084 68.8307C95.2639 70.3974 95.8556 73.1196 95.6556 75.0418C95.4556 76.964 94.675 79.9196 94.3806 79.9196C94.2722 79.9196 94.025 79.2001 93.825 78.3224C93.4582 76.9019 93.0112 75.5034 92.4861 74.1335C91.6528 71.9696 91.2389 71.2779 89.9167 69.9363C88.5 68.4946 86.0139 67.0724 85.6139 67.4696C85.5445 67.539 85.3639 68.7835 85.2139 70.2279C84.75 74.614 82.3917 81.389 80.8334 82.7613C80 83.489 77.3334 84.3501 75.8945 84.3501C74.8445 84.3501 74.6389 84.4363 74.6389 84.8807C74.6389 85.4363 75.8528 86.0168 77.0417 86.0168C77.4 86.0168 77.6945 86.1474 77.6945 86.2946C77.6945 86.4418 77.9084 88.3001 78.1723 90.3918C78.7278 94.9085 78.8195 106.847 78.3056 110.233C77.882 113.261 77.0065 116.208 75.7084 118.975C74.5973 121.242 74.5973 121.256 73.1195 121.683C71.805 121.985 70.4596 122.13 69.1111 122.117C67.65 122.117 66.5834 122.231 66.5834 122.395C66.5834 123.006 68.0306 123.592 69.5389 123.592H71.0806L70.8973 126.122C70.7945 127.511 70.2223 131.722 69.625 135.478C68.1917 144.483 68.05 146.456 68.6667 148.895C69.0667 150.489 69.0861 150.839 68.7667 151.042C67.5806 151.795 63.9445 150.32 59.9195 147.458C50.525 140.775 50.0861 134.222 58.1167 120.597C63.6723 111.17 65.9639 105.514 67.0056 98.6529C67.5445 95.0418 67.5417 89.2557 67.0056 86.1307C66.7032 83.8856 66.5409 81.6238 66.5195 79.3585L66.4611 75.0418L67.3667 73.1974C67.8806 72.1501 69.2 70.3057 70.4223 68.9279C73.5056 65.4557 75.1695 63.2251 75.3723 62.2974C75.6 61.2668 77.5139 59.1807 78.8667 58.489C79.7017 58.1085 80.6134 57.926 81.5306 57.9557L81.5139 57.9724ZM227.322 59.3613C229.125 59.3613 231.767 61.3501 238.319 67.6029L240.128 69.3307C240.961 70.1418 241.008 70.9974 241.028 72.3863C241.03 73.5525 240.971 74.718 240.85 75.8779C240.669 77.1779 240.664 77.1863 239.669 77.1279C236.839 76.9613 235.553 77.814 234.947 80.2501C234.771 80.9846 234.533 81.7029 234.236 82.3974L233.889 83.0557L233.719 82.3751C233.625 82.0001 233.364 80.4668 233.139 78.964L232.728 76.2335L233.561 75.4001C234.856 74.1057 235.447 71.8696 234.494 71.8696C234.267 71.8696 234.078 71.9918 234.078 72.1474C234.078 72.3029 233.675 72.8751 233.181 73.439C231.456 75.4029 229.206 75.7529 227.056 74.389C225.583 73.4557 223.522 70.8196 222.814 68.964C222.164 67.2613 221.575 67.3224 220.517 69.1974C219.731 70.5863 218.231 72.1585 217.678 72.1585C217.542 72.1585 217.006 71.7807 216.483 71.3251C215.278 70.264 215.081 70.2751 215.325 71.3918C215.487 72.3575 215.597 73.3311 215.656 74.3085C215.828 76.8863 215.428 76.9501 214.008 74.564C212.853 72.6196 212.775 72.1307 213.392 70.6529C213.625 70.0974 213.892 68.4307 213.983 66.939C214.203 63.4279 214.589 62.4335 215.742 62.4335C216.719 62.4335 218.369 63.2057 220.186 64.514C220.875 65.0085 221.594 65.3474 221.789 65.2863C221.983 65.2251 222.667 64.3918 223.303 63.4529C225.05 60.8696 226.544 59.3501 227.322 59.3501V59.3613ZM104.108 69.4751C103.697 70.0307 102.314 75.9168 102.164 76.5918C101.692 78.6501 101.792 80.3863 102.425 81.0168C104.528 83.1224 107.703 82.6835 108.906 82.639C111.619 82.5529 112.108 81.914 113.711 81.5557C115.569 81.1363 116.539 79.3863 116.489 77.6668C116.456 76.5557 115.95 76.3418 115.4 75.8918C114.85 75.4418 113.892 71.6474 113.217 70.1696C113.156 70.1057 111.667 67.4251 108.381 67.4251C105.406 67.4196 104.167 69.3974 104.108 69.4751ZM108.386 69.1418C110.583 69.4196 111.408 70.1001 112.086 72.1585C112.403 73.1307 113.092 76.1057 113.986 76.6335C115.008 77.2363 115.056 77.3585 114.622 78.3001C114.189 79.2418 113.208 79.8557 111.406 80.3251C109.894 80.7196 107.794 81.2863 105.453 80.8113C104.342 80.5863 103.436 80.0835 103.631 78.4529C103.706 77.8251 104.742 74.064 104.833 72.914C105 70.9585 106.322 68.889 108.386 69.1418ZM86.7195 69.0974L87.9111 70.089C89.9139 71.7557 91.4556 75.5835 92.9584 82.6307C94.0028 87.5279 94.0695 90.4807 93.2167 92.2085C91.7528 95.1251 89.4167 96.3751 87.2806 95.4113C86.7556 95.1724 86.4834 95.1696 86.2556 95.3946C86.0278 95.6196 86.1723 95.9307 86.7973 96.5529C87.5111 97.2668 87.8611 97.4057 88.9889 97.4057C89.7747 97.421 90.5506 97.2294 91.2389 96.8501C91.5896 96.6124 91.9721 96.4254 92.375 96.2946C92.6306 96.2946 94.1167 98.2946 93.9695 98.4418C93.9167 98.4946 92.7556 98.8363 91.3889 99.2029C89.9943 99.579 88.6249 100.043 87.2889 100.592C86.4028 100.983 85.6223 101.303 85.575 101.303C85.3618 101.016 85.195 100.697 85.0806 100.358C84.4473 98.8418 82.7278 96.2612 81.5139 95.0057C80.4334 93.8946 80.375 93.7307 79.9084 90.7001C79.6306 88.9696 79.3528 87.1168 79.2417 86.5807C79.0611 85.6251 79.0861 85.5946 80.6667 84.7613C82.1945 83.9557 82.3334 83.7835 83.5945 81.289C85.3945 77.714 86.3 74.7446 86.5306 71.664L86.7195 69.0974ZM221.667 70.1335L222.5 71.7113C223.811 74.1529 225.972 76.1835 227.831 76.7113C228.669 76.983 229.554 77.0776 230.431 76.989L231.486 76.8112L231.658 79.3974C231.897 83.0085 232.625 84.9001 233.783 84.9001C234.322 84.9001 234.717 87.5446 234.294 87.989C233.872 88.4335 234.331 91.6751 234.908 93.9363C235.298 95.3589 235.809 96.7454 236.436 98.0807C236.969 99.1612 237.406 100.197 237.406 100.383C237.406 100.981 234.628 102.931 233.172 103.367C232.427 103.592 231.66 103.734 230.883 103.789C229.725 103.789 227.464 102.633 226.325 101.458L225.403 100.506L225.911 98.5363C226.389 96.6807 226.467 96.564 227.2 96.564C229.039 96.564 231.853 94.6001 231.853 93.3168C231.853 92.5474 231.575 92.514 230.708 93.1751C230.039 93.6779 228.353 94.4418 227.197 94.764C224.975 95.3779 220.733 92.364 219.617 89.3946C218.644 86.8057 217.972 83.1862 217.686 78.989C217.308 73.4474 217.303 73.5113 217.964 73.5113C219 73.5113 220.139 72.6779 220.897 71.4001L221.667 70.1335ZM203.786 75.5362L202.089 75.564C202.089 75.564 198.975 75.6418 198.994 81.1557C198.994 82.664 199.161 84.1085 199.411 84.7946C199.817 85.9057 199.811 85.9501 199.044 86.8057C197.6 88.4224 197.739 90.2113 199.353 90.8196L199.4 90.839L199.617 90.7974C199.617 90.7974 199.997 91.2362 201.797 91.3335L202.872 91.1557C203.464 91.0585 204.261 90.9196 204.667 90.8474L205.383 90.714L207.3 90.2057C207.497 89.7168 207.944 89.714 208.947 89.5696C209.286 89.5196 209.747 89.014 210.128 88.2501C210.653 87.2085 210.753 86.5613 210.753 84.2029C210.753 80.0363 209.717 77.0557 207.953 76.1474L207.772 76.0501L203.786 75.5362ZM203.158 77.3085C203.525 77.3085 203.992 77.3085 204.622 77.3335C206.011 77.3696 207.4 77.5224 207.678 77.6696C208.808 78.2751 209.622 86.439 208.636 87.4168C208.464 87.5863 207.464 88.039 206.414 88.4224C203.789 89.3751 199.922 89.5724 199.922 88.7529C199.922 88.3779 201.292 87.1196 202.45 86.4307C202.967 86.1224 203.433 85.6362 203.489 85.3529C203.572 84.9224 203.456 84.8585 202.797 84.9668C202.364 85.0418 201.831 85.1501 201.614 85.2113C200.564 85.5085 200.458 79.414 201.489 78.0501C201.919 77.4724 202.061 77.3224 203.158 77.3085ZM215.467 77.9974C215.628 77.9807 215.783 78.2751 215.897 78.8751C215.997 79.5415 216.023 80.2169 215.975 80.889L215.881 82.0001L215.361 80.989C215.008 80.3807 214.892 79.6639 215.033 78.9751C215.15 78.3335 215.308 78.014 215.467 77.9974ZM238.914 78.8307C240.125 78.8501 240.842 79.4418 240.581 80.2946C240.319 81.1474 239.342 82.1418 238.325 82.5751C238.012 82.7215 237.688 82.8423 237.356 82.9363C237.311 82.9363 237 82.7835 236.661 82.6224C236.106 82.3585 236.064 82.1751 236.211 81.0418C236.417 79.4057 236.767 79.039 238.364 78.8585C238.547 78.8404 238.73 78.833 238.914 78.8363V78.8307ZM222.428 80.1835C222.386 80.1835 222.356 80.1835 222.347 80.2029C221.867 81.0085 220.75 83.4585 220.75 83.7085C220.75 83.8863 221.028 84.2307 221.367 84.4668C222.4 85.189 223.589 84.5946 224.078 83.1113C224.464 81.9474 224.078 80.839 223.117 80.4057C222.899 80.2986 222.667 80.2237 222.428 80.1835ZM86.4111 83.6751C86.2556 83.6751 86.1861 83.7835 86.1084 83.989C85.8723 84.6057 86.85 86.3446 87.6611 86.7474C88.5334 87.1807 89.8611 86.7251 90.2528 85.8613C90.7056 84.8668 90.3528 84.3501 89.2223 84.3501C88.5495 84.3236 87.8859 84.1857 87.2584 83.9418C86.9941 83.8031 86.7072 83.7128 86.4111 83.6751ZM239.322 83.889C239.639 83.889 239.642 84.1668 239.636 85.2474C239.636 86.0529 239.475 87.0251 239.281 87.4057C238.892 88.1807 238.206 88.3446 237.089 87.9279C236.347 87.6501 236.275 87.4863 235.881 85.1835L235.714 84.2113L236.925 84.1863C237.585 84.1731 238.242 84.1015 238.889 83.9724C239.03 83.9304 239.175 83.9025 239.322 83.889ZM80.5556 96.2696L81.3389 97.0196C81.7723 97.4335 82.625 98.7335 83.2361 99.9085L84.3473 102.045L83.6611 102.358C82.8278 102.736 82.7334 104.025 83.4111 105.711C83.9389 107.028 83.8 107.361 81.775 109.697C81.0139 110.575 80.3056 111.295 80.2028 111.295C80.1 111.295 80.1223 110.461 80.2528 109.42C80.3834 108.378 80.5 105.008 80.5306 101.92L80.5556 96.2696ZM239.031 97.7585C239.825 97.8001 240.647 98.6279 240.858 99.6779C241.278 101.781 237.344 106.714 234.594 107.531C233.189 107.95 228.594 108.1 227.694 107.758C226.583 107.333 224.858 105.875 224.242 104.822C223.567 103.672 222.708 100.656 222.697 99.4196C222.697 98.9918 222.858 98.7946 223.217 98.7946C223.376 98.789 223.534 98.822 223.678 98.891C223.822 98.96 223.947 99.0628 224.042 99.1906C224.137 99.3184 224.2 99.4674 224.225 99.6248C224.25 99.7823 224.237 99.9435 224.186 100.095C223.85 101.375 226.375 104.183 228.631 105.047C231.819 106.264 237.122 104.27 238.672 101.27C239.031 100.575 239.017 100.367 238.531 99.2307L237.975 97.9668L238.675 97.789C238.792 97.7622 238.911 97.7519 239.031 97.7585ZM96.1695 99.6724C96.7834 99.6724 97.0028 99.9335 97.2806 100.453C97.5733 100.986 97.9368 101.476 98.3611 101.911C99.7028 103.208 101.589 110.067 101.589 113.642C101.589 115.614 100.911 117.739 99.9473 118.767C99.1695 119.6 99.0695 119.628 96.8278 119.6C94.2611 119.581 91.9806 119.072 90.5806 118.211C88.4806 116.914 86.8611 114.447 85.3417 110.236C84.5084 107.906 84.4889 107.681 85.2028 107.681C85.9167 107.681 85.9028 107.489 85.0667 105.695C84.6861 104.878 84.3723 104.028 84.3723 103.789C84.3723 103.283 88.5584 101.6 92.725 100.436C94.55 99.9279 95.5556 99.6724 96.1695 99.6724ZM93.8028 102.545C93.2473 102.545 93.3473 104.306 93.9528 105.475C94.5334 106.586 95.0639 106.383 94.9945 105.064C94.925 103.745 94.3389 102.545 93.8028 102.545ZM91.6611 103.795C91.2056 103.795 91.2667 104.595 91.8361 106.086C92.1917 107.022 92.6973 107.086 92.6973 106.197C92.6973 105.136 92.1195 103.795 91.6667 103.795H91.6611ZM88.2167 104.35C87.5334 104.35 87.5639 104.747 88.3806 106.503C89.4917 108.889 90.3945 108.2 89.3473 105.767C88.925 104.783 88.5778 104.35 88.2167 104.35ZM79.4445 114.397L80.0639 115.136C81.5889 116.958 83.2278 121.264 83.925 125.278C84.3223 127.581 84.3167 127.936 83.8111 130.895C83.5139 132.633 83.1889 135.222 83.0861 136.653L82.9056 139.25L82.2584 138.611C80.9167 137.27 80.6084 138.186 81.7361 140.158C82.1195 140.831 82.4 141.411 82.3584 141.45C81.5491 141.306 80.7509 141.105 79.9695 140.85C77.5973 140.164 76.8417 140.186 77.4695 140.928C78.7306 142.45 86.1917 144.417 94.0973 145.317C96.1611 145.55 98.5056 145.822 99.3056 145.92L100.764 146.1V148.353C100.764 150.889 100.164 154.103 99.5195 155.089C98.9806 155.922 98.5528 155.922 89.3806 155.028C74.2528 153.578 72.2139 153.053 70.8 150.231C69.7223 148.081 69.8223 144.783 71.2111 136.578C71.7806 133.22 72.7139 125.728 72.7139 124.517C72.7139 124.333 73.2084 123.961 73.825 123.697C75.8084 122.822 78.0334 119.556 78.9889 116.114L79.4445 114.397ZM232.056 120.639C232.183 120.639 232.372 120.822 232.739 121.214C233.443 122.072 234.083 122.981 234.653 123.933C235.178 124.816 235.755 125.666 236.381 126.481C236.917 127.083 236.917 127.086 236.119 127.497C235.128 128.011 232.911 130.35 232.303 131.528C232.053 132.011 231.747 132.389 231.647 132.361C231.547 132.333 230.183 132.103 228.639 131.831C224.844 131.167 224.397 130.895 222.869 128.289C221.342 125.683 220.022 124.306 218.333 123.486C217.425 123.045 217.186 122.811 217.417 122.578C217.925 122.07 222.886 122.036 226.139 122.52C227.772 122.761 228.719 123.053 229.4 123.053C230.564 123.053 231.278 122.989 231.294 122.272C231.294 121.85 231.717 121.211 231.825 120.936C231.897 120.742 231.958 120.636 232.056 120.639ZM244.261 126.945C244.515 127.534 244.726 128.14 244.894 128.758C245.172 129.692 245.386 130.453 245.361 130.453C245.336 130.453 244.925 130.139 244.444 129.761C243.611 129.103 243.583 129.022 243.856 127.947C244.003 127.37 244.172 126.936 244.247 126.936L244.261 126.945ZM238.742 128.042C239.233 128.017 239.75 128.32 240.722 129.05L241.389 129.556L240.211 130.62C238.822 131.875 236.7 134.772 236.275 135.992C236.108 136.467 235.892 136.853 235.794 136.845C235.697 136.836 235.017 135.972 234.289 134.917L232.964 132.997L235.122 130.82C236.308 129.62 237.622 128.467 238.042 128.256C238.257 128.134 238.495 128.06 238.742 128.039V128.042ZM102.417 146.525L108.736 146.647L115.056 146.77L117.972 147.778L120.889 148.797L118.25 148.611C113.469 148.272 113.381 148.281 113.458 149.008C113.589 150.22 111.725 152.856 110.169 153.661C108.736 154.4 107.392 154.131 104.392 152.497L102.422 151.425V146.525H102.417ZM65.9861 222.128C66.5613 222.142 67.1278 222.271 67.6528 222.506C68.0584 222.711 69.7917 223.547 71.5028 224.361L74.6139 225.845L73.4473 226.811C71.4695 228.445 68.8195 231.372 68.25 232.545C67.8865 233.389 67.6317 234.277 67.4917 235.186L67.275 236.711L66.1639 236.758C63.6028 236.87 61.6 235.9 60.0667 233.811C58.7028 231.953 58.7139 230.756 60.1028 229.55C61.1417 228.642 63.1 225.831 64.3584 223.439C64.9778 222.275 65.1584 222.128 65.9861 222.128ZM243.853 223.011L245.15 223.589C246.258 224.01 247.427 224.247 248.611 224.292C249.797 224.364 250.767 224.436 250.758 224.453L250.239 226.433L249.725 228.378L248.369 228.431C246.906 228.489 245.133 227.958 244.228 227.189C243.739 226.775 243.672 226.453 243.764 224.858L243.853 223.011ZM243.575 228.931C244.09 229.051 244.586 229.243 245.047 229.503C245.929 229.963 246.911 230.197 247.906 230.183H249.417L249.253 231.364C249.161 232.011 249.003 233.233 248.9 234.072C248.797 234.911 248.578 235.692 248.408 235.803C247.961 236.103 247.133 236.031 245.908 235.581C244.489 235.061 244.147 234.747 243.497 233.403C243.058 232.497 242.986 231.956 243.133 230.667C243.233 229.781 243.411 229 243.508 228.939C243.532 228.928 243.558 228.925 243.583 228.931H243.575ZM242.464 234.914L243.019 235.608C243.742 236.531 244.872 237.089 246.683 237.422C247.678 237.606 248.414 237.603 248.906 237.422C249.461 237.208 249.85 237.242 250.469 237.561C250.919 237.792 251.286 238.053 251.286 238.136C251.086 238.612 250.847 239.071 250.572 239.508C250.111 240.292 249.919 240.931 250.033 241.295C250.253 241.986 250.914 242.033 251.144 241.372C251.401 240.848 251.725 240.36 252.108 239.92L252.911 238.953L254.578 239.756L256.244 240.556L255.064 241.303C253.953 242.011 252.817 243.264 251.731 244.981L251.253 245.745H246.253C242.492 245.745 241.222 245.658 241.142 245.397C240.769 244.189 240.769 243.331 241.142 241.02C241.372 239.595 241.761 237.639 242.003 236.675L242.464 234.914ZM59.8945 236.286L61.05 237.12C61.6834 237.578 62.5417 237.953 62.9556 237.953C63.6695 237.953 63.7167 238.039 63.8778 239.572C63.9338 240.263 64.0452 240.947 64.2111 241.62C64.3473 241.978 63.9334 242.075 61.5111 242.242C59.9361 242.35 58.1778 242.542 57.6056 242.664C57.0334 242.786 56.5639 242.831 56.5639 242.75C56.8506 242.147 57.1763 241.564 57.5389 241.003C58.1516 239.979 58.7079 238.923 59.2056 237.839L59.8945 236.286ZM257.672 241.958C259.378 241.895 262.117 243.814 262.117 245.192C262.117 245.711 261.906 245.747 257.672 245.747C255.228 245.747 253.228 245.636 253.228 245.5C253.228 245.006 256.561 242.181 257.344 242.008C257.46 241.982 257.577 241.965 257.694 241.958H257.672ZM63.825 243.8C65.45 243.8 65.7278 243.997 65.7278 245.206C65.7278 245.714 65.4667 245.739 60.45 245.739C57.5473 245.739 55.1723 245.628 55.1723 245.492C55.1973 244.722 59.8889 243.811 63.8473 243.8H63.825Z" fill="#483613"/>
</svg>
