<svg width="22" height="24" viewBox="0 0 22 24" fill="none" xmlns="http://www.w3.org/2000/svg">
<path d="M16.8222 15.3872C16.6054 15.3718 16.3908 15.3332 16.1822 15.272C15.7518 15.1774 15.3288 15.0517 14.9166 14.896C14.4686 14.7311 13.9755 14.738 13.5323 14.9152C13.0891 15.0925 12.7273 15.4277 12.5166 15.856L12.3038 16.2912C11.3611 15.7669 10.4931 15.1184 9.72299 14.3632C8.97043 13.5941 8.32123 12.7303 7.79179 11.7936L8.21739 11.5232C8.64572 11.3125 8.98085 10.9507 9.15813 10.5075C9.33541 10.0643 9.34227 9.57114 9.17739 9.12318C9.02778 8.71194 8.90538 8.29129 8.81099 7.86398C8.76299 7.64158 8.72459 7.42878 8.69579 7.20638C8.57743 6.52696 8.22063 5.91203 7.68951 5.47212C7.15838 5.0322 6.48777 4.79615 5.79819 4.80638H2.89099C2.47893 4.80467 2.07131 4.8914 1.69564 5.06071C1.31997 5.23003 0.98501 5.47798 0.713377 5.78784C0.441743 6.09769 0.239763 6.46222 0.121076 6.85682C0.0023894 7.25142 -0.03024 7.66689 0.0253917 8.07518C0.534068 12.1196 2.37477 15.8795 5.25711 18.7619C8.13946 21.6442 11.8994 23.4849 15.9438 23.9936C16.0689 24.0031 16.1946 24.0031 16.3198 23.9936C17.0872 23.9919 17.8225 23.6859 18.3646 23.1426C18.9066 22.5994 19.211 21.8634 19.211 21.096V18.1984C19.2014 17.5253 18.9577 16.8765 18.5218 16.3635C18.0859 15.8505 17.4849 15.5053 16.8222 15.3872ZM17.3022 21.1824C17.3039 21.3222 17.2751 21.4606 17.2177 21.5881C17.1604 21.7156 17.0759 21.829 16.9701 21.9205C16.8644 22.0119 16.7399 22.0791 16.6055 22.1175C16.471 22.1558 16.3299 22.1643 16.1918 22.1424C12.584 21.6747 9.23112 20.0303 6.65259 17.464C4.07855 14.8707 2.43475 11.4987 1.97739 7.87358C1.95836 7.73547 1.96885 7.59489 2.00816 7.46113C2.04747 7.32737 2.11471 7.20348 2.20544 7.09762C2.29617 6.99177 2.40833 6.90637 2.5345 6.84707C2.66068 6.78776 2.79799 6.7559 2.93739 6.75358H5.83179C6.05571 6.74883 6.27423 6.82253 6.44955 6.9619C6.62486 7.10128 6.74593 7.29756 6.79179 7.51678C6.83019 7.78131 6.87872 8.04211 6.93739 8.29918C7.04911 8.80852 7.19777 9.30904 7.38219 9.79678L6.03019 10.424C5.91404 10.4758 5.80934 10.5502 5.72218 10.6428C5.63503 10.7355 5.56715 10.8445 5.52249 10.9636C5.47783 11.0827 5.45728 11.2095 5.46204 11.3366C5.46679 11.4637 5.49676 11.5886 5.55019 11.704C6.94028 14.6818 9.33396 17.0755 12.3118 18.4656C12.5491 18.5598 12.8133 18.5604 13.051 18.4671C13.2886 18.3738 13.482 18.1937 13.5918 17.9632L14.1998 16.6112C14.6992 16.7899 15.2089 16.9385 15.7262 17.056C15.9774 17.1136 16.2478 17.1616 16.5086 17.2016C16.726 17.2494 16.9201 17.3713 17.0576 17.5464C17.1951 17.7215 17.2674 17.939 17.2622 18.1616L17.3022 21.1824Z" fill="#5F3C08"/>
<path d="M19.262 4.0128V2.88C19.262 2.11618 18.9586 1.38364 18.4185 0.843533C17.8784 0.303428 17.1459 0 16.382 0C15.6182 0 14.8857 0.303428 14.3456 0.843533C13.8055 1.38364 13.502 2.11618 13.502 2.88V4.0128C12.9418 4.21086 12.4566 4.57735 12.1129 5.06202C11.7691 5.54669 11.5837 6.12581 11.582 6.72V8.64C11.582 9.40382 11.8855 10.1364 12.4256 10.6765C12.9657 11.2166 13.6982 11.52 14.462 11.52H18.302C19.0659 11.52 19.7984 11.2166 20.3385 10.6765C20.8786 10.1364 21.182 9.40382 21.182 8.64V6.72C21.1804 6.12581 20.9949 5.54669 20.6512 5.06202C20.3075 4.57735 19.8222 4.21086 19.262 4.0128ZM15.422 2.88C15.422 2.62539 15.5232 2.38121 15.7032 2.20118C15.8832 2.02114 16.1274 1.92 16.382 1.92C16.6366 1.92 16.8808 2.02114 17.0609 2.20118C17.2409 2.38121 17.342 2.62539 17.342 2.88V3.84H15.422V2.88ZM19.262 8.64C19.262 8.89461 19.1609 9.13879 18.9809 9.31882C18.8008 9.49886 18.5566 9.6 18.302 9.6H14.462C14.2074 9.6 13.9632 9.49886 13.7832 9.31882C13.6032 9.13879 13.502 8.89461 13.502 8.64V6.72C13.502 6.46539 13.6032 6.22121 13.7832 6.04118C13.9632 5.86114 14.2074 5.76 14.462 5.76H18.302C18.5566 5.76 18.8008 5.86114 18.9809 6.04118C19.1609 6.22121 19.262 6.46539 19.262 6.72V8.64Z" fill="#5F3C08"/>
</svg>
