<svg width="48" height="66" viewBox="0 0 48 66" fill="none" xmlns="http://www.w3.org/2000/svg">
<path d="M7.74256 55.084C7.74256 55.78 7.50256 56.36 7.02256 56.824C6.55056 57.28 5.82656 57.508 4.85056 57.508H3.24256V61H2.15056V52.636H4.85056C5.79456 52.636 6.51056 52.864 6.99856 53.32C7.49456 53.776 7.74256 54.364 7.74256 55.084ZM4.85056 56.608C5.45856 56.608 5.90656 56.476 6.19456 56.212C6.48256 55.948 6.62656 55.572 6.62656 55.084C6.62656 54.052 6.03456 53.536 4.85056 53.536H3.24256V56.608H4.85056ZM10.1918 55.492C10.3838 55.116 10.6558 54.824 11.0078 54.616C11.3678 54.408 11.8038 54.304 12.3158 54.304V55.432H12.0278C10.8038 55.432 10.1918 56.096 10.1918 57.424V61H9.09978V54.424H10.1918V55.492ZM16.4443 61.108C15.8283 61.108 15.2683 60.968 14.7643 60.688C14.2683 60.408 13.8763 60.012 13.5883 59.5C13.3083 58.98 13.1683 58.38 13.1683 57.7C13.1683 57.028 13.3123 56.436 13.6003 55.924C13.8963 55.404 14.2963 55.008 14.8003 54.736C15.3043 54.456 15.8683 54.316 16.4923 54.316C17.1163 54.316 17.6803 54.456 18.1843 54.736C18.6883 55.008 19.0843 55.4 19.3723 55.912C19.6683 56.424 19.8163 57.02 19.8163 57.7C19.8163 58.38 19.6643 58.98 19.3603 59.5C19.0643 60.012 18.6603 60.408 18.1483 60.688C17.6363 60.968 17.0683 61.108 16.4443 61.108ZM16.4443 60.148C16.8363 60.148 17.2043 60.056 17.5483 59.872C17.8923 59.688 18.1683 59.412 18.3763 59.044C18.5923 58.676 18.7003 58.228 18.7003 57.7C18.7003 57.172 18.5963 56.724 18.3883 56.356C18.1803 55.988 17.9083 55.716 17.5723 55.54C17.2363 55.356 16.8723 55.264 16.4803 55.264C16.0803 55.264 15.7123 55.356 15.3763 55.54C15.0483 55.716 14.7843 55.988 14.5843 56.356C14.3843 56.724 14.2843 57.172 14.2843 57.7C14.2843 58.236 14.3803 58.688 14.5723 59.056C14.7723 59.424 15.0363 59.7 15.3643 59.884C15.6923 60.06 16.0523 60.148 16.4443 60.148ZM20.8441 57.688C20.8441 57.016 20.9801 56.428 21.2521 55.924C21.5241 55.412 21.8961 55.016 22.3681 54.736C22.8481 54.456 23.3841 54.316 23.9761 54.316C24.4881 54.316 24.9641 54.436 25.4041 54.676C25.8441 54.908 26.1801 55.216 26.4121 55.6V52.12H27.5161V61H26.4121V59.764C26.1961 60.156 25.8761 60.48 25.4521 60.736C25.0281 60.984 24.5321 61.108 23.9641 61.108C23.3801 61.108 22.8481 60.964 22.3681 60.676C21.8961 60.388 21.5241 59.984 21.2521 59.464C20.9801 58.944 20.8441 58.352 20.8441 57.688ZM26.4121 57.7C26.4121 57.204 26.3121 56.772 26.1121 56.404C25.9121 56.036 25.6401 55.756 25.2961 55.564C24.9601 55.364 24.5881 55.264 24.1801 55.264C23.7721 55.264 23.4001 55.36 23.0641 55.552C22.7281 55.744 22.4601 56.024 22.2601 56.392C22.0601 56.76 21.9601 57.192 21.9601 57.688C21.9601 58.192 22.0601 58.632 22.2601 59.008C22.4601 59.376 22.7281 59.66 23.0641 59.86C23.4001 60.052 23.7721 60.148 24.1801 60.148C24.5881 60.148 24.9601 60.052 25.2961 59.86C25.6401 59.66 25.9121 59.376 26.1121 59.008C26.3121 58.632 26.4121 58.196 26.4121 57.7ZM35.1935 54.424V61H34.1015V60.028C33.8935 60.364 33.6015 60.628 33.2255 60.82C32.8575 61.004 32.4495 61.096 32.0015 61.096C31.4895 61.096 31.0295 60.992 30.6215 60.784C30.2135 60.568 29.8895 60.248 29.6495 59.824C29.4175 59.4 29.3015 58.884 29.3015 58.276V54.424H30.3815V58.132C30.3815 58.78 30.5455 59.28 30.8735 59.632C31.2015 59.976 31.6495 60.148 32.2175 60.148C32.8015 60.148 33.2615 59.968 33.5975 59.608C33.9335 59.248 34.1015 58.724 34.1015 58.036V54.424H35.1935ZM36.6293 57.7C36.6293 57.02 36.7653 56.428 37.0373 55.924C37.3093 55.412 37.6853 55.016 38.1653 54.736C38.6533 54.456 39.2093 54.316 39.8333 54.316C40.6413 54.316 41.3053 54.512 41.8253 54.904C42.3533 55.296 42.7013 55.84 42.8693 56.536H41.6933C41.5813 56.136 41.3613 55.82 41.0333 55.588C40.7133 55.356 40.3133 55.24 39.8333 55.24C39.2093 55.24 38.7053 55.456 38.3213 55.888C37.9373 56.312 37.7453 56.916 37.7453 57.7C37.7453 58.492 37.9373 59.104 38.3213 59.536C38.7053 59.968 39.2093 60.184 39.8333 60.184C40.3133 60.184 40.7133 60.072 41.0333 59.848C41.3533 59.624 41.5733 59.304 41.6933 58.888H42.8693C42.6933 59.56 42.3413 60.1 41.8133 60.508C41.2853 60.908 40.6253 61.108 39.8333 61.108C39.2093 61.108 38.6533 60.968 38.1653 60.688C37.6853 60.408 37.3093 60.012 37.0373 59.5C36.7653 58.988 36.6293 58.388 36.6293 57.7ZM45.6583 55.324V59.2C45.6583 59.52 45.7263 59.748 45.8623 59.884C45.9983 60.012 46.2343 60.076 46.5703 60.076H47.3743V61H46.3903C45.7823 61 45.3263 60.86 45.0223 60.58C44.7183 60.3 44.5663 59.84 44.5663 59.2V55.324H43.7143V54.424H44.5663V52.768H45.6583V54.424H47.3743V55.324H45.6583Z" fill="black"/>
<path d="M39.7623 16.021V36.6247C39.7623 37.5766 39.74 38.5285 39.7623 39.4804V39.5213L40.8779 38.4058H8.49423C8.05545 38.4058 7.61668 38.3984 7.17791 38.4058H7.12213L8.23766 39.5213V18.9176C8.23766 17.9657 8.25997 17.0138 8.23766 16.0619V16.021L7.12213 17.1365H39.5058C39.9445 17.1365 40.3833 17.1402 40.8221 17.1365H40.8779C41.4617 17.1365 42.0194 16.6234 41.9934 16.021C41.9674 15.4149 41.5026 14.9055 40.8779 14.9055H8.49423C8.05545 14.9055 7.61668 14.9017 7.17791 14.9055H7.12213C6.51975 14.9055 6.00661 15.4149 6.00661 16.021V36.6247C6.00661 37.5766 5.99174 38.5285 6.00661 39.4804V39.5213C6.00661 40.1237 6.51603 40.6369 7.12213 40.6369H39.5058C39.9445 40.6369 40.3833 40.6406 40.8221 40.6369H40.8779C41.4803 40.6369 41.9934 40.1274 41.9934 39.5213V18.9176C41.9934 17.9657 42.0083 17.0138 41.9934 16.0619V16.021C41.9934 15.4372 41.4803 14.8794 40.8779 14.9055C40.2718 14.9315 39.7623 15.3963 39.7623 16.021Z" fill="#87919C"/>
<path d="M40.8786 14.9091H8.49497C8.0562 14.9091 7.61743 14.9017 7.17866 14.9091H7.12288C7.38689 15.545 7.64718 16.1771 7.91118 16.813C8.74783 15.9205 9.58819 15.0318 10.4248 14.1394C11.7597 12.719 13.0946 11.3023 14.4296 9.88184L15.3443 8.91134C15.0803 9.01917 14.82 9.13072 14.556 9.23856H31.1215C31.8838 9.23856 32.6498 9.26087 33.4158 9.23856H33.4455C33.1815 9.13072 32.9212 9.01917 32.6572 8.91134C33.4939 9.80375 34.3342 10.6925 35.1709 11.5849C36.5058 13.0053 37.8407 14.422 39.1756 15.8425L40.0903 16.813C40.4919 17.2406 41.269 17.248 41.6669 16.813C42.0871 16.3556 42.0945 15.69 41.6669 15.2364C40.9084 14.4295 40.1498 13.6226 39.3913 12.8194C38.1084 11.4547 36.8218 10.0901 35.539 8.72541C35.1523 8.31267 34.7655 7.90365 34.3751 7.4909C34.1185 7.21946 33.8657 7.02238 33.4381 7.00751H15.1249C14.8497 7.00751 14.5262 6.97404 14.2548 7.04841C13.8011 7.17484 13.4479 7.66939 13.1393 7.99661L9.54728 11.8117L6.49075 15.0579L6.32342 15.2364C6.01108 15.5673 5.9144 16.0358 6.09288 16.456C6.26393 16.8613 6.66552 17.1402 7.11173 17.1402H39.4954C39.9341 17.1402 40.3729 17.1439 40.8117 17.1402H40.8675C41.4512 17.1402 42.009 16.627 41.983 16.0247C41.9681 15.4186 41.5033 14.9091 40.8786 14.9091Z" fill="#87919C"/>
<path d="M27.0853 16.021V26.4549C27.643 26.1351 28.2045 25.8116 28.7623 25.4918C27.5055 24.8336 26.2524 24.1755 24.9955 23.5173C24.8319 23.4318 24.672 23.3425 24.5084 23.2607C24.1031 23.0562 23.7164 23.0897 23.3297 23.2868C23.2442 23.3277 23.1624 23.3723 23.0806 23.4169C22.3517 23.7999 21.6229 24.1829 20.8904 24.5622C20.2992 24.8708 19.7117 25.1794 19.1204 25.4881C19.6782 25.8079 20.2397 26.1314 20.7975 26.4511V16.0173L19.6819 17.1328H28.2008C28.7846 17.1328 29.3424 16.6197 29.3163 16.0173C29.2903 15.4112 28.8255 14.9018 28.2008 14.9018H19.6819C19.0795 14.9018 18.5664 15.4112 18.5664 16.0173V26.4511C18.5664 27.325 19.5072 27.8009 20.2434 27.4142C21.4854 26.7635 22.7236 26.1128 23.9655 25.462L24.501 25.1832H23.3743C24.6163 25.8339 25.8545 26.4846 27.0964 27.1353L27.6319 27.4142C28.3719 27.8009 29.3089 27.325 29.3089 26.4511V16.0173C29.3089 15.4335 28.7958 14.8757 28.1934 14.9018C27.5947 14.9315 27.0853 15.3963 27.0853 16.021Z" fill="#87919C"/>
</svg>
