<svg width="96" height="28" viewBox="0 0 96 28" fill="none" xmlns="http://www.w3.org/2000/svg">
<rect width="96" height="28" rx="10" fill="#FCB742" fill-opacity="0.6"/>
<path d="M14.11 12.33C14.11 13.41 13.33 14.23 12.24 14.46L14.02 17H13.13L11.39 14.53H9.57V17H8.79V10.13H11.58C13 10.13 14.11 11.04 14.11 12.33ZM9.57 10.87V13.79H11.44C12.56 13.79 13.32 13.25 13.32 12.33C13.32 11.41 12.56 10.87 11.44 10.87H9.57ZM17.5939 16.45C18.2039 16.45 18.9039 16.18 19.2239 15.83L19.6839 16.32C19.2339 16.81 18.3239 17.12 17.6039 17.12C16.2239 17.12 14.9839 15.99 14.9839 14.4C14.9839 12.86 16.1439 11.71 17.5339 11.71C19.0939 11.71 19.9839 12.89 19.9839 14.7H15.7539C15.8639 15.71 16.5739 16.45 17.5939 16.45ZM17.5639 12.38C16.6439 12.38 15.9039 13.03 15.7639 14.03H19.2439C19.1439 13.1 18.5939 12.38 17.5639 12.38ZM21.0112 14.65V13.92H23.6012V14.65H21.0112ZM26.5321 17.12C25.7221 17.12 24.8421 16.65 24.4221 15.98L24.9921 15.42C25.2621 16 25.9021 16.41 26.5321 16.41C27.3421 16.41 27.9221 15.73 27.9221 14.76V10.13H28.7021V14.76C28.7021 16.14 27.8021 17.12 26.5321 17.12ZM32.7225 17.12C31.2725 17.12 30.0425 15.88 30.0425 14.41C30.0425 12.94 31.2725 11.71 32.7225 11.71C34.1725 11.71 35.3925 12.94 35.3925 14.41C35.3925 15.88 34.1725 17.12 32.7225 17.12ZM32.7225 16.45C33.7425 16.45 34.6025 15.52 34.6025 14.41C34.6025 13.31 33.7425 12.38 32.7225 12.38C31.6925 12.38 30.8325 13.31 30.8325 14.41C30.8325 15.52 31.6925 16.45 32.7225 16.45ZM37.0011 10.89C36.7211 10.89 36.5011 10.66 36.5011 10.39C36.5011 10.13 36.7211 9.9 37.0011 9.9C37.2711 9.9 37.4911 10.13 37.4911 10.39C37.4911 10.66 37.2711 10.89 37.0011 10.89ZM36.6211 17V11.83H37.3711V17H36.6211ZM41.3372 11.71C42.4772 11.71 43.2772 12.54 43.2772 13.71V17H42.5272V13.81C42.5272 12.97 41.9972 12.38 41.2372 12.38C40.3672 12.38 39.6372 12.99 39.6372 13.71V17H38.8872V11.83H39.6372V12.66C39.9372 12.11 40.6072 11.71 41.3372 11.71ZM50.9755 17.12C49.0755 17.12 47.4555 15.49 47.4555 13.56C47.4555 11.63 49.0755 10.01 50.9755 10.01C51.9255 10.01 52.8055 10.41 53.4455 11.06L52.9155 11.6C52.4155 11.07 51.7255 10.73 50.9755 10.73C49.4955 10.73 48.2455 12.03 48.2455 13.56C48.2455 15.1 49.4955 16.4 50.9755 16.4C51.7255 16.4 52.4155 16.06 52.9155 15.53L53.4455 16.07C52.8055 16.71 51.9255 17.12 50.9755 17.12ZM56.9524 11.71C58.0924 11.71 58.8924 12.54 58.8924 13.71V17H58.1424V13.81C58.1424 12.97 57.6124 12.38 56.8524 12.38C55.9824 12.38 55.2524 12.99 55.2524 13.71V17H54.5024V10.01H55.2524V12.66C55.5524 12.11 56.2224 11.71 56.9524 11.71ZM62.5104 11.71C63.9204 11.71 64.6104 12.6 64.6104 13.85V17H63.8604V16.19C63.4904 16.8 62.7204 17.12 62.0404 17.12C60.9504 17.12 60.1504 16.49 60.1504 15.47C60.1504 14.44 61.0704 13.75 62.1804 13.75C62.7404 13.75 63.3304 13.87 63.8604 14.04V13.85C63.8604 13.15 63.5804 12.35 62.4604 12.35C61.9404 12.35 61.4204 12.58 60.9504 12.82L60.6504 12.21C61.3904 11.84 62.0104 11.71 62.5104 11.71ZM62.1704 16.46C62.8504 16.46 63.6604 16.11 63.8604 15.38V14.59C63.3904 14.46 62.8604 14.38 62.3004 14.38C61.5304 14.38 60.8804 14.82 60.8804 15.44C60.8804 16.08 61.4404 16.46 62.1704 16.46ZM68.4128 16.24L68.7828 16.79C68.5128 17 68.1728 17.12 67.8228 17.12C67.0828 17.12 66.5628 16.57 66.5628 15.8V12.5H65.7528V11.83H66.5628V10.41H67.3128V11.83H68.5828V12.5H67.3128V15.8C67.3128 16.18 67.5728 16.45 67.8728 16.45C68.1028 16.45 68.3028 16.36 68.4128 16.24Z" fill="#5F3C08"/>
<g clip-path="url(#clip0_163_33879)">
<mask id="mask0_163_33879" style="mask-type:luminance" maskUnits="userSpaceOnUse" x="76" y="8" width="12" height="12">
<path d="M88 8L76 8V20H88V8Z" fill="white"/>
</mask>
<g mask="url(#mask0_163_33879)">
<path d="M82.9331 10.9213V12.4606L84.3407 14L82.9331 15.5394V17.0787L85.7482 14L82.9331 10.9213Z" fill="#5F3C08"/>
<path d="M80.5024 10.9213V12.4606L81.91 14L80.5024 15.5394V17.0787L83.3175 14L80.5024 10.9213Z" fill="#5F3C08"/>
<path d="M78.0718 10.9213V12.4606L79.4793 14L78.0718 15.5394V17.0787L80.8869 14L78.0718 10.9213Z" fill="#5F3C08"/>
</g>
</g>
<defs>
<clipPath id="clip0_163_33879">
<rect width="12" height="12" fill="white" transform="translate(76 8)"/>
</clipPath>
</defs>
</svg>
