<svg width="60" height="66" viewBox="0 0 60 66" fill="none" xmlns="http://www.w3.org/2000/svg">
<path d="M36.5 4.5H21.5C20.7044 4.5 19.9413 4.81607 19.3787 5.37868C18.8161 5.94129 18.5 6.70435 18.5 7.5V16.5C18.5 17.2956 18.8161 18.0587 19.3787 18.6213C19.9413 19.1839 20.7044 19.5 21.5 19.5H24.5L29 24L33.5 19.5H36.5C37.2956 19.5 38.0587 19.1839 38.6213 18.6213C39.1839 18.0587 39.5 17.2956 39.5 16.5V7.5C39.5 6.70435 39.1839 5.94129 38.6213 5.37868C38.0587 4.81607 37.2956 4.5 36.5 4.5Z" stroke="#87919C" stroke-width="3" stroke-miterlimit="10" stroke-linecap="round" stroke-linejoin="round"/>
<path d="M29 13.5C29.8284 13.5 30.5 12.8284 30.5 12C30.5 11.1716 29.8284 10.5 29 10.5C28.1716 10.5 27.5 11.1716 27.5 12C27.5 12.8284 28.1716 13.5 29 13.5Z" fill="#87919C"/>
<path d="M24.5 13.5C25.3284 13.5 26 12.8284 26 12C26 11.1716 25.3284 10.5 24.5 10.5C23.6716 10.5 23 11.1716 23 12C23 12.8284 23.6716 13.5 24.5 13.5Z" fill="#87919C"/>
<path d="M33.5 13.5C34.3284 13.5 35 12.8284 35 12C35 11.1716 34.3284 10.5 33.5 10.5C32.6716 10.5 32 11.1716 32 12C32 12.8284 32.6716 13.5 33.5 13.5Z" fill="#87919C"/>
<path d="M14 26.2455V17.25C14 16.6533 13.7629 16.081 13.341 15.659C12.919 15.2371 12.3467 15 11.75 15C11.1533 15 10.581 15.2371 10.159 15.659C9.73705 16.081 9.5 16.6533 9.5 17.25V29.328C9.49986 30.7317 9.9919 32.0911 10.8905 33.1695L17 40.5V43.5" stroke="#87919C" stroke-width="3" stroke-miterlimit="10" stroke-linecap="round" stroke-linejoin="round"/>
<path d="M26 43.5V36.063C26.0001 34.0999 25.2305 32.215 23.8565 30.813L17.8205 24.6555C17.4014 24.2364 16.8329 24.001 16.2403 24.001C15.6476 24.001 15.0791 24.2364 14.66 24.6555L14.654 24.66C14.2349 25.0812 13.9998 25.6513 14 26.2455C13.9992 26.7515 14.1724 27.2425 14.4905 27.636L18.5 33M44 26.2455V17.25C44 16.6533 44.2371 16.081 44.659 15.659C45.081 15.2371 45.6533 15 46.25 15C46.8467 15 47.419 15.2371 47.841 15.659C48.2629 16.081 48.5 16.6533 48.5 17.25V29.328C48.5001 30.7317 48.0081 32.0911 47.1095 33.1695L41 40.5V43.5" stroke="#87919C" stroke-width="3" stroke-miterlimit="10" stroke-linecap="round" stroke-linejoin="round"/>
<path d="M32 43.5V36.063C31.9999 34.0999 32.7695 32.2151 34.1435 30.813L40.1795 24.6555C40.5986 24.2365 41.1671 24.001 41.7598 24.001C42.3524 24.001 42.9209 24.2365 43.34 24.6555L43.3445 24.66C43.7339 25.0486 43.9661 25.5672 43.9965 26.1164C44.027 26.6657 43.8536 27.2068 43.5095 27.636L39.5 33" stroke="#87919C" stroke-width="3" stroke-miterlimit="10" stroke-linecap="round" stroke-linejoin="round"/>
<path d="M5.66784 61L3.67584 57.58H2.35584V61H1.26384V52.636H3.96384C4.59584 52.636 5.12784 52.744 5.55984 52.96C5.99984 53.176 6.32784 53.468 6.54384 53.836C6.75984 54.204 6.86784 54.624 6.86784 55.096C6.86784 55.672 6.69984 56.18 6.36384 56.62C6.03584 57.06 5.53984 57.352 4.87584 57.496L6.97584 61H5.66784ZM2.35584 56.704H3.96384C4.55584 56.704 4.99984 56.56 5.29584 56.272C5.59184 55.976 5.73984 55.584 5.73984 55.096C5.73984 54.6 5.59184 54.216 5.29584 53.944C5.00784 53.672 4.56384 53.536 3.96384 53.536H2.35584V56.704ZM14.5646 57.46C14.5646 57.668 14.5526 57.888 14.5286 58.12H9.27263C9.31263 58.768 9.53263 59.276 9.93263 59.644C10.3406 60.004 10.8326 60.184 11.4086 60.184C11.8806 60.184 12.2726 60.076 12.5846 59.86C12.9046 59.636 13.1286 59.34 13.2566 58.972H14.4326C14.2566 59.604 13.9046 60.12 13.3766 60.52C12.8486 60.912 12.1926 61.108 11.4086 61.108C10.7846 61.108 10.2246 60.968 9.72863 60.688C9.24063 60.408 8.85663 60.012 8.57663 59.5C8.29663 58.98 8.15663 58.38 8.15663 57.7C8.15663 57.02 8.29263 56.424 8.56463 55.912C8.83663 55.4 9.21663 55.008 9.70463 54.736C10.2006 54.456 10.7686 54.316 11.4086 54.316C12.0326 54.316 12.5846 54.452 13.0646 54.724C13.5446 54.996 13.9126 55.372 14.1686 55.852C14.4326 56.324 14.5646 56.86 14.5646 57.46ZM13.4366 57.232C13.4366 56.816 13.3446 56.46 13.1606 56.164C12.9766 55.86 12.7246 55.632 12.4046 55.48C12.0926 55.32 11.7446 55.24 11.3606 55.24C10.8086 55.24 10.3366 55.416 9.94463 55.768C9.56063 56.12 9.34063 56.608 9.28463 57.232H13.4366ZM23.914 54.304C24.426 54.304 24.882 54.412 25.282 54.628C25.682 54.836 25.998 55.152 26.23 55.576C26.462 56 26.578 56.516 26.578 57.124V61H25.498V57.28C25.498 56.624 25.334 56.124 25.006 55.78C24.686 55.428 24.25 55.252 23.698 55.252C23.13 55.252 22.678 55.436 22.342 55.804C22.006 56.164 21.838 56.688 21.838 57.376V61H20.758V57.28C20.758 56.624 20.594 56.124 20.266 55.78C19.946 55.428 19.51 55.252 18.958 55.252C18.39 55.252 17.938 55.436 17.602 55.804C17.266 56.164 17.098 56.688 17.098 57.376V61H16.006V54.424H17.098V55.372C17.314 55.028 17.602 54.764 17.962 54.58C18.33 54.396 18.734 54.304 19.174 54.304C19.726 54.304 20.214 54.428 20.638 54.676C21.062 54.924 21.378 55.288 21.586 55.768C21.77 55.304 22.074 54.944 22.498 54.688C22.922 54.432 23.394 54.304 23.914 54.304ZM34.3693 57.46C34.3693 57.668 34.3573 57.888 34.3333 58.12H29.0773C29.1173 58.768 29.3373 59.276 29.7373 59.644C30.1453 60.004 30.6373 60.184 31.2133 60.184C31.6853 60.184 32.0773 60.076 32.3893 59.86C32.7093 59.636 32.9333 59.34 33.0613 58.972H34.2373C34.0613 59.604 33.7093 60.12 33.1813 60.52C32.6533 60.912 31.9973 61.108 31.2133 61.108C30.5893 61.108 30.0293 60.968 29.5333 60.688C29.0453 60.408 28.6613 60.012 28.3813 59.5C28.1013 58.98 27.9613 58.38 27.9613 57.7C27.9613 57.02 28.0973 56.424 28.3693 55.912C28.6413 55.4 29.0213 55.008 29.5093 54.736C30.0053 54.456 30.5733 54.316 31.2133 54.316C31.8373 54.316 32.3893 54.452 32.8693 54.724C33.3493 54.996 33.7173 55.372 33.9733 55.852C34.2373 56.324 34.3693 56.86 34.3693 57.46ZM33.2413 57.232C33.2413 56.816 33.1493 56.46 32.9653 56.164C32.7813 55.86 32.5293 55.632 32.2093 55.48C31.8973 55.32 31.5493 55.24 31.1653 55.24C30.6133 55.24 30.1413 55.416 29.7493 55.768C29.3653 56.12 29.1453 56.608 29.0893 57.232H33.2413ZM35.4027 57.688C35.4027 57.016 35.5387 56.428 35.8107 55.924C36.0827 55.412 36.4547 55.016 36.9267 54.736C37.4067 54.456 37.9427 54.316 38.5347 54.316C39.0467 54.316 39.5227 54.436 39.9627 54.676C40.4027 54.908 40.7387 55.216 40.9707 55.6V52.12H42.0747V61H40.9707V59.764C40.7547 60.156 40.4347 60.48 40.0107 60.736C39.5867 60.984 39.0907 61.108 38.5227 61.108C37.9387 61.108 37.4067 60.964 36.9267 60.676C36.4547 60.388 36.0827 59.984 35.8107 59.464C35.5387 58.944 35.4027 58.352 35.4027 57.688ZM40.9707 57.7C40.9707 57.204 40.8707 56.772 40.6707 56.404C40.4707 56.036 40.1987 55.756 39.8547 55.564C39.5187 55.364 39.1467 55.264 38.7387 55.264C38.3307 55.264 37.9587 55.36 37.6227 55.552C37.2867 55.744 37.0187 56.024 36.8187 56.392C36.6187 56.76 36.5187 57.192 36.5187 57.688C36.5187 58.192 36.6187 58.632 36.8187 59.008C37.0187 59.376 37.2867 59.66 37.6227 59.86C37.9587 60.052 38.3307 60.148 38.7387 60.148C39.1467 60.148 39.5187 60.052 39.8547 59.86C40.1987 59.66 40.4707 59.376 40.6707 59.008C40.8707 58.632 40.9707 58.196 40.9707 57.7ZM44.4841 53.356C44.2761 53.356 44.1001 53.284 43.9561 53.14C43.8121 52.996 43.7401 52.82 43.7401 52.612C43.7401 52.404 43.8121 52.228 43.9561 52.084C44.1001 51.94 44.2761 51.868 44.4841 51.868C44.6841 51.868 44.8521 51.94 44.9881 52.084C45.1321 52.228 45.2041 52.404 45.2041 52.612C45.2041 52.82 45.1321 52.996 44.9881 53.14C44.8521 53.284 44.6841 53.356 44.4841 53.356ZM45.0121 54.424V61H43.9201V54.424H45.0121ZM52.8732 57.46C52.8732 57.668 52.8612 57.888 52.8372 58.12H47.5812C47.6212 58.768 47.8412 59.276 48.2412 59.644C48.6492 60.004 49.1412 60.184 49.7172 60.184C50.1892 60.184 50.5812 60.076 50.8932 59.86C51.2132 59.636 51.4372 59.34 51.5652 58.972H52.7412C52.5652 59.604 52.2132 60.12 51.6852 60.52C51.1572 60.912 50.5012 61.108 49.7172 61.108C49.0932 61.108 48.5332 60.968 48.0372 60.688C47.5492 60.408 47.1652 60.012 46.8852 59.5C46.6052 58.98 46.4652 58.38 46.4652 57.7C46.4652 57.02 46.6012 56.424 46.8732 55.912C47.1452 55.4 47.5252 55.008 48.0132 54.736C48.5092 54.456 49.0772 54.316 49.7172 54.316C50.3412 54.316 50.8932 54.452 51.3732 54.724C51.8532 54.996 52.2212 55.372 52.4772 55.852C52.7412 56.324 52.8732 56.86 52.8732 57.46ZM51.7452 57.232C51.7452 56.816 51.6532 56.46 51.4692 56.164C51.2852 55.86 51.0332 55.632 50.7132 55.48C50.4012 55.32 50.0532 55.24 49.6692 55.24C49.1172 55.24 48.6452 55.416 48.2532 55.768C47.8692 56.12 47.6492 56.608 47.5932 57.232H51.7452ZM56.6426 61.108C56.1386 61.108 55.6866 61.024 55.2866 60.856C54.8866 60.68 54.5706 60.44 54.3386 60.136C54.1066 59.824 53.9786 59.468 53.9546 59.068H55.0826C55.1146 59.396 55.2666 59.664 55.5386 59.872C55.8186 60.08 56.1826 60.184 56.6306 60.184C57.0466 60.184 57.3746 60.092 57.6146 59.908C57.8546 59.724 57.9746 59.492 57.9746 59.212C57.9746 58.924 57.8466 58.712 57.5906 58.576C57.3346 58.432 56.9386 58.292 56.4026 58.156C55.9146 58.028 55.5146 57.9 55.2026 57.772C54.8986 57.636 54.6346 57.44 54.4106 57.184C54.1946 56.92 54.0866 56.576 54.0866 56.152C54.0866 55.816 54.1866 55.508 54.3866 55.228C54.5866 54.948 54.8706 54.728 55.2386 54.568C55.6066 54.4 56.0266 54.316 56.4986 54.316C57.2266 54.316 57.8146 54.5 58.2626 54.868C58.7106 55.236 58.9506 55.74 58.9826 56.38H57.8906C57.8666 56.036 57.7266 55.76 57.4706 55.552C57.2226 55.344 56.8866 55.24 56.4626 55.24C56.0706 55.24 55.7586 55.324 55.5266 55.492C55.2946 55.66 55.1786 55.88 55.1786 56.152C55.1786 56.368 55.2466 56.548 55.3826 56.692C55.5266 56.828 55.7026 56.94 55.9106 57.028C56.1266 57.108 56.4226 57.2 56.7986 57.304C57.2706 57.432 57.6546 57.56 57.9506 57.688C58.2466 57.808 58.4986 57.992 58.7066 58.24C58.9226 58.488 59.0346 58.812 59.0426 59.212C59.0426 59.572 58.9426 59.896 58.7426 60.184C58.5426 60.472 58.2586 60.7 57.8906 60.868C57.5306 61.028 57.1146 61.108 56.6426 61.108Z" fill="black"/>
</svg>
