<svg width="64" height="64" viewBox="0 0 64 64" fill="none" xmlns="http://www.w3.org/2000/svg">
<path fill-rule="evenodd" clip-rule="evenodd" d="M40 52V12C40 10.895 39.105 10 38 10H26C24.895 10 24 10.895 24 12V52C24 53.105 24.895 54 26 54H38C39.105 54 40 53.105 40 52Z" fill="#FF9897"/>
<path fill-rule="evenodd" clip-rule="evenodd" d="M34 34H54C55.104 34 56 33.104 56 32C56 30.896 55.104 30 54 30H34C32.896 30 32 30.896 32 32C32 33.104 32.896 34 34 34Z" fill="#0E2339"/>
<path fill-rule="evenodd" clip-rule="evenodd" d="M51.172 32L47.586 28.414C46.805 27.634 46.805 26.366 47.586 25.586C48.366 24.805 49.634 24.805 50.414 25.586L55.414 30.586C56.195 31.367 56.195 32.633 55.414 33.414L50.414 38.414C49.634 39.195 48.366 39.195 47.586 38.414C46.805 37.634 46.805 36.366 47.586 35.586L51.172 32Z" fill="#0E2339"/>
<path fill-rule="evenodd" clip-rule="evenodd" d="M9.298 10.127C8.517 10.42 8 11.166 8 12V52C8 52.834 8.517 53.58 9.298 53.873L25.298 59.873C25.912 60.103 26.6 60.017 27.139 59.644C27.678 59.27 28 58.656 28 58V6C28 5.344 27.678 4.73 27.139 4.356C26.6 3.983 25.912 3.897 25.298 4.127L9.298 10.127Z" fill="#FF4E4D"/>
<path fill-rule="evenodd" clip-rule="evenodd" d="M20 30H18C16.896 30 16 30.896 16 32C16 33.104 16.896 34 18 34H20C21.104 34 22 33.104 22 32C22 30.896 21.104 30 20 30Z" fill="white"/>
</svg>
