<svg width="48" height="48" viewBox="0 0 48 48" fill="none" xmlns="http://www.w3.org/2000/svg">
<path d="M24 48C37.2548 48 48 37.2548 48 24C48 10.7452 37.2548 0 24 0C10.7452 0 0 10.7452 0 24C0 37.2548 10.7452 48 24 48Z" fill="#35BA80"/>
<path d="M18.984 34.74C18.384 34.74 17.772 34.512 17.316 34.056L10.644 27.576C9.69598 26.652 9.67198 25.128 10.596 24.18C11.52 23.232 13.044 23.208 13.992 24.132L18.96 28.968L33.972 13.956C34.908 13.02 36.432 13.02 37.368 13.956C38.304 14.892 38.304 16.416 37.368 17.352L20.688 34.044C20.22 34.512 19.608 34.74 18.984 34.74Z" fill="white"/>
</svg>
