<svg width="30" height="30" viewBox="0 0 30 30" fill="none" xmlns="http://www.w3.org/2000/svg">
<g clip-path="url(#clip0_302_1987)">
<path d="M23.338 12.3182L9.33799 5.31818C8.78548 5.04318 8.16161 4.94529 7.55142 5.03783C6.94124 5.13037 6.37445 5.40885 5.92832 5.83529C5.48219 6.26174 5.17844 6.8154 5.05848 7.42079C4.93852 8.02617 5.00819 8.65383 5.25799 9.21817L7.65799 14.5882C7.71245 14.718 7.74049 14.8574 7.74049 14.9982C7.74049 15.139 7.71245 15.2783 7.65799 15.4082L5.25799 20.7782C5.05469 21.2349 4.96874 21.7352 5.00797 22.2335C5.04719 22.7319 5.21033 23.2126 5.48257 23.6319C5.75481 24.0512 6.12751 24.3958 6.56681 24.6344C7.00611 24.873 7.49807 24.9981 7.99799 24.9982C8.46622 24.9935 8.92748 24.8842 9.34799 24.6782L23.348 17.6782C23.8446 17.4284 24.262 17.0455 24.5537 16.5723C24.8454 16.099 24.9998 15.5541 24.9998 14.9982C24.9998 14.4423 24.8454 13.8973 24.5537 13.4241C24.262 12.9509 23.8446 12.568 23.348 12.3182H23.338ZM22.448 15.8882L8.44799 22.8882C8.26415 22.9764 8.05772 23.0064 7.85638 22.974C7.65503 22.9416 7.4684 22.8485 7.3215 22.707C7.17461 22.5656 7.07447 22.3826 7.03452 22.1826C6.99457 21.9826 7.01672 21.7752 7.09799 21.5882L9.48799 16.2182C9.51893 16.1465 9.54564 16.073 9.56799 15.9982H16.458C16.7232 15.9982 16.9776 15.8928 17.1651 15.7053C17.3526 15.5177 17.458 15.2634 17.458 14.9982C17.458 14.733 17.3526 14.4786 17.1651 14.2911C16.9776 14.1035 16.7232 13.9982 16.458 13.9982H9.56799C9.54564 13.9233 9.51893 13.8499 9.48799 13.7782L7.09799 8.40817C7.01672 8.22114 6.99457 8.01372 7.03452 7.81374C7.07447 7.61376 7.17461 7.43078 7.3215 7.28932C7.4684 7.14787 7.65503 7.05471 7.85638 7.02233C8.05772 6.98995 8.26415 7.0199 8.44799 7.10818L22.448 14.1082C22.6118 14.1921 22.7493 14.3196 22.8452 14.4766C22.9412 14.6337 22.992 14.8141 22.992 14.9982C22.992 15.1822 22.9412 15.3627 22.8452 15.5197C22.7493 15.6768 22.6118 15.8043 22.448 15.8882Z" fill="#0E2339"/>
</g>
<defs>
<clipPath id="clip0_302_1987">
<rect width="30" height="30" fill="white"/>
</clipPath>
</defs>
</svg>
