<svg width="30" height="28" viewBox="0 0 30 28" fill="none" xmlns="http://www.w3.org/2000/svg">
<path d="M15.3866 4.94691L17.3866 6.94691C17.5105 7.07188 17.658 7.17107 17.8205 7.23877C17.983 7.30646 18.1572 7.34131 18.3333 7.34131C18.5093 7.34131 18.6835 7.30646 18.846 7.23877C19.0085 7.17107 19.156 7.07188 19.2799 6.94691C19.4823 6.73452 19.6089 6.46132 19.6403 6.16965C19.6716 5.87797 19.6059 5.58411 19.4533 5.33358H24.3333C24.6869 5.33358 25.026 5.1931 25.2761 4.94305C25.5261 4.693 25.6666 4.35387 25.6666 4.00024C25.6666 3.64662 25.5261 3.30748 25.2761 3.05744C25.026 2.80739 24.6869 2.66691 24.3333 2.66691H19.4533C19.6059 2.41638 19.6716 2.12251 19.6403 1.83084C19.6089 1.53917 19.4823 1.26597 19.2799 1.05358C19.156 0.928606 19.0085 0.829414 18.846 0.761722C18.6835 0.694031 18.5093 0.65918 18.3333 0.65918C18.1572 0.65918 17.983 0.694031 17.8205 0.761722C17.658 0.829414 17.5105 0.928606 17.3866 1.05358L15.3866 3.05358C15.2652 3.18038 15.17 3.32991 15.1066 3.49358C14.9732 3.81819 14.9732 4.1823 15.1066 4.50691C15.17 4.67058 15.2652 4.82011 15.3866 4.94691ZM29.5599 10.1602C29.4965 9.99658 29.4013 9.84705 29.2799 9.72024L27.2799 7.72024C27.156 7.59527 27.0085 7.49608 26.846 7.42839C26.6835 7.3607 26.5093 7.32585 26.3333 7.32585C26.1572 7.32585 25.983 7.3607 25.8205 7.42839C25.658 7.49608 25.5105 7.59527 25.3866 7.72024C25.1842 7.93264 25.0576 8.20584 25.0262 8.49751C24.9949 8.78918 25.0606 9.08305 25.2133 9.33358H20.3333C19.9796 9.33358 19.6405 9.47405 19.3904 9.7241C19.1404 9.97415 18.9999 10.3133 18.9999 10.6669C18.9999 11.0205 19.1404 11.3597 19.3904 11.6097C19.6405 11.8598 19.9796 12.0002 20.3333 12.0002H25.2133C25.0606 12.2508 24.9949 12.5446 25.0262 12.8363C25.0576 13.128 25.1842 13.4012 25.3866 13.6136C25.5105 13.7385 25.658 13.8377 25.8205 13.9054C25.983 13.9731 26.1572 14.008 26.3333 14.008C26.5093 14.008 26.6835 13.9731 26.846 13.9054C27.0085 13.8377 27.156 13.7385 27.2799 13.6136L29.2799 11.6136C29.4013 11.4868 29.4965 11.3372 29.5599 11.1736C29.6933 10.849 29.6933 10.4849 29.5599 10.1602ZM13.6666 11.3336C12.6118 11.3336 11.5806 11.6464 10.7035 12.2324C9.82648 12.8184 9.14289 13.6514 8.73923 14.6259C8.33556 15.6005 8.22994 16.6728 8.43573 17.7074C8.64152 18.742 9.14947 19.6923 9.89535 20.4381C10.6412 21.184 11.5915 21.692 12.6261 21.8978C13.6607 22.1036 14.733 21.9979 15.7076 21.5943C16.6821 21.1906 17.5151 20.507 18.1011 19.63C18.6871 18.7529 18.9999 17.7217 18.9999 16.6669C18.9999 15.2524 18.438 13.8959 17.4378 12.8957C16.4376 11.8955 15.0811 11.3336 13.6666 11.3336ZM13.6666 19.3336C13.1392 19.3336 12.6236 19.1772 12.1851 18.8842C11.7465 18.5911 11.4047 18.1747 11.2029 17.6874C11.0011 17.2001 10.9483 16.664 11.0512 16.1467C11.1541 15.6294 11.408 15.1542 11.781 14.7813C12.1539 14.4084 12.6291 14.1544 13.1463 14.0515C13.6636 13.9486 14.1998 14.0014 14.6871 14.2032C15.1743 14.4051 15.5908 14.7469 15.8838 15.1854C16.1769 15.6239 16.3333 16.1395 16.3333 16.6669C16.3333 17.3742 16.0523 18.0524 15.5522 18.5525C15.0521 19.0526 14.3738 19.3336 13.6666 19.3336ZM25.6666 15.3336C25.313 15.3336 24.9738 15.4741 24.7238 15.7241C24.4737 15.9742 24.3333 16.3133 24.3333 16.6669V23.3336C24.3333 23.6872 24.1928 24.0263 23.9427 24.2764C23.6927 24.5264 23.3535 24.6669 22.9999 24.6669H4.33325C3.97963 24.6669 3.64049 24.5264 3.39044 24.2764C3.14039 24.0263 2.99992 23.6872 2.99992 23.3336V12.6669C2.99992 12.3133 3.14039 11.9742 3.39044 11.7241C3.64049 11.4741 3.97963 11.3336 4.33325 11.3336H6.99992C7.29234 11.3479 7.58134 11.2656 7.82232 11.0993C8.06329 10.933 8.24284 10.692 8.33325 10.4136L9.05325 8.25358C9.1366 7.99676 9.29595 7.7713 9.51023 7.60702C9.7245 7.44274 9.9836 7.34739 10.2533 7.33358H12.3333C12.6869 7.33358 13.026 7.1931 13.2761 6.94305C13.5261 6.693 13.6666 6.35387 13.6666 6.00024C13.6666 5.64662 13.5261 5.30748 13.2761 5.05744C13.026 4.80739 12.6869 4.66691 12.3333 4.66691H10.2533C9.41139 4.66661 8.5909 4.93193 7.90862 5.42509C7.22633 5.91826 6.71703 6.61411 6.45325 7.41358L6.03992 8.66691H4.33325C3.27239 8.66691 2.25497 9.08834 1.50482 9.83848C0.754679 10.5886 0.333252 11.606 0.333252 12.6669V23.3336C0.333252 24.3944 0.754679 25.4119 1.50482 26.162C2.25497 26.9122 3.27239 27.3336 4.33325 27.3336H22.9999C24.0608 27.3336 25.0782 26.9122 25.8283 26.162C26.5785 25.4119 26.9999 24.3944 26.9999 23.3336V16.6669C26.9999 16.3133 26.8594 15.9742 26.6094 15.7241C26.3593 15.4741 26.0202 15.3336 25.6666 15.3336Z" fill="white"/>
</svg>
