<svg width="200" height="200" viewBox="0 0 200 200" fill="none" xmlns="http://www.w3.org/2000/svg">
<path d="M160.827 150.494H174.891V146.018H160.827V150.494Z" fill="#87919C"/>
<path d="M47.6438 99.4966H61.707V95.0206H47.6438V99.4966Z" fill="#87919C"/>
<path d="M168.671 156.138C171.007 156.098 176.995 155.998 179.25 155.972L182.734 155.955L182.552 156.138L182.534 151.662L182.734 151.861C180.399 151.854 174.443 151.832 172.187 151.8L168.671 151.756L168.766 151.662L168.671 156.138ZM168.671 156.138L168.576 151.662L168.574 151.568L168.671 151.567C170.426 151.544 173.949 151.503 175.703 151.489L182.735 151.462L182.935 151.461L182.935 151.662L182.917 156.138L182.916 156.321L182.735 156.32L179.187 156.303C176.947 156.278 170.985 156.177 168.671 156.138Z" fill="#87919C"/>
<path d="M134.48 63.0892C136.815 63.0496 142.804 62.95 145.058 62.924L148.543 62.9068L148.36 63.0892L148.343 58.6132L148.542 58.8128C146.207 58.8056 140.251 58.784 137.995 58.7516L134.48 58.708L134.574 58.6132L134.48 63.0892ZM134.48 63.0892L134.385 58.6132L134.383 58.5192L134.48 58.518C136.234 58.4948 139.758 58.4544 141.512 58.4404L148.543 58.4132L148.744 58.4124L148.743 58.6132L148.725 63.0892L148.724 63.2724L148.543 63.2716L144.996 63.2544C142.755 63.2296 136.793 63.1288 134.48 63.0892Z" fill="#87919C"/>
<path d="M142.323 68.7332C144.659 68.6936 150.648 68.594 152.902 68.568L156.387 68.5508L156.204 68.7332L156.187 64.2572L156.386 64.4568C154.051 64.4496 148.095 64.428 145.839 64.3956L142.323 64.352L142.418 64.2572L142.323 68.7332ZM142.323 68.7332L142.229 64.2572L142.227 64.1632L142.324 64.162C144.078 64.1388 147.601 64.0984 149.355 64.0844L156.387 64.0572L156.587 64.0564L156.587 64.2572L156.569 68.7332L156.568 68.9164L156.387 68.9156L152.839 68.8984C150.599 68.8736 144.637 68.7724 142.323 68.7332Z" fill="#87919C"/>
<path d="M150.136 63.0891H164.199V58.6131H150.136V63.0891Z" fill="#87919C"/>
<path d="M17.2614 156.137H31.3242V151.661H17.2614V156.137Z" fill="#87919C"/>
<path d="M25.1048 22.4495H39.168V17.9735H25.1048V22.4495Z" fill="#87919C"/>
<path d="M17.2609 28.0933C19.5965 28.0537 25.5853 27.9541 27.8397 27.9281L31.3241 27.9109L31.1417 28.0933L31.1241 23.6173L31.3237 23.8169C28.9885 23.8097 23.0325 23.7881 20.7765 23.7557L17.2609 23.7121L17.3557 23.6173L17.2609 28.0933ZM17.2609 28.0933L17.1661 23.6173L17.1641 23.5233L17.2609 23.5221C19.0153 23.4989 22.5389 23.4585 24.2925 23.4445L31.3241 23.4173L31.5249 23.4165L31.5241 23.6173L31.5065 28.0933L31.5057 28.2765L31.3241 28.2757L27.7769 28.2585C25.5365 28.2337 19.5745 28.1329 17.2609 28.0933Z" fill="#87919C"/>
<path d="M160.827 22.4493C163.163 22.4101 169.152 22.3101 171.406 22.2841L174.89 22.2669L174.708 22.4493L174.69 17.9733L174.89 18.1729L167.858 18.1457C166.108 18.1317 162.578 18.0913 160.827 18.0681L160.922 17.9733L160.827 22.4493ZM160.827 22.4493L160.732 17.9733L160.73 17.8793L160.828 17.8781C162.582 17.8549 166.106 17.8145 167.859 17.8005L174.891 17.7733L175.091 17.7725L175.09 17.9729L175.073 22.4489L175.072 22.6321L174.89 22.6313L171.343 22.6141C169.103 22.5901 163.141 22.4889 160.827 22.4493Z" fill="#87919C"/>
<path d="M74.5621 115.344H16.1133V118.913H74.5621V115.344Z" fill="#87919C"/>
<path d="M69.3494 118.913H21.3242V128.759H69.3494V118.913Z" fill="#87919C"/>
<path d="M69.3494 120.858L21.3242 121.811V118.913H69.3494V120.858Z" fill="#C7C7C7"/>
<path d="M61.9157 120.975H28.7617V126.697H61.9157V120.975Z" stroke="#DBDBDB" stroke-miterlimit="10"/>
<path d="M50.8019 123.01H39.8711V124.662H50.8019V123.01Z" fill="#DBDBDB"/>
<path d="M20.9373 185.379H19.3477L23.9741 128.759H28.0309L20.9373 185.379Z" fill="#87919C"/>
<path d="M28.032 128.76L27.5568 132.549H23.668L23.9764 128.76H28.032Z" fill="#C7C7C7"/>
<path d="M69.7381 185.379H71.3277L66.7013 128.759H62.6445L69.7381 185.379Z" fill="#87919C"/>
<path d="M62.6445 128.76L63.1197 132.548H67.0085L66.7001 128.76H62.6445Z" fill="#C7C7C7"/>
<path d="M25.0742 64.114C25.4278 63.8944 25.8702 63.9068 26.2262 64.122C26.323 64.1804 26.4214 64.2364 26.5218 64.2904C26.623 64.3448 26.725 64.3964 26.8278 64.4448C27.2026 64.622 27.457 64.9824 27.4698 65.3968L27.5138 66.8136L32.1286 66.67L32.085 65.254C32.0722 64.8384 32.2998 64.4576 32.6646 64.2584C32.8654 64.1488 33.061 64.028 33.2498 63.8968C33.5898 63.6604 34.0306 63.6276 34.3958 63.8236L35.6418 64.4916L37.8246 60.4212L36.5786 59.7528C36.2138 59.5572 35.997 59.1716 36.0058 58.7576C36.0106 58.5276 36.003 58.298 35.983 58.07C35.947 57.6556 36.1382 57.2556 36.4914 57.0364L37.6954 56.2892L35.2618 52.3656L34.0514 53.1156C33.6994 53.3336 33.2594 53.3212 32.905 53.1072C32.8086 53.0488 32.7098 52.9928 32.6098 52.9388C32.5094 52.8852 32.4082 52.834 32.3062 52.786C31.9302 52.6084 31.6754 52.2464 31.6626 51.8308L31.6198 50.4128L27.005 50.556L27.0498 51.9688C27.063 52.384 26.8362 52.7648 26.4714 52.9644C26.2698 53.0748 26.0738 53.196 25.8842 53.328C25.5442 53.5648 25.103 53.598 24.7374 53.402L23.4918 52.734L21.3086 56.8044L22.5542 57.4724C22.9194 57.6684 23.1362 58.054 23.127 58.4688C23.1218 58.6996 23.1294 58.93 23.149 59.1592C23.1846 59.5732 22.993 59.9728 22.6394 60.192L21.4378 60.9364L23.8718 64.86L25.0742 64.114ZM26.231 56.8264C27.2182 54.9856 29.5134 54.2928 31.3542 55.28C33.195 56.2672 33.8846 58.5608 32.8974 60.4016C31.9102 62.2424 29.6198 62.9336 27.7794 61.9464C25.9382 60.9588 25.2438 58.6668 26.231 56.8264Z" stroke="#87919C" stroke-miterlimit="10"/>
<path d="M165.933 79.508C166.287 79.2884 166.729 79.3008 167.085 79.516C167.182 79.5744 167.28 79.6304 167.381 79.6844C167.482 79.7388 167.584 79.79 167.687 79.8388C168.062 80.016 168.316 80.3764 168.329 80.7908L168.373 82.2076L172.988 82.064L172.944 80.648C172.931 80.2324 173.159 79.8516 173.524 79.6524C173.724 79.5428 173.92 79.422 174.109 79.2908C174.449 79.0544 174.89 79.0216 175.255 79.2176L176.501 79.8856L178.684 75.8152L177.438 75.1468C177.072 74.9512 176.856 74.5656 176.865 74.1516C176.87 73.9216 176.862 73.692 176.842 73.464C176.806 73.0496 176.997 72.6496 177.35 72.4304L178.554 71.6832L176.121 67.7596L174.91 68.5092C174.558 68.7272 174.118 68.7148 173.764 68.5008C173.668 68.4424 173.569 68.3864 173.469 68.3324C173.368 68.2788 173.267 68.2276 173.165 68.1796C172.789 68.002 172.534 67.64 172.522 67.2244L172.479 65.8064L167.864 65.95L167.909 67.3628C167.922 67.778 167.695 68.1588 167.33 68.3584C167.129 68.4688 166.933 68.59 166.743 68.722C166.403 68.9588 165.962 68.992 165.596 68.796L164.351 68.128L162.168 72.1984L163.414 72.8664C163.779 73.0624 163.996 73.448 163.986 73.8628C163.981 74.0936 163.988 74.324 164.008 74.5532C164.044 74.9672 163.852 75.3668 163.499 75.586L162.297 76.3304L164.731 80.254L165.933 79.508ZM167.09 72.22C168.077 70.3792 170.372 69.6864 172.213 70.6736C174.054 71.6608 174.743 73.9544 173.756 75.7952C172.769 77.6356 170.478 78.3272 168.638 77.34C166.797 76.3528 166.102 74.0608 167.09 72.22Z" fill="#87919C"/>
<path d="M31.8906 35.592C31.8906 42.548 37.5322 48.1896 44.4882 48.1896C51.447 48.1896 57.0858 42.548 57.0858 35.592C57.0858 28.6332 51.447 22.9944 44.4882 22.9944C37.5322 22.9948 31.8906 28.6332 31.8906 35.592ZM38.6038 35.592C38.6038 32.342 41.2386 29.7072 44.4886 29.7072C47.7386 29.7072 50.3734 32.342 50.3734 35.592C50.3734 38.842 47.7386 41.4736 44.4886 41.4736C41.2382 41.474 38.6038 38.842 38.6038 35.592Z" fill="#87919C"/>
<path d="M42.0664 23.5168H46.9108L46.6432 20.0876H42.3344L42.0664 23.5168Z" fill="#87919C"/>
<path d="M51.2891 25.1492L54.7147 28.5748L56.9503 25.9604L53.9035 22.9136L51.2891 25.1492Z" fill="#87919C"/>
<path d="M56.6562 32.8232V37.668L60.0854 37.4V33.0912L56.6562 32.8232Z" fill="#87919C"/>
<path d="M55.0233 42.0439L51.5977 45.4695L54.2117 47.7051L57.2585 44.6583L55.0233 42.0439Z" fill="#87919C"/>
<path d="M47.3483 47.4102H42.5039L42.7715 50.8398H47.0803L47.3483 47.4102Z" fill="#87919C"/>
<path d="M38.126 45.7781L34.7004 42.3525L32.4648 44.9669L35.5116 48.0137L38.126 45.7781Z" fill="#87919C"/>
<path d="M32.7612 38.1037V33.2593L29.332 33.5273V37.8361L32.7612 38.1037Z" fill="#87919C"/>
<path d="M34.3914 28.8827L37.8171 25.4571L35.203 23.2219L32.1562 26.2687L34.3914 28.8827Z" fill="#87919C"/>
<path d="M163.739 109.383H160.537V185.379H149.797V109.383H146.602L155.17 99.9741L163.739 109.383Z" fill="#87919C"/>
<path d="M183.418 94.122H180.217V185.379H169.476V94.122H166.281L174.85 84.7136L183.418 94.122Z" fill="#87919C"/>
<path d="M145.59 126.166H142.389V185.379H131.648V126.166H128.453L137.022 116.757L145.59 126.166Z" fill="#87919C"/>
<path d="M16.582 185.379L37.4368 185.282L58.2916 185.247L100.001 185.18L141.711 185.246L162.566 185.281L183.42 185.379L162.566 185.477L141.711 185.512L100.001 185.579L58.2916 185.512L37.4368 185.476L16.582 185.379Z" fill="#0E2339"/>
<path d="M133.808 32.2393H66.1877C62.4117 32.2393 59.3477 35.3553 59.3477 39.2073V178.411C59.3477 182.255 62.4117 185.379 66.1877 185.379H133.808C137.588 185.379 140.656 182.255 140.656 178.411V39.2073C140.656 35.3553 137.588 32.2393 133.808 32.2393ZM136.38 174.107C136.38 177.771 133.636 180.735 130.252 180.735H69.7557C66.3637 180.735 63.6197 177.771 63.6197 174.107V44.4833C63.6197 37.0193 66.3637 36.6553 69.7557 36.6553H81.8717C82.5757 36.6553 83.1517 37.4553 83.1517 38.4473V38.8753C83.1517 41.1993 84.4237 41.2073 85.9877 41.2073H114.012C115.588 41.2073 116.848 41.1993 116.848 38.8753V38.4473C116.848 37.4553 117.416 36.6553 118.132 36.6553H130.252C133.636 36.6553 136.38 37.6473 136.38 44.4833V174.107Z" fill="#0E2339"/>
<path d="M103.823 38.3044H96.179C95.9182 38.3044 95.707 38.0932 95.707 37.8324C95.707 37.5716 95.9182 37.3604 96.179 37.3604H103.823C104.084 37.3604 104.295 37.5716 104.295 37.8324C104.295 38.0932 104.084 38.3044 103.823 38.3044Z" fill="white"/>
<path d="M136.381 44.4833V174.107C136.381 177.771 133.637 180.735 130.253 180.735H69.7571C66.3651 180.735 63.6211 177.771 63.6211 174.107V44.4833C63.6211 37.0193 66.3651 36.6553 69.7571 36.6553H81.8731C82.5771 36.6553 83.1531 37.4553 83.1531 38.4473V38.8753C83.1531 41.1993 84.4251 41.2073 85.9891 41.2073H114.013C115.589 41.2073 116.849 41.1993 116.849 38.8753V38.4473C116.849 37.4553 117.417 36.6553 118.133 36.6553H130.253C133.637 36.6553 136.381 37.6473 136.381 44.4833Z" fill="white"/>
<path d="M79.7799 39.5668C79.7407 39.6056 79.7019 39.644 79.6627 39.6832C79.6403 39.7052 79.6183 39.7276 79.5963 39.75C79.2819 39.4448 78.9071 39.282 78.4687 39.2816C78.0303 39.2816 77.6559 39.444 77.3387 39.7512C77.3179 39.7296 77.2971 39.7072 77.2755 39.6852C77.2371 39.6464 77.1987 39.6076 77.1599 39.5692C77.1591 39.5684 77.1574 39.568 77.1562 39.5672C77.1562 39.5664 77.1562 39.5652 77.1562 39.5644C77.159 39.562 77.1623 39.56 77.1651 39.5572C77.2143 39.5136 77.2622 39.468 77.313 39.426C77.4182 39.3392 77.5331 39.2676 77.6555 39.2076C77.7999 39.1368 77.951 39.084 78.1094 39.0552C78.1842 39.0412 78.2606 39.0344 78.3362 39.0252C78.3618 39.022 78.5294 39.0212 78.5346 39.0216C78.5862 39.0256 78.6379 39.028 78.6895 39.0332C78.8323 39.0488 78.9707 39.0832 79.1059 39.1324C79.2035 39.168 79.2975 39.2124 79.3875 39.264C79.4827 39.3188 79.5726 39.3808 79.6562 39.4524C79.6982 39.4884 79.7387 39.5264 79.7799 39.5636C79.7799 39.5648 79.7799 39.5656 79.7799 39.5668Z" fill="#C7C7C7"/>
<path d="M77.7086 40.1176C77.6466 40.0564 77.5858 39.996 77.5234 39.934C77.7342 39.7272 77.9834 39.5956 78.2762 39.556C78.7138 39.4968 79.0898 39.6296 79.4086 39.9312C79.3458 39.994 79.2846 40.0548 79.223 40.116C79.0138 39.9128 78.7614 39.8028 78.4662 39.8032C78.1714 39.8036 77.9194 39.9132 77.7086 40.1176Z" fill="#C7C7C7"/>
<path d="M79.0381 40.302C78.9773 40.3632 78.9161 40.424 78.8541 40.486C78.7477 40.3824 78.6181 40.3252 78.4661 40.3252C78.3145 40.3256 78.1857 40.3824 78.0781 40.4868C78.0165 40.4252 77.9553 40.364 77.8945 40.3032C78.1873 39.9964 78.7141 39.972 79.0381 40.302Z" fill="#C7C7C7"/>
<path d="M78.6332 40.6532C78.6332 40.7452 78.5588 40.8196 78.4668 40.8196C78.3752 40.8196 78.3008 40.7452 78.3008 40.6532C78.3008 40.5616 78.3752 40.4868 78.4668 40.4868C78.5588 40.4872 78.6332 40.5616 78.6332 40.6532Z" fill="#C7C7C7"/>
<path d="M68.3633 39.9205C68.3633 39.6541 68.5793 39.4385 68.8457 39.4385C69.1121 39.4385 69.3281 39.6545 69.3281 39.9205C69.3281 40.1869 69.1121 40.4025 68.8457 40.4025C68.5793 40.4029 68.3633 40.1869 68.3633 39.9205Z" fill="#C7C7C7"/>
<path d="M69.8828 39.9205C69.8828 39.6541 70.0988 39.4385 70.3652 39.4385C70.6316 39.4385 70.8472 39.6545 70.8472 39.9205C70.8472 40.1869 70.6312 40.4025 70.3652 40.4025C70.0988 40.4029 69.8828 40.1869 69.8828 39.9205Z" fill="#C7C7C7"/>
<path d="M71.4023 39.9205C71.4023 39.6541 71.6183 39.4385 71.8847 39.4385C72.1511 39.4385 72.3671 39.6545 72.3671 39.9205C72.3671 40.1869 72.1511 40.4025 71.8847 40.4025C71.6183 40.4025 71.4023 40.1869 71.4023 39.9205Z" fill="#C7C7C7"/>
<path d="M72.918 39.9205C72.918 39.6541 73.134 39.4385 73.4 39.4385C73.666 39.4385 73.8824 39.6545 73.8824 39.9205C73.8824 40.1869 73.6664 40.4025 73.4 40.4025C73.1336 40.4025 72.918 40.1869 72.918 39.9205Z" fill="#C7C7C7"/>
<path d="M74.4375 39.9205C74.4375 39.6541 74.6535 39.4385 74.9199 39.4385C75.1863 39.4385 75.4019 39.6545 75.4019 39.9205C75.4019 40.1869 75.1859 40.4025 74.9199 40.4025C74.6535 40.4029 74.4375 40.1869 74.4375 39.9205Z" fill="#C7C7C7"/>
<path d="M130.923 40.9759H126.992V39.1519H130.923V40.9759ZM127.198 40.7703H130.717V39.3575H127.198V40.7703Z" fill="#C7C7C7"/>
<path d="M129.851 39.4634H127.32V40.6642H129.851V39.4634Z" fill="#C7C7C7"/>
<path d="M131.271 39.5774H130.922V40.5502H131.271V39.5774Z" fill="#C7C7C7"/>
<path d="M72.8883 173.733H72.5327V175.366H71.8683V174.534H70.6919V175.366H70.0275V173.733H69.6719L71.2799 172.071L72.8883 173.733Z" fill="#87919C"/>
<path d="M130.478 172.071H126.602V172.625H130.478V172.071Z" fill="#87919C"/>
<path d="M130.478 173.441H126.602V173.995H130.478V173.441Z" fill="#87919C"/>
<path d="M130.478 174.812H126.602V175.366H130.478V174.812Z" fill="#87919C"/>
<path d="M101.216 173.775L100.114 174.952L99.0117 173.775L99.2061 173.593L100.114 174.562L101.022 173.593L101.216 173.775Z" fill="#87919C"/>
<path d="M100.112 176.167C99.0078 176.167 98.1094 175.269 98.1094 174.165C98.1094 173.061 99.0078 172.162 100.112 172.162C101.216 172.162 102.114 173.061 102.114 174.165C102.114 175.269 101.216 176.167 100.112 176.167ZM100.112 172.427C99.1534 172.427 98.3738 173.207 98.3738 174.165C98.3738 175.123 99.1534 175.903 100.112 175.903C101.07 175.903 101.85 175.123 101.85 174.165C101.85 173.206 101.07 172.427 100.112 172.427Z" fill="#87919C"/>
<path d="M105.002 97.8553C107.702 97.8393 109.876 95.6377 109.86 92.9405C109.844 90.2377 107.643 88.0665 104.942 88.0825C102.245 88.0981 100.073 90.2969 100.089 92.9969C100.104 95.6941 102.304 97.8709 105.002 97.8553ZM100.683 92.9945C100.669 90.6221 102.577 88.6905 104.947 88.6765C107.317 88.6625 109.248 90.5709 109.263 92.9429C109.277 95.3125 107.368 97.2445 104.996 97.2585C102.629 97.2721 100.697 95.3641 100.683 92.9945ZM105.002 97.8553C107.702 97.8393 109.876 95.6377 109.86 92.9405C109.844 90.2377 107.643 88.0665 104.942 88.0825C102.245 88.0981 100.073 90.2969 100.089 92.9969C100.104 95.6941 102.304 97.8709 105.002 97.8553ZM100.683 92.9945C100.669 90.6221 102.577 88.6905 104.947 88.6765C107.317 88.6625 109.248 90.5709 109.263 92.9429C109.277 95.3125 107.368 97.2445 104.996 97.2585C102.629 97.2721 100.697 95.3641 100.683 92.9945ZM105.002 97.8553C107.702 97.8393 109.876 95.6377 109.86 92.9405C109.844 90.2377 107.643 88.0665 104.942 88.0825C102.245 88.0981 100.073 90.2969 100.089 92.9969C100.104 95.6941 102.304 97.8709 105.002 97.8553ZM100.683 92.9945C100.669 90.6221 102.577 88.6905 104.947 88.6765C107.317 88.6625 109.248 90.5709 109.263 92.9429C109.277 95.3125 107.368 97.2445 104.996 97.2585C102.629 97.2721 100.697 95.3641 100.683 92.9945ZM105.032 103.268C110.724 103.234 115.304 98.5921 115.273 92.9073C115.238 87.2201 110.602 82.6345 104.912 82.6689C99.2276 82.7029 94.6416 87.3425 94.676 93.0297C94.7076 98.7145 99.3472 103.302 105.032 103.268ZM99.3284 93.0029C99.31 89.8877 101.826 87.3397 104.939 87.3213C108.051 87.3033 110.6 89.8193 110.618 92.9345C110.636 96.0497 108.117 98.5953 105.005 98.6137C101.894 98.6317 99.3464 96.1153 99.3284 93.0029ZM100.089 92.9965C100.104 95.6941 102.304 97.8709 105.001 97.8553C107.701 97.8393 109.875 95.6377 109.86 92.9405C109.844 90.2377 107.643 88.0665 104.942 88.0825C102.245 88.0977 100.073 90.2965 100.089 92.9965ZM100.683 92.9945C100.669 90.6221 102.577 88.6905 104.947 88.6765C107.317 88.6625 109.248 90.5709 109.263 92.9429C109.277 95.3125 107.368 97.2445 104.996 97.2585C102.629 97.2721 100.697 95.3641 100.683 92.9945ZM105.002 97.8553C107.702 97.8393 109.876 95.6377 109.86 92.9405C109.844 90.2377 107.643 88.0665 104.942 88.0825C102.245 88.0981 100.073 90.2969 100.089 92.9969C100.104 95.6941 102.304 97.8709 105.002 97.8553ZM100.683 92.9945C100.669 90.6221 102.577 88.6905 104.947 88.6765C107.317 88.6625 109.248 90.5709 109.263 92.9429C109.277 95.3125 107.368 97.2445 104.996 97.2585C102.629 97.2721 100.697 95.3641 100.683 92.9945ZM105.002 97.8553C107.702 97.8393 109.876 95.6377 109.86 92.9405C109.844 90.2377 107.643 88.0665 104.942 88.0825C102.245 88.0981 100.073 90.2969 100.089 92.9969C100.104 95.6941 102.304 97.8709 105.002 97.8553ZM100.683 92.9945C100.669 90.6221 102.577 88.6905 104.947 88.6765C107.317 88.6625 109.248 90.5709 109.263 92.9429C109.277 95.3125 107.368 97.2445 104.996 97.2585C102.629 97.2721 100.697 95.3641 100.683 92.9945Z" fill="#FDD48E"/>
<path d="M102.938 83.1084L106.897 83.0848L106.662 80.2832L103.14 80.304L102.938 83.1084Z" fill="#FDD48E"/>
<path d="M110.48 84.3981L113.297 87.1817L115.112 85.0341L112.607 82.5581L110.48 84.3981Z" fill="#FDD48E"/>
<path d="M114.906 90.6453L114.93 94.6057L117.732 94.3701L117.711 90.8477L114.906 90.6453Z" fill="#FDD48E"/>
<path d="M113.616 98.1909L110.832 101.008L112.98 102.822L115.456 100.317L113.616 98.1909Z" fill="#FDD48E"/>
<path d="M107.37 102.615L103.41 102.638L103.646 105.44L107.168 105.419L107.37 102.615Z" fill="#FDD48E"/>
<path d="M99.8226 101.325L97.0058 98.5413L95.1914 100.689L97.6966 103.164L99.8226 101.325Z" fill="#FDD48E"/>
<path d="M95.3994 95.0772L95.3762 91.1172L92.5742 91.3528L92.595 94.8752L95.3994 95.0772Z" fill="#FDD48E"/>
<path d="M96.6877 87.532L99.4717 84.7152L97.3237 82.9004L94.8477 85.4056L96.6877 87.532Z" fill="#FDD48E"/>
<g opacity="0.5">
<path d="M92.5834 82.0389C91.8114 78.6709 88.4554 76.5669 85.0874 77.3429C81.7234 78.1149 79.6194 81.4709 80.3954 84.8389C81.1674 88.2029 84.5234 90.3069 87.8874 89.5349C91.2554 88.7589 93.3554 85.4029 92.5834 82.0389ZM87.2554 86.7789C85.4154 87.2029 83.5714 86.0469 83.1474 84.2069C82.7234 82.3629 83.8794 80.5189 85.7194 80.0949C87.5634 79.6749 89.4074 80.8269 89.8274 82.6709C90.2514 84.5149 89.0954 86.3549 87.2554 86.7789Z" fill="#FDD48E"/>
<path d="M83.9739 77.8649L86.3175 77.3265L85.8071 75.6973L83.7227 76.1761L83.9739 77.8649Z" fill="#FDD48E"/>
<path d="M88.6172 77.6301L90.6552 78.9065L91.4464 77.3937L89.6336 76.2581L88.6172 77.6301Z" fill="#FDD48E"/>
<path d="M92.0664 80.7465L92.6048 83.0901L94.234 82.5793L93.7552 80.4949L92.0664 80.7465Z" fill="#FDD48E"/>
<path d="M92.2998 85.3884L91.0234 87.4264L92.5362 88.2172L93.6718 86.4048L92.2998 85.3884Z" fill="#FDD48E"/>
<path d="M89.1834 88.8372L86.8398 89.3752L87.3502 91.0044L89.435 90.5256L89.1834 88.8372Z" fill="#FDD48E"/>
<path d="M84.5436 89.072L82.5056 87.7952L81.7148 89.3084L83.5272 90.4436L84.5436 89.072Z" fill="#FDD48E"/>
<path d="M81.0934 85.9557L80.5554 83.6121L78.9258 84.1225L79.4046 86.2069L81.0934 85.9557Z" fill="#FDD48E"/>
<path d="M80.8603 81.3132L82.1371 79.2756L80.6239 78.4844L79.4883 80.2968L80.8603 81.3132Z" fill="#FDD48E"/>
</g>
<g opacity="0.5">
<path d="M119.738 76.0045C119.479 73.0497 116.873 70.8657 113.917 71.1289C110.966 71.3893 108.782 73.9949 109.045 76.9501C109.305 79.9013 111.911 82.0857 114.862 81.8253C117.817 81.5621 119.998 78.9557 119.738 76.0045ZM114.649 79.4073C113.035 79.5513 111.603 78.3509 111.459 76.7365C111.316 75.1185 112.516 73.6869 114.131 73.5429C115.748 73.4029 117.18 74.5997 117.32 76.2169C117.464 77.8353 116.264 79.2637 114.649 79.4073Z" fill="#FDD48E"/>
<path d="M112.909 71.4417L114.966 71.2601L114.723 69.8145L112.895 69.9761L112.909 71.4417Z" fill="#FDD48E"/>
<path d="M116.883 71.7887L118.465 73.1139L119.316 71.9207L117.909 70.7419L116.883 71.7887Z" fill="#FDD48E"/>
<path d="M119.449 74.8448L119.631 76.9008L121.076 76.6584L120.914 74.8296L119.449 74.8448Z" fill="#FDD48E"/>
<path d="M119.103 78.8196L117.777 80.402L118.971 81.2528L120.15 79.8452L119.103 78.8196Z" fill="#FDD48E"/>
<path d="M116.044 81.3848L113.988 81.5664L114.23 83.012L116.059 82.8504L116.044 81.3848Z" fill="#FDD48E"/>
<path d="M112.07 81.0376L110.488 79.7124L109.637 80.9056L111.044 82.0844L112.07 81.0376Z" fill="#FDD48E"/>
<path d="M109.506 77.9815L109.324 75.9255L107.879 76.1679L108.041 77.9967L109.506 77.9815Z" fill="#FDD48E"/>
<path d="M109.852 74.0069L111.177 72.4245L109.984 71.5737L108.805 72.9813L109.852 74.0069Z" fill="#FDD48E"/>
</g>
<path d="M120.806 119.016H79.1953V122.572H120.806V119.016Z" stroke="#FDD48E" stroke-width="0.5" stroke-miterlimit="10"/>
<path d="M81.1887 119.692H79.8711V121.896H81.1887V119.692Z" fill="#FDD48E"/>
<path d="M83.0051 119.692H81.6875V121.896H83.0051V119.692Z" fill="#FDD48E"/>
<path d="M84.8254 119.692H83.5078V121.896H84.8254V119.692Z" fill="#FDD48E"/>
<path d="M86.6418 119.692H85.3242V121.896H86.6418V119.692Z" fill="#FDD48E"/>
<path d="M88.4621 119.692H87.1445V121.896H88.4621V119.692Z" fill="#FDD48E"/>
<path d="M90.2824 119.692H88.9648V121.896H90.2824V119.692Z" fill="#FDD48E"/>
<path d="M92.0989 119.692H90.7812V121.896H92.0989V119.692Z" fill="#FDD48E"/>
<path d="M93.9192 119.692H92.6016V121.896H93.9192V119.692Z" fill="#FDD48E"/>
<path d="M95.7395 119.692H94.4219V121.896H95.7395V119.692Z" fill="#FDD48E"/>
<path d="M97.5559 119.692H96.2383V121.896H97.5559V119.692Z" fill="#FDD48E"/>
<path d="M99.3762 119.692H98.0586V121.896H99.3762V119.692Z" fill="#FDD48E"/>
<path d="M101.193 119.692H99.875V121.896H101.193V119.692Z" fill="#FDD48E"/>
<path d="M92.5189 115.15C91.8753 115.15 91.3633 114.631 91.3633 113.995V112.571C91.3633 112.447 91.4593 112.351 91.5833 112.351C91.7033 112.351 91.8069 112.447 91.8069 112.571V113.995C91.8069 114.386 92.1269 114.706 92.5185 114.706C92.9141 114.706 93.2301 114.386 93.2301 113.995V112.571C93.2301 112.447 93.3301 112.351 93.4541 112.351C93.5781 112.351 93.6741 112.447 93.6741 112.571V113.995C93.6745 114.631 93.1589 115.15 92.5189 115.15Z" fill="#0E2339"/>
<path d="M95.5528 114.063H95.0612V114.93C95.0612 115.05 94.9612 115.15 94.8372 115.15C94.7172 115.15 94.6172 115.05 94.6172 114.93V112.572C94.6172 112.448 94.7168 112.352 94.8372 112.352H94.8412H95.5528C96.0284 112.352 96.4124 112.735 96.4124 113.211C96.412 113.679 96.0284 114.063 95.5528 114.063ZM95.0612 113.619H95.5528C95.7848 113.619 95.9648 113.435 95.9688 113.211C95.9648 112.979 95.7848 112.795 95.5528 112.795H95.0612V113.619Z" fill="#0E2339"/>
<path d="M96.9492 114.93V112.572C96.9492 112.448 97.0452 112.352 97.1692 112.352H97.6408C98.4124 112.352 99.036 112.979 99.036 113.747C99.036 114.523 98.4124 115.15 97.6408 115.15H97.1692C97.0452 115.15 96.9492 115.05 96.9492 114.93ZM97.3928 114.707H97.6408C98.1684 114.703 98.592 114.279 98.592 113.747C98.592 113.223 98.1684 112.796 97.6408 112.796H97.3928V114.707Z" fill="#0E2339"/>
<path d="M100.991 114.49H100.019L99.8234 115.01C99.7874 115.098 99.7034 115.15 99.6154 115.15C99.5874 115.15 99.5634 115.146 99.5394 115.138C99.4234 115.095 99.3674 114.966 99.4074 114.85L100.291 112.496C100.327 112.408 100.415 112.352 100.503 112.356C100.595 112.352 100.679 112.408 100.715 112.496L101.598 114.85C101.639 114.966 101.582 115.094 101.466 115.138C101.446 115.147 101.419 115.15 101.391 115.15C101.303 115.15 101.219 115.098 101.187 115.01L100.991 114.49ZM100.827 114.051L100.503 113.191L100.179 114.051H100.827Z" fill="#0E2339"/>
<path d="M103.458 112.795H102.822V114.93C102.822 115.054 102.727 115.15 102.603 115.15C102.483 115.15 102.383 115.054 102.383 114.93V112.795H101.751C101.627 112.795 101.531 112.691 101.531 112.571C101.531 112.447 101.627 112.351 101.751 112.351H103.458C103.578 112.351 103.678 112.447 103.678 112.571C103.678 112.691 103.578 112.795 103.458 112.795Z" fill="#0E2339"/>
<path d="M104.34 114.93V112.572C104.34 112.448 104.436 112.352 104.56 112.352H104.564C104.564 112.352 104.564 112.352 104.572 112.352H105.867C105.983 112.352 106.087 112.448 106.087 112.572C106.087 112.696 105.983 112.796 105.867 112.796H104.783V113.527H105.715C105.835 113.527 105.935 113.631 105.935 113.747C105.935 113.871 105.835 113.971 105.715 113.971H104.783V114.707H105.867C105.983 114.707 106.087 114.807 106.087 114.931C106.087 115.051 105.983 115.151 105.867 115.151H104.572C104.564 115.151 104.564 115.147 104.564 115.147L104.56 115.151C104.436 115.15 104.34 115.05 104.34 114.93Z" fill="#0E2339"/>
<path d="M106.921 114.583C107.085 114.583 107.221 114.719 107.221 114.882C107.221 115.046 107.085 115.178 106.921 115.178C106.757 115.178 106.625 115.046 106.625 114.882C106.625 114.719 106.757 114.583 106.921 114.583Z" fill="#0E2339"/>
<path d="M107.839 114.583C108.003 114.583 108.139 114.719 108.139 114.882C108.139 115.046 108.003 115.178 107.839 115.178C107.675 115.178 107.543 115.046 107.543 114.882C107.543 114.719 107.675 114.583 107.839 114.583Z" fill="#0E2339"/>
<path d="M108.761 114.583C108.924 114.583 109.06 114.719 109.06 114.882C109.06 115.046 108.924 115.178 108.761 115.178C108.597 115.178 108.465 115.046 108.465 114.882C108.464 114.719 108.596 114.583 108.761 114.583Z" fill="#0E2339"/>
<path d="M157.639 131.233C151.472 141.747 141.788 151.145 139.219 152.101C136.422 153.142 126.002 149.949 120.818 148.081C119.12 147.469 122.591 135.52 124.419 134.905C126.248 134.29 134.325 139.193 136.271 138.717C136.882 138.567 147.642 132.291 153.547 128.341C159.052 124.657 159.512 128.041 157.639 131.233Z" fill="#AD6359"/>
<path d="M121.578 150.287L126.256 134.542C126.256 134.542 134.387 138.39 135.735 138.083C137.083 137.776 149.56 130.109 154.102 127.581C158.644 125.053 162.082 126.66 156.312 134.575C150.083 143.121 142.865 151.278 140.041 152.431C136.323 153.949 121.578 150.287 121.578 150.287Z" fill="#FDD48E"/>
<path d="M139.224 144.764C139.032 145.28 138.872 145.812 138.832 146.384C139.188 145.928 139.42 145.432 139.624 144.92C139.812 144.404 139.976 143.88 140.012 143.304C139.664 143.76 139.428 144.256 139.224 144.764ZM138.756 136.544C138.608 136.628 138.46 136.708 138.32 136.788C138.72 136.916 139.128 137.012 139.56 137.044C139.304 136.844 139.032 136.684 138.756 136.544ZM131.98 149.592C131.468 149.396 130.94 149.24 130.364 149.196C130.82 149.552 131.316 149.788 131.828 149.992C132.344 150.18 132.868 150.34 133.444 150.38C132.988 150.028 132.492 149.796 131.98 149.592ZM130.012 140.392C129.776 139.896 129.52 139.408 129.144 138.976C129.216 139.544 129.396 140.06 129.616 140.568C129.848 141.068 130.108 141.556 130.484 141.984C130.416 141.416 130.224 140.896 130.012 140.392ZM146.764 136.888C146.268 137.116 145.78 137.376 145.344 137.752C145.916 137.68 146.436 137.492 146.94 137.276C147.436 137.048 147.924 136.792 148.36 136.412C147.788 136.484 147.272 136.672 146.764 136.888ZM123.14 145.032L122.992 145.532C123.42 145.328 123.836 145.092 124.212 144.764C123.836 144.812 123.484 144.908 123.14 145.032Z" fill="white"/>
<path d="M125.394 149.966C125.637 149.441 125.767 148.844 125.945 148.294C126.106 147.795 126.276 147.298 126.43 146.797C126.768 145.704 127.114 144.614 127.446 143.519C127.778 142.428 128.116 141.338 128.438 140.244C128.758 139.155 129.116 138.071 129.376 136.966C129.386 136.924 129.321 136.904 129.304 136.944C128.833 137.978 128.469 139.064 128.09 140.134C127.717 141.19 127.376 142.259 127.047 143.329C126.712 144.42 126.407 145.52 126.113 146.622C125.971 147.153 125.848 147.689 125.722 148.224C125.589 148.788 125.396 149.373 125.34 149.949C125.337 149.98 125.38 149.996 125.394 149.966Z" fill="#0E2339"/>
<path opacity="0.1" d="M128.902 151.838C133.18 152.604 138.104 153.221 140.042 152.43C142.867 151.278 150.085 143.124 156.315 134.574C159.978 129.544 159.925 127.064 158.237 126.568L128.902 151.838Z" fill="black"/>
<path d="M131.631 109.44C130.734 105.661 127.779 102.907 124.241 102.083L126.113 109.971L122.182 112.513L117.529 112.008L115.656 104.114C112.861 106.446 111.463 110.233 112.36 114.012C113.621 119.33 118.958 122.624 124.282 121.361C129.6 120.1 132.893 114.758 131.631 109.44Z" fill="#DBDBDB"/>
<path d="M125.496 169.396C126.393 173.175 129.348 175.929 132.886 176.753L131.014 168.864L134.945 166.322L139.598 166.828L141.471 174.722C144.266 172.39 145.664 168.603 144.767 164.824C143.505 159.506 138.169 156.212 132.845 157.474C127.527 158.736 124.234 164.078 125.496 169.396Z" fill="#DBDBDB"/>
<path d="M127.03 113.872L118.445 115.909L129.563 162.777L138.147 160.741L127.03 113.872Z" fill="#DBDBDB"/>
<path d="M127.777 128.255L124.242 129.094L128.821 148.395L132.356 147.556L127.777 128.255Z" fill="#C7C7C7"/>
<path d="M129.339 147.459C130.159 145.934 127.893 145.841 127.893 145.841C127.893 145.841 131.188 145.189 131.426 143.29C131.65 141.459 128.908 141.442 128.711 141.439C128.885 141.403 131.897 140.725 131.939 138.792C131.981 136.783 129.226 137.239 129.048 137.269C129.202 137.184 131.214 136.018 130.912 134.542C130.392 132.006 124.362 134.853 122.379 134.174L121.137 130.473C120.968 131.208 120.884 131.955 119.898 133.15C118.975 134.268 118.351 135.007 118.154 135.893C117.833 137.351 119.01 137.99 119.01 137.99C119.01 137.99 117.296 138.649 117.214 140.17C117.175 140.951 118.389 141.709 118.389 141.709C118.389 141.709 117.038 142.294 117.051 143.651C117.057 144.734 118.274 145.326 118.274 145.326C118.274 145.326 117.238 146.49 117.604 147.594C118.336 149.823 127.58 150.723 129.339 147.459Z" fill="#AD6359"/>
<path d="M121.963 133.368L121.151 130.55C121.098 130.453 121.043 130.352 120.986 130.263C119.022 127.07 114.257 126.464 114.947 129.064C115.468 131.042 118.775 132.11 119.015 134.214L119.02 134.212L121.963 133.368Z" fill="#AD6359"/>
<path d="M118.453 145.449C118.422 145.444 118.409 145.485 118.439 145.496C121.407 146.534 124.985 146.765 128.016 145.859C128.116 145.829 128.111 145.655 127.995 145.666C124.693 146.003 121.735 146.038 118.453 145.449Z" fill="#0E2339"/>
<path d="M118.341 141.723C118.306 141.717 118.295 141.776 118.331 141.788C121.395 142.841 125.434 142.99 128.804 141.535C128.919 141.485 128.973 141.324 128.836 141.372C126.521 142.169 121.294 142.268 118.341 141.723Z" fill="#0E2339"/>
<path d="M129.249 137.086C125.963 138.357 122.601 138.447 119.134 138.042C119.089 138.037 119.086 138.101 119.123 138.116C120.765 138.776 123.001 138.804 124.743 138.678C126.412 138.557 127.893 138.113 129.293 137.202C129.347 137.166 129.319 137.059 129.249 137.086Z" fill="#0E2339"/>
<path d="M48.1138 184.316C49.273 184.762 82.9378 185.373 84.2554 184.62C84.399 184.536 84.3594 183.05 84.8546 179.207C84.8794 179.024 85.647 178.31 86.8458 177.305C91.3482 173.531 101.927 165.576 101.927 165.576L85.1274 150.98L68.847 166.983L64.6122 171.144C64.6122 171.144 50.8578 178.571 49.4958 179.552C48.1438 180.537 46.955 183.87 48.1138 184.316Z" fill="#AD6359"/>
<path d="M48.1144 184.315C49.2748 184.764 82.9392 185.373 84.2552 184.622C84.3976 184.537 84.3576 183.052 84.8556 179.206C84.8776 179.024 85.6468 178.313 86.8472 177.304C88.412 175.992 89.1556 175.393 91.4852 173.579L70.126 165.726L68.8456 166.985L64.6132 171.146C64.6132 171.146 50.8576 178.571 49.4972 179.553C48.1452 180.536 46.954 183.87 48.1144 184.315Z" fill="#87919C"/>
<path d="M45.7928 184.78C46.9624 185.187 82.8308 185.579 84.122 184.785C84.4256 184.598 84.7036 182.515 84.9264 179.661C84.9544 179.303 88.5872 176.399 89.0848 175.861L67.1052 168.458L64.3296 171.07C64.3296 171.07 48.154 178.597 46.832 179.621C45.5164 180.644 44.6236 184.374 45.7928 184.78Z" fill="#FDD48E"/>
<path d="M46.2891 183.442C51.9243 183.369 76.9207 183.608 82.4967 183.965C82.5423 183.968 82.5415 183.999 82.4963 184C76.9123 184.194 51.9187 183.771 46.2879 183.534C46.1691 183.529 46.1699 183.443 46.2891 183.442Z" fill="#0E2339"/>
<path d="M62.5353 171.307C64.7569 170.919 67.4645 171.291 69.1401 172.89C69.2053 172.952 69.1161 173.043 69.0445 173.02C66.8653 172.305 64.8281 171.839 62.5413 171.587C62.3797 171.569 62.3761 171.335 62.5353 171.307Z" fill="#0E2339"/>
<path d="M60.9221 172.252C63.1437 171.865 65.8509 172.237 67.5265 173.836C67.5917 173.898 67.5025 173.989 67.4309 173.966C65.2517 173.251 63.2145 172.785 60.9277 172.533C60.7665 172.515 60.7629 172.28 60.9221 172.252Z" fill="#0E2339"/>
<path d="M59.3127 173.198C61.5343 172.81 64.2419 173.182 65.9175 174.782C65.9823 174.844 65.8935 174.935 65.8219 174.911C63.6427 174.196 61.6055 173.73 59.3183 173.478C59.1571 173.461 59.1535 173.226 59.3127 173.198Z" fill="#0E2339"/>
<path d="M57.6994 174.144C59.921 173.756 62.6286 174.128 64.3042 175.727C64.3694 175.789 64.2802 175.88 64.2086 175.857C62.0294 175.142 59.9922 174.676 57.7054 174.424C57.5438 174.406 57.5402 174.172 57.6994 174.144Z" fill="#0E2339"/>
<path d="M59.4557 169.301C61.0093 170.539 63.0449 171.061 64.8673 171.76C65.0565 171.832 65.2097 171.655 65.2185 171.487C65.2549 171.481 65.2857 171.453 65.2717 171.408C64.6897 169.549 63.4009 167.567 61.9169 166.29C61.0009 165.501 59.3849 164.943 58.4997 166.132C57.6617 167.257 58.5485 168.579 59.4557 169.301ZM58.9121 167.511C58.5497 165.074 61.1461 166.381 61.7985 166.989C62.2177 167.38 62.5973 167.829 62.9585 168.273C63.7157 169.203 64.3265 170.222 64.9837 171.219C64.1093 170.82 63.2089 170.5 62.3205 170.135C61.2621 169.699 59.1121 168.854 58.9121 167.511Z" fill="#0E2339"/>
<path d="M72.7134 168.116C72.1938 166.728 70.4862 166.816 69.3866 167.318C67.6062 168.133 65.8178 169.679 64.7422 171.304C64.7158 171.344 64.7378 171.378 64.7714 171.394C64.7326 171.558 64.831 171.771 65.0326 171.754C66.9778 171.588 69.0778 171.652 70.9142 170.895C71.9866 170.453 73.205 169.43 72.7134 168.116ZM67.9306 170.9C66.9758 171.004 66.0218 171.062 65.0714 171.202C65.9794 170.427 66.8494 169.617 67.8354 168.934C68.3058 168.608 68.795 168.283 69.3062 168.024C70.1018 167.621 72.959 167.086 71.9342 169.326C71.3686 170.561 69.0682 170.775 67.9306 170.9Z" fill="#0E2339"/>
<path d="M68.6133 166.09L89.3801 176.851C89.3801 176.851 111.014 157.268 112.996 157.123C114.92 156.983 144.083 176.726 158.735 176.788C173.912 176.851 174.679 160.951 174.679 160.951L152.541 155.867C136.583 148.002 119.96 133.876 109.089 135.194C97.2813 136.625 68.6133 166.09 68.6133 166.09Z" fill="#37474F"/>
<path d="M68.6133 166.09L89.3801 176.851C89.3801 176.851 111.014 157.268 112.996 157.123C114.92 156.983 144.083 176.726 158.735 176.788C173.912 176.851 174.679 160.951 174.679 160.951L152.541 155.867C136.583 148.002 119.96 133.876 109.089 135.194C97.2813 136.625 68.6133 166.09 68.6133 166.09Z" fill="#37474F"/>
<path d="M73.6857 163.35C77.1913 165.083 76.2081 164.539 79.6953 166.309C81.4017 167.175 89.9889 171.507 91.4461 172.58C91.4781 172.604 91.4489 172.66 91.4113 172.647C89.6949 172.073 81.2041 167.556 79.5137 166.659C76.0597 164.825 77.0705 165.316 73.6361 163.446C73.5713 163.411 73.6197 163.318 73.6857 163.35Z" fill="#0E2339"/>
<path d="M93.0565 171.891C97.1161 168.311 110.419 156.657 110.959 156.223C111.393 155.875 111.832 155.421 112.343 155.185C112.779 154.983 113.208 155.094 113.625 155.288C114.239 155.575 114.842 155.89 115.452 156.188C116.651 156.773 117.851 157.359 119.051 157.945C123.703 160.216 128.329 162.546 133.018 164.742C137.526 166.854 140.745 168.842 145.454 170.466C150.137 172.081 154.977 173.31 159.899 173.91C160.506 173.984 161.114 174.047 161.723 174.104C161.767 174.108 161.766 174.176 161.721 174.174C156.885 173.939 152.125 172.95 147.504 171.529C142.839 170.095 139.674 168.233 135.243 166.195C130.652 164.082 126.126 161.821 121.6 159.572C119.21 158.385 116.826 157.186 114.43 156.012C113.887 155.746 113.113 155.169 112.492 155.455C112.224 155.578 112 155.796 111.776 155.982C111.51 156.203 111.245 156.424 110.979 156.645C109.952 157.5 93.6465 171.545 93.1117 171.949C93.0717 171.979 93.0173 171.925 93.0565 171.891Z" fill="#0E2339"/>
<path d="M80.0742 172.032L107.566 161.004C100.542 166.748 89.3782 176.852 89.3782 176.852L80.0742 172.032Z" fill="#0E2339"/>
<path d="M174.679 160.952C174.679 160.952 173.911 176.852 158.735 176.788C145.999 176.736 122.291 161.808 115.051 158L139.195 148.312C143.603 151.004 148.099 153.676 152.543 155.868L174.679 160.952Z" fill="#0E2339"/>
<path d="M174.678 160.951C174.678 160.951 176.892 177.134 169.47 182.453C162.049 187.771 109.536 184.771 101.677 181.842C93.818 178.913 94.1368 166.037 102.984 163.441C111.398 160.971 146.726 161.151 147.612 160.842C147.834 160.765 144.577 158.611 144.597 158.49L151.699 154.449L174.678 160.951Z" fill="#37474F"/>
<path d="M164.173 161.839C164.186 161.778 164.281 161.802 164.278 161.861C164.199 163.481 164.725 165.214 165.735 166.49C166.893 167.953 168.659 168.822 170.253 169.719C170.407 169.806 170.277 170.046 170.117 169.99C169.135 169.648 168.175 169.171 167.291 168.622C166.486 168.122 165.749 167.507 165.203 166.725C164.199 165.283 163.808 163.564 164.173 161.839Z" fill="#0E2339"/>
<path d="M148.258 159.355C148.642 158.906 149.058 158.481 149.458 158.046C150.403 157.017 151.353 155.983 152.34 154.994C152.434 154.901 152.602 155.046 152.515 155.15C151.844 155.951 151.138 156.723 150.442 157.503C150.086 157.902 149.728 158.3 149.368 158.696C149.031 159.066 148.619 159.43 148.362 159.862C148.096 160.31 148.402 160.717 148.876 160.789C149.3 160.854 149.703 160.654 150.042 160.418C150.81 159.881 151.43 159.092 152.079 158.424C152.476 158.015 152.873 157.607 153.276 157.203C153.704 156.775 154.158 156.37 154.584 155.942C154.612 155.914 154.661 155.957 154.636 155.987C154.258 156.459 153.907 156.955 153.529 157.429C153.151 157.901 152.768 158.369 152.38 158.833C152.011 159.272 151.631 159.701 151.241 160.121C150.91 160.477 150.536 160.823 150.102 161.052C149.402 161.423 148.215 161.457 147.891 160.561C147.731 160.117 147.974 159.685 148.258 159.355Z" fill="#0E2339"/>
<path d="M102.766 181.938C105.508 182.111 108.244 182.391 110.987 182.571C113.708 182.75 116.431 182.885 119.155 182.98C124.627 183.17 130.104 183.203 135.579 183.067C141.11 182.929 147.082 182.643 152.593 182.125C155.23 181.878 157.901 181.693 160.516 181.25C162.875 180.851 165.037 179.973 166.862 178.354C170.562 175.07 172.164 170.071 172.945 165.263C173.049 164.618 173.14 163.971 173.222 163.322C173.227 163.278 173.294 163.282 173.289 163.327C172.75 168.269 171.751 173.402 168.458 177.249C167.033 178.913 165.254 180.25 163.206 180.967C160.709 181.842 157.976 181.952 155.37 182.189C149.838 182.692 143.841 183.005 138.29 183.189C132.705 183.375 127.113 183.397 121.527 183.233C115.942 183.069 110.358 182.744 104.795 182.223C104.115 182.16 103.438 182.09 102.761 182C102.723 181.995 102.726 181.936 102.766 181.938Z" fill="#0E2339"/>
<path d="M121.004 161.618C122.743 161.441 124.478 161.269 126.224 161.165C127.986 161.059 129.75 160.98 131.514 160.909C135.004 160.768 138.5 160.657 141.992 160.648C143.977 160.642 145.956 160.72 147.937 160.833C148.001 160.836 147.991 160.927 147.93 160.93C144.431 161.092 140.935 161.157 137.434 161.235C133.94 161.313 130.448 161.465 126.959 161.643C124.98 161.744 123 161.801 121.02 161.875C120.875 161.881 120.858 161.633 121.004 161.618Z" fill="#0E2339"/>
<path d="M144.196 158.297C145.573 158.937 146.853 159.753 148.101 160.615C149.333 161.465 150.589 162.352 151.69 163.369C151.721 163.398 151.676 163.437 151.644 163.42C150.314 162.732 149.045 161.889 147.785 161.079C146.52 160.267 145.263 159.439 144.104 158.478C144.023 158.41 144.082 158.244 144.196 158.297Z" fill="#0E2339"/>
<path d="M144.824 159.462L175.708 163.029C175.706 162.394 169.567 131.315 161.59 126.491C160.057 125.563 157.309 125.619 154.86 127.858C150.411 131.926 144.423 159.044 144.824 159.462Z" fill="#FDD48E"/>
<path d="M164.434 129.348C163.954 129.572 163.482 129.828 163.066 130.188C163.634 130.116 164.154 129.932 164.658 129.716C164.666 129.712 164.674 129.708 164.682 129.704C164.598 129.58 164.518 129.464 164.434 129.348ZM158.938 150.692C158.438 150.924 157.954 151.184 157.522 151.56C158.09 151.492 158.61 151.304 159.114 151.088C159.61 150.856 160.098 150.596 160.534 150.22C159.962 150.288 159.446 150.476 158.938 150.692ZM172.63 149.788C172.518 149.868 172.402 149.956 172.294 150.052C172.426 150.036 172.554 150.012 172.682 149.984C172.666 149.92 172.65 149.852 172.63 149.788ZM146.254 152.02C146.254 152.016 146.25 152.016 146.25 152.012C146.198 152.24 146.146 152.46 146.094 152.68C146.27 153.008 146.474 153.324 146.726 153.612C146.658 153.044 146.47 152.524 146.254 152.02ZM164.95 142.44C164.718 141.94 164.458 141.456 164.086 141.02C164.154 141.592 164.342 142.108 164.558 142.616C164.79 143.112 165.046 143.6 165.422 144.032C165.354 143.464 165.166 142.944 164.95 142.44ZM157.458 126.268C157.43 126.276 157.406 126.284 157.382 126.296C157.414 126.336 157.446 126.376 157.482 126.416C157.478 126.368 157.47 126.316 157.458 126.268ZM152.614 144.648C152.102 144.452 151.574 144.296 150.998 144.252C151.454 144.608 151.95 144.844 152.462 145.048C152.978 145.236 153.502 145.396 154.078 145.436C153.622 145.084 153.126 144.852 152.614 144.648ZM175.106 159.912C174.986 159.86 174.866 159.808 174.746 159.76C174.23 159.572 173.706 159.408 173.134 159.368C173.582 159.724 174.082 159.956 174.594 160.16C174.794 160.236 174.998 160.304 175.202 160.364C175.174 160.22 175.142 160.068 175.106 159.912ZM165.854 155.704C165.662 156.22 165.502 156.748 165.462 157.32C165.814 156.868 166.05 156.368 166.254 155.86C166.446 155.344 166.602 154.82 166.646 154.244C166.29 154.7 166.058 155.196 165.854 155.704ZM153.258 158.004C153.066 158.52 152.906 159.044 152.866 159.62C153.222 159.164 153.454 158.668 153.658 158.156C153.846 157.64 154.01 157.112 154.046 156.54C153.698 156.992 153.462 157.488 153.258 158.004ZM156.614 135.784C156.422 136.3 156.262 136.828 156.226 137.404C156.574 136.948 156.81 136.448 157.018 135.94C157.206 135.424 157.366 134.896 157.406 134.324C157.05 134.78 156.822 135.276 156.614 135.784Z" fill="white"/>
<path d="M164.976 128.722C170.714 133.137 185.839 150.984 182.678 155.218C179.494 159.483 157.847 158.043 151.524 156.22C149.644 155.678 154.47 143.713 156.477 143.12C158.148 142.626 167.529 145.173 167.698 144.629C167.89 144.015 165.812 140.058 162.46 132.829C158.595 124.493 162.441 126.772 164.976 128.722Z" fill="#AD6359"/>
<path d="M147.233 141.045C142.898 141.156 141.802 141.85 138.094 140.001C135.661 138.788 133.842 139.82 135.496 142.114C138.2 145.867 143.822 146.898 145.875 146.694L147.233 141.045Z" fill="#AD6359"/>
<path d="M159.163 143.262C159.163 143.262 153.965 141.406 149.334 141.067C146.131 140.833 139.107 141.1 133.647 148.978C132.353 150.846 131.833 154.427 135.056 152.144C137.345 150.522 138.307 148.801 139.811 148.1C139.811 148.1 139.69 152.733 141.612 153.958C142.471 154.505 144.851 155.943 146.864 156.799C146.864 156.799 147.169 156.41 147.484 155.864C147.484 155.864 149.388 156.838 152.531 156.005L159.163 143.262Z" fill="#AD6359"/>
<path d="M146.24 141.332C144.895 142.343 142.08 144.535 140.4 147.128C138.535 150.009 135.718 156.061 137.858 157.416C139.428 158.409 140.707 156.193 140.707 156.193C140.707 156.193 140.07 158.94 141.684 159.528C143.155 160.063 144.042 158.289 144.042 158.289C144.042 158.289 143.942 160.022 145.458 160.265C147.281 160.557 147.192 156.878 149.294 155.577C149.767 155.285 146.24 141.332 146.24 141.332Z" fill="#AD6359"/>
<path d="M143.772 148.591C142.663 149.75 140.819 153.027 140.672 156.131C140.669 156.201 140.72 156.241 140.737 156.178C141.624 152.795 143.098 149.83 143.799 148.609C143.808 148.593 143.784 148.579 143.772 148.591Z" fill="#0E2339"/>
<path d="M146.625 150.559C145.771 151.657 144.021 155.12 143.98 158.27C143.98 158.34 144.034 158.377 144.048 158.313C144.829 154.741 146.026 151.836 146.653 150.575C146.662 150.558 146.636 150.545 146.625 150.559Z" fill="#0E2339"/>
<path d="M139.807 148.072C138.494 148.707 137.707 149.534 136.676 150.536C136.166 151.031 135.646 151.52 135.084 151.956C134.571 152.354 133.818 152.951 133.14 152.574C132.763 152.364 132.688 151.88 132.699 151.488C132.711 151.046 133.003 150.188 133.198 149.791C133.208 149.771 133.173 149.753 133.162 149.773C132.981 150.127 132.639 150.917 132.564 151.309C132.496 151.664 132.464 152.069 132.618 152.408C132.946 153.136 133.861 153.087 134.462 152.772C134.822 152.584 135.148 152.322 135.462 152.066C135.765 151.819 136.056 151.557 136.34 151.288C136.923 150.736 137.473 150.151 138.05 149.592C138.684 148.978 139.138 148.654 139.835 148.115C139.859 148.097 139.833 148.06 139.807 148.072Z" fill="#0E2339"/>
<path d="M137.719 153.409C137.946 152.563 139.338 148.963 139.84 148.101C139.853 148.079 139.823 148.058 139.807 148.078C138.9 149.277 137.619 152.273 137.359 153.207C137.103 154.131 136.826 155.304 136.984 156.26C137.222 157.703 138.225 157.818 138.59 157.83C139.026 157.844 139.438 157.685 139.785 157.426C140.171 157.137 140.504 156.616 140.724 156.196C140.736 156.174 140.705 156.151 140.691 156.173C140.285 156.824 139.548 157.523 138.747 157.549C138.399 157.561 138.029 157.463 137.775 157.216C137.475 156.925 137.384 156.492 137.352 156.092C137.279 155.186 137.486 154.279 137.719 153.409Z" fill="#0E2339"/>
<path d="M159.166 143.262L154.812 158.416C154.812 158.416 181.905 159.96 183.407 155.04C184.908 150.12 171.818 134.003 166.389 129.576C160.098 124.447 159.759 126.602 161.807 131.732C163.952 137.104 167.645 144.774 167.645 144.774L159.166 143.262Z" fill="#FDD48E"/>
<path d="M165.855 155.704C165.663 156.22 165.503 156.748 165.463 157.32C165.815 156.868 166.051 156.368 166.255 155.86C166.447 155.344 166.603 154.82 166.647 154.244C166.291 154.7 166.059 155.196 165.855 155.704ZM172.347 138.948C171.831 138.76 171.299 138.6 170.731 138.56C171.183 138.916 171.679 139.148 172.191 139.352C172.707 139.54 173.231 139.704 173.807 139.744C173.355 139.388 172.855 139.156 172.347 138.948ZM182.575 154.024C182.347 153.524 182.087 153.036 181.707 152.608C181.779 153.172 181.967 153.692 182.179 154.196C182.411 154.696 182.671 155.184 183.047 155.616C182.979 155.044 182.791 154.532 182.575 154.024ZM173.711 149.188C173.339 149.36 172.975 149.548 172.631 149.788C172.519 149.868 172.403 149.956 172.295 150.052C172.427 150.036 172.555 150.012 172.683 149.984C173.103 149.896 173.499 149.744 173.887 149.58C174.387 149.348 174.871 149.092 175.307 148.716C174.735 148.78 174.219 148.972 173.711 149.188ZM158.939 150.692C158.439 150.924 157.955 151.184 157.523 151.56C158.091 151.492 158.611 151.304 159.115 151.088C159.611 150.856 160.099 150.596 160.535 150.22C159.963 150.288 159.447 150.476 158.939 150.692ZM165.591 128.94C165.207 129.032 164.843 129.172 164.483 129.324C164.467 129.332 164.451 129.34 164.435 129.348C163.955 129.572 163.483 129.828 163.067 130.188C163.635 130.116 164.155 129.932 164.659 129.716C164.667 129.712 164.675 129.708 164.683 129.704C165.063 129.528 165.431 129.336 165.779 129.088C165.715 129.036 165.651 128.988 165.591 128.94Z" fill="white"/>
<path d="M176.204 147.2C174.858 146.554 173.449 146.038 172.024 145.593C170.614 145.153 169.162 144.866 167.704 144.638C166.871 144.508 166.034 144.418 165.197 144.323C165.171 144.32 165.168 144.359 165.193 144.362C166.66 144.568 168.116 144.904 169.549 145.278C170.976 145.65 172.394 146.048 173.807 146.472C174.606 146.712 175.393 146.99 176.183 147.257C176.22 147.269 176.238 147.217 176.204 147.2Z" fill="#0E2339"/>
<path d="M159.228 143.21C159.365 143.222 166.899 144.399 167.151 144.469C167.104 144.366 165.194 140.78 164.91 140.256C164.881 140.204 164.856 140.15 164.828 140.098C164.656 139.871 164.484 139.646 164.322 139.412C164.114 139.113 163.908 138.813 163.702 138.512C163.695 138.503 163.708 138.492 163.715 138.502C163.935 138.792 164.154 139.081 164.372 139.372C164.473 139.507 164.569 139.645 164.665 139.783C164.474 139.411 164.288 139.037 164.102 138.662C163.805 138.062 163.528 137.456 163.253 136.847C163.244 136.827 163.273 136.815 163.283 136.834C163.846 137.879 164.441 138.906 165.006 139.949C165.57 140.99 167.716 144.826 167.704 144.824C167.693 144.837 159.376 143.35 159.214 143.312C159.151 143.297 159.161 143.203 159.228 143.21Z" fill="#0E2339"/>
<path d="M160.266 152.454C160.741 150.764 161.204 149.07 161.742 147.398C162.048 146.448 162.349 145.496 162.664 144.548C162.676 144.512 162.738 144.528 162.729 144.565C162.319 146.28 161.904 147.999 161.415 149.695C160.929 151.382 160.456 153.073 159.948 154.754C159.66 155.71 159.343 156.654 158.996 157.592C158.989 157.61 158.957 157.602 158.961 157.583C159.315 155.853 159.787 154.155 160.266 152.454Z" fill="#0E2339"/>
<path d="M154.512 158.691C154.702 158.216 154.93 157.537 155.139 157.07C155.195 156.946 155.284 156.956 155.244 157.082C155.11 157.508 155.018 157.976 154.888 158.412C155.267 158.424 155.646 158.428 156.025 158.444C156.463 158.463 156.901 158.484 157.339 158.501C158.197 158.535 159.056 158.56 159.914 158.576C161.653 158.608 163.393 158.604 165.131 158.563C168.616 158.481 172.107 158.271 175.566 157.827C176.534 157.703 177.499 157.56 178.459 157.388C179.434 157.213 180.487 157.018 181.278 156.782C181.303 156.774 181.316 156.817 181.29 156.826C180.481 157.137 179.718 157.373 178.872 157.556C178.008 157.743 177.139 157.906 176.265 158.04C174.526 158.308 172.772 158.483 171.017 158.61C167.536 158.862 164.044 158.964 160.555 158.926C159.577 158.916 158.6 158.894 157.622 158.86C157.129 158.843 156.636 158.826 156.144 158.8C155.651 158.774 154.48 158.772 154.512 158.691Z" fill="#0E2339"/>
<path d="M156.298 132.658C158.068 133.07 161.092 130.358 162.283 128.165C162.364 128.014 162.128 126.433 161.933 124.498C161.819 123.323 161.72 122.013 161.715 120.81C161.716 120.563 154.18 122.669 154.18 122.669C154.18 122.669 154.93 125.187 154.924 127.283C154.922 127.458 154.905 127.621 154.874 127.777C154.872 127.799 154.866 127.827 154.864 127.858C154.714 128.797 154.589 132.259 156.298 132.658Z" fill="#AD6359"/>
<path d="M161.251 120.843C160.908 122.877 159.661 127.793 155.637 127.899C155.357 127.906 155.1 127.893 154.866 127.859C154.864 127.826 154.872 127.801 154.875 127.777C154.904 127.62 154.923 127.459 154.927 127.285C154.932 125.185 154.18 122.667 154.18 122.667C154.18 122.667 159.615 121.148 161.251 120.843Z" fill="#0E2339"/>
<path d="M164.075 112.955C164.447 115.711 161.816 123.065 159.67 124.448C156.558 126.454 152.084 125.96 150.532 122.364C149.028 118.879 152.626 109.356 154.966 108.163C158.412 106.406 163.526 108.884 164.075 112.955Z" fill="#AD6359"/>
<path d="M155.927 116.178C155.938 116.161 155.957 116.216 155.948 116.236C155.744 116.722 155.591 117.312 155.973 117.646C155.985 117.656 155.974 117.68 155.958 117.672C155.445 117.387 155.656 116.605 155.927 116.178Z" fill="#0E2339"/>
<path d="M156.561 115.834C157.375 116.078 156.827 117.687 156.073 117.46C155.332 117.238 155.88 115.629 156.561 115.834Z" fill="#0E2339"/>
<path d="M153.018 115.277C153.021 115.257 152.971 115.287 152.965 115.308C152.811 115.812 152.55 116.363 152.043 116.375C152.027 116.375 152.02 116.401 152.038 116.404C152.614 116.514 152.953 115.779 153.018 115.277Z" fill="#0E2339"/>
<path d="M152.748 114.605C151.968 114.271 151.358 115.857 152.081 116.167C152.793 116.471 153.403 114.885 152.748 114.605Z" fill="#0E2339"/>
<path d="M157.398 115.285C157.185 115.178 157.006 115.043 156.806 114.916C156.58 114.772 156.386 114.68 156.274 114.424C156.214 114.287 156.297 114.083 156.425 114.012C156.723 113.847 157.043 113.955 157.321 114.117C157.624 114.294 157.812 114.507 157.935 114.834C158.054 115.151 157.679 115.426 157.398 115.285Z" fill="#0E2339"/>
<path d="M152.406 113.511C152.642 113.551 152.865 113.548 153.102 113.563C153.369 113.58 153.58 113.621 153.822 113.481C153.951 113.405 154.005 113.192 153.943 113.059C153.801 112.75 153.479 112.648 153.158 112.615C152.81 112.578 152.532 112.639 152.239 112.83C151.956 113.016 152.096 113.459 152.406 113.511Z" fill="#0E2339"/>
<path d="M154.816 120.96C154.657 121.036 154.483 121.156 154.297 121.11C154.119 121.065 153.943 120.918 153.805 120.802C153.791 120.79 153.769 120.802 153.774 120.82C153.839 121.055 154.07 121.268 154.315 121.306C154.554 121.344 154.731 121.186 154.857 120.999C154.874 120.972 154.839 120.949 154.816 120.96Z" fill="#0E2339"/>
<path d="M154.797 119.29C154.371 119.627 153.88 119.724 153.408 119.659C153.196 119.631 152.986 119.567 152.788 119.479C152.748 119.464 152.71 119.446 152.676 119.426C152.641 119.409 152.61 119.393 152.572 119.372C152.517 119.343 152.502 119.284 152.51 119.226L152.512 119.222C152.518 119.204 152.523 119.19 152.534 119.173C152.534 119.173 152.534 119.173 152.535 119.169L152.55 119.126C152.671 118.738 152.906 118.168 152.906 118.168C152.742 118.19 151.918 118.268 151.998 118.072C152.662 116.446 153.4 114.638 154.405 113.161C154.436 113.11 154.515 113.152 154.492 113.204C153.915 114.792 153.063 116.268 152.459 117.853C152.716 117.844 153.143 117.81 153.342 117.883C153.392 117.917 152.867 118.978 152.827 119.156C152.827 119.156 152.824 119.163 152.824 119.175C153.44 119.477 153.993 119.448 154.766 119.228C154.813 119.213 154.841 119.26 154.797 119.29Z" fill="#0E2339"/>
<path d="M153.082 119.362C153.082 119.362 153.266 119.937 153.675 120.261C153.826 120.381 154.002 120.468 154.214 120.482C154.647 120.513 154.782 120.152 154.815 119.814C154.843 119.537 154.799 119.275 154.799 119.275C154.799 119.275 154.034 119.621 153.082 119.362Z" fill="#0E2339"/>
<path d="M153.676 120.261C153.826 120.381 154.003 120.468 154.214 120.482C154.648 120.513 154.782 120.151 154.815 119.814C154.374 119.713 153.853 119.859 153.676 120.261Z" fill="#FF9ABB"/>
<path d="M162.142 118.481C160.944 118.26 161.288 115.487 161.288 115.487C161.288 115.487 158.142 115.737 158.882 111.732C158.882 111.732 155.151 112.198 153.216 110.594C151.562 109.223 151.2 105.877 152.934 104.278C153.911 103.376 156.251 102.837 158.858 106.586C158.858 106.586 163.615 104.535 164.174 109.892C164.174 109.892 166.288 110.585 166.128 112.742C165.877 116.146 163.178 118.673 162.142 118.481Z" fill="#0E2339"/>
<path d="M158.942 111.451C158.964 111.415 159.017 111.44 159.001 111.48C158.622 112.416 158.221 113.437 158.834 114.374C159.431 115.286 160.479 115.734 161.535 115.419C161.596 115.401 161.63 115.495 161.569 115.513C160.568 115.804 159.484 115.471 158.822 114.652C158.031 113.671 158.34 112.439 158.942 111.451Z" fill="#0E2339"/>
<path d="M162.175 117.846C163.989 117.326 165.519 116.183 166.04 114.285C166.288 113.382 166.318 112.399 165.887 111.556C165.494 110.785 164.757 110.385 164.133 109.837C164.115 109.822 164.134 109.793 164.155 109.803C168.301 111.777 166.242 117.454 162.223 118.067C162.096 118.086 162.05 117.882 162.175 117.846Z" fill="#0E2339"/>
<path d="M152.377 104.204C154.717 101.979 157.975 104.442 158.946 106.81C158.949 106.818 158.935 106.826 158.931 106.818C157.987 104.995 155.675 102.93 153.503 103.79C150.879 104.828 151.001 109.234 153.603 110.173C153.681 110.202 153.637 110.336 153.557 110.314C151.122 109.631 150.638 105.857 152.377 104.204Z" fill="#0E2339"/>
<path d="M161.367 118.849C161.367 118.849 163.529 116.722 164.526 117.536C165.524 118.351 163.584 121.654 162.191 121.898C160.798 122.141 160.547 120.858 160.547 120.858L161.367 118.849Z" fill="#AD6359"/>
<path d="M163.946 118.469C163.968 118.471 163.966 118.501 163.947 118.505C162.965 118.706 162.328 119.463 161.828 120.278C162.162 119.99 162.567 119.874 162.96 120.281C162.98 120.302 162.951 120.335 162.926 120.325C162.566 120.176 162.284 120.191 161.976 120.444C161.758 120.622 161.586 120.868 161.413 121.089C161.355 121.162 161.216 121.092 161.264 121.003C161.268 120.997 161.272 120.99 161.275 120.984C161.468 119.816 162.674 118.355 163.946 118.469Z" fill="#0E2339"/>
<path d="M151.094 162.483H119.102V163.915H151.094V162.483Z" fill="#C7C7C7"/>
<path d="M119.102 162.483V163.915H140.849L139.753 162.483H119.102Z" fill="#A6A6A6"/>
<path d="M138.374 163.916H107.193L104.598 142.74H135.778L138.374 163.916Z" fill="#A6A6A6"/>
<path d="M136.936 163.916H105.756L103.16 142.74H134.34L136.936 163.916Z" fill="#C7C7C7"/>
<path d="M121.95 153.108C122.099 154.146 121.442 155.085 120.483 155.207C119.524 155.328 118.627 154.586 118.478 153.548C118.329 152.51 118.986 151.57 119.945 151.449C120.904 151.328 121.801 152.07 121.95 153.108Z" fill="white"/>
<path d="M39.6836 160.277C39.6836 160.277 46.5232 158.726 50.2724 155.272C54.0216 151.818 56.1156 145.629 56.1156 145.629C56.1156 145.629 52.0896 146.367 48.4448 147.644C47.8332 148.299 46.6676 149.648 46.124 150.925C46.124 150.925 46.0088 149.576 46.106 148.579C45.1308 149.029 44.282 149.526 43.67 150.058C40.5616 152.778 39.6836 160.277 39.6836 160.277Z" fill="#FDD48E"/>
<path d="M51.8444 148.637C52.7768 147.992 53.726 147.369 54.6544 146.719C54.7104 146.679 54.6576 146.592 54.598 146.627C52.8356 147.68 51.098 148.805 49.4168 149.983C48.8304 150.394 48.2552 150.822 47.686 151.258C47.7256 151.19 47.7652 151.123 47.8052 151.055C48.0104 150.711 48.2268 150.374 48.4432 150.038C48.878 149.361 49.3532 148.695 49.8952 148.1C49.9156 148.078 49.8812 148.045 49.8616 148.068C49.33 148.682 48.798 149.29 48.3112 149.941C48.08 150.251 47.866 150.572 47.6612 150.9C47.5548 151.07 47.452 151.242 47.354 151.417C47.3212 151.475 47.2852 151.533 47.2516 151.593C46.3672 152.288 45.506 153.012 44.684 153.778C44.1768 154.25 43.6876 154.741 43.2152 155.246C43.4796 154.418 43.7104 153.581 44.0172 152.766C44.0276 152.738 43.982 152.726 43.972 152.755C43.6744 153.609 43.3484 154.469 43.118 155.347C42.5936 155.913 42.0928 156.499 41.6208 157.11C41.6288 157.073 41.6368 157.035 41.6456 156.999C41.7232 156.676 41.804 156.355 41.8904 156.035C42.0568 155.416 42.2384 154.801 42.4472 154.195C42.8752 152.952 43.4304 151.736 44.2848 150.725C44.304 150.702 44.2704 150.669 44.2512 150.693C42.9152 152.274 42.1316 154.171 41.6316 156.163C41.5584 156.454 41.4896 156.747 41.4232 157.039C41.388 157.194 41.3472 157.353 41.3208 157.512C41.114 157.791 40.9112 158.074 40.7168 158.363C39.5292 160.13 38.6032 162.061 37.8228 164.039C36.9436 166.265 36.2604 168.565 35.6304 170.872C35.618 170.917 35.686 170.933 35.7004 170.89C37.038 166.887 38.4044 162.828 40.6944 159.25C41.178 158.495 41.7012 157.767 42.256 157.065C43.3812 157.002 44.5168 156.758 45.5824 156.403C46.7608 156.01 47.8728 155.466 48.916 154.793C49.5184 154.404 50.0668 153.951 50.6244 153.502C50.6504 153.481 50.6212 153.444 50.5952 153.466C49.67 154.249 48.5584 154.861 47.46 155.363C46.3564 155.867 45.1952 156.262 44.0096 156.521C43.5044 156.631 42.9924 156.712 42.48 156.781C43.1124 156.003 43.7864 155.257 44.4972 154.547C44.7276 154.317 44.9672 154.096 45.2044 153.873C45.9896 153.299 46.8604 152.847 47.7328 152.425C48.8532 151.883 49.9564 151.309 51.0656 150.745C51.6912 150.427 52.3132 150.101 52.944 149.793C52.9708 149.78 52.946 149.741 52.9196 149.753C51.7956 150.296 50.654 150.804 49.5192 151.324C48.4512 151.813 47.3708 152.304 46.346 152.88C46.3016 152.905 46.2604 152.932 46.2168 152.957C47.1428 152.15 48.102 151.381 49.0832 150.641C49.99 149.954 50.9096 149.284 51.8444 148.637Z" fill="#0E2339"/>
<path d="M51.4565 152.163C50.9001 152.407 50.3337 152.623 49.7833 152.881C49.2169 153.145 48.6805 153.455 48.1429 153.773C48.1193 153.787 48.1413 153.821 48.1649 153.809C48.7101 153.548 49.2625 153.304 49.8029 153.032C50.3561 152.754 50.9029 152.457 51.4701 152.208C51.4969 152.196 51.4837 152.151 51.4565 152.163Z" fill="#0E2339"/>
<path d="M17.4648 125.807C17.4648 125.807 19.3852 128.006 19.5092 131.488C19.5316 132.101 19.4348 132.956 19.364 133.961C21.9144 135.323 23.8272 137.776 23.8272 137.776C22.3784 136.906 20.3896 136.554 19.3168 136.696C19.3532 137.357 19.4316 138.044 19.578 138.74C20.0516 138.713 20.9664 138.776 22.4792 139.314C22.4792 139.314 20.9948 139.276 19.8632 139.834C21.0824 143.712 24.7068 147.698 34.7144 149.39C34.7144 149.39 36.6452 142.595 32.942 135.307C29.9432 129.408 17.4648 125.807 17.4648 125.807Z" fill="#FDD48E"/>
<path d="M38.1787 165.988C38.0047 164.33 37.7867 162.678 37.5307 161.031C37.0183 157.737 36.3551 154.461 35.5123 151.235C35.1151 149.713 34.6387 148.223 34.0679 146.771C34.1051 146.508 34.0991 146.233 34.1047 145.97C34.1115 145.649 34.1131 145.328 34.1095 145.008C34.1023 144.367 34.0723 143.727 34.0175 143.088C33.9099 141.826 33.7175 140.563 33.4027 139.336C33.2195 138.623 33.0071 137.921 32.7979 137.216C32.7895 137.187 32.7451 137.2 32.7535 137.229C33.1075 138.449 33.3111 139.719 33.4923 140.974C33.6719 142.218 33.7827 143.474 33.8283 144.73C33.8407 145.074 33.8471 145.418 33.8475 145.762C33.8475 145.908 33.8411 146.056 33.8359 146.204C33.3431 145.013 32.7875 143.847 32.1499 142.714C31.1411 140.921 29.9819 139.217 28.7243 137.589C28.7359 137.404 28.6799 137.208 28.6423 137.03C28.5955 136.806 28.5467 136.583 28.4967 136.36C28.3943 135.903 28.2795 135.448 28.1555 134.996C27.9067 134.089 27.5783 133.213 27.2947 132.318C27.2859 132.289 27.2415 132.302 27.2503 132.331C27.5147 133.218 27.6903 134.136 27.8931 135.038C27.9935 135.484 28.0911 135.931 28.1895 136.378C28.2387 136.601 28.2863 136.825 28.3323 137.049C28.3355 137.065 28.3383 137.082 28.3415 137.099C27.9371 136.588 27.5247 136.085 27.1023 135.59C25.1911 133.349 23.0959 131.282 20.9871 129.229C20.7279 128.977 20.4619 128.731 20.1991 128.482C20.1771 128.462 20.1463 128.494 20.1671 128.516C22.1823 130.618 24.1671 132.745 26.0463 134.971C26.4927 135.5 26.9327 136.036 27.3647 136.578C27.1375 136.424 26.9079 136.274 26.6819 136.126C26.0999 135.744 25.5099 135.374 24.9027 135.034C24.2955 134.693 23.6835 134.361 23.0595 134.052C22.4179 133.734 21.7319 133.475 21.1127 133.114C21.0863 133.099 21.0631 133.144 21.0903 133.155C21.7287 133.417 22.3247 133.816 22.9163 134.167C23.5255 134.528 24.1335 134.892 24.7315 135.271C25.3195 135.644 25.9111 136.012 26.4951 136.392C26.9819 136.708 27.4615 137.054 27.9659 137.346C29.1203 138.841 30.2051 140.39 31.1723 142.012C31.7819 143.034 32.3323 144.083 32.8295 145.155C32.7095 145.102 32.5891 145.052 32.4707 144.999C32.1655 144.864 31.8599 144.728 31.5543 144.592C30.9659 144.331 30.3743 144.076 29.7839 143.82C28.6619 143.332 27.5215 142.883 26.4207 142.348C25.8035 142.048 25.1959 141.731 24.6243 141.35C24.5991 141.333 24.5775 141.374 24.6019 141.391C26.6535 142.805 28.9543 143.802 31.2251 144.807L32.2099 145.242C32.4803 145.362 32.7515 145.496 33.0299 145.6C33.6999 147.101 34.2663 148.647 34.7223 150.238C35.6335 153.416 36.3279 156.664 36.8995 159.92C37.4735 163.188 37.8611 166.479 38.1619 169.783C38.1995 170.196 38.2367 170.608 38.2831 171.02C38.3019 171.184 38.5455 171.184 38.5439 171.013C38.5251 169.335 38.3535 167.655 38.1787 165.988Z" fill="#0E2339"/>
<path d="M32.0905 138.35C31.9069 137.332 31.6361 136.338 31.3617 135.342C31.3537 135.313 31.3097 135.326 31.3173 135.356C31.5705 136.333 31.7513 137.33 31.9353 138.322C32.1225 139.334 32.2881 140.35 32.4305 141.368C32.4329 141.386 32.4597 141.386 32.4585 141.368C32.3925 140.354 32.2705 139.349 32.0905 138.35Z" fill="#0E2339"/>
<path d="M27.7775 141.109C27.0991 140.629 26.3375 140.265 25.6011 139.884C25.2363 139.696 24.8671 139.517 24.4975 139.338C24.1167 139.154 23.7207 138.999 23.3431 138.81C23.3163 138.796 23.2939 138.837 23.3207 138.85C23.6867 139.034 24.0335 139.256 24.3935 139.452C24.7643 139.654 25.1327 139.86 25.5047 140.06C26.2363 140.453 26.9559 140.889 27.7239 141.208C27.7903 141.235 27.8363 141.151 27.7775 141.109Z" fill="#0E2339"/>
<path opacity="0.1" d="M39.8086 148.428C39.8086 148.428 46.1378 146.916 49.0438 142.67C51.819 138.616 52.7158 131.704 52.7874 131.096C52.6734 131.654 51.3674 137.694 47.0582 140.508C43.7594 142.664 40.5714 144.436 39.8086 148.428Z" fill="#0E2339"/>
<path d="M45.65 137.493C44.5364 138.565 43.7012 139.827 43.3168 141.336C43.3136 141.349 43.3324 141.356 43.3368 141.343C43.8124 139.937 44.5968 138.552 45.6812 137.528C45.7028 137.507 45.6716 137.472 45.65 137.493Z" fill="#0E2339"/>
<path d="M39.8082 148.428C39.8082 148.428 46.1374 146.916 49.0434 142.67C51.8186 138.616 52.7154 131.704 52.787 131.096C52.793 131.068 52.7942 131.053 52.7942 131.053C52.7942 131.053 49.7594 135.368 46.5686 136.468C43.3778 137.569 38.8934 141.375 39.8082 148.428Z" fill="#FDD48E"/>
<path d="M51.6726 133.433C51.0858 134.584 50.4702 135.727 49.7162 136.779C48.9818 137.803 48.0974 138.675 47.1126 139.458C46.253 140.141 45.3438 140.76 44.4738 141.429C44.4806 141.418 44.4866 141.408 44.4934 141.397C44.657 141.155 44.8318 140.919 45.0118 140.689C45.3742 140.226 45.7702 139.789 46.1686 139.356C46.955 138.503 47.7582 137.666 48.463 136.742C48.8534 136.231 49.1966 135.686 49.4778 135.108C49.491 135.081 49.4466 135.066 49.4338 135.093C48.4074 137.232 46.357 138.6 44.8938 140.407C44.6854 140.664 44.489 140.93 44.309 141.207C44.1822 141.403 44.027 141.621 43.9446 141.85C43.1486 142.503 42.413 143.214 41.7854 144.033C41.8382 143.617 41.9286 143.203 42.0394 142.804C42.1966 142.237 42.4026 141.704 42.7102 141.201C42.7258 141.176 42.6866 141.15 42.6714 141.176C42.3754 141.675 42.1054 142.213 41.9334 142.768C41.7938 143.219 41.7278 143.671 41.703 144.135C41.7018 144.136 41.7006 144.138 41.6998 144.139C41.3842 144.563 41.1034 145.01 40.8446 145.469C40.871 145.334 40.8966 145.198 40.9234 145.064C41.049 144.433 41.1878 143.804 41.3514 143.182C41.6834 141.921 42.1318 140.698 42.8738 139.616C42.8906 139.592 42.8518 139.566 42.835 139.591C42.1026 140.658 41.5474 141.85 41.1482 143.079C40.9466 143.7 40.7846 144.332 40.6426 144.969C40.5734 145.28 40.5106 145.593 40.451 145.906C40.4202 146.068 40.385 146.234 40.359 146.4C39.7122 147.768 39.2578 149.234 38.899 150.691C38.2534 153.314 37.851 156.012 37.5494 158.694C37.2326 161.51 37.067 164.357 37.113 167.191C37.1186 167.547 37.1398 167.902 37.1594 168.258C37.1646 168.349 37.3014 168.363 37.3058 168.266C37.3678 166.862 37.4042 165.456 37.4874 164.053C37.5706 162.648 37.6926 161.248 37.843 159.848C38.1382 157.103 38.5642 154.362 39.1618 151.665C39.675 149.351 40.3406 147.022 41.605 144.995C42.239 143.978 42.997 143.079 43.8886 142.279C44.7758 141.483 45.7462 140.785 46.6818 140.047C47.6122 139.313 48.507 138.514 49.245 137.583C50.0414 136.578 50.6683 135.451 51.2578 134.316C51.4071 134.029 51.5602 133.744 51.7114 133.458C51.7254 133.432 51.6862 133.407 51.6726 133.433Z" fill="#0E2339"/>
<path d="M50.581 134.361C50.175 135.218 49.6866 136.033 49.171 136.827C49.1586 136.846 49.187 136.865 49.2002 136.846C49.7514 136.069 50.2106 135.233 50.625 134.376C50.6378 134.349 50.5934 134.335 50.581 134.361Z" fill="#0E2339"/>
<path d="M16.5822 145.629C16.5822 145.629 16.4818 154.624 21.8598 157.22C27.2374 159.82 30.121 157.654 33.7754 158.524C33.7754 158.524 33.7718 158.523 33.769 158.519C33.6274 158.305 31.019 154.555 26.871 153.523C22.6038 152.459 17.8758 149.377 16.5822 145.629Z" fill="#FDD48E"/>
<path opacity="0.1" d="M16.5822 145.629C16.5822 145.629 16.4818 154.624 21.8598 157.22C27.2374 159.82 30.121 157.654 33.7754 158.524C33.7754 158.524 33.7718 158.523 33.769 158.519C33.6174 158.445 30.9494 157.111 27.6546 156.715C24.2638 156.307 17.785 154.097 16.5822 145.629Z" fill="black"/>
<path d="M34.1278 158.684C33.4862 158.106 32.7682 157.609 31.9886 157.235C31.8734 157.18 31.7546 157.135 31.6374 157.085C31.5806 157.013 31.5202 156.945 31.457 156.879C31.2958 156.711 31.1278 156.55 30.9506 156.398C30.6126 156.108 30.2526 155.843 29.869 155.618C28.9782 155.094 28.0018 154.727 27.0906 154.241C27.0642 154.227 27.0414 154.268 27.0682 154.282C27.5186 154.516 27.9546 154.773 28.3926 155.029C28.8186 155.278 29.2546 155.515 29.6694 155.783C30.0418 156.023 30.4002 156.289 30.7338 156.581C30.8286 156.663 30.9194 156.753 31.0102 156.845C30.417 156.641 29.8074 156.486 29.1926 156.362C28.2078 156.163 27.2122 156.022 26.2298 155.813C25.7466 155.709 25.2706 155.581 24.8026 155.427C24.3562 155.068 23.911 154.711 23.4882 154.321C22.9778 153.851 22.5094 153.339 22.0982 152.78C22.0806 152.756 22.0402 152.781 22.0586 152.804C22.7222 153.661 23.4338 154.524 24.2634 155.237C24.0318 155.149 23.8022 155.055 23.5758 154.952C21.7486 154.122 20.1226 152.803 18.993 151.139C18.9762 151.114 18.9362 151.139 18.9534 151.163C19.9378 152.589 21.187 153.809 22.6606 154.722C23.3994 155.18 24.1786 155.555 25.003 155.831C25.951 156.148 26.9334 156.335 27.9138 156.519C28.8738 156.699 29.8374 156.882 30.7642 157.197C31.6218 157.489 32.4294 157.911 33.1546 158.454C34.539 159.491 35.6094 160.91 36.377 162.45C37.3946 164.492 37.8814 166.775 38.1518 169.027C38.1634 169.123 38.3122 169.123 38.3054 169.023C38.053 165.243 37.0426 161.309 34.1278 158.684Z" fill="#0E2339"/>
<path d="M27.8866 155.751C27.6178 155.322 27.2154 155 26.781 154.749C26.273 154.455 25.8174 154.139 25.4662 153.661C25.4486 153.637 25.4082 153.662 25.4266 153.685C25.7514 154.103 26.141 154.445 26.5878 154.725C27.057 155.02 27.5306 155.308 27.853 155.772C27.8674 155.793 27.9002 155.773 27.8866 155.751Z" fill="#0E2339"/>
<path d="M30.7383 165.322L30.9831 170.268L31.7331 185.379H43.0151L43.7655 170.268L44.0099 165.322H30.7383Z" fill="#455A64"/>
<path d="M30.7383 165.322L30.9831 170.268H43.7655L44.0099 165.322H30.7383Z" fill="#0E2339"/>
<path d="M29.9476 167.976H44.8008V163.258H29.9476V167.976Z" fill="#455A64"/>
</svg>
