<svg width="24" height="24" viewBox="0 0 24 24" fill="none" xmlns="http://www.w3.org/2000/svg">
<path d="M22.6734 6.88001C22.5031 6.78171 22.31 6.72996 22.1134 6.72996C21.9168 6.72996 21.7237 6.78171 21.5534 6.88001L17.5998 8.83681C17.5679 7.9672 17.1999 7.1439 16.5732 6.54018C15.9465 5.93646 15.11 5.59942 14.2398 5.60001H4.1598C3.26868 5.60001 2.41405 5.95401 1.78393 6.58413C1.1538 7.21425 0.799805 8.06888 0.799805 8.96001V15.68C0.799805 16.5711 1.1538 17.4258 1.78393 18.0559C2.41405 18.686 3.26868 19.04 4.1598 19.04H14.2398C15.11 19.0406 15.9465 18.7036 16.5732 18.0998C17.1999 17.4961 17.5679 16.6728 17.5998 15.8032L21.587 17.7968C21.7567 17.8834 21.9459 17.9248 22.1363 17.9171C22.3267 17.9093 22.5119 17.8526 22.674 17.7524C22.8361 17.6522 22.9696 17.5119 23.0617 17.3451C23.1538 17.1783 23.2014 16.9906 23.1998 16.8V7.84001C23.2016 7.64832 23.1541 7.45939 23.0619 7.2913C22.9697 7.12322 22.836 6.9816 22.6734 6.88001ZM15.3598 15.68C15.3598 15.977 15.2418 16.2619 15.0318 16.472C14.8217 16.682 14.5368 16.8 14.2398 16.8H4.1598C3.86276 16.8 3.57789 16.682 3.36785 16.472C3.1578 16.2619 3.0398 15.977 3.0398 15.68V8.96001C3.0398 8.66296 3.1578 8.37809 3.36785 8.16805C3.57789 7.95801 3.86276 7.84001 4.1598 7.84001H14.2398C14.5368 7.84001 14.8217 7.95801 15.0318 8.16805C15.2418 8.37809 15.3598 8.66296 15.3598 8.96001V15.68ZM20.9598 14.9856L17.5998 13.3056V11.3344L20.9598 9.65441V14.9856Z" fill="#5F3C08"/>
</svg>
