<svg width="32" height="32" viewBox="0 0 32 32" fill="none" xmlns="http://www.w3.org/2000/svg">
<g clip-path="url(#clip0_2303_63)">
<path d="M18.9875 25.3836H5.54582C4.35808 25.3822 3.22109 24.9109 2.38123 24.0711C1.54138 23.2312 1.06806 22.0922 1.06665 20.9044V11.944C1.06806 10.7563 1.54138 9.6172 2.38123 8.77734C3.22109 7.93749 4.35808 7.46626 5.54582 7.46484H6.31457C7.23723 8.46858 8.17102 9.47213 9.09582 10.4503H5.54582C5.14976 10.4503 4.7717 10.6077 4.49165 10.8878C4.2116 11.1678 4.05415 11.548 4.05415 11.944V20.9044C4.05415 21.3005 4.2116 21.6806 4.49165 21.9607C4.7717 22.2407 5.14976 22.3982 5.54582 22.3982H18.9875C19.2084 22.399 19.4253 22.3489 19.625 22.2544C19.8247 22.1599 20.0022 22.0216 20.1416 21.8503L22.2062 24.0211C21.7892 24.4534 21.2886 24.7974 20.7354 25.0315C20.1822 25.2656 19.5882 25.3853 18.9875 25.3836ZM29.4396 23.8961C29.211 23.8897 28.9866 23.8319 28.7833 23.7273L23.4646 21.0732C23.4646 21.1798 23.4543 21.265 23.4458 21.3482L20.4791 18.2169V11.9461C20.4791 11.55 20.3217 11.1699 20.0416 10.8898C19.7616 10.6098 19.3835 10.4523 18.9875 10.4523H13.1312L10.2979 7.46693H18.9875C20.1492 7.46186 21.2655 7.90877 22.1021 8.71484C22.9386 9.52092 23.4286 10.6225 23.4666 11.7836L28.7396 9.18359C28.9618 9.04984 29.2156 8.97747 29.475 8.97526C29.7344 8.97305 29.9901 9.04115 30.2146 9.17109C30.4391 9.30104 30.6248 9.48882 30.7521 9.71484C30.8793 9.94087 30.9428 10.1972 30.9375 10.4565V22.4023C30.9375 22.7984 30.78 23.1785 30.5 23.4586C30.2199 23.7386 29.8398 23.8961 29.4437 23.8961H29.4396ZM27.9458 12.8753L23.4666 15.1148V17.7398L27.9458 19.9794V12.8753Z" fill="#0E2339"/>
<path d="M26.2571 28.7008L25.4433 29.5606C25.3765 29.6376 25.2939 29.6994 25.2011 29.7417C25.1084 29.7841 25.0076 29.806 24.9057 29.806C24.8037 29.806 24.7029 29.7841 24.6102 29.7417C24.5174 29.6994 24.4348 29.6376 24.3681 29.5606L18.8065 23.7078C18.8065 23.7078 7.03899 11.8838 2.13659 6.10242C1.98729 5.95129 1.90356 5.7474 1.90356 5.53496C1.90356 5.32251 1.98729 5.11862 2.13659 4.96749L2.95152 4.10776C3.01831 4.03071 3.10088 3.96892 3.19363 3.92657C3.28638 3.88422 3.38716 3.8623 3.48912 3.8623C3.59109 3.8623 3.69186 3.88422 3.78461 3.92657C3.87737 3.96892 3.95993 4.03071 4.02672 4.10776L26.2571 27.567C26.4064 27.7181 26.4901 27.922 26.4901 28.1344C26.4901 28.3469 26.4064 28.5508 26.2571 28.7019V28.7008Z" fill="#0E2339"/>
</g>
<defs>
<clipPath id="clip0_2303_63">
<rect width="32" height="32" fill="white"/>
</clipPath>
</defs>
</svg>
