<svg id="Component_47_17" data-name="Component 47 – 17" xmlns="http://www.w3.org/2000/svg" width="30" height="30" viewBox="0 0 30 30">
  <rect id="Rectangle_21007" data-name="Rectangle 21007" width="30" height="30" fill="none"/>
  <path id="Subtraction_1" data-name="Subtraction 1" d="M24320.727,19017.381h0a1.236,1.236,0,0,1-.775-.281l-5.916-4.725h-4.566a1.254,1.254,0,0,1-1.252-1.252v-7.51a1.254,1.254,0,0,1,1.252-1.252h4.3c.67.65,1.326,1.281,1.936,1.865l-.455.363a1.233,1.233,0,0,1-.775.275h-3.756v5.006h3.756a1.233,1.233,0,0,1,.775.275l4.225,3.377v-5.729c1.1,1.031,1.955,1.828,2.5,2.338v6a1.237,1.237,0,0,1-.709,1.125A1.2,1.2,0,0,1,24320.727,19017.381Zm1.252-10.395,0,0-2.5-2.422v-3.35l-1.893,1.514-1.8-1.744,4.238-3.348a1.23,1.23,0,0,1,.752-.254,1.269,1.269,0,0,1,.5.1,1.232,1.232,0,0,1,.709,1.123v8.381Z" transform="translate(-24300.215 -18992.379)" fill="#ef5862"/>
  <path id="Path" d="M20.7,19.389l-.692.671a.641.641,0,0,1-.914,0L14.37,15.492S4.366,6.261.2,1.748A.595.595,0,0,1,.2.862L.89.192a.641.641,0,0,1,.914,0L20.7,18.5a.595.595,0,0,1,0,.886Z" transform="translate(5.785 3.621)" fill="#ef5862"/>
</svg>
