<svg id="Component_47_14" data-name="Component 47 – 14" xmlns="http://www.w3.org/2000/svg" width="30" height="30" viewBox="0 0 30 30">
  <rect id="Rectangle_21007" data-name="Rectangle 21007" width="30" height="30" fill="none"/>
  <path id="volume-off" d="M19.552,4.121a1.251,1.251,0,0,0-1.251.15L12.319,9H7.751A1.251,1.251,0,0,0,6.5,10.252v7.508a1.251,1.251,0,0,0,1.251,1.251h4.568l5.919,4.73a1.251,1.251,0,0,0,.776.275,1.139,1.139,0,0,0,.538-.125,1.251,1.251,0,0,0,.713-1.126V5.247a1.251,1.251,0,0,0-.713-1.126ZM17.762,20.163l-4.23-3.379a1.251,1.251,0,0,0-.776-.275H9V11.5h3.754a1.251,1.251,0,0,0,.776-.275l4.23-3.379Z" transform="translate(1.617 0.982)" fill="#fff"/>
</svg>
