<svg width="32" height="32" viewBox="0 0 32 32" fill="none" xmlns="http://www.w3.org/2000/svg">
<path d="M2.98492 13.0152C3.57528 10.441 4.91571 8.09975 6.83669 6.28742C8.75768 4.47508 11.1729 3.27309 13.7771 2.83343C16.3812 2.39377 19.0572 2.73619 21.4667 3.8174C23.8762 4.89861 25.911 6.67004 27.3137 8.90768C28.7165 11.1453 29.4242 13.7487 29.3474 16.3885C29.2705 19.0284 28.4126 21.5862 26.8821 23.7385C25.3516 25.8907 23.2173 27.5408 20.749 28.4801C18.2806 29.4193 15.5892 29.6056 13.0151 29.0152C9.56328 28.2235 6.56732 26.0931 4.6863 23.0925C2.80527 20.0919 2.19327 16.467 2.98492 13.0152Z" fill="#FCB742"/>
<path d="M15.9998 21.8769C18.9982 21.8769 21.4288 18.5101 21.4288 14.3569C21.4288 10.2037 18.9982 6.83691 15.9998 6.83691C13.0014 6.83691 10.5708 10.2037 10.5708 14.3569C10.5708 18.5101 13.0014 21.8769 15.9998 21.8769Z" fill="white"/>
<path d="M15.922 20.5329C12.196 20.4268 8.5187 21.3991 5.33203 23.3329C6.46098 25.1333 8.02718 26.6188 9.8848 27.6509C11.7424 28.683 13.831 29.2283 15.9561 29.2358C18.0812 29.2434 20.1736 28.7131 22.0385 27.6943C23.9035 26.6754 25.4803 25.2012 26.622 23.4089C23.4148 21.4211 19.6936 20.4209 15.922 20.5329Z" fill="white"/>
<path d="M18.9011 18.6403C18.9011 17.0381 17.6023 15.7393 16.0001 15.7393C14.3979 15.7393 13.0991 17.0381 13.0991 18.6403V21.7013C13.0991 23.3034 14.3979 24.6023 16.0001 24.6023C17.6023 24.6023 18.9011 23.3034 18.9011 21.7013V18.6403Z" fill="white"/>
<path d="M11.681 14.7034C11.843 15.9094 11.576 16.9544 11.081 17.0384C10.586 17.1224 10.057 16.2134 9.89498 15.0074C9.73298 13.8014 9.99495 12.7564 10.495 12.6724C10.995 12.5884 11.516 13.4974 11.681 14.7034Z" fill="white"/>
<path d="M20.3208 14.7034C20.1588 15.9094 20.4258 16.9544 20.9208 17.0384C21.4158 17.1224 21.9448 16.2134 22.1078 15.0074C22.2708 13.8014 22.0028 12.7564 21.5078 12.6724C21.0128 12.5884 20.4838 13.4974 20.3208 14.7034Z" fill="white"/>
<path d="M10.7659 14.2498L10.2179 10.6388C10.1143 10.207 10.1243 9.75566 10.2469 9.32882C10.3157 9.11842 10.4609 8.94148 10.6538 8.83298C10.8468 8.72447 11.0734 8.6923 11.2889 8.74282C11.1229 7.90582 12.0499 7.28682 12.8569 7.00882C14.2058 6.51436 15.6504 6.33679 17.0789 6.48982C18.5147 6.64985 19.8471 7.31429 20.8389 8.36482C21.1505 8.69572 21.3915 9.08668 21.5469 9.51382C21.749 10.3656 21.7221 11.2558 21.4689 12.0938L21.0429 14.1268C21.024 14.2845 20.964 14.4345 20.8689 14.5618C20.772 14.641 20.6599 14.6995 20.5395 14.7339C20.4192 14.7683 20.2931 14.7778 20.1689 14.7618L12.0929 14.7788C11.5869 14.7788 10.9259 14.6558 10.8589 14.1538" fill="white"/>
</svg>
