<svg width="156" height="139" viewBox="0 0 156 139" fill="none" xmlns="http://www.w3.org/2000/svg">
<g clip-path="url(#clip0_465_516)">
<path d="M78.7435 113.24C110.014 113.24 135.363 87.8903 135.363 56.6199C135.363 25.3496 110.014 0 78.7435 0C47.4732 0 22.1235 25.3496 22.1235 56.6199C22.1235 87.8903 47.4732 113.24 78.7435 113.24Z" fill="#DBE8EC"/>
<path d="M156 65.6958V59.118C156 57.8639 155.502 56.6612 154.615 55.7744C153.728 54.8876 152.525 54.3894 151.271 54.3894H134.581C133.327 54.3894 132.124 53.8912 131.237 53.0044C130.35 52.1176 129.852 50.9148 129.852 49.6607V43.0863C129.852 41.8321 130.35 40.6294 131.237 39.7426C132.124 38.8558 133.327 38.3576 134.581 38.3576H135.109C136.363 38.3576 137.566 37.8594 138.453 36.9726C139.34 36.0858 139.838 34.8831 139.838 33.6289V27.0675C139.838 25.8134 139.34 24.6107 138.453 23.7239C137.566 22.8371 136.363 22.3389 135.109 22.3389H25.3326C24.0784 22.3389 22.8757 22.8371 21.9889 23.7239C21.1021 24.6107 20.6039 25.8134 20.6039 27.0675V33.6452C20.6039 34.2662 20.7262 34.8811 20.9638 35.4548C21.2015 36.0285 21.5498 36.5498 21.9889 36.9889C22.428 37.428 22.9493 37.7763 23.523 38.014C24.0967 38.2516 24.7116 38.3739 25.3326 38.3739C26.5867 38.3739 27.7894 38.8721 28.6762 39.7589C29.563 40.6457 30.0612 41.8484 30.0612 43.1026V49.677C30.0612 50.9311 29.563 52.1339 28.6762 53.0207C27.7894 53.9075 26.5867 54.4057 25.3326 54.4057H7.04733C5.79321 54.4057 4.59046 54.9039 3.70366 55.7907C2.81687 56.6775 2.31867 57.8802 2.31867 59.1343V65.7121C2.31867 66.9662 2.81687 68.1689 3.70366 69.0557C4.59046 69.9425 5.79321 70.4407 7.04733 70.4407H14.2218C15.476 70.4407 16.6787 70.9389 17.5655 71.8257C18.4523 72.7125 18.9505 73.9153 18.9505 75.1694V81.7438C18.9505 82.998 18.4523 84.2007 17.5655 85.0875C16.6787 85.9743 15.476 86.4725 14.2218 86.4725C12.9677 86.4725 11.765 86.9707 10.8782 87.8575C9.99138 88.7443 9.49319 89.947 9.49319 91.2011V97.7789C9.49319 99.033 9.99138 100.236 10.8782 101.123C11.765 102.009 12.9677 102.508 14.2218 102.508H15.2589C16.5124 102.508 17.7147 103.005 18.6014 103.891C19.4881 104.777 19.9867 105.979 19.9875 107.233V113.811C19.9875 115.065 19.4893 116.268 18.6026 117.154C17.7158 118.041 16.513 118.539 15.2589 118.539H4.72866C3.47736 118.539 2.27707 119.035 1.39074 119.919C0.504415 120.802 0.00431482 122 0 123.252L0 129.826C0 131.08 0.498196 132.283 1.38499 133.17C2.27179 134.057 3.47454 134.555 4.72866 134.555H137.646C138.9 134.555 140.103 134.057 140.99 133.17C141.877 132.283 142.375 131.08 142.375 129.826V123.252C142.375 121.998 141.877 120.795 140.99 119.908C140.103 119.021 138.9 118.523 137.646 118.523H133.547C132.293 118.523 131.09 118.025 130.203 117.138C129.317 116.251 128.818 115.048 128.818 113.794V107.217C128.819 105.963 129.318 104.761 130.205 103.875C131.091 102.989 132.293 102.491 133.547 102.491H143.213C144.467 102.491 145.67 101.993 146.557 101.106C147.444 100.219 147.942 99.0167 147.942 97.7626V91.1848C147.942 89.9307 147.444 88.728 146.557 87.8412C145.67 86.9544 144.467 86.4562 143.213 86.4562H140.278C139.024 86.4562 137.821 85.958 136.934 85.0712C136.048 84.1844 135.549 82.9816 135.549 81.7275V75.1531C135.549 73.8989 136.048 72.6962 136.934 71.8094C137.821 70.9226 139.024 70.4244 140.278 70.4244H151.268C151.889 70.4248 152.505 70.3028 153.079 70.0654C153.653 69.8279 154.174 69.4797 154.614 69.0406C155.053 68.6014 155.402 68.08 155.64 67.5061C155.878 66.9322 156 66.317 156 65.6958Z" fill="#DBE8EC"/>
<path d="M58.0386 70.6787H67.9264" stroke="#EE781D" stroke-width="3" stroke-miterlimit="10"/>
<path d="M58.0386 73.5288H67.9264" stroke="#EE781D" stroke-width="3" stroke-miterlimit="10"/>
<path d="M58.0386 76.3794H67.9264" stroke="#EE781D" stroke-width="3" stroke-miterlimit="10"/>
<path d="M39.5903 21.478H49.4814" stroke="#B9D4DB" stroke-width="3" stroke-miterlimit="10" stroke-linecap="round"/>
<path d="M39.5903 24.3281H49.4814" stroke="#B9D4DB" stroke-width="3" stroke-miterlimit="10" stroke-linecap="round"/>
<path d="M39.5903 27.1782H49.4814" stroke="#B9D4DB" stroke-width="3" stroke-miterlimit="10" stroke-linecap="round"/>
<path d="M128.626 67.1924H138.514" stroke="#B9D4DB" stroke-width="3" stroke-miterlimit="10" stroke-linecap="round"/>
<path d="M128.626 70.043H138.514" stroke="#B9D4DB" stroke-width="3" stroke-miterlimit="10" stroke-linecap="round"/>
<path d="M128.626 72.8931H138.514" stroke="#B9D4DB" stroke-width="3" stroke-miterlimit="10" stroke-linecap="round"/>
<path d="M25.9131 110.39H35.8009" stroke="#B9D4DB" stroke-width="3" stroke-miterlimit="10" stroke-linecap="round"/>
<path d="M25.9131 113.24H35.8009" stroke="#B9D4DB" stroke-width="3" stroke-miterlimit="10" stroke-linecap="round"/>
<path d="M25.9131 116.087H35.8009" stroke="#B9D4DB" stroke-width="3" stroke-miterlimit="10" stroke-linecap="round"/>
<path d="M27.3837 71.3147C30.1609 71.3147 32.4123 69.0633 32.4123 66.286C32.4123 63.5087 30.1609 61.2573 27.3837 61.2573C24.6064 61.2573 22.355 63.5087 22.355 66.286C22.355 69.0633 24.6064 71.3147 27.3837 71.3147Z" fill="#B9D4DB"/>
<path d="M28.6426 58.7267C30.0889 58.7267 31.2613 57.5542 31.2613 56.108C31.2613 54.6617 30.0889 53.4893 28.6426 53.4893C27.1964 53.4893 26.0239 54.6617 26.0239 56.108C26.0239 57.5542 27.1964 58.7267 28.6426 58.7267Z" fill="#B9D4DB"/>
<path d="M37.862 57.8982C38.6959 57.8982 39.3719 57.2222 39.3719 56.3883C39.3719 55.5544 38.6959 54.8784 37.862 54.8784C37.0281 54.8784 36.3521 55.5544 36.3521 56.3883C36.3521 57.2222 37.0281 57.8982 37.862 57.8982Z" fill="#B9D4DB"/>
<path d="M38.7589 68.3962C40.7599 68.3962 42.382 66.774 42.382 64.773C42.382 62.772 40.7599 61.1499 38.7589 61.1499C36.7579 61.1499 35.1357 62.772 35.1357 64.773C35.1357 66.774 36.7579 68.3962 38.7589 68.3962Z" fill="#B9D4DB"/>
<path d="M123.855 127.1C126.632 127.1 128.884 124.848 128.884 122.071C128.884 119.294 126.632 117.042 123.855 117.042C121.078 117.042 118.826 119.294 118.826 122.071C118.826 124.848 121.078 127.1 123.855 127.1Z" fill="#B9D4DB"/>
<path d="M116.824 117.225C118.27 117.225 119.442 116.053 119.442 114.606C119.442 113.16 118.27 111.988 116.824 111.988C115.378 111.988 114.205 113.16 114.205 114.606C114.205 116.053 115.378 117.225 116.824 117.225Z" fill="#B9D4DB"/>
<path d="M122.922 109.196C123.756 109.196 124.432 108.52 124.432 107.686C124.432 106.852 123.756 106.176 122.922 106.176C122.088 106.176 121.412 106.852 121.412 107.686C121.412 108.52 122.088 109.196 122.922 109.196Z" fill="#B9D4DB"/>
<path d="M129.947 115.969C131.948 115.969 133.57 114.347 133.57 112.346C133.57 110.345 131.948 108.723 129.947 108.723C127.946 108.723 126.324 110.345 126.324 112.346C126.324 114.347 127.946 115.969 129.947 115.969Z" fill="#B9D4DB"/>
<path d="M118.826 42.1111C121.603 42.1111 123.855 39.8597 123.855 37.0824C123.855 34.3051 121.603 32.0537 118.826 32.0537C116.049 32.0537 113.797 34.3051 113.797 37.0824C113.797 39.8597 116.049 42.1111 118.826 42.1111Z" fill="#B9D4DB"/>
<path d="M109.76 32.2398C111.207 32.2398 112.379 31.0674 112.379 29.6211C112.379 28.1749 111.207 27.0024 109.76 27.0024C108.314 27.0024 107.142 28.1749 107.142 29.6211C107.142 31.0674 108.314 32.2398 109.76 32.2398Z" fill="#B9D4DB"/>
<path d="M119.661 30.6222C121.662 30.6222 123.284 29.0001 123.284 26.9991C123.284 24.9981 121.662 23.376 119.661 23.376C117.66 23.376 116.038 24.9981 116.038 26.9991C116.038 29.0001 117.66 30.6222 119.661 30.6222Z" fill="#B9D4DB"/>
<path d="M62.4051 105.697C65.1824 105.697 67.4338 103.446 67.4338 100.668C67.4338 97.8911 65.1824 95.6396 62.4051 95.6396C59.6279 95.6396 57.3765 97.8911 57.3765 100.668C57.3765 103.446 59.6279 105.697 62.4051 105.697Z" fill="#EE781D"/>
<path d="M55.3741 95.8224C56.8203 95.8224 57.9928 94.6499 57.9928 93.2037C57.9928 91.7574 56.8203 90.585 55.3741 90.585C53.9278 90.585 52.7554 91.7574 52.7554 93.2037C52.7554 94.6499 53.9278 95.8224 55.3741 95.8224Z" fill="#EE781D"/>
<path d="M61.4723 87.7932C62.3062 87.7932 62.9822 87.1172 62.9822 86.2833C62.9822 85.4494 62.3062 84.7734 61.4723 84.7734C60.6384 84.7734 59.9624 85.4494 59.9624 86.2833C59.9624 87.1172 60.6384 87.7932 61.4723 87.7932Z" fill="#EE781D"/>
<path d="M68.4972 94.5666C70.4982 94.5666 72.1203 92.9444 72.1203 90.9434C72.1203 88.9424 70.4982 87.3203 68.4972 87.3203C66.4962 87.3203 64.874 88.9424 64.874 90.9434C64.874 92.9444 66.4962 94.5666 68.4972 94.5666Z" fill="#EE781D"/>
<path d="M74.8105 35.7227C85.0929 21.2367 91.4749 8.10405 89.0649 6.39521L86.3093 4.43852C83.8993 2.72968 73.6136 13.0903 63.3313 27.5926C53.0489 42.0949 46.6668 55.2112 49.0735 56.9201L51.8325 58.8768C54.2424 60.5726 64.5281 50.2217 74.8105 35.7227Z" fill="#CD6A2B"/>
<path d="M72.2967 33.5076C82.6009 18.9396 88.9918 5.74194 86.5712 4.0298C84.1506 2.31766 73.8351 12.7394 63.5309 27.3074C53.2267 41.8754 46.8358 55.073 49.2564 56.7852C51.6771 58.4973 61.9926 48.0756 72.2967 33.5076Z" fill="#E67E22"/>
<path d="M69.7557 22.9521C72.6157 24.9805 64.1889 36.8543 61.3289 34.8259C58.4688 32.7974 58.0384 28.4927 60.3505 25.212C62.6627 21.9313 66.8956 20.9204 69.7557 22.9521Z" fill="#CD6A2B"/>
<path d="M49.4814 67.9199L57.031 133.978H57.1125C57.1125 136.228 68.096 138.054 81.6494 138.054C95.2027 138.054 106.183 136.228 106.183 133.978H106.264L113.814 67.9199H49.4814Z" fill="#E67E22"/>
<path d="M81.6493 73.2647C99.4152 73.2647 113.817 70.8717 113.817 67.9197C113.817 64.9678 99.4152 62.5747 81.6493 62.5747C63.8835 62.5747 49.4814 64.9678 49.4814 67.9197C49.4814 70.8717 63.8835 73.2647 81.6493 73.2647Z" fill="#CD6A2B"/>
<path d="M83.28 82.7549H81.8353C81.4751 82.7549 81.1831 83.0469 81.1831 83.4071V130.087C81.1831 130.447 81.4751 130.739 81.8353 130.739H83.28C83.6402 130.739 83.9322 130.447 83.9322 130.087V83.4071C83.9322 83.0469 83.6402 82.7549 83.28 82.7549Z" fill="#CD6A2B"/>
<path d="M97.2146 130.801L95.4764 130.563C95.1992 130.524 94.9905 130.041 95.0101 129.48L96.5689 83.635C96.5885 83.0741 96.8298 82.6567 97.107 82.6926L98.8452 82.9306C99.1224 82.9698 99.3311 83.4557 99.3115 84.0133L97.7527 129.858C97.7331 130.419 97.5081 130.84 97.2146 130.801Z" fill="#CD6A2B"/>
<path d="M66.9024 130.801L68.6406 130.563C68.9178 130.524 69.1265 130.041 69.1069 129.48L67.5481 83.635C67.5285 83.0741 67.2872 82.6567 67.01 82.6926L65.2718 82.9306C64.9946 82.9698 64.7859 83.4557 64.8055 84.0133L66.3643 129.858C66.3839 130.419 66.6252 130.84 66.9024 130.801Z" fill="#CD6A2B"/>
<path d="M95.7731 59.4636L93.5099 67.1338L73.9431 61.3649C73.8377 61.3345 73.7395 61.2836 73.6539 61.2152C73.5683 61.1467 73.4971 61.062 73.4444 60.966C73.3917 60.8699 73.3584 60.7643 73.3466 60.6554C73.3348 60.5464 73.3447 60.4362 73.3756 60.3311L82.5329 29.2915C82.5949 29.081 82.7379 28.9038 82.9305 28.7986C83.1231 28.6934 83.3496 28.669 83.5602 28.7306L110.034 36.5411C110.139 36.5714 110.236 36.6221 110.321 36.6902C110.406 36.7583 110.476 36.8425 110.528 36.938C110.58 37.0335 110.613 37.1383 110.625 37.2465C110.636 37.3547 110.626 37.464 110.595 37.5683L103.476 61.7334L95.7731 59.4636Z" fill="#FAD787"/>
<path d="M93.5098 67.1373L95.773 59.4639L103.476 61.7336L93.5098 67.1373Z" fill="#E67E22"/>
<path d="M95.0653 38.5538L85.3154 35.6787L84.0029 40.1298L93.7528 43.0049L95.0653 38.5538Z" fill="#E67E22"/>
<path d="M96.8301 41.5015L104.298 43.7027" stroke="#E67E22" stroke-width="2" stroke-miterlimit="10"/>
<path d="M79.6895 55.0972L87.1575 57.2984" stroke="#E67E22" stroke-width="2" stroke-miterlimit="10"/>
<path d="M82.9731 43.6079L102.618 49.3997" stroke="#E67E22" stroke-width="2" stroke-miterlimit="10"/>
<path d="M81.8481 47.4268L101.49 53.2218" stroke="#E67E22" stroke-width="2" stroke-miterlimit="10"/>
<path d="M80.7197 51.249L100.365 57.0441" stroke="#E67E22" stroke-width="2" stroke-miterlimit="10"/>
</g>
<defs>
<clipPath id="clip0_465_516">
<rect width="156" height="138.054" fill="white"/>
</clipPath>
</defs>
</svg>
