<svg width="80" height="80" viewBox="0 0 80 80" fill="none" xmlns="http://www.w3.org/2000/svg">
<g clip-path="url(#clip0_1883_1144)">
<path d="M40.0001 79.1838C61.6406 79.1838 79.1838 61.6406 79.1838 40.0001C79.1838 18.3595 61.6406 0.816406 40.0001 0.816406C18.3595 0.816406 0.816406 18.3595 0.816406 40.0001C0.816406 61.6406 18.3595 79.1838 40.0001 79.1838Z" fill="#88C057"/>
<path d="M40.0001 77.1939C19.4924 77.1939 2.80664 60.5098 2.80664 40.0004C2.80664 19.4927 19.4924 2.80859 40.0001 2.80859C60.5095 2.80859 77.1936 19.4927 77.1936 40.0021C77.1936 60.5098 60.5095 77.1939 40.0001 77.1939Z" fill="white"/>
<path d="M39.6164 77.5971V41.4338L21.5364 72.7514L20.8703 72.3677L38.9519 41.0502L7.63271 59.1302L7.25067 58.4657L38.5682 40.384H2.40332V39.6167H38.5682L7.25067 21.5351L7.63271 20.8706L38.9519 38.9522L20.8703 7.63466L21.5364 7.25099L39.6164 38.5685V2.40527H40.3837V38.5685L58.467 7.24935L59.1298 7.63466L41.0499 38.9522L72.369 20.8706L72.7494 21.5367L41.4335 39.6167H77.5952V40.384H41.4335L72.7494 58.4657L72.369 59.1302L41.0499 41.0485L59.1298 72.3677L58.467 72.7514L40.3837 41.4338V77.5971H39.6164Z" fill="#88C057"/>
<path d="M39.9996 19.4902C28.6902 19.4902 19.4902 28.6902 19.4902 39.9996C19.4902 51.309 28.6902 60.509 39.9996 60.509C51.309 60.509 60.509 51.309 60.509 39.9996C60.509 28.6919 51.309 19.4902 39.9996 19.4902Z" fill="#666666"/>
<path d="M48.3737 14.6286C48.1073 14.2736 47.9179 13.8669 47.8178 13.4345C47.7177 13.0021 47.7091 12.5535 47.7925 12.1176L47.2684 11.9363C47.0646 12.3305 46.7806 12.6777 46.4348 12.9557C46.089 13.2338 45.689 13.4365 45.2603 13.551C44.7706 13.6895 44.2537 13.7013 43.7582 13.5853L43.7533 13.5837C43.4676 13.4841 43.3403 13.2212 43.4235 12.9796C43.4598 12.872 43.534 12.7812 43.6322 12.7241C43.7304 12.6671 43.846 12.6476 43.9574 12.6694C44.5795 12.7951 45.1591 12.6841 45.6815 12.3363C45.9689 12.1453 46.1893 11.9135 46.3476 11.6343L46.026 11.5233C45.9141 11.479 45.8236 11.3933 45.7734 11.2839C45.7232 11.1745 45.7172 11.05 45.7565 10.9363C45.7959 10.8226 45.8777 10.7285 45.9848 10.6736C46.0918 10.6187 46.216 10.6072 46.3313 10.6417L46.6546 10.7527C46.8962 10.0441 46.3346 9.00247 45.3844 8.449C45.2916 8.39454 45.2206 8.30964 45.1834 8.20874C45.1462 8.10783 45.1451 7.99715 45.1803 7.89553C45.2733 7.62941 45.5395 7.50043 45.7811 7.58369C46.421 7.88404 46.9434 8.38778 47.2668 9.0163C47.5902 9.64482 47.6964 10.3627 47.5689 11.058L48.0962 11.2408C48.4733 10.5535 49.0072 10.0621 49.6864 9.77961C50.3101 9.51839 50.9533 9.45798 51.595 9.60002L51.6015 9.60165C51.8921 9.70288 52.0178 9.96573 51.9362 10.2074C51.8546 10.4408 51.644 10.5714 51.4268 10.5404C50.3395 10.387 49.2554 10.8588 49.0072 11.5657L49.3305 11.6784C49.3883 11.6983 49.4416 11.7294 49.4873 11.77C49.5331 11.8105 49.5704 11.8597 49.5971 11.9146C49.6239 11.9696 49.6396 12.0293 49.6433 12.0903C49.6469 12.1513 49.6386 12.2124 49.6186 12.2702C49.5987 12.328 49.5676 12.3813 49.527 12.427C49.4865 12.4728 49.4374 12.5101 49.3824 12.5369C49.3275 12.5636 49.2678 12.5793 49.2067 12.583C49.1457 12.5867 49.0846 12.5783 49.0268 12.5584L48.7052 12.4474C48.6578 12.7657 48.6889 13.0825 48.7966 13.4123C48.9925 14.0082 49.3795 14.4539 49.946 14.7396C50.0465 14.7906 50.1251 14.8762 50.1674 14.9806C50.2097 15.085 50.2128 15.2012 50.1762 15.3078C49.9035 16.0865 48.8603 15.2882 48.3737 14.6286Z" fill="#BF8E5F"/>
<path d="M62.5784 21.1621C62.2094 20.7948 61.7115 20.6168 61.0927 20.6299C61.1111 20.3523 61.0695 20.074 60.9706 19.8139C60.8717 19.5538 60.7179 19.3182 60.5196 19.123C60.1278 18.7311 59.6396 18.5466 59.029 18.5613C59.057 18.139 58.9463 17.7191 58.7138 17.3655C58.4813 17.0119 58.1396 16.7438 57.7408 16.6021C57.4704 16.5106 57.1836 16.4778 56.8995 16.506C56.6155 16.5341 56.3407 16.6226 56.0935 16.7654C56.031 16.8036 55.9779 16.8555 55.9384 16.9171C55.8988 16.9788 55.8737 17.0486 55.8649 17.1213C55.856 17.1934 55.8638 17.2666 55.8879 17.3352C55.912 17.4037 55.9516 17.4658 56.0037 17.5164C56.0768 17.5903 56.172 17.6382 56.2749 17.6529C56.3777 17.6677 56.4826 17.6484 56.5735 17.5981C57.011 17.363 57.4127 17.3842 57.798 17.7205C57.9315 17.8529 58.0234 18.0215 58.0625 18.2054C58.1204 18.4527 58.0794 18.7129 57.9482 18.9303C57.8917 19.0316 57.8698 19.1486 57.8857 19.2634C57.9016 19.3783 57.9545 19.4849 58.0364 19.567C58.1144 19.6452 58.2149 19.697 58.3238 19.7151C58.4327 19.7333 58.5446 19.7169 58.6437 19.6683C59.1466 19.4266 59.4927 19.4446 59.8372 19.7662C60.2045 20.1336 60.2633 20.5368 60.0151 20.9972C59.9597 21.0974 59.9384 21.2128 59.9544 21.3262C59.9703 21.4395 60.0227 21.5445 60.1037 21.6255C60.1846 21.7064 60.2896 21.7588 60.403 21.7747C60.5163 21.7907 60.6317 21.7694 60.7319 21.714C60.9194 21.6034 61.138 21.5571 61.3544 21.5821C61.5707 21.6072 61.7729 21.7022 61.9302 21.8528C62.2666 22.1891 62.3057 22.5972 62.0494 23.0968C61.9998 23.2059 61.9927 23.3295 62.0293 23.4435C62.0659 23.5576 62.1438 23.6538 62.2476 23.7136C62.3514 23.7734 62.4737 23.7923 62.5907 23.7667C62.7078 23.7411 62.811 23.6728 62.8804 23.5752C63.1955 23.0805 63.2608 22.4372 63.0453 21.9001C62.9437 21.6238 62.7845 21.3723 62.5784 21.1621ZM58.2486 15.2715C58.3217 15.3454 58.4169 15.3933 58.5198 15.4081C58.6226 15.4228 58.7275 15.4035 58.8184 15.3532C59.2527 15.1213 59.6543 15.1409 60.0429 15.4756C60.1764 15.608 60.2683 15.7766 60.3074 15.9605C60.3653 16.2078 60.3243 16.468 60.1931 16.6854C60.1372 16.7841 60.1143 16.898 60.1279 17.0106C60.1415 17.1232 60.1908 17.2285 60.2685 17.311C60.3463 17.3936 60.4485 17.449 60.5601 17.4692C60.6717 17.4894 60.7868 17.4734 60.8886 17.4234C61.3915 17.1817 61.7376 17.1997 62.0821 17.5213C62.4494 17.8887 62.5082 18.2919 62.26 18.7524C62.2053 18.8526 62.1846 18.968 62.2011 19.0811C62.2176 19.1941 62.2703 19.2988 62.3515 19.3793C62.4321 19.459 62.536 19.511 62.6481 19.5277C62.7602 19.5445 62.8748 19.5251 62.9751 19.4724C63.1628 19.3608 63.3818 19.3136 63.5987 19.3381C63.8157 19.3626 64.0187 19.4573 64.1768 19.6079C64.5131 19.9442 64.5523 20.3524 64.2959 20.8519C64.2464 20.961 64.2392 21.0846 64.2758 21.1986C64.3125 21.3127 64.3903 21.409 64.4941 21.4687C64.5979 21.5285 64.7203 21.5474 64.8373 21.5218C64.9543 21.4962 65.0576 21.4279 65.127 21.3303C65.4421 20.8356 65.5041 20.1956 65.2919 19.6552C65.1874 19.3804 65.028 19.1299 64.8233 18.9189C64.4543 18.5499 63.9564 18.3736 63.3376 18.3866C63.356 18.109 63.3144 17.8307 63.2155 17.5706C63.1166 17.3106 62.9628 17.0749 62.7645 16.8797C62.3727 16.4879 61.8813 16.3066 61.2706 16.3213C61.3008 15.8984 61.1913 15.4774 60.9589 15.1228C60.7264 14.7682 60.384 14.4998 59.9841 14.3589C59.7137 14.2673 59.4269 14.2346 59.1428 14.2627C58.8587 14.2909 58.5839 14.3793 58.3368 14.5221C58.2741 14.5602 58.2209 14.612 58.1813 14.6737C58.1417 14.7353 58.1167 14.8053 58.1082 14.8781C58.0999 14.95 58.1083 15.0229 58.1326 15.0911C58.157 15.1593 58.1967 15.2211 58.2486 15.2715Z" fill="#EF56A7"/>
<path d="M14.3804 30.7723L9.91669 30.3706C9.81383 29.9657 9.87751 29.4776 9.69302 29.1331C9.66032 29.0727 9.61606 29.0194 9.56275 28.9762C9.50945 28.9329 9.44815 28.9006 9.38235 28.881C9.31655 28.8615 9.24755 28.8551 9.17928 28.8622C9.111 28.8693 9.0448 28.8898 8.98444 28.9225C8.92409 28.9552 8.87077 28.9994 8.82752 29.0527C8.78427 29.1061 8.75195 29.1674 8.73239 29.2332C8.71283 29.2989 8.70643 29.368 8.71354 29.4362C8.72065 29.5045 8.74114 29.5707 8.77383 29.6311C9.17383 30.3755 9.34526 31.3372 9.2571 32.3413C9.16893 33.3453 8.82934 34.2613 8.30526 34.9241C8.21888 35.0326 8.17912 35.1709 8.19473 35.3087C8.21035 35.4465 8.28006 35.5724 8.38853 35.6588C8.49699 35.7452 8.63534 35.785 8.77312 35.7693C8.9109 35.7537 9.03684 35.684 9.12322 35.5755C9.36649 35.2686 9.38934 34.7755 9.5624 34.3968L14.0261 34.7951C14.1306 35.1984 14.0653 35.6882 14.2514 36.0327C14.2443 36.1137 14.2562 36.1953 14.2862 36.2709C14.3163 36.3465 14.3635 36.414 14.4242 36.4682C14.4849 36.5223 14.5574 36.5615 14.636 36.5826C14.7145 36.6038 14.7969 36.6063 14.8766 36.59C14.9563 36.5737 15.0311 36.539 15.095 36.4887C15.1589 36.4384 15.2102 36.3738 15.2448 36.3002C15.2793 36.2266 15.2962 36.1459 15.2941 36.0646C15.292 35.9833 15.271 35.9036 15.2326 35.8319C15.242 35.7298 15.2216 35.6271 15.1738 35.5364C14.7738 34.7919 14.6024 33.8302 14.6906 32.8262C14.7787 31.8237 15.1183 30.9062 15.6424 30.2433C15.7286 30.1344 15.7679 29.9957 15.7519 29.8578C15.7358 29.7199 15.6656 29.594 15.5567 29.5078C15.4478 29.4216 15.3091 29.3822 15.1712 29.3983C15.0332 29.4144 14.9073 29.4846 14.8212 29.5935C14.5763 29.8972 14.5534 30.3919 14.3804 30.7723ZM13.8253 32.7315C13.7942 33.0743 13.7975 33.3355 13.8204 33.6686L9.95914 33.3258C10.0391 33.0025 10.0849 32.7772 10.1159 32.4327C10.1453 32.1013 10.1502 31.8482 10.1273 31.5266L13.9706 31.8694C13.8985 32.1523 13.8499 32.4406 13.8253 32.7315Z" fill="#FFCC66"/>
<path d="M33.781 15.6068C33.6479 15.6476 33.504 15.6339 33.381 15.5687C33.2579 15.5035 33.1658 15.3921 33.1247 15.2591C33.1247 15.2591 32.0178 11.628 31.8823 11.1954L31.799 11.0697C31.3892 10.8346 30.9533 10.5782 30.5272 10.3807C30.298 10.2597 30.0316 10.2294 29.781 10.2958C29.0121 10.5325 28.6496 11.7097 29.4006 12.3513C29.9835 12.8493 30.8423 12.4427 30.857 13.1366C30.8619 13.4256 30.6594 13.664 30.1321 13.6444C29.8385 13.634 29.55 13.565 29.2835 13.4416C29.017 13.3181 28.7778 13.1426 28.5801 12.9254C28.3824 12.7082 28.23 12.4537 28.1321 12.1768C28.0341 11.8999 27.9925 11.6062 28.0096 11.3129C28.0369 10.8713 28.1964 10.4481 28.4675 10.0984C28.7386 9.74864 29.1087 9.48862 29.5296 9.35212C30.1468 9.18559 30.6578 9.35539 31.0855 9.53988C31.3419 9.6509 31.657 9.81253 31.9296 9.95131L32.0684 10.0215L32.1549 9.86478C32.3002 9.60192 32.4651 9.30151 32.6104 9.07131C32.8602 8.67784 33.1868 8.25172 33.7157 8.06559L33.719 8.06396C34.1517 7.92469 34.6168 7.92139 35.0514 8.0545C35.4861 8.18761 35.8695 8.45075 36.15 8.80845C36.3407 9.05862 36.4757 9.3466 36.5462 9.65313C36.6166 9.95967 36.6208 10.2777 36.5586 10.586C36.4963 10.8943 36.3689 11.1858 36.185 11.4409C36.0011 11.6961 35.7649 11.909 35.4921 12.0656L35.4545 12.0787C35.1525 12.1717 34.9402 12.0982 34.8243 11.9301C34.7849 11.8741 34.7577 11.8105 34.7444 11.7434C34.7311 11.6762 34.732 11.6071 34.7471 11.5403C34.7622 11.4735 34.7911 11.4107 34.8319 11.3558C34.8728 11.3009 34.9247 11.2551 34.9843 11.2215C35.1313 11.141 35.2601 11.031 35.3627 10.8984C35.4652 10.7658 35.5393 10.6134 35.5802 10.4509C35.6556 10.176 35.6293 9.88306 35.506 9.62601C35.3827 9.36896 35.1708 9.16504 34.9092 9.05172C34.7068 8.96192 34.4064 8.87376 34.1125 8.96355C33.8677 9.0494 33.6643 9.22427 33.5427 9.45335C33.3321 9.80437 33.1525 10.175 32.9713 10.544L32.8766 10.7382L32.8815 10.8901C32.999 11.2819 34.1304 14.9505 34.1304 14.9505C34.1506 15.0165 34.1575 15.0859 34.1509 15.1546C34.1443 15.2233 34.1241 15.2901 34.0917 15.351C34.0592 15.412 34.0151 15.4659 33.9618 15.5098C33.9085 15.5537 33.8471 15.5867 33.781 15.6068Z" fill="#3AB7FC"/>
<path d="M22.416 22.4314C21.2634 23.6118 19.3858 23.3931 18.465 22.1572C18.2553 21.87 18.1049 21.544 18.0228 21.198C17.9407 20.8521 17.9284 20.4932 17.9867 20.1425C17.2405 20.1604 16.8716 19.9384 16.3769 19.5367C15.616 18.9212 14.7475 19.7931 15.216 20.4706C15.2977 20.5898 15.3842 20.7678 15.1981 20.9604L15.0365 21.1155L14.8242 21.1221L14.9303 21.2249L14.883 21.2739L14.6936 21.3163C14.5042 21.3033 14.3491 21.0502 14.2642 20.8804C14.0937 20.5501 14.0317 20.1744 14.0871 19.8068C14.1425 19.4392 14.3125 19.0985 14.5728 18.8331C14.8979 18.4976 15.3419 18.3034 15.8089 18.2924C16.2759 18.2814 16.7286 18.4545 17.0691 18.7743C17.5834 19.238 18.2365 19.2363 18.692 18.7694C19.1001 18.309 19.0985 17.6625 18.736 17.2772C18.2822 16.7906 18.0911 16.3204 18.1369 15.7947C18.176 15.3408 18.3377 14.9669 18.6152 14.6829C18.7916 14.5016 19.0152 14.358 19.2797 14.2584C19.8789 14.0282 20.4601 14.1147 21.0054 14.5163L21.0593 14.5572L21.1263 14.7318C21.1301 14.7743 21.1248 14.8172 21.1107 14.8574C21.0966 14.8977 21.0741 14.9345 21.0446 14.9653C20.8095 15.2053 20.6283 15.4747 20.3442 15.2984C20.0079 15.0927 19.6258 15.1253 19.3744 15.3833C19.0805 15.7425 19.1067 16.1604 19.3858 16.4543C19.8299 16.9245 19.9867 17.3 20.0275 18.0461C22.7018 17.5955 24.1401 20.6649 22.416 22.4314ZM19.4283 19.4861C19.0773 19.9025 18.914 20.3563 18.963 20.7906C19.1018 22.0314 20.6822 22.7416 21.6912 21.7082C22.4014 20.882 22.2136 19.9188 21.5638 19.3833C21.2613 19.1362 20.8788 19.0086 20.4886 19.0246C20.0984 19.0405 19.7276 19.1989 19.4463 19.4698L19.3385 19.3653L19.4283 19.4861Z" fill="#ED7161"/>
<path d="M12.7671 49.4907C12.7671 49.1038 12.6398 48.7282 12.4096 48.4344C11.9116 47.7993 11.0496 47.5887 10.359 47.9331C10.1941 48.0148 10.0455 48.1242 9.88223 48.2466L9.84304 48.2776C9.79305 48.0094 9.76629 47.7374 9.76304 47.4646C9.76304 47.3127 9.77284 47.1625 9.79406 46.9976C9.99161 45.3846 10.4586 44.8964 10.7214 44.7478C10.7869 44.7105 10.8417 44.6568 10.8804 44.592C10.919 44.5273 10.9403 44.4536 10.9421 44.3782C10.9439 44.3028 10.9262 44.2282 10.8907 44.1617C10.8551 44.0951 10.803 44.0389 10.7394 43.9984C10.6772 43.9597 10.6061 43.9375 10.5329 43.9341C10.4598 43.9306 10.3869 43.9461 10.3214 43.9789C9.94808 44.1672 9.64694 44.4729 9.46427 44.8491C9.10998 45.5527 8.91406 46.4882 8.91406 47.4842C8.91406 48.2646 9.03488 49.0417 9.26508 49.7307C9.47733 50.3658 9.84794 50.805 10.3688 51.0384C10.6275 51.1547 10.9112 51.2044 11.1941 51.183C11.477 51.1616 11.75 51.0699 11.9884 50.916C12.2267 50.7622 12.4228 50.5513 12.5588 50.3023C12.6948 50.0534 12.7664 49.7744 12.7671 49.4907ZM10.5255 50.018C10.4545 49.9469 10.3984 49.8623 10.3606 49.7693C10.3227 49.6762 10.3039 49.5765 10.3051 49.476C10.3191 49.2846 10.4053 49.1056 10.5464 48.9755C10.6875 48.8453 10.8728 48.7737 11.0647 48.7751C11.2567 48.7766 11.4409 48.851 11.5799 48.9833C11.719 49.1156 11.8026 49.2958 11.8137 49.4874C11.8148 49.6372 11.7711 49.7839 11.6883 49.9086C11.6054 50.0334 11.4872 50.1305 11.3487 50.1876C11.2102 50.2446 11.0578 50.259 10.9112 50.2288C10.7645 50.1985 10.6302 50.1252 10.5255 50.018Z" fill="#88C057"/>
<path d="M11.541 45.6361C11.541 46.0231 11.6667 46.397 11.8986 46.6908C12.3949 47.3259 13.2586 47.5382 13.9492 47.1937C14.1124 47.1121 14.261 47.0027 14.4243 46.8819L14.4667 46.8508C14.519 47.1676 14.5467 47.4174 14.5467 47.6639C14.5467 47.8157 14.5369 47.9659 14.5157 48.1292C14.3198 49.7406 13.8512 50.2304 13.59 50.379C13.5245 50.4161 13.4696 50.4696 13.4309 50.5343C13.3922 50.5989 13.3709 50.6725 13.3691 50.7478C13.3673 50.8231 13.3851 50.8976 13.4206 50.964C13.4562 51.0304 13.5083 51.0865 13.572 51.1268C13.6344 51.1658 13.7058 51.1882 13.7793 51.1916C13.8528 51.195 13.9259 51.1794 13.9916 51.1463C14.2463 51.0206 14.6022 50.7659 14.8488 50.2761C15.2047 49.5725 15.4006 48.637 15.4006 47.641C15.4036 46.8783 15.2851 46.12 15.0496 45.3945C14.839 44.7594 14.4667 44.3186 13.9459 44.0868C13.5975 43.9291 13.2061 43.8935 12.8349 43.9856C12.4638 44.0778 12.1345 44.2923 11.9002 44.5945C11.6684 44.8802 11.541 45.2508 11.541 45.6361ZM13.7843 45.1104C13.872 45.1983 13.9366 45.3064 13.9725 45.4252C14.0084 45.544 14.0144 45.6698 13.99 45.7915C13.9656 45.9132 13.9115 46.027 13.8326 46.1228C13.7538 46.2186 13.6524 46.2934 13.5377 46.3407C13.4229 46.388 13.2983 46.4062 13.1748 46.3938C13.0513 46.3813 12.9328 46.3386 12.8298 46.2694C12.7268 46.2002 12.6424 46.1066 12.5842 45.997C12.526 45.8874 12.4958 45.7651 12.4961 45.641L12.3459 45.6378H12.4961C12.4961 45.2345 12.8308 44.89 13.2259 44.8868C13.4398 44.8868 13.639 44.9668 13.7843 45.1104Z" fill="#88C057"/>
<path d="M36.7267 71.1005C36.6434 71.0792 36.5555 71.0844 36.4753 71.1155C36.3951 71.1465 36.3266 71.2018 36.2793 71.2736C36.2073 71.3905 36.1068 71.4871 35.9871 71.5544C35.7797 71.6719 35.5544 71.6605 35.3373 71.4891C35.2376 71.4156 35.1631 71.3131 35.1239 71.1956C35.0848 71.0781 35.0829 70.9514 35.1185 70.8328L35.8058 68.1552C35.8322 68.0498 35.8159 67.9383 35.7606 67.8448C35.7053 67.7512 35.6154 67.6833 35.5103 67.6556C35.4058 67.6297 35.2953 67.6458 35.2025 67.7004C35.1097 67.755 35.042 67.8439 35.014 67.9479L34.3332 70.6026C34.263 70.8785 34.1014 71.0368 33.8401 71.0907C33.7442 71.1158 33.6433 71.1146 33.5479 71.0875C33.2132 71.0042 33.0222 70.6499 33.1136 70.2875L33.7863 67.6377C33.7995 67.5859 33.8024 67.532 33.7948 67.4791C33.7872 67.4262 33.7692 67.3753 33.7419 67.3294C33.7146 67.2834 33.6785 67.2433 33.6357 67.2113C33.5929 67.1793 33.5442 67.1561 33.4924 67.143C33.4406 67.129 33.3865 67.1255 33.3334 67.1327C33.2802 67.1399 33.229 67.1576 33.1828 67.1848C33.1366 67.2121 33.0963 67.2482 33.0642 67.2912C33.0321 67.3342 33.009 67.3832 32.996 67.4352L32.3071 70.1209C32.2888 70.2017 32.2534 70.2776 32.2033 70.3435C32.1532 70.4095 32.0894 70.4638 32.0165 70.503C31.9091 70.5669 31.7851 70.5974 31.6603 70.5903C31.5355 70.5833 31.4157 70.5391 31.3162 70.4635C31.2167 70.3879 31.142 70.2842 31.1019 70.1659C31.0617 70.0475 31.0578 69.9199 31.0907 69.7993L31.814 66.965C31.814 66.965 31.8646 66.6875 31.8712 66.627C31.9854 66.614 32.1014 66.5993 32.2189 66.5895C32.3199 66.579 32.4135 66.5315 32.4817 66.4562C32.5498 66.3808 32.5876 66.2829 32.5879 66.1813C32.5879 66.0115 32.4801 65.8597 32.2189 65.7928C32.1966 65.7859 32.1736 65.7815 32.1503 65.7797L31.7063 65.8124C31.6112 65.6375 31.4813 65.484 31.3246 65.3613C31.168 65.2385 30.9878 65.1493 30.7952 65.0989C30.485 65.0215 30.1579 65.0485 29.8646 65.1757C29.5712 65.3029 29.3279 65.5232 29.1724 65.8026C29.1427 65.8565 29.126 65.9165 29.1234 65.978C29.1209 66.0394 29.1326 66.1007 29.1577 66.1568C29.1882 66.226 29.237 66.2855 29.299 66.3289C29.3609 66.3722 29.4336 66.3977 29.509 66.4026C29.5845 66.4074 29.6598 66.3915 29.7268 66.3565C29.7938 66.3216 29.85 66.2689 29.8891 66.2042C29.9411 66.1028 30.0206 66.0182 30.1185 65.9599C30.2164 65.9015 30.3287 65.8719 30.4426 65.8744C30.4975 65.8735 30.5524 65.8796 30.6058 65.8924C30.6819 65.9134 30.753 65.9495 30.8148 65.9985C30.6516 66.0475 30.4948 66.0964 30.343 66.1568C28.6287 66.8344 28.2858 68.1666 28.6956 68.9617C28.788 69.1414 28.9172 69.2997 29.0747 69.4263C29.2322 69.5528 29.4146 69.6449 29.6099 69.6964C29.8277 69.7498 30.0547 69.7543 30.2744 69.7095C30.183 70.2842 30.3724 70.7658 30.8246 71.1071C31.334 71.4973 31.9005 71.5087 32.4589 71.1952C32.663 71.543 32.965 71.7748 33.3618 71.8744C33.5482 71.923 33.7426 71.9333 33.9331 71.9047C34.1236 71.8761 34.3064 71.8091 34.4703 71.7079C34.5975 71.9301 34.7813 72.1145 35.003 72.2424C35.2247 72.3704 35.4765 72.4372 35.7324 72.436C35.9884 72.4348 36.2395 72.3658 36.4601 72.2358C36.6806 72.1059 36.8628 71.9198 36.9879 71.6964C37.0193 71.6415 37.0374 71.58 37.0408 71.5169C37.0442 71.4537 37.0327 71.3906 37.0073 71.3327C36.9819 71.2748 36.9433 71.2236 36.8946 71.1833C36.8458 71.1429 36.7883 71.1146 36.7267 71.1005ZM29.3928 68.5275C29.1658 67.9413 29.8728 67.2589 30.4948 66.9911C30.6548 66.9209 30.8214 66.8622 31.0009 66.8034L31.0189 66.7968L30.6042 68.4148C30.5783 68.5495 30.5094 68.6722 30.4078 68.7644C30.3062 68.8565 30.1774 68.9132 30.0408 68.9259C29.9042 68.9386 29.7672 68.9067 29.6503 68.8348C29.5335 68.7629 29.4431 68.6551 29.3928 68.5275Z" fill="#BF8E5F"/>
<path d="M49.6828 66.1224L48.1367 66.702C48.0452 66.7349 47.9658 66.7949 47.9089 66.8738C47.8521 66.9528 47.8205 67.0472 47.8184 67.1444C47.8118 67.3469 47.9212 67.5248 48.1873 67.6457C49.2257 68.1355 49.2028 69.7175 48.0518 70.1485C47.7961 70.2437 47.5178 70.26 47.2527 70.1955C46.9876 70.1309 46.748 69.9884 46.5647 69.7863C46.3814 69.5842 46.2629 69.3318 46.2244 69.0617C46.186 68.7916 46.2294 68.5162 46.349 68.271C46.3904 68.1824 46.4041 68.0833 46.388 67.9868C46.372 67.8903 46.3271 67.801 46.2592 67.7306C46.1933 67.6586 46.1073 67.6082 46.0123 67.5861C45.9173 67.5639 45.8178 67.571 45.7269 67.6065L44.2037 68.1763C44.0854 68.2293 43.9919 68.3255 43.9421 68.4451C43.8922 68.5647 43.8899 68.6988 43.9354 68.8201C43.981 68.9414 44.0711 69.0408 44.1873 69.098C44.3036 69.1552 44.4373 69.166 44.5612 69.1281L45.1686 68.9012C45.3253 70.8506 47.0984 71.6391 48.4208 71.1444C49.7579 70.6432 50.62 68.9306 49.4069 67.2979L50.0371 67.0612C50.1002 67.0374 50.1579 67.0011 50.2067 66.9545C50.2555 66.908 50.2945 66.8521 50.3212 66.7901C50.3588 66.6997 50.3693 66.6002 50.3513 66.5039C50.3334 66.4076 50.2877 66.3187 50.22 66.2478C50.1523 66.177 50.0655 66.1275 49.9701 66.1052C49.8747 66.0829 49.7749 66.0889 49.6828 66.1224ZM43.9457 67.4938L49.4216 65.4432C49.5494 65.3954 49.6529 65.2987 49.7093 65.1746C49.7658 65.0504 49.7707 64.9089 49.7228 64.7812C49.675 64.6534 49.5784 64.5499 49.4542 64.4934C49.33 64.437 49.1885 64.4321 49.0608 64.4799L43.5849 66.5306C43.4571 66.5784 43.3536 66.675 43.2972 66.7992C43.2407 66.9233 43.2358 67.0649 43.2837 67.1926C43.3315 67.3203 43.4281 67.4238 43.5523 67.4803C43.6764 67.5368 43.818 67.5417 43.9457 67.4938Z" fill="#3AB7FC"/>
<path d="M55.667 60.163C55.7186 60.1121 55.7809 60.0732 55.8493 60.0494C55.9178 60.0255 55.9907 60.0171 56.0627 60.025C56.1348 60.0328 56.2042 60.0566 56.266 60.0946C56.3277 60.1326 56.3802 60.1838 56.4197 60.2447C56.5241 60.4079 56.6009 60.5271 56.6597 60.6234L56.7233 60.581C57.3927 60.1793 58.2123 60.2773 58.7658 60.8259C59.5527 61.6063 60.3348 62.3916 61.1152 63.1769C61.3666 63.43 61.5968 63.5132 61.8629 63.4495C61.9909 63.4223 62.1086 63.3595 62.2025 63.2683C62.282 63.186 62.3393 63.0849 62.369 62.9744C62.4092 62.8551 62.414 62.7266 62.3827 62.6047C62.3514 62.4827 62.2854 62.3724 62.1927 62.2871L60.0001 60.0977C59.9087 60.0063 59.8574 59.8824 59.8574 59.7532C59.8574 59.624 59.9087 59.5001 60.0001 59.4087C60.0914 59.3174 60.2153 59.266 60.3446 59.266C60.4738 59.266 60.5977 59.3174 60.689 59.4087L62.8768 61.5916C63.138 61.8495 63.5299 61.8757 63.8058 61.6536L63.8156 61.6438C64.0915 61.3679 64.1339 61.0365 63.9772 60.7671C63.938 60.6985 63.8744 60.6332 63.8188 60.5761L61.6686 58.4259C61.6231 58.3804 61.5869 58.3264 61.5622 58.267C61.5375 58.2076 61.5248 58.1439 61.5247 58.0795C61.5246 58.0152 61.5372 57.9514 61.5618 57.8919C61.5863 57.8324 61.6224 57.7784 61.6678 57.7328C61.7133 57.6873 61.7673 57.6511 61.8267 57.6264C61.8861 57.6017 61.9498 57.5889 62.0142 57.5889C62.0785 57.5888 62.1423 57.6014 62.2018 57.6259C62.2613 57.6505 62.3153 57.6865 62.3609 57.732L64.5519 59.9181C64.7641 60.1287 65.0123 60.1842 65.2882 60.0846C65.3907 60.0499 65.4839 59.9924 65.5609 59.9165C65.6686 59.8087 65.7241 59.6716 65.7258 59.51C65.7285 59.374 65.7012 59.2391 65.6458 59.1149C65.6019 59.0222 65.5877 58.9183 65.6049 58.8172C65.6221 58.7162 65.67 58.6229 65.7421 58.55C65.797 58.4947 65.8643 58.4533 65.9384 58.4292C66.0125 58.405 66.0913 58.3989 66.1682 58.4112C66.2459 58.4228 66.3196 58.4529 66.3832 58.499C66.4469 58.545 66.4986 58.6056 66.5339 58.6757C66.7331 59.0642 66.7674 59.5671 66.6221 59.9883C66.5438 60.2216 66.4132 60.4338 66.2401 60.6087C65.9462 60.9026 65.5364 61.0724 65.0466 61.1018C65.0461 61.3326 64.9981 61.5609 64.9054 61.7724C64.8127 61.9838 64.6774 62.1738 64.5079 62.3306C64.3384 62.4873 64.1384 62.6074 63.9204 62.6834C63.7024 62.7593 63.4711 62.7895 63.2409 62.772L63.2213 62.7916L63.3715 62.7932C63.3652 63.2342 63.1892 63.6558 62.8801 63.9704C62.7269 64.1237 62.5434 64.2433 62.3413 64.3214C61.6637 64.5777 61.0417 64.4553 60.5421 63.9687C60.0463 63.4828 59.5538 62.9935 59.0646 62.501L58.098 61.5377C57.8956 61.3369 57.6458 61.2683 57.4172 61.3418L57.6213 61.474C57.8482 61.6226 57.9266 61.7532 57.9429 61.8985C57.9512 61.9875 57.9349 62.0771 57.8959 62.1575C57.8568 62.2379 57.7966 62.3061 57.7216 62.3547C57.6466 62.4033 57.5597 62.4304 57.4703 62.4332C57.381 62.436 57.2926 62.4142 57.2148 62.3704C56.9405 62.2153 56.6531 62.1728 56.4229 62.2544C56.3217 62.289 56.2128 62.2945 56.1086 62.2703C56.0044 62.246 55.9091 62.193 55.8335 62.1173C55.7501 62.0385 55.6916 61.937 55.6652 61.8253C55.6388 61.7136 55.6456 61.5966 55.685 61.4887C55.765 61.2683 55.7307 61.0055 55.587 60.7475C55.5355 60.6545 55.5155 60.5473 55.5299 60.442C55.5444 60.3366 55.5924 60.2388 55.667 60.163Z" fill="#ED7161"/>
<path d="M21.5024 58.4405C21.3799 58.8242 21.1122 59.1507 20.7056 59.4136C20.3514 59.6421 19.9856 59.8544 19.6199 60.0666C18.6126 60.6446 17.4991 61.007 17.6705 62.1319C17.7007 62.3287 17.7777 62.5154 17.895 62.6762C18.0124 62.837 18.1666 62.9673 18.3448 63.056C18.4412 63.105 18.5424 63.1425 18.6501 63.1687C18.8873 63.2197 19.1341 63.2022 19.3617 63.118C19.5893 63.0339 19.7881 62.8867 19.935 62.6936C20.1995 62.3376 20.2616 61.9589 20.1277 61.536C19.9935 61.1212 20.0257 60.6704 20.2175 60.2789C20.4216 59.8495 20.7726 59.5327 21.2085 59.3842C21.4534 59.3006 21.7139 59.2732 21.9708 59.304C22.2277 59.3348 22.4744 59.423 22.6926 59.5621C22.9335 59.7135 23.1328 59.9226 23.2725 60.1705C23.4123 60.4183 23.488 60.6971 23.4928 60.9815C23.4977 61.266 23.4316 61.5472 23.3004 61.7997C23.1692 62.0521 22.9771 62.2679 22.7416 62.4274C22.175 62.8046 21.5775 62.8389 20.9636 62.527C20.6371 63.456 19.9497 63.9964 19.0126 64.0536C18.6522 64.0762 18.2923 64.0011 17.971 63.8364C17.0028 63.3417 16.5424 62.1793 16.9261 61.1899C17.3326 60.1417 18.2436 59.9066 19.9954 58.8536C20.189 58.7377 20.3664 58.5966 20.5228 58.434C20.9505 57.9899 20.562 57.3711 19.9775 57.4168C19.7946 57.3678 19.6673 57.3483 19.5938 57.1295C19.5723 57.0691 19.565 57.0047 19.5724 56.941C19.5799 56.8774 19.6019 56.8163 19.6368 56.7626C19.6718 56.7089 19.7186 56.664 19.7737 56.6313C19.8288 56.5987 19.8907 56.5792 19.9546 56.5744C20.9897 56.4993 21.8077 57.4772 21.5024 58.4405ZM21.3816 61.7727C21.5845 61.8761 21.8199 61.8954 22.0369 61.8263C22.2539 61.7573 22.435 61.6054 22.5408 61.4038C22.5928 61.3046 22.6245 61.1961 22.6341 61.0845C22.6436 60.9729 22.6308 60.8605 22.5963 60.754C22.5598 60.6412 22.5011 60.5369 22.4238 60.4472C22.3464 60.3575 22.2518 60.2841 22.1456 60.2315C22.0483 60.1795 21.9416 60.1472 21.8317 60.1366C21.7219 60.126 21.611 60.1373 21.5055 60.1698C21.4 60.2023 21.302 60.2553 21.2171 60.3259C21.1322 60.3964 21.0622 60.4831 21.011 60.5809C20.9523 60.6801 20.9148 60.7903 20.9007 60.9046C20.8867 61.019 20.8964 61.135 20.9293 61.2454C20.9642 61.3564 21.0207 61.4594 21.0955 61.5485C21.1703 61.6376 21.262 61.711 21.3652 61.7646L21.3146 61.9066L21.3816 61.7727Z" fill="#EF56A7"/>
<path d="M64.6236 32.8228C64.5983 32.7288 64.6047 32.629 64.6419 32.5389C64.6791 32.4489 64.745 32.3736 64.8293 32.3249C65.2669 32.0751 65.4301 32.5143 65.7322 32.8996C66.2171 33.5183 66.6856 33.9314 67.2081 34.2008C67.6865 34.4457 68.1567 34.4979 68.6448 34.3575C69.004 34.2547 69.3648 34.1583 69.7256 34.0636L70.3297 33.902C70.7999 33.7747 71.0056 33.3681 70.9028 32.9845C70.8766 32.8913 70.8319 32.8043 70.7713 32.7289C70.7107 32.6534 70.6355 32.5909 70.5501 32.5453C70.4776 32.5023 70.3972 32.4742 70.3136 32.4627C70.2301 32.4512 70.1451 32.4565 70.0636 32.4783L69.1036 32.7379C68.9884 32.7689 68.8657 32.753 68.7622 32.6936C68.6588 32.6342 68.5831 32.5363 68.5518 32.4212C68.5223 32.3041 68.5401 32.1802 68.6011 32.076C68.6622 31.9719 68.7617 31.8959 68.8783 31.8645L69.7305 31.6326C70.1534 31.5167 70.3722 31.1885 70.3003 30.7771L70.2954 30.7608C70.1828 30.3477 69.9542 30.1894 69.5918 30.1926C69.4931 30.1937 69.3968 30.162 69.318 30.1027C69.2391 30.0433 69.1821 29.9596 69.1558 29.8645C69.1376 29.7988 69.1349 29.7298 69.1479 29.6629C69.161 29.5961 69.1894 29.5331 69.2309 29.4791C69.2714 29.425 69.3239 29.3809 69.3842 29.3503C69.4445 29.3197 69.5111 29.3035 69.5787 29.3028C69.995 29.2979 70.4669 29.4955 70.7509 29.7943C70.9436 29.9951 71.0824 30.24 71.1526 30.5012C71.2326 30.7983 71.262 31.2489 70.9762 31.7616C71.3411 31.9578 71.6156 32.2879 71.742 32.6824L71.7436 32.6873C71.9967 33.6179 71.5052 34.4849 70.6497 34.7396L70.1681 34.8718C70.3156 35.0336 70.4281 35.2241 70.4983 35.4315C70.5686 35.6389 70.5951 35.8586 70.5762 36.0767C70.5488 36.4537 70.3879 36.8085 70.1224 37.0775C69.8582 37.3467 69.5086 37.5155 69.1336 37.5552C68.7586 37.5948 68.3814 37.5027 68.0669 37.2947C67.7515 37.1008 67.5216 36.7945 67.4236 36.4375C67.3305 36.0914 67.3567 35.7012 67.5036 35.2751C66.1583 34.8849 65.3256 33.8906 64.6873 32.96L64.6236 32.8228ZM69.6636 35.7404C69.6089 35.5593 69.4861 35.4066 69.3211 35.3143C69.156 35.222 68.9615 35.1974 68.7787 35.2457C68.595 35.2944 68.438 35.4137 68.3417 35.5775C68.2454 35.7414 68.2176 35.9366 68.2644 36.1208C68.3122 36.3044 68.4302 36.4618 68.5929 36.5593C68.7557 36.6567 68.9502 36.6863 69.1346 36.6416C69.2278 36.6189 69.3155 36.5779 69.3928 36.5212C69.4701 36.4644 69.5355 36.393 69.5851 36.3109C69.6347 36.2288 69.6676 36.1378 69.6819 36.0429C69.6962 35.9481 69.6917 35.8514 69.6685 35.7583L69.8089 35.7012L69.6636 35.7404Z" fill="#88C057"/>
<path d="M67.7305 42.8193C67.7914 42.8067 67.8542 42.8063 67.9153 42.8182C67.9764 42.83 68.0345 42.8539 68.0863 42.8884C68.1381 42.9228 68.1825 42.9672 68.217 43.019C68.2515 43.0708 68.2754 43.1289 68.2873 43.1899L68.7346 45.5458L70.2987 45.2014C70.3596 45.1877 70.4227 45.1865 70.4841 45.1976C70.5455 45.2087 70.6041 45.2319 70.6565 45.266C70.7088 45.3001 70.7538 45.3443 70.7888 45.396C70.8238 45.4477 70.8481 45.5058 70.8603 45.5671C70.9256 45.8969 70.7411 46.1156 70.4979 46.163L68.9909 46.4536L69.6407 49.6944C69.8383 49.5034 70.0489 49.3613 70.2775 49.265C70.3433 49.2373 70.4146 49.2251 70.4859 49.2294C70.5572 49.2338 70.6265 49.2545 70.6885 49.2901C70.7504 49.3257 70.8033 49.3751 70.8431 49.4344C70.8828 49.4938 70.9082 49.5615 70.9175 49.6324C70.9334 49.733 70.9156 49.836 70.8669 49.9255C70.8181 50.015 70.7412 50.0858 70.6481 50.1271C70.4778 50.206 70.333 50.331 70.2301 50.4879C70.0734 50.7213 69.9852 51.0316 69.9754 51.3842C69.9717 51.5036 69.9262 51.6179 69.8469 51.7071C69.7675 51.7963 69.6593 51.8548 69.5411 51.8724C69.4303 51.8907 69.3165 51.8721 69.2173 51.8192C69.1181 51.7664 69.0391 51.6824 68.9926 51.5801C68.7411 51.0234 68.333 50.6952 67.8709 50.6822C67.7644 50.6786 67.6623 50.6385 67.5818 50.5687C67.5012 50.4988 67.4471 50.4035 67.4285 50.2985C67.4133 50.2311 67.4135 50.1612 67.429 50.0939C67.4445 50.0267 67.4749 49.9637 67.518 49.9098C67.5611 49.8558 67.6158 49.8123 67.678 49.7824C67.7403 49.7524 67.8084 49.7369 67.8775 49.7369C68.1273 49.7369 68.3836 49.7891 68.6546 49.8969L68.0162 46.6528L66.6611 46.9532C66.2122 47.0528 65.9917 46.8634 65.9575 46.5793C65.9183 46.2495 66.1011 46.0503 66.3395 46.0111L67.8513 45.7565L67.3583 43.3695C67.3464 43.3089 67.3467 43.2466 67.359 43.1861C67.3713 43.1256 67.3955 43.0682 67.43 43.017C67.4646 42.9659 67.509 42.9221 67.5606 42.8882C67.6121 42.8543 67.6699 42.8309 67.7305 42.8193Z" fill="#FFCC66"/>
<path d="M40.0002 21.415C29.7504 21.415 21.4141 29.7514 21.4141 39.9995C21.4141 50.2477 29.7504 58.584 40.0002 58.584C50.2483 58.584 58.5847 50.2477 58.5847 39.9995C58.5847 29.7514 50.2483 21.415 40.0002 21.415Z" fill="white"/>
<path d="M40.0001 56.7841C30.7446 56.7841 23.2148 49.2543 23.2148 40.0005C23.2148 30.7466 30.7446 23.2168 40.0001 23.2168C49.254 23.2168 56.7838 30.7466 56.7838 40.0005C56.7838 49.2543 49.2557 56.7841 40.0001 56.7841Z" fill="#ED7161"/>
<path d="M53.0022 51.3662C48.7305 49.4255 45.0836 46.3337 42.4699 42.4373C46.8157 44.5936 51.6614 45.5416 56.4993 45.1818C56.6887 44.5793 56.8422 43.9622 56.9646 43.3352C52.2883 43.7947 47.5764 42.9415 43.3581 40.8716C48.1971 40.5772 52.867 38.982 56.8748 36.2544C56.7347 35.6302 56.5597 35.0142 56.3507 34.4095C52.5331 37.1408 48.0301 38.7549 43.3467 39.0707C47.3833 36.4011 50.6257 32.6928 52.7328 28.336C52.3006 27.8633 51.8428 27.4148 51.3614 26.9924C49.419 31.2612 46.3281 34.906 42.434 37.5197C44.5985 33.1823 45.5524 28.341 45.1948 23.5067C44.5844 23.3153 43.9635 23.1588 43.3352 23.0381C43.791 27.7109 42.9368 32.4184 40.8683 36.6332C40.5757 31.7981 38.9834 27.1316 36.2593 23.1262C35.6307 23.2667 35.0169 23.4446 34.416 23.6503C37.1416 27.4659 38.7522 31.9645 39.0675 36.643C36.4009 32.6096 32.6966 29.3694 28.3442 27.2634C27.8707 27.696 27.4218 28.1516 26.9989 28.6348C31.2632 30.5772 34.9039 33.6663 37.5148 37.5573C33.1806 35.3935 28.3427 34.4397 23.5116 34.7965C23.3205 35.4022 23.1638 36.0242 23.0381 36.656C27.6046 36.2201 32.3116 37.0005 36.6283 39.1246C31.7957 39.4311 27.1337 41.0278 23.1279 43.7483C23.2667 44.372 23.443 44.9793 23.6471 45.5769C27.4631 42.8507 31.9622 41.2396 36.6414 40.9238C32.6132 43.6015 29.3766 47.3101 27.2683 51.6634C27.6977 52.132 28.1483 52.5777 28.6267 52.9956C30.5695 48.7303 33.6591 45.0885 37.5507 42.4765C35.3853 46.8136 34.4314 51.6551 34.7899 56.4895C35.3956 56.6822 36.0177 56.8389 36.6511 56.9646C36.1946 52.2902 37.0489 47.5809 39.1181 43.3646C39.4112 48.2026 41.0059 52.8716 43.7336 56.8781C44.3638 56.7393 44.976 56.5614 45.5785 56.3556C42.8474 52.5368 41.2339 48.0327 40.9189 43.3483C43.5986 47.3804 47.3107 50.62 51.6683 52.7295C52.1352 52.2985 52.5826 51.8463 53.0022 51.3662Z" fill="white"/>
<path d="M39.9995 45.8477C36.775 45.8477 34.1514 43.224 34.1514 39.9995C34.1514 36.775 36.775 34.1514 39.9995 34.1514C43.224 34.1514 45.8477 36.775 45.8477 39.9995C45.8477 43.224 43.224 45.8477 39.9995 45.8477Z" fill="white"/>
</g>
<defs>
<clipPath id="clip0_1883_1144">
<rect width="80" height="80" fill="white"/>
</clipPath>
</defs>
</svg>
