<svg width="149" height="139" viewBox="0 0 149 139" fill="none" xmlns="http://www.w3.org/2000/svg">
<g clip-path="url(#clip0_465_195)">
<path d="M74.6138 132.53C115.696 132.53 149 128.701 149 123.978C149 119.254 115.696 115.425 74.6138 115.425C33.5314 115.425 0.227539 119.254 0.227539 123.978C0.227539 128.701 33.5314 132.53 74.6138 132.53Z" fill="#F1F3FA"/>
<mask id="mask0_465_195" style="mask-type:luminance" maskUnits="userSpaceOnUse" x="6" y="0" width="135" height="108">
<path d="M6.83073 65.3598C7.38372 59.9116 9.52897 54.669 9.69106 49.1908C9.8763 43.2332 7.70926 37.4689 7.08543 31.5371C6.46161 25.6054 7.97213 18.6874 13.2147 15.8462C16.7193 13.9393 20.9989 14.3479 24.8399 13.2801C30.0443 11.8267 34.0801 7.78823 38.8691 5.27114C46.7854 1.10187 56.2736 1.33615 65.1474 2.55791C74.0212 3.77968 82.9046 5.88543 91.8261 5.09816C103.529 4.06435 124.887 -5.81332 135.3 7.28835C142.597 16.4686 137.53 30.0348 137.48 40.0786C137.421 52.1574 146.66 74.754 132.094 83.907C128.204 86.3519 123.287 86.8368 119.541 89.4915C115.796 92.1461 113.774 96.5497 110.591 99.8432C103.756 106.899 92.8476 107.78 83.0258 107.384C68.6686 106.8 54.4383 104.447 40.6575 100.377C29.8073 97.1735 17.7109 92.9593 11.301 82.9767C7.96805 77.7859 6.20554 71.5327 6.83073 65.3598Z" fill="white"/>
</mask>
<g mask="url(#mask0_465_195)">
<path d="M79.807 108.525H66.8838V102.15H79.807V108.525ZM67.5825 107.825H79.1083V102.848H67.5825V107.825Z" fill="#FAD787"/>
<path d="M92.0303 108.525H79.1084V102.15H92.0303V108.525ZM79.8058 107.825H91.3315V102.848H79.8071L79.8058 107.825Z" fill="#FAD787"/>
<path d="M104.256 108.525H91.333V102.15H104.256V108.525ZM92.0304 107.825H103.556V102.848H92.0304V107.825Z" fill="#FAD787"/>
<path d="M116.481 108.525H103.558V102.15H116.481V108.525ZM104.256 107.825H115.782V102.848H104.256V107.825Z" fill="#FAD787"/>
<path d="M128.704 108.525H115.782V102.15H128.704V108.525ZM116.481 107.825H128.004V102.848H116.481V107.825Z" fill="#FAD787"/>
<path d="M55.3583 108.525H42.4351V102.15H55.3583V108.525ZM43.1324 107.825H54.6582V102.848H43.1324V107.825Z" fill="#FAD787"/>
<path d="M67.5829 108.525H54.6597V102.15H67.5829V108.525ZM55.3584 107.825H66.8842V102.848H55.3584V107.825Z" fill="#FAD787"/>
<path d="M140.929 108.525H128.004V102.15H140.929V108.525ZM128.704 107.825H140.228V102.848H128.704V107.825Z" fill="#FAD787"/>
<path d="M18.686 108.525H5.76416V102.15H18.686V108.525ZM6.4629 107.825H17.9859V102.848H6.4629V107.825Z" fill="#FAD787"/>
<path d="M43.1323 108.525H30.2104V102.15H43.1323V108.525ZM30.9092 107.825H42.4336V102.848H30.9105L30.9092 107.825Z" fill="#FAD787"/>
<path d="M12.5746 102.849H0V102.15H11.8745V97.1733H0V96.4746H12.5746V102.849Z" fill="#FAD787"/>
<path d="M24.7992 102.848H11.876V96.4736H24.7992V102.848ZM12.5747 102.149H24.1005V97.1737H12.5747V102.149Z" fill="#FAD787"/>
<path d="M37.0233 102.848H24.1001V96.4736H37.0233V102.848ZM24.7988 102.149H36.3219V97.1737H24.7988V102.149Z" fill="#FAD787"/>
<path d="M49.2482 102.848H36.3223V96.4736H49.2482V102.848ZM37.0237 102.149H48.5481V97.1737H37.0237V102.149Z" fill="#FAD787"/>
<path d="M61.4725 102.848H48.5479V96.4736H61.4725V102.848ZM49.2479 102.149H60.7724V97.1737H49.2479V102.149Z" fill="#FAD787"/>
<path d="M73.6943 102.848H60.7725V96.4736H73.6943V102.848ZM61.4726 102.149H72.9956V97.1737H61.4726V102.149Z" fill="#FAD787"/>
<path d="M85.9188 102.848H72.9956V96.4736H85.9188V102.848ZM73.6943 102.149H85.2201V97.1737H73.6943V102.149Z" fill="#FAD787"/>
<path d="M98.1435 102.848H85.2202V96.4736H98.1435V102.848ZM85.919 102.149H97.4447V97.1737H85.919V102.149Z" fill="#FAD787"/>
<path d="M110.368 102.848H97.4448V96.4736H110.368V102.848ZM98.1436 102.149H109.669V97.1737H98.1436V102.149Z" fill="#FAD787"/>
<path d="M122.592 102.848H109.669V96.4736H122.592V102.848ZM110.368 102.149H121.893V97.1737H110.368V102.149Z" fill="#FAD787"/>
<path d="M134.817 102.848H121.894V96.4736H134.817V102.848ZM122.592 102.149H134.118V97.1737H122.592V102.149Z" fill="#FAD787"/>
<path d="M146.691 102.849H134.118V96.4746H146.691V97.1733H134.817V102.15H146.691V102.849Z" fill="#FAD787"/>
<path d="M18.686 97.1738H5.76416V90.7993H18.686V97.1738ZM6.4629 96.475H17.9859V91.4994H6.4629V96.475Z" fill="#FAD787"/>
<path d="M30.9104 97.1738H17.9858V90.7993H30.9104V97.1738ZM18.6859 96.475H30.2103V91.4994H18.6859V96.475Z" fill="#FAD787"/>
<path d="M43.1323 97.1738H30.2104V90.7993H43.1323V97.1738ZM30.9092 96.475H42.4336V91.4994H30.9105L30.9092 96.475Z" fill="#FAD787"/>
<path d="M55.3583 97.1738H42.4351V90.7993H55.3583V97.1738ZM43.1324 96.475H54.6582V91.4994H43.1324V96.475Z" fill="#FAD787"/>
<path d="M67.5829 97.1738H54.6597V90.7993H67.5829V97.1738ZM55.3584 96.475H66.8842V91.4994H55.3584V96.475Z" fill="#FAD787"/>
<path d="M79.807 97.1738H66.8838V90.7993H79.807V97.1738ZM67.5825 96.475H79.1083V91.4994H67.5825V96.475Z" fill="#FAD787"/>
<path d="M92.0303 97.1738H79.1084V90.7993H92.0303V97.1738ZM79.8058 96.475H91.3315V91.4994H79.8071L79.8058 96.475Z" fill="#FAD787"/>
<path d="M104.256 97.1738H91.333V90.7993H104.256V97.1738ZM92.0304 96.475H103.556V91.4994H92.0304V96.475Z" fill="#FAD787"/>
<path d="M116.481 97.1738H103.558V90.7993H116.481V97.1738ZM104.256 96.475H115.782V91.4994H104.256V96.475Z" fill="#FAD787"/>
<path d="M128.704 97.1738H115.782V90.7993H128.704V97.1738ZM116.481 96.475H128.004V91.4994H116.481V96.475Z" fill="#FAD787"/>
<path d="M140.929 97.1738H128.004V90.7993H140.929V97.1738ZM128.704 96.475H140.228V91.4994H128.704V96.475Z" fill="#FAD787"/>
<path d="M12.5746 91.4995H0V90.7994H11.8745V85.8237H0V85.125H12.5746V91.4995Z" fill="#FAD787"/>
<path d="M24.7992 91.4994H11.876V85.125H24.7992V91.4994ZM12.5747 90.7993H24.1005V85.8224H12.5747V90.7993Z" fill="#FAD787"/>
<path d="M37.0233 91.4994H24.1001V85.125H37.0233V91.4994ZM24.7988 90.7993H36.3219V85.8224H24.7988V90.7993Z" fill="#FAD787"/>
<path d="M49.2482 91.4994H36.3223V85.125H49.2482V91.4994ZM37.0237 90.7993H48.5481V85.8224H37.0237V90.7993Z" fill="#FAD787"/>
<path d="M61.4725 91.4994H48.5479V85.125H61.4725V91.4994ZM49.2479 90.7993H60.7724V85.8224H49.2479V90.7993Z" fill="#FAD787"/>
<path d="M73.6943 91.4994H60.7725V85.125H73.6943V91.4994ZM61.4726 90.7993H72.9956V85.8224H61.4726V90.7993Z" fill="#FAD787"/>
<path d="M85.9188 91.4994H72.9956V85.125H85.9188V91.4994ZM73.6943 90.7993H85.2201V85.8224H73.6943V90.7993Z" fill="#FAD787"/>
<path d="M98.1435 91.4994H85.2202V85.125H98.1435V91.4994ZM85.919 90.7993H97.4447V85.8224H85.919V90.7993Z" fill="#FAD787"/>
<path d="M110.368 91.4994H97.4448V85.125H110.368V91.4994ZM98.1436 90.7993H109.669V85.8224H98.1436V90.7993Z" fill="#FAD787"/>
<path d="M122.592 91.4994H109.669V85.125H122.592V91.4994ZM110.368 90.7993H121.893V85.8224H110.368V90.7993Z" fill="#FAD787"/>
<path d="M134.817 91.4994H121.894V85.125H134.817V91.4994ZM122.592 90.7993H134.118V85.8224H122.592V90.7993Z" fill="#FAD787"/>
<path d="M146.691 91.4995H134.118V85.125H146.691V85.8237H134.817V90.7994H146.691V91.4995Z" fill="#FAD787"/>
<path d="M18.686 85.822H5.76416V79.4517H18.686V85.822ZM6.4629 85.1233H17.9859V80.1504H6.4629V85.1233Z" fill="#FAD787"/>
<path d="M30.9104 85.822H17.9858V79.4517H30.9104V85.822ZM18.6859 85.1233H30.2103V80.1504H18.6859V85.1233Z" fill="#FAD787"/>
<path d="M43.1323 85.822H30.2104V79.4517H43.1323V85.822ZM30.9092 85.1233H42.4336V80.1504H30.9105L30.9092 85.1233Z" fill="#FAD787"/>
<path d="M55.3583 85.822H42.4351V79.4517H55.3583V85.822ZM43.1324 85.1246H54.6582V80.1504H43.1324V85.1246Z" fill="#FAD787"/>
<path d="M67.5829 85.822H54.6597V79.4517H67.5829V85.822ZM55.3584 85.1233H66.8842V80.1504H55.3584V85.1233Z" fill="#FAD787"/>
<path d="M79.807 85.822H66.8838V79.4517H79.807V85.822ZM67.5825 85.1233H79.1083V80.1504H67.5825V85.1233Z" fill="#FAD787"/>
<path d="M92.0303 85.822H79.1084V79.4517H92.0303V85.822ZM79.8058 85.1233H91.3315V80.1504H79.8071L79.8058 85.1233Z" fill="#FAD787"/>
<path d="M104.256 85.822H91.333V79.4517H104.256V85.822ZM92.0304 85.1246H103.556V80.1504H92.0304V85.1246Z" fill="#FAD787"/>
<path d="M116.481 85.822H103.558V79.4517H116.481V85.822ZM104.256 85.1233H115.782V80.1504H104.256V85.1233Z" fill="#FAD787"/>
<path d="M128.704 85.822H115.782V79.4517H128.704V85.822ZM116.481 85.1233H128.004V80.1504H116.481V85.1233Z" fill="#FAD787"/>
<path d="M140.929 85.822H128.004V79.4517H140.929V85.822ZM128.704 85.1233H140.228V80.1504H128.704V85.1233Z" fill="#FAD787"/>
<path d="M12.5746 80.1503H0V79.4516H11.8745V74.4746H0V73.7759H12.5746V80.1503Z" fill="#FAD787"/>
<path d="M24.7992 80.1503H11.876V73.7759H24.7992V80.1503ZM12.5747 79.4516H24.1005V74.4746H12.5747V79.4516Z" fill="#FAD787"/>
<path d="M37.0233 80.1503H24.1001V73.7759H37.0233V80.1503ZM24.7988 79.4516H36.3219V74.4746H24.7988V79.4516Z" fill="#FAD787"/>
<path d="M49.2482 80.1503H36.3223V73.7759H49.2482V80.1503ZM37.0237 79.4516H48.5481V74.4746H37.0237V79.4516Z" fill="#FAD787"/>
<path d="M61.4725 80.1503H48.5479V73.7759H61.4725V80.1503ZM49.2479 79.4516H60.7724V74.4746H49.2479V79.4516Z" fill="#FAD787"/>
<path d="M73.6943 80.1503H60.7725V73.7759H73.6943V80.1503ZM61.4726 79.4516H72.9956V74.4746H61.4726V79.4516Z" fill="#FAD787"/>
<path d="M85.9188 80.1503H72.9956V73.7759H85.9188V80.1503ZM73.6943 79.4516H85.2201V74.4746H73.6943V79.4516Z" fill="#FAD787"/>
<path d="M98.1435 80.1503H85.2202V73.7759H98.1435V80.1503ZM85.919 79.4516H97.4447V74.4746H85.919V79.4516Z" fill="#FAD787"/>
<path d="M110.368 80.1503H97.4448V73.7759H110.368V80.1503ZM98.1436 79.4516H109.669V74.4746H98.1436V79.4516Z" fill="#FAD787"/>
<path d="M122.592 80.1503H109.669V73.7759H122.592V80.1503ZM110.368 79.4516H121.893V74.4746H110.368V79.4516Z" fill="#FAD787"/>
<path d="M134.817 80.1503H121.894V73.7759H134.817V80.1503ZM122.592 79.4516H134.118V74.4746H122.592V79.4516Z" fill="#FAD787"/>
<path d="M146.691 80.1503H134.118V73.7759H146.691V74.4746H134.817V79.4516H146.691V80.1503Z" fill="#FAD787"/>
<path d="M18.686 74.475H5.76416V68.1006H18.686V74.475ZM6.4629 73.7763H17.9859V68.7966H6.4629V73.7763Z" fill="#FAD787"/>
<path d="M30.9104 74.475H17.9858V68.1006H30.9104V74.475ZM18.6859 73.7763H30.2103V68.7966H18.6859V73.7763Z" fill="#FAD787"/>
<path d="M43.1323 74.475H30.2104V68.1006H43.1323V74.475ZM30.9092 73.7763H42.4336V68.7966H30.9105L30.9092 73.7763Z" fill="#FAD787"/>
<path d="M55.3583 74.475H42.4351V68.1006H55.3583V74.475ZM43.1324 73.7763H54.6582V68.7966H43.1324V73.7763Z" fill="#FAD787"/>
<path d="M67.5829 74.475H54.6597V68.1006H67.5829V74.475ZM55.3584 73.7763H66.8842V68.7966H55.3584V73.7763Z" fill="#FAD787"/>
<path d="M79.807 74.475H66.8838V68.1006H79.807V74.475ZM67.5825 73.7763H79.1083V68.7966H67.5825V73.7763Z" fill="#FAD787"/>
<path d="M92.0303 74.475H79.1084V68.1006H92.0303V74.475ZM79.8058 73.7763H91.3315V68.7966H79.8071L79.8058 73.7763Z" fill="#FAD787"/>
<path d="M104.256 74.475H91.333V68.1006H104.256V74.475ZM92.0304 73.7763H103.556V68.7966H92.0304V73.7763Z" fill="#FAD787"/>
<path d="M116.481 74.475H103.558V68.1006H116.481V74.475ZM104.256 73.7763H115.782V68.7966H104.256V73.7763Z" fill="#FAD787"/>
<path d="M128.704 74.475H115.782V68.1006H128.704V74.475ZM116.481 73.7763H128.004V68.7966H116.481V73.7763Z" fill="#FAD787"/>
<path d="M140.929 74.475H128.004V68.1006H140.929V74.475ZM128.704 73.7763H140.228V68.7966H128.704V73.7763Z" fill="#FAD787"/>
<path d="M12.5746 68.8002H0V68.1001H11.8745V63.1245H0V62.4258H12.5746V68.8002Z" fill="#FAD787"/>
<path d="M24.7992 68.7963H11.876V62.4219H24.7992V68.7963ZM12.5747 68.0962H24.1005V63.1247H12.5747V68.0962Z" fill="#FAD787"/>
<path d="M37.0233 68.7963H24.1001V62.4219H37.0233V68.7963ZM24.7988 68.0962H36.3219V63.1247H24.7988V68.0962Z" fill="#FAD787"/>
<path d="M49.2482 68.7963H36.3223V62.4219H49.2482V68.7963ZM37.0237 68.0962H48.5481V63.1247H37.0237V68.0962Z" fill="#FAD787"/>
<path d="M61.4725 68.7963H48.5479V62.4219H61.4725V68.7963ZM49.2479 68.0962H60.7724V63.1247H49.2479V68.0962Z" fill="#FAD787"/>
<path d="M73.6943 68.7963H60.7725V62.4219H73.6943V68.7963ZM61.4726 68.0962H72.9956V63.1247H61.4726V68.0962Z" fill="#FAD787"/>
<path d="M85.9188 68.7963H72.9956V62.4219H85.9188V68.7963ZM73.6943 68.0962H85.2201V63.1247H73.6943V68.0962Z" fill="#FAD787"/>
<path d="M98.1435 68.7963H85.2202V62.4219H98.1435V68.7963ZM85.919 68.0962H97.4447V63.1247H85.919V68.0962Z" fill="#FAD787"/>
<path d="M110.368 68.7963H97.4448V62.4219H110.368V68.7963ZM98.1436 68.0962H109.669V63.1247H98.1436V68.0962Z" fill="#FAD787"/>
<path d="M122.592 68.7963H109.669V62.4219H122.592V68.7963ZM110.368 68.0962H121.893V63.1247H110.368V68.0962Z" fill="#FAD787"/>
<path d="M134.817 68.7963H121.894V62.4219H134.817V68.7963ZM122.592 68.0962H134.118V63.1247H122.592V68.0962Z" fill="#FAD787"/>
<path d="M146.691 68.8002H134.118V62.4258H146.691V63.1245H134.817V68.1001H146.691V68.8002Z" fill="#FAD787"/>
<path d="M18.686 63.1249H5.76416V56.7505H18.686V63.1249ZM6.4629 62.4262H17.9859V57.4492H6.4629V62.4262Z" fill="#FAD787"/>
<path d="M30.9104 63.1249H17.9858V56.7505H30.9104V63.1249ZM18.6859 62.4262H30.2103V57.4492H18.6859V62.4262Z" fill="#FAD787"/>
<path d="M43.1323 63.1249H30.2104V56.7505H43.1323V63.1249ZM30.9092 62.4262H42.4336V57.4492H30.9105L30.9092 62.4262Z" fill="#FAD787"/>
<path d="M55.3583 63.1249H42.4351V56.7505H55.3583V63.1249ZM43.1324 62.4262H54.6582V57.4492H43.1324V62.4262Z" fill="#FAD787"/>
<path d="M67.5829 63.1249H54.6597V56.7505H67.5829V63.1249ZM55.3584 62.4262H66.8842V57.4492H55.3584V62.4262Z" fill="#FAD787"/>
<path d="M79.807 63.1249H66.8838V56.7505H79.807V63.1249ZM67.5825 62.4262H79.1083V57.4492H67.5825V62.4262Z" fill="#FAD787"/>
<path d="M92.0303 63.1249H79.1084V56.7505H92.0303V63.1249ZM79.8058 62.4262H91.3315V57.4492H79.8071L79.8058 62.4262Z" fill="#FAD787"/>
<path d="M104.256 63.1249H91.333V56.7505H104.256V63.1249ZM92.0304 62.4262H103.556V57.4492H92.0304V62.4262Z" fill="#FAD787"/>
<path d="M116.481 63.1249H103.558V56.7505H116.481V63.1249ZM104.256 62.4262H115.782V57.4492H104.256V62.4262Z" fill="#FAD787"/>
<path d="M128.704 63.1249H115.782V56.7505H128.704V63.1249ZM116.481 62.4262H128.004V57.4492H116.481V62.4262Z" fill="#FAD787"/>
<path d="M140.929 63.1249H128.004V56.7505H140.929V63.1249ZM128.704 62.4262H140.228V57.4492H128.704V62.4262Z" fill="#FAD787"/>
<path d="M12.5746 57.4492H0V56.7504H11.8745V51.7748H0V51.0747H12.5746V57.4492Z" fill="#FAD787"/>
<path d="M24.7992 57.4492H11.876V51.0747H24.7992V57.4492ZM12.5747 56.7504H24.1005V51.7707H12.5747V56.7504Z" fill="#FAD787"/>
<path d="M37.0233 57.4492H24.1001V51.0747H37.0233V57.4492ZM24.7988 56.7504H36.3219V51.7707H24.7988V56.7504Z" fill="#FAD787"/>
<path d="M49.2482 57.4492H36.3223V51.0747H49.2482V57.4492ZM37.0237 56.7504H48.5481V51.7707H37.0237V56.7504Z" fill="#FAD787"/>
<path d="M61.4725 57.4492H48.5479V51.0747H61.4725V57.4492ZM49.2479 56.7504H60.7724V51.7707H49.2479V56.7504Z" fill="#FAD787"/>
<path d="M73.6943 57.4492H60.7725V51.0747H73.6943V57.4492ZM61.4726 56.7504H72.9956V51.7707H61.4726V56.7504Z" fill="#FAD787"/>
<path d="M85.9188 57.4492H72.9956V51.0747H85.9188V57.4492ZM73.6943 56.7504H85.2201V51.7707H73.6943V56.7504Z" fill="#FAD787"/>
<path d="M98.1435 57.4492H85.2202V51.0747H98.1435V57.4492ZM85.919 56.7504H97.4447V51.7707H85.919V56.7504Z" fill="#FAD787"/>
<path d="M110.368 57.4492H97.4448V51.0747H110.368V57.4492ZM98.1436 56.7504H109.669V51.7707H98.1436V56.7504Z" fill="#FAD787"/>
<path d="M122.592 57.4492H109.669V51.0747H122.592V57.4492ZM110.368 56.7504H121.893V51.7707H110.368V56.7504Z" fill="#FAD787"/>
<path d="M134.817 57.4492H121.894V51.0747H134.817V57.4492ZM122.592 56.7504H134.118V51.7707H122.592V56.7504Z" fill="#FAD787"/>
<path d="M146.691 57.4492H134.118V51.0747H146.691V51.7748H134.817V56.7504H146.691V57.4492Z" fill="#FAD787"/>
<path d="M18.686 51.7704H5.76416V45.396H18.686V51.7704ZM6.4629 51.0703H17.9859V46.0988H6.4629V51.0703Z" fill="#FAD787"/>
<path d="M30.9104 51.7704H17.9858V45.396H30.9104V51.7704ZM18.6859 51.0703H30.2103V46.0988H18.6859V51.0703Z" fill="#FAD787"/>
<path d="M43.1323 51.7704H30.2104V45.396H43.1323V51.7704ZM30.9092 51.0703H42.4336V46.0988H30.9105L30.9092 51.0703Z" fill="#FAD787"/>
<path d="M55.3583 51.7704H42.4351V45.396H55.3583V51.7704ZM43.1324 51.0744H54.6582V46.0988H43.1324V51.0744Z" fill="#FAD787"/>
<path d="M67.5829 51.7704H54.6597V45.396H67.5829V51.7704ZM55.3584 51.0703H66.8842V46.0988H55.3584V51.0703Z" fill="#FAD787"/>
<path d="M79.807 51.7704H66.8838V45.396H79.807V51.7704ZM67.5825 51.0703H79.1083V46.0988H67.5825V51.0703Z" fill="#FAD787"/>
<path d="M92.0303 51.7704H79.1084V45.396H92.0303V51.7704ZM79.8058 51.0703H91.3315V46.0988H79.8071L79.8058 51.0703Z" fill="#FAD787"/>
<path d="M104.256 51.7704H91.333V45.396H104.256V51.7704ZM92.0304 51.0744H103.556V46.0988H92.0304V51.0744Z" fill="#FAD787"/>
<path d="M116.481 51.7704H103.558V45.396H116.481V51.7704ZM104.256 51.0703H115.782V46.0988H104.256V51.0703Z" fill="#FAD787"/>
<path d="M128.704 51.7704H115.782V45.396H128.704V51.7704ZM116.481 51.0703H128.004V46.0988H116.481V51.0703Z" fill="#FAD787"/>
<path d="M140.929 51.7704H128.004V45.396H140.929V51.7704ZM128.704 51.0703H140.228V46.0988H128.704V51.0703Z" fill="#FAD787"/>
<path d="M12.5746 46.0991H0V45.4003H11.8745V40.4233H0V39.7246H12.5746V46.0991Z" fill="#FAD787"/>
<path d="M24.7992 46.0991H11.876V39.7246H24.7992V46.0991ZM12.5747 45.4003H24.1005V40.4233H12.5747V45.4003Z" fill="#FAD787"/>
<path d="M37.0233 46.0991H24.1001V39.7246H37.0233V46.0991ZM24.7988 45.4003H36.3219V40.4233H24.7988V45.4003Z" fill="#FAD787"/>
<path d="M49.2482 46.0991H36.3223V39.7246H49.2482V46.0991ZM37.0237 45.4003H48.5481V40.4233H37.0237V45.4003Z" fill="#FAD787"/>
<path d="M61.4725 46.0991H48.5479V39.7246H61.4725V46.0991ZM49.2479 45.4003H60.7724V40.4233H49.2479V45.4003Z" fill="#FAD787"/>
<path d="M73.6943 46.0991H60.7725V39.7246H73.6943V46.0991ZM61.4726 45.4003H72.9956V40.4233H61.4726V45.4003Z" fill="#FAD787"/>
<path d="M85.9188 46.0991H72.9956V39.7246H85.9188V46.0991ZM73.6943 45.4003H85.2201V40.4233H73.6943V45.4003Z" fill="#FAD787"/>
<path d="M98.1435 46.0991H85.2202V39.7246H98.1435V46.0991ZM85.919 45.4003H97.4447V40.4233H85.919V45.4003Z" fill="#FAD787"/>
<path d="M110.368 46.0991H97.4448V39.7246H110.368V46.0991ZM98.1436 45.4003H109.669V40.4233H98.1436V45.4003Z" fill="#FAD787"/>
<path d="M122.592 46.0991H109.669V39.7246H122.592V46.0991ZM110.368 45.4003H121.893V40.4233H110.368V45.4003Z" fill="#FAD787"/>
<path d="M134.817 46.0991H121.894V39.7246H134.817V46.0991ZM122.592 45.4003H134.118V40.4233H122.592V45.4003Z" fill="#FAD787"/>
<path d="M146.691 46.0991H134.118V39.7246H146.691V40.4233H134.817V45.4003H146.691V46.0991Z" fill="#FAD787"/>
<path d="M18.686 40.4233H5.76416V34.0488H18.686V40.4233ZM6.4629 39.7245H17.9859V34.7448H6.4629V39.7245Z" fill="#FAD787"/>
<path d="M30.9104 40.4233H17.9858V34.0488H30.9104V40.4233ZM18.6859 39.7245H30.2103V34.7448H18.6859V39.7245Z" fill="#FAD787"/>
<path d="M43.1323 40.4233H30.2104V34.0488H43.1323V40.4233ZM30.9092 39.7245H42.4336V34.7448H30.9105L30.9092 39.7245Z" fill="#FAD787"/>
<path d="M55.3583 40.4233H42.4351V34.0488H55.3583V40.4233ZM43.1324 39.7245H54.6582V34.7448H43.1324V39.7245Z" fill="#FAD787"/>
<path d="M67.5829 40.4233H54.6597V34.0488H67.5829V40.4233ZM55.3584 39.7245H66.8842V34.7448H55.3584V39.7245Z" fill="#FAD787"/>
<path d="M79.807 40.4233H66.8838V34.0488H79.807V40.4233ZM67.5825 39.7245H79.1083V34.7448H67.5825V39.7245Z" fill="#FAD787"/>
<path d="M92.0303 40.4233H79.1084V34.0488H92.0303V40.4233ZM79.8058 39.7245H91.3315V34.7448H79.8071L79.8058 39.7245Z" fill="#FAD787"/>
<path d="M104.256 40.4233H91.333V34.0488H104.256V40.4233ZM92.0304 39.7245H103.556V34.7448H92.0304V39.7245Z" fill="#FAD787"/>
<path d="M116.481 40.4233H103.558V34.0488H116.481V40.4233ZM104.256 39.7245H115.782V34.7448H104.256V39.7245Z" fill="#FAD787"/>
<path d="M128.704 40.4233H115.782V34.0488H128.704V40.4233ZM116.481 39.7245H128.004V34.7448H116.481V39.7245Z" fill="#FAD787"/>
<path d="M140.929 40.4233H128.004V34.0488H140.929V40.4233ZM128.704 39.7245H140.228V34.7448H128.704V39.7245Z" fill="#FAD787"/>
<path d="M12.5746 34.749H0V34.0489H11.8745V29.0732H0V28.3745H12.5746V34.749Z" fill="#FAD787"/>
<path d="M24.7992 34.7451H11.876V28.3706H24.7992V34.7451ZM12.5747 34.045H24.1005V29.0734H12.5747V34.045Z" fill="#FAD787"/>
<path d="M37.0233 34.7451H24.1001V28.3706H37.0233V34.7451ZM24.7988 34.045H36.3219V29.0734H24.7988V34.045Z" fill="#FAD787"/>
<path d="M49.2482 34.7451H36.3223V28.3706H49.2482V34.7451ZM37.0237 34.045H48.5481V29.0734H37.0237V34.045Z" fill="#FAD787"/>
<path d="M61.4725 34.7451H48.5479V28.3706H61.4725V34.7451ZM49.2479 34.045H60.7724V29.0734H49.2479V34.045Z" fill="#FAD787"/>
<path d="M73.6943 34.7451H60.7725V28.3706H73.6943V34.7451ZM61.4726 34.045H72.9956V29.0734H61.4726V34.045Z" fill="#FAD787"/>
<path d="M85.9188 34.7451H72.9956V28.3706H85.9188V34.7451ZM73.6943 34.045H85.2201V29.0734H73.6943V34.045Z" fill="#FAD787"/>
<path d="M98.1435 34.7451H85.2202V28.3706H98.1435V34.7451ZM85.919 34.045H97.4447V29.0734H85.919V34.045Z" fill="#FAD787"/>
<path d="M110.368 34.7451H97.4448V28.3706H110.368V34.7451ZM98.1436 34.045H109.669V29.0734H98.1436V34.045Z" fill="#FAD787"/>
<path d="M122.592 34.7451H109.669V28.3706H122.592V34.7451ZM110.368 34.045H121.893V29.0734H110.368V34.045Z" fill="#FAD787"/>
<path d="M134.817 34.7451H121.894V28.3706H134.817V34.7451ZM122.592 34.045H134.118V29.0734H122.592V34.045Z" fill="#FAD787"/>
<path d="M146.691 34.749H134.118V28.3745H146.691V29.0732H134.817V34.0489H146.691V34.749Z" fill="#FAD787"/>
<path d="M18.686 29.0734H5.76416V22.7017H18.686V29.0734ZM6.4629 28.3746H17.9859V23.4004H6.4629V28.3746Z" fill="#FAD787"/>
<path d="M30.9104 29.0734H17.9858V22.7017H30.9104V29.0734ZM18.6859 28.3746H30.2103V23.4004H18.6859V28.3746Z" fill="#FAD787"/>
<path d="M43.1323 29.0734H30.2104V22.7017H43.1323V29.0734ZM30.9092 28.3746H42.4336V23.4004H30.9105L30.9092 28.3746Z" fill="#FAD787"/>
<path d="M55.3583 29.0734H42.4351V22.7017H55.3583V29.0734ZM43.1324 28.3746H54.6582V23.4004H43.1324V28.3746Z" fill="#FAD787"/>
<path d="M67.5829 29.0734H54.6597V22.7017H67.5829V29.0734ZM55.3584 28.3746H66.8842V23.4004H55.3584V28.3746Z" fill="#FAD787"/>
<path d="M79.807 29.0734H66.8838V22.7017H79.807V29.0734ZM67.5825 28.3746H79.1083V23.4004H67.5825V28.3746Z" fill="#FAD787"/>
<path d="M92.0303 29.0734H79.1084V22.7017H92.0303V29.0734ZM79.8058 28.3746H91.3315V23.4004H79.8071L79.8058 28.3746Z" fill="#FAD787"/>
<path d="M104.256 29.0734H91.333V22.7017H104.256V29.0734ZM92.0304 28.3746H103.556V23.4004H92.0304V28.3746Z" fill="#FAD787"/>
<path d="M116.481 29.0734H103.558V22.7017H116.481V29.0734ZM104.256 28.3746H115.782V23.4004H104.256V28.3746Z" fill="#FAD787"/>
<path d="M128.704 29.0734H115.782V22.7017H128.704V29.0734ZM116.481 28.3746H128.004V23.4004H116.481V28.3746Z" fill="#FAD787"/>
<path d="M140.929 29.0734H128.004V22.7017H140.929V29.0734ZM128.704 28.3746H140.228V23.4004H128.704V28.3746Z" fill="#FAD787"/>
<path d="M12.5746 23.4003H0V22.7016H11.8745V17.7246H0V17.0259H12.5746V23.4003Z" fill="#FAD787"/>
<path d="M24.7992 23.4003H11.876V17.0259H24.7992V23.4003ZM12.5747 22.7016H24.1005V17.7192H12.5747V22.7016Z" fill="#FAD787"/>
<path d="M37.0233 23.4003H24.1001V17.0259H37.0233V23.4003ZM24.7988 22.7016H36.3219V17.7192H24.7988V22.7016Z" fill="#FAD787"/>
<path d="M49.2482 23.4003H36.3223V17.0259H49.2482V23.4003ZM37.0237 22.7016H48.5481V17.7192H37.0237V22.7016Z" fill="#FAD787"/>
<path d="M61.4725 23.4003H48.5479V17.0259H61.4725V23.4003ZM49.2479 22.7016H60.7724V17.7192H49.2479V22.7016Z" fill="#FAD787"/>
<path d="M73.6943 23.4003H60.7725V17.0259H73.6943V23.4003ZM61.4726 22.7016H72.9956V17.7192H61.4726V22.7016Z" fill="#FAD787"/>
<path d="M85.9188 23.4003H72.9956V17.0259H85.9188V23.4003ZM73.6943 22.7016H85.2201V17.7192H73.6943V22.7016Z" fill="#FAD787"/>
<path d="M98.1435 23.4003H85.2202V17.0259H98.1435V23.4003ZM85.919 22.7016H97.4447V17.7192H85.919V22.7016Z" fill="#FAD787"/>
<path d="M110.368 23.4003H97.4448V17.0259H110.368V23.4003ZM98.1436 22.7016H109.669V17.7192H98.1436V22.7016Z" fill="#FAD787"/>
<path d="M122.592 23.4003H109.669V17.0259H122.592V23.4003ZM110.368 22.7016H121.893V17.7192H110.368V22.7016Z" fill="#FAD787"/>
<path d="M134.817 23.4003H121.894V17.0259H134.817V23.4003ZM122.592 22.7016H134.118V17.7192H122.592V22.7016Z" fill="#FAD787"/>
<path d="M146.691 23.4003H134.118V17.0259H146.691V17.7246H134.817V22.7016H146.691V23.4003Z" fill="#FAD787"/>
<path d="M18.686 17.7191H5.76416V11.3501H18.686V17.7191ZM6.4629 17.0204H17.9859V12.0502H6.4629V17.0204Z" fill="#FAD787"/>
<path d="M30.9104 17.7191H17.9858V11.3501H30.9104V17.7191ZM18.6859 17.0204H30.2103V12.0502H18.6859V17.0204Z" fill="#FAD787"/>
<path d="M43.1323 17.7191H30.2104V11.3501H43.1323V17.7191ZM30.9092 17.0204H42.4336V12.0502H30.9105L30.9092 17.0204Z" fill="#FAD787"/>
<path d="M55.3583 17.7191H42.4351V11.3501H55.3583V17.7191ZM43.1324 17.0258H54.6582V12.0502H43.1324V17.0258Z" fill="#FAD787"/>
<path d="M67.5829 17.7191H54.6597V11.3501H67.5829V17.7191ZM55.3584 17.0204H66.8842V12.0502H55.3584V17.0204Z" fill="#FAD787"/>
<path d="M79.807 17.7191H66.8838V11.3501H79.807V17.7191ZM67.5825 17.0204H79.1083V12.0502H67.5825V17.0204Z" fill="#FAD787"/>
<path d="M92.0303 17.7191H79.1084V11.3501H92.0303V17.7191ZM79.8058 17.0204H91.3315V12.0502H79.8071L79.8058 17.0204Z" fill="#FAD787"/>
<path d="M104.256 17.7191H91.333V11.3501H104.256V17.7191ZM92.0304 17.0258H103.556V12.0502H92.0304V17.0258Z" fill="#FAD787"/>
<path d="M116.481 17.7191H103.558V11.3501H116.481V17.7191ZM104.256 17.0204H115.782V12.0502H104.256V17.0204Z" fill="#FAD787"/>
<path d="M128.704 17.7191H115.782V11.3501H128.704V17.7191ZM116.481 17.0204H128.004V12.0502H116.481V17.0204Z" fill="#FAD787"/>
<path d="M140.929 17.7191H128.004V11.3501H140.929V17.7191ZM128.704 17.0204H140.228V12.0502H128.704V17.0204Z" fill="#FAD787"/>
<path d="M12.5746 12.0502H0V11.3501H11.8745V6.37452H0V5.67578H12.5746V12.0502Z" fill="#FAD787"/>
<path d="M24.7992 12.0502H11.876V5.67578H24.7992V12.0502ZM12.5747 11.3501H24.1005V6.37452H12.5747V11.3501Z" fill="#FAD787"/>
<path d="M37.0233 12.0502H24.1001V5.67578H37.0233V12.0502ZM24.7988 11.3501H36.3219V6.37452H24.7988V11.3501Z" fill="#FAD787"/>
<path d="M49.2482 12.0502H36.3223V5.67578H49.2482V12.0502ZM37.0237 11.3501H48.5481V6.37452H37.0237V11.3501Z" fill="#FAD787"/>
<path d="M61.4725 12.0502H48.5479V5.67578H61.4725V12.0502ZM49.2479 11.3501H60.7724V6.37452H49.2479V11.3501Z" fill="#FAD787"/>
<path d="M73.6943 12.0502H60.7725V5.67578H73.6943V12.0502ZM61.4726 11.3501H72.9956V6.37452H61.4726V11.3501Z" fill="#FAD787"/>
<path d="M85.9188 12.0502H72.9956V5.67578H85.9188V12.0502ZM73.6943 11.3501H85.2201V6.37452H73.6943V11.3501Z" fill="#FAD787"/>
<path d="M98.1435 12.0502H85.2202V5.67578H98.1435V12.0502ZM85.919 11.3501H97.4447V6.37452H85.919V11.3501Z" fill="#FAD787"/>
<path d="M110.368 12.0502H97.4448V5.67578H110.368V12.0502ZM98.1436 11.3501H109.669V6.37452H98.1436V11.3501Z" fill="#FAD787"/>
<path d="M122.592 12.0502H109.669V5.67578H122.592V12.0502ZM110.368 11.3501H121.893V6.37452H110.368V11.3501Z" fill="#FAD787"/>
<path d="M134.817 12.0502H121.894V5.67578H134.817V12.0502ZM122.592 11.3501H134.118V6.37452H122.592V11.3501Z" fill="#FAD787"/>
<path d="M146.691 12.0502H134.118V5.67578H146.691V6.37452H134.817V11.3501H146.691V12.0502Z" fill="#FAD787"/>
<path d="M18.686 6.37445H5.76416V0H18.686V6.37445ZM6.4629 5.67571H17.9859V0.693289H6.4629V5.67571Z" fill="#FAD787"/>
<path d="M30.9104 6.37445H17.9858V0H30.9104V6.37445ZM18.6859 5.67571H30.2103V0.693289H18.6859V5.67571Z" fill="#FAD787"/>
<path d="M43.1323 6.37445H30.2104V0H43.1323V6.37445ZM30.9092 5.67571H42.4336V0.693289H30.9105L30.9092 5.67571Z" fill="#FAD787"/>
<path d="M55.3583 6.37445H42.4351V0H55.3583V6.37445ZM43.1324 5.67571H54.6582V0.693289H43.1324V5.67571Z" fill="#FAD787"/>
<path d="M67.5829 6.37445H54.6597V0H67.5829V6.37445ZM55.3584 5.67571H66.8842V0.693289H55.3584V5.67571Z" fill="#FAD787"/>
<path d="M79.807 6.37445H66.8838V0H79.807V6.37445ZM67.5825 5.67571H79.1083V0.693289H67.5825V5.67571Z" fill="#FAD787"/>
<path d="M92.0303 6.37445H79.1084V0H92.0303V6.37445ZM79.8058 5.67571H91.3315V0.693289H79.8071L79.8058 5.67571Z" fill="#FAD787"/>
<path d="M104.256 6.37445H91.333V0H104.256V6.37445ZM92.0304 5.67571H103.556V0.693289H92.0304V5.67571Z" fill="#FAD787"/>
<path d="M116.481 6.37445H103.558V0H116.481V6.37445ZM104.256 5.67571H115.782V0.693289H104.256V5.67571Z" fill="#FAD787"/>
<path d="M128.704 6.37445H115.782V0H128.704V6.37445ZM116.481 5.67571H128.004V0.693289H116.481V5.67571Z" fill="#FAD787"/>
<path d="M140.929 6.37445H128.004V0H140.929V6.37445ZM128.704 5.67571H140.228V0.693289H128.704V5.67571Z" fill="#FAD787"/>
</g>
<path d="M101.02 16.2561H37.668V124.936H101.02V16.2561Z" fill="white"/>
<path d="M25.514 61.8432H12.7243V55.793L3.62842 64.8888L12.7243 73.9833V67.933H25.514V61.8432Z" fill="#FCB94C"/>
<path d="M39.9604 125.412V19.2867C39.9586 19.2174 39.9707 19.1485 39.9958 19.0839C40.0209 19.0193 40.0587 18.9603 40.1069 18.9105C40.1551 18.8607 40.2127 18.8209 40.2765 18.7936C40.3402 18.7663 40.4087 18.752 40.478 18.7515H98.2158C98.357 18.7539 98.4917 18.8111 98.5916 18.911C98.6915 19.0108 98.7487 19.1455 98.7511 19.2867V125.412H105.888V19.2867C105.884 17.25 105.072 15.2981 103.63 13.8596C102.189 12.4211 100.235 11.6135 98.1981 11.6143H40.478C38.4459 11.6179 36.4983 12.4279 35.063 13.8665C33.6277 15.3051 32.8222 17.2546 32.8232 19.2867V125.412H39.9604Z" fill="#E67E22"/>
<path d="M125.883 138.361C125.747 4.9852 126.173 7.96403 125.586 8.19558L98.9482 18.6726C98.8351 18.7161 98.7466 18.9872 98.7466 19.2896V127.687L125.883 138.361Z" fill="#CD6A2B"/>
<path d="M55.1255 70.1028L54.5548 71.0944C54.5548 71.0944 51.7748 70.3384 50.8881 68.4138C49.2536 64.8343 54.1421 67.9916 54.1421 67.9916C54.1421 67.9916 53.7893 67.4372 54.454 67.3746C55.1187 67.3119 55.1255 70.1028 55.1255 70.1028Z" fill="#FFCCBE"/>
<path d="M79.4504 125.199C79.3973 125.199 79.37 125.133 79.3578 125.035C79.3423 124.861 79.3916 124.687 79.4961 124.548C79.6007 124.408 79.7532 124.312 79.9244 124.277C80.4362 124.167 80.92 123.953 81.3464 123.649H82.1282V124.943C82.1282 125.011 82.1012 125.076 82.0532 125.124C82.0052 125.172 81.94 125.199 81.8721 125.199H79.4504Z" fill="#F97C55"/>
<path d="M67.9901 125.199C67.9384 125.199 67.9111 125.133 67.8989 125.035C67.8831 124.861 67.9323 124.687 68.0369 124.547C68.1415 124.407 68.2942 124.311 68.4655 124.277C68.9769 124.167 69.4603 123.953 69.8861 123.649H70.6693V124.943C70.669 125.011 70.6417 125.077 70.5934 125.125C70.5452 125.173 70.4799 125.199 70.4119 125.199H67.9901Z" fill="#F97C55"/>
<path d="M64.4802 60.699C63.4628 60.8121 61.6962 72.4741 61.6962 72.4741L55.2945 70.1109C55.0343 69.9447 54.0209 71.2142 54.2811 71.379C54.2811 71.379 61.9018 78.6578 64.6709 77.4606C68.5119 75.7975 68.6454 60.2373 64.4802 60.699Z" fill="#FCB94C"/>
<path d="M82.9658 89.5541L82.2058 123.649C82.2058 123.821 81.2619 123.821 81.2619 123.649L74.9038 97.1925H74.0729L70.7358 123.649C70.7358 123.847 69.8192 123.847 69.8192 123.649L65.1323 88.0122L82.9658 89.5541Z" fill="#28214F"/>
<path d="M83.0724 58.8685C81.6341 56.9534 66.1924 57.9804 64.4803 60.6991C63.3443 62.5025 64.374 89.9521 64.374 89.9521C64.5415 93.5997 84.5652 92.6844 84.3963 89.0382C84.4031 89.0382 85.2626 61.786 83.0724 58.8685Z" fill="#FCB94C"/>
<path d="M70.3354 59.1613L69.8382 56.9534C69.8382 56.9534 67.9477 59.4991 65.8596 56.9534C63.7716 54.4077 61.2681 45.4753 68.4476 44.2685C76.0206 42.995 74.5346 58.5443 74.5346 58.5443C74.5959 58.9434 70.3939 59.559 70.3354 59.1613Z" fill="#FFCCBE"/>
<path d="M74.5826 57.8618L73.418 56.3635C73.418 56.3635 75.2622 50.1974 73.1538 49.8787C71.0453 49.56 72.9808 52.4258 72.9808 52.4258H72.3978L70.6462 49.9182C70.6462 49.9182 67.5966 49.4674 69.0948 47.6763C69.0948 47.6763 60.078 55.0232 56.6034 49.4538C53.1287 43.8843 69.8644 38.5791 73.8688 43.0888C77.8733 47.5986 74.5826 57.8618 74.5826 57.8618Z" fill="#F97C55"/>
<path d="M76.3667 77.0925C76.3667 77.0925 72.7055 78.8495 71.9754 76.6226C71.3475 74.7157 72.2682 74.5413 73.5281 74.8178C73.283 74.6653 73.1767 74.4596 73.4696 74.1722C74.2378 73.4217 75.8682 75.1393 75.8682 75.1393L76.3667 77.0925Z" fill="#FFCCBE"/>
<path d="M83.0724 58.8684C85.7243 58.6042 90.6278 71.0207 88.5888 74.6765C87.1273 77.3094 76.258 77.2304 76.258 77.2304C75.765 77.3325 75.2896 75.0347 75.7827 74.9326L84.4876 72.5258C84.4876 72.5258 81.5074 65.9239 81.3549 61.707C81.3249 60.8775 81.7499 59.0019 83.0724 58.8684Z" fill="#FCB94C"/>
<path d="M57.0405 73.4409L55.0369 74.077C55.0073 74.0864 54.9766 74.0923 54.9456 74.0947C54.7304 74.1097 54.473 73.9653 54.2823 73.7201L47.0266 64.2225C46.7419 63.8561 46.7297 63.4297 46.9585 63.2622L46.5376 63.5714C46.3088 63.7389 46.3211 64.1653 46.6057 64.5316L53.8614 74.0293C54.0521 74.2745 54.3095 74.4189 54.5248 74.4039C54.5558 74.4015 54.5864 74.3956 54.616 74.3862L56.6169 73.7501C56.6534 73.7388 56.6879 73.7218 56.719 73.6997L57.1454 73.3905C57.1134 73.4129 57.0779 73.4299 57.0405 73.4409Z" fill="#CD6A2B"/>
<path d="M49.1474 62.5704C49.3612 62.5554 49.6227 62.7066 49.8121 62.9463L57.0732 72.4426C57.3783 72.843 57.3688 73.3429 57.0405 73.441L55.0369 74.0771C55.0073 74.0865 54.9767 74.0924 54.9457 74.0948C54.7305 74.1097 54.473 73.9654 54.2823 73.7202L47.0266 64.2225C46.7079 63.8139 46.7297 63.3236 47.0539 63.2132L49.0575 62.5881C49.0866 62.5786 49.1168 62.5727 49.1474 62.5704Z" fill="#E67E22"/>
<path d="M56.1088 71.6403L53.7075 72.5052L47.2472 64.0522C47.1838 63.9844 47.1366 63.9031 47.1093 63.8144C47.0819 63.7256 47.075 63.6319 47.0892 63.5401C47.1028 63.4911 47.1301 63.4774 47.1437 63.4774L49.1378 62.855H49.1514C49.2404 62.8626 49.3266 62.8902 49.4034 62.9357C49.4803 62.9812 49.5459 63.0435 49.5954 63.1179L56.1088 71.6403Z" fill="#F5F5FB"/>
</g>
<defs>
<clipPath id="clip0_465_195">
<rect width="149" height="138.361" fill="white"/>
</clipPath>
</defs>
</svg>
