<svg width="165" height="85" viewBox="0 0 165 85" fill="none" xmlns="http://www.w3.org/2000/svg">
<path d="M15.253 84.9998H25.0688C27.2362 84.9998 29.022 83.2995 29.1981 81.1027C30.3593 66.6284 37.9261 53.9993 49.0121 46.1453C50.8315 44.8562 51.3911 42.376 50.2823 40.4242L45.4257 31.8713C44.1912 29.698 41.4034 29.0438 39.3577 30.4501C23.3396 41.4704 12.4338 59.5862 11.0106 80.359C10.8387 82.8648 12.7797 84.9998 15.253 84.9998Z" fill="#FF4764"/>
<path d="M116.648 31.9159L111.778 40.4603C110.668 42.412 111.223 44.8923 113.04 46.1835C124.101 54.0418 131.647 66.6601 132.802 81.1152C132.976 83.3035 134.758 84.9996 136.919 84.9996H146.747C149.218 84.9996 151.161 82.8646 150.989 80.3588C149.568 59.618 138.694 41.5256 122.716 30.5032C120.674 29.0948 117.884 29.7447 116.648 31.9159Z" fill="#4FD27E"/>
<path d="M80.9994 15C70.8272 15 61.2021 17.3865 52.6355 21.6352C50.4221 22.7347 49.59 25.5132 50.8224 27.6823L55.679 36.2352C56.7899 38.1912 59.1878 38.9349 61.1979 37.9739C67.2052 35.0995 73.9168 33.4908 80.9973 33.4908C88.0778 33.4908 94.8333 35.1102 100.855 38.0016C102.863 38.9668 105.263 38.2253 106.376 36.2714L111.245 27.7249C112.48 25.5579 111.652 22.7773 109.441 21.6757C100.857 17.4014 91.203 15 80.9994 15Z" fill="#FDD48E"/>
<path d="M8.20593 54.0592C8.53258 54.24 8.79524 54.4882 8.9939 54.8039C9.19579 55.1137 9.29222 55.4833 9.28322 55.9126C9.27744 56.3361 9.13574 56.7987 8.85813 57.3003L8.2916 58.324L10.6365 59.6217L9.95858 60.8466L3.85141 57.4668L5.09583 55.2182C5.3573 54.7457 5.6617 54.3884 6.00902 54.1463C6.35635 53.9042 6.71811 53.7806 7.09432 53.7755C7.47375 53.7645 7.84429 53.8591 8.20593 54.0592ZM7.84038 56.8056C8.0276 56.4673 8.09058 56.1745 8.02931 55.9273C7.9622 55.6768 7.78866 55.4741 7.50867 55.3191C6.9137 54.9899 6.43222 55.1577 6.06422 55.8227L5.52675 56.7939L7.3029 57.7768L7.84038 56.8056ZM14.1744 53.4146C13.9162 53.8812 13.5817 54.2447 13.1709 54.5051C12.7543 54.7622 12.2967 54.8937 11.7982 54.8997C11.3028 54.8999 10.8072 54.7628 10.3114 54.4884C9.8156 54.214 9.43784 53.864 9.17814 53.4383C8.92166 53.0069 8.79625 52.5451 8.80192 52.0529C8.80176 51.5576 8.9308 51.0766 9.18904 50.6099C9.44728 50.1433 9.78631 49.7785 10.2061 49.5156C10.6201 49.2494 11.0764 49.1133 11.575 49.1073C12.0768 49.0955 12.5756 49.2268 13.0714 49.5012C13.5672 49.7755 13.9417 50.1314 14.195 50.5687C14.4515 51.0002 14.5782 51.4665 14.5751 51.9677C14.5694 52.4598 14.4359 52.9421 14.1744 53.4146ZM13.107 52.8239C13.2296 52.6022 13.2917 52.3661 13.2933 52.1155C13.2922 51.8558 13.216 51.608 13.0648 51.3719C12.9135 51.1358 12.6833 50.9322 12.3741 50.7611C11.9133 50.5061 11.4926 50.4333 11.1121 50.5427C10.7289 50.643 10.4405 50.8682 10.2468 51.2182C10.0531 51.5681 10.0155 51.9321 10.134 52.3101C10.2498 52.679 10.5382 52.9909 10.999 53.2459C11.4598 53.501 11.8786 53.5841 12.2553 53.4955C12.6294 53.3977 12.9133 53.1738 13.107 52.8239ZM17.2622 47.8351C17.0039 48.3017 16.6694 48.6652 16.2587 48.9255C15.8421 49.1826 15.3845 49.3142 14.8859 49.3202C14.3906 49.3203 13.895 49.1832 13.3992 48.9089C12.9034 48.6345 12.5256 48.2845 12.2659 47.8588C12.0094 47.4273 11.884 46.9655 11.8897 46.4734C11.8895 45.978 12.0186 45.497 12.2768 45.0304C12.5351 44.5638 12.8741 44.199 13.2939 43.936C13.7079 43.6699 14.1642 43.5338 14.6627 43.5278C15.1646 43.516 15.6634 43.6472 16.1592 43.9216C16.655 44.196 17.0295 44.5519 17.2828 44.9892C17.5392 45.4206 17.666 45.887 17.6629 46.3882C17.6572 46.8803 17.5236 47.3626 17.2622 47.8351ZM16.1947 47.2443C16.3174 47.0227 16.3795 46.7866 16.381 46.536C16.38 46.2763 16.3038 46.0284 16.1525 45.7923C16.0013 45.5562 15.7711 45.3526 15.4619 45.1816C15.0011 44.9265 14.5804 44.8537 14.1999 44.9631C13.8167 45.0635 13.5283 45.2887 13.3346 45.6386C13.1409 45.9886 13.1033 46.3526 13.2218 46.7305C13.3376 47.0994 13.626 47.4114 14.0868 47.6664C14.5476 47.9214 14.9663 48.0046 15.343 47.9159C15.7172 47.8182 16.0011 47.5943 16.1947 47.2443ZM15.6632 40.8733C15.4937 40.5738 15.4054 40.2583 15.3984 39.9267C15.3946 39.5894 15.4831 39.2574 15.6639 38.9307L16.95 39.6425L16.7709 39.9663C16.5578 40.3512 16.4868 40.6929 16.5579 40.9913C16.6322 41.2839 16.8939 41.5544 17.3431 41.803L19.7579 43.1394L19.0801 44.3643L14.2328 41.6818L14.9107 40.4569L15.6632 40.8733Z" fill="#FF4764"/>
<path d="M63.97 9.67H61.19L60.73 11H59.26L61.77 4.01H63.4L65.91 11H64.43L63.97 9.67ZM63.59 8.55L62.58 5.63L61.57 8.55H63.59ZM69.1582 9.71L70.5582 5.46H72.0482L69.9982 11H68.2982L66.2582 5.46L67.7582 5.46L69.1582 9.71ZM77.9845 8.11C77.9845 8.31 77.9712 8.49 77.9445 8.65L73.8945 8.65C73.9279 9.05 74.0679 9.36333 74.3145 9.59C74.5612 9.81667 74.8645 9.93 75.2245 9.93C75.7445 9.93 76.1145 9.70667 76.3345 9.26H77.8445C77.6845 9.79333 77.3779 10.2333 76.9245 10.58C76.4712 10.92 75.9145 11.09 75.2545 11.09C74.7212 11.09 74.2412 10.9733 73.8145 10.74C73.3945 10.5 73.0645 10.1633 72.8245 9.73C72.5912 9.29667 72.4745 8.79667 72.4745 8.23C72.4745 7.65667 72.5912 7.15333 72.8245 6.72C73.0579 6.28667 73.3845 5.95333 73.8045 5.72C74.2245 5.48667 74.7079 5.37 75.2545 5.37C75.7812 5.37 76.2512 5.48333 76.6645 5.71C77.0845 5.93667 77.4079 6.26 77.6345 6.68C77.8679 7.09333 77.9845 7.57 77.9845 8.11ZM76.5345 7.71C76.5279 7.35 76.3979 7.06333 76.1445 6.85C75.8912 6.63 75.5812 6.52 75.2145 6.52C74.8679 6.52 74.5745 6.62667 74.3345 6.84C74.1012 7.04667 73.9579 7.33667 73.9045 7.71H76.5345ZM80.4064 6.32C80.5864 6.02667 80.8197 5.79667 81.1064 5.63C81.3997 5.46333 81.7331 5.38 82.1064 5.38V6.85H81.7364C81.2964 6.85 80.9631 6.95333 80.7364 7.16C80.5164 7.36667 80.4064 7.72667 80.4064 8.24V11H79.0064V5.46H80.4064V6.32ZM82.6894 8.21C82.6894 7.65 82.7994 7.15333 83.0194 6.72C83.246 6.28667 83.5494 5.95333 83.9294 5.72C84.316 5.48667 84.746 5.37 85.2194 5.37C85.6327 5.37 85.9927 5.45333 86.2994 5.62C86.6127 5.78667 86.8627 5.99667 87.0494 6.25V5.46H88.4594V11H87.0494V10.19C86.8694 10.45 86.6194 10.6667 86.2994 10.84C85.986 11.0067 85.6227 11.09 85.2094 11.09C84.7427 11.09 84.316 10.97 83.9294 10.73C83.5494 10.49 83.246 10.1533 83.0194 9.72C82.7994 9.28 82.6894 8.77667 82.6894 8.21ZM87.0494 8.23C87.0494 7.89 86.9827 7.6 86.8494 7.36C86.716 7.11333 86.536 6.92667 86.3094 6.8C86.0827 6.66667 85.8394 6.6 85.5794 6.6C85.3194 6.6 85.0794 6.66333 84.8594 6.79C84.6394 6.91667 84.4594 7.10333 84.3194 7.35C84.186 7.59 84.1194 7.87667 84.1194 8.21C84.1194 8.54333 84.186 8.83667 84.3194 9.09C84.4594 9.33667 84.6394 9.52667 84.8594 9.66C85.086 9.79333 85.326 9.86 85.5794 9.86C85.8394 9.86 86.0827 9.79667 86.3094 9.67C86.536 9.53667 86.716 9.35 86.8494 9.11C86.9827 8.86333 87.0494 8.57 87.0494 8.23ZM91.9967 5.37C92.4101 5.37 92.7734 5.45333 93.0867 5.62C93.4001 5.78 93.6467 5.99 93.8267 6.25V5.46H95.2367V11.04C95.2367 11.5533 95.1334 12.01 94.9267 12.41C94.7201 12.8167 94.4101 13.1367 93.9967 13.37C93.5834 13.61 93.0834 13.73 92.4967 13.73C91.7101 13.73 91.0634 13.5467 90.5567 13.18C90.0567 12.8133 89.7734 12.3133 89.7067 11.68H91.0967C91.1701 11.9333 91.3267 12.1333 91.5667 12.28C91.8134 12.4333 92.1101 12.51 92.4567 12.51C92.8634 12.51 93.1934 12.3867 93.4467 12.14C93.7001 11.9 93.8267 11.5333 93.8267 11.04V10.18C93.6467 10.44 93.3967 10.6567 93.0767 10.83C92.7634 11.0033 92.4034 11.09 91.9967 11.09C91.5301 11.09 91.1034 10.97 90.7167 10.73C90.3301 10.49 90.0234 10.1533 89.7967 9.72C89.5767 9.28 89.4667 8.77667 89.4667 8.21C89.4667 7.65 89.5767 7.15333 89.7967 6.72C90.0234 6.28667 90.3267 5.95333 90.7067 5.72C91.0934 5.48667 91.5234 5.37 91.9967 5.37ZM93.8267 8.23C93.8267 7.89 93.7601 7.6 93.6267 7.36C93.4934 7.11333 93.3134 6.92667 93.0867 6.8C92.8601 6.66667 92.6167 6.6 92.3567 6.6C92.0967 6.6 91.8567 6.66333 91.6367 6.79C91.4167 6.91667 91.2367 7.10333 91.0967 7.35C90.9634 7.59 90.8967 7.87667 90.8967 8.21C90.8967 8.54333 90.9634 8.83667 91.0967 9.09C91.2367 9.33667 91.4167 9.52667 91.6367 9.66C91.8634 9.79333 92.1034 9.86 92.3567 9.86C92.6167 9.86 92.8601 9.79667 93.0867 9.67C93.3134 9.53667 93.4934 9.35 93.6267 9.11C93.7601 8.86333 93.8267 8.57 93.8267 8.23ZM101.754 8.11C101.754 8.31 101.741 8.49 101.714 8.65H97.6641C97.6974 9.05 97.8374 9.36333 98.0841 9.59C98.3307 9.81667 98.6341 9.93 98.9941 9.93C99.5141 9.93 99.8841 9.70667 100.104 9.26H101.614C101.454 9.79333 101.147 10.2333 100.694 10.58C100.241 10.92 99.6841 11.09 99.0241 11.09C98.4907 11.09 98.0107 10.9733 97.5841 10.74C97.1641 10.5 96.8341 10.1633 96.5941 9.73C96.3607 9.29667 96.2441 8.79667 96.2441 8.23C96.2441 7.65667 96.3607 7.15333 96.5941 6.72C96.8274 6.28667 97.1541 5.95333 97.5741 5.72C97.9941 5.48667 98.4774 5.37 99.0241 5.37C99.5507 5.37 100.021 5.48333 100.434 5.71C100.854 5.93667 101.177 6.26 101.404 6.68C101.637 7.09333 101.754 7.57 101.754 8.11ZM100.304 7.71C100.297 7.35 100.167 7.06333 99.9141 6.85C99.6607 6.63 99.3507 6.52 98.9841 6.52C98.6374 6.52 98.3441 6.62667 98.1041 6.84C97.8707 7.04667 97.7274 7.33667 97.6741 7.71L100.304 7.71Z" fill="#FCB742"/>
<path d="M148.449 43.7835C148.632 43.5039 148.724 43.2045 148.727 42.8852C148.73 42.566 148.643 42.2419 148.467 41.9129C148.271 41.5487 148.016 41.2696 147.7 41.0759C147.384 40.8821 147.031 40.7878 146.641 40.793C146.25 40.7983 145.855 40.908 145.455 41.1223C145.044 41.3428 144.728 41.6144 144.508 41.9368C144.291 42.2652 144.177 42.6174 144.167 42.9935C144.157 43.3696 144.254 43.7486 144.459 44.1305C144.711 44.6005 145.041 44.9191 145.448 45.0864C145.861 45.2506 146.317 45.2599 146.814 45.1144L145.679 42.9994L146.622 42.4937L148.409 45.8248L147.334 46.4014C146.861 46.5492 146.369 46.5857 145.86 46.5108C145.351 46.4359 144.87 46.2439 144.417 45.9347C143.972 45.6283 143.608 45.2107 143.325 44.682C143.007 44.0886 142.85 43.4801 142.856 42.8566C142.872 42.2358 143.043 41.6597 143.371 41.1283C143.702 40.6028 144.17 40.1778 144.775 39.8533C145.38 39.5287 145.993 39.374 146.614 39.389C147.244 39.4067 147.818 39.5826 148.338 39.9167C148.867 40.2535 149.288 40.7157 149.603 41.3032C149.975 41.9964 150.128 42.69 150.061 43.3839C150.001 44.0746 149.717 44.6808 149.21 45.2024L148.449 43.7835ZM146.562 50.7819C146.31 50.3119 146.186 49.8337 146.19 49.3475C146.2 48.858 146.338 48.4022 146.603 47.98C146.871 47.5637 147.255 47.2216 147.755 46.9538C148.254 46.686 148.753 46.5583 149.251 46.5709C149.753 46.5893 150.209 46.7343 150.619 47.0059C151.036 47.2744 151.37 47.6436 151.622 48.1136C151.874 48.5836 151.997 49.0663 151.99 49.5616C151.989 50.0537 151.856 50.5109 151.591 50.9331C151.329 51.3612 150.948 51.7091 150.449 51.9769C149.949 52.2448 149.447 52.3665 148.943 52.3422C148.441 52.3238 147.98 52.1774 147.561 51.9031C147.15 51.6315 146.818 51.2578 146.562 50.7819ZM147.638 50.2053C147.757 50.4285 147.922 50.6087 148.132 50.7459C148.35 50.8858 148.6 50.9562 148.88 50.9571C149.161 50.958 149.457 50.8749 149.768 50.7079C150.232 50.459 150.522 50.145 150.636 49.7659C150.759 49.3895 150.727 49.0251 150.537 48.6726C150.348 48.3201 150.063 48.0912 149.681 47.9858C149.308 47.8831 148.89 47.9563 148.426 48.2052C147.962 48.4541 147.665 48.7609 147.535 49.1255C147.414 49.4928 147.448 49.8528 147.638 50.2053ZM149.576 56.4016C149.324 55.9316 149.2 55.4534 149.204 54.9672C149.214 54.4777 149.352 54.0219 149.617 53.5997C149.885 53.1834 150.269 52.8413 150.769 52.5735C151.268 52.3057 151.767 52.178 152.265 52.1906C152.767 52.209 153.223 52.3541 153.634 52.6257C154.05 52.8941 154.384 53.2633 154.636 53.7333C154.888 54.2033 155.011 54.686 155.004 55.1813C155.003 55.6734 154.87 56.1306 154.605 56.5528C154.343 56.9809 153.962 57.3288 153.463 57.5967C152.963 57.8645 152.461 57.9862 151.957 57.9619C151.455 57.9435 150.994 57.7971 150.575 57.5228C150.164 57.2512 149.832 56.8775 149.576 56.4016ZM150.652 55.825C150.771 56.0482 150.936 56.2284 151.146 56.3656C151.365 56.5055 151.614 56.5759 151.894 56.5768C152.175 56.5777 152.471 56.4946 152.782 56.3276C153.246 56.0787 153.536 55.7647 153.65 55.3856C153.773 55.0093 153.741 54.6448 153.552 54.2923C153.362 53.9398 153.077 53.7109 152.695 53.6055C152.322 53.5028 151.904 53.576 151.44 53.8249C150.976 54.0738 150.679 54.3806 150.549 54.7452C150.428 55.1125 150.462 55.4725 150.652 55.825ZM153.796 58.175C154.289 57.9103 154.779 57.7725 155.265 57.7615C155.754 57.7565 156.192 57.8692 156.581 58.0996C156.969 58.3301 157.275 58.6539 157.499 59.071C157.669 59.3883 157.761 59.7287 157.774 60.0922C157.793 60.4525 157.734 60.7793 157.596 61.0726L159.914 59.8295L160.585 61.0809L154.064 64.5785L153.393 63.3271L154.116 62.9395C153.793 62.916 153.484 62.8055 153.189 62.6081C152.894 62.4108 152.649 62.13 152.453 61.7657C152.233 61.3545 152.137 60.9218 152.166 60.4676C152.194 60.0134 152.346 59.584 152.621 59.1795C152.905 58.7776 153.296 58.4428 153.796 58.175ZM155.839 62.0267C156.138 61.866 156.362 61.6702 156.511 61.4392C156.665 61.2051 156.745 60.9583 156.749 60.6987C156.76 60.4359 156.703 60.1899 156.58 59.9608C156.457 59.7317 156.288 59.5501 156.073 59.4161C155.857 59.2821 155.607 59.2117 155.324 59.2049C155.049 59.2009 154.765 59.2776 154.471 59.4351C154.178 59.5927 153.951 59.7901 153.791 60.0273C153.639 60.2673 153.557 60.5157 153.543 60.7726C153.533 61.0354 153.588 61.2784 153.707 61.5016C153.83 61.7308 154.001 61.9153 154.22 62.0552C154.445 62.1919 154.694 62.2623 154.969 62.2663C155.249 62.2673 155.539 62.1874 155.839 62.0267Z" fill="#35BA80"/>
</svg>
