<svg width="33" height="32" viewBox="0 0 33 32" fill="none" xmlns="http://www.w3.org/2000/svg">
<path d="M3.31988 13.0159C3.91024 10.4418 5.25067 8.10049 7.17165 6.28815C9.09264 4.47582 11.5079 3.27382 14.112 2.83416C16.7161 2.3945 19.3922 2.73693 21.8017 3.81813C24.2112 4.89934 26.246 6.67077 27.6487 8.90842C29.0515 11.1461 29.7592 13.7494 29.6823 16.3893C29.6055 19.0291 28.7476 21.5869 27.2171 23.7392C25.6866 25.8915 23.5522 27.5416 21.0839 28.4808C18.6156 29.4201 15.9242 29.6063 13.3501 29.0159C9.89824 28.2243 6.90228 26.0938 5.02126 23.0932C3.14023 20.0926 2.52823 16.4677 3.31988 13.0159Z" fill="#FCB742"/>
<path d="M16.3348 21.8769C19.3331 21.8769 21.7638 18.5101 21.7638 14.3569C21.7638 10.2037 19.3331 6.83691 16.3348 6.83691C13.3364 6.83691 10.9058 10.2037 10.9058 14.3569C10.9058 18.5101 13.3364 21.8769 16.3348 21.8769Z" fill="white"/>
<path d="M16.257 20.5319C12.531 20.4259 8.85366 21.3982 5.66699 23.3319C6.79594 25.1323 8.36214 26.6178 10.2198 27.6499C12.0774 28.682 14.166 29.2273 16.291 29.2349C18.4161 29.2425 20.5086 28.7121 22.3735 27.6933C24.2384 26.6744 25.8152 25.2002 26.957 23.4079C23.7498 21.4201 20.0286 20.4199 16.257 20.5319Z" fill="white"/>
<path d="M19.2361 18.641C19.2361 17.0388 17.9373 15.74 16.3351 15.74C14.7329 15.74 13.4341 17.0388 13.4341 18.641V21.702C13.4341 23.3042 14.7329 24.603 16.3351 24.603C17.9373 24.603 19.2361 23.3042 19.2361 21.702V18.641Z" fill="white"/>
<path d="M12.0159 14.7039C12.1779 15.9099 11.9109 16.9549 11.4159 17.0389C10.9209 17.1229 10.3919 16.2139 10.2299 15.0079C10.0679 13.8019 10.3299 12.7569 10.8299 12.6729C11.3299 12.5889 11.8509 13.4979 12.0159 14.7039Z" fill="white"/>
<path d="M20.6557 14.7039C20.4937 15.9099 20.7607 16.9549 21.2557 17.0389C21.7507 17.1229 22.2797 16.2139 22.4427 15.0079C22.6057 13.8019 22.3377 12.7569 21.8427 12.6729C21.3477 12.5889 20.8187 13.4979 20.6557 14.7039Z" fill="white"/>
<path d="M11.1009 14.2501L10.5529 10.6391C10.4493 10.2072 10.4593 9.75591 10.5819 9.32907C10.6507 9.11867 10.7959 8.94173 10.9888 8.83322C11.1817 8.72472 11.4084 8.69255 11.6239 8.74307C11.4579 7.90607 12.3849 7.28706 13.1919 7.00906C14.5408 6.51461 15.9854 6.33703 17.4139 6.49007C18.8497 6.65009 20.1821 7.31453 21.1739 8.36507C21.4855 8.69597 21.7264 9.08693 21.8819 9.51407C22.084 10.3659 22.0571 11.256 21.8039 12.0941L21.3779 14.1271C21.3589 14.2848 21.2989 14.4348 21.2039 14.5621C21.1069 14.6412 20.9948 14.6998 20.8745 14.7342C20.7541 14.7686 20.628 14.778 20.5039 14.7621L12.4279 14.7791C11.9219 14.7791 11.2609 14.6561 11.1939 14.1541" fill="white"/>
</svg>
