<svg width="16" height="16" viewBox="0 0 16 16" fill="none" xmlns="http://www.w3.org/2000/svg">
<path d="M12.6667 0H3.33333C2.44928 0 1.60143 0.351189 0.976311 0.976311C0.351189 1.60143 0 2.44928 0 3.33333V12.6667C0 13.5507 0.351189 14.3986 0.976311 15.0237C1.60143 15.6488 2.44928 16 3.33333 16H12.6667C13.5507 16 14.3986 15.6488 15.0237 15.0237C15.6488 14.3986 16 13.5507 16 12.6667V3.33333C16 2.44928 15.6488 1.60143 15.0237 0.976311C14.3986 0.351189 13.5507 0 12.6667 0ZM14.6667 12.6667C14.6667 13.1971 14.456 13.7058 14.0809 14.0809C13.7058 14.456 13.1971 14.6667 12.6667 14.6667H3.33333C2.8029 14.6667 2.29419 14.456 1.91912 14.0809C1.54405 13.7058 1.33333 13.1971 1.33333 12.6667V3.33333C1.33333 2.8029 1.54405 2.29419 1.91912 1.91912C2.29419 1.54405 2.8029 1.33333 3.33333 1.33333H12.6667C13.1971 1.33333 13.7058 1.54405 14.0809 1.91912C14.456 2.29419 14.6667 2.8029 14.6667 3.33333V12.6667Z" fill="white"/>
<path d="M10.6652 7.33326H8.66516V5.33326C8.66516 5.15645 8.59492 4.98688 8.4699 4.86186C8.34488 4.73683 8.17531 4.6666 7.99849 4.6666C7.82168 4.6666 7.65211 4.73683 7.52709 4.86186C7.40207 4.98688 7.33183 5.15645 7.33183 5.33326V7.33326H5.33183C5.15502 7.33326 4.98545 7.4035 4.86042 7.52852C4.7354 7.65355 4.66516 7.82312 4.66516 7.99993C4.66516 8.17674 4.7354 8.34631 4.86042 8.47133C4.98545 8.59636 5.15502 8.6666 5.33183 8.6666H7.33183V10.6666C7.33183 10.8434 7.40207 11.013 7.52709 11.138C7.65211 11.263 7.82168 11.3333 7.99849 11.3333C8.17531 11.3333 8.34488 11.263 8.4699 11.138C8.59492 11.013 8.66516 10.8434 8.66516 10.6666V8.6666H10.6652C10.842 8.6666 11.0115 8.59636 11.1366 8.47133C11.2616 8.34631 11.3318 8.17674 11.3318 7.99993C11.3318 7.82312 11.2616 7.65355 11.1366 7.52852C11.0115 7.4035 10.842 7.33326 10.6652 7.33326Z" fill="white"/>
</svg>
