<svg width="16" height="16" viewBox="0 0 16 16" fill="none" xmlns="http://www.w3.org/2000/svg">
<path d="M13.2541 5.34032V12.2082C13.2541 12.5255 13.2467 12.8428 13.2541 13.1601V13.1738L13.626 12.8019H2.83141C2.68515 12.8019 2.53889 12.7994 2.39264 12.8019H2.37404L2.74589 13.1738V6.30587C2.74589 5.98856 2.75332 5.67126 2.74589 5.35395V5.34032L2.37404 5.71216H13.1686C13.3148 5.71216 13.4611 5.7134 13.6074 5.71216H13.626C13.8206 5.71216 14.0065 5.54111 13.9978 5.34032C13.9891 5.13828 13.8342 4.96848 13.626 4.96848H2.83141C2.68515 4.96848 2.53889 4.96724 2.39264 4.96848H2.37404C2.17325 4.96848 2.0022 5.13828 2.0022 5.34032V12.2082C2.0022 12.5255 1.99725 12.8428 2.0022 13.1601V13.1738C2.0022 13.3746 2.17201 13.5456 2.37404 13.5456H13.1686C13.3148 13.5456 13.4611 13.5468 13.6074 13.5456H13.626C13.8267 13.5456 13.9978 13.3758 13.9978 13.1738V6.30587C13.9978 5.98856 14.0028 5.67126 13.9978 5.35395V5.34032C13.9978 5.14572 13.8267 4.9598 13.626 4.96848C13.4239 4.97715 13.2541 5.13209 13.2541 5.34032Z" fill="white"/>
<path d="M13.6261 4.96972H2.83158C2.68532 4.96972 2.53906 4.96724 2.3928 4.96972H2.37421C2.46221 5.18167 2.54898 5.39238 2.63698 5.60433C2.91586 5.30686 3.19598 5.01062 3.47486 4.71315C3.91983 4.23967 4.3648 3.76743 4.80977 3.29396L5.11468 2.97046C5.02668 3.0064 4.93992 3.04358 4.85191 3.07953H10.3738C10.6278 3.07953 10.8832 3.08697 11.1385 3.07953H11.1484C11.0604 3.04358 10.9737 3.0064 10.8857 2.97046C11.1645 3.26793 11.4447 3.56416 11.7235 3.86163C12.1685 4.33511 12.6135 4.80735 13.0584 5.28083L13.3634 5.60433C13.4972 5.74687 13.7563 5.74935 13.8889 5.60433C14.029 5.45187 14.0314 5.23001 13.8889 5.07879C13.636 4.80983 13.3832 4.54086 13.1303 4.27314C12.7027 3.81825 12.2739 3.36337 11.8462 2.90848C11.7173 2.7709 11.5884 2.63456 11.4583 2.49698C11.3728 2.4065 11.2885 2.3408 11.1459 2.33585H5.04155C4.94983 2.33585 4.842 2.32469 4.75152 2.34948C4.6003 2.39162 4.48255 2.55647 4.37967 2.66555L3.18235 3.93724L2.1635 5.0193L2.10773 5.07879C2.00361 5.18911 1.97138 5.34528 2.03088 5.48534C2.08789 5.62044 2.22176 5.7134 2.37049 5.7134H13.165C13.3113 5.7134 13.4576 5.71464 13.6038 5.7134H13.6224C13.817 5.7134 14.0029 5.54236 13.9942 5.34156C13.9893 5.13953 13.8344 4.96972 13.6261 4.96972Z" fill="white"/>
<path d="M9.02786 5.34032V8.81828C9.21378 8.71168 9.40094 8.60385 9.58686 8.49725C9.16792 8.27787 8.75022 8.05848 8.33128 7.83909C8.27674 7.81059 8.22344 7.78084 8.16891 7.75357C8.0338 7.6854 7.9049 7.69655 7.77599 7.76225C7.74749 7.77588 7.72022 7.79075 7.69295 7.80563C7.45001 7.93329 7.20708 8.06096 6.9629 8.18739C6.76583 8.29026 6.56999 8.39314 6.37291 8.49601C6.55883 8.60261 6.74599 8.71044 6.93191 8.81704V5.33908L6.56007 5.71092H9.3997C9.5943 5.71092 9.78022 5.53988 9.77154 5.33908C9.76286 5.13705 9.60793 4.96724 9.3997 4.96724H6.56007C6.35928 4.96724 6.18823 5.13705 6.18823 5.33908V8.81704C6.18823 9.10831 6.50182 9.26696 6.74723 9.13806C7.16122 8.92115 7.57396 8.70424 7.98794 8.48734L8.16643 8.39438H7.79087C8.20485 8.61128 8.61759 8.82819 9.03158 9.0451L9.21006 9.13806C9.45672 9.26696 9.76906 9.10831 9.76906 8.81704V5.33908C9.76906 5.14449 9.59801 4.95857 9.39722 4.96724C9.19767 4.97716 9.02786 5.13209 9.02786 5.34032Z" fill="white"/>
</svg>
