<svg width="20" height="20" viewBox="0 0 20 20" fill="none" xmlns="http://www.w3.org/2000/svg">
<path d="M14.7155 3.64835V1.66666H3.33337V16.3516H5.28459V18.3171H16.6667V3.64835H14.7155ZM4.30898 2.64227H13.7399V15.376H4.30898V2.64227ZM15.6911 17.3415H6.2602V16.3516H14.7155V4.62396H15.6911V17.3415Z" fill="white"/>
<path d="M7.22546 9.01388L9.02478 11.5847L10.8241 9.01385L9.02478 6.44308L7.22546 9.01388ZM9.02478 9.88328L8.41629 9.01388L9.02478 8.14448L9.6333 9.01385L9.02478 9.88328Z" fill="white"/>
<path d="M10.5044 4.10368V3.61588H5.28418V12.1453H5.77198C6.74886 12.1453 7.54363 12.939 7.54363 13.9146V14.4024H12.7639V5.87298H12.276C11.2992 5.87298 10.5044 5.07929 10.5044 4.10368ZM11.7882 13.4268H8.47582C8.27329 12.3034 7.38428 11.4152 6.25982 11.213V4.59149H9.57224C9.77478 5.7149 10.6638 6.60313 11.7883 6.80527V13.4268H11.7882Z" fill="white"/>
<path d="M5.28418 13.4268H6.25979V14.4024H5.28418V13.4268Z" fill="white"/>
<path d="M11.7875 3.61588H12.7631V4.59149H11.7875V3.61588Z" fill="white"/>
</svg>
