<svg width="18" height="18" viewBox="0 0 18 18" fill="none" xmlns="http://www.w3.org/2000/svg">
<path d="M17.7421 16.4784L14.4051 13.1663C15.7001 11.5505 16.3273 9.49962 16.1577 7.43527C15.9882 5.37091 15.0347 3.45005 13.4934 2.06765C11.9521 0.68525 9.94015 -0.0535989 7.87123 0.00303042C5.80232 0.0596597 3.83372 0.907462 2.37023 2.37211C0.906746 3.83675 0.0596127 5.8069 0.00302803 7.87745C-0.0535566 9.94799 0.684709 11.9615 2.06602 13.504C3.44732 15.0466 5.36668 16.0008 7.4294 16.1705C9.49213 16.3402 11.5414 15.7125 13.1559 14.4165L16.4682 17.7315C16.5503 17.8153 16.6481 17.8822 16.756 17.9283C16.864 17.9744 16.9799 17.9987 17.0972 18C17.2145 18.0012 17.3309 17.9793 17.4398 17.9355C17.5487 17.8917 17.6478 17.8269 17.7317 17.7447C17.8155 17.6626 17.8823 17.5647 17.9284 17.4567C17.9744 17.3487 17.9987 17.2327 18 17.1153C18.0012 16.9978 17.9793 16.8813 17.9355 16.7724C17.8918 16.6634 17.827 16.5642 17.7449 16.4803L17.7421 16.4784ZM8.11173 14.4165C6.86674 14.4167 5.64966 14.0474 4.61442 13.3553C3.57917 12.6632 2.77226 11.6794 2.29574 10.5283C1.81921 9.37718 1.69448 8.11052 1.93732 6.88848C2.18016 5.66644 2.77966 4.54392 3.66 3.66289C4.54034 2.78186 5.66197 2.18188 6.88305 1.93885C8.10412 1.69582 9.36979 1.82065 10.52 2.29755C11.6702 2.77445 12.6532 3.58199 13.3447 4.61806C14.0363 5.65412 14.4053 6.87216 14.4051 8.11813C14.4049 9.78849 13.7418 11.3904 12.5616 12.5715C11.3814 13.7526 9.78077 14.4163 8.11173 14.4165Z" fill="#0E2339"/>
</svg>
