<svg width="40" height="51" viewBox="0 0 40 51" fill="none" xmlns="http://www.w3.org/2000/svg">
<path d="M20.281 1.00005C17.6542 0.962888 15.0459 1.44358 12.605 2.41468C10.164 3.38578 7.9383 4.82824 6.05494 6.65969C4.17159 8.49114 2.66749 10.6757 1.62857 13.0885C0.589645 15.5014 0.0362527 18.0953 0 20.722C0 34.342 18.411 50.043 19.195 50.7001C19.4202 50.8906 19.7056 50.9951 20.0005 50.9951C20.2954 50.9951 20.5808 50.8906 20.806 50.7001C21.59 50.043 40 34.342 40 20.722C39.9281 15.5143 37.8276 10.5401 34.1451 6.85704C30.4626 3.174 25.4887 1.07273 20.281 1.00005ZM20 48.085C16.46 44.906 2.5 31.667 2.5 20.722C2.5 16.0808 4.34374 11.6296 7.62563 8.34768C10.9075 5.06579 15.3587 3.22205 20 3.22205C24.6413 3.22205 29.0925 5.06579 32.3744 8.34768C35.6563 11.6296 37.5 16.0808 37.5 20.722C37.5 31.657 23.538 44.9 20 48.085ZM20 13.5C18.5166 13.5 17.0666 13.9399 15.8332 14.764C14.5999 15.5881 13.6386 16.7595 13.0709 18.1299C12.5032 19.5004 12.3547 21.0084 12.6441 22.4632C12.9335 23.9181 13.6478 25.2545 14.6967 26.3033C15.7456 27.3522 17.082 28.0665 18.5368 28.3559C19.9917 28.6453 21.4997 28.4968 22.8701 27.9291C24.2406 27.3615 25.4119 26.4002 26.236 25.1668C27.0601 23.9335 27.5 22.4834 27.5 21C27.5 19.0109 26.7098 17.1033 25.3033 15.6967C23.8968 14.2902 21.9891 13.5 20 13.5ZM20 26C19.0111 26 18.0444 25.7068 17.2221 25.1574C16.3999 24.608 15.759 23.8271 15.3806 22.9135C15.0022 21.9998 14.9031 20.9945 15.0961 20.0246C15.289 19.0547 15.7652 18.1638 16.4645 17.4645C17.1637 16.7653 18.0546 16.289 19.0245 16.0961C19.9945 15.9032 20.9998 16.0022 21.9134 16.3806C22.827 16.7591 23.6079 17.4 24.1573 18.2222C24.7068 19.0444 25 20.0111 25 21C25 22.3261 24.4732 23.5979 23.5355 24.5356C22.5979 25.4733 21.3261 26 20 26Z" fill="#FCB742"/>
</svg>
