<svg width="16" height="16" viewBox="0 0 16 16" fill="none" xmlns="http://www.w3.org/2000/svg">
<path fill-rule="evenodd" clip-rule="evenodd" d="M8.61426 2.45819V3.07318C8.6023 3.20634 8.54834 3.33224 8.46019 3.43267C8.37205 3.5331 8.25427 3.60286 8.12391 3.63185C7.99355 3.66084 7.85736 3.64757 7.73504 3.59395C7.61271 3.54033 7.51059 3.44914 7.44344 3.33358C7.40638 3.25173 7.38673 3.16305 7.38574 3.07318V2.45819H5.54386C5.43037 2.44895 5.32139 2.40957 5.22818 2.3441C5.13496 2.27863 5.06087 2.18945 5.01357 2.08576C4.96626 1.98206 4.94744 1.86761 4.95905 1.7542C4.97066 1.6408 5.01228 1.53254 5.07961 1.44061C5.13353 1.36967 5.20413 1.31315 5.28512 1.2761C5.36611 1.23904 5.45499 1.22259 5.54386 1.22821C6.15752 1.22821 6.77148 1.22643 7.38574 1.22288V0.614995C7.38415 0.549344 7.39468 0.483964 7.41681 0.422144C7.45986 0.298469 7.54038 0.191326 7.64715 0.115654C7.75392 0.0399821 7.88161 -0.000447017 8.01243 3.72843e-06C8.17325 0.00303325 8.32645 0.06919 8.43902 0.184222C8.55159 0.299253 8.61452 0.453953 8.61426 0.614995V1.21577C9.84189 1.20866 11.0704 1.20155 12.2989 1.20777V0.614995C12.2984 0.453884 12.3613 0.299052 12.4739 0.183971C12.5865 0.0688894 12.7399 0.00280492 12.9007 3.72843e-06H12.9247C13.0856 0.00280492 13.2389 0.0688894 13.3516 0.183971C13.4642 0.299052 13.527 0.453884 13.5265 0.614995V1.21932L14.1861 1.22999C14.6587 1.25365 15.1054 1.45375 15.4379 1.79083C15.7705 2.12791 15.9649 2.5775 15.9827 3.05097C16.0058 6.75276 16.0058 10.4557 15.9827 14.1599C15.9633 14.6366 15.7654 15.0886 15.4284 15.426C15.0914 15.7633 14.64 15.9614 14.1639 15.9809C10.0552 16.0064 5.94626 16.0064 1.837 15.9809C1.35957 15.9637 0.906401 15.7659 0.568752 15.4276C0.231103 15.0892 0.0340611 14.6353 0.0173093 14.1572C-0.00576976 10.4543 -0.00576976 6.75128 0.0173093 3.0483C0.0350247 2.5675 0.235273 2.11158 0.57721 1.77353C0.919146 1.43548 1.37701 1.24076 1.85742 1.2291H2.47345V0.614995C2.47159 0.549326 2.48213 0.483896 2.50452 0.422144C2.54752 0.298613 2.62791 0.191572 2.7345 0.115912C2.84109 0.0402531 2.96859 -0.000261899 3.09925 3.72843e-06C3.26015 0.00280492 3.41348 0.0688894 3.5261 0.183971C3.63871 0.299052 3.70157 0.453884 3.70108 0.614995V3.07229C3.68985 3.2038 3.63765 3.32846 3.55186 3.42868C3.46606 3.52889 3.351 3.5996 3.22291 3.63083C3.09482 3.66205 2.96017 3.65222 2.83796 3.60271C2.71576 3.55321 2.61216 3.46653 2.5418 3.35491C2.49757 3.26724 2.47418 3.17051 2.47345 3.07229V2.45553C2.26338 2.45553 2.05359 2.45553 1.84411 2.45553C1.68824 2.46442 1.54107 2.53035 1.4306 2.64079C1.32012 2.75124 1.25405 2.89848 1.24494 3.05452C1.17629 6.75158 1.17629 10.4489 1.24494 14.1466C1.25386 14.3027 1.31987 14.45 1.43039 14.5605C1.5409 14.671 1.68817 14.7369 1.84411 14.7456C5.94804 14.822 10.052 14.822 14.1559 14.7456C14.3118 14.7367 14.4589 14.6708 14.5694 14.5603C14.6799 14.4499 14.746 14.3026 14.7551 14.1466C14.8231 10.4501 14.8231 6.75276 14.7551 3.05452C14.7456 2.8957 14.6771 2.74617 14.5632 2.63533C14.4492 2.52449 14.2979 2.46035 14.139 2.45553H13.5265V3.07052C13.5143 3.20141 13.4615 3.32522 13.3757 3.42468C13.2898 3.52415 13.1751 3.59432 13.0475 3.62542C12.9199 3.65652 12.7858 3.64701 12.6639 3.5982C12.542 3.54939 12.4383 3.46372 12.3673 3.35313C12.3233 3.26535 12.3 3.1687 12.2989 3.07052V2.45819H8.61426ZM3.08682 12.2909C3.20904 12.2872 3.32958 12.3201 3.43302 12.3854C3.53645 12.4507 3.61808 12.5454 3.66744 12.6574C3.7168 12.7694 3.73166 12.8936 3.7101 13.0141C3.68855 13.1346 3.63157 13.2459 3.54645 13.3338C3.46133 13.4217 3.35196 13.4821 3.23232 13.5074C3.11269 13.5327 2.98824 13.5216 2.87491 13.4757C2.76158 13.4297 2.66452 13.351 2.59616 13.2495C2.52781 13.148 2.49126 13.0284 2.49121 12.9059C2.49136 12.7461 2.55358 12.5925 2.66473 12.4778C2.77588 12.363 2.92724 12.296 3.08682 12.2909ZM5.54386 12.2909C5.66638 12.2856 5.78768 12.3171 5.89216 12.3814C5.99664 12.4457 6.0795 12.5399 6.13007 12.6517C6.18065 12.7636 6.19663 12.888 6.17595 13.0091C6.15527 13.1301 6.09888 13.2421 6.01404 13.3308C5.9292 13.4195 5.8198 13.4807 5.69991 13.5065C5.58003 13.5324 5.45516 13.5218 5.34137 13.476C5.22758 13.4302 5.13009 13.3513 5.06145 13.2496C4.99281 13.1478 4.95617 13.0278 4.95623 12.905C4.95653 12.7467 5.01775 12.5945 5.12718 12.4801C5.23661 12.3658 5.38583 12.298 5.54386 12.2909ZM8 12.2909C8.12248 12.2856 8.24376 12.3171 8.34821 12.3814C8.45267 12.4456 8.53553 12.5397 8.58613 12.6515C8.63673 12.7633 8.65275 12.8877 8.63215 13.0087C8.61154 13.1297 8.55524 13.2418 8.47049 13.3305C8.38574 13.4192 8.27642 13.4805 8.1566 13.5064C8.03678 13.5324 7.91193 13.5219 7.79813 13.4762C7.68433 13.4306 7.58678 13.3518 7.51803 13.2502C7.44929 13.1486 7.41249 13.0287 7.41237 12.9059C7.41222 12.7473 7.47327 12.5948 7.58277 12.4802C7.69227 12.3656 7.84175 12.2978 8 12.2909ZM3.08682 9.83276C3.20911 9.82886 3.32977 9.86162 3.43334 9.92682C3.53691 9.99203 3.61867 10.0867 3.66814 10.1987C3.71762 10.3108 3.73255 10.435 3.71103 10.5556C3.68951 10.6762 3.63251 10.7876 3.54735 10.8755C3.46218 10.9635 3.35273 11.024 3.23301 11.0492C3.11329 11.0745 2.98877 11.0634 2.8754 11.0173C2.76203 10.9713 2.66499 10.8924 2.59669 10.7907C2.5284 10.6891 2.49198 10.5694 2.49209 10.4469C2.49224 10.2872 2.55438 10.1339 2.66536 10.0193C2.77634 9.90474 2.92747 9.83783 3.08682 9.83276ZM5.54386 9.83276C5.66513 9.83293 5.78363 9.8691 5.88438 9.93668C5.98513 10.0043 6.06361 10.1002 6.1099 10.2125C6.15619 10.3247 6.16821 10.4481 6.14444 10.5672C6.12068 10.6863 6.06219 10.7956 5.97637 10.8814C5.89056 10.9672 5.78126 11.0256 5.6623 11.0492C5.54335 11.0728 5.42006 11.0606 5.30804 11.0141C5.19601 10.9676 5.10027 10.8889 5.03291 10.7879C4.96555 10.687 4.9296 10.5683 4.9296 10.4469C4.9296 10.3661 4.94549 10.2862 4.97637 10.2116C5.00725 10.1371 5.05251 10.0693 5.10956 10.0123C5.16661 9.95527 5.23434 9.91006 5.30886 9.87925C5.38338 9.84844 5.46323 9.83264 5.54386 9.83276ZM8 9.83276C8.12221 9.82904 8.24275 9.86193 8.34619 9.92721C8.44963 9.99248 8.53125 10.0872 8.58062 10.1992C8.62998 10.3112 8.64483 10.4354 8.62328 10.5559C8.60172 10.6764 8.54474 10.7877 8.45963 10.8756C8.37451 10.9635 8.26513 11.0239 8.1455 11.0492C8.02586 11.0745 7.90141 11.0634 7.78808 11.0175C7.67475 10.9715 7.5777 10.8928 7.50934 10.7913C7.44098 10.6898 7.40444 10.5702 7.40438 10.4477C7.40453 10.2879 7.46676 10.1344 7.5779 10.0196C7.68905 9.90483 7.84042 9.83783 8 9.83276ZM10.4561 9.83276C10.5784 9.82904 10.6989 9.86193 10.8023 9.92721C10.9058 9.99248 10.9874 10.0872 11.0368 10.1992C11.0861 10.3112 11.101 10.4354 11.0794 10.5559C11.0579 10.6764 11.0009 10.7877 10.9158 10.8756C10.8307 10.9635 10.7213 11.0239 10.6016 11.0492C10.482 11.0745 10.3576 11.0634 10.2442 11.0175C10.1309 10.9715 10.0338 10.8928 9.96548 10.7913C9.89713 10.6898 9.86058 10.5702 9.86053 10.4477C9.86068 10.2879 9.9229 10.1344 10.034 10.0196C10.1452 9.90483 10.2966 9.83783 10.4561 9.83276ZM12.9123 9.83276C13.0346 9.82886 13.1552 9.86162 13.2588 9.92682C13.3624 9.99203 13.4441 10.0867 13.4936 10.1987C13.5431 10.3108 13.558 10.435 13.5365 10.5556C13.515 10.6762 13.458 10.7876 13.3728 10.8755C13.2876 10.9635 13.1782 11.024 13.0585 11.0492C12.9388 11.0745 12.8142 11.0634 12.7009 11.0173C12.5875 10.9713 12.4904 10.8924 12.4222 10.7907C12.3539 10.6891 12.3174 10.5694 12.3176 10.4469C12.3177 10.2872 12.3798 10.1339 12.4908 10.0193C12.6018 9.90474 12.7529 9.83783 12.9123 9.83276ZM5.54386 7.37635C5.66517 7.37635 5.78376 7.41236 5.88463 7.47984C5.98549 7.54732 6.06411 7.64323 6.11054 7.75544C6.15696 7.86765 6.16911 7.99113 6.14544 8.11025C6.12177 8.22938 6.06336 8.3388 5.97757 8.42468C5.89179 8.51057 5.7825 8.56906 5.66352 8.59275C5.54454 8.61645 5.42121 8.60429 5.30913 8.55781C5.19705 8.51133 5.10125 8.43261 5.03386 8.33162C4.96646 8.23064 4.93049 8.11191 4.93049 7.99045C4.93049 7.9098 4.94635 7.82995 4.97717 7.75544C5.008 7.68093 5.05318 7.61324 5.11014 7.55621C5.16709 7.49919 5.23471 7.45395 5.30913 7.42309C5.38355 7.39223 5.46331 7.37635 5.54386 7.37635ZM8 7.37635C8.12248 7.37102 8.24376 7.40252 8.34821 7.46678C8.45267 7.53104 8.53553 7.62513 8.58613 7.73693C8.63673 7.84873 8.65275 7.97313 8.63215 8.09413C8.61154 8.21513 8.55524 8.32719 8.47049 8.41588C8.38574 8.50458 8.27642 8.56586 8.1566 8.59183C8.03678 8.6178 7.91193 8.60728 7.79813 8.56162C7.68433 8.51596 7.58678 8.43725 7.51803 8.33562C7.44929 8.23398 7.41249 8.11408 7.41237 7.99134C7.41244 7.83281 7.47356 7.68042 7.58302 7.56587C7.69247 7.45132 7.84182 7.38344 8 7.37635ZM10.4561 7.37635C10.5786 7.37102 10.6999 7.40252 10.8044 7.46678C10.9088 7.53104 10.9917 7.62513 11.0423 7.73693C11.0929 7.84873 11.1089 7.97313 11.0883 8.09413C11.0677 8.21513 11.0114 8.32719 10.9266 8.41588C10.8419 8.50458 10.7326 8.56586 10.6127 8.59183C10.4929 8.6178 10.3681 8.60728 10.2543 8.56162C10.1405 8.51596 10.0429 8.43725 9.97418 8.33562C9.90543 8.23398 9.86863 8.11408 9.86852 7.99134C9.86859 7.83281 9.92971 7.68042 10.0392 7.56587C10.1486 7.45132 10.298 7.38344 10.4561 7.37635ZM12.9123 7.37635C13.0336 7.37635 13.1521 7.41234 13.253 7.47978C13.3538 7.54722 13.4324 7.64308 13.4789 7.75524C13.5253 7.8674 13.5375 7.99083 13.5139 8.10993C13.4903 8.22903 13.432 8.33845 13.3463 8.42437C13.2606 8.51029 13.1514 8.56885 13.0325 8.59264C12.9136 8.61644 12.7903 8.6044 12.6782 8.55806C12.5661 8.51172 12.4702 8.43314 12.4027 8.33227C12.3352 8.2314 12.2991 8.11276 12.2989 7.99134C12.2988 7.91062 12.3146 7.83067 12.3454 7.75606C12.3761 7.68145 12.4213 7.61365 12.4783 7.55653C12.5352 7.49941 12.6029 7.45409 12.6774 7.42318C12.7518 7.39226 12.8317 7.37635 12.9123 7.37635Z" fill="#0E2339"/>
</svg>
