<svg version="1.1" id="Layer_1" xmlns="http://www.w3.org/2000/svg" xmlns:xlink="http://www.w3.org/1999/xlink" x="0px" y="0px"
	 width="100%" viewBox="0 0 513 513" enable-background="new 0 0 513 513" xml:space="preserve">
<path fill="#DBDBDB" opacity="1.000000" stroke="none" 
	d="
M343.000000,514.000000 
	C230.194031,514.000000 117.888046,513.981323 5.582173,514.084778 
	C1.987955,514.088074 0.890811,513.521362 0.893705,509.584198 
	C1.017298,341.458588 1.016247,173.332870 0.894519,5.207262 
	C0.891825,1.486866 1.799084,0.910363 5.290796,0.912444 
	C173.416443,1.012668 341.542145,1.010801 509.667816,0.922779 
	C513.041077,0.921013 514.117126,1.327727 514.114075,5.165864 
	C513.981873,173.458084 513.985474,341.750427 514.099609,510.042694 
	C514.101990,513.550720 513.292175,514.098389 509.958984,514.090759 
	C454.472900,513.963379 398.986389,514.000000 343.000000,514.000000 
z"/>
<path fill="#FFFFFF" opacity="1.000000" stroke="none" 
	d="
M257.003052,89.999451 
	C298.249115,89.868599 334.354401,103.186455 365.365417,129.190613 
	C398.838898,157.259659 418.715027,193.349304 423.947357,236.921997 
	C425.988403,253.918991 425.420532,270.865814 422.462128,287.976776 
	C417.868622,314.544922 407.536987,338.322998 391.216492,359.414185 
	C364.725006,393.649445 330.287170,415.297241 287.409790,423.181213 
	C243.171600,431.315369 202.244324,422.480682 165.012238,398.072845 
	C134.735931,378.224915 113.107780,350.872131 99.992599,316.814911 
	C90.498779,292.161530 87.983147,266.576233 90.308792,240.759201 
	C93.221474,208.425522 105.371323,179.327682 125.676453,153.732925 
	C145.862991,128.287643 171.365463,110.306717 201.768051,99.341362 
	C219.387527,92.986519 237.684265,89.738617 257.003052,89.999451 
z"/>
<path fill="#DBDBDB" opacity="1.000000" stroke="none" 
	d="
M212.442963,124.347343 
	C224.645676,120.789574 236.603104,118.736343 248.982971,117.753273 
	C278.482300,115.410751 305.423645,122.544090 330.339050,137.669983 
	C364.487396,158.401077 386.343048,188.539795 394.779877,227.542618 
	C404.064789,270.466003 395.005585,309.687897 368.041656,344.592743 
	C365.596130,347.758484 363.173004,352.667969 359.868866,352.696075 
	C356.859863,352.721649 355.657623,347.030914 353.617249,343.899384 
	C335.890686,316.693237 310.985626,299.816132 279.342560,293.434052 
	C244.242340,286.354645 212.902313,295.375458 184.993729,317.414062 
	C173.301788,326.646881 164.476364,338.207550 157.140350,350.990936 
	C155.419846,353.989014 154.758545,353.886993 152.417419,351.313995 
	C134.203094,331.295685 122.777428,307.820435 118.538033,281.330627 
	C114.405136,255.506256 116.554108,229.974976 126.743790,205.443375 
	C140.320358,172.757858 162.858261,148.363159 194.157013,132.065674 
	C199.889587,129.080673 206.088104,126.990524 212.442963,124.347343 
z"/>
<path fill="#FFFFFF" opacity="1.000000" stroke="none" 
	d="
M197.013000,222.742905 
	C196.013000,203.842346 201.610962,187.861053 214.760010,174.719086 
	C235.057617,154.432373 266.278839,151.074844 290.333710,166.916885 
	C311.038696,180.552734 320.281097,200.457428 317.548096,224.638947 
	C314.569244,250.995483 296.242249,270.480194 271.573334,276.613129 
	C238.627777,284.803650 203.974609,262.441772 197.963837,229.104660 
	C197.610901,227.147247 197.333023,225.176300 197.013000,222.742905 
z"/>
</svg>