<svg xmlns="http://www.w3.org/2000/svg" width="21.053" height="23.398" viewBox="0 0 21.053 23.398">
  <path id="gift" d="M20.544,7.849h-.409a4.035,4.035,0,0,0,.409-1.754,4.082,4.082,0,0,0-7.018-2.854A4.082,4.082,0,0,0,6.509,6.094a4.035,4.035,0,0,0,.409,1.754H6.509A3.509,3.509,0,0,0,3,11.358V13.7a1.17,1.17,0,0,0,1.17,1.17h1.17v7.018a3.509,3.509,0,0,0,3.509,3.509H18.2a3.509,3.509,0,0,0,3.509-3.509V14.866h1.17a1.17,1.17,0,0,0,1.17-1.17V11.358A3.509,3.509,0,0,0,20.544,7.849Zm-8.187,15.2H8.848a1.17,1.17,0,0,1-1.17-1.17V14.866h4.678Zm0-10.526H5.339v-1.17a1.17,1.17,0,0,1,1.17-1.17h5.848Zm0-4.678H10.6a1.754,1.754,0,1,1,1.754-1.754ZM14.7,6.094A1.754,1.754,0,1,1,16.45,7.849H14.7Zm4.678,15.789a1.17,1.17,0,0,1-1.17,1.17H14.7V14.866h4.678Zm2.339-9.357H14.7V10.188h5.848a1.17,1.17,0,0,1,1.17,1.17Z" transform="translate(-3 -1.995)" fill="#fff"/>
</svg>
