<svg xmlns="http://www.w3.org/2000/svg" xmlns:xlink="http://www.w3.org/1999/xlink" width="32" height="32" viewBox="0 0 32 32">
  <defs>
    <radialGradient id="radial-gradient" cx="1" cy="1" r="1.199" gradientUnits="objectBoundingBox">
      <stop offset="0" stop-color="#fcb742"/>
      <stop offset="1" stop-color="#fff"/>
    </radialGradient>
  </defs>
  <g id="Group_126867" data-name="Group 126867" transform="translate(13 -576)">
    <circle id="Ellipse_148" data-name="Ellipse 148" cx="16" cy="16" r="16" transform="translate(-13 576)" opacity="0.3" fill="url(#radial-gradient)"/>
    <path id="gift" d="M16.5,6.5h-.315a3.1,3.1,0,0,0,.315-1.35,3.14,3.14,0,0,0-5.4-2.2,3.14,3.14,0,0,0-5.4,2.2A3.1,3.1,0,0,0,6.014,6.5H5.7A2.7,2.7,0,0,0,3,9.2V11a.9.9,0,0,0,.9.9h.9v5.4a2.7,2.7,0,0,0,2.7,2.7h7.2a2.7,2.7,0,0,0,2.7-2.7V11.9h.9a.9.9,0,0,0,.9-.9V9.2A2.7,2.7,0,0,0,16.5,6.5ZM10.2,18.2H7.5a.9.9,0,0,1-.9-.9V11.9h3.6Zm0-8.1H4.8V9.2a.9.9,0,0,1,.9-.9h4.5Zm0-3.6H8.848a1.35,1.35,0,1,1,1.35-1.35ZM12,5.149a1.35,1.35,0,1,1,1.35,1.35H12ZM15.6,17.3a.9.9,0,0,1-.9.9H12V11.9h3.6Zm1.8-7.2H12V8.3h4.5a.9.9,0,0,1,.9.9Z" transform="translate(-8.098 581.005)" fill="#ef5862"/>
  </g>
</svg>
