<svg width="32" height="22" viewBox="0 0 32 22" fill="none" xmlns="http://www.w3.org/2000/svg">
<path d="M31.9389 6.42709C31.9266 6.40961 31.9127 6.39323 31.8972 6.3782C27.6508 2.26519 22.0051 0 16 0C9.99527 0 4.35004 2.26471 0.103897 6.37732C0.0379082 6.44076 0 6.52759 0 6.61884C0 6.709 0.0369254 6.7955 0.102844 6.85928L2.42739 9.11094C2.49324 9.17472 2.58246 9.21048 2.67555 9.21048C2.76863 9.21048 2.85793 9.17465 2.9237 9.11094C6.42221 5.72203 11.0661 3.85578 16 3.85578C20.9338 3.85578 25.5777 5.72209 29.0763 9.11087C29.1421 9.17465 29.2314 9.21042 29.3244 9.21042C29.4175 9.21042 29.5068 9.17458 29.5725 9.11087L31.8971 6.85921C31.9629 6.79543 31.9999 6.709 31.9999 6.61877C32.0001 6.55044 31.9787 6.48366 31.9389 6.42709Z" fill="#13BF45"/>
<path d="M16 5.95464C11.6436 5.95464 7.54354 7.60227 4.45494 10.594C4.31791 10.7268 4.31791 10.9421 4.45501 11.0748L6.77232 13.3193C6.83817 13.3831 6.9274 13.419 7.02048 13.419C7.11357 13.419 7.20286 13.3831 7.26864 13.3193C9.6047 11.0566 12.7055 9.81035 16 9.81035C19.2945 9.81035 22.3953 11.0566 24.7312 13.3193C24.797 13.3831 24.8863 13.419 24.9794 13.419C25.0725 13.419 25.1618 13.3831 25.2276 13.3193L27.545 11.0748C27.6108 11.011 27.6478 10.9246 27.6478 10.8344C27.6478 10.7442 27.611 10.6577 27.545 10.5939C24.4564 7.60234 20.3563 5.95464 16 5.95464Z" fill="#13BF45"/>
<path d="M16 11.9094C13.2832 11.9094 10.7261 12.9368 8.79999 14.8026C8.73407 14.8664 8.69714 14.9528 8.69714 15.0431C8.69714 15.1333 8.734 15.2197 8.79999 15.2835L11.1173 17.528C11.1831 17.5918 11.2724 17.6277 11.3655 17.6277C11.4585 17.6277 11.5478 17.5918 11.6136 17.528C12.7873 16.3912 14.345 15.7652 16 15.7652C17.655 15.7652 19.2129 16.3913 20.3865 17.528C20.4523 17.5918 20.5416 17.6277 20.6346 17.6277C20.7276 17.6277 20.817 17.5918 20.8827 17.528L23.2001 15.2835C23.3371 15.1507 23.3371 14.9354 23.2001 14.8027C21.274 12.9368 18.7169 11.9094 16 11.9094Z" fill="#13BF45"/>
<path d="M15.9999 18.2189C15.0508 18.2189 14.1587 18.5768 13.4879 19.2267C13.3509 19.3595 13.3509 19.5747 13.488 19.7075L15.7518 21.9004C15.8176 21.9642 15.9069 22 15.9999 22C16.093 22 16.1824 21.9642 16.2481 21.9004L18.5119 19.7075C18.649 19.5747 18.649 19.3595 18.5119 19.2267C17.8411 18.5768 16.949 18.2189 15.9999 18.2189Z" fill="#13BF45"/>
</svg>
