<svg width="24" height="24" viewBox="0 0 24 24" fill="none" xmlns="http://www.w3.org/2000/svg">
<path d="M7.50004 22.5525C6.30377 22.55 5.135 22.1935 4.14098 21.5279C3.14696 20.8623 2.37218 19.9174 1.91424 18.8123C1.4563 17.7071 1.33569 16.4912 1.56762 15.3176C1.79955 14.144 2.37363 13.0654 3.21754 12.2175L12.5925 2.84248C13.4583 2.16879 14.5403 1.83455 15.6352 1.90259C16.7301 1.97063 17.7624 2.43626 18.5381 3.21195C19.3138 3.98763 19.7794 5.01995 19.8474 6.11483C19.9155 7.2097 19.5812 8.29172 18.9075 9.15748L10.2825 17.7825C9.74349 18.3215 9.01238 18.6244 8.25004 18.6244C7.48771 18.6244 6.75659 18.3215 6.21754 17.7825C5.67849 17.2434 5.37565 16.5123 5.37565 15.75C5.37565 14.9876 5.67849 14.2565 6.21754 13.7175L11.4675 8.46748C11.6088 8.32625 11.8003 8.24691 12 8.24691C12.1998 8.24691 12.3913 8.32625 12.5325 8.46748C12.6738 8.60871 12.7531 8.80025 12.7531 8.99998C12.7531 9.19971 12.6738 9.39125 12.5325 9.53248L7.28254 14.7825C7.02595 15.0391 6.88179 15.3871 6.88179 15.75C6.88179 16.1129 7.02595 16.4609 7.28254 16.7175C7.53914 16.9741 7.88716 17.1182 8.25004 17.1182C8.61292 17.1182 8.96094 16.9741 9.21754 16.7175L17.8425 8.09248C18.3553 7.52925 18.6314 6.79017 18.6135 6.02873C18.5956 5.26728 18.2852 4.54197 17.7466 4.00339C17.2081 3.46482 16.4827 3.15437 15.7213 3.13651C14.9598 3.11865 14.2208 3.39475 13.6575 3.90748L4.28254 13.2825C3.83785 13.6999 3.48159 14.2025 3.2349 14.7603C2.98822 15.3182 2.85614 15.9199 2.84651 16.5297C2.83689 17.1396 2.94991 17.7452 3.17887 18.3105C3.40783 18.8758 3.74805 19.3894 4.17934 19.8207C4.61063 20.252 5.12419 20.5922 5.68952 20.8212C6.25486 21.0501 6.86043 21.1631 7.47029 21.1535C8.08015 21.1439 8.68186 21.0118 9.23969 20.7651C9.79751 20.5184 10.3001 20.1622 10.7175 19.7175L18.9675 11.4675C19.1088 11.3263 19.3003 11.2469 19.5 11.2469C19.6998 11.2469 19.8913 11.3263 20.0325 11.4675C20.1738 11.6087 20.2531 11.8003 20.2531 12C20.2531 12.1997 20.1738 12.3913 20.0325 12.5325L11.7825 20.7825C11.2217 21.3467 10.5543 21.7937 9.81906 22.0976C9.08385 22.4015 8.29556 22.5561 7.50004 22.5525Z" fill="#0E2339" fill-opacity="0.5"/>
</svg>
