<svg width="11" height="13" viewBox="0 0 11 13" fill="none" xmlns="http://www.w3.org/2000/svg">
<path d="M8.75488 0.663079H2.50488C1.85522 0.650215 1.22701 0.895753 0.758254 1.34576C0.2895 1.79576 0.0185358 2.41343 0.00488281 3.06308V10.2631C0.0185358 10.9127 0.2895 11.5304 0.758254 11.9804C1.22701 12.4304 1.85522 12.6759 2.50488 12.6631H8.75488C9.07972 12.6695 9.39382 12.5467 9.6282 12.3217C9.86257 12.0967 9.99806 11.7879 10.0049 11.4631V1.86308C9.99806 1.53825 9.86257 1.22942 9.6282 1.00442C9.39382 0.779416 9.07972 0.656647 8.75488 0.663079ZM1.25488 3.06308C1.26171 2.73825 1.39719 2.42942 1.63157 2.20442C1.86594 1.97942 2.18005 1.85665 2.50488 1.86308H8.75488V7.86308H2.50488C2.06607 7.86438 1.63521 7.9802 1.25488 8.19908V3.06308ZM2.50488 11.4631C2.18662 11.4631 1.8814 11.3366 1.65635 11.1116C1.43131 10.8866 1.30488 10.5813 1.30488 10.2631C1.30488 9.94482 1.43131 9.63959 1.65635 9.41455C1.8814 9.18951 2.18662 9.06308 2.50488 9.06308H8.75488V11.4631H2.50488ZM3.75488 4.26308H6.25488C6.41401 4.26308 6.56663 4.19986 6.67915 4.08734C6.79167 3.97482 6.85488 3.82221 6.85488 3.66308C6.85488 3.50395 6.79167 3.35134 6.67915 3.23881C6.56663 3.12629 6.41401 3.06308 6.25488 3.06308H3.75488C3.59575 3.06308 3.44314 3.12629 3.33062 3.23881C3.2181 3.35134 3.15488 3.50395 3.15488 3.66308C3.15488 3.82221 3.2181 3.97482 3.33062 4.08734C3.44314 4.19986 3.59575 4.26308 3.75488 4.26308Z" fill="#0E2339"/>
</svg>
