<svg width="48" height="48" viewBox="0 0 48 48" fill="none" xmlns="http://www.w3.org/2000/svg">
<path d="M14.069 23.172V21.5168C14.069 21.2973 13.9818 21.0868 13.8266 20.9316C13.6714 20.7764 13.4609 20.6892 13.2414 20.6892H4.96553C4.74604 20.6892 4.53554 20.7764 4.38033 20.9316C4.22513 21.0868 4.13794 21.2973 4.13794 21.5168V23.172C4.13938 23.6842 4.29922 24.1834 4.59554 24.6013C4.89187 25.0191 5.31017 25.335 5.79311 25.5058V36.5623C5.31017 36.7331 4.89187 37.049 4.59554 37.4668C4.29922 37.8846 4.13938 38.3839 4.13794 38.8961V40.5513C4.13794 40.7708 4.22513 40.9813 4.38033 41.1365C4.53554 41.2917 4.74604 41.3789 4.96553 41.3789H13.2414C13.4609 41.3789 13.6714 41.2917 13.8266 41.1365C13.9818 40.9813 14.069 40.7708 14.069 40.5513V38.8961C14.0675 38.3839 13.9077 37.8846 13.6114 37.4668C13.315 37.049 12.8967 36.7331 12.4138 36.5623V25.5058C12.8967 25.335 13.315 25.0191 13.6114 24.6013C13.9077 24.1834 14.0675 23.6842 14.069 23.172ZM28.9655 23.172V21.5168C28.9655 21.2973 28.8783 21.0868 28.7231 20.9316C28.5679 20.7764 28.3574 20.6892 28.1379 20.6892H19.8621C19.6426 20.6892 19.4321 20.7764 19.2769 20.9316C19.1217 21.0868 19.0345 21.2973 19.0345 21.5168V23.172C19.0359 23.6842 19.1958 24.1834 19.4921 24.6013C19.7884 25.0191 20.2067 25.335 20.6897 25.5058V36.5623C20.2067 36.7331 19.7884 37.049 19.4921 37.4668C19.1958 37.8846 19.0359 38.3839 19.0345 38.8961V40.5513C19.0345 40.7708 19.1217 40.9813 19.2769 41.1365C19.4321 41.2917 19.6426 41.3789 19.8621 41.3789H28.1379C28.3574 41.3789 28.5679 41.2917 28.7231 41.1365C28.8783 40.9813 28.9655 40.7708 28.9655 40.5513V38.8961C28.9641 38.3839 28.8042 37.8846 28.5079 37.4668C28.2116 37.049 27.7933 36.7331 27.3104 36.5623V25.5058C27.7933 25.335 28.2116 25.0191 28.5079 24.6013C28.8042 24.1834 28.9641 23.6842 28.9655 23.172ZM43.8621 23.172V21.5168C43.8621 21.2973 43.7749 21.0868 43.6197 20.9316C43.4645 20.7764 43.254 20.6892 43.0345 20.6892H34.7586C34.5391 20.6892 34.3286 20.7764 34.1734 20.9316C34.0182 21.0868 33.931 21.2973 33.931 21.5168V23.172C33.9325 23.6842 34.0923 24.1834 34.3886 24.6013C34.685 25.0191 35.1033 25.335 35.5862 25.5058V36.5623C35.1033 36.7331 34.685 37.049 34.3886 37.4668C34.0923 37.8846 33.9325 38.3839 33.931 38.8961V40.5513C33.931 40.7708 34.0182 40.9813 34.1734 41.1365C34.3286 41.2917 34.5391 41.3789 34.7586 41.3789H43.0345C43.254 41.3789 43.4645 41.2917 43.6197 41.1365C43.7749 40.9813 43.8621 40.7708 43.8621 40.5513V38.8961C43.8606 38.3839 43.7008 37.8846 43.4045 37.4668C43.1081 37.049 42.6898 36.7331 42.2069 36.5623V25.5058C42.6898 25.335 43.1081 25.0191 43.4045 24.6013C43.7008 24.1834 43.8606 23.6842 43.8621 23.172Z" fill="#D7E9F7"/>
<path d="M44.3833 15.0865L27.4592 1.23267C26.4826 0.435443 25.2606 0 23.9999 0C22.7392 0 21.5172 0.435443 20.5406 1.23267L3.61643 15.0865C3.48412 15.1944 3.38844 15.3406 3.34251 15.5051C3.29658 15.6696 3.30265 15.8442 3.35988 16.0051C3.41771 16.165 3.52341 16.3033 3.66261 16.401C3.8018 16.4988 3.96773 16.5512 4.13781 16.5513H43.8619C44.032 16.5512 44.198 16.4988 44.3372 16.401C44.4763 16.3033 44.5821 16.165 44.6399 16.0051C44.6971 15.8442 44.7032 15.6696 44.6572 15.5051C44.6113 15.3406 44.5156 15.1944 44.3833 15.0865Z" fill="url(#paint0_linear_939_2965)"/>
<path d="M44.6897 14.8962H3.3104C1.93921 14.8962 0.827637 16.0078 0.827637 17.379V19.8618C0.827637 21.2329 1.93921 22.3445 3.3104 22.3445H44.6897C46.0609 22.3445 47.1725 21.2329 47.1725 19.8618V17.379C47.1725 16.0078 46.0609 14.8962 44.6897 14.8962Z" fill="url(#paint1_linear_939_2965)"/>
<path d="M24.3144 7.44799H23.4868C23.3771 7.44799 23.2718 7.40439 23.1942 7.32679C23.1166 7.24919 23.073 7.14394 23.073 7.0342C23.073 6.92445 23.1166 6.8192 23.1942 6.7416C23.2718 6.664 23.3771 6.6204 23.4868 6.6204H25.6551C25.8746 6.6204 26.0851 6.53321 26.2403 6.37801C26.3955 6.22281 26.4827 6.01231 26.4827 5.79282C26.4827 5.57333 26.3955 5.36283 26.2403 5.20763C26.0851 5.05242 25.8746 4.96523 25.6551 4.96523H24.8275V4.13764C24.8275 3.91816 24.7403 3.70766 24.5851 3.55245C24.4299 3.39725 24.2194 3.31006 23.9999 3.31006C23.7804 3.31006 23.5699 3.39725 23.4147 3.55245C23.2595 3.70766 23.1723 3.91816 23.1723 4.13764V4.96523C22.6236 5.00693 22.1139 5.26491 21.7554 5.6824C21.3969 6.0999 21.2189 6.64271 21.2606 7.19144C21.3023 7.74016 21.5603 8.24984 21.9778 8.60836C22.3953 8.96688 22.9381 9.14487 23.4868 9.10316H24.3144C24.4241 9.10316 24.5294 9.14676 24.607 9.22436C24.6846 9.30196 24.7282 9.40721 24.7282 9.51695C24.7282 9.6267 24.6846 9.73195 24.607 9.80955C24.5294 9.88715 24.4241 9.93075 24.3144 9.93075H22.3447C22.1253 9.93075 21.9148 10.0179 21.7596 10.1731C21.6044 10.3283 21.5172 10.5388 21.5172 10.7583C21.5172 10.9778 21.6044 11.1883 21.7596 11.3435C21.9148 11.4987 22.1253 11.5859 22.3447 11.5859H23.1723V12.4135C23.1723 12.633 23.2595 12.8435 23.4147 12.9987C23.5699 13.1539 23.7804 13.2411 23.9999 13.2411C24.2194 13.2411 24.4299 13.1539 24.5851 12.9987C24.7403 12.8435 24.8275 12.633 24.8275 12.4135V11.5114C25.3201 11.3923 25.7515 11.0959 26.0393 10.6788C26.3271 10.2616 26.4511 9.7531 26.3876 9.25032C26.3241 8.74754 26.0776 8.28579 25.6951 7.9533C25.3127 7.62082 24.8211 7.44092 24.3144 7.44799Z" fill="#F0F7FC"/>
<path d="M43.8621 39.7236H4.13793C3.04048 39.7236 1.98798 40.1596 1.21197 40.9356C0.435959 41.7116 0 42.7641 0 43.8616V47.1719C0 47.3914 0.0871918 47.6019 0.242394 47.7571C0.397597 47.9123 0.608097 47.9995 0.827586 47.9995H47.1724C47.3919 47.9995 47.6024 47.9123 47.7576 47.7571C47.9128 47.6019 48 47.3914 48 47.1719V43.8616C48 42.7641 47.564 41.7116 46.788 40.9356C46.012 40.1596 44.9595 39.7236 43.8621 39.7236Z" fill="url(#paint2_linear_939_2965)"/>
<defs>
<linearGradient id="paint0_linear_939_2965" x1="13.4813" y1="26.2423" x2="34.5185" y2="5.20509" gradientUnits="userSpaceOnUse">
<stop stop-color="#54A5FF"/>
<stop offset="1" stop-color="#8AD3FE"/>
</linearGradient>
<linearGradient id="paint1_linear_939_2965" x1="24" y1="22.3445" x2="24" y2="14.8962" gradientUnits="userSpaceOnUse">
<stop stop-color="#54A5FF"/>
<stop offset="1" stop-color="#8AD3FE"/>
</linearGradient>
<linearGradient id="paint2_linear_939_2965" x1="24" y1="47.9995" x2="24" y2="39.7236" gradientUnits="userSpaceOnUse">
<stop stop-color="#54A5FF"/>
<stop offset="1" stop-color="#8AD3FE"/>
</linearGradient>
</defs>
</svg>
