<svg width="16" height="16" viewBox="0 0 16 16" fill="none" xmlns="http://www.w3.org/2000/svg">
<path d="M8 0C6.41775 0 4.87103 0.469192 3.55544 1.34824C2.23985 2.22729 1.21447 3.47672 0.608967 4.93853C0.00346623 6.40034 -0.15496 8.00887 0.153721 9.56072C0.462403 11.1126 1.22433 12.538 2.34315 13.6569C3.46197 14.7757 4.88743 15.5376 6.43928 15.8463C7.99113 16.155 9.59966 15.9965 11.0615 15.391C12.5233 14.7855 13.7727 13.7602 14.6518 12.4446C15.5308 11.129 16 9.58225 16 8C16 5.87827 15.1571 3.84344 13.6569 2.34315C12.1566 0.842854 10.1217 0 8 0ZM8 14.8969C6.63593 14.8969 5.30248 14.4924 4.1683 13.7346C3.03411 12.9767 2.15012 11.8996 1.62811 10.6393C1.1061 9.37908 0.969519 7.99235 1.23564 6.65448C1.50175 5.31662 2.15862 4.08771 3.12317 3.12316C4.08771 2.15862 5.31662 1.50175 6.65449 1.23563C7.99235 0.969515 9.37909 1.1061 10.6393 1.62811C11.8996 2.15011 12.9767 3.03411 13.7346 4.16829C14.4924 5.30248 14.8969 6.63592 14.8969 8C14.8969 9.82917 14.1703 11.5834 12.8768 12.8768C11.5834 14.1703 9.82917 14.8969 8 14.8969Z" fill="#0E2339"/>
<path d="M11.586 7.44801H8.55131V3.31023C8.55429 3.23594 8.54223 3.16181 8.51586 3.09229C8.48949 3.02277 8.44934 2.95929 8.39783 2.90567C8.34632 2.85205 8.28451 2.80939 8.2161 2.78025C8.14769 2.75111 8.07411 2.73608 7.99975 2.73608C7.9254 2.73608 7.85181 2.75111 7.78341 2.78025C7.715 2.80939 7.65319 2.85205 7.60168 2.90567C7.55017 2.95929 7.51002 3.02277 7.48365 3.09229C7.45727 3.16181 7.44522 3.23594 7.4482 3.31023V8.00267C7.4482 8.14907 7.50636 8.28948 7.60988 8.393C7.7134 8.49652 7.8538 8.55467 8.0002 8.55467H11.586C11.7284 8.54895 11.8631 8.48834 11.9619 8.38553C12.0607 8.28272 12.1158 8.14568 12.1158 8.00312C12.1158 7.86055 12.0607 7.72352 11.9619 7.62071C11.8631 7.51789 11.7284 7.45728 11.586 7.45156V7.44801Z" fill="#0E2339"/>
</svg>
