<svg width="128" height="128" viewBox="0 0 128 128" fill="none" xmlns="http://www.w3.org/2000/svg">
<circle cx="64" cy="64" r="64" fill="#FDD48E"/>
<path d="M77.575 74.6374C77.2875 74.2499 76.975 73.8749 76.6625 73.4999C75.5362 71.9256 74.0081 70.6823 72.2375 69.8999H72.225C72.2689 71.5068 72.5296 73.1003 73 74.6374C73.4797 76.06 73.4577 77.6041 72.9375 79.0124C72.5 80.1874 72 81.4249 71.475 82.7249C71.475 82.7282 71.4737 82.7314 71.4713 82.7337C71.469 82.7361 71.4658 82.7374 71.4625 82.7374C68.775 89.2749 65.0875 96.9874 62.3375 102.212L62.35 102.437C62.5375 102.437 62.725 102.425 62.9125 102.412C63.35 102.387 63.7875 102.35 64.2375 102.325C77.2375 101.325 91.0125 97.2374 91.0125 92.3624C91 86.0624 84.6875 78.7374 77.575 74.6374ZM48.7875 78.3874C48.4783 78.7656 48.1983 79.1668 47.95 79.5874C42.5375 82.3374 37.6625 87.4999 36.0125 91.1749C35.05 93.3124 34.975 95.7999 36.8625 97.1999C38.8125 98.6374 42.8 100.912 49.9625 101.975C50.5625 102.062 51.1875 102.137 51.8375 102.212C50.125 92.8874 50.7 86.4499 52.5875 82.7374V82.7249C52.8757 82.1418 53.2279 81.5926 53.6375 81.0874C54.85 79.6124 55.2462 74.1286 54.9337 73.0661C52.6278 74.5191 50.5555 76.3132 48.7875 78.3874Z" fill="#1C9699"/>
<path d="M81.2124 56.0125C81.6543 52.6033 81.3437 49.1387 80.3024 45.8625C78.6387 40.6813 75.4624 32.2288 64.5124 30.3538C57.2799 29.115 48.0374 30.9788 45.0937 37.125C43.5799 40.285 42.5937 44.2863 43.6874 46C43.1749 49.2375 43.9999 51.975 44.0124 55C44.0249 61.85 45.4124 67.075 48.1124 70.0625C49.9201 71.8989 52.3482 72.9946 54.9212 73.135C55.2337 74.1975 54.8499 79.6125 53.6374 81.0875C53.2278 81.5927 52.8756 82.1419 52.5874 82.725V82.7375C51.7374 88.3125 67.9624 88.0125 71.4624 82.7375C71.4658 82.7375 71.4689 82.7362 71.4713 82.7338C71.4736 82.7315 71.4749 82.7283 71.4749 82.725C71.9999 81.425 72.4999 80.1875 72.9374 79.0125C73.4576 77.6042 73.4797 76.0601 72.9999 74.6375C72.5296 73.1004 72.2689 71.5069 72.2249 69.9C72.1812 68.6999 72.1978 67.4984 72.2749 66.3V66.2875C73.2096 65.1749 73.9225 63.8934 74.3749 62.5125C74.8468 62.935 75.4123 63.2392 76.0249 63.4C78.5499 63.95 80.6624 61.575 81.2249 59.05C81.4522 58.0498 81.4479 57.0108 81.2124 56.0125Z" fill="#FFBF94"/>
<path d="M82.8626 38.3751C85.3626 43.7376 83.0126 46.4626 81.3876 46.4376C82.6751 49.1751 82.8876 53.3751 81.2126 56.0126C81.0875 55.3014 80.7588 54.6417 80.2662 54.1136C79.7736 53.5856 79.1384 53.2118 78.4376 53.0376C77.8309 52.9411 77.2106 52.9748 76.6179 53.1364C76.0253 53.298 75.4738 53.5839 75.0001 53.9751C74.5273 54.3755 74.1258 54.8531 73.8126 55.3876C67.9501 55.6126 70.5126 45.2126 70.5126 45.2126C63.9501 44.5501 64.8376 40.8876 64.8376 38.3876C60.7376 40.9251 55.7751 40.4251 56.0876 37.6626C51.3876 42.0751 47.2501 41.6126 46.5376 39.7251H46.5251C44.9152 41.448 43.9179 43.6534 43.6876 46.0001C37.5001 43.5001 39.5251 37.7501 42.6001 36.2376C42.6001 36.2376 39.9001 34.9876 42.4376 32.3501C44.9876 29.6876 50.0751 29.6501 50.0751 29.6501C50.0751 29.6501 48.7501 29.4876 49.5876 27.9751C50.3751 26.5751 54.8001 25.9876 60.7501 26.0251C65.4126 26.0501 71.3001 28.7376 71.6751 28.9001C71.5501 28.7251 70.3876 27.1001 71.4126 26.3751C73.1251 25.1626 73.8126 28.8751 73.8126 28.8751C73.8126 28.8751 77.2501 27.6751 77.4251 29.6501C77.6001 31.5251 75.6501 30.9376 75.4376 30.8751C78.639 32.5331 81.2369 35.1572 82.8626 38.3751Z" fill="#934747"/>
<path d="M71.4624 82.7375C68.7749 89.275 62.3499 102.438 62.3499 102.438L61.5874 102.475C61.4249 102.488 61.2624 102.488 61.0999 102.488C58.0098 102.622 54.914 102.53 51.8374 102.213C50.1249 92.8875 50.6999 86.45 52.5874 82.7375C51.7374 88.3125 67.9624 88.0125 71.4624 82.7375Z" fill="#EDEAE8"/>
<path d="M52.5876 82.7374C50.7001 86.4499 50.1251 92.8874 51.8376 102.212C51.1876 102.137 50.5626 102.062 49.9626 101.975C47.4001 97.3499 45.9001 87.6249 46.3376 83.8499C46.5434 82.3248 47.095 80.8669 47.9501 79.5874C48.1985 79.1668 48.4784 78.7656 48.7876 78.3874C50.5557 76.3132 52.6279 74.5191 54.9339 73.0661C55.2464 74.1286 54.8501 79.6124 53.6376 81.0874C53.228 81.5926 52.8758 82.1418 52.5876 82.7249V82.7374ZM79.5876 79.3874C79.0751 83.1249 72.6626 93.2249 64.2376 102.325C63.7876 102.35 63.3501 102.387 62.9126 102.412C62.7251 102.425 62.5376 102.437 62.3501 102.437C62.3501 102.437 68.7751 89.2749 71.4626 82.7374C71.4659 82.7374 71.4691 82.7361 71.4714 82.7337C71.4738 82.7314 71.4751 82.7282 71.4751 82.7249C72.0001 81.4249 72.5001 80.1874 72.9376 79.0124C73.4578 77.6041 73.4799 76.06 73.0001 74.6374C72.5297 73.1003 72.269 71.5068 72.2251 69.8999H72.2376C74.0082 70.6823 75.5363 71.9256 76.6626 73.4999C76.9751 73.8749 77.2876 74.2499 77.5751 74.6374C78.8501 76.3624 79.7626 78.1499 79.5876 79.3874Z" fill="#32B7B3"/>
<path d="M68.7061 69.3388C69.0811 69.0888 69.9124 68.4876 70.1749 68.2876C70.9533 67.7085 71.6585 67.0369 72.2749 66.2876C72.1978 67.4902 72.1811 68.6959 72.2249 69.9001C72.2688 71.5069 72.5295 73.1005 72.9999 74.6376C73.4796 76.0602 73.4576 77.6043 72.9374 79.0126C72.4999 80.1876 71.9999 81.4251 71.4749 82.7251C71.4749 82.7284 71.4736 82.7316 71.4712 82.7339C71.4689 82.7363 71.4657 82.7376 71.4624 82.7376C67.9624 88.0126 51.7374 88.3126 52.5874 82.7376V82.7251C52.8756 82.142 53.2277 81.5928 53.6374 81.0876C54.8499 79.6126 55.2336 74.1976 54.9211 73.1351C55.7409 73.1804 56.5626 73.1804 57.3824 73.1351C59.0596 73.0661 60.7228 72.7993 62.3374 72.3401C64.5988 71.6648 66.7458 70.6531 68.7061 69.3388Z" fill="#FFA87D"/>
<path d="M54.8813 64.5851C54.6513 64.5851 54.42 64.5738 54.1838 64.5513C53.6203 64.5462 53.064 64.4246 52.5498 64.1939C52.0356 63.9633 51.5748 63.6288 51.1963 63.2113C51.15 63.1435 51.1175 63.0673 51.1007 62.9869C51.0838 62.9066 51.083 62.8237 51.0982 62.743C51.1134 62.6624 51.1444 62.5855 51.1893 62.5168C51.2342 62.4481 51.2922 62.3889 51.36 62.3426C51.4969 62.2491 51.6654 62.2138 51.8283 62.2445C51.909 62.2597 51.9859 62.2907 52.0546 62.3356C52.1233 62.3805 52.1825 62.4385 52.2288 62.5063C52.7945 63.0231 53.5337 63.3086 54.3 63.3063C54.8704 63.3956 55.453 63.3671 56.0119 63.2226C56.5709 63.0781 57.0943 62.8208 57.55 62.4663C57.6679 62.3525 57.8258 62.2895 57.9896 62.2909C58.1535 62.2923 58.3103 62.3581 58.4262 62.4739C58.542 62.5898 58.6078 62.7466 58.6092 62.9104C58.6106 63.0743 58.5476 63.2322 58.4338 63.3501C57.4543 64.2064 56.1807 64.6492 54.8813 64.5851ZM53.8675 59.8751C53.1366 59.8783 52.4338 59.5936 51.9113 59.0826C51.6764 58.8586 51.5162 58.5677 51.4524 58.2494C51.3887 57.9312 51.4245 57.601 51.555 57.3038C51.5862 57.2255 51.6328 57.1542 51.6922 57.0944C51.7516 57.0346 51.8225 56.9874 51.9006 56.9556C51.9787 56.9239 52.0624 56.9083 52.1467 56.9098C52.231 56.9112 52.3141 56.9297 52.3911 56.9642C52.468 56.9986 52.5372 57.0482 52.5945 57.1101C52.6517 57.172 52.6959 57.2448 52.7243 57.3241C52.7527 57.4035 52.7647 57.4878 52.7597 57.572C52.7547 57.6561 52.7327 57.7384 52.695 57.8138C52.67 57.8713 52.61 58.0051 52.8138 58.2176C53.022 58.4077 53.2783 58.5371 53.5548 58.5917C53.8314 58.6464 54.1177 58.6242 54.3825 58.5276C54.5367 58.4664 54.7088 58.469 54.8611 58.5347C55.0133 58.6005 55.1332 58.724 55.1944 58.8782C55.2556 59.0324 55.253 59.2045 55.1872 59.3567C55.1215 59.509 54.9979 59.6289 54.8438 59.6901C54.5328 59.8124 54.2017 59.8752 53.8675 59.8751Z" fill="#F77261"/>
<path d="M44.3752 48.2126C44.2619 48.2134 44.1507 48.1826 44.0539 48.1239C43.9835 48.0817 43.922 48.026 43.8731 47.9601C43.8242 47.8942 43.7887 47.8193 43.7688 47.7396C43.7488 47.66 43.7447 47.5772 43.7568 47.496C43.7688 47.4148 43.7967 47.3368 43.8389 47.2664C44.2942 46.6415 44.9764 46.2201 45.7389 46.0926C47.178 45.7421 48.6968 45.9578 49.9814 46.6951C50.122 46.7831 50.2218 46.9234 50.259 47.085C50.2961 47.2466 50.2675 47.4164 50.1795 47.557C50.0915 47.6975 49.9513 47.7974 49.7896 47.8345C49.628 47.8717 49.4582 47.8431 49.3177 47.7551C48.3173 47.1985 47.1441 47.0388 46.0314 47.3076C45.5963 47.3661 45.1968 47.5796 44.9064 47.9089C44.8513 48.0008 44.7735 48.077 44.6805 48.1302C44.5875 48.1834 44.4823 48.2118 44.3752 48.2126ZM63.8877 47.9501C63.7866 47.95 63.687 47.9254 63.5975 47.8784C63.5081 47.8313 63.4313 47.7633 63.3739 47.6801C62.9184 47.3737 62.3852 47.2029 61.8364 47.1876C60.5919 46.9466 59.3031 47.105 58.1539 47.6401C58.0912 47.6931 58.0187 47.7333 57.9404 47.7583C57.8622 47.7833 57.7798 47.7926 57.698 47.7857C57.6162 47.7789 57.5365 47.756 57.4635 47.7184C57.3905 47.6807 57.3257 47.6291 57.2727 47.5664C57.2196 47.5037 57.1795 47.4311 57.1545 47.3529C57.1295 47.2747 57.1202 47.1923 57.127 47.1105C57.1339 47.0286 57.1568 46.9489 57.1944 46.876C57.2321 46.803 57.2837 46.7381 57.3464 46.6851C58.2964 45.8814 60.4277 45.7426 61.9989 45.9489C62.8988 45.9791 63.7552 46.3431 64.4014 46.9701C64.4489 47.0378 64.4825 47.1143 64.5003 47.1951C64.5181 47.2759 64.5196 47.3594 64.5048 47.4408C64.4901 47.5222 64.4593 47.5998 64.4143 47.6692C64.3693 47.7386 64.3109 47.7984 64.2427 47.8451C64.138 47.916 64.014 47.9526 63.8877 47.9501Z" fill="#934747"/>
<path d="M76.0877 58.6749C76.0424 58.6746 75.9972 58.67 75.9527 58.6612C75.8721 58.6435 75.7958 58.6099 75.7282 58.5626C75.6606 58.5152 75.6031 58.4549 75.5589 58.3852C75.5147 58.3154 75.4848 58.2377 75.4709 58.1563C75.457 58.0749 75.4593 57.9916 75.4777 57.9112C75.6515 57.2849 76.0415 56.7404 76.5785 56.3743C77.1156 56.0081 77.765 55.8441 78.4114 55.9112C78.493 55.9209 78.5717 55.9467 78.6433 55.9869C78.7149 56.0271 78.7778 56.081 78.8285 56.1455C78.8793 56.2101 78.9168 56.284 78.9389 56.363C78.9611 56.442 78.9675 56.5247 78.9577 56.6062C78.9494 56.6882 78.9247 56.7678 78.8849 56.84C78.8451 56.9123 78.7912 56.9758 78.7263 57.0267C78.6613 57.0776 78.5868 57.1148 78.5072 57.1362C78.4275 57.1576 78.3444 57.1627 78.2627 57.1512C77.9249 57.125 77.5879 57.2117 77.3047 57.3976C77.0215 57.5836 76.808 57.8583 76.6977 58.1787C76.6682 58.3187 76.5916 58.4444 76.4805 58.5348C76.3695 58.6251 76.2308 58.6746 76.0877 58.6749Z" fill="#F77261"/>
<path d="M63.625 52.6251V53.3876C63.6433 53.5783 63.6214 53.7708 63.5609 53.9526C63.5005 54.1344 63.4026 54.3016 63.2738 54.4434C63.1449 54.5852 62.9878 54.6984 62.8126 54.776C62.6374 54.8535 62.4479 54.8935 62.2563 54.8935C62.0646 54.8935 61.8751 54.8535 61.6999 54.776C61.5247 54.6984 61.3676 54.5852 61.2387 54.4434C61.1099 54.3016 61.012 54.1344 60.9516 53.9526C60.8911 53.7708 60.8693 53.5783 60.8875 53.3876V52.6251C60.8693 52.4344 60.8911 52.2419 60.9516 52.0601C61.012 51.8783 61.1099 51.7111 61.2387 51.5693C61.3676 51.4275 61.5247 51.3142 61.6999 51.2367C61.8751 51.1592 62.0646 51.1191 62.2563 51.1191C62.4479 51.1191 62.6374 51.1592 62.8126 51.2367C62.9878 51.3142 63.1449 51.4275 63.2738 51.5693C63.4026 51.7111 63.5005 51.8783 63.5609 52.0601C63.6214 52.2419 63.6433 52.4344 63.625 52.6251ZM49.65 52.6376V53.4001C49.6682 53.5908 49.6464 53.7833 49.5859 53.9651C49.5255 54.1469 49.4276 54.3141 49.2988 54.4559C49.1699 54.5977 49.0128 54.7109 48.8376 54.7885C48.6624 54.866 48.4729 54.906 48.2812 54.906C48.0896 54.906 47.9001 54.866 47.7249 54.7885C47.5497 54.7109 47.3926 54.5977 47.2637 54.4559C47.1349 54.3141 47.037 54.1469 46.9766 53.9651C46.9161 53.7833 46.8943 53.5908 46.9125 53.4001V52.6376C46.8943 52.4469 46.9161 52.2544 46.9766 52.0726C47.037 51.8908 47.1349 51.7236 47.2637 51.5818C47.3926 51.44 47.5497 51.3267 47.7249 51.2492C47.9001 51.1717 48.0896 51.1316 48.2812 51.1316C48.4729 51.1316 48.6624 51.1717 48.8376 51.2492C49.0128 51.3267 49.1699 51.44 49.2988 51.5818C49.4276 51.7236 49.5255 51.8908 49.5859 52.0726C49.6464 52.2544 49.6682 52.4469 49.65 52.6376Z" fill="#B27757"/>
<path d="M45.0074 52.6939C44.8381 52.688 44.6778 52.616 44.5609 52.4933C44.4441 52.3706 44.38 52.207 44.3824 52.0376C44.3824 51.4714 44.8686 50.9126 45.7186 50.5051C46.3937 50.1516 47.1524 49.9887 47.9132 50.0341C48.6739 50.0795 49.4078 50.3313 50.0361 50.7626C50.1642 50.8669 50.2459 51.0176 50.2632 51.1819C50.2805 51.3461 50.232 51.5105 50.1285 51.6392C50.0249 51.7679 49.8746 51.8503 49.7105 51.8685C49.5463 51.8867 49.3816 51.8392 49.2524 51.7364C48.9201 51.5129 48.5426 51.3653 48.1468 51.3042C47.751 51.2431 47.3467 51.2698 46.9624 51.3826C46.4485 51.4672 45.9772 51.72 45.6224 52.1014C45.6223 52.181 45.6061 52.2599 45.5749 52.3332C45.5436 52.4065 45.498 52.4728 45.4406 52.5281C45.3832 52.5834 45.3153 52.6265 45.2408 52.655C45.1664 52.6835 45.087 52.6967 45.0074 52.6939ZM58.9999 52.6814C58.8307 52.6752 58.6706 52.6031 58.5538 52.4804C58.437 52.3578 58.3728 52.1944 58.3749 52.0251C58.3749 51.4576 58.8624 50.9001 59.7124 50.4901C60.3845 50.1341 61.1416 49.97 61.9008 50.0158C62.6599 50.0617 63.3918 50.3157 64.0161 50.7501C64.1396 50.8555 64.2172 51.0049 64.2325 51.1666C64.2478 51.3282 64.1996 51.4895 64.098 51.6162C63.9965 51.7429 63.8496 51.8252 63.6885 51.8455C63.5274 51.8658 63.3647 51.8226 63.2349 51.7251C62.9032 51.5013 62.5262 51.3535 62.1308 51.2921C61.7354 51.2307 61.3313 51.2574 60.9474 51.3701C60.4359 51.4557 59.9673 51.7085 59.6149 52.0889C59.6148 52.1685 59.5986 52.2474 59.5674 52.3207C59.5361 52.394 59.4905 52.4603 59.4331 52.5156C59.3757 52.5709 59.3078 52.614 59.2333 52.6425C59.1589 52.671 59.0795 52.6842 58.9999 52.6814Z" fill="#7F3C3C"/>
</svg>
