<svg width="20" height="20" viewBox="0 0 20 20" fill="none" xmlns="http://www.w3.org/2000/svg">
<g clip-path="url(#clip0_471_1110)">
<path d="M10 0C4.4775 0 0 4.4775 0 10C0 15.5225 4.4775 20 10 20C15.5225 20 20 15.5225 20 10C20 4.4775 15.5225 0 10 0ZM10 2.5C14.135 2.5 17.5 5.865 17.5 10C17.5 11.6175 16.98 13.1125 16.1063 14.3387L5.66125 3.89375C6.92646 2.98746 8.44369 2.50007 10 2.5ZM2.5 10C2.5 8.3825 3.02 6.8875 3.89375 5.66125L14.3387 16.1063C13.0734 17.0124 11.5563 17.4997 10 17.5C5.865 17.5 2.5 14.135 2.5 10Z" fill="#0E2339"/>
</g>
<defs>
<clipPath id="clip0_471_1110">
<rect width="20" height="20" fill="white"/>
</clipPath>
</defs>
</svg>
