<svg width="48" height="48" viewBox="0 0 48 48" fill="none" xmlns="http://www.w3.org/2000/svg">
<path d="M24 48C37.2548 48 48 37.2548 48 24C48 10.7452 37.2548 0 24 0C10.7452 0 0 10.7452 0 24C0 37.2548 10.7452 48 24 48Z" fill="#F16C6B"/>
<path d="M24 22.2C27.25 22.2 29.85 19.55 29.85 16.35C29.85 13.15 27.25 10.5 24 10.5C20.75 10.5 18.15 13.15 18.15 16.35C18.15 19.55 20.75 22.2 24 22.2ZM24 23.75C18.65 23.75 14.25 28.1 14.25 33.5C14.25 34.05 14.7 34.5 15.25 34.5H32.7C33.25 34.5 33.7 34.05 33.7 33.5C33.75 28.15 29.35 23.75 24 23.75ZM27.15 31.25C27.55 31.65 27.55 32.3 27.15 32.7C26.95 32.9 26.7 33 26.45 33C26.2 33 25.95 32.9 25.75 32.7L24 30.95L22.3 32.65C22.1 32.85 21.85 32.95 21.6 32.95C21.35 32.95 21.1 32.85 20.9 32.65C20.5 32.25 20.5 31.6 20.9 31.2L22.6 29.5L20.9 27.8C20.5 27.4 20.5 26.75 20.9 26.35C21.3 25.95 21.95 25.95 22.35 26.35L24.05 28.05L25.75 26.35C26.15 25.95 26.8 25.95 27.2 26.35C27.6 26.75 27.6 27.4 27.2 27.8L25.45 29.5L27.15 31.25Z" fill="white"/>
</svg>
