<svg width="12" height="15" viewBox="0 0 12 15" fill="none" xmlns="http://www.w3.org/2000/svg">
<path d="M10.7254 4.61152L11.4083 3.92969C11.5495 3.78713 11.6288 3.59377 11.6288 3.39216C11.6288 3.19055 11.5495 2.99719 11.4083 2.85463C11.267 2.71207 11.0755 2.63198 10.8758 2.63198C10.6761 2.63198 10.4846 2.71207 10.3433 2.85463L9.66793 3.54403C8.61678 2.72298 7.32533 2.2775 5.99627 2.2775C4.66721 2.2775 3.37577 2.72298 2.32461 3.54403L1.64172 2.84707C1.5713 2.77648 1.4878 2.72058 1.39599 2.68257C1.30417 2.64456 1.20584 2.62518 1.10661 2.62553C1.00737 2.62588 0.909178 2.64596 0.817631 2.68462C0.726083 2.72328 0.642975 2.77977 0.573051 2.85085C0.503128 2.92194 0.447758 3.00623 0.410104 3.09892C0.37245 3.19161 0.353248 3.29087 0.353596 3.39105C0.353944 3.49123 0.373834 3.59036 0.412131 3.68278C0.450428 3.7752 0.506381 3.8591 0.576796 3.92969L1.26718 4.61908C0.444749 5.67704 -0.0015398 6.98337 1.75976e-05 8.32822C-0.00229881 9.29383 0.224101 10.246 0.660338 11.1054C1.09657 11.9647 1.73001 12.7063 2.50781 13.2683C3.28561 13.8303 4.18524 14.1965 5.13169 14.3362C6.07813 14.476 7.04395 14.3853 7.94861 14.0717C8.85328 13.7581 9.67056 13.2307 10.3323 12.5334C10.9941 11.8362 11.4811 10.9894 11.7528 10.0635C12.0245 9.13769 12.0731 8.15969 11.8943 7.21108C11.7156 6.26247 11.3148 5.372 10.7254 4.61152ZM6.00002 12.8717C5.11111 12.8717 4.24217 12.6056 3.50307 12.107C2.76398 11.6085 2.18792 10.8999 1.84775 10.0708C1.50758 9.24176 1.41858 8.32948 1.59199 7.44936C1.76541 6.56924 2.19346 5.76079 2.82201 5.12626C3.45056 4.49172 4.25138 4.0596 5.12321 3.88453C5.99503 3.70947 6.8987 3.79932 7.71994 4.14272C8.54118 4.48613 9.24311 5.06767 9.73696 5.8138C10.2308 6.55994 10.4944 7.43715 10.4944 8.33452C10.4944 9.53785 10.0209 10.6919 9.17803 11.5428C8.33517 12.3937 7.192 12.8717 6.00002 12.8717ZM4.4944 1.51239H7.49065C7.68932 1.51239 7.87985 1.43272 8.02032 1.2909C8.1608 1.14909 8.23972 0.956749 8.23972 0.756194C8.23972 0.555639 8.1608 0.363298 8.02032 0.221484C7.87985 0.0796702 7.68932 0 7.49065 0H4.4944C4.29574 0 4.10521 0.0796702 3.96473 0.221484C3.82425 0.363298 3.74534 0.555639 3.74534 0.756194C3.74534 0.956749 3.82425 1.14909 3.96473 1.2909C4.10521 1.43272 4.29574 1.51239 4.4944 1.51239ZM6.74159 6.04955C6.74159 5.95025 6.72222 5.85191 6.68457 5.76017C6.64693 5.66842 6.59175 5.58506 6.5222 5.51484C6.45264 5.44462 6.37006 5.38892 6.27918 5.35092C6.1883 5.31292 6.0909 5.29336 5.99253 5.29336C5.89416 5.29336 5.79675 5.31292 5.70587 5.35092C5.61499 5.38892 5.53242 5.44462 5.46286 5.51484C5.3933 5.58506 5.33813 5.66842 5.30048 5.76017C5.26284 5.85191 5.24346 5.95025 5.24346 6.04955V7.48884C5.07385 7.64199 4.9543 7.84352 4.90063 8.06676C4.84696 8.29 4.8617 8.52443 4.94289 8.73903C5.02409 8.95363 5.16792 9.13829 5.35535 9.26856C5.54278 9.39883 5.76497 9.46858 5.99253 9.46858C6.22008 9.46858 6.44228 9.39883 6.6297 9.26856C6.81713 9.13829 6.96096 8.95363 7.04216 8.73903C7.12336 8.52443 7.13809 8.29 7.08442 8.06676C7.03075 7.84352 6.9112 7.64199 6.74159 7.48884V6.04955Z" fill="#0E2339"/>
</svg>
