<svg width="48" height="48" viewBox="0 0 48 48" fill="none" xmlns="http://www.w3.org/2000/svg">
<path d="M42.0514 26.4763C41.5046 26.4385 40.9636 26.3414 40.4377 26.1866C39.3646 25.9492 38.31 25.6341 37.2823 25.2437C36.165 24.8368 34.9372 24.8586 33.835 25.3048C32.7328 25.751 31.834 26.5901 31.3115 27.6608L30.7816 28.7477C28.4357 27.4389 26.28 25.8135 24.3749 23.9168C22.4837 22.0062 20.8629 19.8443 19.558 17.4917L20.5699 16.8146C21.638 16.2902 22.4749 15.3881 22.9196 14.282C23.3643 13.1758 23.3852 11.9438 22.9784 10.8231C22.5957 9.79024 22.2816 8.73307 22.0382 7.65856C21.9186 7.12713 21.8212 6.5717 21.7494 6.01627C21.457 4.31382 20.5677 2.77214 19.242 1.66917C17.9162 0.566213 16.2411 -0.0254555 14.5188 0.000840233H7.29335C6.25532 -0.00894493 5.22738 0.205701 4.2795 0.630164C3.33162 1.05463 2.48608 1.67894 1.80042 2.4606C1.11477 3.24226 0.605107 4.16291 0.30614 5.15987C0.0071738 6.15684 -0.074079 7.2067 0.0679134 8.23798C1.35095 18.358 5.95923 27.761 13.1649 34.9616C20.3705 42.1623 29.7628 46.7503 39.8582 48.0008H40.7728C41.7242 48.0031 42.6667 47.8165 43.5459 47.4518C44.4251 47.0871 45.2236 46.5514 45.8954 45.8757C46.5673 45.2001 47.0991 44.3977 47.4603 43.515C47.8215 42.6322 48.0049 41.6865 47.9999 40.7323V33.4826C47.9708 31.8046 47.3618 30.1887 46.2769 28.9109C45.192 27.6331 43.6985 26.7726 42.0514 26.4763ZM43.2479 40.9706C43.2494 41.3142 43.1777 41.6542 43.0377 41.9679C42.8977 42.2815 42.6925 42.5616 42.436 42.7894C42.1677 43.0235 41.8531 43.1983 41.513 43.3022C41.1728 43.4062 40.8145 43.4371 40.4617 43.3928C31.4396 42.2328 23.0594 38.0932 16.6434 31.627C10.2274 25.1608 6.14083 16.7363 5.02846 7.68256C4.99018 7.32887 5.02376 6.97108 5.12717 6.63077C5.23058 6.29047 5.40169 5.97471 5.63015 5.70256C5.85591 5.44487 6.1338 5.23836 6.44534 5.09678C6.75687 4.95519 7.09491 4.88177 7.43694 4.88141H14.6624C15.2227 4.8685 15.77 5.05199 16.21 5.40027C16.6499 5.74855 16.955 6.23981 17.0726 6.78941C17.1694 7.44998 17.2897 8.10198 17.4332 8.74541C17.7114 10.0187 18.0816 11.27 18.5409 12.4894L15.1683 14.0597C14.8801 14.1924 14.6208 14.3809 14.4054 14.6144C14.19 14.8479 14.0227 15.1217 13.9131 15.4202C13.8035 15.7187 13.7538 16.036 13.7668 16.3538C13.7798 16.6717 13.8553 16.9838 13.9889 17.2723C17.4555 24.7192 23.4244 30.7054 30.85 34.182C31.444 34.4107 32.1018 34.4087 32.6944 34.1762C33.287 33.9438 33.7717 33.4977 34.0533 32.9254L35.5473 29.5431C36.79 29.9899 38.0583 30.3614 39.3454 30.6557C39.9882 30.8008 40.6383 30.9214 41.2958 31.0174C41.8435 31.1353 42.3332 31.441 42.6804 31.8818C43.0277 32.3227 43.2108 32.8712 43.1983 33.4328L43.2479 40.9706Z" fill="#0E2339"/>
</svg>
