<svg width="20" height="20" viewBox="0 0 20 20" fill="none" xmlns="http://www.w3.org/2000/svg">
<path d="M7.32385 0.00795625C7.27366 0.0112329 7.22401 0.0201999 7.17583 0.0346345H0.77911C0.734348 0.0255483 0.68877 0.0210698 0.643095 0.0212954C0.466703 0.0275514 0.29999 0.103382 0.179506 0.232281C0.059021 0.36118 -0.00540373 0.532617 0.000355419 0.70891C0.188377 11.2299 8.66 19.7267 19.1692 19.9799C19.2583 20.0023 19.351 20.006 19.4416 19.9909C19.5322 19.9759 19.6187 19.9424 19.6957 19.8923C19.7727 19.8423 19.8386 19.7769 19.8891 19.7002C19.9396 19.6236 19.9737 19.5372 19.9893 19.4468C19.9931 19.4247 19.9957 19.4024 19.9973 19.3801C19.9989 19.3624 19.9998 19.3447 20 19.3269C20 19.3225 20 19.318 20 19.3136V12.6837C20.001 12.5946 19.9842 12.5064 19.9505 12.4239C19.9168 12.3414 19.8669 12.2665 19.8038 12.2036C19.7406 12.1408 19.6655 12.0912 19.5828 12.0579C19.5002 12.0245 19.4117 12.008 19.3225 12.0094C19.2977 12.008 19.2727 12.008 19.2479 12.0094C17.7972 12.072 16.3647 11.668 15.1607 10.8567C15.1364 10.8404 15.111 10.8258 15.0847 10.8128C14.9674 10.732 14.8271 10.6909 14.6847 10.6955C14.565 10.6995 14.4486 10.7356 14.3477 10.8001C14.2468 10.8646 14.1651 10.9551 14.1113 11.062L14.0819 11.1167L13.1112 13.0009C10.5047 11.6458 8.38191 9.51742 7.03448 6.90818L8.98537 5.90872C9.07224 5.86518 9.14852 5.80328 9.20889 5.72718C9.26927 5.65108 9.31227 5.56266 9.33488 5.46821C9.35749 5.37376 9.35917 5.27561 9.33979 5.18044C9.32042 5.08528 9.28047 4.99535 9.22273 4.91724C9.21163 4.89845 9.19962 4.88035 9.18673 4.86274C8.36291 3.64555 7.95673 2.194 8.02926 0.726316C8.03791 0.630667 8.02576 0.534273 7.99365 0.443755C7.96153 0.353236 7.91022 0.270713 7.84323 0.201861C7.77623 0.133009 7.69513 0.0793275 7.60548 0.0447201C7.51584 0.0101128 7.41977 -0.00467263 7.32385 0.0012867V0.00795625ZM1.37784 1.36724H6.72245C6.77046 2.66254 7.12383 3.91914 7.76257 5.04786L5.96636 5.96338C5.82431 5.99939 5.69809 6.08126 5.60721 6.19617C5.51634 6.31107 5.46588 6.45267 5.46364 6.5991C5.45689 6.75203 5.50304 6.90254 5.59432 7.02547C7.11924 10.2577 9.71088 12.867 12.9338 14.4148C13.0107 14.4863 13.1034 14.5384 13.2044 14.5673C13.3053 14.5961 13.4117 14.6008 13.5147 14.5808C13.6178 14.5608 13.7147 14.5168 13.7975 14.4523C13.8803 14.3878 13.9467 14.3045 13.9913 14.2096L14.9834 12.2879C16.1128 12.9249 17.3703 13.2808 18.6665 13.3302V18.6178C14.1627 18.3807 9.90567 16.488 6.71415 13.3035C3.52263 10.119 1.62201 5.86769 1.37784 1.36724Z" fill="#0E2339"/>
</svg>
