<svg width="24" height="25" viewBox="0 0 24 25" fill="none" xmlns="http://www.w3.org/2000/svg">
<path d="M14.8181 12.002L23.4122 3.42642C23.7886 3.05 24 2.53948 24 2.00715C24 1.47482 23.7886 0.964294 23.4122 0.587881C23.0359 0.211467 22.5254 0 21.9932 0C21.4609 0 20.9505 0.211467 20.5742 0.587881L12 9.18345L3.42585 0.587881C3.0495 0.211467 2.53906 -3.96616e-09 2.00682 0C1.47457 3.96616e-09 0.964133 0.211467 0.587783 0.587881C0.211432 0.964294 3.9655e-09 1.47482 0 2.00715C-3.9655e-09 2.53948 0.211432 3.05 0.587783 3.42642L9.18192 12.002L0.587783 20.5776C0.211432 20.954 0 21.4645 0 21.9968C0 22.5292 0.211432 23.0397 0.587783 23.4161C0.964133 23.7925 1.47457 24.004 2.00682 24.004C2.53906 24.004 3.0495 23.7925 3.42585 23.4161L12 14.8205L20.5742 23.4161C20.9505 23.7925 21.4609 24.004 21.9932 24.004C22.5254 24.004 23.0359 23.7925 23.4122 23.4161C23.7886 23.0397 24 22.5292 24 21.9968C24 21.4645 23.7886 20.954 23.4122 20.5776L14.8181 12.002Z" fill="white"/>
</svg>
