<svg width="23" height="24" viewBox="0 0 23 24" fill="none" xmlns="http://www.w3.org/2000/svg">
<path d="M2.55753 9.22105C2.35161 9.42787 2.22365 9.69961 2.19542 9.99009C2.16718 10.2806 2.2404 10.5719 2.40263 10.8145C2.56486 11.0571 2.80609 11.236 3.08533 11.3209C3.36457 11.4057 3.66458 11.3913 3.93437 11.28C4.08789 11.2113 4.22879 11.1174 4.35121 11.0021C4.46484 10.8857 4.55491 10.7485 4.61648 10.5979C4.68868 10.444 4.72332 10.2752 4.71753 10.1053C4.71613 9.77389 4.58457 9.45633 4.35121 9.22105C4.23379 9.10266 4.09408 9.00869 3.94015 8.94456C3.78622 8.88043 3.62112 8.84741 3.45437 8.84741C3.28762 8.84741 3.12252 8.88043 2.96859 8.94456C2.81466 9.00869 2.67496 9.10266 2.55753 9.22105ZM3.45437 2.52631C3.78938 2.52631 4.11067 2.6594 4.34756 2.89629C4.58445 3.13317 4.71753 3.45446 4.71753 3.78947C4.71753 4.12448 4.58445 4.44577 4.34756 4.68266C4.11067 4.91955 3.78938 5.05263 3.45437 5.05263C3.11936 5.05263 2.79807 5.18571 2.56118 5.4226C2.3243 5.65949 2.19121 5.98078 2.19121 6.31579C2.19121 6.6508 2.3243 6.97209 2.56118 7.20898C2.79807 7.44586 3.11936 7.57895 3.45437 7.57895C4.11946 7.57852 4.77272 7.40306 5.34852 7.07019C5.92432 6.73732 6.40236 6.25878 6.73463 5.68263C7.0669 5.10649 7.24168 4.45304 7.24141 3.78795C7.24115 3.12287 7.06584 2.46956 6.73311 1.89368C6.40038 1.31781 5.92195 0.839643 5.34589 0.507238C4.76983 0.174832 4.11642 -0.000106477 3.45133 4.86209e-08C2.78624 0.000106574 2.1329 0.175254 1.55694 0.507845C0.980984 0.840435 0.502705 1.31875 0.170161 1.89474C0.086642 2.0389 0.0324697 2.19817 0.0107645 2.36337C-0.0109408 2.52856 0.000249502 2.69642 0.0436909 2.85727C0.0871324 3.01812 0.161967 3.16878 0.263884 3.30059C0.365801 3.4324 0.492787 3.54274 0.637529 3.62526C0.927571 3.78994 1.27097 3.83323 1.59281 3.74567C1.91465 3.65811 2.18879 3.44682 2.35542 3.15789C2.46671 2.96513 2.62696 2.8052 2.81994 2.69429C3.01293 2.58338 3.23179 2.52543 3.45437 2.52631ZM18.6123 3.78947H11.0333C10.6983 3.78947 10.377 3.92256 10.1401 4.15944C9.90324 4.39633 9.77016 4.71762 9.77016 5.05263C9.77016 5.38764 9.90324 5.70893 10.1401 5.94582C10.377 6.18271 10.6983 6.31579 11.0333 6.31579H18.6123C18.9473 6.31579 19.2686 6.44887 19.5055 6.68576C19.7423 6.92265 19.8754 7.24394 19.8754 7.57895V19.8568L17.8923 18.0253C17.6593 17.8072 17.3524 17.6853 17.0333 17.6842H5.98069C5.64568 17.6842 5.32439 17.5511 5.0875 17.3142C4.85061 17.0774 4.71753 16.7561 4.71753 16.4211V15.1579C4.71753 14.8229 4.58445 14.5016 4.34756 14.2647C4.11067 14.0278 3.78938 13.8947 3.45437 13.8947C3.11936 13.8947 2.79807 14.0278 2.56118 14.2647C2.3243 14.5016 2.19121 14.8229 2.19121 15.1579V16.4211C2.19121 17.4261 2.59046 18.3899 3.30112 19.1006C4.01179 19.8113 4.97566 20.2105 5.98069 20.2105H16.5407L20.3302 23.6589C20.5502 23.8656 20.837 23.9866 21.1386 24C21.3118 23.9981 21.4832 23.9638 21.6438 23.8989C21.8698 23.8003 22.062 23.6378 22.1966 23.4313C22.3313 23.2248 22.4026 22.9834 22.4017 22.7368V7.57895C22.4017 6.57392 22.0025 5.61005 21.2918 4.89938C20.5812 4.18872 19.6173 3.78947 18.6123 3.78947Z" fill="#87919C"/>
</svg>
