<svg width="48" height="49" viewBox="0 0 48 49" fill="none" xmlns="http://www.w3.org/2000/svg">
<path d="M24.0395 0C17.6847 0 11.5903 2.52856 7.09681 7.02944C2.60334 11.5303 0.0789347 17.6348 0.0789347 24C0.0578435 29.542 1.97359 34.9166 5.49402 39.192L0.701909 43.992C0.361762 44.3255 0.131451 44.7552 0.041805 45.2234C-0.0478407 45.6917 0.00745741 46.1762 0.200297 46.6121C0.393137 47.048 0.714315 47.4145 1.12084 47.6626C1.52736 47.9106 1.99983 48.0283 2.47499 48H24.0395C30.3942 48 36.4887 45.4714 40.9821 40.9706C45.4756 36.4697 48 30.3652 48 24C48 17.6348 45.4756 11.5303 40.9821 7.02944C36.4887 2.52856 30.3942 0 24.0395 0ZM24.0395 43.2H8.24948L10.4744 40.9714C10.9206 40.5218 11.1711 39.9135 11.1711 39.2794C11.1711 38.6454 10.9206 38.0371 10.4744 37.5874C7.33623 34.4492 5.38143 30.3182 4.94303 25.8982C4.50463 21.4782 5.60974 17.0427 8.0701 13.3473C10.5304 9.65193 14.1938 6.92531 18.4361 5.63197C22.6784 4.33863 27.2372 4.55859 31.3357 6.25436C35.4342 7.95014 38.819 11.0168 40.9134 14.932C43.0077 18.8471 43.6821 23.3685 42.8216 27.7258C41.9611 32.0831 39.619 36.0068 36.1942 38.8284C32.7694 41.65 28.4739 43.1949 24.0395 43.2ZM36.0197 21.6H12.0592C11.7445 21.6 11.433 21.6621 11.1423 21.7827C10.8516 21.9033 10.5874 22.0801 10.3649 22.3029C10.1424 22.5258 9.96595 22.7904 9.84554 23.0816C9.72512 23.3727 9.66315 23.6848 9.66315 24C9.66315 24.3152 9.72512 24.6273 9.84554 24.9184C9.96595 25.2096 10.1424 25.4742 10.3649 25.6971C10.5874 25.9199 10.8516 26.0967 11.1423 26.2173C11.433 26.3379 11.7445 26.4 12.0592 26.4H36.0197C36.6552 26.4 37.2647 26.1471 37.714 25.6971C38.1633 25.247 38.4158 24.6365 38.4158 24C38.4158 23.3635 38.1633 22.753 37.714 22.3029C37.2647 21.8529 36.6552 21.6 36.0197 21.6ZM31.2276 31.2H16.8513C16.2158 31.2 15.6064 31.4529 15.157 31.9029C14.7077 32.353 14.4553 32.9635 14.4553 33.6C14.4553 34.2365 14.7077 34.847 15.157 35.2971C15.6064 35.7471 16.2158 36 16.8513 36H31.2276C31.8631 36 32.4725 35.7471 32.9219 35.2971C33.3712 34.847 33.6237 34.2365 33.6237 33.6C33.6237 32.9635 33.3712 32.353 32.9219 31.9029C32.4725 31.4529 31.8631 31.2 31.2276 31.2ZM16.8513 16.8H31.2276C31.8631 16.8 32.4725 16.5471 32.9219 16.0971C33.3712 15.647 33.6237 15.0365 33.6237 14.4C33.6237 13.7635 33.3712 13.153 32.9219 12.7029C32.4725 12.2529 31.8631 12 31.2276 12H16.8513C16.2158 12 15.6064 12.2529 15.157 12.7029C14.7077 13.153 14.4553 13.7635 14.4553 14.4C14.4553 15.0365 14.7077 15.647 15.157 16.0971C15.6064 16.5471 16.2158 16.8 16.8513 16.8Z" fill="#0E2339"/>
</svg>
