<svg width="24" height="24" viewBox="0 0 24 24" fill="none" xmlns="http://www.w3.org/2000/svg">
<path fill-rule="evenodd" clip-rule="evenodd" d="M12.0568 2.00008C8.54687 1.98598 5.28557 3.80712 3.4605 6.80043C1.63543 9.79374 1.51292 13.5224 3.13757 16.6287L3.33789 17.0192C3.50209 17.3265 3.53644 17.6865 3.43329 18.0192C3.14742 18.7784 2.90849 19.5545 2.71784 20.343C2.71784 20.743 2.83231 20.9716 3.26158 20.962C4.0219 20.7941 4.77068 20.5778 5.50332 20.3144C5.81886 20.2275 6.15437 20.2476 6.45725 20.3716C6.73389 20.5049 7.2967 20.8478 7.31578 20.8478C10.9915 22.7805 15.4808 22.2473 18.5998 19.5075C21.7187 16.7677 22.8199 12.3901 21.3676 8.50412C19.9153 4.61817 16.2111 2.03061 12.0568 2.00008Z" stroke="#0E2339" stroke-width="1.5" stroke-linecap="round" stroke-linejoin="round"/>
<path d="M7.28711 13C7.83939 13 8.28711 12.5523 8.28711 12C8.28711 11.4477 7.83939 11 7.28711 11C6.73482 11 6.28711 11.4477 6.28711 12C6.28711 12.5523 6.73482 13 7.28711 13Z" fill="#0E2339" stroke="#0E2339" stroke-width="1.5" stroke-linecap="round" stroke-linejoin="round"/>
<path d="M12.0571 13C12.6094 13 13.0571 12.5523 13.0571 12C13.0571 11.4477 12.6094 11 12.0571 11C11.5048 11 11.0571 11.4477 11.0571 12C11.0571 12.5523 11.5048 13 12.0571 13Z" fill="#0E2339" stroke="#0E2339" stroke-width="1.5" stroke-linecap="round" stroke-linejoin="round"/>
<path d="M16.8262 13C17.3785 13 17.8262 12.5523 17.8262 12C17.8262 11.4477 17.3785 11 16.8262 11C16.2739 11 15.8262 11.4477 15.8262 12C15.8262 12.5523 16.2739 13 16.8262 13Z" fill="#0E2339" stroke="#0E2339" stroke-width="1.5" stroke-linecap="round" stroke-linejoin="round"/>
</svg>
