<svg width="12" height="12" viewBox="0 0 12 12" fill="none" xmlns="http://www.w3.org/2000/svg">
<path d="M5.99943 9.81771C6.11818 9.81771 6.23426 9.7857 6.333 9.72573C6.43173 9.66575 6.50869 9.5805 6.55413 9.48077C6.59957 9.38103 6.61146 9.27128 6.58829 9.1654C6.56513 9.05952 6.50795 8.96226 6.42398 8.88593C6.34001 8.80959 6.23303 8.75761 6.11657 8.73655C6.0001 8.71548 5.87938 8.72629 5.76967 8.76761C5.65997 8.80892 5.5662 8.87888 5.50022 8.96864C5.43425 9.0584 5.39904 9.16393 5.39904 9.27189C5.39904 9.34357 5.41457 9.41454 5.44474 9.48077C5.47491 9.54699 5.51914 9.60716 5.57489 9.65784C5.63064 9.70853 5.69683 9.74874 5.76967 9.77617C5.84252 9.8036 5.92059 9.81771 5.99943 9.81771ZM8.99915 9.81771C9.1179 9.81771 9.23398 9.7857 9.33271 9.72573C9.43145 9.66575 9.5084 9.5805 9.55385 9.48077C9.59929 9.38103 9.61118 9.27128 9.58801 9.1654C9.56485 9.05952 9.50766 8.96226 9.4237 8.88593C9.33973 8.80959 9.23275 8.75761 9.11628 8.73655C8.99982 8.71548 8.8791 8.72629 8.76939 8.76761C8.65968 8.80892 8.56591 8.87888 8.49994 8.96864C8.43397 9.0584 8.39876 9.16393 8.39876 9.27189C8.39876 9.34357 8.41429 9.41454 8.44446 9.48077C8.47463 9.54699 8.51886 9.60716 8.57461 9.65784C8.63036 9.70853 8.69655 9.74874 8.76939 9.77617C8.84223 9.8036 8.92031 9.81771 8.99915 9.81771ZM8.99915 7.63543C9.11809 7.63563 9.23442 7.60371 9.33337 7.54372C9.43233 7.48373 9.50945 7.39837 9.55497 7.29847C9.60048 7.19858 9.61234 7.08864 9.58902 6.98261C9.56571 6.87658 9.50828 6.77923 9.42401 6.70291C9.33975 6.6266 9.23246 6.57476 9.11574 6.55396C8.99902 6.53317 8.87814 6.54436 8.76842 6.58611C8.65871 6.62787 8.56511 6.69831 8.4995 6.7885C8.43388 6.87868 8.39921 6.98456 8.39989 7.09268C8.40048 7.23691 8.46385 7.37506 8.57614 7.47695C8.68842 7.57884 8.8405 7.63516 8.99915 7.63543ZM5.99943 7.63543C6.11837 7.63563 6.2347 7.60371 6.33365 7.54372C6.43261 7.48373 6.50974 7.39837 6.55525 7.29847C6.60077 7.19858 6.61262 7.08864 6.5893 6.98261C6.56599 6.87658 6.50856 6.77923 6.4243 6.70291C6.34003 6.6266 6.23274 6.57476 6.11602 6.55396C5.9993 6.53317 5.87842 6.54436 5.76871 6.58611C5.65899 6.62787 5.56539 6.69831 5.49978 6.7885C5.43417 6.87868 5.3995 6.98456 5.40017 7.09268C5.40077 7.23691 5.46413 7.37506 5.57642 7.47695C5.68871 7.57884 5.84079 7.63516 5.99943 7.63543ZM10.1988 1.0896H9.59955V0.545829C9.59283 0.405298 9.5267 0.272549 9.41495 0.175267C9.30319 0.0779854 9.15444 0.0236816 8.99972 0.0236816C8.84499 0.0236816 8.69624 0.0779854 8.58449 0.175267C8.47273 0.272549 8.4066 0.405298 8.39989 0.545829V1.09166H3.60011V0.545829C3.5934 0.405298 3.52727 0.272549 3.41551 0.175267C3.30376 0.0779854 3.15501 0.0236816 3.00028 0.0236816C2.84556 0.0236816 2.69681 0.0779854 2.58505 0.175267C2.47329 0.272549 2.40717 0.405298 2.40045 0.545829V1.09166H1.80006C1.32285 1.09166 0.865168 1.26393 0.527624 1.5706C0.19008 1.87727 0.000299754 2.29325 0 2.72709V10.3635C0 10.7976 0.189648 11.2138 0.527224 11.5207C0.8648 11.8276 1.32265 12 1.80006 12H10.1999C10.6773 12 11.1352 11.8276 11.4728 11.5207C11.8104 11.2138 12 10.7976 12 10.3635V2.72709C12 2.29307 11.8104 1.87683 11.4728 1.56994C11.1352 1.26304 10.6773 1.09063 10.1999 1.09063L10.1988 1.0896ZM10.7992 10.3625C10.7992 10.5073 10.736 10.6461 10.6234 10.7485C10.5108 10.8508 10.358 10.9083 10.1988 10.9083H1.80006C1.64082 10.9083 1.48811 10.8508 1.37551 10.7485C1.26292 10.6461 1.19966 10.5073 1.19966 10.3625V5.45417H10.7992V10.3625ZM10.7992 4.36251H1.19966V2.72709C1.19966 2.58232 1.26292 2.44349 1.37551 2.34113C1.48811 2.23876 1.64082 2.18126 1.80006 2.18126H2.40045V2.72709C2.39694 2.80069 2.40985 2.87418 2.43841 2.94312C2.46696 3.01207 2.51058 3.07505 2.56663 3.12826C2.62267 3.18147 2.68999 3.22382 2.76452 3.25275C2.83905 3.28168 2.91924 3.2966 3.00028 3.2966C3.08132 3.2966 3.16152 3.28168 3.23605 3.25275C3.31058 3.22382 3.37789 3.18147 3.43394 3.12826C3.48998 3.07505 3.5336 3.01207 3.56216 2.94312C3.59072 2.87418 3.60363 2.80069 3.60011 2.72709V2.18229H8.39989V2.72811C8.39637 2.80172 8.40928 2.87521 8.43784 2.94415C8.4664 3.0131 8.51002 3.07608 8.56606 3.12929C8.62211 3.1825 8.68942 3.22485 8.76395 3.25378C8.83848 3.28271 8.91868 3.29762 8.99972 3.29762C9.08076 3.29762 9.16095 3.28271 9.23548 3.25378C9.31001 3.22485 9.37733 3.1825 9.43337 3.12929C9.48942 3.07608 9.53304 3.0131 9.56159 2.94415C9.59015 2.87521 9.60306 2.80172 9.59955 2.72811V2.18229H10.1999C10.3592 2.18229 10.5119 2.23979 10.6245 2.34216C10.7371 2.44452 10.8003 2.58335 10.8003 2.72811L10.7992 4.36251ZM2.99746 7.63543C3.11649 7.63604 3.23304 7.60447 3.33229 7.54473C3.43154 7.48499 3.50902 7.39977 3.55488 7.29991C3.60074 7.20005 3.61292 7.09004 3.58986 6.98388C3.5668 6.87771 3.50955 6.78017 3.42538 6.70365C3.34121 6.62713 3.23392 6.57508 3.11714 6.55412C3.00036 6.53316 2.87936 6.54423 2.76952 6.58592C2.65967 6.62761 2.56594 6.69805 2.50022 6.78828C2.43451 6.87852 2.39978 6.98447 2.40045 7.09268C2.40105 7.23691 2.46441 7.37506 2.5767 7.47695C2.68899 7.57884 2.84107 7.63619 2.99972 7.63646L2.99746 7.63543ZM2.99746 9.81771C3.1162 9.81771 3.23228 9.7857 3.33102 9.72573C3.42975 9.66575 3.50671 9.5805 3.55215 9.48077C3.59759 9.38103 3.60948 9.27128 3.58632 9.1654C3.56315 9.05952 3.50597 8.96226 3.422 8.88593C3.33803 8.80959 3.23105 8.75761 3.11459 8.73655C2.99812 8.71548 2.8774 8.72629 2.76769 8.76761C2.65799 8.80892 2.56422 8.87888 2.49825 8.96864C2.43227 9.0584 2.39706 9.16393 2.39706 9.27189C2.39706 9.34374 2.41266 9.41488 2.44298 9.48124C2.47329 9.5476 2.51772 9.60786 2.57371 9.65857C2.6297 9.70929 2.69616 9.74945 2.76926 9.77676C2.84237 9.80407 2.92068 9.81798 2.99972 9.81771H2.99746Z" fill="#0E2339"/>
</svg>
