<svg width="24" height="24" viewBox="0 0 24 24" fill="none" xmlns="http://www.w3.org/2000/svg">
<path d="M23.3684 22.7368H21.4737V5.68421C21.4831 5.54607 21.4458 5.40877 21.368 5.29428C21.2901 5.17978 21.1761 5.0947 21.0442 5.05263L16.4211 3.12V22.7368H15.1579V0.631579C15.1579 0.464074 15.0914 0.303429 14.9729 0.184985C14.8545 0.0665413 14.6938 0 14.5263 0H3.15789C2.99039 0 2.82975 0.0665413 2.7113 0.184985C2.59286 0.303429 2.52632 0.464074 2.52632 0.631579V22.7368H0.631579C0.464074 22.7368 0.303429 22.8034 0.184985 22.9218C0.0665413 23.0403 0 23.2009 0 23.3684C0 23.5359 0.0665413 23.6966 0.184985 23.815C0.303429 23.9335 0.464074 24 0.631579 24H23.3684C23.5359 24 23.6966 23.9335 23.815 23.815C23.9335 23.6966 24 23.5359 24 23.3684C24 23.2009 23.9335 23.0403 23.815 22.9218C23.6966 22.8034 23.5359 22.7368 23.3684 22.7368ZM18.3158 7.57895H19.5789C19.7465 7.57895 19.9071 7.64549 20.0255 7.76393C20.144 7.88238 20.2105 8.04302 20.2105 8.21053C20.2073 8.37702 20.1397 8.53579 20.022 8.65354C19.9042 8.77129 19.7454 8.83887 19.5789 8.8421H18.3158C18.1493 8.83887 17.9905 8.77129 17.8728 8.65354C17.755 8.53579 17.6874 8.37702 17.6842 8.21053C17.6842 8.04302 17.7507 7.88238 17.8692 7.76393C17.9876 7.64549 18.1483 7.57895 18.3158 7.57895ZM18.3158 11.3684H19.5789C19.7465 11.3684 19.9071 11.435 20.0255 11.5534C20.144 11.6719 20.2105 11.8325 20.2105 12C20.2105 12.1675 20.144 12.3281 20.0255 12.4466C19.9071 12.565 19.7465 12.6316 19.5789 12.6316H18.3158C18.1483 12.6316 17.9876 12.565 17.8692 12.4466C17.7507 12.3281 17.6842 12.1675 17.6842 12C17.6842 11.8325 17.7507 11.6719 17.8692 11.5534C17.9876 11.435 18.1483 11.3684 18.3158 11.3684ZM18.3158 15.1579H19.5789C19.7454 15.1611 19.9042 15.2287 20.022 15.3465C20.1397 15.4642 20.2073 15.623 20.2105 15.7895C20.2105 15.957 20.144 16.1176 20.0255 16.2361C19.9071 16.3545 19.7465 16.4211 19.5789 16.4211H18.3158C18.1483 16.4211 17.9876 16.3545 17.8692 16.2361C17.7507 16.1176 17.6842 15.957 17.6842 15.7895C17.6874 15.623 17.755 15.4642 17.8728 15.3465C17.9905 15.2287 18.1493 15.1611 18.3158 15.1579ZM18.3158 18.9474H19.5789C19.7465 18.9474 19.9071 19.0139 20.0255 19.1324C20.144 19.2508 20.2105 19.4114 20.2105 19.5789C20.2105 19.7465 20.144 19.9071 20.0255 20.0255C19.9071 20.144 19.7465 20.2105 19.5789 20.2105H18.3158C18.1483 20.2105 17.9876 20.144 17.8692 20.0255C17.7507 19.9071 17.6842 19.7465 17.6842 19.5789C17.6842 19.4114 17.7507 19.2508 17.8692 19.1324C17.9876 19.0139 18.1483 18.9474 18.3158 18.9474ZM10.1053 3.78947H11.3684C11.5359 3.78947 11.6966 3.85601 11.815 3.97446C11.9335 4.0929 12 4.25355 12 4.42105C12 4.58856 11.9335 4.7492 11.815 4.86765C11.6966 4.98609 11.5359 5.05263 11.3684 5.05263H10.1053C9.93776 5.05263 9.77711 4.98609 9.65867 4.86765C9.54022 4.7492 9.47368 4.58856 9.47368 4.42105C9.47368 4.25355 9.54022 4.0929 9.65867 3.97446C9.77711 3.85601 9.93776 3.78947 10.1053 3.78947ZM10.1053 7.57895H11.3684C11.5359 7.57895 11.6966 7.64549 11.815 7.76393C11.9335 7.88238 12 8.04302 12 8.21053C12 8.37803 11.9335 8.53868 11.815 8.65712C11.6966 8.77556 11.5359 8.8421 11.3684 8.8421H10.1053C9.93776 8.8421 9.77711 8.77556 9.65867 8.65712C9.54022 8.53868 9.47368 8.37803 9.47368 8.21053C9.47368 8.04302 9.54022 7.88238 9.65867 7.76393C9.77711 7.64549 9.93776 7.57895 10.1053 7.57895ZM10.1053 11.3684H11.3684C11.5359 11.3684 11.6966 11.435 11.815 11.5534C11.9335 11.6719 12 11.8325 12 12C12 12.1675 11.9335 12.3281 11.815 12.4466C11.6966 12.565 11.5359 12.6316 11.3684 12.6316H10.1053C9.93776 12.6316 9.77711 12.565 9.65867 12.4466C9.54022 12.3281 9.47368 12.1675 9.47368 12C9.47368 11.8325 9.54022 11.6719 9.65867 11.5534C9.77711 11.435 9.93776 11.3684 10.1053 11.3684ZM10.1053 15.1579H11.3684C11.5359 15.1579 11.6966 15.2244 11.815 15.3429C11.9335 15.4613 12 15.622 12 15.7895C12 15.957 11.9335 16.1176 11.815 16.2361C11.6966 16.3545 11.5359 16.4211 11.3684 16.4211H10.1053C9.93776 16.4211 9.77711 16.3545 9.65867 16.2361C9.54022 16.1176 9.47368 15.957 9.47368 15.7895C9.47368 15.622 9.54022 15.4613 9.65867 15.3429C9.77711 15.2244 9.93776 15.1579 10.1053 15.1579ZM6.24 3.78947H7.57895C7.74645 3.78947 7.9071 3.85601 8.02554 3.97446C8.14399 4.0929 8.21053 4.25355 8.21053 4.42105C8.21053 4.58856 8.14399 4.7492 8.02554 4.86765C7.9071 4.98609 7.74645 5.05263 7.57895 5.05263H6.31579C6.14828 5.05263 5.98764 4.98609 5.8692 4.86765C5.75075 4.7492 5.68421 4.58856 5.68421 4.42105C5.68421 4.25355 5.75075 4.0929 5.8692 3.97446C5.98764 3.85601 6.14828 3.78947 6.31579 3.78947H6.24ZM6.24 7.57895H7.57895C7.74645 7.57895 7.9071 7.64549 8.02554 7.76393C8.14399 7.88238 8.21053 8.04302 8.21053 8.21053C8.21053 8.37803 8.14399 8.53868 8.02554 8.65712C7.9071 8.77556 7.74645 8.8421 7.57895 8.8421H6.31579C6.14828 8.8421 5.98764 8.77556 5.8692 8.65712C5.75075 8.53868 5.68421 8.37803 5.68421 8.21053C5.68421 8.04302 5.75075 7.88238 5.8692 7.76393C5.98764 7.64549 6.14828 7.57895 6.31579 7.57895H6.24ZM6.24 11.3684H7.57895C7.74645 11.3684 7.9071 11.435 8.02554 11.5534C8.14399 11.6719 8.21053 11.8325 8.21053 12C8.21053 12.1675 8.14399 12.3281 8.02554 12.4466C7.9071 12.565 7.74645 12.6316 7.57895 12.6316H6.31579C6.14828 12.6316 5.98764 12.565 5.8692 12.4466C5.75075 12.3281 5.68421 12.1675 5.68421 12C5.68421 11.8325 5.75075 11.6719 5.8692 11.5534C5.98764 11.435 6.14828 11.3684 6.31579 11.3684H6.24ZM6.24 15.1579H7.57895C7.74645 15.1579 7.9071 15.2244 8.02554 15.3429C8.14399 15.4613 8.21053 15.622 8.21053 15.7895C8.21053 15.957 8.14399 16.1176 8.02554 16.2361C7.9071 16.3545 7.74645 16.4211 7.57895 16.4211H6.31579C6.14828 16.4211 5.98764 16.3545 5.8692 16.2361C5.75075 16.1176 5.68421 15.957 5.68421 15.7895C5.68421 15.622 5.75075 15.4613 5.8692 15.3429C5.98764 15.2244 6.14828 15.1579 6.31579 15.1579H6.24ZM9.47368 22.7368V20.2105H8.21053V22.7368H6.94737V19.5411C6.95704 19.3802 7.02782 19.2291 7.14523 19.1188C7.26265 19.0084 7.41781 18.9471 7.57895 18.9474H10.1053C10.2728 18.9474 10.4334 19.0139 10.5519 19.1324C10.6703 19.2508 10.7368 19.4114 10.7368 19.5789V22.7368H9.47368Z" fill="#2B3344"/>
</svg>
