<svg width="20" height="20" viewBox="0 0 20 20" fill="none" xmlns="http://www.w3.org/2000/svg">
<path d="M20 13.3333H18.6667V10C18.6667 7.70146 17.7536 5.49706 16.1283 3.87174C14.5029 2.24643 12.2985 1.33333 10 1.33333C7.70146 1.33333 5.49706 2.24643 3.87174 3.87174C2.24643 5.49706 1.33333 7.70146 1.33333 10V13.3333H0V10C3.95203e-08 7.34783 1.05357 4.8043 2.92893 2.92893C4.8043 1.05357 7.34784 0 10 0C12.6522 0 15.1957 1.05357 17.0711 2.92893C18.9464 4.8043 20 7.34783 20 10V13.3333Z" fill="#0E2339"/>
<path d="M4.15333 17.3333H3.33333C2.89559 17.3333 2.46214 17.2471 2.05772 17.0796C1.6533 16.9121 1.28584 16.6666 0.976311 16.357C0.351189 15.7319 0 14.8841 0 14V12.6667C0 11.7826 0.351189 10.9348 0.976311 10.3097C1.60143 9.68453 2.44928 9.33334 3.33333 9.33334H4.15333C4.46811 9.33859 4.76823 9.46733 4.98896 9.69181C5.2097 9.91629 5.33338 10.2185 5.33333 10.5333V16.1333C5.33338 16.4482 5.2097 16.7504 4.98896 16.9749C4.76823 17.1994 4.46811 17.3281 4.15333 17.3333ZM3.33333 10.6667C2.8029 10.6667 2.29419 10.8774 1.91912 11.2525C1.54405 11.6275 1.33333 12.1362 1.33333 12.6667V14C1.33333 14.5304 1.54405 15.0392 1.91912 15.4142C2.29419 15.7893 2.8029 16 3.33333 16H4V10.6667H3.33333ZM16.6667 17.3333H15.8667C15.5484 17.3333 15.2432 17.2069 15.0181 16.9819C14.7931 16.7568 14.6667 16.4516 14.6667 16.1333V10.5333C14.6667 10.2151 14.7931 9.90986 15.0181 9.68482C15.2432 9.45977 15.5484 9.33334 15.8667 9.33334H16.6667C17.5507 9.33334 18.3986 9.68453 19.0237 10.3097C19.6488 10.9348 20 11.7826 20 12.6667V14C20 14.8841 19.6488 15.7319 19.0237 16.357C18.3986 16.9822 17.5507 17.3333 16.6667 17.3333ZM16 16H16.6667C17.1971 16 17.7058 15.7893 18.0809 15.4142C18.456 15.0392 18.6667 14.5304 18.6667 14V12.6667C18.6667 12.1362 18.456 11.6275 18.0809 11.2525C17.7058 10.8774 17.1971 10.6667 16.6667 10.6667H16V16Z" fill="#0E2339"/>
<path d="M4.20437 10H5.29226C5.47992 10 5.6599 10.0562 5.79259 10.1562C5.92529 10.2562 5.99984 10.3919 5.99984 10.5333V16.1333C5.99984 16.2748 5.92529 16.4104 5.79259 16.5105C5.6599 16.6105 5.47992 16.6667 5.29226 16.6667H4.20437C3.26607 16.6667 2.3662 16.3857 1.70272 15.8856C1.03924 15.3855 0.666504 14.7072 0.666504 14V12.6667C0.666504 11.9594 1.03924 11.2811 1.70272 10.781C2.3662 10.281 3.26607 10 4.20437 10Z" fill="#0E2339"/>
<path d="M15.7779 16.6667H14.7113C14.5227 16.6667 14.3418 16.6105 14.2084 16.5104C14.0751 16.4104 14.0002 16.2748 14.0002 16.1333V10.5333C14.0002 10.3919 14.0751 10.2562 14.2084 10.1562C14.3418 10.0562 14.5227 9.99999 14.7113 9.99999H15.7779C16.7209 9.99999 17.6253 10.2809 18.2921 10.781C18.9589 11.2811 19.3335 11.9594 19.3335 12.6667V14C19.3335 14.7072 18.9589 15.3855 18.2921 15.8856C17.6253 16.3857 16.7209 16.6667 15.7779 16.6667Z" fill="#0E2339"/>
<path d="M15.26 20H10.6667C10.4899 20 10.3203 19.9298 10.1953 19.8047C10.0702 19.6797 10 19.5101 10 19.3333C10 19.1565 10.0702 18.9869 10.1953 18.8619C10.3203 18.7369 10.4899 18.6667 10.6667 18.6667H15.3333C15.5101 18.6667 15.6797 18.5964 15.8047 18.4714C15.9298 18.3464 16 18.1768 16 18V16.6667H17.3333V18C17.3346 18.327 17.2556 18.6493 17.1033 18.9387C16.9511 19.2281 16.7302 19.4758 16.46 19.66C16.104 19.893 15.6853 20.0116 15.26 20Z" fill="#0E2339"/>
</svg>
