<svg width="48" height="48" viewBox="0 0 48 48" fill="none" xmlns="http://www.w3.org/2000/svg">
<path d="M38.3996 1.60001H9.59961C5.18841 1.60001 1.59961 5.18881 1.59961 9.60001V38.4C1.59961 42.8112 5.18841 46.4 9.59961 46.4H38.3996C42.8108 46.4 46.3996 42.8112 46.3996 38.4V9.60001C46.3996 5.18881 42.8108 1.60001 38.3996 1.60001ZM43.1996 9.60001V22.4H25.5996V4.80001H38.3996C41.046 4.80001 43.1996 6.95361 43.1996 9.60001ZM9.59961 4.80001H22.3996V22.4H4.79961V9.60001C4.79961 6.95361 6.95321 4.80001 9.59961 4.80001ZM4.79961 38.4V25.6H22.3996V43.2H9.59961C6.95321 43.2 4.79961 41.0464 4.79961 38.4ZM38.3996 43.2H25.5996V25.6H43.1996V38.4C43.1996 41.0464 41.046 43.2 38.3996 43.2Z" fill="#0E2339"/>
<path d="M11.1996 16H12.7996V17.6C12.7996 18.0244 12.9682 18.4313 13.2682 18.7314C13.5683 19.0314 13.9753 19.2 14.3996 19.2C14.824 19.2 15.2309 19.0314 15.531 18.7314C15.831 18.4313 15.9996 18.0244 15.9996 17.6V16H17.5996C18.024 16 18.4309 15.8314 18.731 15.5314C19.031 15.2313 19.1996 14.8244 19.1996 14.4C19.1996 13.9757 19.031 13.5687 18.731 13.2686C18.4309 12.9686 18.024 12.8 17.5996 12.8H15.9996V11.2C15.9996 10.7757 15.831 10.3687 15.531 10.0686C15.2309 9.76858 14.824 9.60001 14.3996 9.60001C13.9753 9.60001 13.5683 9.76858 13.2682 10.0686C12.9682 10.3687 12.7996 10.7757 12.7996 11.2V12.8H11.1996C10.7753 12.8 10.3683 12.9686 10.0682 13.2686C9.76818 13.5687 9.59961 13.9757 9.59961 14.4C9.59961 14.8244 9.76818 15.2313 10.0682 15.5314C10.3683 15.8314 10.7753 16 11.1996 16ZM30.3996 16H36.7996C37.224 16 37.6309 15.8314 37.931 15.5314C38.231 15.2313 38.3996 14.8244 38.3996 14.4C38.3996 13.9757 38.231 13.5687 37.931 13.2686C37.6309 12.9686 37.224 12.8 36.7996 12.8H30.3996C29.9753 12.8 29.5683 12.9686 29.2682 13.2686C28.9682 13.5687 28.7996 13.9757 28.7996 14.4C28.7996 14.8244 28.9682 15.2313 29.2682 15.5314C29.5683 15.8314 29.9753 16 30.3996 16ZM36.7996 28.8H30.3996C29.9753 28.8 29.5683 28.9686 29.2682 29.2686C28.9682 29.5687 28.7996 29.9757 28.7996 30.4C28.7996 30.8244 28.9682 31.2313 29.2682 31.5314C29.5683 31.8314 29.9753 32 30.3996 32H36.7996C37.224 32 37.6309 31.8314 37.931 31.5314C38.231 31.2313 38.3996 30.8244 38.3996 30.4C38.3996 29.9757 38.231 29.5687 37.931 29.2686C37.6309 28.9686 37.224 28.8 36.7996 28.8ZM36.7996 33.6H30.3996C29.9753 33.6 29.5683 33.7686 29.2682 34.0686C28.9682 34.3687 28.7996 34.7757 28.7996 35.2C28.7996 35.6244 28.9682 36.0313 29.2682 36.3314C29.5683 36.6314 29.9753 36.8 30.3996 36.8H36.7996C37.224 36.8 37.6309 36.6314 37.931 36.3314C38.231 36.0313 38.3996 35.6244 38.3996 35.2C38.3996 34.7757 38.231 34.3687 37.931 34.0686C37.6309 33.7686 37.224 33.6 36.7996 33.6ZM16.662 33.6L18.7308 31.5312C18.8794 31.3827 18.9972 31.2063 19.0776 31.0122C19.158 30.8181 19.1994 30.6101 19.1994 30.4C19.1994 30.1899 19.158 29.9819 19.0776 29.7878C18.9972 29.5937 18.8794 29.4174 18.7308 29.2688C18.5823 29.1203 18.4059 29.0024 18.2118 28.922C18.0177 28.8416 17.8097 28.8002 17.5996 28.8002C17.3895 28.8002 17.1815 28.8416 16.9874 28.922C16.7933 29.0024 16.617 29.1203 16.4684 29.2688L14.3996 31.3376L12.3308 29.2688C12.0308 28.9688 11.6239 28.8002 11.1996 28.8002C10.7753 28.8002 10.3684 28.9688 10.0684 29.2688C9.7684 29.5688 9.59985 29.9757 9.59985 30.4C9.59985 30.8243 9.7684 31.2312 10.0684 31.5312L12.1372 33.6L10.0684 35.6688C9.7684 35.9688 9.59985 36.3757 9.59985 36.8C9.59985 37.2243 9.7684 37.6312 10.0684 37.9312C10.3684 38.2312 10.7753 38.3998 11.1996 38.3998C11.6239 38.3998 12.0308 38.2312 12.3308 37.9312L14.3996 35.8624L16.4684 37.9312C16.6167 38.0803 16.7929 38.1986 16.987 38.2794C17.1812 38.3601 17.3894 38.4017 17.5996 38.4017C17.8099 38.4017 18.018 38.3601 18.2122 38.2794C18.4063 38.1986 18.5826 38.0803 18.7308 37.9312C18.8795 37.7827 18.9975 37.6064 19.078 37.4123C19.1585 37.2182 19.1999 37.0101 19.1999 36.8C19.1999 36.5899 19.1585 36.3818 19.078 36.1877C18.9975 35.9936 18.8795 35.8173 18.7308 35.6688L16.662 33.6Z" fill="#0E2339"/>
</svg>
