<svg width="24" height="24" viewBox="0 0 24 24" fill="none" xmlns="http://www.w3.org/2000/svg">
<path d="M2.96296 21.1944V23.0646C2.96296 23.581 2.56499 23.9996 2.07407 23.9996H0.888889C0.397969 23.9996 0 23.581 0 23.0646C0 22.5481 0.397969 22.1295 0.888889 22.1295H1.18519V10.2853H0.888889C0.397969 10.2853 0 9.8667 0 9.35028C0 8.83386 0.397969 8.41522 0.888889 8.41522H2.07407C2.56499 8.41522 2.96296 8.83386 2.96296 9.35028V10.8063L4.55798 9.4319C5.40119 8.70535 6.55536 8.52505 7.56266 8.96254L10.6719 10.313C12.5486 11.1728 13.228 12.5608 12.4908 14.2455C12.3358 14.5998 12.1361 14.8857 11.8941 15.1053L13.7716 15.7334L20.4487 12.1611C21.8215 11.5072 22.9292 11.6127 23.586 12.6008C24.3985 13.8234 23.9496 15.0635 22.8092 16.179C22.3388 16.6391 19.2325 19.1212 14.5836 22.7972C13.8438 23.3821 12.8867 23.5694 11.9967 23.3033L4.94103 21.1944H2.96296ZM21.8279 1.05106C23.1438 2.45297 23.1438 4.7259 21.8279 6.12781L18.7386 9.41894C18.0443 10.1586 16.9187 10.1586 16.2244 9.41894L13.1351 6.12781C11.8192 4.7259 11.8192 2.45297 13.1351 1.05106C14.319 -0.21022 16.1648 -0.336737 17.4815 0.671511C18.7982 -0.336737 20.6439 -0.21022 21.8279 1.05106Z" fill="#0E2339"/>
</svg>
