<svg width="80" height="80" viewBox="0 0 80 80" fill="none" xmlns="http://www.w3.org/2000/svg">
<g clip-path="url(#clip0_894_1017)">
<path d="M40 80C62.0914 80 80 62.0914 80 40C80 17.9086 62.0914 0 40 0C17.9086 0 0 17.9086 0 40C0 62.0914 17.9086 80 40 80Z" fill="#FC4581"/>
<path d="M72.5239 38.75C72.7581 39.0922 72.8835 39.4971 72.8835 39.9118C72.8835 40.3264 72.7581 40.7314 72.5239 41.0735C69.1707 45.65 55.9457 62.2188 40.1442 62.2188C24.3426 62.2188 11.1176 45.65 7.76293 41.0688C7.52868 40.7267 7.40332 40.3217 7.40332 39.9071C7.40332 39.4924 7.52868 39.0875 7.76293 38.7454C11.1176 34.1641 24.3411 17.5969 40.1442 17.5969C55.9473 17.5969 69.1707 34.1641 72.5239 38.75Z" fill="#FCC8BC"/>
<path d="M72.5234 39.05C72.6377 39.162 72.7286 39.2957 72.7906 39.4433C72.8526 39.5909 72.8845 39.7493 72.8845 39.9094C72.8845 40.0694 72.8526 40.2279 72.7906 40.3755C72.7286 40.523 72.6377 40.6567 72.5234 40.7688C69.1703 44.1531 55.9453 56.3938 40.1437 56.3938C24.3422 56.3938 11.1172 44.15 7.76248 40.7656C7.64815 40.6536 7.55732 40.5199 7.49531 40.3723C7.43331 40.2248 7.40137 40.0663 7.40137 39.9062C7.40137 39.7462 7.43331 39.5877 7.49531 39.4402C7.55732 39.2926 7.64815 39.1589 7.76248 39.0469C11.1172 35.6609 24.3406 23.4219 40.1437 23.4219C55.9469 23.4219 69.1703 35.6641 72.5234 39.05Z" fill="white"/>
<path d="M34.573 55.9468C37.9995 58.3405 41.8417 60.3608 45.9495 61.4155C43.96 61.9373 41.9125 62.2051 39.8558 62.2124C24.0542 62.2124 10.8292 45.6499 7.47452 41.0624C7.24046 40.7202 7.11523 40.3153 7.11523 39.9007C7.11523 39.4861 7.24046 39.0812 7.47452 38.739C10.8292 34.164 24.062 17.5952 39.8558 17.5952C41.9125 17.6025 43.96 17.8703 45.9495 18.3921C41.8433 19.453 38.0011 21.4733 34.5745 23.8608C27.137 29.0624 21.6558 36.0218 19.662 38.7499C19.4284 39.0923 19.3034 39.4971 19.3034 39.9116C19.3034 40.3261 19.4284 40.731 19.662 41.0733C21.6558 43.7921 27.137 50.7499 34.573 55.9468Z" fill="#FAB3A7"/>
<path d="M34.5731 55.947C21.1731 53.7204 10.4481 43.7595 7.4747 40.7657C7.36056 40.6536 7.2699 40.5198 7.20802 40.3723C7.14613 40.2247 7.11426 40.0663 7.11426 39.9063C7.11426 39.7463 7.14613 39.5879 7.20802 39.4404C7.2699 39.2928 7.36056 39.1591 7.4747 39.047C10.4435 36.047 21.1731 26.0907 34.5747 23.8657C27.1372 29.0626 21.656 36.022 19.6622 38.7501C19.4286 39.0925 19.3036 39.4973 19.3036 39.9118C19.3036 40.3263 19.4286 40.7312 19.6622 41.0735C21.656 43.7923 27.1372 50.7501 34.5731 55.947Z" fill="#D8D8D8"/>
<path d="M40.1436 54.2827C48.0826 54.2827 54.5186 47.8468 54.5186 39.9077C54.5186 31.9686 48.0826 25.5327 40.1436 25.5327C32.2045 25.5327 25.7686 31.9686 25.7686 39.9077C25.7686 47.8468 32.2045 54.2827 40.1436 54.2827Z" fill="#4F4F74"/>
<path d="M38.6749 51.6109C40.1514 52.6687 41.8168 53.434 43.5811 53.8656C41.4644 54.386 39.257 54.4182 37.126 53.9597C34.995 53.5012 32.9961 52.5641 31.2806 51.2193C29.5652 49.8745 28.178 48.1572 27.2241 46.1972C26.2701 44.2372 25.7744 42.086 25.7744 39.9062C25.7744 37.7265 26.2701 35.5753 27.2241 33.6153C28.178 31.6553 29.5652 29.938 31.2806 28.5932C32.9961 27.2484 34.995 26.3113 37.126 25.8528C39.257 25.3943 41.4644 25.4265 43.5811 25.9469C41.4378 26.4745 39.4449 27.4886 37.7567 28.9106C36.0685 30.3326 34.7304 32.1242 33.8462 34.1466C32.962 36.169 32.5554 38.3679 32.6579 40.5728C32.7604 42.7776 33.3693 44.9293 34.4374 46.8609C35.4771 48.741 36.9251 50.3642 38.6749 51.6109Z" fill="#3E436D"/>
<path d="M40.1436 51.7046C46.6588 51.7046 51.9404 46.4229 51.9404 39.9077C51.9404 33.3925 46.6588 28.1108 40.1436 28.1108C33.6283 28.1108 28.3467 33.3925 28.3467 39.9077C28.3467 46.4229 33.6283 51.7046 40.1436 51.7046Z" fill="#7CC8FB"/>
<path d="M40.1441 48.9016C45.1113 48.9016 49.1379 44.8749 49.1379 39.9078C49.1379 34.9407 45.1113 30.9141 40.1441 30.9141C35.177 30.9141 31.1504 34.9407 31.1504 39.9078C31.1504 44.8749 35.177 48.9016 40.1441 48.9016Z" fill="#3586CB"/>
<path d="M38.6746 51.611C35.8232 51.2525 33.2008 49.8654 31.2997 47.7103C29.3986 45.5551 28.3496 42.7802 28.3496 39.9063C28.3496 37.0325 29.3986 34.2576 31.2997 32.1024C33.2008 29.9473 35.8232 28.5602 38.6746 28.2017C36.8098 29.5312 35.2896 31.2871 34.2408 33.323C33.1919 35.359 32.6447 37.6161 32.6447 39.9063C32.6447 42.1966 33.1919 44.4537 34.2408 46.4896C35.2896 48.5256 36.8098 50.2815 38.6746 51.611Z" fill="#41C0E3"/>
<path d="M34.4377 46.8608C33.4097 46.017 32.5815 44.9558 32.0129 43.7535C31.4443 42.5511 31.1494 41.2377 31.1494 39.9077C31.1494 38.5777 31.4443 37.2643 32.0129 36.062C32.5815 34.8597 33.4097 33.7984 34.4377 32.9546C33.2613 35.0833 32.6443 37.4756 32.6443 39.9077C32.6443 42.3398 33.2613 44.7322 34.4377 46.8608Z" fill="#366FCA"/>
<path d="M40.1436 42.0952C41.3517 42.0952 42.3311 41.1158 42.3311 39.9077C42.3311 38.6996 41.3517 37.7202 40.1436 37.7202C38.9354 37.7202 37.9561 38.6996 37.9561 39.9077C37.9561 41.1158 38.9354 42.0952 40.1436 42.0952Z" fill="#27273D"/>
<path d="M40.1441 30.2031C39.9784 30.2031 39.8194 30.1373 39.7022 30.0201C39.585 29.9029 39.5191 29.7439 39.5191 29.5781V26.9219C39.5191 26.7561 39.585 26.5971 39.7022 26.4799C39.8194 26.3627 39.9784 26.2969 40.1441 26.2969C40.3099 26.2969 40.4689 26.3627 40.5861 26.4799C40.7033 26.5971 40.7691 26.7561 40.7691 26.9219V29.5781C40.7691 29.7439 40.7033 29.9029 40.5861 30.0201C40.4689 30.1373 40.3099 30.2031 40.1441 30.2031ZM32.841 33.2297C32.7588 33.2295 32.6774 33.2132 32.6016 33.1816C32.5257 33.1499 32.4568 33.1036 32.3988 33.0453L30.5238 31.1703C30.4611 31.1135 30.4106 31.0445 30.3753 30.9675C30.34 30.8905 30.3208 30.8072 30.3187 30.7225C30.3166 30.6379 30.3317 30.5537 30.3632 30.4751C30.3946 30.3965 30.4417 30.3251 30.5015 30.2652C30.5614 30.2053 30.6328 30.1583 30.7114 30.1268C30.79 30.0954 30.8742 30.0803 30.9589 30.0823C31.0435 30.0844 31.1268 30.1037 31.2038 30.139C31.2808 30.1742 31.3498 30.2248 31.4066 30.2875L33.2816 32.1625C33.3691 32.2498 33.4286 32.3611 33.4528 32.4822C33.477 32.6034 33.4648 32.729 33.4176 32.8432C33.3705 32.9574 33.2905 33.0551 33.1879 33.1239C33.0853 33.1927 32.9646 33.2295 32.841 33.2297ZM29.8145 40.5328H27.1582C26.9924 40.5328 26.8335 40.467 26.7163 40.3498C26.5991 40.2325 26.5332 40.0736 26.5332 39.9078C26.5332 39.7421 26.5991 39.5831 26.7163 39.4659C26.8335 39.3487 26.9924 39.2828 27.1582 39.2828H29.8145C29.9802 39.2828 30.1392 39.3487 30.2564 39.4659C30.3736 39.5831 30.4395 39.7421 30.4395 39.9078C30.4395 40.0736 30.3736 40.2325 30.2564 40.3498C30.1392 40.467 29.9802 40.5328 29.8145 40.5328ZM30.9613 49.7141C30.8378 49.7139 30.7171 49.677 30.6144 49.6082C30.5118 49.5394 30.4319 49.4418 30.3847 49.3276C30.3376 49.2134 30.3253 49.0878 30.3495 48.9666C30.3737 48.8455 30.4333 48.7342 30.5207 48.6469L32.3957 46.7719C32.4538 46.7137 32.5227 46.6675 32.5986 46.636C32.6746 46.6045 32.7559 46.5882 32.8381 46.5882C32.9203 46.5881 33.0017 46.6042 33.0777 46.6356C33.1536 46.667 33.2227 46.713 33.2809 46.7711C33.339 46.8292 33.3852 46.8981 33.4167 46.974C33.4482 47.0499 33.4645 47.1313 33.4646 47.2135C33.4646 47.2957 33.4485 47.3771 33.4171 47.4531C33.3858 47.529 33.3397 47.5981 33.2816 47.6562L31.4066 49.5312C31.3482 49.5896 31.2787 49.6359 31.2023 49.6672C31.1259 49.6986 31.044 49.7145 30.9613 49.7141ZM40.1441 53.5172C39.9784 53.5172 39.8194 53.4513 39.7022 53.3341C39.585 53.2169 39.5191 53.0579 39.5191 52.8922V50.2359C39.5191 50.0702 39.585 49.9112 39.7022 49.794C39.8194 49.6768 39.9784 49.6109 40.1441 49.6109C40.3099 49.6109 40.4689 49.6768 40.5861 49.794C40.7033 49.9112 40.7691 50.0702 40.7691 50.2359V52.8922C40.7691 53.0579 40.7033 53.2169 40.5861 53.3341C40.4689 53.4513 40.3099 53.5172 40.1441 53.5172ZM49.3254 49.7141C49.2433 49.7141 49.162 49.698 49.0861 49.6666C49.0102 49.6353 48.9413 49.5893 48.8832 49.5312L47.0082 47.6562C46.8909 47.539 46.825 47.3799 46.825 47.2141C46.825 47.0482 46.8909 46.8891 47.0082 46.7719C47.1255 46.6546 47.2845 46.5887 47.4504 46.5887C47.6162 46.5887 47.7753 46.6546 47.8926 46.7719L49.7676 48.6469C49.8551 48.7343 49.9147 48.8457 49.9388 48.967C49.963 49.0883 49.9506 49.214 49.9033 49.3283C49.8559 49.4426 49.7758 49.5402 49.6729 49.6089C49.57 49.6776 49.4491 49.7142 49.3254 49.7141ZM53.1254 40.5328H50.4691C50.3034 40.5328 50.1444 40.467 50.0272 40.3498C49.91 40.2325 49.8441 40.0736 49.8441 39.9078C49.8441 39.7421 49.91 39.5831 50.0272 39.4659C50.1444 39.3487 50.3034 39.2828 50.4691 39.2828H53.1254C53.2912 39.2828 53.4501 39.3487 53.5673 39.4659C53.6845 39.5831 53.7504 39.7421 53.7504 39.9078C53.7504 40.0736 53.6845 40.2325 53.5673 40.3498C53.4501 40.467 53.2912 40.5328 53.1254 40.5328ZM47.4473 33.2297C47.3236 33.2298 47.2026 33.1932 47.0998 33.1245C46.9969 33.0558 46.9167 32.9582 46.8694 32.8439C46.822 32.7297 46.8097 32.6039 46.8338 32.4826C46.858 32.3613 46.9176 32.2499 47.0051 32.1625L48.8801 30.2875C48.9375 30.227 49.0064 30.1785 49.0828 30.1451C49.1593 30.1116 49.2416 30.0938 49.325 30.0926C49.4084 30.0915 49.4912 30.1071 49.5685 30.1384C49.6458 30.1698 49.7161 30.2163 49.7751 30.2753C49.8342 30.3342 49.8808 30.4044 49.9123 30.4816C49.9438 30.5588 49.9595 30.6416 49.9585 30.725C49.9575 30.8084 49.9398 30.8908 49.9065 30.9673C49.8732 31.0438 49.8249 31.1128 49.7645 31.1703L47.8895 33.0453C47.8315 33.1036 47.7626 33.1499 47.6867 33.1816C47.6109 33.2132 47.5295 33.2295 47.4473 33.2297Z" fill="#C2E9FF"/>
<path d="M42.1123 40.2969C42.8544 40.2969 43.4561 39.6953 43.4561 38.9531C43.4561 38.211 42.8544 37.6094 42.1123 37.6094C41.3702 37.6094 40.7686 38.211 40.7686 38.9531C40.7686 39.6953 41.3702 40.2969 42.1123 40.2969Z" fill="white"/>
<path d="M46.2799 38.4218C47.9419 38.4218 49.2893 37.0745 49.2893 35.4125C49.2893 33.7504 47.9419 32.4031 46.2799 32.4031C44.6179 32.4031 43.2705 33.7504 43.2705 35.4125C43.2705 37.0745 44.6179 38.4218 46.2799 38.4218Z" fill="white"/>
</g>
<defs>
<clipPath id="clip0_894_1017">
<rect width="80" height="80" fill="white"/>
</clipPath>
</defs>
</svg>
