<svg width="32" height="32" viewBox="0 0 32 32" fill="none" xmlns="http://www.w3.org/2000/svg">
<path d="M29.8 8.4C29.7069 8.2758 29.5861 8.175 29.4472 8.10557C29.3084 8.03614 29.1552 8 29 8H13.62C13.3548 8 13.1004 8.10536 12.9129 8.29289C12.7254 8.48043 12.62 8.73478 12.62 9C12.62 9.26521 12.7254 9.51957 12.9129 9.7071C13.1004 9.89464 13.3548 10 13.62 10H27.62L25.23 17.92H12.78L10 6.72C9.93765 6.50556 9.80531 6.31816 9.62407 6.18767C9.44284 6.05718 9.22315 5.99112 9 6H4C3.73478 6 3.48043 6.10536 3.29289 6.29289C3.10536 6.48043 3 6.73478 3 7C3 7.26521 3.10536 7.51957 3.29289 7.7071C3.48043 7.89464 3.73478 8 4 8H8.22L11 19.17C11.0567 19.39 11.1866 19.5842 11.3684 19.7205C11.5501 19.8568 11.7729 19.9272 12 19.92H26C26.2219 19.9295 26.4406 19.8648 26.6216 19.7363C26.8027 19.6077 26.9358 19.4226 27 19.21L30 9.29C30.0396 9.13642 30.0422 8.97562 30.0074 8.82086C29.9726 8.66611 29.9015 8.52185 29.8 8.4ZM23.79 22.07C23.1661 22.068 22.5557 22.2513 22.0362 22.5967C21.5167 22.9421 21.1114 23.4339 20.8717 24.0099C20.6321 24.5859 20.5688 25.2201 20.6901 25.8321C20.8113 26.444 21.1115 27.0062 21.5526 27.4474C21.9938 27.8885 22.556 28.1887 23.1679 28.3099C23.7799 28.4312 24.4141 28.3679 24.9901 28.1283C25.5661 27.8886 26.0579 27.4833 26.4033 26.9638C26.7487 26.4443 26.932 25.8339 26.93 25.21C26.9274 24.378 26.5957 23.5809 26.0074 22.9926C25.4191 22.4043 24.622 22.0726 23.79 22.07ZM23.79 26.36C23.6306 26.3749 23.4699 26.3564 23.3181 26.3056C23.1664 26.2549 23.0268 26.173 22.9085 26.0652C22.7902 25.9574 22.6956 25.8261 22.631 25.6797C22.5663 25.5333 22.5329 25.375 22.5329 25.215C22.5329 25.0549 22.5663 24.8967 22.631 24.7503C22.6956 24.6039 22.7902 24.4726 22.9085 24.3648C23.0268 24.257 23.1664 24.1751 23.3181 24.1244C23.4699 24.0736 23.6306 24.0551 23.79 24.07C24.0752 24.0967 24.3402 24.2288 24.5331 24.4406C24.726 24.6524 24.8329 24.9285 24.8329 25.215C24.8329 25.5015 24.726 25.7776 24.5331 25.9894C24.3402 26.2011 24.0752 26.3333 23.79 26.36ZM15.21 22.07C14.5866 22.07 13.9771 22.255 13.4589 22.6016C12.9407 22.9481 12.537 23.4407 12.2988 24.0169C12.0607 24.593 11.9989 25.2269 12.1213 25.8382C12.2436 26.4495 12.5446 27.0108 12.9862 27.4509C13.4277 27.8911 13.9899 28.1903 14.6016 28.3107C15.2133 28.4311 15.847 28.3673 16.4224 28.1273C16.9978 27.8874 17.4891 27.4821 17.834 26.9628C18.1789 26.4434 18.362 25.8334 18.36 25.21C18.3574 24.3763 18.0243 23.5777 17.4339 22.9891C16.8434 22.4005 16.0437 22.07 15.21 22.07ZM15.21 26.36C14.9826 26.36 14.7602 26.2926 14.5711 26.1662C14.382 26.0398 14.2346 25.8602 14.1475 25.6501C14.0605 25.4399 14.0377 25.2087 14.0821 24.9856C14.1265 24.7626 14.236 24.5577 14.3968 24.3968C14.5577 24.236 14.7626 24.1265 14.9856 24.0821C15.2087 24.0377 15.44 24.0605 15.6501 24.1475C15.8602 24.2346 16.0398 24.382 16.1662 24.5711C16.2926 24.7602 16.36 24.9825 16.36 25.21C16.36 25.515 16.2388 25.8075 16.0232 26.0232C15.8075 26.2388 15.515 26.36 15.21 26.36Z" fill="#0E2339"/>
<path d="M23 15C23.2652 15 23.5196 14.8946 23.7071 14.7071C23.8946 14.5196 24 14.2652 24 14C24 13.7348 23.8946 13.4804 23.7071 13.2929C23.5196 13.1054 23.2652 13 23 13H16C15.7348 13 15.4804 13.1054 15.2929 13.2929C15.1054 13.4804 15 13.7348 15 14C15 14.2652 15.1054 14.5196 15.2929 14.7071C15.4804 14.8946 15.7348 15 16 15H23Z" fill="#0E2339"/>
</svg>
