<svg width="32" height="32" viewBox="0 0 32 32" fill="none" xmlns="http://www.w3.org/2000/svg">
<circle cx="16" cy="16" r="15.5" stroke="#5F3C08"/>
<g clip-path="url(#clip0_202_1860)">
<path d="M16.939 15.9987L19.8028 13.1416C19.9282 13.0162 19.9987 12.8461 19.9987 12.6687C19.9987 12.4914 19.9282 12.3213 19.8028 12.1959C19.6774 12.0705 19.5073 12 19.33 12C19.1526 12 18.9825 12.0705 18.8571 12.1959L15.9999 15.0597L13.1428 12.1959C13.0174 12.0705 12.8473 12 12.6699 12C12.4926 12 12.3225 12.0705 12.1971 12.1959C12.0717 12.3213 12.0012 12.4914 12.0012 12.6687C12.0012 12.8461 12.0717 13.0162 12.1971 13.1416L15.0609 15.9987L12.1971 18.8559C12.0717 18.9813 12.0012 19.1514 12.0012 19.3287C12.0012 19.5061 12.0717 19.6762 12.1971 19.8016C12.3225 19.927 12.4926 19.9975 12.6699 19.9975C12.8473 19.9975 13.0174 19.927 13.1428 19.8016L15.9999 16.9378L18.8571 19.8016C18.9825 19.927 19.1526 19.9975 19.33 19.9975C19.5073 19.9975 19.6774 19.927 19.8028 19.8016C19.9282 19.6762 19.9987 19.5061 19.9987 19.3287C19.9987 19.1514 19.9282 18.9813 19.8028 18.8559L16.939 15.9987Z" fill="#5F3C08"/>
</g>
<defs>
<clipPath id="clip0_202_1860">
<rect width="8" height="7.99867" fill="white" transform="translate(12 12)"/>
</clipPath>
</defs>
</svg>
