<svg width="33" height="7" viewBox="0 0 33 7" fill="none" xmlns="http://www.w3.org/2000/svg">
<path d="M32.1909 3.2851L29.9219 3.08511L29.0349 0.996094L28.1479 3.08511L25.8789 3.2851L27.5989 4.7771L27.0849 6.99512L29.0349 5.81812L30.9849 6.99512L30.4669 4.7771L32.1909 3.2851Z" fill="#FDD48E"/>
<path d="M23.5688 3.2851L21.2998 3.08511L20.4128 0.996094L19.5258 3.08511L17.2568 3.2851L18.9768 4.7771L18.4628 6.99512L20.4128 5.81812L22.3629 6.99512L21.8448 4.7771L23.5688 3.2851Z" fill="#FDD48E"/>
<path d="M14.9448 3.2851L12.6758 3.08511L11.7888 0.996094L10.9018 3.08511L8.63281 3.2851L10.3528 4.7771L9.83881 6.99512L11.7888 5.81812L13.7388 6.99512L13.2208 4.7771L14.9448 3.2851Z" fill="#FDD48E"/>
<path d="M6.31982 3.2851L4.05078 3.08511L3.16382 0.996094L2.27679 3.08511L0.0078125 3.2851L1.72778 4.7771L1.21381 6.99512L3.16382 5.81812L5.11383 6.99512L4.59583 4.7771L6.31982 3.2851Z" fill="#FDD48E"/>
</svg>
