<svg width="22" height="24" viewBox="0 0 22 24" fill="none" xmlns="http://www.w3.org/2000/svg">
<path d="M17.0722 0.624001H4.92823C2.24023 0.624001 0.0322266 2.808 0.0322266 5.52V14.04C0.0322266 16.752 2.21623 18.936 4.92823 18.936H6.08023V22.68C6.08023 23.28 6.80023 23.592 7.25623 23.184L11.7922 18.936H17.0482C19.7602 18.936 21.9442 16.752 21.9442 14.04V5.52C21.9682 2.808 19.7602 0.624001 17.0722 0.624001ZM7.73623 14.544C7.73623 14.832 7.47223 15.048 7.16023 15.048H6.46423C6.20023 15.048 5.96023 14.88 5.88823 14.64L4.40023 8.784C4.32823 8.472 4.59223 8.16 4.97623 8.16H7.13623C7.44823 8.16 7.71223 8.4 7.71223 8.664V14.544H7.73623ZM17.8162 10.056L16.4962 13.8C16.2322 14.568 15.5842 15.048 14.8402 15.048H10.3762C9.39223 15.048 8.60023 14.16 8.60023 13.08V8.352C8.60023 8.208 8.64823 8.064 8.69623 7.92L10.5922 4.272C10.7362 3.984 11.0242 3.816 11.3122 3.816C11.3842 3.816 11.4562 3.816 11.5282 3.84C11.9362 3.96 12.2002 4.392 12.1522 4.848L11.9122 6.888C11.8642 7.392 12.2242 7.848 12.6802 7.848H16.4482C17.4802 7.872 18.1762 9 17.8162 10.056Z" fill="#2B3344"/>
</svg>
