<svg width="41" height="7" viewBox="0 0 41 7" fill="none" xmlns="http://www.w3.org/2000/svg">
<path d="M40.813 3.28412L38.5439 3.08414L37.657 0.995117L36.77 3.08414L34.501 3.28412L36.2209 4.77612L35.707 6.99414L37.657 5.81714L39.607 6.99414L39.089 4.77612L40.813 3.28412Z" fill="#FDD48E"/>
<path d="M32.1919 3.28412L29.9229 3.08414L29.0359 0.995117L28.1489 3.08414L25.8799 3.28412L27.5999 4.77612L27.0859 6.99414L29.0359 5.81714L30.9859 6.99414L30.4679 4.77612L32.1919 3.28412Z" fill="#FDD48E"/>
<path d="M23.5669 3.28412L21.2979 3.08414L20.4109 0.995117L19.5239 3.08414L17.2549 3.28412L18.9749 4.77612L18.4609 6.99414L20.4109 5.81714L22.3609 6.99414L21.8429 4.77612L23.5669 3.28412Z" fill="#FDD48E"/>
<path d="M14.9429 3.28412L12.6738 3.08414L11.7869 0.995117L10.8998 3.08414L8.63086 3.28412L10.3508 4.77612L9.83685 6.99414L11.7869 5.81714L13.7369 6.99414L13.2189 4.77612L14.9429 3.28412Z" fill="#FDD48E"/>
<path d="M6.3208 3.28412L4.05176 3.08414L3.16479 0.995117L2.27777 3.08414L0.00878906 3.28412L1.72876 4.77612L1.21478 6.99414L3.16479 5.81714L5.11481 6.99414L4.5968 4.77612L6.3208 3.28412Z" fill="#FDD48E"/>
</svg>
