<svg width="64" height="64" viewBox="0 0 64 64" fill="none" xmlns="http://www.w3.org/2000/svg">
<path d="M61.9069 56.1153H17.1692C16.1506 56.1153 15.322 55.2867 15.322 54.2681V54.0084C15.3216 53.6493 15.1788 53.305 14.9249 53.051C14.6709 52.797 14.3266 52.6541 13.9674 52.6536H2.09299C1.07465 52.6536 0.246094 51.8251 0.246094 50.8067V50.1145C0.246094 49.096 1.07465 48.2674 2.09299 48.2674H11.8343C12.1934 48.267 12.5378 48.1242 12.7918 47.8702C13.0458 47.6163 13.1887 47.272 13.1891 46.9128C13.1887 46.5536 13.0459 46.2092 12.7919 45.9552C12.5379 45.7012 12.1935 45.5584 11.8343 45.558H5.83305C4.81471 45.558 3.98616 44.7294 3.98616 43.7111V37.1728C3.98616 36.1542 4.81471 35.3256 5.83329 35.3256H12.8684C13.2302 35.3256 13.5706 35.1846 13.8264 34.9288L22.973 25.7822C23.0991 25.6567 23.1991 25.5075 23.2672 25.3431C23.3353 25.1787 23.37 25.0024 23.3695 24.8245V15.7881C23.3691 15.429 23.2263 15.0846 22.9724 14.8307C22.7184 14.5767 22.3741 14.4338 22.015 14.4333H18.8132C17.7946 14.4333 16.9661 13.6048 16.9661 12.5862V11.8669C16.9661 10.8483 17.7946 10.0198 18.8132 10.0198H48.2906C49.309 10.0198 50.1375 10.8483 50.1375 11.8669V14.6379C50.138 14.997 50.2809 15.3413 50.5348 15.5952C50.7887 15.8491 51.133 15.992 51.4921 15.9925H56.4551C57.4737 15.9925 58.3022 16.821 58.3022 17.8396V22.3565C58.3022 23.3746 57.4737 24.2032 56.4551 24.2032H44.9415C44.2742 24.2032 43.8574 24.6352 43.6898 25.0396C43.5224 25.4438 43.5116 26.0439 43.9834 26.516L48.4154 30.948C48.5875 31.1191 48.7239 31.3226 48.8168 31.5467C48.9096 31.7709 48.9571 32.0112 48.9565 32.2539V48.9896C48.9569 49.3488 49.0998 49.6931 49.3538 49.947C49.6078 50.201 49.9522 50.3438 50.3113 50.3442H61.9069C62.9252 50.3442 63.7538 51.173 63.7538 52.1911V54.2681C63.7538 55.2867 62.9252 56.1153 61.9069 56.1153ZM2.09299 48.7597C1.73383 48.7602 1.38951 48.9031 1.13557 49.1571C0.881625 49.411 0.738792 49.7554 0.738401 50.1145V50.8067C0.738857 51.1658 0.881719 51.5101 1.13565 51.7641C1.38959 52.018 1.73387 52.1609 2.09299 52.1613H13.9674C14.9858 52.1613 15.8143 52.9899 15.8143 54.0084V54.2681C15.8147 54.6273 15.9576 54.9717 16.2116 55.2257C16.4656 55.4797 16.81 55.6226 17.1692 55.623H61.9069C62.266 55.6225 62.6104 55.4796 62.8643 55.2256C63.1183 54.9716 63.2611 54.6273 63.2615 54.2681V52.1911C63.261 51.832 63.1182 51.4877 62.8642 51.2338C62.6103 50.9798 62.266 50.837 61.9069 50.8365H50.3113C49.2927 50.8365 48.4642 50.008 48.4642 48.9896V32.2536C48.4642 31.8918 48.3234 31.5516 48.0674 31.2958L43.6354 26.8638C43.097 26.3255 42.9437 25.5543 43.2351 24.8508C43.5263 24.1478 44.1804 23.7106 44.9415 23.7106H56.4551C56.8142 23.7102 57.1586 23.5674 57.4126 23.3134C57.6666 23.0595 57.8094 22.7152 57.8099 22.356V17.8391C57.8094 17.4799 57.6666 17.1356 57.4126 16.8817C57.1586 16.6277 56.8142 16.4849 56.4551 16.4845H51.4921C50.4738 16.4845 49.6452 15.656 49.6452 14.6376V11.8669C49.6448 11.5078 49.502 11.1634 49.2481 10.9094C48.9941 10.6554 48.6498 10.5125 48.2906 10.5121H18.8132C18.454 10.5125 18.1096 10.6553 17.8557 10.9093C17.6017 11.1633 17.4588 11.5077 17.4584 11.8669V12.5862C17.4588 12.9454 17.6017 13.2898 17.8557 13.5438C18.1096 13.7977 18.454 13.9406 18.8132 13.941H22.015C23.0333 13.941 23.8618 14.7696 23.8618 15.7881V24.8245C23.8618 25.3177 23.6698 25.7815 23.321 26.1303L14.1745 35.2771C14.0033 35.4492 13.7998 35.5855 13.5756 35.6784C13.3514 35.7712 13.111 35.8186 12.8684 35.8179H5.83329C5.47409 35.8183 5.12971 35.9612 4.87572 36.2152C4.62172 36.4692 4.47885 36.8136 4.47846 37.1728V43.7111C4.47892 44.0703 4.62181 44.4146 4.8758 44.6685C5.12979 44.9225 5.47413 45.0653 5.83329 45.0657H11.8345C12.8526 45.0657 13.6814 45.8942 13.6814 46.9128C13.6814 47.9312 12.8526 48.7597 11.8343 48.7597H2.09299ZM6.45975 17.9033C6.42775 17.9033 6.39576 17.8984 6.36622 17.8861C6.33668 17.8738 6.3096 17.8541 6.28745 17.832C6.26283 17.8098 6.2456 17.7827 6.23329 17.7507C6.22044 17.7212 6.21374 17.6894 6.2136 17.6572C6.2136 17.6424 6.21606 17.6252 6.21852 17.6104C6.22345 17.5932 6.22591 17.5784 6.23329 17.5637C6.24068 17.5489 6.24806 17.5341 6.25545 17.5218C6.26529 17.507 6.27514 17.4947 6.28745 17.4849C6.35391 17.416 6.46222 17.3913 6.55575 17.4307C6.58529 17.443 6.61237 17.4603 6.63452 17.4849C6.64683 17.4947 6.65668 17.507 6.66406 17.5218C6.67391 17.5341 6.68129 17.5489 6.68868 17.5637C6.6936 17.5784 6.69852 17.5932 6.70099 17.6104C6.70591 17.6252 6.70591 17.6424 6.70591 17.6572C6.70672 17.6897 6.7008 17.722 6.68851 17.752C6.67622 17.7821 6.65784 17.8093 6.63452 17.832C6.61237 17.8541 6.58529 17.8738 6.55575 17.8861C6.52622 17.8984 6.49422 17.9033 6.45975 17.9033ZM10.8098 17.9038H7.58148C7.51619 17.9038 7.45358 17.8779 7.40742 17.8317C7.36126 17.7856 7.33532 17.723 7.33532 17.6577C7.33532 17.5924 7.36126 17.5298 7.40742 17.4836C7.45358 17.4375 7.51619 17.4115 7.58148 17.4115H10.8098C10.8751 17.4115 10.9377 17.4375 10.9838 17.4836C11.03 17.5298 11.0559 17.5924 11.0559 17.6577C11.0559 17.723 11.03 17.7856 10.9838 17.8317C10.9377 17.8779 10.8751 17.9038 10.8098 17.9038Z" fill="#EDF5F9"/>
<path d="M59.1353 40.9737C59.07 40.9737 59.0074 40.9478 58.9613 40.9016C58.9151 40.8555 58.8892 40.7929 58.8892 40.7276V39.5953C58.8892 39.53 58.9151 39.4674 58.9613 39.4212C59.0074 39.3751 59.07 39.3491 59.1353 39.3491C59.2006 39.3491 59.2632 39.3751 59.3094 39.4212C59.3555 39.4674 59.3815 39.53 59.3815 39.5953V40.7276C59.3815 40.7929 59.3555 40.8555 59.3094 40.9016C59.2632 40.9478 59.2006 40.9737 59.1353 40.9737Z" fill="#EDF5F9"/>
<path d="M59.7016 40.4077H58.5693C58.504 40.4077 58.4414 40.3818 58.3952 40.3357C58.3491 40.2895 58.3232 40.2269 58.3232 40.1616C58.3232 40.0963 58.3491 40.0337 58.3952 39.9875C58.4414 39.9414 58.504 39.9154 58.5693 39.9154H59.7016C59.7669 39.9154 59.8295 39.9414 59.8757 39.9875C59.9218 40.0337 59.9478 40.0963 59.9478 40.1616C59.9478 40.2269 59.9218 40.2895 59.8757 40.3357C59.8295 40.3818 59.7669 40.4077 59.7016 40.4077ZM52.252 13.0135C52.1867 13.0135 52.1241 12.9876 52.078 12.9414C52.0318 12.8953 52.0059 12.8327 52.0059 12.7674V11.6351C52.0059 11.5698 52.0318 11.5072 52.078 11.461C52.1241 11.4149 52.1867 11.3889 52.252 11.3889C52.3173 11.3889 52.3799 11.4149 52.4261 11.461C52.4722 11.5072 52.4982 11.5698 52.4982 11.6351V12.7674C52.4982 12.8327 52.4722 12.8953 52.4261 12.9414C52.3799 12.9876 52.3173 13.0135 52.252 13.0135Z" fill="#EDF5F9"/>
<path d="M52.818 12.4471H51.6856C51.6204 12.4471 51.5578 12.4212 51.5116 12.375C51.4654 12.3289 51.4395 12.2663 51.4395 12.201C51.4395 12.1357 51.4654 12.0731 51.5116 12.0269C51.5578 11.9808 51.6204 11.9548 51.6856 11.9548H52.818C52.8832 11.9548 52.9458 11.9808 52.992 12.0269C53.0382 12.0731 53.0641 12.1357 53.0641 12.201C53.0641 12.2663 53.0382 12.3289 52.992 12.375C52.9458 12.4212 52.8832 12.4471 52.818 12.4471ZM5.38238 27.7259C5.3171 27.7259 5.25449 27.7 5.20833 27.6538C5.16216 27.6077 5.13623 27.545 5.13623 27.4798V26.3474C5.13623 26.2822 5.16216 26.2196 5.20833 26.1734C5.25449 26.1272 5.3171 26.1013 5.38238 26.1013C5.44767 26.1013 5.51028 26.1272 5.55644 26.1734C5.6026 26.2196 5.62854 26.2822 5.62854 26.3474V27.4798C5.62854 27.545 5.6026 27.6077 5.55644 27.6538C5.51028 27.7 5.44767 27.7259 5.38238 27.7259Z" fill="#EDF5F9"/>
<path d="M5.94853 27.1599H4.81622C4.75094 27.1599 4.68833 27.134 4.64216 27.0878C4.596 27.0416 4.57007 26.979 4.57007 26.9137C4.57007 26.8484 4.596 26.7858 4.64216 26.7397C4.68833 26.6935 4.75094 26.6676 4.81622 26.6676H5.94853C6.01381 26.6676 6.07642 26.6935 6.12259 26.7397C6.16875 26.7858 6.19468 26.8484 6.19468 26.9137C6.19468 26.979 6.16875 27.0416 6.12259 27.0878C6.07642 27.134 6.01381 27.1599 5.94853 27.1599ZM62.5499 44.7747C62.3161 44.7745 62.0919 44.6815 61.9265 44.5161C61.7612 44.3507 61.6683 44.1265 61.6682 43.8927C61.6685 43.659 61.7615 43.435 61.9268 43.2697C62.0921 43.1045 62.3162 43.0116 62.5499 43.0115C62.7835 43.0117 63.0076 43.1046 63.1728 43.2698C63.3381 43.435 63.431 43.659 63.4314 43.8927C63.4312 44.1264 63.3382 44.3505 63.173 44.5159C63.0077 44.6812 62.7836 44.7741 62.5499 44.7744V44.7747ZM62.5499 43.5035C62.3352 43.5035 62.1605 43.6783 62.1605 43.8927C62.1605 44.1071 62.3352 44.2821 62.5499 44.2821C62.7645 44.2821 62.9391 44.1073 62.9391 43.8927C62.9391 43.678 62.7643 43.5035 62.5499 43.5035ZM12.8933 24.5324C12.6595 24.5322 12.4353 24.4393 12.27 24.274C12.1047 24.1087 12.0117 23.8845 12.0115 23.6507C12.0115 23.1643 12.4069 22.769 12.893 22.769C13.3792 22.769 13.7747 23.1643 13.7747 23.6507C13.7744 23.8844 13.6814 24.1085 13.5161 24.2737C13.3508 24.439 13.1267 24.5319 12.893 24.5322L12.8933 24.5324ZM12.8933 23.2613C12.6784 23.2613 12.5039 23.4361 12.5039 23.6507C12.5082 23.751 12.5511 23.8458 12.6237 23.9152C12.6962 23.9847 12.7927 24.0234 12.8931 24.0234C12.9936 24.0234 13.0901 23.9847 13.1626 23.9152C13.2351 23.8458 13.2781 23.751 13.2824 23.6507C13.2824 23.4361 13.1077 23.2613 12.893 23.2613H12.8933ZM40.3547 8.43299C40.1547 8.4328 39.9629 8.35329 39.8214 8.2119C39.6799 8.07052 39.6003 7.87879 39.6 7.67878C39.6002 7.47872 39.6798 7.28693 39.8213 7.14549C39.9628 7.00405 40.1546 6.92451 40.3547 6.92432C40.5547 6.92458 40.7465 7.00415 40.8879 7.14558C41.0293 7.28701 41.1089 7.47876 41.1091 7.67878C41.109 7.87881 41.0294 8.0706 40.888 8.21205C40.7465 8.35349 40.5547 8.4328 40.3547 8.43299ZM40.3547 7.41638C40.3028 7.41633 40.252 7.43168 40.2088 7.4605C40.1656 7.48931 40.132 7.53029 40.1121 7.57825C40.0922 7.62621 40.087 7.67899 40.0971 7.72991C40.1072 7.78083 40.1322 7.82761 40.1689 7.86432C40.2056 7.90104 40.2524 7.92603 40.3033 7.93615C40.3542 7.94627 40.407 7.94105 40.455 7.92116C40.5029 7.90127 40.5439 7.8676 40.5727 7.82441C40.6015 7.78122 40.6169 7.73045 40.6168 7.67853C40.6168 7.53404 40.4992 7.41638 40.3547 7.41638Z" fill="#EDF5F9"/>
<path d="M55.165 27.6398V48.5683C55.1653 48.8956 55.101 49.2198 54.9758 49.5223C54.8506 49.8248 54.667 50.0996 54.4356 50.3311C54.2041 50.5626 53.9293 50.7461 53.6268 50.8713C53.3243 50.9965 53.0001 51.0608 52.6727 51.0606H49.5109V52.3649H51.9823V56.8282H49.5109L42.6762 51.0608H31.7469C31.4195 51.0611 31.0953 50.9968 30.7928 50.8716C30.4903 50.7464 30.2154 50.5628 29.9839 50.3313C29.7524 50.0998 29.5688 49.825 29.4436 49.5224C29.3184 49.2199 29.2541 48.8957 29.2544 48.5683V27.6398C29.2542 27.3124 29.3185 26.9882 29.4437 26.6857C29.5689 26.3832 29.7525 26.1083 29.984 25.8768C30.2155 25.6454 30.4903 25.4618 30.7928 25.3366C31.0954 25.2115 31.4196 25.1472 31.7469 25.1475H52.6725C52.9999 25.1472 53.3241 25.2115 53.6266 25.3366C53.9291 25.4618 54.204 25.6454 54.4355 25.8768C54.667 26.1083 54.8506 26.3832 54.9758 26.6857C55.101 26.9882 55.1653 27.3124 55.165 27.6398Z" fill="#434A54"/>
<path d="M36.8623 24.9011H50.0315V25.3934H36.8623V24.9011Z" fill="#31394C"/>
<path d="M31.7261 27.6398V48.5673C31.7258 48.8948 31.7901 49.2192 31.9153 49.5218C32.0405 49.8245 32.2242 50.0995 32.4558 50.331C32.6874 50.5626 32.9624 50.7463 33.2651 50.8715C33.5677 50.9966 33.8921 51.0609 34.2196 51.0606H45.1488L51.9828 56.8294V51.0606H55.1434C56.5221 51.0606 57.637 49.9457 57.637 48.567V27.6398C57.6373 27.3123 57.573 26.9879 57.4477 26.6852C57.3225 26.3826 57.1389 26.1076 56.9073 25.876C56.6757 25.6444 56.4007 25.4608 56.098 25.3356C55.7953 25.2104 55.471 25.1462 55.1434 25.1465H34.2194C33.8919 25.1462 33.5675 25.2105 33.2649 25.3357C32.9623 25.4609 32.6873 25.6445 32.4557 25.8761C32.2241 26.1077 32.0405 26.3827 31.9153 26.6853C31.7901 26.9879 31.7258 27.3123 31.7261 27.6398Z" fill="#FF6060"/>
<path d="M49.5108 54.6625V49.9339C49.5108 49.6576 49.6205 49.3927 49.8159 49.1973C50.0112 49.0019 50.2762 48.8922 50.5525 48.8922H52.6726C54.0491 48.8922 55.1649 47.7764 55.1649 46.3996V25.4716C55.1649 25.3609 55.1573 25.2526 55.144 25.1475C55.4714 25.1472 55.7956 25.2115 56.0981 25.3366C56.4006 25.4618 56.6755 25.6454 56.907 25.8768C57.1385 26.1083 57.3221 26.3832 57.4473 26.6857C57.5725 26.9882 57.6368 27.3124 57.6365 27.6398V48.5683C57.6365 49.9448 56.5205 51.0606 55.144 51.0606H51.9821V56.8282M45.1501 51.0608H34.2185C33.6134 51.0613 33.0288 50.8414 32.574 50.4423C32.1192 50.0432 31.8252 49.4922 31.7471 48.8922H44.2276C44.4722 48.8922 44.7069 48.9894 44.8799 49.1624C45.0529 49.3354 45.1501 49.5701 45.1501 49.8148V51.0608Z" fill="#F44A4A"/>
<path opacity="0.4" d="M50.0554 25.1462V28.6281C50.0554 30.0058 48.9403 31.1209 47.5609 31.1209H31.7266V27.6405C31.7266 26.2611 32.8416 25.146 34.2211 25.146H50.0557L50.0554 25.1462Z" fill="#FF8383"/>
<path d="M43.5026 30.8284H45.841C45.8793 30.8284 45.9166 30.8401 45.9481 30.8617C45.9796 30.8834 46.0038 30.9141 46.0175 30.9497L51.2434 44.5182C51.2544 44.5469 51.2584 44.5779 51.2548 44.6084C51.2512 44.639 51.2403 44.6682 51.2228 44.6935C51.2054 44.7189 51.1821 44.7396 51.1549 44.7539C51.1277 44.7682 51.0974 44.7757 51.0666 44.7757H48.8586C48.8195 44.7757 48.7813 44.7636 48.7494 44.741C48.7174 44.7185 48.6932 44.6865 48.6802 44.6497L47.4154 41.0844H41.8484L40.5847 44.6497C40.5716 44.6865 40.5474 44.7183 40.5155 44.7409C40.4836 44.7635 40.4455 44.7756 40.4064 44.7757H38.2962C38.2655 44.7756 38.2352 44.7681 38.2081 44.7538C38.1809 44.7395 38.1576 44.7188 38.1403 44.6935C38.1229 44.6682 38.1119 44.639 38.1083 44.6085C38.1046 44.5781 38.1085 44.5471 38.1194 44.5185L43.3256 30.9497C43.3394 30.914 43.3636 30.8833 43.3951 30.8617C43.4267 30.84 43.4643 30.8284 43.5026 30.8284ZM42.513 39.2286H46.771L44.6816 33.2313H44.6233L42.513 39.2286Z" fill="white"/>
<path d="M51.0668 45.0214H48.8588C48.7689 45.0214 48.6811 44.9935 48.6076 44.9417C48.5341 44.8899 48.4784 44.8166 48.4482 44.7319L47.2418 41.3301H42.0226L40.8169 44.7317C40.7868 44.8164 40.7311 44.8897 40.6577 44.9416C40.5842 44.9935 40.4965 45.0213 40.4066 45.0214H38.2963C38.2257 45.0214 38.1561 45.0042 38.0936 44.9714C38.0311 44.9385 37.9775 44.8909 37.9375 44.8327C37.8975 44.7745 37.8722 44.7075 37.8639 44.6373C37.8555 44.5672 37.8644 44.4961 37.8897 44.4302L43.0958 30.8614C43.1277 30.7794 43.1836 30.7089 43.2561 30.6591C43.3286 30.6093 43.4145 30.5824 43.5025 30.582H45.8409C45.9288 30.5824 46.0144 30.6092 46.0869 30.6589C46.1593 30.7086 46.2151 30.7789 46.2471 30.8607L51.4729 44.4297C51.4984 44.4956 51.5073 44.5667 51.4991 44.6369C51.4909 44.7071 51.4657 44.7742 51.4257 44.8325C51.3857 44.8908 51.3321 44.9384 51.2696 44.9713C51.2071 45.0042 51.1374 45.0214 51.0668 45.0214ZM48.8987 44.5291H50.9841L45.802 31.0743H43.5416L38.379 44.5291H40.3665L41.6748 40.8378H47.5896L48.8987 44.5291ZM47.1175 39.4746H42.1656L44.4492 32.985H44.8566L47.1175 39.4746ZM42.861 38.9823H46.4246L44.6513 33.8928L42.8607 38.9823H42.861Z" fill="white"/>
<path d="M34.3174 17.7728V38.7003C34.3177 39.0278 34.2534 39.3522 34.1282 39.6548C34.003 39.9575 33.8194 40.2324 33.5878 40.464C33.3562 40.6956 33.0812 40.8792 32.7786 41.0044C32.476 41.1296 32.1516 41.1939 31.8241 41.1936H20.8949L16.5798 44.2302V46.9625H14.0604V41.1939H10.8998C10.5722 41.1942 10.2478 41.1299 9.94517 41.0047C9.64249 40.8795 9.36748 40.6959 9.13587 40.4643C8.90426 40.2326 8.7206 39.9576 8.5954 39.655C8.4702 39.3523 8.40593 39.0279 8.40625 38.7003V17.7731C8.40596 17.4456 8.47026 17.1212 8.59547 16.8185C8.72068 16.5159 8.90435 16.2409 9.13596 16.0093C9.36756 15.7777 9.64257 15.5941 9.94523 15.4689C10.2479 15.3437 10.5723 15.2795 10.8998 15.2798H31.8239C32.1514 15.2795 32.4758 15.3437 32.7785 15.4689C33.0811 15.5941 33.3562 15.7778 33.5878 16.0094C33.8194 16.241 34.003 16.516 34.1282 16.8187C34.2534 17.1214 34.3177 17.4458 34.3174 17.7733V17.7728Z" fill="#434A54"/>
<path d="M36.8364 17.7728V38.7003C36.8367 39.0279 36.7724 39.3522 36.6472 39.6549C36.522 39.9575 36.3383 40.2325 36.1067 40.4641C35.8751 40.6957 35.6001 40.8793 35.2975 41.0045C34.9948 41.1297 34.6704 41.194 34.3429 41.1936H23.4137L16.5797 46.9625V41.1939H13.4188C13.0913 41.1942 12.7669 41.1299 12.4642 41.0047C12.1615 40.8795 11.8865 40.6959 11.6549 40.4643C11.4233 40.2326 11.2396 39.9576 11.1144 39.655C10.9892 39.3523 10.925 39.0279 10.9253 38.7003V17.7731C10.925 17.4456 10.9893 17.1212 11.1145 16.8185C11.2397 16.5159 11.4234 16.2409 11.655 16.0093C11.8866 15.7777 12.1616 15.5941 12.4643 15.4689C12.7669 15.3437 13.0913 15.2795 13.4188 15.2798H34.3431C34.6707 15.2795 34.995 15.3438 35.2977 15.469C35.6003 15.5942 35.8753 15.7779 36.1069 16.0095C36.3385 16.2411 36.5221 16.5161 36.6473 16.8188C36.7725 17.1214 36.8368 17.4458 36.8364 17.7733V17.7728Z" fill="#3FD0FC"/>
<path d="M36.8362 17.7738V38.7001C36.8362 40.0795 35.7211 41.1927 34.3436 41.1927H23.4144L16.5797 46.9618V41.1927H13.4191C13.0915 41.1931 12.7671 41.129 12.4644 41.0039C12.1617 40.8789 11.8866 40.6953 11.6549 40.4638C11.4232 40.2323 11.2395 39.9573 11.1142 39.6547C10.9889 39.352 10.9245 39.0276 10.9248 38.7001V17.7738C10.9248 16.3944 12.0399 15.2793 13.4191 15.2793H34.3436C35.7211 15.2793 36.8362 16.3944 36.8362 17.7738Z" fill="#3FD0FC"/>
<path opacity="0.4" d="M29.2539 15.2793V18.7614C29.2539 20.1389 28.1388 21.2539 26.7591 21.2539H10.9248V17.7738C10.9248 16.3944 12.0399 15.2793 13.4191 15.2793H29.2539Z" fill="white"/>
<path d="M13.1375 39.1471H15.6219C15.8012 39.1471 15.9732 39.2184 16.1 39.3452C16.2269 39.472 16.2981 39.644 16.2981 39.8233V41.1927H13.4191C12.0416 41.1927 10.9248 40.0759 10.9248 38.6981V37.8021C11.1345 38.208 11.4519 38.5483 11.8423 38.7855C12.2327 39.0228 12.6809 39.1479 13.1377 39.1471H13.1375ZM36.8362 17.7736V38.7001C36.8362 40.0796 35.7211 41.1927 34.3436 41.1927H23.4144L16.5797 46.9618V44.6784L22.0906 40.0269C22.7635 39.4589 23.6157 39.1472 24.4963 39.1471H34.0618C35.4385 39.1471 36.5546 38.0313 36.5546 36.6546V16.6206C36.7408 16.9764 36.8374 17.372 36.8362 17.7736Z" fill="#25BAF4"/>
<path d="M55.1438 24.9005H37.0813V17.7731C37.0813 16.2618 35.853 15.0334 34.344 15.0334H10.9003C9.38895 15.0334 8.16064 16.2618 8.16064 17.7731V38.7011C8.16064 40.2101 9.38895 41.4408 10.9003 41.4408H13.8148V46.9621C13.8148 47.0999 13.9256 47.2082 14.061 47.2082H16.5791C16.5963 47.2082 16.6136 47.2058 16.6283 47.2033C16.6456 47.1984 16.6628 47.1934 16.68 47.1861C16.6923 47.1811 16.7046 47.1738 16.717 47.1664L16.7391 47.1516L23.5034 41.4408H29.0082V48.5685C29.0082 50.0784 30.2367 51.3072 31.7469 51.3072H42.586L49.352 57.0167C49.3963 57.0539 49.453 57.0746 49.5108 57.0746H51.9763C51.9787 57.0746 51.9807 57.0758 51.9832 57.0758C52.0085 57.0758 52.0331 57.0672 52.0578 57.0593C52.0646 57.0571 52.0725 57.0576 52.0789 57.0546C52.0814 57.0536 52.0843 57.0541 52.0868 57.0529C52.1125 57.0405 52.1358 57.0237 52.1557 57.0032L52.1574 57.0007C52.1774 56.9801 52.1936 56.9561 52.2052 56.9298C52.2069 56.9264 52.2086 56.9232 52.2101 56.9195C52.2222 56.891 52.2287 56.8605 52.2293 56.8296V51.3069H55.1438C56.6544 51.3069 57.8835 50.0779 57.8835 48.5672V27.64C57.8835 26.1293 56.6544 24.9005 55.1438 24.9005ZM10.9003 40.9485C9.65972 40.9485 8.65295 39.9393 8.65295 38.7011V17.7731C8.65295 16.535 9.65972 15.5258 10.9003 15.5258H11.853C11.4905 15.7779 11.1944 16.1139 10.9899 16.5053C10.7854 16.8966 10.6787 17.3316 10.6788 17.7731V38.7011C10.6788 39.6291 11.144 40.4538 11.8554 40.9485H10.9003ZM16.333 46.7159H14.3071V41.4408H16.333V46.7159ZM23.4123 40.9485C23.3557 40.9485 23.2991 40.9682 23.2548 41.0051L22.7379 41.4408L16.8253 46.4328V41.1947C16.8253 41.0568 16.7145 40.9485 16.5791 40.9485H13.4185C12.1803 40.9485 11.1711 39.9393 11.1711 38.7011V17.7731C11.1711 16.535 12.1803 15.5258 13.4185 15.5258H34.344C35.5822 15.5258 36.589 16.535 36.589 17.7731V38.7011C36.589 39.9393 35.5822 40.9485 34.344 40.9485H23.4123ZM29.5005 48.5685V41.4408H31.48V48.5675C31.48 49.4974 31.947 50.3194 32.6574 50.8149H31.7469C30.5082 50.8149 29.5005 49.8071 29.5005 48.5685ZM43.3493 51.3069H45.0589L51.3087 56.5823H49.6009L43.3493 51.3069ZM57.3909 48.5672C57.3909 49.8066 56.3829 50.8146 55.1435 50.8146H51.9829C51.9176 50.8146 51.855 50.8406 51.8089 50.8867C51.7627 50.9329 51.7368 50.9955 51.7368 51.0608V53.2257H51.736V56.2992L45.3077 50.8727C45.2633 50.8352 45.2071 50.8146 45.149 50.8146H34.2197C32.9803 50.8146 31.9723 49.8066 31.9723 48.5672V41.4408H34.344C35.853 41.4408 37.0813 40.2101 37.0813 38.7011V25.3928H55.1438C56.3829 25.3928 57.3912 26.4008 57.3912 27.6402V48.5675L57.3909 48.5672Z" fill="#31394C"/>
<path d="M29.637 34.6895L28.4434 36.0207L26.4097 34.241C25.3727 34.8463 24.2192 35.0811 23.1231 35.0811C18.9579 35.0811 16.4341 31.7752 16.4341 27.7659C16.4341 23.7947 18.9579 20.4507 23.1231 20.4507C27.29 20.4507 29.8128 23.7947 29.8128 27.7659C29.8128 29.644 29.2457 31.8346 27.8381 33.1254L29.637 34.6895ZM23.2796 31.5215L24.454 30.1711L26.1557 31.6588C27.0359 30.5826 27.3682 29.1744 27.3682 27.7659C27.3682 25.0855 26.1153 22.4465 23.1231 22.4465C20.1308 22.4465 18.8794 25.0855 18.8794 27.7659C18.8794 30.4463 20.1306 33.0863 23.1231 33.0863C23.6521 33.0863 24.1993 32.9878 24.6889 32.7532L23.2796 31.5212V31.5215Z" fill="#31394C"/>
<path d="M28.4437 36.2669C28.3842 36.267 28.3266 36.2453 28.2818 36.2061L26.379 34.5408C25.4313 35.0558 24.3101 35.3273 23.1234 35.3273C19.0402 35.3273 16.1885 32.2179 16.1885 27.7659C16.1885 23.3847 19.1049 20.2043 23.1234 20.2043C27.1423 20.2043 30.0592 23.3844 30.0592 27.7657C30.0592 29.936 29.369 31.9104 28.2018 33.1149L29.7991 34.5037C29.8237 34.5251 29.8438 34.5512 29.8582 34.5805C29.8727 34.6098 29.8812 34.6417 29.8832 34.6743C29.8852 34.7069 29.8807 34.7395 29.87 34.7704C29.8593 34.8012 29.8425 34.8296 29.8207 34.8539L28.6269 36.1849C28.6038 36.2106 28.5756 36.2312 28.544 36.2453C28.5125 36.2594 28.4783 36.2666 28.4437 36.2666V36.2669ZM26.41 33.9949C26.4681 33.9949 26.526 34.0153 26.572 34.0557L28.4231 35.6754L29.2873 34.7114L27.6767 33.3113C27.6506 33.2885 27.6296 33.2605 27.615 33.229C27.6005 33.1976 27.5927 33.1634 27.5923 33.1288C27.5918 33.0941 27.5986 33.0598 27.6123 33.0279C27.6261 32.9961 27.6463 32.9675 27.6718 32.944C28.8583 31.856 29.5669 29.9203 29.5669 27.7659C29.5669 23.604 26.9173 20.6969 23.1234 20.6969C19.3301 20.6969 16.6808 23.604 16.6808 27.7659C16.6808 31.9279 19.3299 34.835 23.1234 34.835C24.2882 34.835 25.3818 34.5561 26.286 34.0283C26.3236 34.0063 26.3664 33.9948 26.41 33.9949ZM23.1234 33.3327C19.8096 33.3327 18.6335 30.3336 18.6335 27.7659C18.6335 25.1986 19.8096 22.2004 23.1234 22.2004C26.4386 22.2004 27.6149 25.1986 27.6149 27.7659C27.6149 29.4004 27.1763 30.8005 26.3465 31.8147C26.3256 31.8402 26.2998 31.8613 26.2706 31.8767C26.2413 31.892 26.2093 31.9013 26.1764 31.904C26.1435 31.9072 26.1104 31.9035 26.079 31.8932C26.0476 31.8829 26.0187 31.8662 25.994 31.8442L24.4782 30.5189L23.6265 31.4976L24.8511 32.5679C24.8818 32.5947 24.9053 32.6287 24.9195 32.6669C24.9338 32.705 24.9384 32.7461 24.9329 32.7865C24.9274 32.8268 24.9119 32.8652 24.888 32.8981C24.864 32.931 24.8322 32.9574 24.7955 32.9751C24.3081 33.2089 23.7296 33.3325 23.1234 33.3325V33.3327ZM23.1234 22.6925C20.173 22.6925 19.1258 25.4255 19.1258 27.7657C19.1258 30.1066 20.173 32.8402 23.1234 32.8402C23.5125 32.8402 23.8867 32.7833 24.2244 32.6738L23.1177 31.7069C23.0686 31.664 23.0385 31.6033 23.0341 31.5382C23.0296 31.4731 23.0512 31.409 23.0941 31.3598L24.2687 30.0096C24.3117 29.9604 24.3725 29.9302 24.4377 29.9257C24.5029 29.9212 24.5672 29.9428 24.6165 29.9858L26.1205 31.3012C26.777 30.3939 27.1224 29.1779 27.1224 27.7659C27.1224 25.4255 26.0752 22.6925 23.1234 22.6925Z" fill="#31394C"/>
<path d="M45.3228 21.3519C45.2578 21.351 45.1959 21.3245 45.1504 21.2781C45.1258 21.2559 45.1086 21.2289 45.0963 21.1993C45.084 21.1698 45.0791 21.1378 45.0791 21.1058C45.0791 21.0738 45.084 21.0418 45.0963 21.0098C45.1086 20.9802 45.1283 20.9532 45.1504 20.931C45.2071 20.8744 45.2908 20.8473 45.372 20.8645C45.3868 20.867 45.404 20.8719 45.4188 20.8769C45.4335 20.8842 45.4483 20.8916 45.4606 20.9015C45.4754 20.9089 45.4877 20.9187 45.4975 20.931C45.5221 20.9532 45.5394 20.9802 45.5517 21.0098C45.564 21.0418 45.5714 21.0738 45.5714 21.1058C45.5714 21.1378 45.564 21.1698 45.5517 21.1993C45.5394 21.2289 45.5221 21.2559 45.4975 21.2781C45.4532 21.3249 45.3917 21.3519 45.3228 21.3519ZM44.2032 21.3514H40.9749C40.9097 21.3514 40.847 21.3255 40.8009 21.2793C40.7547 21.2332 40.7288 21.1706 40.7288 21.1053C40.7288 21.04 40.7547 20.9774 40.8009 20.9312C40.847 20.8851 40.9097 20.8591 40.9749 20.8591H44.2035C44.2688 20.8591 44.3314 20.8851 44.3775 20.9312C44.4237 20.9774 44.4496 21.04 44.4496 21.1053C44.4496 21.1706 44.4237 21.2332 44.3775 21.2793C44.3314 21.3255 44.2688 21.3514 44.2035 21.3514H44.2032ZM23.1689 53.3519C23.104 53.351 23.042 53.3245 22.9966 53.2781C22.9502 53.2326 22.9237 53.1707 22.9228 53.1058C22.9231 53.0736 22.9298 53.0418 22.9424 53.0122C22.9548 52.9802 22.9744 52.9532 22.9966 52.931C23.0187 52.9089 23.0458 52.8892 23.0754 52.8769C23.1369 52.8522 23.2034 52.8522 23.2649 52.8769C23.2944 52.8892 23.3215 52.9089 23.3437 52.931C23.3658 52.9532 23.3855 52.9802 23.3978 53.0122C23.4101 53.0418 23.4175 53.0738 23.4175 53.1058C23.4175 53.1378 23.4101 53.1698 23.3978 53.1993C23.3855 53.2289 23.3683 53.2559 23.3437 53.2781C23.3215 53.3027 23.2944 53.3199 23.2649 53.3322C23.2354 53.3445 23.2034 53.3519 23.1689 53.3519ZM22.0494 53.3514H18.8211C18.7558 53.3514 18.6932 53.3255 18.647 53.2793C18.6009 53.2332 18.5749 53.1706 18.5749 53.1053C18.5749 53.04 18.6009 52.9774 18.647 52.9312C18.6932 52.8851 18.7558 52.8591 18.8211 52.8591H22.0496C22.1149 52.8591 22.1775 52.8851 22.2237 52.9312C22.2699 52.9774 22.2958 53.04 22.2958 53.1053C22.2958 53.1706 22.2699 53.2332 22.2237 53.2793C22.1775 53.3255 22.1147 53.3514 22.0494 53.3514ZM9.30084 56.1153C9.23556 56.1153 9.17295 56.0893 9.12678 56.0432C9.08062 55.997 9.05469 55.9344 9.05469 55.8691V54.7368C9.05469 54.6715 9.08062 54.6089 9.12678 54.5627C9.17295 54.5166 9.23556 54.4906 9.30084 54.4906C9.36613 54.4906 9.42874 54.5166 9.4749 54.5627C9.52106 54.6089 9.547 54.6715 9.547 54.7368V55.8691C9.547 55.9344 9.52106 55.997 9.4749 56.0432C9.42874 56.0893 9.36613 56.1153 9.30084 56.1153Z" fill="#EDF5F9"/>
<path d="M9.86674 55.5487H8.73444C8.66915 55.5487 8.60654 55.5228 8.56038 55.4766C8.51422 55.4304 8.48828 55.3678 8.48828 55.3026C8.48828 55.2373 8.51422 55.1747 8.56038 55.1285C8.60654 55.0823 8.66915 55.0564 8.73444 55.0564H9.86674C9.93203 55.0564 9.99464 55.0823 10.0408 55.1285C10.087 55.1747 10.1129 55.2373 10.1129 55.3026C10.1129 55.3678 10.087 55.4304 10.0408 55.4766C9.99464 55.5228 9.93203 55.5487 9.86674 55.5487Z" fill="#EDF5F9"/>
</svg>
