<svg width="14" height="14" viewBox="0 0 14 14" fill="none" xmlns="http://www.w3.org/2000/svg">
<path d="M9.41268 2.38932H7.83535C7.67321 2.38932 7.51772 2.32491 7.40307 2.21027C7.28842 2.09562 7.22402 1.94013 7.22402 1.77799C7.22402 1.61585 7.28842 1.46036 7.40307 1.34571C7.51772 1.23106 7.67321 1.16666 7.83535 1.16666H11.0192C11.1473 1.16666 11.2701 1.21754 11.3607 1.30812C11.4513 1.3987 11.5022 1.52156 11.5022 1.64966V4.83349C11.5022 4.99563 11.4378 5.15112 11.3231 5.26577C11.2085 5.38041 11.053 5.44482 10.8908 5.44482C10.7287 5.44482 10.5732 5.38041 10.4586 5.26577C10.3439 5.15112 10.2795 4.99563 10.2795 4.83349V3.25032L7.93568 5.59066C8.26475 6.09193 8.44106 6.67803 8.44318 7.27766C8.44226 7.98059 8.199 8.66172 7.7544 9.2062C7.30981 9.75068 6.69108 10.1252 6.00252 10.2667V11.55H6.61385C6.77598 11.55 6.93148 11.6144 7.04613 11.729C7.16077 11.8437 7.22518 11.9992 7.22518 12.1613C7.22518 12.2416 7.20937 12.3211 7.17865 12.3953C7.14792 12.4694 7.10289 12.5368 7.04613 12.5936C6.98936 12.6504 6.92197 12.6954 6.8478 12.7261C6.77363 12.7568 6.69413 12.7727 6.61385 12.7727H6.00252V13.384C6.00313 13.4647 5.98777 13.5447 5.95733 13.6194C5.92688 13.6941 5.88195 13.762 5.82512 13.8193C5.76829 13.8766 5.70069 13.922 5.62621 13.953C5.55174 13.984 5.47186 14 5.39118 14C5.3109 14 5.23141 13.9842 5.15724 13.9535C5.08307 13.9227 5.01567 13.8777 4.9589 13.8209C4.90214 13.7642 4.85711 13.6968 4.82638 13.6226C4.79566 13.5484 4.77985 13.4689 4.77985 13.3887V12.7773H4.16852C4.00638 12.7773 3.85089 12.7129 3.73624 12.5983C3.62159 12.4836 3.55718 12.3281 3.55718 12.166C3.55718 12.0039 3.62159 11.8484 3.73624 11.7337C3.85089 11.6191 4.00638 11.5547 4.16852 11.5547H4.78568V10.2667C4.37137 10.1822 3.97901 10.0129 3.63329 9.76949C3.28757 9.52604 2.99596 9.2137 2.7768 8.85209C2.55765 8.49048 2.41569 8.08744 2.35985 7.66831C2.30401 7.24918 2.3355 6.82303 2.45235 6.41666C2.6504 5.70451 3.10833 5.09255 3.73568 4.70166C4.23521 4.38376 4.81608 4.21725 5.40816 4.22222C6.00024 4.22719 6.57823 4.40342 7.07235 4.72966L9.41268 2.38932ZM5.39118 5.44482C5.02868 5.44482 4.67432 5.55232 4.37292 5.75371C4.07151 5.95511 3.83659 6.24135 3.69787 6.57626C3.55914 6.91117 3.52285 7.27969 3.59357 7.63522C3.66429 7.99076 3.83885 8.31734 4.09517 8.57366C4.3515 8.82999 4.67808 9.00455 5.03361 9.07527C5.38915 9.14599 5.75767 9.1097 6.09258 8.97097C6.42748 8.83225 6.71373 8.59733 6.91513 8.29592C7.11652 7.99452 7.22402 7.64016 7.22402 7.27766C7.22402 6.79156 7.03091 6.32537 6.68719 5.98165C6.34347 5.63792 5.87728 5.44482 5.39118 5.44482Z" fill="#0E2339"/>
</svg>
