<svg width="128" height="128" viewBox="0 0 128 128" fill="none" xmlns="http://www.w3.org/2000/svg">
<circle cx="64" cy="64" r="64" fill="#FDD48E"/>
<path d="M86.2999 91.8751C84.3124 85.9876 81.1124 82.9376 74.4874 79.8251L70.7649 78.7263C69.3899 81.4438 65.8499 84.2063 62.8274 84.4301C60.5687 84.5963 58.9312 85.4113 58.4924 85.1913C57.2424 84.5663 56.8087 83.5301 57.2587 81.6176C53.3087 83.1251 45.4499 86.0501 42.1499 92.6501C41.3124 94.3126 41.3499 95.8001 42.8874 96.8626C45.1874 98.4751 51.0999 100.8 60.0874 100.813C63.7979 100.825 67.5027 100.524 71.1624 99.9126C75.3666 99.3363 79.4271 97.9842 83.1374 95.9251C85.5124 94.3751 86.7624 93.2251 86.2999 91.8751Z" fill="#FCEBA4"/>
<path d="M77.2814 41.1624C73.0602 34.9374 66.7277 32.5974 60.1002 32.6724C56.5099 32.7351 53.0118 33.819 50.0152 35.7974C43.4177 40.6386 42.6127 50.9499 43.3364 54.8599C43.9214 58.0236 45.5789 59.3599 45.9377 61.1999C46.2964 63.0399 46.2877 64.6374 46.5627 66.0249C47.3377 69.9249 52.5377 73.8874 56.6877 74.1374C57.6176 74.1883 58.5502 74.159 59.4752 74.0499C60.1127 76.4624 60.6252 79.7249 59.3002 80.6999C58.5727 81.1116 57.8065 81.4507 57.0127 81.7124C56.5627 83.6249 56.9627 84.7249 58.2127 85.3499C59.2377 85.8624 61.1377 85.1749 62.5627 85.2749C63.4753 84.0587 64.5918 83.0098 65.8627 82.1749L65.9502 82.1249C65.7173 81.6164 65.6041 81.0613 65.6193 80.5022C65.6344 79.9432 65.7776 79.395 66.0377 78.8999C65.6108 76.4592 66.1052 73.9468 67.4252 71.8499C67.2874 71.4478 67.2198 71.0249 67.2252 70.5999C69.3382 68.7842 70.9554 66.4616 71.9252 63.8499C72.3953 64.2749 72.9615 64.5794 73.5752 64.7374C75.5252 65.1749 77.2377 63.8499 78.1752 62.0624L78.3252 61.7624C79.7358 59.1134 80.5273 56.179 80.6402 53.1799C80.6402 47.3599 79.3977 44.2836 77.2814 41.1624Z" fill="#FFBF94"/>
<path d="M70.8752 79.4688C70.3027 75.6663 69.3977 68.3826 69.3977 68.3826C68.6499 69.3067 67.8041 70.147 66.8752 70.8888C65.0454 72.3127 62.931 73.3269 60.6752 73.8626C60.2752 73.9376 59.8752 74.0001 59.4752 74.0501C60.1127 76.4626 60.6252 79.7251 59.3002 80.7001C58.5727 81.1117 57.8065 81.4509 57.0127 81.7126C56.5627 83.6251 56.9627 84.7251 58.2127 85.3501C59.2377 85.8626 61.1377 85.1751 62.5627 85.2751L62.5827 85.2501C65.4577 86.1888 67.2364 86.1851 68.4789 85.7713C69.8852 85.3026 71.4477 83.2713 70.8752 79.4688Z" fill="#FFA87D"/>
<path d="M78.3188 61.7713C77.4201 63.7038 75.6288 65.1988 73.5688 64.7375C72.9551 64.5796 72.3889 64.275 71.9188 63.85C70.9491 66.4618 69.3319 68.7844 67.2188 70.6C67.2134 71.0251 67.2811 71.4479 67.4188 71.85C66.0989 73.947 65.6045 76.4593 66.0313 78.9C66.1169 79.4701 66.3269 80.0144 66.6464 80.4942C66.9659 80.974 67.3871 81.3776 67.8801 81.6763C68.7306 81.9746 69.6364 82.0822 70.5331 81.9912C71.4298 81.9003 72.2955 81.6131 73.0688 81.15C73.4563 80.9167 73.8026 80.6211 74.0938 80.275C74.2361 80.1368 74.3658 79.9862 74.4813 79.825C75.2741 78.6175 75.7982 77.2538 76.0182 75.8261C76.2381 74.3985 76.1488 72.9402 75.7563 71.55C76.1813 70.9783 76.5576 70.3721 76.8813 69.7375C78.0292 67.2473 78.524 64.5057 78.3188 61.7713ZM45.6251 52.0088C45.4926 52.6848 45.4451 53.3748 45.4838 54.0625C45.5763 55.7813 45.7026 58.5213 45.9351 61.2L45.8226 61.2125C39.7601 61.9875 38.0226 56.3375 38.5851 50.0875C39.1476 43.8375 45.6001 29.725 52.9001 31.025C59.2626 24 71.6038 29.2088 74.9376 32.4375C82.3426 39.61 83.9876 54.425 78.3251 61.7625C78.5274 61.3305 78.6825 60.8779 78.7876 60.4125C79.3501 57.9 78.5376 54.95 76.0126 54.3875C75.431 54.2802 74.8329 54.3017 74.2605 54.4508C73.6882 54.5998 73.1555 54.8726 72.7001 55.25C72.7376 56.7875 71.7626 57.875 70.3626 57.2625C66.6987 55.449 63.5516 52.7404 61.2126 49.3875C58.9626 46.4438 57.1251 43.33 55.6238 40.9575C55.4526 40.6908 55.2274 40.4629 54.9628 40.2885C54.6981 40.1141 54.3999 39.9971 54.0872 39.9449C53.7746 39.8927 53.4545 39.9066 53.1476 39.9856C52.8406 40.0647 52.5536 40.2071 52.3051 40.4038C49.2823 42.9047 47.1135 46.285 46.1001 50.075C45.8751 50.8238 45.7288 51.4838 45.6251 52.0088Z" fill="#934747"/>
<path d="M54.335 39.0674H54.3712L54.3625 39.0549L54.335 39.0674Z" fill="#7C5250"/>
<path d="M56.2752 41.9751C56.3502 42.1001 56.4377 42.2376 56.5127 42.3626C56.2502 41.9501 56.0002 41.5501 55.7627 41.1626C55.9252 41.4251 56.1002 41.7001 56.2752 41.9751ZM60.5752 48.5126C61.0502 49.1626 61.5502 49.8251 62.0752 50.4626C61.7752 50.1126 61.4877 49.7501 61.2127 49.3876C60.9877 49.1001 60.7752 48.8126 60.5752 48.5126Z" fill="#986963"/>
<path d="M67.3552 38.5163C67.2733 38.4676 67.177 38.4491 67.083 38.464C66.9889 38.4788 66.9029 38.526 66.84 38.5974C66.777 38.6688 66.7409 38.76 66.738 38.8552C66.7351 38.9504 66.7655 39.0436 66.8239 39.1188C68.8477 41.7579 70.3962 44.7294 71.4002 47.9C71.4852 48.125 71.5577 48.3563 71.6327 48.5875C71.7277 48.8813 71.8139 49.1775 71.8939 49.4763L71.9027 49.51C72.373 51.3893 72.6404 53.3137 72.7002 55.25C73.1556 54.8726 73.6883 54.5998 74.2606 54.4507C74.833 54.3017 75.4311 54.2801 76.0127 54.3875C75.094 44.86 69.7164 39.9688 67.3552 38.5163Z" fill="#7F3C3C"/>
<path d="M62.5998 53.7251H62.0873C61.5488 53.7251 61.1123 54.1616 61.1123 54.7001V56.2251C61.1123 56.7636 61.5488 57.2001 62.0873 57.2001H62.5998C63.1383 57.2001 63.5748 56.7636 63.5748 56.2251V54.7001C63.5748 54.1616 63.1383 53.7251 62.5998 53.7251Z" fill="#CC685A"/>
<path d="M50.4877 54.7375V56.2625C50.4872 56.3898 50.4616 56.5157 50.4122 56.6331C50.3629 56.7505 50.2909 56.8569 50.2003 56.9464C50.1097 57.0358 50.0023 57.1065 49.8843 57.1543C49.7663 57.2021 49.64 57.2261 49.5127 57.225H48.9877C48.8604 57.2261 48.7341 57.2021 48.6161 57.1543C48.4981 57.1065 48.3907 57.0358 48.3001 56.9464C48.2095 56.8569 48.1375 56.7505 48.0882 56.6331C48.0388 56.5157 48.0132 56.3898 48.0127 56.2625V54.7375C48.013 54.479 48.1159 54.2312 48.2986 54.0484C48.4814 53.8656 48.7292 53.7628 48.9877 53.7625H49.5127C49.7712 53.7628 50.019 53.8656 50.2018 54.0484C50.3845 54.2312 50.4874 54.479 50.4877 54.7375Z" fill="#CC685A"/>
<path d="M55.9451 66.4737C55.5157 66.5009 55.0852 66.4418 54.679 66.2999C54.2728 66.158 53.8992 65.9362 53.5801 65.6475C53.5279 65.5841 53.4887 65.5111 53.4648 65.4326C53.4408 65.354 53.4325 65.2716 53.4404 65.1899C53.4483 65.1081 53.4722 65.0288 53.5108 64.9563C53.5493 64.8838 53.6018 64.8197 53.6652 64.7675C53.7285 64.7153 53.8015 64.6761 53.8801 64.6521C53.9586 64.6281 54.041 64.6198 54.1228 64.6277C54.2045 64.6356 54.2838 64.6595 54.3563 64.6981C54.4288 64.7366 54.493 64.7891 54.5452 64.8525C54.9521 65.1405 55.4487 65.2735 55.9451 65.2275C56.3444 65.2531 56.7447 65.1969 57.1215 65.0623C57.4983 64.9278 57.8437 64.7177 58.1364 64.445C58.1884 64.3814 58.2525 64.3288 58.3249 64.29C58.3972 64.2512 58.4766 64.2271 58.5583 64.219C58.64 64.2108 58.7225 64.2189 58.8011 64.2427C58.8797 64.2664 58.9529 64.3054 59.0164 64.3575C59.0799 64.4095 59.1326 64.4735 59.1714 64.5459C59.2101 64.6183 59.2343 64.6976 59.2424 64.7793C59.2505 64.8611 59.2425 64.9436 59.2187 65.0222C59.195 65.1008 59.1559 65.1739 59.1039 65.2375C58.6971 65.6583 58.2047 65.9868 57.6599 66.2007C57.1152 66.4146 56.5308 66.509 55.9464 66.4775L55.9451 66.4737ZM55.5501 62.2937C55.1195 62.291 54.706 62.1242 54.3939 61.8275C54.2113 61.6779 54.0744 61.4799 53.9991 61.2562C53.9237 61.0325 53.9128 60.7921 53.9677 60.5625C54.0162 60.4149 54.118 60.2907 54.2532 60.214C54.3884 60.1374 54.5473 60.1139 54.6988 60.1481C54.8504 60.1823 54.9838 60.2717 55.073 60.399C55.1623 60.5262 55.2009 60.6821 55.1814 60.8362C55.2324 60.9082 55.3008 60.9663 55.3802 61.005C55.4276 61.0287 55.4796 61.0421 55.5326 61.0442C55.5856 61.0464 55.6384 61.0373 55.6877 61.0175C55.8408 60.9638 56.0087 60.9718 56.1561 61.0397C56.3034 61.1077 56.4186 61.2303 56.4772 61.3816C56.5358 61.5328 56.5332 61.701 56.4701 61.8505C56.407 61.9999 56.2882 62.119 56.1389 62.1825C55.9512 62.2554 55.7516 62.2931 55.5501 62.2937Z" fill="#EF6F59"/>
<path d="M71.7987 74.1926C70.8732 74.1751 69.9549 74.0265 69.0712 73.7514C68.4462 73.5701 66.8049 72.8526 66.5212 72.0501C66.4653 71.8944 66.4733 71.723 66.5436 71.5732C66.6139 71.4235 66.7407 71.3078 66.8962 71.2514C67.2199 71.1264 67.4962 71.2989 67.6937 71.6264C68.1923 72.0592 68.7818 72.3745 69.4187 72.5489C73.1112 73.2676 74.8024 72.6289 75.8312 71.3139C75.8818 71.2493 75.9447 71.1953 76.0162 71.155C76.0877 71.1147 76.1664 71.0889 76.2479 71.079C76.3294 71.0691 76.412 71.0754 76.4911 71.0975C76.5701 71.1195 76.6441 71.157 76.7087 71.2076C76.7733 71.2582 76.8272 71.3211 76.8675 71.3926C76.9078 71.4641 76.9337 71.5429 76.9435 71.6243C76.9534 71.7058 76.9471 71.7885 76.925 71.8675C76.903 71.9466 76.8655 72.0205 76.8149 72.0851C76.1908 72.7907 75.4158 73.3466 74.5473 73.7115C73.6789 74.0763 72.7394 74.2408 71.7987 74.1926Z" fill="#7F3C3C"/>
<path d="M46.1027 50.6936C45.9744 50.6929 45.8495 50.6526 45.7449 50.5784C45.6402 50.5042 45.561 50.3996 45.5178 50.2788C45.4747 50.158 45.4698 50.0269 45.5037 49.9032C45.5377 49.7795 45.6089 49.6692 45.7077 49.5874C45.8652 49.4624 47.3402 48.3974 50.4877 49.3911C50.566 49.4158 50.6387 49.4556 50.7016 49.5083C50.7645 49.561 50.8164 49.6256 50.8544 49.6984C50.8923 49.7711 50.9156 49.8507 50.9228 49.9324C50.93 50.0142 50.9211 50.0966 50.8964 50.1749C50.8718 50.2532 50.832 50.3259 50.7793 50.3888C50.7266 50.4517 50.662 50.5036 50.5892 50.5416C50.5164 50.5795 50.4369 50.6028 50.3551 50.61C50.2734 50.6172 50.191 50.6083 50.1127 50.5836C47.6002 49.7886 46.4877 50.5649 46.4739 50.5749C46.3657 50.6523 46.2358 50.6939 46.1027 50.6936ZM63.3464 50.4361C63.4462 50.4364 63.5447 50.414 63.6345 50.3707C63.7244 50.3274 63.8032 50.2643 63.8652 50.1861C63.9165 50.1231 63.9546 50.0503 63.977 49.9721C63.9995 49.8939 64.0059 49.812 63.9959 49.7313C63.9858 49.6506 63.9595 49.5728 63.9186 49.5025C63.8777 49.4322 63.8229 49.3709 63.7577 49.3224C63.5927 49.1974 62.0577 48.1324 58.7789 49.1274C58.6993 49.1504 58.625 49.1891 58.5604 49.2412C58.4959 49.2932 58.4423 49.3576 58.4029 49.4305C58.3634 49.5035 58.3389 49.5835 58.3307 49.666C58.3225 49.7485 58.3308 49.8319 58.3552 49.9111C58.4118 50.0717 58.5286 50.2039 58.6809 50.2799C58.8332 50.356 59.0091 50.3698 59.1714 50.3186C61.7864 49.5236 62.9477 50.2999 62.9589 50.3099C63.0721 50.3908 63.2074 50.4348 63.3464 50.4361Z" fill="#934747"/>
<path d="M50.1499 54.3125C50.0079 54.3122 49.8701 54.2642 49.7586 54.1762C49.3781 53.8729 48.9059 53.7077 48.4192 53.7077C47.9326 53.7077 47.4604 53.8729 47.0799 54.1762C46.9506 54.2802 46.7853 54.3285 46.6204 54.3106C46.4554 54.2926 46.3044 54.2099 46.2005 54.0806C46.0965 53.9513 46.0482 53.786 46.0662 53.6211C46.0841 53.4562 46.1668 53.3052 46.2961 53.2012C46.8985 52.7198 47.6468 52.4575 48.418 52.4575C49.1892 52.4575 49.9374 52.7198 50.5399 53.2012C50.6412 53.2821 50.715 53.3924 50.7509 53.517C50.7868 53.6415 50.783 53.7742 50.7402 53.8966C50.6973 54.0189 50.6175 54.1249 50.5117 54.1999C50.406 54.2749 50.2795 54.3151 50.1499 54.315V54.3125ZM60.0374 54.35C59.908 54.3498 59.7819 54.3094 59.6765 54.2345C59.5711 54.1596 59.4914 54.0538 59.4487 53.9318C59.4059 53.8097 59.402 53.6774 59.4376 53.553C59.4732 53.4287 59.5465 53.3184 59.6474 53.2375C60.2516 52.7575 61.0006 52.4962 61.7724 52.4962C62.5441 52.4962 63.2931 52.7575 63.8974 53.2375C63.9656 53.2872 64.023 53.3502 64.0662 53.4226C64.1094 53.4951 64.1375 53.5756 64.1487 53.6592C64.16 53.7428 64.1542 53.8279 64.1317 53.9092C64.1093 53.9905 64.0705 54.0664 64.0179 54.1324C63.9653 54.1984 63.8999 54.253 63.8256 54.293C63.7513 54.333 63.6697 54.3575 63.5856 54.3651C63.5016 54.3727 63.4169 54.3632 63.3366 54.3372C63.2564 54.3112 63.1822 54.2692 63.1186 54.2137C62.7356 53.9089 62.2606 53.7429 61.7711 53.7429C61.2816 53.7429 60.8066 53.9089 60.4236 54.2137C60.3135 54.3007 60.1776 54.3486 60.0374 54.35Z" fill="#7F3C3C"/>
<path d="M73.6862 60.3437C73.6421 60.3435 73.5982 60.3389 73.555 60.33C73.3929 60.2955 73.2511 60.198 73.1609 60.059C73.0706 59.92 73.0393 59.7508 73.0737 59.5887C73.2425 58.9492 73.6353 58.3915 74.1806 58.0171C74.7259 57.6427 75.3875 57.4765 76.045 57.5487C76.2094 57.5698 76.3587 57.6553 76.4601 57.7865C76.5615 57.9176 76.6066 58.0837 76.5856 58.2481C76.5645 58.4125 76.479 58.5619 76.3479 58.6633C76.2167 58.7647 76.0507 58.8098 75.8862 58.7887C75.5399 58.7577 75.1933 58.846 74.9041 59.039C74.6149 59.2321 74.4004 59.5182 74.2962 59.85C74.2662 59.9896 74.1894 60.1147 74.0784 60.2045C73.9674 60.2944 73.829 60.3435 73.6862 60.3437Z" fill="#EF6F59"/>
<path d="M65.8625 82.0188L65.95 81.9688C66.2883 82.4806 66.751 82.8981 67.2947 83.1823C67.8384 83.4665 68.4454 83.6081 69.0587 83.5937C70.0858 83.7491 71.1359 83.6104 72.0875 83.1937C74.9875 89.4937 75.35 95.7188 70.95 96.4813C70.85 96.4938 70.7375 96.5188 70.6125 96.5313C67.7125 96.8813 61.7125 95.7688 60.5 93.5312C59.375 91.4312 60.4125 87.9438 62.5625 85.1188C63.4751 83.9025 64.5916 82.8537 65.8625 82.0188Z" fill="#934747"/>
<path d="M73.625 80.7625C73.625 82.0125 72.475 84.475 68.9625 83.85C64.325 83.025 65.775 79.575 66.05 78.9375C66.2194 79.4718 66.4949 79.9665 66.8601 80.3918C67.2252 80.8171 67.6725 81.1642 68.175 81.4125C69.0649 81.7708 70.0307 81.8991 70.9833 81.7854C71.9358 81.6718 72.8444 81.32 73.625 80.7625Z" fill="white"/>
</svg>
