<svg width="32" height="32" viewBox="0 0 32 32" fill="none" xmlns="http://www.w3.org/2000/svg">
<path d="M16.0001 20.8C15.0508 20.8 14.1228 20.5185 13.3334 19.9911C12.5441 19.4636 11.9288 18.714 11.5655 17.8369C11.2022 16.9598 11.1072 15.9947 11.2924 15.0636C11.4776 14.1325 11.9347 13.2772 12.606 12.6059C13.2773 11.9346 14.1326 11.4774 15.0637 11.2922C15.9948 11.107 16.9599 11.2021 17.837 11.5654C18.7141 11.9287 19.4638 12.5439 19.9912 13.3333C20.5186 14.1226 20.8001 15.0507 20.8001 16C20.7977 17.2723 20.2912 18.4918 19.3916 19.3914C18.4919 20.2911 17.2724 20.7976 16.0001 20.8ZM16.0001 13.4857C15.5029 13.4857 15.0168 13.6332 14.6033 13.9094C14.1898 14.1857 13.8676 14.5784 13.6772 15.0378C13.4869 15.4973 13.4372 16.0028 13.5342 16.4905C13.6312 16.9782 13.8706 17.4262 14.2223 17.7779C14.5739 18.1295 15.0219 18.369 15.5096 18.466C15.9974 18.563 16.5029 18.5132 16.9623 18.3229C17.4217 18.1326 17.8144 17.8103 18.0907 17.3969C18.367 16.9834 18.5144 16.4973 18.5144 16C18.5144 15.3332 18.2495 14.6937 17.778 14.2221C17.3065 13.7506 16.667 13.4857 16.0001 13.4857ZM22.8573 22.6834C22.6323 22.682 22.4127 22.6143 22.2261 22.4886C22.0394 22.3629 21.894 22.1849 21.8081 21.977C21.7222 21.769 21.6996 21.5403 21.7431 21.3196C21.7866 21.0988 21.8943 20.8958 22.0527 20.736C23.3056 19.4782 24.009 17.7753 24.009 16C24.009 14.2247 23.3056 12.5218 22.0527 11.264C21.9371 11.1601 21.8439 11.0336 21.7789 10.8924C21.7138 10.7512 21.6783 10.5983 21.6744 10.4429C21.6705 10.2874 21.6983 10.1329 21.7562 9.9886C21.8141 9.84432 21.9008 9.71337 22.011 9.60375C22.1213 9.49414 22.2527 9.40817 22.3973 9.3511C22.5419 9.29403 22.6966 9.26706 22.852 9.27185C23.0074 9.27663 23.1602 9.31306 23.301 9.37892C23.4418 9.44478 23.5677 9.53867 23.671 9.65486C25.3504 11.3395 26.2934 13.6212 26.2934 16C26.2934 18.3788 25.3504 20.6605 23.671 22.3451C23.5651 22.4534 23.4385 22.5392 23.2987 22.5973C23.1588 22.6554 23.0087 22.6847 22.8573 22.6834ZM9.143 22.6926C8.83785 22.6911 8.54554 22.5696 8.32929 22.3543C6.64932 20.6681 5.70605 18.3848 5.70605 16.0046C5.70605 13.6243 6.64932 11.3411 8.32929 9.65486C8.54389 9.44026 8.83494 9.3197 9.13843 9.3197C9.44192 9.3197 9.73298 9.44026 9.94758 9.65486C10.1622 9.86946 10.2827 10.1605 10.2827 10.464C10.2827 10.7675 10.1622 11.0585 9.94758 11.2731C8.69528 12.5294 7.99208 14.2308 7.99208 16.0046C7.99208 17.7784 8.69528 19.4798 9.94758 20.736C10.054 20.8422 10.1384 20.9683 10.1961 21.1071C10.2537 21.246 10.2833 21.3948 10.2833 21.5451C10.2833 21.6955 10.2537 21.8443 10.1961 21.9832C10.1384 22.122 10.054 22.2481 9.94758 22.3543C9.73358 22.5674 9.44498 22.6887 9.143 22.6926Z" fill="#5F3C08"/>
<path d="M26.3404 27.1177C26.0373 27.1177 25.7466 26.9973 25.5323 26.783C25.318 26.5687 25.1976 26.278 25.1976 25.9749C25.1996 25.6627 25.3244 25.3638 25.545 25.1429C26.7878 23.9663 27.7777 22.5488 28.4543 20.9768C29.1308 19.4048 29.4797 17.7114 29.4797 16C29.4797 14.2886 29.1308 12.5952 28.4543 11.0232C27.7777 9.45122 26.7878 8.03366 25.545 6.85714C25.3268 6.64618 25.2013 6.35717 25.1961 6.05368C25.191 5.75019 25.3066 5.45709 25.5176 5.23886C25.7285 5.02062 26.0175 4.89513 26.321 4.88998C26.6245 4.88484 26.9176 5.00047 27.1359 5.21143C28.5953 6.60004 29.7574 8.27079 30.5514 10.1222C31.3454 11.9737 31.7548 13.9672 31.7548 15.9817C31.7548 17.9962 31.3454 19.9897 30.5514 21.8412C29.7574 23.6926 28.5953 25.3634 27.1359 26.752C27.0348 26.8635 26.9122 26.9533 26.7755 27.0162C26.6388 27.079 26.4908 27.1136 26.3404 27.1177ZM5.65928 27.1177C5.48628 27.1249 5.31393 27.0924 5.15545 27.0227C4.99696 26.953 4.85655 26.8478 4.74499 26.7154C3.29861 25.3185 2.15046 23.6428 1.36994 21.7896C0.589423 19.9364 0.192731 17.9443 0.20384 15.9334C0.21495 13.9226 0.63363 11.9349 1.43458 10.0905C2.23553 8.24606 3.40212 6.58316 4.86385 5.20228C5.08209 4.99132 5.37519 4.8757 5.67868 4.88084C5.98216 4.88598 6.27118 5.01148 6.48214 5.22971C6.6931 5.44795 6.80872 5.74105 6.80358 6.04454C6.79844 6.34802 6.67294 6.63704 6.45471 6.848C5.21187 8.02452 4.22196 9.44207 3.54544 11.0141C2.86892 12.5861 2.52 14.2795 2.52 15.9909C2.52 17.7022 2.86892 19.3957 3.54544 20.9676C4.22196 22.5396 5.21187 23.9572 6.45471 25.1337C6.56407 25.2411 6.65108 25.3692 6.71071 25.5104C6.77034 25.6516 6.80141 25.8033 6.80214 25.9566C6.80334 26.1079 6.77474 26.2579 6.71796 26.3981C6.66117 26.5384 6.57733 26.666 6.4712 26.7738C6.36508 26.8817 6.23875 26.9675 6.09944 27.0265C5.96013 27.0855 5.81056 27.1165 5.65928 27.1177Z" fill="#5F3C08"/>
</svg>
