<svg width="80" height="80" viewBox="0 0 80 80" fill="none" xmlns="http://www.w3.org/2000/svg">
<path d="M67.3997 73.3501C63.633 76.2001 49.583 76.7501 49.583 76.7501L43.033 66.1501L40.833 62.5834L63.4997 55.8501C65.083 56.2168 66.483 56.9001 67.6663 57.8334L67.6997 57.8668C68.5163 58.4834 69.2163 59.2334 69.833 60.0668C72.4997 63.7001 71.1663 70.5001 67.3997 73.3501Z" fill="#FCC72D"/>
<path d="M67.3999 73.35C63.6332 76.2 49.5832 76.75 49.5832 76.75L43.0332 66.15C49.0499 65.95 50.9832 71.05 50.9832 71.05C50.9832 71.05 62.6499 73.3334 66.3999 66.7167C69.8832 60.5667 67.9832 58.1834 67.6999 57.8667C68.5165 58.4834 69.2165 59.2334 69.8332 60.0667C72.4999 63.7 71.1665 70.5 67.3999 73.35Z" fill="#EFB014"/>
<path d="M22.2504 20.9833C18.3504 21.0833 15.6004 17.5166 15.6004 17.5166C15.6004 17.5166 13.8671 21.4833 15.6004 23.5499C17.3338 25.6333 15.7004 28.6999 17.4504 30.8833C19.1838 33.0666 22.1171 33.8499 21.9171 37.2166C21.7171 40.5833 30.9671 35.0166 30.9671 35.0166L31.2838 27.3999L27.9671 24.6999C27.9338 24.7166 26.1504 20.8833 22.2504 20.9833ZM63.5671 17.5166C63.5671 17.5166 60.8004 21.0833 56.9171 20.9833C53.0171 20.8833 51.2338 24.7166 51.2338 24.7166L46.8004 26.6833L48.2338 35.0166C48.2338 35.0166 57.4838 40.5833 57.2838 37.2166C57.0838 33.8499 60.0004 33.0666 61.7504 30.8833C63.4838 28.6999 61.8504 25.6333 63.6004 23.5499C65.3004 21.4666 63.5671 17.5166 63.5671 17.5166ZM57.4338 51.6333V57.6499L53.7838 60.0833C50.9171 63.1999 48.1671 66.1833 43.3504 66.6999C42.8004 66.7499 40.4171 66.4166 39.8504 66.4333L33.6004 66.2999L22.3838 57.9166L22.8838 45.1666L24.9671 41.3499C26.4671 39.5833 28.4004 38.0999 30.6338 36.9999C31.1171 36.7666 31.6004 36.5499 32.1171 36.3499H32.3338L46.8504 36.3333H47.0504C47.5671 36.5333 48.0671 36.7666 48.5504 36.9999C50.5838 37.9833 52.3671 39.3166 53.8004 40.8666L57.4338 51.6333Z" fill="#EF966A"/>
<path d="M48.5338 37.0167V45.4667C48.5338 46.1667 48.3005 47.5167 48.2671 47.6667C47.7835 49.6052 46.6667 51.3268 45.0938 52.5586C43.5208 53.7904 41.5817 54.4619 39.5838 54.4667C34.6505 54.4667 30.6338 50.45 30.6338 45.5167V37.0334C31.1171 36.8 31.6005 36.5834 32.1171 36.3834H32.3338V45.5167C32.3338 49.5167 35.5838 52.7667 39.5838 52.7667C42.8838 52.7667 45.7838 50.5167 46.6005 47.3167C46.6671 47.0167 46.8338 45.9334 46.8338 45.4834V36.3667H47.0338C47.5505 36.55 48.0671 36.7667 48.5338 37.0167Z" fill="#FF2936"/>
<path d="M49.0164 27.7333C49.0164 27.7333 50.9331 32.5667 47.1997 36.2167C46.5331 36.8667 45.6997 37.4833 44.6331 38.0167H34.5331C33.4331 37.45 32.5497 36.8167 31.8997 36.15C31.8831 36.15 31.8831 36.1333 31.8664 36.1333C28.2497 32.4833 30.1331 27.7333 30.1331 27.7333L28.7664 23.4833L30.2497 18.3167L44.9497 18.6333L50.4997 22.85L49.0164 27.7333ZM25.7331 42.4833V53.8333L17.5664 49.05V43.5833L18.9664 43.1667L21.3831 41.8333L23.7997 42.75L25.7331 42.4833Z" fill="#FFBD9C"/>
<path d="M33.6332 76.4167C31.9332 78.4 33.2499 79.1667 33.2499 79.1667H40.2332L42.2499 77.1167L43.5832 74.0667L40.2332 71.05L34.5832 72.8834L33.6332 76.4167Z" fill="#F4A989"/>
<path d="M52.5337 13.8333C50.6337 4.79992 43.4837 3.68325 43.4837 3.68325C43.4837 3.68325 41.9004 0.833252 39.5837 0.833252C37.267 0.833252 35.667 3.69992 35.667 3.69992C35.667 3.69992 28.517 4.79992 26.617 13.8499C24.717 22.8833 30.117 27.7332 30.117 27.7332C30.117 27.7332 29.817 24.6499 32.6337 21.9999C35.4504 19.3499 39.5837 21.4166 39.5837 21.4166C39.5837 21.4166 43.717 19.3666 46.5337 21.9999C49.3504 24.6333 49.0504 27.7332 49.0504 27.7332C49.0504 27.7332 54.4337 22.8666 52.5337 13.8333Z" fill="#FCC72D"/>
<path d="M34.5332 32.8V41.6667C34.5332 47.25 40.7665 50.7667 45.7999 48.0167L47.4332 47.1334L50.4499 45.4834C51.9499 44.6667 53.9665 45.3334 54.3832 46.9334C54.4165 47.05 54.4332 47.1667 54.4332 47.2834C54.5165 48.6834 54.0499 50.3667 54.9665 50.3667C55.8832 50.3667 56.7165 49.1667 56.9499 48.3334C56.9499 48.3334 59.5332 48.75 60.2165 48.0167C60.8999 47.2834 57.7832 45.5167 57.5499 45.15C57.3165 44.7834 54.8332 40.4834 51.7832 40.1167C50.1499 39.9167 48.1832 40.3667 47.0499 40.5834C45.6999 40.8334 44.5999 39.3834 44.5999 38.0334V32.8834" fill="#FFBD9C"/>
<path d="M32.667 27.7166C33.5837 27.5666 34.2003 27.8333 34.7337 28.2C35.2337 28.6166 35.667 29.1166 35.7837 30.05C34.867 30.2 34.2503 29.9333 33.717 29.5666C33.2003 29.1666 32.7837 28.65 32.667 27.7166ZM46.5003 27.7166C46.3837 28.65 45.9503 29.15 45.4503 29.5666C44.917 29.9333 44.3003 30.2 43.3837 30.05C43.5003 29.1166 43.9337 28.6166 44.4337 28.2C44.967 27.85 45.567 27.5666 46.5003 27.7166Z" fill="#424852"/>
<path d="M29.417 16.8666C29.467 14.7 30.2503 12.4 31.8837 10.75C32.667 9.91665 33.6003 9.19998 34.6337 8.66665C35.667 8.11665 36.717 7.73332 37.9337 7.51665H38.0503C39.0837 7.49998 40.117 7.49998 41.1503 7.51665H41.267C42.4837 7.73332 43.5337 8.11665 44.567 8.66665C45.5837 9.19998 46.5337 9.89998 47.317 10.75C48.9503 12.4 49.7337 14.7167 49.767 16.8666C49.3837 15.8333 49.067 14.8166 48.4503 13.9667C47.917 13.0666 47.217 12.3 46.4503 11.65C45.6837 11 44.8003 10.4667 43.8837 10.05C42.967 9.64998 41.9503 9.33332 41.0337 9.18332H41.1503C40.117 9.19998 39.0837 9.19998 38.0503 9.18332H38.167C37.2503 9.33332 36.2337 9.64998 35.317 10.05C34.4003 10.4667 33.5337 11 32.7503 11.65C31.967 12.3 31.2837 13.0666 30.7503 13.9667C30.1337 14.8333 29.8003 15.8333 29.417 16.8666Z" fill="#EFB118"/>
<path d="M25.6665 52.4999V49.8666C25.6665 48.1832 27.0332 46.8166 28.7165 46.8166H28.7665V51.5332C28.7665 52.3693 28.6019 53.1972 28.2819 53.9696C27.9619 54.7421 27.493 55.4439 26.9018 56.0351C26.3106 56.6263 25.6087 57.0953 24.8363 57.4152C24.0638 57.7352 23.236 57.8999 22.3999 57.8999C21.5638 57.8999 20.7359 57.7352 19.9635 57.4152C19.191 57.0953 18.4892 56.6263 17.898 56.0351C17.3068 55.4439 16.8378 54.7421 16.5178 53.9696C16.1979 53.1972 16.0332 52.3693 16.0332 51.5332V44.2166" fill="#FFBD9C"/>
<path d="M18.4499 47.9V43.4166C18.4499 42.75 17.8999 42.2 17.2333 42.2C16.5666 42.2 16.0166 42.75 16.0166 43.4166V48.7" fill="#FFBD9C"/>
<path d="M20.8835 47.9V42.1833C20.8835 41.5167 20.3335 40.9667 19.6669 40.9667C19.0002 40.9667 18.4502 41.5167 18.4502 42.1833V43.4M23.3169 47.9V41.2167C23.3169 40.55 22.7669 40 22.1002 40C21.4335 40 20.8835 40.55 20.8835 41.2167V42.2" fill="#FFBD9C"/>
<path d="M25.7331 49.0499V42.4833C25.7331 41.8166 25.1831 41.2666 24.5165 41.2666C23.8498 41.2666 23.2998 41.8166 23.2998 42.4833M61.0665 58.2666V53.7833C61.0665 53.1166 61.6165 52.5666 62.2831 52.5666C62.9498 52.5666 63.4998 53.1166 63.4998 53.7833V59.4166C63.4998 60.6366 63.0152 61.8066 62.1525 62.6693C61.2898 63.532 60.1198 64.0166 58.8998 64.0166H58.3831C57.1631 64.0166 55.9931 63.532 55.1304 62.6693C54.2678 61.8066 53.7831 60.6366 53.7831 59.4166V52.8499C53.7831 52.1833 54.3331 51.6333 54.9998 51.6333C55.6665 51.6333 56.2165 52.1833 56.2165 52.8499" fill="#FFBD9C"/>
<path d="M58.6505 58.2667V52.55C58.6505 51.8834 59.2005 51.3334 59.8671 51.3334C60.5338 51.3334 61.0838 51.8834 61.0838 52.55V53.7667M56.2171 58.2667V51.5834C56.2171 50.9167 56.7671 50.3667 57.4338 50.3667C58.1005 50.3667 58.6505 50.9167 58.6505 51.5834V52.5667M48.4005 69.8667C48.1838 68.5834 47.2005 67.5667 45.9338 67.2834L40.2338 66L38.9338 65.6L37.1338 72.5834C37.1338 72.5834 39.6838 71.15 41.3338 73.4334C42.9838 75.7334 40.9671 79.15 44.9171 79.15C48.8671 79.15 49.6005 76.7334 49.6005 76.7334L48.4005 69.8667Z" fill="#FFBD9C"/>
<path d="M40.2171 64.6333C40.2171 64.6333 39.6005 67.0167 38.7005 69.35C38.0338 71.1 37.2005 72.8167 36.3671 73.45C34.4338 74.9167 32.2338 79.1667 29.5671 79.1667C26.9005 79.1667 9.35046 73.45 8.80046 66.6833C8.4838 62.7667 10.1338 60.3667 12.8171 59.1167L12.8338 59.1C16.7505 57.2167 22.8338 57.7333 28.0171 59.3667C36.7338 62.1167 40.2171 64.6333 40.2171 64.6333Z" fill="#FCC72D"/>
<path d="M38.6005 23.1833H40.3005V26.6834H38.6005V23.1833ZM35.8838 24.0167H37.5838V25.8333H35.8838V24.0167ZM41.3171 24.0167H43.0171V25.8333H41.3171V24.0167Z" fill="#FF2936"/>
<path d="M55.5838 52.85L56.7671 52.6334L59.0005 52.3667L61.4671 53.8167L62.5671 59.0834L60.7005 61.1L54.8838 54.5834L55.5838 52.85Z" fill="#FFBD9C"/>
<path d="M39.5837 59.4499C40.2373 59.4499 40.7671 58.9201 40.7671 58.2666C40.7671 57.613 40.2373 57.0833 39.5837 57.0833C38.9302 57.0833 38.4004 57.613 38.4004 58.2666C38.4004 58.9201 38.9302 59.4499 39.5837 59.4499Z" fill="#BA5E36"/>
<path d="M43.8331 14.2C43.8331 16.4667 41.9331 18.3166 39.5665 18.3166C37.1998 18.3166 35.2998 16.4667 35.2998 14.2C35.2998 11.9333 39.5665 6.31665 39.5665 6.31665C39.5665 6.31665 43.8331 11.9167 43.8331 14.2Z" fill="#E5A20C"/>
<path d="M39.4503 16.0501C40.5733 16.0501 41.4837 15.1397 41.4837 14.0167C41.4837 12.8938 40.5733 11.9834 39.4503 11.9834C38.3273 11.9834 37.417 12.8938 37.417 14.0167C37.417 15.1397 38.3273 16.0501 39.4503 16.0501Z" fill="#FF2936"/>
<path d="M34.5337 33.1833V38.0167C33.4337 37.45 32.5504 36.8167 31.9004 36.15C34.2171 37.5 34.5337 33.1833 34.5337 33.1833ZM47.2004 36.2167C46.5337 36.8667 45.7004 37.4833 44.6337 38.0167V33.45C44.6171 36.6 46.8837 36.2667 47.2004 36.2167Z" fill="#F4A989"/>
<path d="M38.7005 69.35C38.0338 71.1 37.2005 72.8167 36.3671 73.45C34.4338 74.9167 32.2338 79.1667 29.5671 79.1667C26.9005 79.1667 9.35046 73.45 8.80046 66.6834C8.4838 62.7667 10.1338 60.3667 12.8171 59.1167C12.3505 59.6167 9.48379 62.9 13.5171 65.6C17.8838 68.5334 32.2338 73.2167 34.5338 72.3834C35.7505 71.95 37.4005 70.55 38.7005 69.35Z" fill="#EFB014"/>
</svg>
