<svg width="16" height="16" viewBox="0 0 16 16" fill="none" xmlns="http://www.w3.org/2000/svg">
<path d="M16 10.6667H14.9333V8C14.9333 6.16117 14.2029 4.39765 12.9026 3.09739C11.6024 1.79714 9.83883 1.06667 8 1.06667C6.16117 1.06667 4.39765 1.79714 3.09739 3.09739C1.79714 4.39765 1.06667 6.16117 1.06667 8V10.6667H0V8C3.16163e-08 5.87827 0.842855 3.84344 2.34315 2.34315C3.84344 0.842855 5.87827 0 8 0C10.1217 0 12.1566 0.842855 13.6569 2.34315C15.1571 3.84344 16 5.87827 16 8V10.6667Z" fill="#5F3C08"/>
<path d="M3.32267 13.8667H2.66667C2.31648 13.8667 1.96971 13.7977 1.64618 13.6637C1.32264 13.5297 1.02867 13.3332 0.781049 13.0856C0.280952 12.5855 0 11.9072 0 11.2V10.1333C0 9.42609 0.280952 8.74781 0.781049 8.24772C1.28115 7.74762 1.95942 7.46667 2.66667 7.46667H3.32267C3.57449 7.47086 3.81458 7.57386 3.99117 7.75344C4.16776 7.93302 4.2667 8.17481 4.26667 8.42667V12.9067C4.2667 13.1585 4.16776 13.4003 3.99117 13.5799C3.81458 13.7595 3.57449 13.8625 3.32267 13.8667ZM2.66667 8.53333C2.24232 8.53333 1.83535 8.7019 1.5353 9.00196C1.23524 9.30202 1.06667 9.70899 1.06667 10.1333V11.2C1.06667 11.6243 1.23524 12.0313 1.5353 12.3314C1.83535 12.6314 2.24232 12.8 2.66667 12.8H3.2V8.53333H2.66667ZM13.3333 13.8667H12.6933C12.4387 13.8667 12.1945 13.7655 12.0145 13.5855C11.8345 13.4055 11.7333 13.1613 11.7333 12.9067V8.42667C11.7333 8.17206 11.8345 7.92788 12.0145 7.74784C12.1945 7.56781 12.4387 7.46667 12.6933 7.46667H13.3333C14.0406 7.46667 14.7189 7.74762 15.219 8.24772C15.719 8.74781 16 9.42609 16 10.1333V11.2C16 11.9072 15.719 12.5855 15.219 13.0856C14.7189 13.5857 14.0406 13.8667 13.3333 13.8667ZM12.8 12.8H13.3333C13.7577 12.8 14.1646 12.6314 14.4647 12.3314C14.7648 12.0313 14.9333 11.6243 14.9333 11.2V10.1333C14.9333 9.70899 14.7648 9.30202 14.4647 9.00196C14.1646 8.7019 13.7577 8.53333 13.3333 8.53333H12.8V12.8Z" fill="#5F3C08"/>
<path d="M3.3635 8H4.23381C4.38394 8 4.52792 8.04495 4.63408 8.12497C4.74023 8.20498 4.79987 8.31351 4.79987 8.42667V12.9067C4.79987 13.0198 4.74023 13.1284 4.63408 13.2084C4.52792 13.2884 4.38394 13.3333 4.23381 13.3333H3.3635C2.61286 13.3333 1.89296 13.1086 1.36218 12.7085C0.831394 12.3084 0.533203 11.7658 0.533203 11.2V10.1333C0.533203 9.56754 0.831394 9.02492 1.36218 8.62484C1.89296 8.22476 2.61286 8 3.3635 8Z" fill="#5F3C08"/>
<path d="M12.6224 13.3333H11.769C11.6181 13.3333 11.4734 13.2884 11.3668 13.2084C11.2601 13.1284 11.2001 13.0198 11.2001 12.9067V8.42667C11.2001 8.31351 11.2601 8.20498 11.3668 8.12497C11.4734 8.04495 11.6181 8 11.769 8H12.6224C13.3767 8 14.1002 8.22476 14.6337 8.62484C15.1671 9.02492 15.4668 9.56754 15.4668 10.1333V11.2C15.4668 11.7658 15.1671 12.3084 14.6337 12.7085C14.1002 13.1086 13.3767 13.3333 12.6224 13.3333Z" fill="#5F3C08"/>
<path d="M12.208 16H8.53333C8.39188 16 8.25623 15.9438 8.15621 15.8438C8.05619 15.7438 8 15.6081 8 15.4667C8 15.3252 8.05619 15.1896 8.15621 15.0895C8.25623 14.9895 8.39188 14.9333 8.53333 14.9333H12.2667C12.4081 14.9333 12.5438 14.8771 12.6438 14.7771C12.7438 14.6771 12.8 14.5414 12.8 14.4V13.3333H13.8667V14.4C13.8677 14.6616 13.8045 14.9195 13.6827 15.151C13.5609 15.3825 13.3841 15.5806 13.168 15.728C12.8832 15.9144 12.5482 16.0093 12.208 16Z" fill="#5F3C08"/>
</svg>
