<svg width="24" height="24" viewBox="0 0 24 24" fill="none" xmlns="http://www.w3.org/2000/svg">
<path d="M1.5 0C1.10218 0 0.720644 0.158035 0.43934 0.43934C0.158035 0.720644 0 1.10218 0 1.5L0 22.5C0 22.8978 0.158035 23.2794 0.43934 23.5607C0.720644 23.842 1.10218 24 1.5 24H3V0H1.5ZM19.5 0H4.5V24H19.5C19.8978 24 20.2794 23.842 20.5607 23.5607C20.842 23.2794 21 22.8978 21 22.5V1.5C21 1.10218 20.842 0.720644 20.5607 0.43934C20.2794 0.158035 19.8978 0 19.5 0ZM12.6675 5.781C13.2695 5.781 13.8469 6.02015 14.2725 6.44583C14.6982 6.87152 14.9374 7.44887 14.9374 8.05087C14.9374 8.65288 14.6982 9.23024 14.2725 9.65592C13.8469 10.0816 13.2695 10.3207 12.6675 10.3207C12.0655 10.3207 11.4881 10.0816 11.0625 9.65592C10.6368 9.23024 10.3976 8.65288 10.3976 8.05087C10.3976 7.44887 10.6368 6.87152 11.0625 6.44583C11.4881 6.02015 12.0655 5.781 12.6675 5.781ZM9 16.2105C9 13.4595 10.6635 11.2305 12.714 11.2305C14.7645 11.2305 16.428 13.461 16.428 16.2105C16.428 18.96 9 18.96 9 16.2105ZM22.5 1.5H24V6H22.5V1.5ZM22.5 7.5H24V12H22.5V7.5ZM22.5 13.5H24V18H22.5V13.5Z" fill="#2B3344"/>
</svg>
