<svg width="200" height="200" viewBox="0 0 200 200" fill="none" xmlns="http://www.w3.org/2000/svg">
<path d="M99.9999 168.235C137.685 168.235 168.235 137.685 168.235 99.9999C168.235 62.3146 137.685 31.7646 99.9999 31.7646C62.3146 31.7646 31.7646 62.3146 31.7646 99.9999C31.7646 137.685 62.3146 168.235 99.9999 168.235Z" fill="#464E58"/>
<path d="M194.118 99.2647C193.971 73.8235 183.676 50.8823 167.059 33.9706C166.765 33.5294 166.324 33.2353 166.029 32.9411C149.118 16.3235 126.176 6.02938 100.735 5.88232H99.2647C73.8235 6.02938 50.8823 16.3235 34.1176 32.9411L32.9411 34.1176C16.3235 50.8823 6.02938 73.8235 5.88232 99.2647V100.735C6.02938 126.176 16.3235 149.118 32.9411 165.882L34.1176 167.059C50.8823 183.529 73.9706 193.824 99.2647 194.118H100.735C126.176 193.971 149.118 183.676 166.029 167.059L167.206 165.882C183.676 149.118 193.971 126.029 194.265 100.735V100C194.118 99.7058 194.118 99.4117 194.118 99.2647ZM143.824 142.647C143.529 143.088 143.088 143.382 142.647 143.824C131.765 154.412 117.059 161.029 100.735 161.176H99.1176C82.9412 160.882 68.2353 154.412 57.3529 143.824C56.9117 143.529 56.6176 143.088 56.1764 142.647C45.5882 131.765 39.1176 117.059 38.8235 100.735V99.1176C39.1176 82.9411 45.5882 68.0882 56.1764 57.3529C56.4706 56.9117 56.9117 56.6176 57.3529 56.1764C68.2353 45.5882 82.9412 38.9706 99.2647 38.8235H100.882C117.059 38.9706 131.912 45.5882 142.647 56.1764C143.088 56.4706 143.382 56.9117 143.824 57.3529C154.412 68.2353 161.029 82.9411 161.176 99.2647V100.882C160.882 117.059 154.412 131.765 143.824 142.647Z" fill="#7CCEDC"/>
<path d="M176.765 78.5294V67.353C178.53 65.8824 179.706 63.5294 179.706 61.0294H177.794C177.794 64.7059 174.853 67.6471 171.177 67.6471C167.5 67.6471 164.559 64.7059 164.559 61.0294H162.647C162.647 63.5294 163.677 65.7353 165.441 67.353V78.6765C163.677 80.1471 162.647 82.5 162.647 85H164.559C164.559 81.3236 167.5 78.3824 171.177 78.3824C174.853 78.3824 177.794 81.3236 177.794 85H179.706C179.706 82.353 178.53 80 176.765 78.5294ZM167.647 77.353V68.5294C168.824 69.1177 170 69.4118 171.324 69.4118C172.647 69.4118 173.824 69.1177 175 68.5294V77.2059C173.824 76.6177 172.647 76.3236 171.324 76.3236C170 76.4706 168.677 76.7647 167.647 77.353ZM41.0295 70C40.4413 68.6765 39.2648 67.6471 37.9413 67.2059C35.8825 66.4706 33.3825 67.0589 32.0589 68.6765C31.9119 68.8236 29.706 70.8824 28.3825 75C27.0589 70.8824 24.853 68.8236 24.853 68.8236C23.3825 67.2059 21.0295 66.4706 18.8236 67.353C17.5001 67.7942 16.3236 68.8236 15.7354 70.1471C15.1472 71.4706 15.0001 72.9412 15.5883 74.2647C16.1766 75.7353 17.206 76.9118 18.6766 77.5L19.4119 75.5883C18.5295 75.2942 17.7942 74.5589 17.5001 73.5294C16.9119 71.7647 17.7942 69.7059 19.5589 69.1177C20.8825 68.6765 22.353 68.9706 23.3825 70.1471C23.3825 70.1471 27.206 73.6765 27.353 81.3236V87.9412H29.4119V82.0589C29.2648 73.8236 33.3825 70 33.5295 69.853C34.4119 68.8236 36.0295 68.3824 37.353 68.8236C38.2354 69.1177 38.9707 69.7059 39.2648 70.5883C39.706 71.4706 39.706 72.353 39.4119 73.2353C39.1177 74.1177 38.3825 74.853 37.5001 75.2942L38.2354 77.2059C39.706 76.6177 40.7354 75.4412 41.3236 73.9706C41.6178 72.7942 41.6177 71.3236 41.0295 70ZM141.177 171.471H128.971L130.735 169.706C131.618 168.824 132.206 167.647 132.206 166.324C132.206 163.676 130.147 161.618 127.5 161.618C124.853 161.618 122.794 163.676 122.794 166.324C122.794 167.647 123.235 168.824 124.265 169.706L126.03 171.471H113.824V169.412H121.324C120.882 168.529 120.588 167.353 120.588 166.324C120.588 162.5 123.677 159.559 127.353 159.559C131.03 159.559 134.118 162.647 134.118 166.324C134.118 167.353 133.824 168.382 133.382 169.412H141.177V171.471ZM113.824 175H141.177V177.059H113.824V175ZM79.5589 27.2059H74.4119C74.706 21.4706 77.353 17.6471 77.5001 17.5L75.8825 16.1765C75.8825 16.1765 72.6472 20.5883 72.353 27.2059H66.3236C66.1766 20.5883 62.9413 16.1765 62.9413 16.1765L61.3236 17.353C61.4707 17.6471 64.2648 21.3236 64.4119 27.0589H59.2648V29.1177H64.4119C64.2648 32.0589 63.3825 35.4412 61.1766 38.9706L62.9413 40C65.2942 36.0295 66.1766 32.353 66.3236 29.1177H72.353C72.5001 32.353 73.3825 36.0295 75.7354 40L77.5001 38.9706C75.4413 35.4412 74.5589 32.0589 74.2648 29.1177H79.4119V27.2059H79.5589ZM75.7354 171.324L73.6766 163.088L67.206 170.588L63.8236 162.794L57.0589 170.588L55.7354 169.412L64.4119 159.265L67.7942 167.059L74.706 159.118L76.6177 167.206L82.7942 159.559L87.0589 165.441L85.5883 166.618L82.6472 162.647L75.7354 171.324Z" fill="#464E58"/>
<path d="M73.6764 182.647L71.6175 174.412L65.1469 182.059L61.7646 174.265L54.9999 182.059L53.5293 180.882L62.2058 170.735L65.5881 178.529L72.4999 170.588L74.5587 178.677L80.7352 171.029L84.9999 176.912L83.3822 178.088L80.5881 173.971L73.6764 182.647ZM180.588 123.971L182.059 122.5L172.647 113.235L163.235 122.5L164.706 123.971L171.618 117.059V132.794H165.441V134.853H171.618V141.177H173.676V134.853H179.706V132.794H173.676V117.059L180.588 123.971ZM136.323 37.7942C135.882 37.7942 135.294 37.6471 134.706 37.2059C134.118 36.6177 133.823 35.7353 133.97 34.4118V21.3236L129.853 25.5883V34.1177H127.941V21.4706L123.823 25.7353V34.2647H121.912V21.6177L119.118 24.5589L117.647 23.0883L121.765 18.6765H123.823V22.7942L127.647 18.6765H129.706V22.7942L133.529 18.6765H135.588V34.7059C135.588 35.2942 135.882 36.4706 136.618 36.4706C137.206 36.4706 137.794 36.0295 138.676 34.853L138.823 34.5589L138.529 34.2647L138.235 33.3824L141.47 32.5L140.882 35.8824L140 35L139.706 35.5883C139.265 36.7648 137.794 37.7942 136.323 37.7942Z" fill="#464E58"/>
<path d="M26.3238 136.617C22.5002 136.617 18.8238 135.294 15.7355 133.088L15.4414 132.794L16.6179 131.323L16.912 131.617C19.5591 133.676 22.7943 134.853 26.1767 134.853C27.9414 134.853 29.8532 134.559 31.6179 133.823C30.0002 133.088 28.9708 131.47 28.9708 129.559C28.9708 126.912 31.0296 124.853 33.6767 124.853C36.3238 124.853 38.3826 126.912 38.3826 129.559C38.3826 130.882 37.7943 132.206 36.7649 133.088C36.6179 133.235 36.4708 133.382 36.3238 133.382C33.3826 135.588 30.0002 136.617 26.3238 136.617ZM33.8238 126.617C32.3532 126.617 31.0296 127.794 31.0296 129.412C31.0296 131.029 32.2061 132.206 33.8238 132.206C34.2649 132.206 34.8532 132.059 35.2943 131.765C35.2943 131.765 35.5885 131.617 35.7355 131.47C36.3238 130.882 36.7649 130.147 36.7649 129.412C36.6179 127.941 35.2943 126.617 33.8238 126.617Z" fill="#464E58"/>
<path d="M20.4412 131.471C17.7942 131.471 15.7354 129.412 15.7354 126.765C15.7354 125.441 16.3236 124.118 17.353 123.235L17.5001 123.088C17.6471 122.941 17.7942 122.794 17.9412 122.794C20.8824 120.735 24.2648 119.706 27.7942 119.706C31.6177 119.706 35.2942 121.029 38.3824 123.235L38.6765 123.529L37.5001 125L37.2059 124.706C34.5589 122.647 31.3236 121.471 27.9412 121.471C26.1765 121.471 24.2648 121.765 22.5001 122.5C24.1177 123.235 25.1471 124.853 25.1471 126.765C25.1471 129.265 23.0883 131.471 20.4412 131.471ZM20.4412 123.823C20.0001 123.823 19.4118 123.971 18.9706 124.265C18.9706 124.265 18.6765 124.412 18.5295 124.559C17.9412 125.147 17.5001 125.882 17.5001 126.618C17.5001 128.088 18.6765 129.412 20.2942 129.412C21.9118 129.412 23.0883 128.235 23.0883 126.618C23.0883 125 21.9118 123.823 20.4412 123.823Z" fill="#464E58"/>
<path d="M117.647 51.3235H60.5884V148.676H139.412V73.0882L117.647 51.3235Z" fill="white"/>
<path d="M117.647 73.0882H139.412L117.647 51.3235V73.0882Z" fill="#F37C5A"/>
<path d="M72.9414 79.2646H127.059V82.2058H72.9414V79.2646ZM72.9414 94.9999H127.059V97.9411H72.9414V94.9999ZM72.9414 110.588H127.059V113.529H72.9414V110.588ZM72.9414 126.323H127.059V129.265H72.9414V126.323Z" fill="#F2F2F2"/>
</svg>
