<svg width="12" height="12" viewBox="0 0 12 12" fill="none" xmlns="http://www.w3.org/2000/svg">
<path d="M6.6 5.4H3C2.84087 5.4 2.68826 5.46321 2.57574 5.57574C2.46321 5.68826 2.4 5.84087 2.4 6C2.4 6.15913 2.46321 6.31174 2.57574 6.42426C2.68826 6.53679 2.84087 6.6 3 6.6H6.6C6.75913 6.6 6.91174 6.53679 7.02426 6.42426C7.13679 6.31174 7.2 6.15913 7.2 6C7.2 5.84087 7.13679 5.68826 7.02426 5.57574C6.91174 5.46321 6.75913 5.4 6.6 5.4ZM9 3H3C2.84087 3 2.68826 3.06321 2.57574 3.17574C2.46321 3.28826 2.4 3.44087 2.4 3.6C2.4 3.75913 2.46321 3.91174 2.57574 4.02426C2.68826 4.13679 2.84087 4.2 3 4.2H9C9.15913 4.2 9.31174 4.13679 9.42426 4.02426C9.53679 3.91174 9.6 3.75913 9.6 3.6C9.6 3.44087 9.53679 3.28826 9.42426 3.17574C9.31174 3.06321 9.15913 3 9 3ZM10.2 0H1.8C1.32261 0 0.864773 0.189642 0.527208 0.527208C0.189642 0.864773 0 1.32261 0 1.8V7.8C0 8.27739 0.189642 8.73523 0.527208 9.07279C0.864773 9.41036 1.32261 9.6 1.8 9.6H8.754L10.974 11.826C11.0301 11.8816 11.0966 11.9256 11.1697 11.9555C11.2428 11.9853 11.321 12.0005 11.4 12C11.4787 12.0022 11.5568 11.9857 11.628 11.952C11.7376 11.907 11.8314 11.8305 11.8976 11.7323C11.9638 11.6341 11.9994 11.5185 12 11.4V1.8C12 1.56362 11.9534 1.32956 11.863 1.11117C11.7725 0.892784 11.6399 0.694353 11.4728 0.527208C11.3056 0.360062 11.1072 0.227475 10.8888 0.137017C10.6704 0.0465583 10.4364 0 10.2 0ZM10.8 9.954L9.426 8.574C9.36994 8.51839 9.30345 8.4744 9.23034 8.44454C9.15724 8.41468 9.07896 8.39954 9 8.4H1.8C1.64087 8.4 1.48826 8.33679 1.37574 8.22426C1.26321 8.11174 1.2 7.95913 1.2 7.8V1.8C1.2 1.64087 1.26321 1.48826 1.37574 1.37574C1.48826 1.26321 1.64087 1.2 1.8 1.2H10.2C10.3591 1.2 10.5117 1.26321 10.6243 1.37574C10.7368 1.48826 10.8 1.64087 10.8 1.8V9.954Z" fill="#0E2339"/>
</svg>
