<svg width="64" height="64" viewBox="0 0 64 64" fill="none" xmlns="http://www.w3.org/2000/svg">
<g clip-path="url(#clip0_939_2945)">
<path d="M37.5491 46.084C37.5492 43.8624 38.1296 41.6793 39.2327 39.7508C40.3358 37.8224 41.9234 36.2155 43.8384 35.0891C45.7533 33.9628 47.9293 33.3561 50.1508 33.3291C52.3723 33.3021 54.5623 33.8557 56.5041 34.9352C58.4459 36.0146 60.0721 37.5825 61.2217 39.4835C62.3714 41.3846 63.0046 43.5529 63.0588 45.7739C63.1129 47.9949 62.5861 50.1916 61.5305 52.1464C60.4748 54.1012 58.9269 55.7465 57.0401 56.9193V63.0624L49.9482 58.8355C46.6282 58.7425 43.4753 57.3582 41.1599 54.977C38.8445 52.5958 37.5491 49.4054 37.5491 46.084Z" fill="#FF6666"/>
<path d="M50.3057 33.3275C49.6781 33.3275 49.0515 33.3735 48.4307 33.465C51.0143 33.8492 53.4177 35.0171 55.3163 36.8111C57.2148 38.605 58.517 40.9384 59.047 43.4961C59.5769 46.0538 59.309 48.7125 58.2794 51.1131C57.2499 53.5136 55.5083 55.5403 53.29 56.9194V60.8274L57.04 63.0625V56.9194C59.3949 55.4556 61.2087 53.2644 62.2069 50.6776C63.2051 48.0908 63.3334 45.2492 62.5723 42.583C61.8112 39.9168 60.2022 37.5711 57.9889 35.9011C55.7756 34.231 53.0784 33.3275 50.3057 33.3274V33.3275Z" fill="#FF4E4E"/>
<path d="M56.1044 42.8354H45.1311C44.8825 42.8354 44.644 42.7367 44.4682 42.5609C44.2924 42.385 44.1936 42.1466 44.1936 41.8979C44.1936 41.6493 44.2924 41.4109 44.4682 41.235C44.644 41.0592 44.8825 40.9604 45.1311 40.9604H56.1044C56.353 40.9604 56.5914 41.0592 56.7673 41.235C56.9431 41.4109 57.0419 41.6493 57.0419 41.8979C57.0419 42.1466 56.9431 42.385 56.7673 42.5609C56.5914 42.7367 56.353 42.8354 56.1044 42.8354Z" fill="white"/>
<path d="M50.3057 42.8355C50.057 42.8355 49.8186 42.7367 49.6428 42.5609C49.467 42.3851 49.3682 42.1466 49.3682 41.898V39.3853C49.3682 39.1366 49.467 38.8982 49.6428 38.7223C49.8186 38.5465 50.057 38.4478 50.3057 38.4478C50.5543 38.4478 50.7928 38.5465 50.9686 38.7223C51.1444 38.8982 51.2432 39.1366 51.2432 39.3853V41.898C51.2432 42.1466 51.1444 42.3851 50.9686 42.5609C50.7928 42.7367 50.5543 42.8355 50.3057 42.8355ZM45.4308 51.6423C45.2126 51.6423 45.0012 51.5663 44.833 51.4272C44.6649 51.2882 44.5505 51.0948 44.5096 50.8805C44.4686 50.6662 44.5037 50.4443 44.6088 50.253C44.7139 50.0618 44.8824 49.9132 45.0853 49.8329C46.4012 49.3133 47.6316 48.5991 48.7353 47.7141C50.732 46.0887 52.2632 43.9642 53.1738 41.556C53.2178 41.441 53.284 41.3358 53.3687 41.2464C53.4533 41.157 53.5547 41.0852 53.6672 41.035C53.7796 40.9848 53.9008 40.9572 54.0238 40.9538C54.1469 40.9505 54.2694 40.9714 54.3844 41.0154C54.4994 41.0594 54.6046 41.1256 54.694 41.2102C54.7834 41.2949 54.8553 41.3963 54.9055 41.5087C54.9557 41.6211 54.9832 41.7423 54.9866 41.8654C54.99 41.9885 54.969 42.111 54.9251 42.226C53.8956 44.9445 52.1653 47.3422 49.9097 49.1758C48.6597 50.1783 47.2663 50.9875 45.7759 51.5761C45.6661 51.6198 45.5491 51.6422 45.4309 51.6423H45.4308Z" fill="white"/>
<path d="M54.2395 52.076C54.1526 52.0759 54.0662 52.0638 53.9826 52.04C50.7072 51.1137 47.9039 48.9816 46.1364 46.0726C46.0071 45.8602 45.9676 45.6051 46.0263 45.3635C46.0851 45.122 46.2375 44.9136 46.4499 44.7843C46.6623 44.6551 46.9174 44.6155 47.159 44.6743C47.4005 44.7331 47.6089 44.8854 47.7382 45.0978C49.26 47.6033 51.6744 49.4393 54.4954 50.2363C54.7131 50.2981 54.9011 50.4365 55.0247 50.6261C55.1483 50.8156 55.1993 51.0434 55.1681 51.2675C55.1369 51.4916 55.0257 51.6969 54.8551 51.8455C54.6844 51.9941 54.4658 52.0759 54.2395 52.076Z" fill="white"/>
<path d="M15.5361 18.11C15.5363 15.1257 16.3159 12.1931 17.7977 9.60257C19.2795 7.01206 21.4122 4.85346 23.9846 3.34043C26.5569 1.8274 29.4799 1.01241 32.464 0.97612C35.4482 0.939835 38.3901 1.68352 40.9985 3.13355C43.6069 4.58359 45.7914 6.6897 47.3358 9.2434C48.8801 11.7971 49.7308 14.7099 49.8035 17.6933C49.8763 20.6768 49.1686 23.6276 47.7506 26.2535C46.3325 28.8795 44.2533 31.0896 41.7186 32.665V40.9173L32.192 35.2391C27.7322 35.1141 23.497 33.2546 20.3867 30.0559C17.2764 26.8572 15.5362 22.5716 15.5361 18.11Z" fill="#63EA86"/>
<path d="M32.6726 0.973633C32.0462 0.973868 31.4203 1.00808 30.7976 1.07613C34.3402 1.46643 37.673 2.95151 40.3321 5.32467C42.9911 7.69782 44.8441 10.841 45.6331 14.3166C46.4222 17.7922 46.108 21.4273 44.7343 24.716C43.3605 28.0046 40.9957 30.7832 37.9689 32.6649V38.682L41.7189 40.9171V32.6649C44.882 30.6985 47.3185 27.7551 48.6593 24.2803C50.0002 20.8055 50.1725 16.9884 49.1502 13.4069C48.1279 9.82535 45.9665 6.67441 42.9934 4.43102C40.0202 2.18762 36.3972 0.973919 32.6726 0.973633Z" fill="#3CE568"/>
<path d="M29.8812 17.3599H25.844C25.5954 17.3599 25.3569 17.2612 25.1811 17.0853C25.0053 16.9095 24.9065 16.6711 24.9065 16.4224C24.9065 16.1738 25.0053 15.9353 25.1811 15.7595C25.3569 15.5837 25.5954 15.4849 25.844 15.4849H29.8814C30.4419 15.4849 30.9794 15.2623 31.3757 14.866C31.772 14.4696 31.9947 13.9321 31.9947 13.3716C31.9947 12.8111 31.772 12.2736 31.3757 11.8773C30.9794 11.481 30.4419 11.2583 29.8814 11.2583H25.844C25.5954 11.2583 25.3569 11.1595 25.1811 10.9837C25.0053 10.8079 24.9065 10.5694 24.9065 10.3208C24.9065 10.0722 25.0053 9.8337 25.1811 9.65789C25.3569 9.48207 25.5954 9.3833 25.844 9.3833H29.8814C30.9391 9.3833 31.9536 9.8035 32.7015 10.5514C33.4495 11.2994 33.8697 12.3138 33.8697 13.3716C33.8697 14.4294 33.4495 15.4438 32.7015 16.1918C31.9536 16.9397 30.939 17.3599 29.8812 17.3599Z" fill="white"/>
<path d="M29.1626 23.5075C27.9862 23.5092 26.8216 23.2735 25.7384 22.8145C24.6553 22.3555 23.6759 21.6826 22.8589 20.8362C22.6861 20.6574 22.5915 20.4172 22.5958 20.1686C22.6002 19.92 22.7031 19.6833 22.8819 19.5106C23.0608 19.3378 23.3009 19.2432 23.5496 19.2475C23.7982 19.2518 24.0349 19.3548 24.2076 19.5336C24.924 20.2757 25.7983 20.847 26.7655 21.2052C27.7327 21.5634 28.7682 21.6994 29.7951 21.603C29.8241 21.6002 29.8532 21.5989 29.8825 21.599C30.1656 21.599 30.4458 21.5422 30.7066 21.4321C30.9674 21.322 31.2035 21.1608 31.401 20.958C31.5985 20.7551 31.7534 20.5148 31.8565 20.2511C31.9595 19.9875 32.0088 19.7059 32.0012 19.4229C31.9719 18.2854 30.9906 17.3599 29.8136 17.3599H25.8441C25.5955 17.3599 25.357 17.2611 25.1812 17.0853C25.0054 16.9095 24.9066 16.671 24.9066 16.4224C24.9066 16.1737 25.0054 15.9353 25.1812 15.7595C25.357 15.5836 25.5955 15.4849 25.8441 15.4849H29.8136C31.9981 15.4849 33.8205 17.2297 33.8756 19.3745C33.8895 19.9039 33.7981 20.4308 33.6065 20.9245C33.4149 21.4183 33.127 21.869 32.7597 22.2504C32.3923 22.6319 31.9527 22.9365 31.4666 23.1465C30.9804 23.3565 30.4573 23.4677 29.9277 23.4737C29.6737 23.4962 29.4181 23.5075 29.1626 23.5075Z" fill="white"/>
<path d="M38.9558 17.3599H29.8684C29.6198 17.3599 29.3813 17.2611 29.2055 17.0853C29.0297 16.9095 28.9309 16.671 28.9309 16.4224C28.9309 16.1737 29.0297 15.9353 29.2055 15.7595C29.3813 15.5836 29.6198 15.4849 29.8684 15.4849H38.9559C39.2045 15.4849 39.443 15.5836 39.6188 15.7595C39.7946 15.9353 39.8934 16.1737 39.8934 16.4224C39.8934 16.671 39.7946 16.9095 39.6188 17.0853C39.443 17.2611 39.2045 17.3599 38.9559 17.3599H38.9558Z" fill="white"/>
<path d="M38.9558 23.4614C38.7072 23.4614 38.4687 23.3627 38.2929 23.1868C38.1171 23.011 38.0183 22.7726 38.0183 22.5239V10.3208C38.0183 10.0722 38.1171 9.8337 38.2929 9.65789C38.4687 9.48207 38.7072 9.3833 38.9558 9.3833C39.2045 9.3833 39.4429 9.48207 39.6187 9.65789C39.7945 9.8337 39.8933 10.0722 39.8933 10.3208V22.5239C39.8933 22.7726 39.7945 23.011 39.6187 23.1868C39.4429 23.3627 39.2045 23.4614 38.9558 23.4614Z" fill="white"/>
<path d="M41.812 11.2583H36.1001C35.8515 11.2583 35.613 11.1595 35.4372 10.9837C35.2614 10.8079 35.1626 10.5694 35.1626 10.3208C35.1626 10.0722 35.2614 9.8337 35.4372 9.65789C35.613 9.48207 35.8515 9.3833 36.1001 9.3833H41.8121C42.0607 9.3833 42.2992 9.48207 42.475 9.65789C42.6508 9.8337 42.7496 10.0722 42.7496 10.3208C42.7496 10.5694 42.6508 10.8079 42.475 10.9837C42.2992 11.1595 42.0607 11.2583 41.8121 11.2583H41.812Z" fill="white"/>
<path d="M33.9375 41.102C33.9373 38.2284 33.1866 35.4048 31.7598 32.9105C30.333 30.4162 28.2795 28.3378 25.8026 26.8809C23.3258 25.4241 20.5114 24.6394 17.638 24.6045C14.7647 24.5696 11.932 25.2856 9.4205 26.6818C6.90894 28.078 4.80556 30.1059 3.31855 32.5648C1.83154 35.0237 1.01247 37.8283 0.942406 40.701C0.872344 43.5737 1.55372 46.4149 2.9191 48.9433C4.28447 51.4717 6.2865 53.5998 8.727 55.1167V63.0625L17.8999 57.5952C22.1941 57.4748 26.2722 55.6844 29.267 52.6044C32.2619 49.5245 33.9374 45.3979 33.9375 41.102Z" fill="#66C1FF"/>
<path d="M17.4376 24.6021C16.811 24.6024 16.185 24.638 15.5626 24.7088C19.7089 25.1833 23.5214 27.2114 26.2321 30.3846C28.9429 33.5578 30.3505 37.6403 30.1714 41.8099C29.9923 45.9795 28.2398 49.9263 25.2669 52.8553C22.2941 55.7844 18.3217 57.4781 14.1499 57.5953L8.72705 60.8274V63.0626L17.8999 57.5953C22.2341 57.4736 26.3462 55.6508 29.3469 52.521C32.3476 49.3913 33.9958 45.2062 33.9351 40.8707C33.8743 36.5353 32.1095 32.398 29.0222 29.3535C25.935 26.3091 21.7734 24.6022 17.4376 24.6021Z" fill="#4EB7FF"/>
<path d="M24.6605 48.4612C24.4815 48.4613 24.3061 48.4101 24.1553 48.3137C24.0044 48.2172 23.8843 48.0796 23.8092 47.9171L17.4375 34.1461L11.0659 47.9171C10.9615 48.1427 10.7717 48.3177 10.5383 48.4034C10.3049 48.4891 10.047 48.4786 9.82135 48.3742C9.5957 48.2697 9.42077 48.0799 9.33506 47.8465C9.24934 47.6131 9.25985 47.3552 9.36428 47.1296L16.5868 31.5198C16.6619 31.3575 16.782 31.22 16.9327 31.1236C17.0835 31.0273 17.2587 30.9761 17.4376 30.9761C17.6165 30.9761 17.7917 31.0273 17.9425 31.1236C18.0932 31.22 18.2133 31.3575 18.2884 31.5198L25.5108 47.1297C25.5768 47.2725 25.6058 47.4297 25.5951 47.5866C25.5844 47.7436 25.5345 47.8954 25.4498 48.028C25.3651 48.1606 25.2485 48.2697 25.1105 48.3454C24.9726 48.4211 24.8179 48.4609 24.6605 48.4611V48.4612Z" fill="white"/>
<path d="M22.6875 44.125H12.1875C11.9389 44.125 11.7004 44.0262 11.5246 43.8504C11.3488 43.6746 11.25 43.4361 11.25 43.1875C11.25 42.9389 11.3488 42.7004 11.5246 42.5246C11.7004 42.3488 11.9389 42.25 12.1875 42.25H22.6875C22.9361 42.25 23.1746 42.3488 23.3504 42.5246C23.5262 42.7004 23.625 42.9389 23.625 43.1875C23.625 43.4361 23.5262 43.6746 23.3504 43.8504C23.1746 44.0262 22.9361 44.125 22.6875 44.125Z" fill="white"/>
</g>
<defs>
<clipPath id="clip0_939_2945">
<rect width="64" height="64" fill="white"/>
</clipPath>
</defs>
</svg>
