<svg width="12" height="12" viewBox="0 0 12 12" fill="none" xmlns="http://www.w3.org/2000/svg">
<path d="M7.75756 5.31827C7.99415 5.04333 8.13613 4.71846 8.16779 4.37959C8.19945 4.04071 8.11957 3.70104 7.93696 3.39814C7.75436 3.09524 7.47616 2.84091 7.13313 2.66328C6.7901 2.48564 6.3956 2.39163 5.99326 2.39163C5.59092 2.39163 5.19642 2.48564 4.85339 2.66328C4.51036 2.84091 4.23216 3.09524 4.04956 3.39814C3.86696 3.70104 3.78707 4.04071 3.81873 4.37959C3.85039 4.71846 3.99237 5.04333 4.22896 5.31827C3.92924 5.47979 3.66241 5.68121 3.43881 5.91472C3.38041 5.97871 3.3375 6.05179 3.31254 6.12979C3.28757 6.20779 3.28103 6.28919 3.2933 6.36932C3.31807 6.53117 3.41792 6.67806 3.57088 6.77771C3.72385 6.87735 3.9174 6.92157 4.10895 6.90064C4.30051 6.87972 4.47438 6.79535 4.59232 6.66612C4.76398 6.48107 4.98295 6.33121 5.23284 6.22775C5.48274 6.12429 5.75709 6.06992 6.03537 6.0687C6.31413 6.06937 6.5891 6.12337 6.83963 6.22668C7.09016 6.32998 7.30973 6.47988 7.48187 6.66514C7.60056 6.78414 7.7696 6.85924 7.95292 6.8744C8.13623 6.88956 8.3193 6.84359 8.46306 6.7463C8.60681 6.64901 8.69987 6.5081 8.72236 6.35365C8.74486 6.19919 8.69502 6.04343 8.58348 5.91959C8.34967 5.68146 8.07055 5.47889 7.75756 5.31827ZM5.99845 4.88264C5.82096 4.88179 5.64928 4.82913 5.51249 4.73356C5.3757 4.638 5.28223 4.50542 5.24791 4.35829C5.21359 4.21116 5.24054 4.05853 5.32418 3.92627C5.40782 3.794 5.54302 3.69024 5.70686 3.63256C5.8707 3.57488 6.05311 3.56684 6.22316 3.60979C6.39322 3.65275 6.54047 3.74406 6.63995 3.86825C6.73944 3.99244 6.78505 4.14187 6.76904 4.29122C6.75304 4.44057 6.67641 4.58065 6.55214 4.68772C6.48 4.74988 6.39382 4.79916 6.2987 4.83264C6.20359 4.86613 6.10149 4.88313 5.99845 4.88264ZM11.9702 4.58441C11.8784 3.77481 11.5573 2.99576 11.0341 2.31308C10.5109 1.6304 9.80089 1.06414 8.96407 0.662136C8.12725 0.260133 7.1882 0.0341985 6.22626 0.00341758C5.26432 -0.0273633 4.30773 0.137914 3.43732 0.485287C2.56691 0.83266 1.80824 1.35192 1.2254 1.99921C0.642554 2.6465 0.252665 3.4028 0.0886659 4.20422C-0.0753333 5.00564 -0.00862528 5.82864 0.283155 6.60369C0.574935 7.37874 1.08322 8.08307 1.76506 8.65718L5.5059 11.8236C5.57153 11.8795 5.6496 11.9239 5.73563 11.9541C5.82165 11.9844 5.91392 12 6.0071 12C6.10029 12 6.19256 11.9844 6.27858 11.9541C6.3646 11.9239 6.44268 11.8795 6.50831 11.8236L10.2353 8.65718C10.8642 8.12969 11.3463 7.49054 11.6466 6.78609C11.9468 6.08165 12.0578 5.32958 11.9713 4.58441H11.9702ZM9.24675 7.81612L5.99845 10.5596L2.75247 7.81612C2.27403 7.41183 1.90755 6.923 1.67938 6.38478C1.45121 5.84656 1.36702 5.27231 1.43285 4.70331C1.49908 4.12563 1.7164 3.56759 2.0691 3.06954C2.4218 2.57149 2.90107 2.14586 3.47226 1.82343C4.22109 1.40319 5.10006 1.17902 5.99903 1.17902C6.898 1.17902 7.77697 1.40319 8.5258 1.82343C9.09551 2.14454 9.57396 2.56827 9.92678 3.06419C10.2796 3.56011 10.498 4.11589 10.5664 4.69162C10.6343 5.2625 10.5511 5.839 10.3229 6.37939C10.0947 6.91978 9.72709 7.41053 9.24675 7.81612Z" fill="#0E2339"/>
</svg>
