<svg width="84" height="84" viewBox="0 0 84 84" fill="none" xmlns="http://www.w3.org/2000/svg">
<path d="M42.0002 82.4249C64.3263 82.4249 82.4252 64.3261 82.4252 42C82.4252 19.6738 64.3263 1.57495 42.0002 1.57495C19.6741 1.57495 1.5752 19.6738 1.5752 42C1.5752 64.3261 19.6741 82.4249 42.0002 82.4249Z" fill="#E9E9E9"/>
<path d="M41.475 58.975C44.45 58.8 44.275 67.2 34.65 70C24.675 72.625 17.675 63.175 19.95 60.55C21.525 58.275 26.425 61.075 30.8 60.375C35 60.55 38.5 58.625 41.475 58.975Z" fill="#D2D3D3"/>
<path opacity="0.15" d="M33.425 68.25C25.725 69.825 19.775 63.175 20.65 60.025C20.3 60.2 20.125 60.375 19.95 60.725C17.675 63.175 24.675 72.625 34.65 70.175C44.275 67.375 44.45 58.8 41.475 59.15C41.125 59.15 40.775 58.975 40.425 59.15C42.35 60.025 40.95 66.675 33.425 68.25Z" fill="#333333"/>
<path d="M68.6001 42.3501C65.8001 42.5251 62.4751 40.0751 58.1001 36.7501C53.9001 33.7751 52.3251 28.5251 60.0251 25.9001C67.9001 23.2751 76.8251 29.2251 75.9501 34.3001C75.2501 39.3751 71.2251 42.0001 68.6001 42.3501Z" fill="#D2D3D3"/>
<path opacity="0.15" d="M61.0748 35.175C57.9248 31.85 57.0498 27.65 62.8248 25.375C61.7748 25.375 60.8998 25.55 59.8498 25.9C52.1498 28.7 53.7248 33.775 57.9248 36.75C62.2998 40.075 65.6248 42.525 68.4248 42.35C68.7748 42.35 69.1248 42.175 69.6498 42.175C67.1998 41.3 64.2248 38.675 61.0748 35.175Z" fill="#333333"/>
<path d="M46.9861 48.0204C51.3418 45.9273 53.5832 41.547 51.9925 38.2367C50.4018 34.9264 45.5812 33.9396 41.2255 36.0327C36.8699 38.1257 34.6284 42.5061 36.2191 45.8164C37.8099 49.1267 42.6304 50.1135 46.9861 48.0204Z" fill="#D2D3D3"/>
<path opacity="0.15" d="M45.85 45.5001C42 47.2501 37.975 46.7251 35.875 44.4501C35.875 44.9751 36.05 45.3251 36.225 45.6751C37.8 49.0001 42.525 50.0501 46.9 47.9501C51.275 45.8501 53.375 41.4751 51.8 38.1501C51.625 37.8001 51.275 37.2751 51.1 37.1001C51.8 40.2501 49.7 43.7501 45.85 45.5001Z" fill="#333333"/>
<path d="M42.3501 25.2C41.4751 26.25 36.7501 22.4 36.9251 17.15C37.2751 11.55 45.5001 11.025 49.0001 15.05C52.5001 19.075 51.8001 19.425 49.1751 19.6C46.0251 19.775 43.2251 23.975 42.3501 25.2Z" fill="#D2D3D3"/>
<path opacity="0.15" d="M39.8998 16.975C40.9498 12.95 47.0748 12.775 50.2248 16.275C49.8748 15.925 49.5248 15.4 48.9998 15.05C45.4998 11.025 37.2748 11.55 36.9248 17.15C36.7498 22.4 41.2998 26.25 42.3498 25.2L42.8748 24.675C41.6498 24.5 38.8498 20.825 39.8998 16.975Z" fill="#333333"/>
<path d="M25.3309 40.7047C26.8792 34.417 24.939 28.533 20.9975 27.5624C17.0559 26.5919 12.6055 30.9023 11.0573 37.19C9.50901 43.4777 11.4492 49.3617 15.3907 50.3323C19.3323 51.3028 23.7827 46.9924 25.3309 40.7047Z" fill="#D2D3D3"/>
<path opacity="0.15" d="M13.9999 37.9751C15.3999 32.3751 18.8999 28.3501 22.3999 28.1751C22.0499 27.8251 21.5249 27.6501 20.9999 27.6501C17.1499 26.7751 12.5999 30.9751 11.1999 37.2751C9.7999 43.5751 11.5499 49.5251 15.3999 50.4001C15.9249 50.5751 16.4499 50.5751 16.9749 50.5751C13.8249 48.6501 12.5999 43.4001 13.9999 37.9751ZM73.8499 16.9751C75.9499 21.8751 77.1749 27.4751 77.1749 33.2501C77.1749 55.6501 58.9749 73.6751 36.7499 73.6751C23.7999 73.6751 12.2499 67.5501 4.8999 58.1001C11.1999 72.4501 25.3749 82.4251 41.9999 82.4251C64.3999 82.4251 82.4249 64.2251 82.4249 42.0001C82.4249 32.5501 79.2749 23.8001 73.8499 16.9751Z" fill="#333333"/>
<path d="M32.1999 8.2251C32.0249 7.5251 32.3749 6.8251 33.0749 6.6501C36.0499 5.9501 39.0249 5.6001 41.9999 5.6001C42.6999 5.6001 43.3999 6.1251 43.3999 7.0001C43.3999 7.8751 42.8749 8.0501 41.9999 8.0501C39.1999 8.0501 36.3999 8.4001 33.5999 9.1001C33.0749 9.2751 32.3749 8.9251 32.1999 8.2251ZM7.69987 33.7751C6.99987 33.6001 6.64987 32.9001 6.82487 32.2001C9.62487 22.4001 16.4499 14.0001 25.5499 9.4501C26.2499 9.1001 26.9499 9.4501 27.2999 9.9751C27.6499 10.5001 27.2999 11.3751 26.7749 11.7251C18.3749 16.1001 12.0749 23.8001 9.44987 32.9001C9.09987 33.6001 8.39987 33.9501 7.69987 33.7751Z" fill="white"/>
</svg>
