<svg width="46" height="48" viewBox="0 0 46 48" fill="none" xmlns="http://www.w3.org/2000/svg">
<path fill-rule="evenodd" clip-rule="evenodd" d="M30.4921 28.3409C28.2418 27.714 26.3018 28.7584 24.4785 30.2714C23.6964 30.9207 22.9319 31.6436 22.1306 32.205C21.6309 32.6199 21.0178 32.8746 20.3713 32.9359C19.5806 32.8729 18.8424 32.5149 18.3033 31.9331C16.8547 30.5053 15.6349 28.8627 14.6871 27.063C13.6026 25.3404 12.7856 23.4633 12.2641 21.4956C12.0261 20.7478 12.0775 19.9379 12.408 19.2261C12.7761 18.7052 13.2945 18.309 13.8938 18.0905C14.7751 17.6811 15.7827 17.382 16.7375 17.027C17.8192 16.7644 18.8188 16.2372 19.6462 15.4926C20.4737 14.748 21.1032 13.8095 21.4781 12.7614C22.0778 10.6167 21.0958 6.64223 18.9622 3.74257C16.6432 0.599797 13.1741 -1.21389 9.45077 0.935665C6.23763 2.79094 2.29678 5.1868 0.706999 9.85217C-0.828399 14.3592 -0.209442 21.1789 6.0601 32.0387C12.3296 42.8984 17.9274 46.8457 22.5976 47.7685C27.4341 48.7281 31.4773 46.5114 34.6921 44.6561C38.417 42.505 38.6121 38.6281 37.0671 35.0711C35.6485 31.8036 32.7216 28.9583 30.4921 28.3409Z" fill="url(#paint0_linear_939_2887)"/>
<path fill-rule="evenodd" clip-rule="evenodd" d="M32.5617 2.88856C32.1519 2.77869 31.7153 2.83611 31.3479 3.04816C30.9804 3.26022 30.7123 3.60956 30.6024 4.01931C30.4926 4.42907 30.55 4.86569 30.762 5.23312C30.9741 5.60054 31.3234 5.86868 31.7332 5.97855C35.3091 6.93849 38.3577 9.27886 40.209 12.4854C42.0602 15.6919 42.5628 19.5022 41.6061 23.079C41.5517 23.2819 41.5378 23.4936 41.5652 23.7018C41.5926 23.9101 41.6607 24.1109 41.7657 24.2928C41.8707 24.4748 42.0105 24.6342 42.1772 24.7621C42.3438 24.89 42.534 24.9839 42.7369 25.0383C42.9398 25.0927 43.1514 25.1066 43.3596 25.0792C43.5679 25.0518 43.7687 24.9837 43.9507 24.8787C44.1326 24.7737 44.2921 24.6339 44.42 24.4672C44.5479 24.3006 44.6417 24.1104 44.6961 23.9075C45.8721 19.5112 45.2546 14.8278 42.9793 10.8865C40.704 6.94522 36.9569 4.06852 32.5617 2.88856Z" fill="url(#paint1_linear_939_2887)"/>
<path fill-rule="evenodd" clip-rule="evenodd" d="M29.438 14.5639C30.7367 14.9125 31.8439 15.7625 32.5163 16.927C33.1886 18.0915 33.3712 19.4753 33.0238 20.7743C32.914 21.1841 32.9714 21.6207 33.1834 21.9881C33.3955 22.3555 33.7448 22.6237 34.1546 22.7335C34.5643 22.8434 35.0009 22.786 35.3684 22.5739C35.7358 22.3619 36.0039 22.0125 36.1138 21.6028C36.6805 19.4845 36.383 17.2278 35.2865 15.3288C34.19 13.4297 32.3844 12.0438 30.2665 11.4755C30.0617 11.4146 29.8468 11.3954 29.6344 11.4189C29.422 11.4424 29.2165 11.5083 29.03 11.6126C28.8435 11.7168 28.6798 11.8574 28.5486 12.026C28.4173 12.1946 28.3212 12.3878 28.2658 12.5942C28.2104 12.8005 28.197 13.0159 28.2262 13.2276C28.2555 13.4392 28.3269 13.6429 28.4361 13.8265C28.5454 14.0101 28.6904 14.1699 28.8624 14.2966C29.0345 14.4233 29.2302 14.5142 29.438 14.5639Z" fill="url(#paint2_linear_939_2887)"/>
<defs>
<linearGradient id="paint0_linear_939_2887" x1="-3.77444" y1="3.57143" x2="43.1416" y2="48.8865" gradientUnits="userSpaceOnUse">
<stop stop-color="#E17FFF"/>
<stop offset="0.095" stop-color="#D67DFC"/>
<stop offset="0.264" stop-color="#B876F3"/>
<stop offset="0.487" stop-color="#876BE5"/>
<stop offset="0.751" stop-color="#455DD1"/>
<stop offset="1" stop-color="#004EBD"/>
</linearGradient>
<linearGradient id="paint1_linear_939_2887" x1="11.7122" y1="-12.4606" x2="58.6266" y2="32.8544" gradientUnits="userSpaceOnUse">
<stop stop-color="#E17FFF"/>
<stop offset="0.095" stop-color="#D67DFC"/>
<stop offset="0.264" stop-color="#B876F3"/>
<stop offset="0.487" stop-color="#876BE5"/>
<stop offset="0.751" stop-color="#455DD1"/>
<stop offset="1" stop-color="#004EBD"/>
</linearGradient>
<linearGradient id="paint2_linear_939_2887" x1="7.12516" y1="-7.71213" x2="54.0396" y2="37.6045" gradientUnits="userSpaceOnUse">
<stop stop-color="#E17FFF"/>
<stop offset="0.095" stop-color="#D67DFC"/>
<stop offset="0.264" stop-color="#B876F3"/>
<stop offset="0.487" stop-color="#876BE5"/>
<stop offset="0.751" stop-color="#455DD1"/>
<stop offset="1" stop-color="#004EBD"/>
</linearGradient>
</defs>
</svg>
