<svg width="12" height="17" viewBox="0 0 12 17" fill="none" xmlns="http://www.w3.org/2000/svg">
<path d="M6.74984 9.60027H3.75048C3.55161 9.60027 3.36089 9.68454 3.22027 9.83453C3.07965 9.98452 3.00064 10.1879 3.00064 10.4001C3.00064 10.6122 3.07965 10.8156 3.22027 10.9656C3.36089 11.1156 3.55161 11.1999 3.75048 11.1999H6.74984C6.94871 11.1999 7.13943 11.1156 7.28006 10.9656C7.42068 10.8156 7.49968 10.6122 7.49968 10.4001C7.49968 10.1879 7.42068 9.98452 7.28006 9.83453C7.13943 9.68454 6.94871 9.60027 6.74984 9.60027ZM9.75048 1.60096H8.86536C8.71082 1.13382 8.42451 0.729146 8.04573 0.442497C7.66695 0.155849 7.21427 0.00127669 6.74984 0H5.25016C4.78589 0.001176 4.33332 0.155548 3.95456 0.441936C3.5758 0.728325 3.28939 1.1327 3.13464 1.59959H2.24952C1.954 1.59959 1.66137 1.66169 1.38837 1.78236C1.11536 1.90303 0.867317 2.07989 0.658413 2.30284C0.449509 2.52578 0.283838 2.79045 0.170865 3.08172C0.0578919 3.37298 -0.000168886 3.68514 3.68985e-07 4.00034V13.6047C3.68985e-07 14.2411 0.237002 14.8514 0.658869 15.3014C1.08073 15.7513 1.65291 16.0041 2.24952 16.0041H9.7492C10.0447 16.0043 10.3374 15.9424 10.6104 15.8219C10.8835 15.7014 11.1317 15.5247 11.3407 15.3018C11.5497 15.079 11.7155 14.8145 11.8286 14.5233C11.9418 14.2321 12 13.9199 12 13.6047V4.00034C12.0002 3.68514 11.9421 3.37298 11.8291 3.08172C11.7162 2.79045 11.5505 2.52578 11.3416 2.30284C11.1327 2.07989 10.8846 1.90303 10.6116 1.78236C10.3386 1.66169 10.046 1.60096 9.75048 1.60096ZM4.50032 2.40076C4.50032 2.18864 4.57932 1.98521 4.71994 1.83522C4.86057 1.68523 5.05129 1.60096 5.25016 1.60096H6.74984C6.94871 1.60096 7.13943 1.68523 7.28006 1.83522C7.42068 1.98521 7.49968 2.18864 7.49968 2.40076V3.20055H4.50032V2.40076ZM10.5003 13.6047C10.5003 13.8169 10.4213 14.0203 10.2807 14.1703C10.1401 14.3203 9.94935 14.4045 9.75048 14.4045H2.24952C2.05065 14.4045 1.85992 14.3203 1.7193 14.1703C1.57868 14.0203 1.49968 13.8169 1.49968 13.6047V4.00034C1.49968 3.78822 1.57868 3.58479 1.7193 3.4348C1.85992 3.28481 2.05065 3.20055 2.24952 3.20055H2.99936V4.00034C2.99936 4.21246 3.07836 4.41589 3.21898 4.56588C3.3596 4.71587 3.55032 4.80014 3.74919 4.80014H8.24565C8.44452 4.80014 8.63525 4.71587 8.77587 4.56588C8.91649 4.41589 8.99549 4.21246 8.99549 4.00034V3.20055H9.74533C9.9442 3.20055 10.1349 3.28481 10.2755 3.4348C10.4162 3.58479 10.4952 3.78822 10.4952 4.00034L10.5003 13.6047ZM8.24565 6.39972H3.75048C3.55161 6.39972 3.36089 6.48399 3.22027 6.63398C3.07965 6.78397 3.00064 6.9874 3.00064 7.19952C3.00064 7.41164 3.07965 7.61507 3.22027 7.76506C3.36089 7.91505 3.55161 7.99931 3.75048 7.99931H8.24565C8.44452 7.99931 8.63525 7.91505 8.77587 7.76506C8.91649 7.61507 8.99549 7.41164 8.99549 7.19952C8.99549 6.9874 8.91649 6.78397 8.77587 6.63398C8.63525 6.48399 8.44452 6.39972 8.24565 6.39972Z" fill="#0E2339"/>
</svg>
