<svg width="32" height="30" viewBox="0 0 32 30" fill="none" xmlns="http://www.w3.org/2000/svg">
<path d="M24.8308 20.7239L12.1599 8.0529L9.80128 5.68906L4.57799 0.470963L2.38948 2.65935L7.45274 7.72257C7.0173 8.29992 6.67268 8.94045 6.43081 9.62195C6.32139 9.92154 6.23346 10.2286 6.16771 10.5406C4.39234 10.7589 2.7671 11.6462 1.62344 13.0216C0.47979 14.397 -0.0961338 16.1568 0.0131275 17.9422C0.122389 19.7276 0.908605 21.4041 2.21143 22.6297C3.51426 23.8554 5.23557 24.5379 7.02431 24.5381H21.729C21.9599 24.5388 22.1908 24.5267 22.4205 24.5019C22.9523 24.4673 23.4805 24.3896 23.9999 24.2697L29.2592 29.529L31.4527 27.3406L27.107 22.9948L24.8308 20.7239ZM7.02431 21.4413C5.98261 21.4413 4.98357 21.0275 4.24698 20.2909C3.51039 19.5543 3.09658 18.5553 3.09658 17.5136C3.09658 16.4719 3.51039 15.4728 4.24698 14.7362C4.98357 13.9996 5.98261 13.5858 7.02431 13.5858H9.10949V12.0374C9.10805 11.3033 9.30605 10.5826 9.68233 9.95225L21.1715 21.4413L7.02431 21.4413ZM31.9999 14.2682C32.0041 12.2052 31.3877 10.1886 30.2308 8.48049C29.074 6.77237 27.4301 5.45169 25.5128 4.69009C23.5955 3.92848 21.4934 3.76117 19.4798 4.20988C17.4661 4.65859 15.634 5.70259 14.2215 7.2062L16.4095 9.39425C17.0653 8.67855 17.8593 8.10303 18.7435 7.7024C19.6277 7.30176 20.5839 7.0843 21.5544 7.06312C22.5249 7.04194 23.4896 7.21748 24.3905 7.57916C25.2913 7.94084 26.1096 8.48117 26.796 9.16758C27.4824 9.85399 28.0227 10.6723 28.3844 11.5731C28.7461 12.474 28.9216 13.4387 28.9005 14.4092C28.8793 15.3797 28.6618 16.3359 28.2612 17.2201C27.8605 18.1043 27.285 18.8982 26.5693 19.5541L28.7574 21.7421C29.7789 20.7833 30.5935 19.6256 31.1511 18.3403C31.7088 17.055 31.9976 15.6693 31.9999 14.2682Z" fill="#0E2339"/>
</svg>
