<svg width="20" height="20" viewBox="0 0 20 20" fill="none" xmlns="http://www.w3.org/2000/svg">
<path d="M0 9.3081C5.6638e-05 9.5733 0.105452 9.82761 0.293003 10.0151L9.98511 19.7072C10.1726 19.8947 10.4269 20 10.6921 20C10.9573 20 11.2116 19.8947 11.3991 19.7072L19.7072 11.4001C19.8947 11.2126 20 10.9583 20 10.6931C20 10.4279 19.8947 10.1736 19.7072 9.98611L10.0151 0.293003C9.82761 0.105452 9.5733 5.6638e-05 9.3081 0H1.00001C0.734791 0 0.480435 0.105358 0.292896 0.292896C0.105358 0.480435 0 0.734791 0 1.00001V9.3081ZM2.00002 2.00002H8.8941L17.5862 10.6921L10.6921 17.5862L2.00002 8.8941V2.00002Z" fill="#0E2339"/>
</svg>
