<svg width="40" height="48" viewBox="0 0 40 48" fill="none" xmlns="http://www.w3.org/2000/svg">
<path d="M39.716 24.9847L39.986 10.4287C39.9912 10.1102 39.9324 9.79381 39.8129 9.49846C39.6934 9.2031 39.5157 8.9348 39.2905 8.70951C39.0652 8.48422 38.7969 8.30655 38.5015 8.18707C38.2062 8.06758 37.8898 8.00872 37.5712 8.014L23.0153 8.28397C22.4003 8.29147 21.8154 8.53894 21.3804 8.9739L0.697617 29.6567C0.476546 29.8763 0.301094 30.1374 0.181367 30.4251C0.0616387 30.7127 0 31.0212 0 31.3328C0 31.6444 0.0616387 31.9529 0.181367 32.2405C0.301094 32.5282 0.476546 32.7893 0.697617 33.0089L14.9911 47.3024C15.2107 47.5234 15.4718 47.6989 15.7595 47.8186C16.0471 47.9383 16.3556 48 16.6672 48C16.9788 48 17.2873 47.9383 17.5749 47.8186C17.8626 47.6989 18.1237 47.5234 18.3433 47.3024L39.0261 26.6195C39.461 26.1846 39.7085 25.5996 39.716 24.9847ZM32.5843 15.4232C32.3588 15.1992 32.1798 14.9328 32.0577 14.6394C31.9356 14.3459 31.8728 14.0312 31.8728 13.7134C31.8728 13.3956 31.9356 13.0809 32.0577 12.7874C32.1798 12.494 32.3588 12.2276 32.5843 12.0036C32.8085 11.7776 33.0752 11.598 33.369 11.4753C33.6628 11.3526 33.9779 11.289 34.2963 11.2883C34.6147 11.2876 34.9301 11.3498 35.2244 11.4712C35.5187 11.5927 35.7861 11.771 36.0114 11.9961C36.9563 12.941 36.9413 14.4708 35.9964 15.4157C35.0515 16.3606 33.5217 16.3681 32.5843 15.4232Z" fill="#4FB272"/>
<path d="M3.82178 31.239L22.0779 12.9829L35.0215 25.9265L16.7662 44.1826L3.82178 31.239Z" fill="#F5F5F5"/>
<path d="M7.59302 30.8543L21.699 16.749L23.6653 18.7161L9.56081 32.8221L7.59302 30.8543ZM11.3884 34.6489L25.4936 20.5429L27.4607 22.5107L13.3554 36.6167L11.3884 34.6489ZM15.1785 38.4367L29.2837 24.3307L31.2508 26.2985L17.1455 40.4045L15.1785 38.4367Z" fill="#E1E5E4"/>
<path d="M33.6793 14.3209C33.4394 14.0809 33.3269 13.7284 33.4169 13.3835L36.484 0.762303C36.6115 0.229859 37.1515 -0.100106 37.6839 0.0273803C38.2164 0.154867 38.5463 0.69481 38.4188 1.22725L35.3517 13.8484C35.2894 14.1046 35.1282 14.3258 34.9034 14.4635C34.6785 14.6012 34.4083 14.6443 34.1518 14.5833C33.9643 14.5458 33.7993 14.4484 33.6793 14.3209Z" fill="#666666"/>
</svg>
