<svg width="20" height="20" viewBox="0 0 20 20" fill="none" xmlns="http://www.w3.org/2000/svg">
<g clip-path="url(#clip0_517_577)">
<path d="M15 6.25C15.6904 6.25 16.25 5.69036 16.25 5C16.25 4.30964 15.6904 3.75 15 3.75C14.3096 3.75 13.75 4.30964 13.75 5C13.75 5.69036 14.3096 6.25 15 6.25Z" fill="#0E2339"/>
<path d="M18.7497 0H10.6247C10.2932 7.07968e-05 9.97535 0.131813 9.74098 0.36625L0.365983 9.74125C0.131644 9.97566 0 10.2935 0 10.625C0 10.9565 0.131644 11.2743 0.365983 11.5087L8.49098 19.6337C8.6068 19.7502 8.7445 19.8427 8.89617 19.9057C9.04783 19.9688 9.21047 20.0013 9.37473 20.0013C9.53899 20.0013 9.70163 19.9688 9.8533 19.9057C10.005 19.8427 10.1427 19.7502 10.2585 19.6337L19.6335 10.2587C19.8679 10.0244 19.9997 9.70649 19.9997 9.375V1.25C19.9997 0.918479 19.868 0.600537 19.6336 0.366117C19.3992 0.131696 19.0813 0 18.7497 0ZM17.4997 8.8575L9.37473 16.9825L3.01723 10.625L11.1422 2.5H17.4997V8.8575Z" fill="#0E2339"/>
</g>
<defs>
<clipPath id="clip0_517_577">
<rect width="20" height="20" fill="white"/>
</clipPath>
</defs>
</svg>
