<svg width="64" height="64" viewBox="0 0 64 64" fill="none" xmlns="http://www.w3.org/2000/svg">
<path d="M42 6H22C20.9391 6 19.9217 6.42143 19.1716 7.17157C18.4214 7.92172 18 8.93913 18 10V22C18 23.0609 18.4214 24.0783 19.1716 24.8284C19.9217 25.5786 20.9391 26 22 26H26L32 32L38 26H42C43.0609 26 44.0783 25.5786 44.8284 24.8284C45.5786 24.0783 46 23.0609 46 22V10C46 8.93913 45.5786 7.92172 44.8284 7.17157C44.0783 6.42143 43.0609 6 42 6Z" stroke="#0E2339" stroke-width="2" stroke-miterlimit="10" stroke-linecap="round" stroke-linejoin="round"/>
<path d="M32 18C33.1046 18 34 17.1046 34 16C34 14.8954 33.1046 14 32 14C30.8954 14 30 14.8954 30 16C30 17.1046 30.8954 18 32 18Z" fill="#0E2339"/>
<path d="M26 18C27.1046 18 28 17.1046 28 16C28 14.8954 27.1046 14 26 14C24.8954 14 24 14.8954 24 16C24 17.1046 24.8954 18 26 18Z" fill="#0E2339"/>
<path d="M38 18C39.1046 18 40 17.1046 40 16C40 14.8954 39.1046 14 38 14C36.8954 14 36 14.8954 36 16C36 17.1046 36.8954 18 38 18Z" fill="#0E2339"/>
<path d="M12 34.994V23C12 22.2044 11.6839 21.4413 11.1213 20.8787C10.5587 20.3161 9.79565 20 9 20C8.20435 20 7.44129 20.3161 6.87868 20.8787C6.31607 21.4413 6 22.2044 6 23V39.104C5.99981 40.9756 6.65587 42.7881 7.854 44.226L16 54V58" stroke="#0E2339" stroke-width="2" stroke-miterlimit="10" stroke-linecap="round" stroke-linejoin="round"/>
<path d="M28 58V48.084C28.0002 45.4666 26.9741 42.9534 25.142 41.084L17.094 32.874C16.5352 32.3153 15.7773 32.0014 14.987 32.0014C14.1967 32.0014 13.4388 32.3153 12.88 32.874L12.872 32.88C12.3133 33.4417 11.9997 34.2018 12 34.994C11.999 35.6687 12.2299 36.3233 12.654 36.848L18 44M52 34.994V23C52 22.2044 52.3161 21.4413 52.8787 20.8787C53.4413 20.3161 54.2044 20 55 20C55.7957 20 56.5587 20.3161 57.1213 20.8787C57.6839 21.4413 58 22.2044 58 23V39.104C58.0002 40.9756 57.3441 42.7881 56.146 44.226L48 54V58" stroke="#0E2339" stroke-width="2" stroke-miterlimit="10" stroke-linecap="round" stroke-linejoin="round"/>
<path d="M36 58.0001V48.0841C35.9998 45.4667 37.0259 42.9535 38.858 41.0841L46.906 32.8741C47.4648 32.3154 48.2227 32.0015 49.013 32.0015C49.8033 32.0015 50.5612 32.3154 51.12 32.8741L51.126 32.8801C51.6452 33.3982 51.9548 34.0897 51.9954 34.822C52.036 35.5543 51.8047 36.2758 51.346 36.8481L46 44.0001" stroke="#0E2339" stroke-width="2" stroke-miterlimit="10" stroke-linecap="round" stroke-linejoin="round"/>
</svg>
