<svg width="15" height="12" viewBox="0 0 15 12" fill="none" xmlns="http://www.w3.org/2000/svg">
<path d="M14.25 12H0.750031C0.54906 11.9975 0.357279 11.9173 0.216702 11.7768C0.076124 11.6364 -0.00178878 11.4472 3.1182e-05 11.2507V0.749333C-0.00178878 0.552821 0.076124 0.363614 0.216702 0.223161C0.357279 0.0827084 0.54906 0.00246168 0.750031 0L14.25 0C14.451 0.00246168 14.6428 0.0827084 14.7834 0.223161C14.9239 0.363614 15.0019 0.552821 15 0.749333V11.2507C15.0019 11.4472 14.9239 11.6364 14.7834 11.7768C14.6428 11.9173 14.451 11.9975 14.25 12ZM4.50003 1.5C4.50804 2.28651 4.19671 3.04402 3.63432 3.60641C3.07193 4.1688 2.30439 4.49015 1.50003 4.5V7.5C2.30428 7.5102 3.07161 7.83166 3.63392 8.39397C4.19623 8.95628 4.50768 9.71359 4.50003 10.5H10.5C10.492 9.71349 10.8034 8.95598 11.3657 8.39359C11.9281 7.8312 12.6957 7.50985 13.5 7.5V4.5C12.6957 4.49015 11.9281 4.1688 11.3657 3.60641C10.8034 3.04402 10.492 2.28651 10.5 1.5H4.50003Z" fill="#0E2339"/>
</svg>
