<svg width="28" height="28" viewBox="0 0 28 28" fill="none" xmlns="http://www.w3.org/2000/svg">
<path d="M21.9999 16.6667C21.9293 16.6667 21.8666 16.6853 21.7933 16.688L17.7559 9.784C18.5065 9.04 19.0191 8.08978 19.2287 7.05394C19.4382 6.01811 19.3354 4.94336 18.9331 3.96609C18.5308 2.98883 17.8472 2.15312 16.9692 1.56501C16.0911 0.976909 15.0581 0.662933 14.0013 0.662933C12.9444 0.662933 11.9114 0.976909 11.0334 1.56501C10.1553 2.15312 9.47172 2.98883 9.06944 3.96609C8.66715 4.94336 8.56427 6.01811 8.77385 7.05394C8.98343 8.08978 9.49603 9.04 10.2466 9.784L6.22125 16.6893C6.14525 16.6853 6.07592 16.6667 5.99992 16.6667C5.00162 16.6632 4.02239 16.94 3.17362 17.4655C2.32485 17.991 1.64062 18.7443 1.19877 19.6395C0.756927 20.5347 0.575206 21.5359 0.674282 22.5293C0.773358 23.5226 1.14925 24.4683 1.75921 25.2586C2.36916 26.0489 3.18867 26.6521 4.12452 26.9997C5.06038 27.3472 6.07499 27.4251 7.05293 27.2245C8.03087 27.0239 8.93288 26.5529 9.65635 25.865C10.3798 25.1771 10.8957 24.2999 11.1453 23.3333H16.8546C17.1054 24.2972 17.6215 25.1713 18.3443 25.8565C19.067 26.5418 19.9674 27.0106 20.9432 27.2098C21.919 27.4089 22.9312 27.3305 23.8646 26.9833C24.7981 26.6361 25.6155 26.0341 26.224 25.2457C26.8325 24.4573 27.2077 23.514 27.307 22.5231C27.4063 21.5321 27.2258 20.5331 26.7858 19.6396C26.3459 18.7461 25.6642 17.9939 24.8183 17.4684C23.9723 16.9429 22.9959 16.6651 21.9999 16.6667ZM16.8546 20.6667H11.1453C10.8067 19.3556 9.98136 18.2228 8.83726 17.4987L12.5613 11.112C13.4989 11.408 14.505 11.408 15.4426 11.112L19.1759 17.4933C18.0252 18.2158 17.1946 19.3512 16.8546 20.6667Z" fill="#0E2339"/>
</svg>
