<svg width="12" height="11" viewBox="0 0 12 11" fill="none" xmlns="http://www.w3.org/2000/svg">
<path d="M10.2001 1.833H8.40008V1.222C8.40153 1.06297 8.37164 0.905207 8.31212 0.757725C8.2526 0.610244 8.16461 0.475932 8.05318 0.362457C7.94175 0.248983 7.80906 0.158569 7.66268 0.0963781C7.5163 0.0341874 7.35911 0.001438 7.20008 0H4.80008C4.64105 0.001438 4.48386 0.0341874 4.33748 0.0963781C4.1911 0.158569 4.05841 0.248983 3.94698 0.362457C3.83555 0.475932 3.74756 0.610244 3.68804 0.757725C3.62852 0.905207 3.59863 1.06297 3.60008 1.222V1.833H1.80008C1.56147 1.83522 1.32562 1.88442 1.10603 1.9778C0.886427 2.07117 0.68737 2.20688 0.520223 2.37718C0.353075 2.54749 0.221111 2.74905 0.131864 2.97036C0.0426177 3.19167 -0.00216267 3.42839 8.02735e-05 3.667V9.167C-0.0041828 9.64873 0.183038 10.1124 0.520579 10.4562C0.85812 10.7999 1.31835 10.9955 1.80008 11H10.2001C10.6818 10.9955 11.142 10.7999 11.4796 10.4562C11.8171 10.1124 12.0043 9.64873 12.0001 9.167V3.667C12.0023 3.42839 11.9575 3.19167 11.8683 2.97036C11.779 2.74905 11.6471 2.54749 11.4799 2.37718C11.3128 2.20688 11.1137 2.07117 10.8941 1.9778C10.6745 1.88442 10.4387 1.83522 10.2001 1.833ZM4.80008 1.222H7.20008V1.833H4.80008V1.222ZM10.8001 9.166C10.8014 9.32655 10.739 9.48107 10.6265 9.59563C10.514 9.71018 10.3606 9.77542 10.2001 9.777H1.80008C1.63953 9.77542 1.48617 9.71018 1.37368 9.59563C1.26118 9.48107 1.19875 9.32655 1.20008 9.166V6.111H3.60008V6.722C3.60008 6.88113 3.66329 7.03374 3.77582 7.14626C3.88834 7.25879 4.04095 7.322 4.20008 7.322C4.35921 7.322 4.51182 7.25879 4.62434 7.14626C4.73687 7.03374 4.80008 6.88113 4.80008 6.722V6.111H7.20008V6.722C7.20008 6.88113 7.26329 7.03374 7.37582 7.14626C7.48834 7.25879 7.64095 7.322 7.80008 7.322C7.95921 7.322 8.11182 7.25879 8.22434 7.14626C8.33687 7.03374 8.40008 6.88113 8.40008 6.722V6.111H10.8001V9.166ZM10.8001 4.888H1.20008V3.667C1.19875 3.50645 1.26118 3.35193 1.37368 3.23737C1.48617 3.12282 1.63953 3.05758 1.80008 3.056H10.2001C10.3606 3.05758 10.514 3.12282 10.6265 3.23737C10.739 3.35193 10.8014 3.50645 10.8001 3.667V4.888Z" fill="#0E2339"/>
</svg>
