<svg width="80" height="80" viewBox="0 0 80 80" fill="none" xmlns="http://www.w3.org/2000/svg">
<path d="M40.0013 76.2233C60.0086 76.2233 76.2277 60.0042 76.2277 39.9969C76.2277 19.9896 60.0086 3.77051 40.0013 3.77051C19.994 3.77051 3.7749 19.9896 3.7749 39.9969C3.7749 60.0042 19.994 76.2233 40.0013 76.2233Z" fill="#FCB73E"/>
<path d="M47.5456 75.4301C45.1154 75.9583 42.5795 76.2301 39.9984 76.2301C19.9984 76.2301 3.77197 60.0037 3.77197 40.0037C3.77197 20.532 19.1229 4.66779 38.3682 3.82251C21.9757 7.27908 9.68893 21.8149 9.68893 39.249C9.68893 59.249 25.9002 75.4754 45.9153 75.4754C46.4587 75.4754 47.0022 75.4603 47.5456 75.4301Z" fill="#FD982E"/>
<path d="M60.1032 37.7682H44.2953V25.5878H59.2745V25.5863H59.4962C60.4901 25.5863 61.2959 24.7805 61.2959 23.7866V17.1101H59.9849L58.415 20.029H44.2953H41.511C40.7387 20.029 40.0522 20.3341 39.5468 20.8394C39.0415 21.3448 38.7269 22.0313 38.7269 22.8036V37.7682H25.5929V22.7889H25.5914V22.5672C25.5914 21.5733 24.7856 20.7675 23.7917 20.7675H17.1152V22.0786L20.0341 23.6485V37.7682V40.5524C20.0341 41.3247 20.3392 42.0112 20.8446 42.5166C21.3499 43.0219 22.0364 43.3366 22.8088 43.3366H38.7269V57.3139H24.6037L23.0372 54.4014H21.7261V61.0778C21.7261 62.0718 22.5319 62.8776 23.5259 62.8776H23.7475V62.8823H38.7269H41.511C43.0461 62.8823 44.2953 61.6332 44.2953 60.0981V43.3366H57.319V57.4598L54.4065 59.0263V60.3373H61.0829C62.0769 60.3373 62.8827 59.5315 62.8827 58.5375V58.3159H62.8874V43.3366V40.5524C62.8874 39.0173 61.6383 37.7682 60.1032 37.7682Z" fill="#E83D62"/>
<path d="M31.9108 33.378C33.6664 33.378 35.0897 31.9548 35.0897 30.1991C35.0897 28.4435 33.6664 27.0203 31.9108 27.0203C30.1552 27.0203 28.7319 28.4435 28.7319 30.1991C28.7319 31.9548 30.1552 33.378 31.9108 33.378Z" fill="#E83D62"/>
<path d="M47.9611 30.199C47.9611 31.9543 49.384 33.3773 51.1394 33.3773C52.8947 33.3773 54.3177 31.9543 54.3177 30.199C54.3177 28.4437 52.8947 27.0208 51.1394 27.0208C49.384 27.0208 47.9611 28.4437 47.9611 30.199ZM35.089 49.7306C35.089 47.9752 33.666 46.5523 31.9107 46.5523C30.1554 46.5523 28.7324 47.9752 28.7324 49.7306C28.7324 51.4859 30.1554 52.9089 31.9107 52.9089C33.666 52.9089 35.089 51.4859 35.089 49.7306ZM51.1394 46.5523C49.384 46.5523 47.9611 47.9752 47.9611 49.7306C47.9611 51.4859 49.384 52.9089 51.1394 52.9089C52.8947 52.9089 54.3177 51.4859 54.3177 49.7306C54.3177 47.9752 52.8947 46.5523 51.1394 46.5523Z" fill="#E83D62"/>
</svg>
