<svg width="24" height="24" viewBox="0 0 24 24" fill="none" xmlns="http://www.w3.org/2000/svg">
<path d="M13.5678 3.37731L22.1153 11.0761C22.1858 11.144 22.2384 11.2475 22.2483 11.3702C22.2583 11.493 22.2233 11.6092 22.1607 11.6948C22.1251 11.7392 22.0841 11.7715 22.0425 11.7926C22.0005 11.8139 21.9573 11.8242 21.9154 11.8249C21.8486 11.8245 21.7766 11.7996 21.7125 11.7428L21.6987 11.7306L21.6844 11.7191L21.288 11.401L20.0686 10.4223V11.9859V19.6437C20.0686 20.0855 19.9041 20.4998 19.6257 20.7978C19.3489 21.094 18.9847 21.25 18.6167 21.25H15.3138C15.2377 21.25 15.1536 21.2181 15.0833 21.1429C15.0113 21.0659 14.9628 20.9512 14.9628 20.8219V16.1093C14.9628 15.6138 14.7793 15.1291 14.4384 14.7642C14.0958 14.3976 13.6198 14.1812 13.1119 14.1812H10.91C10.402 14.1812 9.9261 14.3976 9.58351 14.7642C9.24252 15.1291 9.05902 15.6138 9.05902 16.1093V20.8219C9.05902 20.9512 9.01054 21.0659 8.93858 21.1429C8.86823 21.2181 8.78412 21.25 8.70806 21.25H5.4052C5.03716 21.25 4.67301 21.094 4.39619 20.7978C4.11776 20.4998 3.95329 20.0855 3.95329 19.6437V11.9859V10.3122L2.70412 11.4261L2.3085 11.7789C2.30845 11.779 2.30839 11.779 2.30833 11.7791C2.23486 11.8443 2.15089 11.8679 2.07477 11.8604C1.99785 11.8528 1.91339 11.8117 1.84692 11.7261C1.77918 11.6389 1.74078 11.5172 1.75189 11.3882C1.76298 11.2595 1.82072 11.1525 1.89617 11.0854L1.89617 11.0854L1.89966 11.0823L10.4541 3.37731L10.4541 3.37736L10.4613 3.37068C10.8994 2.96556 11.45 2.75 12.0109 2.75C12.5719 2.75 13.1224 2.96556 13.5605 3.37068L13.5605 3.37073L13.5678 3.37731Z" stroke="#0E2339" stroke-width="1.5"/>
</svg>
