<svg width="80" height="80" viewBox="0 0 80 80" fill="none" xmlns="http://www.w3.org/2000/svg">
<g clip-path="url(#clip0_1043_499)">
<path d="M80 40.0001L71 45.5001L77.6667 53.6668L67.1667 55.6668L70.6667 65.6667L60.1667 64.0001L60 74.6667L50.8333 69.5001L47 79.3334L40 71.5001L33 79.3334L29.1667 69.5001L20 74.6667L19.8333 64.0001L9.33333 65.6667L12.8333 55.6668L2.33333 53.6668L9 45.5001L0 40.0001L9 34.5001L2.33333 26.3334L12.8333 24.3334L9.33333 14.3334L19.8333 16.0001L20 5.33342L29.1667 10.5001L33 0.666748L40 8.50008L47 0.666748L50.8333 10.5001L60 5.33342L60.1667 16.0001L70.6667 14.3334L67.1667 24.3334L77.6667 26.3334L71 34.5001L80 40.0001Z" fill="#F8B64C"/>
<path d="M39.9997 67.6666C24.833 67.6666 12.333 55.3333 12.333 39.9999C12.333 24.6666 24.833 12.3333 39.9997 12.3333C55.1663 12.3333 67.6663 24.6666 67.6663 39.9999C67.6663 55.3333 55.1663 67.6666 39.9997 67.6666Z" fill="#FFD15C"/>
<path d="M20.8333 39.1667C19.8333 39.1667 19 38.3333 19 37.3333C19 27.1667 27.1667 19 37.3333 19C38.3333 19 39.1667 19.8333 39.1667 20.8333C39.1667 21.8333 38.3333 22.6667 37.3333 22.6667C29.1667 22.6667 22.5 29.3333 22.5 37.5C22.5 38.3333 21.6667 39.1667 20.8333 39.1667Z" fill="white"/>
</g>
<defs>
<clipPath id="clip0_1043_499">
<rect width="80" height="80" fill="white"/>
</clipPath>
</defs>
</svg>
