<svg width="20" height="20" viewBox="0 0 20 20" fill="none" xmlns="http://www.w3.org/2000/svg">
<path d="M19.7134 18.3093L16.0057 14.6292C17.4446 12.8339 18.1415 10.5551 17.9531 8.26141C17.7646 5.96768 16.7052 3.83338 14.9927 2.29739C13.2801 0.761388 11.0446 -0.0595543 8.74582 0.00336714C6.44703 0.0662886 4.25969 1.00829 2.63359 2.63567C1.0075 4.26305 0.0662363 6.45211 0.00336448 8.75272C-0.0595073 11.0533 0.760788 13.2906 2.29557 15.0045C3.83036 16.7184 5.96298 17.7786 8.25489 17.9672C10.5468 18.1558 12.8238 17.4584 14.6177 16.0184L18.2981 19.7016C18.3893 19.7948 18.4979 19.8692 18.6178 19.9203C18.7377 19.9715 18.8666 19.9986 18.9969 19.9999C19.1273 20.0013 19.2566 19.977 19.3776 19.9283C19.4985 19.8797 19.6087 19.8076 19.7018 19.7163C19.795 19.6251 19.8693 19.5163 19.9204 19.3963C19.9715 19.2763 19.9986 19.1474 19.9999 19.0169C20.0013 18.8865 19.977 18.757 19.9284 18.636C19.8797 18.5149 19.8078 18.4047 19.7166 18.3114L19.7134 18.3093ZM9.01303 16.0184C7.62972 16.0186 6.2774 15.6082 5.12713 14.8392C3.97685 14.0702 3.08029 12.9771 2.55082 11.6981C2.02135 10.4191 1.88276 9.01169 2.15258 7.65387C2.4224 6.29605 3.08851 5.0488 4.06667 4.06988C5.04482 3.09095 6.29108 2.42431 7.64783 2.15428C9.00458 1.88425 10.4109 2.02294 11.6889 2.55283C12.9668 3.08272 14.0591 3.97999 14.8275 5.13118C15.5959 6.28236 16.0059 7.63574 16.0057 9.02015C16.0054 10.8761 15.2686 12.656 13.9573 13.9683C12.646 15.2807 10.8675 16.0181 9.01303 16.0184Z" fill="#5F3C08"/>
</svg>
