<svg width="64" height="64" viewBox="0 0 64 64" fill="none" xmlns="http://www.w3.org/2000/svg">
<path d="M51.9999 20.2C47.7999 20.2 44.3999 23.5999 44.3999 27.7999V34C44.3999 34.8 44.9999 35.3999 45.7999 35.5999H46.1999C47.1999 35.7999 47.9999 36 48.9999 36H55.1999C56.1999 35.8 56.9999 35.7999 57.9999 35.5999H58.3999C59.1999 35.3999 59.7999 34.8 59.7999 34V27.7999C59.5999 23.5999 56.1999 20.2 51.9999 20.2Z" fill="#8A6845"/>
<path d="M56.1999 28.6V31.2C56.1999 33.6 54.3999 35.4 51.9999 35.4V36.2H54.9999C55.9999 36 56.7999 35.9999 57.7999 35.7999H58.1999C58.9999 35.5999 59.5999 35 59.5999 34.2V28.7999H56.1999V28.6ZM51.9999 20.2C47.7999 20.2 44.3999 23.5999 44.3999 27.7999V34C44.3999 34.8 44.9999 35.3999 45.7999 35.5999H46.1999C46.3999 35.5999 46.7999 35.5999 46.9999 35.7999V27.7999C46.9999 23.9999 49.7999 21 53.3999 20.4C52.7999 20.4 52.3999 20.2 51.9999 20.2Z" fill="#745539"/>
<path d="M50.4001 31.2001V28.6001H47.8V31.2001C47.8 33.6001 49.6 35.4001 52 35.4001C52.4 35.4001 52.8001 35.4001 53.2001 35.2001C51.6001 34.8001 50.4001 33.2001 50.4001 31.2001Z" fill="#E2B698"/>
<path d="M54.4001 35.3999H53.6C53.2 35.3999 52.8 34.9999 52.8 34.5999C52.8 34.1999 53.2 33.7999 53.6 33.7999H54.4001C55.4001 33.7999 56 32.9999 56 32.1999V30.1999C56 29.7999 56.4 29.3999 56.8 29.3999C57.2 29.3999 57.6 29.7999 57.6 30.1999V32.1999C57.8 33.7999 56.4001 35.3999 54.4001 35.3999Z" fill="#004463"/>
<path d="M55.2 31.4001H56.5999C57.3999 31.4001 58 30.8001 58 30.0001C58 29.2001 57.3999 28.6001 56.5999 28.6001H55.2V31.4001Z" fill="#607D95"/>
<path d="M55 37.6V33.8H48.8V37.4001L47 38C47.4 40.4 51.8 42.4001 51.8 42.4001C51.8 42.4001 56.2 40.4 56.6 38L55 37.6Z" fill="#F0C9AE"/>
<path d="M55 33.8H48.8V35.8C49.6 36.4 50.8 36.6 51.8 36.6C53 36.6 54 36.2 54.8 35.8V33.8H55Z" fill="#E2B698"/>
<path d="M60 39.2L56.8 38.2C56.4 40.6 52 42.5999 52 42.5999C52 42.5999 47.6 40.6 47.2 38.2L44 39.2C42.2 39.8 41 41.4 41 43.4V47.2H63V43.4C63 41.4 61.8 39.8 60 39.2Z" fill="#AE89BF"/>
<path d="M63 47.2V43.4C63 42.6 62.8001 41.8 62.4001 41.2C59.8001 41.6 57.8 43.8 57.8 46.4V47.2H63Z" fill="#9675B4"/>
<path d="M50.6 35.8V33.8H48.8V37.6L47 38.2001C47.4 40.6001 51.8 42.6 51.8 42.6C52 42.6 52.2 42.4001 52.6 42.2001C51.6 41.6001 50.2 40.8 49.2 39.6C49 39.4 49.2 39 49.4 39H49.6C50 38.8 50.2 38.6001 50.2 38.2001V35.8H50.6Z" fill="#E2B698"/>
<path d="M56.2001 28.6001V31.2001C56.2001 33.6001 54.4 35.4001 52 35.4001C49.6 35.4001 47.8 33.6001 47.8 31.2001V28.6001" fill="#F0C9AE"/>
<path d="M50.4001 31.2001V28.6001H47.8V31.2001C47.8 33.6001 49.6 35.4001 52 35.4001C52.4 35.4001 52.8001 35.4001 53.2001 35.2001C51.6001 34.8001 50.4001 33.2001 50.4001 31.2001Z" fill="#E2B698"/>
<path d="M56.2 28.6H52C51 28.6 50.4 27.8 50.4 27C50.4 28 49.6 28.6 48.8 28.6H48V31.2C48 33.6 49.8 35.4 52.2 35.4C54.6 35.4 56.4 33.6 56.4 31.2L56.2 28.6Z" fill="#F0C9AE"/>
<path d="M49.4001 31.1999V28.3999C49.2001 28.5999 48.8 28.5999 48.6 28.5999H47.8V31.1999C47.8 33.5999 49.6 35.3999 52 35.3999H52.8C51 34.9999 49.4001 33.1999 49.4001 31.1999Z" fill="#E2B698"/>
<path d="M56 32.3999C55.8 32.9999 55.2001 33.5999 54.4001 33.5999H53.6C53.2 33.5999 52.8 33.9999 52.8 34.3999C52.8 34.7999 53.2 35.1999 53.6 35.1999H54.4001C56.0001 35.1999 57.4 33.9999 57.8 32.3999H56Z" fill="#004463"/>
<path d="M50 42.2C50.6 42.4 51.2 42.4 52 42.4C52 42.4 51.4 42.2 51.2 42C50.2 41.4 48.8 40.4 47.8 39.4L47.2 38.2L44 39.2C43.8 39.2 43.4 39.3999 43.2 39.5999H43L42.4 40.2C41.6 41 41 42.2 41 43.4V47.2H42.8V43.5999C42.8 42.3999 43.4 41.3999 44.2 40.7999H44.4C44.8 40.9999 45 41 45.2 41.2C45.4 41.4 45.8 41.3999 46 41.5999C47.8 42.7999 49 45 49 47.2H52.2C52.2 45.4 51.4 43.6 50 42.2Z" fill="#9675B4"/>
<path d="M41.8 25V27.8C41.8 29.4 40.4 30.8 38.8 30.8H34.8C34.2 30.8 33.8 31.2 33.8 31.8C33.8 32.4 34.2 32.8 34.8 32.8H38.8C41.4 32.8 43.6 30.6 43.8 28V25.2H41.8V25ZM16.2 34.6H13.6C13.2 34.6 12.8 34.2 12.8 33.8C12.8 33.4 13.2 33 13.6 33H16.2C17.2 33 17.8 32.2 17.8 31.4V29.4C17.8 29 18.2 28.6 18.6 28.6C19 28.6 19.4 29 19.4 29.4V31.4C19.6 33 18 34.6 16.2 34.6Z" fill="#004463"/>
<path d="M7.1999 30.6001H5.7999C4.9999 30.6001 4.3999 30.0001 4.3999 29.2001C4.3999 28.4001 4.9999 27.8001 5.7999 27.8001H7.1999V30.6001ZM16.9999 30.4001H18.3999C19.1999 30.4001 19.7999 29.8001 19.7999 29.0001C19.7999 28.2001 19.1999 27.6001 18.3999 27.6001H16.9999V30.4001Z" fill="#607D95"/>
<path d="M9 37.6001L4 39.2001C2.2 39.8001 1 41.4001 1 43.4001V47.2001H23V43.4001C23 41.6001 21.8 39.8001 20 39.2001L15 37.6001H9Z" fill="#AE89BF"/>
<path d="M11.6 37.3999H9L4 39.1999C2.4 39.7999 1 41.3999 1 43.3999V47.1999H2.8V43.3999C2.8 42.1999 3.8 40.9999 5 40.5999L7 39.9999C7.8 39.7999 8.6 39.7999 9.4 40.3999C9.6 40.5999 10 40.7999 10.2 40.7999C10.8 41.1999 11.4 41.1999 12 40.7999C12.8 40.1999 14 39.1999 14 38.1999L13.8 37.5999H11.6V37.3999ZM23 47.1999V43.3999C23 42.5999 22.8 41.7999 22.4 41.1999C19.8 41.5999 17.8 43.7999 17.8 46.3999V47.1999H23Z" fill="#9675B4"/>
<path d="M1 47.2V43.4C1 42.6 1.2 41.8 1.6 41.2C4.2 41.6 6.2 43.8 6.2 46.4V47.2H1Z" fill="#9675B4"/>
<path d="M2.8 43.4C2.8 42.8 3 42.1999 3.4 41.7999L1.6 41.2C1.2 41.8 1 42.6 1 43.4V47.2H2.8V43.4Z" fill="#8D6DAF"/>
<path d="M9 34V37.6C9 39.4 12 40.6 12 40.6C12 40.6 15 39.2 15 37.6V34H9Z" fill="#F0C9AE"/>
<path d="M9 35.8C9.8 36.4 11 36.8 12 36.8C13.2 36.8 14.2 36.4 15 35.8V34H9V35.8Z" fill="#E2B698"/>
<path d="M10.6 37.5999V35.3999H9V37.5999C9 39.3999 12 40.5999 12 40.5999L12.8 40.1999C12 39.5999 10.6 38.5999 10.6 37.5999Z" fill="#E2B698"/>
<path d="M6 24.6001V29.6001C6 32.8001 8.6 35.6001 12 35.6001C15.4 35.6001 18 33.0001 18 29.6001V24.6001H6Z" fill="#F0C9AE"/>
<path d="M8.6 29.6001V24.6001H6V29.6001C6 32.8001 8.6 35.6001 12 35.6001C12.4 35.6001 12.8 35.6001 13.2 35.4001C10.6 34.8001 8.6 32.4001 8.6 29.6001Z" fill="#E2B698"/>
<path d="M18.0001 28.2L19.0001 25.2C19.2001 23.8 18.2001 22.6 16.8001 22.6C16.8001 21 15.4001 19.6 13.6001 20L7.20007 21C5.60007 21.2 4.60007 22.6 5.00007 24.2L6.00007 28.2L8.20007 26.4C8.60007 26.2 8.80007 26 9.20007 26H14.8001C15.2001 26 15.6001 26.2 15.8001 26.4L18.0001 28.2Z" fill="#8A6845"/>
<path d="M7.60002 24.2001C7.40002 22.6001 8.40002 21.2 9.80002 21L15.2 20C14.8 19.8 14.2 19.8 13.8 19.8L7.40002 20.8C5.80002 21 4.80002 22.4 5.20002 24L6.00002 28.2001L8.20002 26.4L7.60002 24.2001Z" fill="#745539"/>
<path d="M17.8 31.6001C17.6 32.2001 17 32.8001 16.2 32.8001H13.6C13.2 32.8001 12.8 33.2001 12.8 33.6001C12.8 34.0001 13.2 34.4001 13.6 34.4001H16.2C17.8 34.4001 19.2 33.2001 19.6 31.6001H17.8Z" fill="#004463"/>
<path d="M24.5999 27.2H21.7999C20.9999 27.2 20.3999 26.6 20.3999 25.8V24.4C20.3999 23.6 20.9999 23 21.7999 23H24.5999V27.2ZM39.5999 27.2H42.3999C43.1999 27.2 43.7999 26.6 43.7999 25.8V24.4C43.7999 23.6 43.1999 23 42.3999 23H39.5999V27.2Z" fill="#607D95"/>
<path d="M27.4 38.2L19.8 40.7999C17 41.7999 15.2 44.4 15.2 47.2V53.2H49.2V47.2C49.2 44.2 47.3999 41.5999 44.5999 40.7999L37 38.2H27.4Z" fill="#AE89BF"/>
<path d="M31.2 38H27.2L19.6 40.6C17.2 41.4 15 44.2 15 47V53.2H17.8V47.2C17.8 45.2 19.2 43.6 21 43L24.2 42C25.4 41.6 26.8 41.8 27.8 42.6C28 42.8 28.8 43.2 29 43.4C29.8 44 31 44 31.8 43.4C33.2 42.6 35.2 41 35.2 39.4L34.8 38H31.2ZM49 53.2V47.2C49 46 48.6 44.8 48 43.8C44 44.2 40.8 47.8 40.8 51.8V53.2H49Z" fill="#9675B4"/>
<path d="M15 53.2001V47.2001C15 46.0001 15.4 44.8 16 43.8C20 44.2 23.2 47.8 23.2 51.8V53.2001H15Z" fill="#9675B4"/>
<path d="M17.8 47.2001C17.8 46.2001 18.2 45.4001 18.8 44.6001C17.8 44.0001 17 43.8001 16 43.6001C15.4 44.6001 15 45.8001 15 47.0001V53.0001H17.8V47.2001Z" fill="#8D6DAF"/>
<path d="M27.2 32.8V38.2001C27.2 40.8001 32 43 32 43C32 43 36.7999 40.8001 36.7999 38.2001V32.8H27.2Z" fill="#F0C9AE"/>
<path d="M27.2 35.4001C28.6 36.2001 30.2 36.8 32 36.8C33.8 36.8 35.4 36.2001 36.7999 35.4001V32.8H27.2V35.4001Z" fill="#E2B698"/>
<path d="M30 38.2001V34.8H27.2V38.2001C27.2 40.8001 32 43 32 43C32 43 32.6 42.8001 33.4 42.2001C32 41.4001 30 39.8001 30 38.2001Z" fill="#E2B698"/>
<path d="M22.8 18.2V26C22.8 31 26.8 35.2 32 35.2C37.2 35.2 41.2001 31.2 41.2001 26V18.2H22.8Z" fill="#F0C9AE"/>
<path d="M26.8 25.7999V18.2H22.8V26C22.8 31 26.8 35.2 32 35.2C32.6 35.2 33.4 35.2 34 35C29.8 33.8 26.8 30.1999 26.8 25.7999Z" fill="#E2B698"/>
<path d="M41.1999 23.8L42.7999 19.2C43.1999 17 41.5999 15 39.3999 15C39.3999 12.4 36.9999 10.4 34.5999 11L24.5999 12.6C22.1999 13 20.7999 15.2 21.1999 17.6L22.7999 24L25.9999 21.2C26.3999 20.8 26.9999 20.6 27.5999 20.6H36.1999C36.7999 20.6 37.3999 20.8 37.7999 21.2L41.1999 23.8Z" fill="#8A6845"/>
<path d="M24.9999 17.3999C24.5999 14.9999 26.1999 12.7999 28.3999 12.3999L36.7999 10.9999C36.1999 10.7999 35.3999 10.5999 34.5999 10.7999L24.5999 12.3999C22.1999 12.7999 20.7999 14.9999 21.1999 17.3999L22.7999 23.7999L25.9999 21.1999L24.9999 17.3999Z" fill="#745539"/>
<path d="M48.8 31.4001H47.4C46.6 31.4001 46 30.8001 46 30.0001C46 29.2001 46.6 28.6001 47.4 28.6001H48.8V31.4001Z" fill="#607D95"/>
<path d="M21.6 40.2C21.2 39.8 20.6 39.4 20 39.2L16 41C13.4 42 11.8 44.4 11.8 47.2H15C15 45 16.2 42.7999 18 41.5999C18.2 41.3999 18.6 41.2 18.8 41.2C19 41 19.4 40.9999 19.6 40.7999L21.6 40.2Z" fill="#9675B4"/>
<path d="M43 29.8H41C40.4 30.4 39.8 30.8 38.8 30.8H34.8C34.2 30.8 33.8 31.2 33.8 31.8C33.8 32.4 34.2 32.8 34.8 32.8H38.8C40.8 32.8 42.6001 31.6 43.4001 29.8H43Z" fill="#004463"/>
</svg>
