<svg width="24" height="24" viewBox="0 0 24 24" fill="none" xmlns="http://www.w3.org/2000/svg">
<path d="M16.9152 4.80246C17.0717 4.92834 17.2228 5.05946 17.369 5.19623C17.3417 5.20954 17.3167 5.22124 17.2928 5.23335L17.0267 5.3689C16.4699 5.65132 15.9116 5.93454 15.3559 6.21937C14.8827 5.83026 14.3604 5.51174 13.8039 5.27288C13.4578 5.12618 13.1001 5.01157 12.7349 4.93036L12.5961 4.89848L12.4565 4.87428C12.3639 4.85774 12.2677 4.83918 12.1823 4.8303L12.0501 4.81376C12.0062 4.80811 11.9655 4.80166 11.907 4.79964L11.7463 4.78996L11.6659 4.78431L11.6252 4.78229L11.6052 4.78108L11.5959 4.77987H11.5875C10.8297 4.7538 10.0732 4.86294 9.35024 5.10263C8.63641 5.34404 7.96594 5.70865 7.36642 6.18145C6.79988 6.63052 6.30395 7.17003 5.89673 7.78031C5.79675 7.92475 5.70907 8.07483 5.6214 8.22249C5.57872 8.29672 5.54103 8.37257 5.50027 8.44681C5.45963 8.52024 5.42204 8.59549 5.3876 8.67233C5.23956 8.9721 5.12573 9.27751 5.02691 9.57283C4.98115 9.72291 4.93308 9.86815 4.89847 10.015C4.88078 10.0872 4.86002 10.1594 4.84541 10.2305C4.82964 10.3027 4.81503 10.3737 4.80157 10.4451L4.77965 10.5492C4.7735 10.5843 4.76811 10.6194 4.76311 10.6541C4.75273 10.7231 4.7412 10.792 4.73081 10.8586C4.71197 10.9934 4.70159 11.118 4.68698 11.2427C4.67659 11.3738 4.67044 11.511 4.66314 11.6377L4.66198 11.6619C4.66198 11.6619 4.66198 11.6675 4.66083 11.6675V11.6732L4.65967 11.718C4.65852 11.7474 4.65852 11.7769 4.65775 11.8055C4.65775 11.8644 4.6566 11.9217 4.65775 11.9774C4.66018 12.4718 4.7112 12.9646 4.81003 13.4479C4.83001 13.5493 4.85271 13.6501 4.87809 13.7501L4.1417 13.9712C4.1417 13.9712 4.13325 13.945 4.11786 13.8925C3.93342 13.284 3.81727 12.6549 3.77178 12.0181C3.7664 11.9548 3.76332 11.891 3.75909 11.8257C3.75794 11.793 3.75717 11.7599 3.75486 11.726L3.75294 11.6756V11.6385L3.75179 11.6143C3.75179 11.4852 3.74871 11.3561 3.75063 11.2128C3.75794 11.064 3.75986 10.9054 3.77255 10.7501L3.79447 10.5137C3.79755 10.4741 3.80178 10.4338 3.80485 10.3934C3.81106 10.3531 3.81658 10.3126 3.82139 10.272L3.85676 10.0247C3.8683 9.94158 3.88714 9.85847 3.90175 9.77294C3.93098 9.60228 3.97366 9.43041 4.01635 9.25411C4.10825 8.90512 4.21784 8.54283 4.36589 8.18295C4.40127 8.09218 4.4378 8.00019 4.48048 7.91143C4.52124 7.82066 4.56085 7.72867 4.60469 7.6391C4.69544 7.45957 4.78734 7.2756 4.8927 7.09848C5.32903 6.3417 5.87553 5.66119 6.51237 5.08165C7.20216 4.45658 7.98648 3.95658 8.83304 3.60221C9.71797 3.23748 10.656 3.03497 11.6063 3.00349L11.9505 3.00026C12.0005 2.99905 12.0662 3.00228 12.1289 3.0047L12.3177 3.01438C12.4469 3.01761 12.5638 3.03173 12.6838 3.04384L12.8634 3.06239L13.0406 3.08983C13.5163 3.16084 13.9854 3.2738 14.4384 3.43114C15.3311 3.74029 16.1682 4.20378 16.9152 4.80246ZM20.2088 12.8161C20.1747 13.1733 20.1211 13.5281 20.048 13.8788C19.9957 14.1217 19.9627 14.25 19.9627 14.25L17.4478 13.4709C17.4478 13.4709 17.477 13.3834 17.5239 13.216C17.5709 13.0497 17.6347 12.8024 17.6866 12.4797C17.7377 12.1569 17.7773 11.7587 17.7712 11.298C17.7634 10.7814 17.6979 10.2675 17.5762 9.76689C17.5462 9.65023 17.5142 9.53415 17.4801 9.41871C17.5385 9.32915 17.5982 9.23797 17.6574 9.1484L18.9163 7.23445L18.9602 7.16667C19.1113 7.41963 19.2447 7.67542 19.3659 7.93281C19.5474 8.30802 19.6881 8.68888 19.8092 9.06005C20.1907 10.2691 20.3268 11.5486 20.2088 12.8161Z" fill="#0E2339"/>
<path d="M16.875 18C17.4963 18 18 17.4963 18 16.875C18 16.2537 17.4963 15.75 16.875 15.75C16.2537 15.75 15.75 16.2537 15.75 16.875C15.75 17.4963 16.2537 18 16.875 18Z" fill="#0E2339"/>
<path d="M13.875 20.25C14.4963 20.25 15 19.7463 15 19.125C15 18.5037 14.4963 18 13.875 18C13.2537 18 12.75 18.5037 12.75 19.125C12.75 19.7463 13.2537 20.25 13.875 20.25Z" fill="#0E2339"/>
<path d="M9.375 20.25C9.99632 20.25 10.5 19.7463 10.5 19.125C10.5 18.5037 9.99632 18 9.375 18C8.75368 18 8.25 18.5037 8.25 19.125C8.25 19.7463 8.75368 20.25 9.375 20.25Z" fill="#0E2339"/>
<path d="M6 18C6.41421 18 6.75 17.6642 6.75 17.25C6.75 16.8358 6.41421 16.5 6 16.5C5.58579 16.5 5.25 16.8358 5.25 17.25C5.25 17.6642 5.58579 18 6 18Z" fill="#0E2339"/>
<path d="M17.8876 6.75712C17.9607 6.72472 18.0309 6.80962 17.9857 6.87647L17.9845 6.87811C16.5592 8.97805 15.1319 11.0764 13.7094 13.1779C13.3211 13.7517 12.8234 14.1545 12.1258 14.2353C11.0848 14.3555 10.1463 13.7292 9.84557 12.7325C9.54767 11.7449 9.959 10.7072 10.9007 10.2216C12.3511 9.47433 13.82 8.76396 15.282 8.03964C16.1273 7.62088 16.9738 7.205 17.8202 6.78829C17.842 6.77763 17.8638 6.76737 17.8876 6.75712Z" fill="#0E2339"/>
<path d="M12 24C5.38316 24 0 18.6168 0 12C0 5.38316 5.38316 0 12 0C18.6168 0 24 5.38316 24 12C24 18.6168 18.6168 24 12 24ZM12 1.86466C6.41136 1.86466 1.86466 6.41136 1.86466 12C1.86466 17.5886 6.41136 22.1353 12 22.1353C17.5886 22.1353 22.1353 17.5886 22.1353 12C22.1353 6.41136 17.5886 1.86466 12 1.86466Z" fill="#0E2339"/>
</svg>
