<svg width="24" height="7" viewBox="0 0 24 7" fill="none" xmlns="http://www.w3.org/2000/svg">
<path d="M23.5669 3.28705L21.2979 3.08707L20.4109 0.998047L19.5239 3.08707L17.2549 3.28705L18.9749 4.77905L18.4609 6.99707L20.4109 5.82007L22.3609 6.99707L21.8429 4.77905L23.5669 3.28705Z" fill="#FDD48E"/>
<path d="M14.9458 3.28705L12.6768 3.08707L11.7898 0.998047L10.9028 3.08707L8.63379 3.28705L10.3538 4.77905L9.83978 6.99707L11.7898 5.82007L13.7398 6.99707L13.2218 4.77905L14.9458 3.28705Z" fill="#FDD48E"/>
<path d="M6.3208 3.28705L4.05176 3.08707L3.16479 0.998047L2.27777 3.08707L0.00878906 3.28705L1.72876 4.77905L1.21478 6.99707L3.16479 5.82007L5.11481 6.99707L4.5968 4.77905L6.3208 3.28705Z" fill="#FDD48E"/>
</svg>
