<svg width="22" height="20" viewBox="0 0 22 20" fill="none" xmlns="http://www.w3.org/2000/svg">
<path d="M12.5678 1.37731L21.1153 9.0761C21.1858 9.14397 21.2384 9.24755 21.2483 9.37022C21.2583 9.493 21.2233 9.6092 21.1607 9.69483C21.1251 9.73923 21.0841 9.77151 21.0425 9.79262C21.0005 9.8139 20.9573 9.82418 20.9154 9.82495C20.8486 9.82446 20.7766 9.79961 20.7125 9.74282L20.6987 9.7306L20.6844 9.71907L20.288 9.40097L19.0686 8.42228V9.98589V17.6437C19.0686 18.0855 18.9041 18.4998 18.6257 18.7978C18.3489 19.094 17.9847 19.25 17.6167 19.25H14.3138C14.2377 19.25 14.1536 19.2181 14.0833 19.1429C14.0113 19.0659 13.9628 18.9512 13.9628 18.8219V14.1093C13.9628 13.6138 13.7793 13.1291 13.4384 12.7642C13.0958 12.3976 12.6198 12.1812 12.1119 12.1812H9.90998C9.40204 12.1812 8.9261 12.3976 8.58351 12.7642C8.24252 13.1291 8.05902 13.6138 8.05902 14.1093V18.8219C8.05902 18.9512 8.01054 19.0659 7.93858 19.1429C7.86823 19.2181 7.78412 19.25 7.70806 19.25H4.4052C4.03716 19.25 3.67301 19.094 3.39619 18.7978C3.11776 18.4998 2.95329 18.0855 2.95329 17.6437V9.98589V8.31218L1.70412 9.42613L1.3085 9.77892C1.30845 9.77897 1.30839 9.77902 1.30833 9.77907C1.23486 9.84434 1.15089 9.86792 1.07477 9.86041C0.99785 9.85282 0.913394 9.81169 0.846915 9.72611C0.779179 9.6389 0.740781 9.51719 0.75189 9.38825C0.762982 9.25951 0.82072 9.15252 0.896165 9.08541L0.896175 9.08542L0.899661 9.08228L9.45408 1.37731L9.45413 1.37736L9.46135 1.37068C9.89944 0.965557 10.45 0.75 11.0109 0.75C11.5719 0.75 12.1224 0.965557 12.5605 1.37068L12.5605 1.37073L12.5678 1.37731Z" stroke="#87919C" stroke-width="1.5"/>
</svg>
