<svg width="64" height="64" viewBox="0 0 64 64" fill="none" xmlns="http://www.w3.org/2000/svg">
<path d="M45.1459 28.164V17.02C45.1459 13.5335 43.7609 10.1898 41.2956 7.7244C38.8302 5.25904 35.4865 3.87402 31.9999 3.87402C28.5134 3.87402 25.1697 5.25904 22.7043 7.7244C20.239 10.1898 18.8539 13.5335 18.8539 17.02C18.8539 17.5505 19.0647 18.0592 19.4397 18.4342C19.8148 18.8093 20.3235 19.02 20.8539 19.02C21.3844 19.02 21.8931 18.8093 22.2682 18.4342C22.6432 18.0592 22.8539 17.5505 22.8539 17.02C22.8539 14.5944 23.8175 12.268 25.5327 10.5528C27.248 8.83762 29.5743 7.87402 31.9999 7.87402C34.4256 7.87402 36.7519 8.83762 38.4671 10.5528C40.1824 12.268 41.1459 14.5944 41.1459 17.02V28.142H19.0439C16.9229 28.1441 14.8893 28.9877 13.3894 30.4875C11.8896 31.9873 11.0461 34.0209 11.0439 36.142V52.124C11.0461 54.2451 11.8896 56.2787 13.3894 57.7785C14.8893 59.2784 16.9229 60.1219 19.0439 60.124H44.9559C47.077 60.1219 49.1106 59.2784 50.6105 57.7785C52.1103 56.2787 52.9538 54.2451 52.9559 52.124V36.144C52.9524 34.0578 52.1337 32.0555 50.6747 30.5643C49.2156 29.0731 47.2316 28.2131 45.1459 28.164ZM48.9559 52.126C48.9549 53.1866 48.5331 54.2034 47.7832 54.9533C47.0333 55.7032 46.0165 56.125 44.9559 56.126H19.0439C17.9834 56.125 16.9666 55.7032 16.2167 54.9533C15.4668 54.2034 15.045 53.1866 15.0439 52.126V36.146C15.045 35.0855 15.4668 34.0687 16.2167 33.3188C16.9666 32.5688 17.9834 32.1471 19.0439 32.146H44.9559C46.0165 32.1471 47.0333 32.5688 47.7832 33.3188C48.5331 34.0687 48.9549 35.0855 48.9559 36.146V52.126Z" fill="#0E2339"/>
<path d="M32 34.114C30.3721 34.1267 28.8023 34.7201 27.5731 35.7873C26.3438 36.8546 25.5359 38.3255 25.2948 39.9354C25.0536 41.5453 25.3951 43.1885 26.2577 44.569C27.1202 45.9496 28.4473 46.9769 30 47.466V52.158C30 52.6884 30.2107 53.1972 30.5857 53.5722C30.9608 53.9473 31.4695 54.158 32 54.158C32.5304 54.158 33.0391 53.9473 33.4142 53.5722C33.7892 53.1972 34 52.6884 34 52.158V47.466C35.5526 46.9769 36.8797 45.9496 37.7423 44.569C38.6048 43.1885 38.9463 41.5453 38.7051 39.9354C38.464 38.3255 37.6561 36.8546 36.4268 35.7873C35.1976 34.7201 33.6278 34.1267 32 34.114ZM32 43.798C31.2647 43.7704 30.5687 43.4589 30.0582 42.929C29.5478 42.399 29.2626 41.6918 29.2626 40.956C29.2626 40.2202 29.5478 39.513 30.0582 38.9831C30.5687 38.4531 31.2647 38.1416 32 38.114C32.7353 38.1416 33.4312 38.4531 33.9417 38.9831C34.4521 39.513 34.7373 40.2202 34.7373 40.956C34.7373 41.6918 34.4521 42.399 33.9417 42.929C33.4312 43.4589 32.7353 43.7704 32 43.798Z" fill="#0E2339"/>
</svg>
