<svg width="17" height="17" viewBox="0 0 17 17" fill="none" xmlns="http://www.w3.org/2000/svg">
<path d="M10.9788 9.06812C11.7649 8.4483 12.3384 7.59897 12.6195 6.63819C12.9006 5.67741 12.8754 4.65291 12.5474 3.70712C12.2193 2.76132 11.6048 1.94122 10.7892 1.3608C9.97355 0.780389 8.99736 0.468506 7.99629 0.468506C6.99523 0.468506 6.01904 0.780389 5.20341 1.3608C4.38779 1.94122 3.77325 2.76132 3.44523 3.70712C3.11721 4.65291 3.09201 5.67741 3.37312 6.63819C3.65423 7.59897 4.2277 8.4483 5.01379 9.06812C3.66592 9.60275 2.4887 10.4937 1.608 11.6456C0.727311 12.7976 0.176267 14.1672 0.0137948 15.6081C-0.00455149 15.8188 0.0603123 16.0283 0.194497 16.1917C0.328682 16.3551 0.521521 16.4595 0.731723 16.4825C0.941925 16.5055 1.15278 16.4453 1.31914 16.3148C1.4855 16.1842 1.59414 15.9938 1.62179 15.7841C1.80681 14.2189 2.55974 12.776 3.73781 11.729C4.91588 10.682 6.43719 10.1037 8.0133 10.1037C9.5894 10.1037 11.1107 10.682 12.2888 11.729C13.4668 12.776 14.2198 14.2189 14.4048 15.7841C14.4265 15.9807 14.5203 16.1622 14.6681 16.2937C14.8158 16.4252 15.007 16.4973 15.2048 16.4961H15.2928C15.5029 16.4727 15.6951 16.3671 15.8276 16.2024C15.9601 16.0377 16.022 15.8273 15.9998 15.6171C15.8365 14.172 15.2823 12.7988 14.397 11.645C13.5116 10.4913 12.3284 9.60074 10.9748 9.06912L10.9788 9.06812ZM7.99579 8.50012C7.36359 8.49696 6.74648 8.3066 6.22235 7.95306C5.69822 7.59953 5.29056 7.09866 5.05081 6.51366C4.81106 5.92867 4.74997 5.28576 4.87525 4.66608C5.00052 4.0464 5.30654 3.47771 5.7547 3.03178C6.20286 2.58586 6.77307 2.28267 7.39337 2.16049C8.01367 2.03831 8.65626 2.10261 9.24005 2.34527C9.82384 2.58793 10.3227 2.99809 10.6736 3.52397C11.0245 4.04986 11.2118 4.6679 11.2118 5.30012C11.2109 5.72144 11.127 6.13845 10.9648 6.52732C10.8027 6.91619 10.5655 7.2693 10.2668 7.56647C9.96817 7.86365 9.61388 8.09906 9.22421 8.25926C8.83453 8.41946 8.41711 8.50131 7.99579 8.50012Z" fill="#FDD48E"/>
</svg>
