<svg width="14" height="14" viewBox="0 0 14 14" fill="none" xmlns="http://www.w3.org/2000/svg">
<g clip-path="url(#clip0_935_1074)">
<path d="M9.59948 7.49625C10.2892 6.9566 10.7927 6.21656 11.0398 5.37908C11.2869 4.54161 11.2654 3.64836 10.9783 2.82359C10.6912 1.99883 10.1528 1.28357 9.4379 0.777334C8.72302 0.271097 7.86727 -0.000946045 6.98969 -0.000946045C6.11212 -0.000946045 5.25636 0.271097 4.54149 0.777334C3.82661 1.28357 3.28817 1.99883 3.00106 2.82359C2.71396 3.64836 2.69248 4.54161 2.93961 5.37908C3.18673 6.21656 3.69018 6.9566 4.3799 7.49625C3.19815 7.96706 2.16702 8.74799 1.39643 9.75579C0.625834 10.7636 0.144674 11.9605 0.00424176 13.2189C-0.00592005 13.3108 0.00221944 13.4038 0.0281956 13.4925C0.0541717 13.5813 0.0974759 13.6641 0.155635 13.7363C0.213795 13.8084 0.285671 13.8684 0.367159 13.913C0.448648 13.9575 0.538153 13.9856 0.630565 13.9957C0.722976 14.0058 0.816485 13.9977 0.905751 13.9719C0.995017 13.946 1.07829 13.903 1.15082 13.8451C1.22335 13.7873 1.28372 13.7158 1.32847 13.6347C1.37322 13.5537 1.40149 13.4647 1.41165 13.3728C1.56452 12.0039 2.21956 10.7392 3.2514 9.82067C4.28325 8.90212 5.61943 8.39425 7.00424 8.39425C8.38906 8.39425 9.72524 8.90212 10.7571 9.82067C11.7889 10.7392 12.444 12.0039 12.5968 13.3728C12.6161 13.5446 12.6987 13.7033 12.8286 13.8182C12.9586 13.9331 13.1267 13.9961 13.3005 13.995H13.3773C13.5616 13.9739 13.7301 13.8811 13.8461 13.737C13.962 13.5928 14.016 13.409 13.9963 13.2254C13.8551 11.9636 13.3713 10.7637 12.5968 9.75441C11.8222 8.74513 10.7861 7.96452 9.59948 7.49625ZM6.98969 6.99897C6.43324 6.99897 5.88928 6.83486 5.4266 6.5274C4.96392 6.21993 4.60331 5.78292 4.39036 5.27162C4.17742 4.76033 4.1217 4.19771 4.23026 3.65492C4.33882 3.11213 4.60678 2.61355 5.00025 2.22222C5.39373 1.83089 5.89504 1.56439 6.44081 1.45642C6.98657 1.34845 7.55227 1.40387 8.06637 1.61565C8.58047 1.82744 9.01988 2.18609 9.32903 2.64624C9.63818 3.10639 9.80318 3.64739 9.80318 4.20081C9.80318 4.94293 9.50676 5.65465 8.97913 6.17941C8.4515 6.70417 7.73588 6.99897 6.98969 6.99897Z" fill="#0E2339"/>
</g>
<defs>
<clipPath id="clip0_935_1074">
<rect width="14" height="14" fill="white"/>
</clipPath>
</defs>
</svg>
