<svg width="48" height="49" viewBox="0 0 48 49" fill="none" xmlns="http://www.w3.org/2000/svg">
<path d="M47.9999 5.49999V34.4999C47.9999 37.5399 45.5399 39.9999 42.4999 39.9999H21.5C20.7777 39.9999 20.0625 39.8576 19.3952 39.5812C18.7279 39.3048 18.1216 38.8997 17.6109 38.389C17.1002 37.8783 16.6951 37.2719 16.4187 36.6047C16.1423 35.9374 16 35.2222 16 34.4999V5.49999C16 2.45999 18.46 0 21.5 0H42.4999C45.5399 0 47.9999 2.45999 47.9999 5.49999Z" fill="#ECEFF1"/>
<path d="M33.072 0H21.5C18.46 0 16 2.45999 16 5.49999V34.4999C16 35.2222 16.1423 35.9374 16.4187 36.6047C16.6951 37.2719 17.1002 37.8783 17.6109 38.389C18.1216 38.8997 18.7279 39.3048 19.3952 39.5812C20.0625 39.8576 20.7777 39.9999 21.5 39.9999H33.072V0Z" fill="#CDD0D2"/>
<path d="M47.9996 23.8801V34.5C47.9996 37.54 45.5396 40 42.4996 40H21.4997C20.5211 39.9995 19.5603 39.7379 18.7166 39.2422C17.8728 38.7465 17.1766 38.0346 16.6997 37.18L36.5197 17.3601C37.8797 16.0001 40.1196 16.0001 41.4796 17.3601L47.9996 23.8801Z" fill="#388E3C"/>
<path d="M38.9576 16.3401C38.0427 16.3476 37.1673 16.7138 36.5197 17.3601L16.6997 37.18C17.1766 38.0346 17.8728 38.7465 18.7166 39.2422C19.5603 39.7379 20.5211 39.9995 21.4997 40H38.9576V16.3401Z" fill="#317C34"/>
<path d="M26 10C23.794 10 22 11.794 22 14C22 16.206 23.794 18 26 18C28.206 18 30 16.206 30 14C30 11.794 28.206 10 26 10Z" fill="#FFC107"/>
<path d="M26 10C23.794 10 22 11.794 22 14C22 16.206 23.794 18 26 18V10Z" fill="#DEA806"/>
<path d="M42.1199 39.9998H21.5C20.7777 39.9998 20.0625 39.8575 19.3952 39.5811C18.7279 39.3047 18.1216 38.8996 17.6109 38.3889C17.1002 37.8782 16.6951 37.2719 16.4187 36.6046C16.1423 35.9373 16 35.2221 16 34.4998V29.8798L21.52 24.3598C22.88 22.9998 25.12 22.9998 26.48 24.3598L42.1199 39.9998Z" fill="#4CAF50"/>
<path d="M24 23.3398C23.1 23.3398 22.2 23.6798 21.52 24.3598L16 29.8798V34.4998C16 35.2221 16.1423 35.9373 16.4187 36.6046C16.6951 37.2719 17.1002 37.8782 17.6109 38.3889C18.1216 38.8996 18.7279 39.3047 19.3952 39.5811C20.0625 39.8575 20.7777 39.9998 21.5 39.9998H24V23.3398Z" fill="#429846"/>
<path d="M21.5001 43C19.2465 42.9973 17.0861 42.101 15.4926 40.5075C13.8991 38.914 13.0027 36.7535 13.0001 34.5V6.03809L3.33811 8.25008C2.18672 8.5578 1.20442 9.30971 0.606755 10.3408C0.00908688 11.3719 -0.155136 12.598 0.150121 13.7501L8.4341 44.68C8.69977 45.6332 9.26936 46.4737 10.0563 47.0736C10.8432 47.6736 11.8045 48.0002 12.7941 48.004C13.1641 48.004 13.5401 47.958 13.9121 47.86L34.072 43H21.5001Z" fill="#B0BEC5"/>
<path d="M13.0001 27.0139L4.33008 29.3539L8.43407 44.6779C8.69974 45.6311 9.26933 46.4715 10.0563 47.0715C10.8432 47.6715 11.8045 47.9981 12.7941 48.0019C13.1641 48.0019 13.5401 47.9559 13.9121 47.8579L34.072 42.9999H21.5C19.2465 42.9972 17.086 42.1008 15.4926 40.5074C13.8991 38.9139 13.0027 36.7534 13.0001 34.4999V27.0139Z" fill="#99A5AC"/>
</svg>
