<svg width="24" height="24" viewBox="0 0 24 24" fill="none" xmlns="http://www.w3.org/2000/svg">
<path d="M15.75 2.25H8.25C7.85218 2.25 7.47064 2.40804 7.18934 2.68934C6.90804 2.97064 6.75 3.35218 6.75 3.75V8.25C6.75 8.64782 6.90804 9.02936 7.18934 9.31066C7.47064 9.59196 7.85218 9.75 8.25 9.75H9.75L12 12L14.25 9.75H15.75C16.1478 9.75 16.5294 9.59196 16.8107 9.31066C17.092 9.02936 17.25 8.64782 17.25 8.25V3.75C17.25 3.35218 17.092 2.97064 16.8107 2.68934C16.5294 2.40804 16.1478 2.25 15.75 2.25Z" stroke="#87919C" stroke-width="2" stroke-miterlimit="10" stroke-linecap="round" stroke-linejoin="round"/>
<path d="M12 6.75C12.4142 6.75 12.75 6.41421 12.75 6C12.75 5.58579 12.4142 5.25 12 5.25C11.5858 5.25 11.25 5.58579 11.25 6C11.25 6.41421 11.5858 6.75 12 6.75Z" fill="#87919C"/>
<path d="M9.75 6.75C10.1642 6.75 10.5 6.41421 10.5 6C10.5 5.58579 10.1642 5.25 9.75 5.25C9.33579 5.25 9 5.58579 9 6C9 6.41421 9.33579 6.75 9.75 6.75Z" fill="#87919C"/>
<path d="M14.25 6.75C14.6642 6.75 15 6.41421 15 6C15 5.58579 14.6642 5.25 14.25 5.25C13.8358 5.25 13.5 5.58579 13.5 6C13.5 6.41421 13.8358 6.75 14.25 6.75Z" fill="#87919C"/>
<path d="M4.5 13.1227V8.625C4.5 8.32663 4.38147 8.04048 4.1705 7.8295C3.95952 7.61853 3.67337 7.5 3.375 7.5C3.07663 7.5 2.79048 7.61853 2.5795 7.8295C2.36853 8.04048 2.25 8.32663 2.25 8.625V14.664C2.24993 15.3659 2.49595 16.0455 2.94525 16.5848L6 20.25V21.75" stroke="#87919C" stroke-width="2" stroke-miterlimit="10" stroke-linecap="round" stroke-linejoin="round"/>
<path d="M10.5 21.75V18.0315C10.5001 17.05 10.1153 16.1075 9.42825 15.4065L6.41025 12.3278C6.20068 12.1182 5.91647 12.0005 5.62013 12.0005C5.32378 12.0005 5.03957 12.1182 4.83 12.3278L4.827 12.33C4.61747 12.5406 4.4999 12.8257 4.5 13.1227C4.49961 13.3758 4.5862 13.6212 4.74525 13.818L6.75 16.5M19.5 13.1227V8.625C19.5 8.32663 19.6185 8.04048 19.8295 7.8295C20.0405 7.61853 20.3266 7.5 20.625 7.5C20.9234 7.5 21.2095 7.61853 21.4205 7.8295C21.6315 8.04048 21.75 8.32663 21.75 8.625V14.664C21.7501 15.3659 21.5041 16.0455 21.0548 16.5848L18 20.25V21.75" stroke="#87919C" stroke-width="2" stroke-miterlimit="10" stroke-linecap="round" stroke-linejoin="round"/>
<path d="M13.5 21.75V18.0315C13.4999 17.0499 13.8847 16.1075 14.5718 15.4065L17.5897 12.3277C17.7993 12.1182 18.0835 12.0005 18.3799 12.0005C18.6762 12.0005 18.9604 12.1182 19.17 12.3277L19.1722 12.33C19.3669 12.5242 19.483 12.7836 19.4983 13.0582C19.5135 13.3328 19.4268 13.6034 19.2548 13.818L17.25 16.5" stroke="#87919C" stroke-width="2" stroke-miterlimit="10" stroke-linecap="round" stroke-linejoin="round"/>
</svg>
