<svg width="24" height="24" viewBox="0 0 24 24" fill="none" xmlns="http://www.w3.org/2000/svg">
<path d="M21.6183 5.33753L15.9322 0.447957C15.6132 0.17219 15.2108 0.0145255 14.7913 0.000955355C14.3719 -0.0126148 13.9603 0.11872 13.6245 0.373307L11.1599 2.23955L9.60918 0.671907C9.26328 0.324317 8.79537 0.129216 8.30765 0.129216C7.81992 0.129216 7.35201 0.324317 7.00611 0.671907L2.39076 5.38418C1.73158 5.4761 1.12718 5.80488 0.688157 6.31037C0.249135 6.81586 0.0048492 7.46425 0 8.1369V21.2006C0 21.9431 0.291756 22.6551 0.811085 23.1801C1.33041 23.7051 2.03477 24 2.76922 24H21.2307C21.9651 24 22.6695 23.7051 23.1888 23.1801C23.7081 22.6551 23.9999 21.9431 23.9999 21.2006V8.1369C24.0065 7.45762 23.7685 6.79909 23.3304 6.28405C22.8922 5.769 22.2837 5.4326 21.6183 5.33753ZM22.1537 16.535H20.3076C19.818 16.535 19.3484 16.3384 19.0022 15.9884C18.6559 15.6384 18.4614 15.1637 18.4614 14.6688C18.4614 14.1738 18.6559 13.6991 19.0022 13.3491C19.3484 12.9991 19.818 12.8025 20.3076 12.8025H22.1537V16.535ZM14.7691 1.86631L18.7384 5.33753H14.2245L12.4799 3.57392L14.7691 1.86631ZM8.30765 1.98761L11.6215 5.33753H4.99382L8.30765 1.98761ZM21.2307 22.1338H2.76922C2.5244 22.1338 2.28961 22.0354 2.11651 21.8604C1.9434 21.6855 1.84614 21.4481 1.84614 21.2006V8.1369C1.84614 7.88942 1.9434 7.65207 2.11651 7.47708C2.28961 7.30208 2.5244 7.20377 2.76922 7.20377H21.2307C21.4755 7.20377 21.7103 7.30208 21.8834 7.47708C22.0565 7.65207 22.1537 7.88942 22.1537 8.1369V10.9363H20.3076C19.3283 10.9363 18.3892 11.3295 17.6967 12.0295C17.0043 12.7295 16.6153 13.6788 16.6153 14.6688C16.6153 15.6587 17.0043 16.6081 17.6967 17.308C18.3892 18.008 19.3283 18.4013 20.3076 18.4013H22.1537V21.2006C22.1537 21.4481 22.0565 21.6855 21.8834 21.8604C21.7103 22.0354 21.4755 22.1338 21.2307 22.1338Z" fill="#87919C"/>
<path d="M19.6525 14.0063C19.4838 14.1851 19.3882 14.4217 19.3848 14.6688C19.3848 14.9163 19.482 15.1536 19.6551 15.3286C19.8282 15.5036 20.063 15.6019 20.3078 15.6019C20.5527 15.6019 20.7874 15.5036 20.9605 15.3286C21.1337 15.1536 21.2309 14.9163 21.2309 14.6688C21.232 14.4834 21.1784 14.302 21.0771 14.1475C20.9757 13.9931 20.8312 13.8726 20.6618 13.8016C20.4925 13.7305 20.3061 13.712 20.1263 13.7485C19.9465 13.7849 19.7816 13.8747 19.6525 14.0063Z" fill="#87919C"/>
</svg>
