<svg width="24" height="24" viewBox="0 0 24 24" fill="none" xmlns="http://www.w3.org/2000/svg">
<path d="M16.2 20.2875C16.5375 20.2875 16.7625 19.9875 16.65 19.6875C16.575 19.425 16.5 19.125 16.3875 18.8625C15.9 17.5125 14.85 16.1625 13.65 15.4125C13.05 15.0375 12.3375 14.775 11.5875 14.85C10.575 14.9625 9.59997 15.8625 8.96247 16.6125C8.21247 17.475 7.72497 18.5625 7.38747 19.6875C7.31247 19.9875 7.53747 20.2875 7.83747 20.2875H16.2ZM17.025 3.89999C17.25 3.86249 17.475 4.08749 17.4 4.31249C16.8 5.99999 15.9 7.23749 14.6625 8.06249C14.0625 8.47499 13.5375 8.96249 13.2 9.59999C13.0875 9.82499 12.975 10.0875 12.9375 10.35C12.9 10.575 12.9375 10.8375 12.7875 11.025C12.6 11.25 12.2625 11.3625 12 11.325C11.6625 11.2875 11.2875 11.1 11.2125 10.7625C11.1375 10.4625 11.1375 10.2 11.025 9.93749C10.725 9.14999 10.125 8.54999 9.44997 8.09999C8.21247 7.27499 7.31247 6.03749 6.71247 4.34999C6.63747 4.12499 6.82497 3.89999 7.08747 3.93749C10.3125 4.49999 13.6875 4.49999 17.025 3.89999Z" fill="#0E2339"/>
<path d="M20.8499 21.375H20.6249C20.6249 21.0375 20.5874 20.7375 20.5499 20.4C20.3624 18.6375 19.7999 16.9875 18.8999 15.525C18.2999 14.5875 17.6249 13.8 16.8374 13.1625C16.4624 12.8625 15.6374 12.225 15.6749 11.8875C15.6749 11.8125 15.7874 11.625 16.1999 11.325C17.9999 10.125 19.2374 8.4375 20.0624 6.15C20.4749 5.025 20.6624 3.825 20.6999 2.5875H20.8499C21.3749 2.5875 21.7874 2.175 21.7874 1.65C21.7874 1.125 21.3749 0.75 20.8499 0.75H3.1499C2.6249 0.75 2.2124 1.1625 2.2124 1.6875C2.2124 2.2125 2.6249 2.625 3.1499 2.625H3.2999C3.3374 3.8625 3.5624 5.0625 3.9374 6.1875C4.7249 8.475 5.9999 10.1625 7.7999 11.3625C8.2124 11.625 8.3249 11.85 8.3249 11.925C8.3249 12.225 7.5374 12.8625 7.1624 13.2C6.3749 13.8375 5.6624 14.625 5.0999 15.5625C4.1999 17.025 3.6374 18.6375 3.4499 20.4375C3.3749 20.7375 3.3749 21.075 3.3749 21.375H3.1499C2.6249 21.375 2.2124 21.7875 2.2124 22.3125C2.2124 22.8375 2.6249 23.25 3.1499 23.25H20.8499C21.3749 23.25 21.7874 22.8375 21.7874 22.3125C21.7874 21.7875 21.3749 21.375 20.8499 21.375ZM5.0249 20.5875C5.1749 19.05 5.6624 17.6625 6.4499 16.3875C6.9374 15.6 7.5374 14.925 8.1749 14.4C8.9999 13.7625 9.9749 12.9375 9.9374 11.8125C9.8999 11.1375 9.4874 10.5375 8.6999 9.975C7.1999 9 6.1499 7.5375 5.4749 5.625C5.1374 4.65 4.9499 3.6375 4.9124 2.5875H19.0874C19.0499 3.6375 18.8624 4.65 18.5249 5.625C17.8499 7.575 16.7999 9 15.2999 9.975C14.5124 10.5 14.0999 11.1375 14.0624 11.8125C14.0249 12.9375 15.0374 13.7625 15.8249 14.4C16.4624 14.925 17.0624 15.6 17.5499 16.3875C18.3374 17.625 18.8249 19.05 18.9749 20.5875C19.0124 20.85 19.0124 21.1125 19.0124 21.375H4.9874C4.9874 21.1125 4.9874 20.85 5.0249 20.5875Z" fill="#0E2339"/>
<path d="M12.0373 12.7125C12.3065 12.7125 12.5248 12.4942 12.5248 12.225C12.5248 11.9557 12.3065 11.7375 12.0373 11.7375C11.7681 11.7375 11.5498 11.9557 11.5498 12.225C11.5498 12.4942 11.7681 12.7125 12.0373 12.7125Z" fill="#0E2339"/>
<path d="M12.1499 13.875C12.357 13.875 12.5249 13.7071 12.5249 13.5C12.5249 13.2929 12.357 13.125 12.1499 13.125C11.9428 13.125 11.7749 13.2929 11.7749 13.5C11.7749 13.7071 11.9428 13.875 12.1499 13.875Z" fill="#0E2339"/>
</svg>
