<svg width="90" height="40" viewBox="0 0 90 40" fill="none" xmlns="http://www.w3.org/2000/svg">
<path d="M45.5933 4.57803C45.0842 3.23242 44.1837 2.07482 43.0107 1.2582C41.8378 0.441589 40.4477 0.00439453 39.0241 0.00439453C37.6005 0.00439453 36.2103 0.441589 35.0374 1.2582C33.8645 2.07482 32.964 3.23242 32.4549 4.57803C33.075 6.21355 33.075 8.02353 32.4549 9.65905C32.964 11.0047 33.8645 12.1623 35.0374 12.9789C36.2103 13.7955 37.6005 14.2327 39.0241 14.2327C40.4477 14.2327 41.8378 13.7955 43.0107 12.9789C44.1837 12.1623 45.0842 11.0047 45.5933 9.65905C44.9782 8.02257 44.9782 6.2145 45.5933 4.57803Z" fill="#4ABDCE"/>
<path d="M32.246 4.57514C31.6585 3.02122 30.5519 1.72463 29.1182 0.910519C27.6846 0.0964108 26.0145 -0.183796 24.398 0.118557C22.7815 0.420909 21.3206 1.28672 20.2692 2.56565C19.2177 3.84458 18.6419 5.45585 18.6419 7.11966C18.6419 8.78347 19.2177 10.3947 20.2692 11.6737C21.3206 12.9526 22.7815 13.8184 24.398 14.1208C26.0145 14.4231 27.6846 14.1429 29.1182 13.3288C30.5519 12.5147 31.6585 11.2181 32.246 9.66418C31.6259 8.02866 31.6259 6.21868 32.246 4.58316V4.57514Z" fill="#FAB743"/>
<path d="M32.3797 4.57507C31.7595 6.21059 31.7595 8.02057 32.3797 9.6561C32.9998 8.02057 32.9998 6.21059 32.3797 4.57507Z" fill="#B2BD8E"/>
<path d="M57.5856 2.34591C56.3349 0.945795 54.5861 0.105632 52.7236 0.0101087C50.8611 -0.0854145 49.0374 0.57152 47.6533 1.8365C46.8289 2.58687 46.1937 3.52581 45.8006 4.57506C46.418 6.21109 46.418 8.02005 45.8006 9.65608C46.1684 10.634 46.7448 11.5179 47.4886 12.2448C48.2323 12.9716 49.1253 13.5236 50.1039 13.8614C51.0824 14.1992 52.1225 14.3145 53.1501 14.1991C54.1777 14.0838 55.1676 13.7406 56.0492 13.1939C56.9308 12.6473 57.6825 11.9107 58.2509 11.0365C58.8192 10.1623 59.1901 9.17212 59.3373 8.13634C59.4845 7.10055 59.4042 6.04466 59.1023 5.04383C58.8004 4.043 58.2842 3.12184 57.5905 2.34591H57.5856Z" fill="#EB5862"/>
<path d="M45.6971 4.57812C45.0821 6.2146 45.0821 8.02267 45.6971 9.65915C46.0049 8.84857 46.1624 7.98751 46.1618 7.11914C46.1615 6.25112 46.0051 5.39041 45.7001 4.57913L45.6971 4.57812Z" fill="#B29796"/>
<path d="M52.2582 7.72275C52.2963 7.7574 52.3456 7.77667 52.3969 7.7769H52.4276C52.4675 7.77079 52.5049 7.75341 52.5356 7.72677C52.5496 7.71204 52.5625 7.69629 52.5742 7.67964C52.9767 7.06764 53.1463 6.32871 53.0515 5.59982C52.9568 4.87093 52.6042 4.20152 52.059 3.7157C52.0371 3.69661 52.0112 3.68282 51.9832 3.67535C51.9552 3.66788 51.9259 3.66693 51.8975 3.67258C51.8691 3.67713 51.8418 3.68736 51.8173 3.70268C51.7928 3.71801 51.7716 3.73811 51.7549 3.76182C51.3569 4.3745 51.1881 5.11089 51.2789 5.83835C51.3697 6.56581 51.7142 7.23655 52.2502 7.72977L52.2582 7.72275ZM51.9738 4.20605C52.3516 4.59979 52.593 5.10702 52.6616 5.65149C52.7302 6.19596 52.6224 6.74826 52.3543 7.22538C51.9783 6.83055 51.7382 6.32348 51.6697 5.77953C51.6011 5.23557 51.7078 4.68375 51.9738 4.20605Z" fill="#962620"/>
<path d="M56.4757 5.28314C56.4562 5.25269 56.4295 5.2276 56.398 5.21011C56.3666 5.19262 56.3313 5.18326 56.2954 5.18286C55.5565 5.26486 54.8487 5.52907 54.2341 5.95232C53.6195 6.37558 53.1169 6.94497 52.7703 7.61056C52.6516 7.81728 52.5463 8.03167 52.4553 8.25233C52.3034 8.07216 52.1402 7.90202 51.9668 7.74293C51.4385 7.22914 50.7905 6.85866 50.0831 6.66584C49.3756 6.47301 48.6314 6.46409 47.9196 6.63988C47.8851 6.65129 47.8541 6.67164 47.8298 6.69891C47.8055 6.72617 47.7886 6.75941 47.7809 6.79531C47.6825 7.52831 47.77 8.27458 48.035 8.96396C48.3 9.65335 48.7338 10.2632 49.2958 10.7362C49.733 11.1539 50.2492 11.4778 50.8132 11.6884C51.3773 11.8989 51.9776 11.9919 52.5781 11.9616C52.6005 11.9694 52.6239 11.9734 52.6475 11.9736C53.5858 11.8775 54.4672 11.4732 55.1571 10.8224C55.5575 10.4516 55.8984 10.0199 56.1676 9.54289C56.5673 8.9164 56.8045 8.1981 56.8575 7.4543C56.9105 6.71051 56.7775 5.96519 56.4708 5.28715L56.4757 5.28314ZM52.1283 10.7572L50.126 8.45088C50.1083 8.42986 50.0865 8.41278 50.0619 8.4007C50.0374 8.38862 50.0106 8.38181 49.9834 8.38069C49.9285 8.37914 49.8752 8.39847 49.8337 8.43484C49.8128 8.45225 49.7957 8.47382 49.7833 8.4982C49.771 8.52258 49.7637 8.54927 49.7619 8.57662C49.7602 8.60396 49.764 8.63138 49.7731 8.65718C49.7822 8.68298 49.7964 8.70663 49.8149 8.72664L52.2631 11.5394C51.2588 11.5091 50.3003 11.1078 49.5682 10.4113C49.0798 9.99742 48.697 9.47065 48.4522 8.87549C48.2073 8.28032 48.1075 7.63425 48.1614 6.99185C48.7891 6.86951 49.4368 6.90106 50.05 7.08389C50.6633 7.26672 51.2244 7.59551 51.6865 8.04275C51.9069 8.24028 52.1077 8.45927 52.2859 8.69656C52.0772 9.35849 52.0219 10.0602 52.1244 10.7472L52.1283 10.7572ZM55.8149 9.33332C55.2731 10.3428 54.3606 11.0959 53.2746 11.4301C53.2549 11.4304 53.2354 11.4344 53.2172 11.4421C53.2172 11.4421 53.1369 11.4652 53.0061 11.4923L55.1937 7.88231C55.2087 7.85898 55.2185 7.83264 55.2224 7.80512C55.2263 7.7776 55.2243 7.74954 55.2165 7.72287C55.2038 7.66943 55.1707 7.62327 55.1244 7.59452C55.0943 7.57684 55.0601 7.5675 55.0253 7.56744C54.9898 7.5672 54.9549 7.57633 54.924 7.59391C54.8931 7.6115 54.8672 7.63694 54.8489 7.66772L52.6693 11.2546C52.4988 10.6806 52.4518 10.0762 52.5314 9.48223C52.6111 8.88824 52.8155 8.31842 53.131 7.81111C53.4366 7.2311 53.8703 6.73028 54.3983 6.34764C54.9264 5.96501 55.5346 5.71087 56.1756 5.60503C56.4112 6.2107 56.5017 6.86429 56.4395 7.5122C56.3773 8.1601 56.1643 8.78385 55.8179 9.33231L55.8149 9.33332Z" fill="#962620"/>
<path d="M52.3821 2.84329C52.9768 2.82997 53.5674 2.94569 54.1143 3.18265C54.6611 3.41961 55.1515 3.77232 55.5525 4.21708C55.7212 4.40667 55.8731 4.61103 56.0062 4.82776C56.035 4.87432 56.0804 4.90776 56.1331 4.92102C56.1479 4.92102 56.1638 4.92102 56.1796 4.92102C56.2192 4.92081 56.2579 4.90859 56.2906 4.88592L56.3173 4.86286C56.3536 4.83044 56.3773 4.78608 56.3844 4.73764C56.3915 4.68919 56.3814 4.63978 56.356 4.59813C56.2121 4.35982 56.0463 4.13586 55.8606 3.92928C55.4203 3.44267 54.8828 3.05644 54.2838 2.79624C53.6847 2.53604 53.0378 2.40783 52.386 2.42012C52.3315 2.42117 52.2796 2.44382 52.2415 2.4832C52.2033 2.52258 52.1819 2.57554 52.1819 2.6307C52.1816 2.65822 52.1869 2.68551 52.1975 2.71087C52.2081 2.73623 52.2237 2.75912 52.2434 2.77811C52.2824 2.81613 52.3348 2.83703 52.389 2.83627L52.3821 2.84329Z" fill="#962620"/>
<path d="M47.9765 6.33005C47.9765 6.33005 48.0073 6.33005 48.0231 6.33005C48.0743 6.32981 48.1237 6.31054 48.1618 6.2759C48.1915 6.24923 48.2128 6.21439 48.2232 6.17563C48.4247 5.39067 48.8339 4.67618 49.4066 4.10901C49.9794 3.54184 50.6941 3.14347 51.4739 2.95674C51.5266 2.9436 51.5724 2.91047 51.6017 2.8642C51.631 2.81793 51.6416 2.76204 51.6314 2.70806C51.6267 2.6807 51.6164 2.65463 51.6012 2.63151C51.586 2.60838 51.5663 2.5887 51.5432 2.57371C51.5201 2.55872 51.4942 2.54875 51.4671 2.54443C51.4399 2.54011 51.4122 2.54154 51.3857 2.54862C50.5943 2.73843 49.8632 3.1279 49.2606 3.68074C48.5585 4.31806 48.0594 5.15228 47.8269 6.07736C47.82 6.10413 47.8185 6.13202 47.8224 6.1594C47.8263 6.18678 47.8356 6.2131 47.8497 6.2368C47.8635 6.26025 47.8818 6.28062 47.9036 6.29666C47.9254 6.31269 47.9502 6.32405 47.9765 6.33005Z" fill="#962620"/>
<path d="M8.54802 11.1032C10.2491 11.0772 11.9426 11.3361 13.5602 11.8693C14.8961 12.299 16.1192 13.0277 17.1388 14.0012C18.0436 14.8874 18.7527 15.9574 19.2194 17.1409C20.1573 19.6396 20.1573 22.3996 19.2194 24.8983C18.7498 26.0803 18.0411 27.1497 17.1388 28.038C16.1177 29.0094 14.895 29.7377 13.5602 30.1698C11.9427 30.7034 10.2491 30.9622 8.54802 30.936H0.184082V30.3092C0.382147 30.3151 0.578878 30.2746 0.758965 30.191C0.939053 30.1073 1.09764 29.9827 1.22239 29.8269C1.43681 29.4283 1.5341 28.976 1.50277 28.5233V13.6322C1.53279 13.1873 1.43545 12.743 1.22239 12.3527C1.09758 12.1949 0.939654 12.0673 0.760065 11.979C0.580475 11.8908 0.383725 11.844 0.184082 11.8423V11.1032H8.54802ZM8.85515 30.3102C9.76464 30.3183 10.6517 30.0245 11.3806 29.4739C12.1435 28.8964 12.7557 28.1391 13.1639 27.2678C13.6134 26.3234 13.9462 25.3265 14.1547 24.2996C14.3798 23.2202 14.4931 22.1198 14.4925 21.0166C14.4954 19.9182 14.3821 18.8226 14.1547 17.7486C13.9468 16.7302 13.614 15.7422 13.1639 14.8074C12.7575 13.948 12.1443 13.2056 11.3806 12.6485C10.6456 12.113 9.76069 11.8295 8.85515 11.8393H7.19861V30.3102H8.85515Z" fill="#0E2339"/>
<path d="M28.3138 28.1823C28.3039 28.5195 28.3372 28.8566 28.4129 29.1851C28.4716 29.4248 28.605 29.6389 28.7933 29.7958C29.0241 29.9699 29.2989 30.0742 29.5859 30.0966V30.9099H21.6104V30.0966C21.8074 30.0987 22.0021 30.0527 22.178 29.9627C22.3539 29.8726 22.5058 29.7411 22.6209 29.5792C22.8369 29.1491 22.9338 28.6677 22.9013 28.1864V20.2926C22.9321 19.8213 22.8352 19.3504 22.6209 18.9308C22.5058 18.7689 22.3539 18.6374 22.178 18.5473C22.0021 18.4573 21.8074 18.4113 21.6104 18.4134V17.5029L27.3646 16.468H28.3178V28.1864L28.3138 28.1823Z" fill="#0E2339"/>
<path d="M43.4617 16L47.9825 16.0852V16.6809C47.7782 16.6772 47.5746 16.706 47.3791 16.7661C47.2199 16.8152 47.0684 16.8872 46.9293 16.9797C46.7923 17.0814 46.6739 17.2066 46.5796 17.3497C46.4804 17.4892 46.3916 17.636 46.3141 17.7889C46.2487 17.9213 46.1684 18.0998 46.0753 18.3294L41.3593 30.491H38.0185L32.8527 18.0737C32.6751 17.6973 32.4208 17.3631 32.1067 17.093C31.7819 16.8559 31.3992 16.7133 31 16.6809V16.0852H40.0099V16.6809C39.812 16.6724 39.6155 16.7181 39.4411 16.8133C39.2667 16.9084 39.121 17.0494 39.0191 17.2214C38.9427 17.4438 38.9121 17.6797 38.9291 17.9146C38.9462 18.1495 39.0105 18.3784 39.1182 18.5871L41.9201 26.7396L45.0647 18.4167C45.2877 17.8491 45.2183 17.4289 44.8537 17.1522C44.4465 16.862 43.9644 16.6985 43.4666 16.6819V16H43.4617Z" fill="#0E2339"/>
<path d="M56.366 28.1823C56.3562 28.5195 56.3895 28.8566 56.4651 29.1851C56.5238 29.4248 56.6572 29.6389 56.8456 29.7958C57.0763 29.97 57.3512 30.0743 57.6382 30.0966V30.9099H49.6626V30.0966C49.8597 30.0987 50.0544 30.0527 50.2302 29.9627C50.4061 29.8726 50.558 29.7411 50.6732 29.5792C50.8892 29.1491 50.9861 28.6677 50.9536 28.1864V20.2926C50.9844 19.8213 50.8875 19.3504 50.6732 18.9308C50.558 18.7689 50.4061 18.6374 50.2302 18.5473C50.0544 18.4573 49.8597 18.4113 49.6626 18.4134V17.5029L55.4169 16.468H56.37V28.1864L56.366 28.1823Z" fill="#0E2339"/>
<path d="M74.6719 28.2364C74.6239 28.7083 74.7164 29.1839 74.9375 29.6022C75.0601 29.7659 75.2197 29.8976 75.403 29.9862C75.5862 30.0748 75.7877 30.1178 75.9906 30.1116V30.9138H67.8764V30.1116C68.0879 30.1026 68.2945 30.0439 68.4797 29.9401C68.6485 29.8338 68.7697 29.6651 68.8176 29.4698C68.8792 29.2767 68.9168 29.0766 68.9295 28.8741C68.9375 28.6957 68.9454 28.4229 68.9454 28.0649V20.9613C68.9956 20.1452 68.8764 19.3274 68.5956 18.5607C68.4932 18.3324 68.3247 18.1409 68.1124 18.0116C67.9001 17.8824 67.654 17.8214 67.4067 17.8367C67.1047 17.8495 66.8094 17.9302 66.542 18.073C66.2747 18.2157 66.0421 18.4169 65.8612 18.662C65.3661 19.2887 65.1157 20.0778 65.1577 20.8791V28.0689C65.1577 28.3527 65.1577 28.5703 65.1736 28.7227C65.1845 28.8993 65.2077 29.0749 65.2429 29.2482C65.2663 29.4105 65.3241 29.5658 65.4124 29.7034C65.4935 29.8152 65.5985 29.9071 65.7195 29.9722C65.8749 30.0566 66.0467 30.1059 66.2228 30.1166V30.9188H58.7812V30.1166C58.9819 30.1217 59.1809 30.0782 59.3615 29.9896C59.5422 29.9009 59.6992 29.7698 59.8195 29.6072C60.0338 29.1861 60.1308 28.714 60.0999 28.2414V20.3968C60.1308 19.9242 60.0338 19.452 59.8195 19.031C59.7004 18.8671 59.5436 18.7351 59.3626 18.6463C59.1817 18.5575 58.9822 18.5147 58.7812 18.5216V17.8096L64.3661 16.506H65.4351V18.2107C65.8537 17.6899 66.3793 17.2677 66.9754 16.9733C67.5715 16.6789 68.2238 16.5194 68.8869 16.506C69.6682 16.4172 70.4591 16.5062 71.202 16.7664C71.9449 17.0267 72.621 17.4516 73.1809 18.0102C74.2017 19.1715 74.7349 20.6899 74.667 22.2428V28.2364H74.6719Z" fill="#0E2339"/>
<path d="M89.5808 26.9138L89.9999 27.338C89.4419 28.3909 88.6223 29.2785 87.6221 29.9131C86.4756 30.6069 85.1556 30.9512 83.8206 30.9049C82.8541 30.9058 81.8946 30.7385 80.9841 30.4105C80.0813 30.0926 79.2423 29.613 78.5072 28.9946C77.7589 28.3513 77.1736 27.536 76.8001 26.617C76.3848 25.6106 76.2122 24.5185 76.2968 23.4312C76.3386 22.1458 76.694 20.8909 77.3312 19.7781C77.9265 18.7583 78.7939 17.929 79.8338 17.3855C80.9643 16.8102 82.2166 16.5231 83.4818 16.5492C84.3216 16.5385 85.1577 16.6634 85.9586 16.9193C86.6039 17.115 87.203 17.4419 87.7192 17.8799C88.149 18.2686 88.5333 18.706 88.8645 19.1835C89.1703 19.6128 89.4018 20.0916 89.5491 20.5994C89.6799 21.0697 89.7839 21.5019 89.8563 21.887C89.9215 22.1995 89.9586 22.5173 89.9672 22.8366V23.2066H81.6875C81.6901 23.7531 81.7468 24.298 81.8569 24.8331C81.9758 25.4136 82.1589 25.9787 82.4028 26.5177C82.6485 27.0797 83.0339 27.5675 83.5214 27.9337C84.0285 28.3157 84.6383 28.5329 85.2701 28.5564C86.1136 28.6224 86.9609 28.4921 87.747 28.1753C88.4454 27.9021 89.0728 27.4706 89.5808 26.9138ZM83.6809 17.7987C83.1201 17.7987 82.5049 18.4003 82.1631 19.5265C81.8592 20.4883 81.6924 21.4891 81.6677 22.4987H85.283C85.283 21.9692 85.2602 21.4327 85.2136 20.8842C85.2022 20.3857 85.1639 19.8883 85.0987 19.3941C84.9996 18.7984 84.4874 17.7987 83.6878 17.7987H83.6809Z" fill="#0E2339"/>
<path d="M43.1551 8.56103C43.174 8.56504 43.1932 8.56772 43.2125 8.56905C43.2656 8.56982 43.3171 8.55089 43.3573 8.51582C43.3975 8.48075 43.4236 8.43199 43.4307 8.37875C43.4378 8.32552 43.4253 8.2715 43.3957 8.22693C43.3661 8.18235 43.3214 8.15031 43.27 8.13685C41.8004 7.85992 40.446 7.14517 39.3803 6.08419C40.4414 3.61337 39.3377 2.38398 39.2921 2.33384C39.2695 2.31076 39.2424 2.29262 39.2126 2.28055C39.1828 2.26847 39.1508 2.26272 39.1187 2.26365C39.0867 2.2642 39.0553 2.2726 39.0271 2.28815C38.999 2.30369 38.975 2.32591 38.9573 2.35289C38.6565 2.78573 38.457 3.28213 38.3737 3.80452C38.2905 4.32691 38.3257 4.86163 38.4767 5.36821C38.9721 6.79615 40.5484 7.87012 43.158 8.56203L43.1551 8.56103ZM39.0811 5.653C39.0049 5.51533 38.9386 5.37222 38.8829 5.22482C38.7645 4.84048 38.7255 4.43555 38.7684 4.0353C38.8114 3.63504 38.9354 3.24803 39.1326 2.8984C39.3206 3.33433 39.413 3.80632 39.4034 4.28186C39.3938 4.7574 39.2825 5.22518 39.0771 5.653H39.0811Z" fill="#3164AE"/>
<path d="M35.1062 8.56596H35.126C35.8523 8.58874 36.5743 8.4456 37.2384 8.14718C37.9026 7.84876 38.4917 7.40272 38.9622 6.8422C38.9786 6.81843 38.9902 6.79163 38.9963 6.76332C39.0025 6.73501 39.0031 6.70575 38.9981 6.67721C38.993 6.64867 38.9825 6.62141 38.9671 6.59698C38.9517 6.57256 38.9317 6.55145 38.9082 6.53485C38.8847 6.51826 38.8582 6.50651 38.8302 6.50028C38.8023 6.49405 38.7734 6.49345 38.7452 6.49853C38.717 6.5036 38.69 6.51425 38.6659 6.52986C38.6418 6.54547 38.6209 6.56574 38.6045 6.58951C38.1699 7.09441 37.6292 7.49444 37.0219 7.76027C36.4147 8.0261 35.7564 8.15098 35.0953 8.12574C35.0666 8.12701 35.0385 8.13426 35.0128 8.14703C34.987 8.1598 34.9642 8.17782 34.9456 8.19995C34.9267 8.22156 34.9122 8.24681 34.903 8.27419C34.8938 8.30158 34.8901 8.33054 34.8922 8.35939C34.8959 8.41466 34.9199 8.46653 34.9595 8.50477C34.9991 8.543 35.0514 8.56483 35.1062 8.56596Z" fill="#3164AE"/>
<path d="M43.7505 9.31312C43.2515 8.99036 42.6807 8.79905 42.09 8.75658C41.5519 8.71985 41.0127 8.80932 40.5143 9.01804C40.016 9.22675 39.5719 9.54907 39.2168 9.9599C38.6637 9.31858 37.9012 8.90003 37.0684 8.78073C36.2357 8.66143 35.3883 8.84933 34.6811 9.31011C34.6557 9.32602 34.6338 9.34705 34.6168 9.37189C34.5997 9.39673 34.5879 9.42485 34.5821 9.45451C34.5759 9.48422 34.5762 9.51492 34.5828 9.54452C34.5895 9.57412 34.6024 9.60191 34.6207 9.62598C35.135 10.3297 35.8885 10.8157 36.736 10.9903C37.5834 11.165 38.4647 11.0158 39.2099 10.5716C39.7472 10.8915 40.359 11.0608 40.9823 11.0619C41.4738 11.063 41.9598 10.9581 42.408 10.7541C42.9584 10.5048 43.4361 10.1163 43.7951 9.62598C43.8125 9.60145 43.8249 9.57364 43.8315 9.54419C43.8381 9.51474 43.8389 9.48425 43.8337 9.45451C43.8207 9.39426 43.7852 9.34144 43.7346 9.3071L43.7505 9.31312ZM43.3047 9.55779C42.8475 10.086 42.2272 10.442 41.5446 10.5678C40.862 10.6937 40.1575 10.5819 39.5457 10.2507C39.857 9.89086 40.2461 9.60857 40.6827 9.42577C41.1194 9.24298 41.5918 9.16462 42.0632 9.19679C42.4984 9.22529 42.9221 9.34988 43.3047 9.5618V9.55779ZM38.8918 10.2537C38.2801 10.5849 37.5755 10.6967 36.893 10.5709C36.2104 10.445 35.59 10.089 35.1329 9.5608C35.5175 9.35442 35.9402 9.23115 36.3743 9.1988C36.8459 9.16687 37.3185 9.24554 37.7551 9.42869C38.1918 9.61183 38.5808 9.89351 38.8918 10.2537Z" fill="#3164AE"/>
<path d="M27.4927 7.11929C27.4837 7.08087 27.4637 7.04598 27.4352 7.01901C27.2178 6.7832 26.9547 6.59518 26.6624 6.46662C26.3701 6.33807 26.0548 6.27173 25.7361 6.27173C25.4174 6.27173 25.1021 6.33807 24.8098 6.46662C24.5175 6.59518 24.2544 6.7832 24.037 7.01901C24.0079 7.04554 23.9878 7.08061 23.9795 7.11929V7.1975C23.9885 7.23593 24.0085 7.27081 24.037 7.29778C24.2547 7.53306 24.5179 7.72061 24.8102 7.84883C25.1024 7.97705 25.4176 8.0432 25.7361 8.0432C26.0546 8.0432 26.3698 7.97705 26.662 7.84883C26.9543 7.72061 27.2175 7.53306 27.4352 7.29778C27.4641 7.27108 27.4841 7.23609 27.4927 7.1975V7.11929ZM25.7361 7.6678C25.4911 7.67667 25.2469 7.63571 25.0178 7.54735C24.7888 7.45899 24.5795 7.32503 24.4025 7.15338C24.7711 6.82477 25.2454 6.64347 25.7366 6.64347C26.2278 6.64347 26.7021 6.82477 27.0706 7.15338C26.8933 7.32487 26.6839 7.45873 26.4547 7.54707C26.2255 7.63541 25.9812 7.67646 25.7361 7.6678Z" fill="#BA802A"/>
<path d="M25.2207 7.15324C25.2207 7.2524 25.2498 7.34934 25.3042 7.43179C25.3586 7.51424 25.436 7.57851 25.5265 7.61646C25.617 7.6544 25.7166 7.66433 25.8127 7.64499C25.9088 7.62564 25.9971 7.57789 26.0664 7.50777C26.1356 7.43765 26.1828 7.34831 26.2019 7.25105C26.221 7.1538 26.2112 7.05298 26.1737 6.96137C26.1363 6.86975 26.0728 6.79145 25.9913 6.73635C25.9098 6.68126 25.8141 6.65186 25.7161 6.65186C25.5852 6.65342 25.4601 6.70674 25.3675 6.80043C25.2749 6.89413 25.2222 7.02075 25.2207 7.15324Z" fill="#BA802A"/>
<path d="M29.8572 9.77148L28.9774 8.22722C28.9653 8.20628 28.9492 8.18796 28.9301 8.1733C28.911 8.15864 28.8893 8.14794 28.8661 8.14179C28.8429 8.13565 28.8188 8.13418 28.795 8.13748C28.7713 8.14079 28.7484 8.14879 28.7277 8.16104C28.707 8.17328 28.6889 8.18953 28.6744 8.20886C28.66 8.22819 28.6494 8.25021 28.6433 8.27368C28.6372 8.29714 28.6358 8.32159 28.6391 8.34562C28.6423 8.36965 28.6502 8.39279 28.6623 8.41373L29.3846 9.67822H27.0781L28.2313 7.65564L28.3621 7.88929C28.3872 7.93206 28.4271 7.96386 28.4741 7.97853C28.5091 7.98813 28.5462 7.98691 28.5806 7.97503C28.615 7.96314 28.6451 7.94113 28.667 7.91182C28.6889 7.88251 28.7017 7.84724 28.7037 7.81053C28.7057 7.77382 28.6968 7.73734 28.6782 7.70578L28.4394 7.28562L29.8582 4.79575C29.875 4.76764 29.884 4.73538 29.884 4.70249C29.884 4.6696 29.875 4.63734 29.8582 4.60923C29.8423 4.58105 29.8194 4.55759 29.7918 4.54122C29.7641 4.52484 29.7327 4.51614 29.7006 4.51598H26.8592L25.8981 2.83133C25.8797 2.80603 25.8557 2.78547 25.828 2.77131C25.8003 2.75714 25.7697 2.74976 25.7386 2.74976C25.7076 2.74976 25.677 2.75714 25.6493 2.77131C25.6215 2.78547 25.5975 2.80603 25.5791 2.83133L24.6181 4.51598H23.6957C23.6468 4.51598 23.5999 4.53563 23.5654 4.5706C23.5308 4.60558 23.5114 4.65302 23.5114 4.70249C23.5114 4.75196 23.5308 4.7994 23.5654 4.83438C23.5999 4.86935 23.6468 4.88901 23.6957 4.88901H24.407L23.2538 6.91159L22.1006 4.89001H22.8615C22.9103 4.89001 22.9572 4.87036 22.9918 4.83538C23.0263 4.8004 23.0457 4.75296 23.0457 4.70349C23.0457 4.65403 23.0263 4.60659 22.9918 4.57161C22.9572 4.53663 22.9103 4.51698 22.8615 4.51698H21.7815C21.749 4.51704 21.7169 4.52567 21.6886 4.54202C21.6603 4.55837 21.6367 4.58187 21.6201 4.61024C21.6032 4.63834 21.5942 4.6706 21.5942 4.70349C21.5942 4.73639 21.6032 4.76865 21.6201 4.79675L23.0388 7.28662L21.621 9.77549C21.6042 9.8036 21.5952 9.83586 21.5952 9.86875C21.5952 9.90164 21.6042 9.9339 21.621 9.96201C21.637 9.991 21.6604 10.015 21.6889 10.0315C21.7174 10.0479 21.7498 10.0561 21.7825 10.0553H24.623L25.5841 11.7399C25.6 11.7689 25.6235 11.7929 25.6519 11.8094C25.6804 11.8258 25.7128 11.834 25.7455 11.8332C25.7782 11.8335 25.8104 11.8251 25.8388 11.8087C25.8671 11.7923 25.8907 11.7686 25.907 11.7399L26.8681 10.0553H29.7086C29.7407 10.0549 29.7722 10.046 29.8 10.0295C29.8277 10.013 29.8507 9.9894 29.8666 9.96111C29.8825 9.93282 29.8909 9.90079 29.8908 9.86823C29.8907 9.83566 29.8822 9.80369 29.8661 9.77549L29.8572 9.77148ZM29.3767 4.89001L28.2234 6.91259L27.0702 4.89001H29.3767ZM25.7327 3.29461L26.4262 4.51598H25.0391L25.7327 3.29461ZM22.0887 9.67922L23.2419 7.65664L24.3951 9.67822L22.0887 9.67922ZM25.7327 11.2706L25.0391 10.0533H26.4262L25.7327 11.2706ZM26.6402 9.67922H24.8212L23.4529 7.28261L24.8212 4.89001H26.6392L28.0074 7.28662L26.6402 9.67922Z" fill="#BA802A"/>
<path d="M0.990753 37.4447H1.33256L2.31242 39.9657H1.89531L1.63375 39.2808H0.676684L0.419089 39.9657H0L0.990753 37.4447ZM1.56341 38.985L1.16711 37.903L0.746037 38.985H1.56341Z" fill="#0E2339"/>
<path d="M5.00447 38.0405C4.97538 38.0088 4.94203 37.9815 4.9054 37.9593C4.8558 37.9268 4.80301 37.8995 4.74787 37.878C4.68419 37.8503 4.61776 37.8294 4.54972 37.8159C4.47772 37.8005 4.40434 37.7928 4.33076 37.7928C4.20208 37.7823 4.07357 37.8151 3.96517 37.8861C3.92684 37.9164 3.89611 37.9555 3.87546 38.0001C3.8548 38.0447 3.84481 38.0935 3.84628 38.1428C3.84342 38.1961 3.85692 38.249 3.88492 38.2942C3.91308 38.338 3.95293 38.3727 3.99985 38.3945C4.06151 38.4262 4.12583 38.4524 4.19205 38.4727C4.26933 38.4957 4.35751 38.5198 4.46154 38.5469C4.58836 38.578 4.70031 38.6131 4.80335 38.6472C4.89545 38.6811 4.98222 38.7284 5.06095 38.7876C5.12967 38.8406 5.18502 38.9093 5.22244 38.9881C5.26324 39.0783 5.28291 39.1768 5.2799 39.2759C5.28343 39.3907 5.25821 39.5045 5.20659 39.6068C5.16119 39.6983 5.09286 39.7761 5.00844 39.8324C4.92062 39.8922 4.82299 39.9357 4.72013 39.9608C4.6042 39.9881 4.48545 40.0012 4.36643 39.9999C4.17984 40.0011 3.99425 39.9723 3.81656 39.9147C3.64397 39.8572 3.4817 39.7719 3.33604 39.662L3.5124 39.32C3.55179 39.3587 3.59571 39.3924 3.64318 39.4203C3.70565 39.4605 3.77205 39.4941 3.84133 39.5206C3.92146 39.5529 4.00353 39.58 4.08703 39.6018C4.17731 39.6254 4.27021 39.6372 4.36345 39.6369C4.48784 39.6442 4.61175 39.6161 4.72112 39.5557C4.7836 39.5127 4.82698 39.4466 4.84197 39.3717C4.85697 39.2967 4.8424 39.2188 4.80137 39.1546C4.76537 39.1071 4.71933 39.0684 4.66663 39.0413C4.59828 39.0049 4.52618 38.9763 4.45163 38.956C4.36709 38.9286 4.27099 38.9015 4.16332 38.8748C4.05337 38.8495 3.94541 38.816 3.84034 38.7745C3.75683 38.7433 3.67887 38.6986 3.60949 38.6422C3.5496 38.5933 3.50205 38.5308 3.47079 38.4596C3.44042 38.3781 3.42726 38.291 3.43215 38.2039C3.42967 38.091 3.45343 37.979 3.5015 37.877C3.5467 37.7828 3.61241 37.7002 3.69371 37.6354C3.77865 37.5688 3.87507 37.5189 3.97805 37.488C4.09449 37.455 4.2148 37.4381 4.33571 37.4378C4.4942 37.436 4.65168 37.4635 4.80038 37.5191C4.93453 37.5677 5.06127 37.6352 5.17686 37.7196L5.00051 38.0465L5.00447 38.0405Z" fill="#0E2339"/>
<path d="M8.42936 37.7987H7.60308V39.9657H7.20678V37.7987H6.37653V37.4487H8.43333V37.7987H8.42936Z" fill="#0E2339"/>
<path d="M9.70926 39.9658V37.4448H10.7931C10.9008 37.4441 11.0071 37.4681 11.1042 37.515C11.1969 37.5592 11.2793 37.6228 11.346 37.7015C11.4134 37.779 11.468 37.8671 11.5075 37.9623C11.5455 38.0579 11.5651 38.16 11.5649 38.2631C11.566 38.4276 11.5191 38.5887 11.4302 38.7264C11.3895 38.7923 11.3375 38.8504 11.2766 38.8978C11.2171 38.9453 11.1501 38.9823 11.0785 39.0072L11.663 39.9638H11.2172L10.6792 39.0884H10.1026V39.9638H9.70628L9.70926 39.9658ZM10.1056 38.7364H10.7931C10.8469 38.7377 10.9 38.7241 10.9467 38.6973C10.9929 38.6728 11.0334 38.6386 11.0656 38.597C11.1003 38.5518 11.1265 38.5005 11.1429 38.4456C11.1617 38.3867 11.1707 38.325 11.1696 38.2631C11.1703 38.2018 11.1585 38.1411 11.1349 38.0846C11.1148 38.0304 11.0849 37.9804 11.0468 37.9372C11.0126 37.8945 10.9692 37.8602 10.92 37.8369C10.8738 37.8122 10.8226 37.7988 10.7704 37.7978H10.1056V38.7364Z" fill="#0E2339"/>
<path d="M14.0111 39.9858C13.8433 39.9885 13.6774 39.951 13.5266 39.8765C13.3836 39.8067 13.2556 39.7089 13.1501 39.5887C13.0451 39.4691 12.9631 39.3307 12.9084 39.1806C12.8523 39.0303 12.8238 38.871 12.8242 38.7103C12.8242 38.5451 12.8555 38.3814 12.9163 38.228C12.9759 38.0785 13.0604 37.9405 13.166 37.8199C13.2731 37.7009 13.4024 37.6044 13.5464 37.5361C13.6971 37.4665 13.8613 37.4322 14.0269 37.4358C14.195 37.4345 14.361 37.4733 14.5114 37.5491C14.6546 37.6204 14.7826 37.7196 14.8879 37.8409C14.9915 37.9615 15.0734 38.0997 15.1296 38.249C15.1861 38.3982 15.2147 38.5566 15.2139 38.7163C15.214 38.8812 15.1841 39.0447 15.1257 39.1987C15.068 39.347 14.9833 39.4831 14.876 39.5998C14.768 39.7167 14.6388 39.8117 14.4956 39.8795C14.3462 39.9487 14.1833 39.983 14.019 39.9798L14.0111 39.9858ZM13.2185 38.7093C13.2182 38.8258 13.2377 38.9414 13.2759 39.0513C13.3118 39.1589 13.3665 39.2591 13.4374 39.3471C13.5064 39.4304 13.5913 39.4986 13.6871 39.5476C13.7897 39.6 13.9031 39.6268 14.018 39.6258C14.1332 39.6281 14.247 39.6008 14.3489 39.5466C14.444 39.4939 14.5276 39.4223 14.5946 39.336C14.6636 39.248 14.7157 39.1477 14.7482 39.0402C14.7831 38.9321 14.8012 38.8191 14.8017 38.7053C14.8023 38.5875 14.7829 38.4705 14.7442 38.3594C14.7074 38.2534 14.6528 38.1547 14.5827 38.0675C14.5139 37.9842 14.429 37.9159 14.3331 37.867C14.2333 37.8148 14.1224 37.788 14.0101 37.7888C13.8925 37.7864 13.7762 37.8144 13.6722 37.87C13.5762 37.9212 13.4912 37.9914 13.4226 38.0766C13.3538 38.1639 13.3005 38.2626 13.265 38.3684C13.2301 38.4765 13.2121 38.5895 13.2115 38.7033L13.2185 38.7093Z" fill="#0E2339"/>
<path d="M16.7833 39.9658V37.4448H17.1796V39.6118H18.5171V39.9618H16.7833V39.9658Z" fill="#0E2339"/>
<path d="M20.6919 39.9858C20.5242 39.9885 20.3582 39.951 20.2074 39.8765C20.0644 39.8067 19.9364 39.7089 19.8309 39.5887C19.7259 39.4691 19.644 39.3307 19.5892 39.1806C19.5332 39.0303 19.5046 38.871 19.505 38.7103C19.5051 38.5451 19.5363 38.3814 19.5971 38.228C19.6568 38.0785 19.7412 37.9405 19.8468 37.8199C19.9539 37.7009 20.0832 37.6044 20.2272 37.5361C20.3779 37.4665 20.5422 37.4322 20.7078 37.4358C20.8758 37.4345 21.0418 37.4733 21.1922 37.5491C21.3354 37.6204 21.4634 37.7196 21.5687 37.8409C21.6724 37.9615 21.7542 38.0997 21.8105 38.249C21.8669 38.3982 21.8955 38.5566 21.8947 38.7163C21.8948 38.8812 21.8649 39.0447 21.8065 39.1987C21.7489 39.347 21.6642 39.4831 21.5568 39.5998C21.4487 39.7167 21.3196 39.8116 21.1764 39.8795C21.027 39.9487 20.8641 39.983 20.6998 39.9798L20.6919 39.9858ZM19.8993 38.7093C19.899 38.8258 19.9185 38.9414 19.9568 39.0513C19.9927 39.1589 20.0474 39.2591 20.1183 39.3471C20.1871 39.4305 20.2721 39.4987 20.3679 39.5476C20.4705 39.6 20.584 39.6268 20.6988 39.6258C20.8155 39.6281 20.9308 39.6002 21.0337 39.5446C21.1288 39.4919 21.2124 39.4203 21.2794 39.334C21.3484 39.246 21.4004 39.1457 21.433 39.0382C21.4679 38.9301 21.486 38.8171 21.4865 38.7033C21.4871 38.5855 21.4676 38.4685 21.429 38.3573C21.3922 38.2514 21.3376 38.1527 21.2675 38.0655C21.1987 37.9821 21.1137 37.9139 21.0179 37.865C20.918 37.8128 20.8072 37.786 20.6949 37.7868C20.5773 37.7844 20.461 37.8124 20.357 37.868C20.2609 37.9192 20.176 37.9894 20.1074 38.0746C20.0386 38.1619 19.9853 38.2606 19.9498 38.3664C19.9149 38.4745 19.8969 38.5875 19.8963 38.7013L19.8993 38.7093Z" fill="#0E2339"/>
<path d="M25.0373 39.6549C24.9459 39.7584 24.834 39.8413 24.7089 39.8983C24.5838 39.9553 24.4483 39.9851 24.3111 39.9858C24.1507 39.9881 23.9919 39.9538 23.8464 39.8855C23.7046 39.8173 23.5779 39.7208 23.4739 39.6017C23.257 39.3524 23.1379 39.0314 23.139 38.6992C23.1389 38.533 23.1688 38.3682 23.2272 38.2129C23.2835 38.0648 23.3668 37.9287 23.4729 37.8118C23.579 37.6954 23.707 37.6016 23.8494 37.536C23.9981 37.469 24.1592 37.4348 24.322 37.4358C24.5319 37.4283 24.7396 37.4808 24.9214 37.5872C25.0789 37.6824 25.2059 37.8217 25.287 37.9883L24.9898 38.2099C24.9294 38.0808 24.8316 37.9734 24.7094 37.902C24.5887 37.8328 24.4517 37.7982 24.3131 37.8018C24.202 37.8013 24.0926 37.8281 23.994 37.88C23.8994 37.929 23.8157 37.9973 23.7483 38.0805C23.6795 38.1678 23.6262 38.2666 23.5908 38.3723C23.5535 38.4837 23.5354 38.6007 23.5373 38.7183C23.5358 38.8404 23.5566 38.9618 23.5987 39.0763C23.6719 39.2889 23.8235 39.4646 24.0218 39.5666C24.1214 39.6149 24.2304 39.6403 24.3408 39.6408C24.4666 39.6406 24.5906 39.61 24.7024 39.5516C24.831 39.4829 24.9437 39.3876 25.0333 39.2718V39.0031H24.5102V38.7073H25.3633V39.9838H25.0324V39.6729L25.0373 39.6549Z" fill="#0E2339"/>
<path d="M26.8824 37.4448L27.5699 38.7093L28.2635 37.4448H28.6944L27.7641 39.0633V39.9658H27.3678V39.0553L26.4514 37.4448H26.8824Z" fill="#0E2339"/>
<path d="M29.6401 39.9666V39.5114H29.9592V39.9666H29.6401Z" fill="#0E2339"/>
<path d="M33.5253 39.9658V38.1528L32.7833 39.5266H32.5643L31.8222 38.1528V39.9658H31.4259V37.4448H31.845L32.6673 38.9851L33.4897 37.4448H33.9088V39.9658H33.5125H33.5253Z" fill="#0E2339"/>
<path d="M37.1869 39.6158V39.9658H35.4828V37.4448H37.1591V37.7958H35.8712V38.5118H36.9887V38.8427H35.8751V39.6128H37.1869V39.6158Z" fill="#0E2339"/>
<path d="M38.5857 39.9658V37.4448H39.4694C39.6501 37.4412 39.8295 37.4754 39.9965 37.5451C40.1404 37.6071 40.2699 37.6986 40.377 37.8139C40.4796 37.9306 40.5581 38.067 40.6078 38.215C40.6593 38.3718 40.6854 38.536 40.6851 38.7013C40.6881 38.8788 40.6596 39.0555 40.6009 39.2227C40.5497 39.3712 40.4672 39.5066 40.3591 39.6196C40.2509 39.7325 40.1198 39.8202 39.9747 39.8766C39.8169 39.9387 39.6486 39.969 39.4793 39.9658H38.5956H38.5857ZM40.2848 38.7013C40.2855 38.5773 40.2674 38.4538 40.2313 38.3353C40.2001 38.2292 40.1448 38.1321 40.0698 38.0515C39.9972 37.9724 39.9096 37.909 39.8122 37.865C39.7044 37.8182 39.5877 37.7956 39.4704 37.7988H38.975V39.6158H39.4704C39.5906 39.6178 39.7098 39.5939 39.8202 39.5456C39.9192 39.5027 40.0073 39.4375 40.0778 39.3551C40.1472 39.2698 40.2006 39.1722 40.2353 39.0673C40.2711 38.9501 40.2891 38.828 40.2888 38.7053L40.2848 38.7013Z" fill="#0E2339"/>
<path d="M42.0785 39.9658V37.4448H42.4748V39.9658H42.0785Z" fill="#0E2339"/>
<path d="M45.84 37.7987H45.0137V39.9657H44.6174V37.7987H43.7871V37.4487H45.8439V37.7987H45.84Z" fill="#0E2339"/>
<path d="M47.6481 37.4448H47.9899L48.9698 39.9658H48.5547L48.2931 39.2809H47.3321L47.0745 39.9658H46.6554L47.6461 37.4448H47.6481ZM48.2208 38.9851L47.8245 37.9031L47.4093 38.9851H48.2208Z" fill="#0E2339"/>
<path d="M51.8512 37.7987H51.025V39.9657H50.6286V37.7987H49.7984V37.4487H51.8592V37.7987H51.8512Z" fill="#0E2339"/>
<path d="M53.163 39.9658V37.4448H53.5593V39.9658H53.163Z" fill="#0E2339"/>
<path d="M56.1399 39.9858C55.9721 39.9885 55.8061 39.951 55.6554 39.8765C55.5124 39.8067 55.3844 39.7089 55.2789 39.5887C55.1739 39.4691 55.0919 39.3307 55.0372 39.1806C54.9811 39.0303 54.9526 38.871 54.9529 38.7103C54.953 38.5451 54.9843 38.3814 55.0451 38.228C55.1047 38.0785 55.1891 37.9405 55.2947 37.8199C55.4019 37.7009 55.5312 37.6044 55.6752 37.5361C55.8259 37.4665 55.9901 37.4322 56.1557 37.4358C56.3238 37.4345 56.4897 37.4733 56.6402 37.5491C56.7834 37.6204 56.9113 37.7196 57.0167 37.8409C57.1203 37.9615 57.2022 38.0997 57.2584 38.249C57.3149 38.3982 57.3434 38.5566 57.3426 38.7163C57.3427 38.8812 57.3128 39.0447 57.2545 39.1987C57.1968 39.347 57.1121 39.4831 57.0048 39.5998C56.8967 39.7167 56.7676 39.8116 56.6243 39.8795C56.4749 39.9487 56.3121 39.983 56.1478 39.9798L56.1399 39.9858ZM55.3473 38.7093C55.347 38.8258 55.3665 38.9414 55.4047 39.0513C55.4406 39.1589 55.4953 39.2591 55.5662 39.3471C55.635 39.4305 55.72 39.4987 55.8159 39.5476C55.9185 39.6 56.0319 39.6268 56.1468 39.6258C56.2634 39.6281 56.3787 39.6002 56.4817 39.5446C56.5768 39.4919 56.6603 39.4203 56.7274 39.334C56.7964 39.2461 56.8485 39.1457 56.8809 39.0382C56.9159 38.9301 56.9339 38.8171 56.9345 38.7033C56.935 38.5855 56.9156 38.4685 56.877 38.3573C56.8402 38.2514 56.7855 38.1527 56.7155 38.0655C56.6467 37.9821 56.5617 37.9139 56.4658 37.865C56.366 37.8128 56.2552 37.786 56.1428 37.7868C56.0252 37.7844 55.909 37.8124 55.805 37.868C55.7089 37.9192 55.624 37.9894 55.5553 38.0746C55.4865 38.1619 55.4332 38.2606 55.3978 38.3664C55.3629 38.4745 55.3448 38.5875 55.3443 38.7013L55.3473 38.7093Z" fill="#0E2339"/>
<path d="M59.1289 38.1919V39.9658H58.7326V37.4448H59.0397L60.4615 39.2618V37.4488H60.8578V39.9658H60.5308L59.12 38.1919H59.1289Z" fill="#0E2339"/>
<path d="M62.3389 39.9666V39.5114H62.6579V39.9666H62.3389Z" fill="#0E2339"/>
<path d="M64.8697 37.4448H65.2115L66.1914 39.9658H65.7762L65.5147 39.2809H64.5537L64.2961 39.9658H63.877L64.8677 37.4448H64.8697ZM65.4424 38.9851L65.0461 37.9031L64.6309 38.9851H65.4424Z" fill="#0E2339"/>
<path d="M67.381 37.4448L68.0685 38.7093L68.7621 37.4448H69.1931L68.2627 39.0633V39.9658H67.8664V39.0553L66.944 37.4448H67.381Z" fill="#0E2339"/>
<path d="M71.5363 39.6277C71.6502 39.631 71.7629 39.6041 71.8632 39.5495C71.9495 39.5006 72.0213 39.4293 72.0713 39.343C72.1252 39.2546 72.1628 39.1571 72.1823 39.0552C72.2054 38.9464 72.2171 38.8355 72.2169 38.7242V37.4487H72.6132V38.7252C72.6149 38.8894 72.5942 39.0531 72.5518 39.2116C72.5144 39.356 72.4505 39.4921 72.3636 39.6127C72.2756 39.7299 72.1606 39.8235 72.0287 39.8855C71.872 39.9528 71.7035 39.9875 71.5333 39.9875C71.3631 39.9875 71.1946 39.9528 71.0379 39.8855C70.9068 39.8208 70.7933 39.7247 70.707 39.6057C70.6207 39.4857 70.5594 39.3492 70.5267 39.2046C70.488 39.0509 70.4687 38.8929 70.4692 38.7343V37.4487H70.8656V38.7252C70.8651 38.8378 70.8767 38.9501 70.9002 39.0602C70.9217 39.1617 70.9595 39.2589 71.0122 39.348C71.0639 39.4325 71.1367 39.5016 71.2232 39.5485C71.3193 39.6013 71.427 39.6285 71.5363 39.6277Z" fill="#0E2339"/>
<path d="M74.3056 39.9658V37.4448H75.3895C75.4971 37.4441 75.6035 37.4681 75.7006 37.515C75.7933 37.5592 75.8756 37.6228 75.9423 37.7015C76.0098 37.779 76.0643 37.8671 76.1038 37.9623C76.1419 38.0579 76.1614 38.16 76.1613 38.2631C76.1624 38.4276 76.1155 38.5887 76.0265 38.7264C75.9858 38.7923 75.9338 38.8504 75.8729 38.8978C75.8135 38.9453 75.7465 38.9823 75.6748 39.0072L76.2593 39.9638H75.8135L75.2755 39.0884H74.6989V39.9638H74.3026L74.3056 39.9658ZM74.7019 38.7364H75.3895C75.4432 38.7377 75.4963 38.7241 75.543 38.6973C75.5892 38.6728 75.6297 38.6386 75.6619 38.597C75.6967 38.5518 75.7229 38.5005 75.7392 38.4456C75.758 38.3867 75.767 38.325 75.7659 38.2631C75.7666 38.2018 75.7549 38.1411 75.7313 38.0846C75.7111 38.0304 75.6812 37.9804 75.6431 37.9372C75.6089 37.8945 75.5655 37.8602 75.5163 37.8369C75.4701 37.8122 75.4189 37.7988 75.3667 37.7978H74.7019V38.7364Z" fill="#0E2339"/>
<path d="M77.6689 37.4448L78.4189 39.4644L79.1649 37.4448H79.5801L78.5893 39.9658H78.2515L77.2458 37.4448H77.6649H77.6689Z" fill="#0E2339"/>
<path d="M82.5424 39.6158V39.9658H80.8354V37.4448H82.5117V37.7958H81.2238V38.5118H82.3344V38.8427H81.2238V39.6128H82.5385L82.5424 39.6158Z" fill="#0E2339"/>
<path d="M83.8962 39.9658V37.4448H84.7799C84.9602 37.4413 85.1393 37.4755 85.306 37.5451C85.4498 37.607 85.5794 37.6986 85.6865 37.8138C85.7891 37.9306 85.8676 38.067 85.9173 38.2149C85.9688 38.3718 85.9949 38.536 85.9946 38.7013C85.9976 38.8788 85.9691 39.0554 85.9104 39.2227C85.8592 39.3712 85.7766 39.5066 85.6685 39.6195C85.5604 39.7324 85.4292 39.8201 85.2842 39.8765C85.1264 39.9387 84.9581 39.969 84.7888 39.9658H83.9051H83.8962ZM85.5953 38.7013C85.596 38.5772 85.5779 38.4538 85.5418 38.3353C85.5106 38.2292 85.4553 38.132 85.3803 38.0515C85.3077 37.9724 85.2201 37.909 85.1227 37.865C85.0149 37.8182 84.8982 37.7956 84.7809 37.7988H84.2855V39.6158H84.7809C84.9011 39.6178 85.0203 39.5938 85.1306 39.5456C85.2297 39.5027 85.3178 39.4375 85.3882 39.3551C85.4577 39.2697 85.5111 39.1722 85.5458 39.0673C85.5816 38.9501 85.5996 38.828 85.5993 38.7053L85.5953 38.7013Z" fill="#0E2339"/>
<path d="M88.0005 37.4448H88.3423L89.3221 39.9658H88.907L88.6455 39.2809H87.6844L87.4268 39.9658H87.0078L87.9985 37.4448H88.0005ZM88.5741 38.9851L88.1778 37.9031L87.7627 38.9851H88.5741Z" fill="#0E2339"/>
</svg>
