<svg width="22" height="22" viewBox="0 0 22 22" fill="none" xmlns="http://www.w3.org/2000/svg">
<path d="M19.5752 8.24118L5.17521 1.04118C4.60669 0.757888 3.9646 0.656946 3.33658 0.752132C2.70856 0.847318 2.12522 1.134 1.66618 1.57303C1.20715 2.01207 0.894783 2.58207 0.771731 3.20522C0.648679 3.82838 0.720934 4.47433 0.978635 5.05489L3.44721 10.5783C3.50322 10.7119 3.53207 10.8552 3.53207 11C3.53207 11.1448 3.50322 11.2882 3.44721 11.4218L0.978635 16.9406C0.769024 17.4105 0.680227 17.9253 0.720323 18.4382C0.760419 18.9512 0.928134 19.4459 1.20821 19.8775C1.48829 20.3091 1.87183 20.6638 2.32396 20.9094C2.77608 21.1549 3.28242 21.2835 3.79692 21.2835C4.27853 21.2787 4.75297 21.1662 5.18549 20.9543L19.5855 13.7543C20.0963 13.4974 20.5256 13.1035 20.8256 12.6168C21.1256 12.1301 21.2845 11.5695 21.2845 10.9978C21.2845 10.426 21.1256 9.86545 20.8256 9.3787C20.5256 8.89195 20.0963 8.49813 19.5855 8.24118H19.5752ZM18.6609 11.9132L4.26092 19.1132C4.07183 19.204 3.8595 19.2348 3.6524 19.2015C3.44531 19.1682 3.25334 19.0724 3.10225 18.9269C2.95115 18.7814 2.84816 18.5931 2.80707 18.3875C2.76597 18.1818 2.78875 17.9684 2.87235 17.776L5.32949 12.2549C5.3614 12.1804 5.38888 12.1041 5.41178 12.0263H12.4975C12.7703 12.0263 13.0319 11.918 13.2248 11.7251C13.4177 11.5322 13.5261 11.2705 13.5261 10.9978C13.5261 10.725 13.4177 10.4633 13.2248 10.2704C13.0319 10.0775 12.7703 9.96918 12.4975 9.96918H5.41178C5.38888 9.89143 5.3614 9.81511 5.32949 9.74061L2.87121 4.21947C2.78798 4.02714 2.76549 3.81397 2.80675 3.60851C2.848 3.40304 2.95103 3.21508 3.10205 3.06979C3.25306 2.92449 3.44486 2.82878 3.65176 2.79549C3.85866 2.76219 4.0708 2.79288 4.25978 2.88347L18.6598 10.0835C18.8277 10.17 18.9685 10.3011 19.0668 10.4624C19.1651 10.6236 19.2171 10.8089 19.2171 10.9978C19.2171 11.1866 19.1651 11.3719 19.0668 11.5331C18.9685 11.6944 18.8277 11.8255 18.6598 11.912L18.6609 11.9132Z" fill="#5F3C08"/>
</svg>
