<svg width="300" height="293" viewBox="0 0 300 293" fill="none" xmlns="http://www.w3.org/2000/svg">
<path d="M49.4369 293C76.7402 293 98.8739 289.578 98.8739 285.357C98.8739 281.136 76.7402 277.714 49.4369 277.714C22.1337 277.714 0 281.136 0 285.357C0 289.578 22.1337 293 49.4369 293Z" fill="#F1F2F2"/>
<path d="M277.337 285.357C286.769 285.357 294.415 284.331 294.415 283.066C294.415 281.801 286.769 280.776 277.337 280.776C267.904 280.776 260.258 281.801 260.258 283.066C260.258 284.331 267.904 285.357 277.337 285.357Z" fill="#F1F2F2"/>
<path d="M176.741 278.862C215.333 278.862 246.618 277.668 246.618 276.195C246.618 274.723 215.333 273.529 176.741 273.529C138.149 273.529 106.864 274.723 106.864 276.195C106.864 277.668 138.149 278.862 176.741 278.862Z" fill="#F1F2F2"/>
<path d="M226.959 0H131.325C119.187 0 109.347 9.8406 109.347 21.9796V248.128C109.347 260.267 119.187 270.108 131.325 270.108H226.959C239.097 270.108 248.937 260.267 248.937 248.128V21.9796C248.937 9.8406 239.097 0 226.959 0Z" fill="#E8E8F1"/>
<path d="M131.188 4.23901H227.094C236.81 4.23901 244.697 12.1272 244.697 21.8435V248.264C244.697 257.98 236.81 265.869 227.094 265.869H131.188C121.473 265.869 113.585 257.98 113.585 248.264V21.8443C113.585 12.1281 121.473 4.23989 131.188 4.23989V4.23901Z" fill="white"/>
<path d="M276.114 254.488C276.114 253.533 282.994 235.186 294.651 230.981C290.064 250.474 281.273 257.826 277.643 259.31C276.497 257.546 276.114 254.487 276.114 254.487V254.488Z" fill="#6DC38D"/>
<path d="M281.464 254.658C281.464 254.658 287.388 243.764 300 245.293C292.738 249.88 281.464 256.694 281.464 256.694V254.658ZM275.725 258.175C275.725 258.175 269.801 243.65 275.725 236.388C278.591 240.784 278.209 251.678 275.725 258.175ZM274.987 259.003C274.987 259.003 254.349 246.199 242.309 246.963C251.291 241.229 269.445 246.963 274.987 259.003Z" fill="#6DC38D"/>
<path d="M273.646 257.254C273.646 257.254 264.091 252.049 261.607 238.863C268.869 239.245 275.175 252.522 273.646 257.254Z" fill="#6DC38D"/>
<path d="M274.57 256.085C274.57 256.085 269.219 245.956 271.322 240.031C274.379 244.403 275.525 252.262 274.57 256.085Z" fill="#6DC38D"/>
<path d="M293.763 254.714H258.576C258.394 254.714 258.247 254.861 258.247 255.042V262.964C258.247 263.146 258.394 263.293 258.576 263.293H293.763C293.945 263.293 294.092 263.146 294.092 262.964V255.042C294.092 254.861 293.945 254.714 293.763 254.714Z" fill="#FEC253"/>
<path d="M283.558 283.388H268.782C267.726 283.388 266.802 282.678 266.528 281.658L261.607 263.293H290.732L285.811 281.658C285.538 282.678 284.614 283.388 283.558 283.388Z" fill="#F9A145"/>
<path d="M263.605 270.75L290.732 263.293H261.607L263.605 270.75Z" fill="#F18421"/>
<path d="M200.517 8.26245H161.02C157.928 8.26245 155.421 10.7694 155.421 13.8618V13.8627C155.421 16.9552 157.928 19.4621 161.02 19.4621H200.517C203.609 19.4621 206.116 16.9552 206.116 13.8627V13.8618C206.116 10.7694 203.609 8.26245 200.517 8.26245Z" fill="#E8E8F1"/>
<path d="M156.354 46.8663C160.866 42.3539 160.866 35.0378 156.354 30.5254C151.842 26.0129 144.526 26.013 140.014 30.5254C135.502 35.0378 135.502 42.3539 140.014 46.8663C144.526 51.3788 151.842 51.3788 156.354 46.8663Z" fill="white"/>
<path d="M179.141 110.331C193.928 110.331 205.915 98.3423 205.915 83.5537C205.915 68.7651 193.928 56.7766 179.141 56.7766C164.354 56.7766 152.366 68.7651 152.366 83.5537C152.366 98.3423 164.354 110.331 179.141 110.331Z" fill="#E8E8F1"/>
<path d="M179.143 107.245C192.226 107.245 202.832 96.6383 202.832 83.5537C202.832 70.4692 192.226 59.8621 179.143 59.8621C166.059 59.8621 155.453 70.4692 155.453 83.5537C155.453 96.6383 166.059 107.245 179.143 107.245Z" fill="#D3D3D3"/>
<path d="M172.543 83.1652L177.376 87.9981L172.543 83.1652Z" fill="#D00018"/>
<path d="M172.543 83.1652L177.376 87.9981" stroke="white" stroke-width="4" stroke-linecap="round"/>
<path d="M177.377 87.9977L186.416 78.9092" stroke="white" stroke-width="4" stroke-linecap="round"/>
<path d="M135 146H123V158.001H135V146Z" fill="#E8E8F1"/>
<path d="M155 146H143V158.001H155V146Z" fill="#E8E8F1"/>
<path d="M175 146H163V158.001H175V146Z" fill="#E8E8F1"/>
<path d="M195 146H183V158.001H195V146Z" fill="#E8E8F1"/>
<path d="M215 146H203V158.001H215V146Z" fill="#E8E8F1"/>
<path d="M235 146H223V158.001H235V146Z" fill="#E8E8F1"/>
<path d="M205.315 182.014H152.511C149.422 182.014 146.917 184.518 146.917 187.608V194.165C146.917 197.254 149.422 199.759 152.511 199.759H205.315C208.404 199.759 210.909 197.254 210.909 194.165V187.608C210.909 184.518 208.404 182.014 205.315 182.014Z" fill="#0E2339"/>
<path d="M157.106 129.047C156.563 128.744 156.131 128.32 155.811 127.777C155.491 127.233 155.331 126.622 155.331 125.943C155.331 125.264 155.491 124.654 155.811 124.113C156.13 123.573 156.562 123.151 157.106 122.847C157.65 122.544 158.249 122.393 158.901 122.393C159.554 122.393 160.152 122.544 160.696 122.847C161.24 123.151 161.668 123.572 161.981 124.113C162.294 124.654 162.451 125.264 162.451 125.943C162.451 126.622 162.293 127.233 161.976 127.777C161.659 128.32 161.231 128.744 160.691 129.047C160.15 129.351 159.554 129.502 158.901 129.502C158.249 129.502 157.65 129.35 157.106 129.047ZM160.231 127.406C160.563 127.037 160.73 126.549 160.73 125.943C160.73 125.336 160.563 124.84 160.231 124.474C159.898 124.109 159.454 123.926 158.901 123.926C158.348 123.926 157.894 124.107 157.561 124.469C157.228 124.832 157.062 125.323 157.062 125.943C157.062 126.562 157.229 127.046 157.561 127.411C157.893 127.777 158.34 127.96 158.901 127.96C159.462 127.96 159.898 127.776 160.231 127.406ZM168.384 122.491V123.846H166.544V129.433H164.853V123.846H163.014V122.491H168.384ZM174.248 125.828C174.063 126.162 173.78 126.431 173.397 126.635C173.015 126.839 172.54 126.941 171.973 126.941H170.925V129.433H169.234V122.491H171.973C172.527 122.491 172.995 122.587 173.377 122.778C173.759 122.969 174.046 123.233 174.237 123.57C174.428 123.905 174.524 124.291 174.524 124.727C174.524 125.129 174.432 125.496 174.248 125.829V125.828ZM172.566 125.369C172.724 125.217 172.804 125.003 172.804 124.726C172.804 124.448 172.724 124.234 172.566 124.083C172.408 123.931 172.168 123.855 171.845 123.855H170.925V125.596H171.845C172.168 125.596 172.408 125.52 172.566 125.368V125.369ZM177.658 124.118C177.955 123.58 178.369 123.162 178.899 122.862C179.429 122.562 180.032 122.412 180.703 122.412C181.527 122.412 182.233 122.629 182.819 123.064C183.405 123.5 183.798 124.093 183.996 124.844H182.137C181.998 124.555 181.802 124.334 181.549 124.182C181.295 124.03 181.006 123.954 180.683 123.954C180.162 123.954 179.74 124.136 179.417 124.498C179.094 124.861 178.933 125.345 178.933 125.952C178.933 126.558 179.094 127.042 179.417 127.405C179.74 127.768 180.162 127.949 180.683 127.949C181.006 127.949 181.295 127.873 181.549 127.721C181.803 127.569 181.999 127.348 182.137 127.059H183.996C183.798 127.81 183.406 128.402 182.819 128.833C182.232 129.265 181.527 129.481 180.703 129.481C180.031 129.481 179.429 129.331 178.899 129.031C178.369 128.73 177.955 128.313 177.658 127.779C177.362 127.245 177.213 126.636 177.213 125.95C177.213 125.264 177.362 124.653 177.658 124.116V124.118ZM186.524 129.047C185.98 128.744 185.548 128.32 185.228 127.777C184.908 127.233 184.748 126.622 184.748 125.943C184.748 125.264 184.908 124.654 185.228 124.113C185.547 123.573 185.979 123.151 186.524 122.847C187.067 122.544 187.666 122.393 188.319 122.393C188.971 122.393 189.57 122.544 190.113 122.847C190.657 123.151 191.085 123.572 191.398 124.113C191.712 124.654 191.868 125.264 191.868 125.943C191.868 126.622 191.71 127.233 191.393 127.777C191.077 128.32 190.648 128.744 190.108 129.047C189.567 129.351 188.971 129.502 188.319 129.502C187.666 129.502 187.067 129.35 186.524 129.047ZM189.648 127.406C189.981 127.037 190.147 126.549 190.147 125.943C190.147 125.336 189.981 124.84 189.648 124.474C189.315 124.109 188.872 123.926 188.319 123.926C187.765 123.926 187.312 124.107 186.978 124.469C186.645 124.832 186.479 125.323 186.479 125.943C186.479 126.562 186.646 127.046 186.978 127.411C187.311 127.777 187.758 127.96 188.319 127.96C188.88 127.96 189.316 127.776 189.648 127.406ZM197.326 122.926C197.873 123.216 198.297 123.623 198.597 124.147C198.897 124.672 199.047 125.276 199.047 125.962C199.047 126.648 198.897 127.245 198.597 127.772C198.297 128.299 197.872 128.708 197.321 128.997C196.771 129.288 196.133 129.433 195.408 129.433H192.807V122.491H195.408C196.14 122.491 196.778 122.636 197.326 122.927V122.926ZM196.792 127.444C197.148 127.095 197.326 126.601 197.326 125.961C197.326 125.322 197.148 124.824 196.792 124.468C196.436 124.112 195.938 123.934 195.299 123.934H194.499V127.969H195.299C195.939 127.969 196.436 127.794 196.792 127.444ZM201.687 123.845V125.249H203.951V126.554H201.687V128.077H204.248V129.432H199.996V122.49H204.248V123.845H201.687Z" fill="#0E2339"/>
<path d="M164.552 188.298L162.419 194.312H160.586L158.453 188.298H160.012L161.502 192.839L163.001 188.298H164.552H164.552ZM168.904 193.25H166.66L166.3 194.312H164.767L166.943 188.298H168.639L170.815 194.312H169.265L168.905 193.25H168.904ZM168.527 192.119L167.782 189.918L167.045 192.119H168.528H168.527ZM172.939 193.181H174.858V194.312H171.474V188.298H172.939V193.181ZM177.025 188.298V194.312H175.56V188.298H177.025ZM182.002 188.675C182.475 188.926 182.843 189.279 183.103 189.734C183.363 190.187 183.493 190.712 183.493 191.306C183.493 191.9 183.363 192.416 183.103 192.874C182.843 193.331 182.475 193.684 181.997 193.935C181.52 194.187 180.968 194.312 180.34 194.312H178.087V188.299H180.34C180.974 188.299 181.527 188.425 182.002 188.676V188.675ZM181.539 192.59C181.847 192.287 182.002 191.859 182.002 191.305C182.002 190.751 181.847 190.32 181.539 190.012C181.231 189.703 180.799 189.549 180.245 189.549H179.552V193.045H180.245C180.799 193.045 181.23 192.894 181.539 192.591V192.59ZM188.058 193.25H185.814L185.454 194.312H183.921L186.097 188.298H187.793L189.969 194.312H188.419L188.059 193.25H188.058ZM187.681 192.119L186.936 189.918L186.199 192.119H187.682H187.681ZM194.954 188.298V189.472H193.361V194.312H191.896V189.472H190.303V188.298H194.954ZM197.155 189.472V190.688H199.117V191.819H197.155V193.138H199.374V194.312H195.69V188.298H199.374V189.472H197.155Z" fill="white"/>
<rect x="210" y="99" width="84" height="28" rx="5" fill="#0E2339"/>
<path d="M224.521 126.228L228.467 131.545L231.307 126.228H224.521Z" fill="#0E2339"/>
<path d="M8.13417 252.333C10.4131 247.72 14.9284 244.625 20.0534 244.163C20.0534 244.163 36.7444 245.878 61.8664 246.697C86.9884 247.515 89.7604 245.561 89.7604 245.561C91.0927 248.3 92.2322 251.129 93.1693 254.027C94.1692 254.845 97.8276 257.879 99.4862 259.334C101.418 261.027 109.325 263.788 107.292 273.345C105.258 282.901 92.9756 285.708 78.0907 287.777C63.8994 289.743 39.3 288.754 27.4043 285.118C22.8594 284.243 19.0413 282.97 16.5189 281.197C7.12206 274.595 4.13373 260.221 8.13329 252.335L8.13417 252.333Z" fill="#414042"/>
<path d="M36.392 288.855C33.2222 288.855 28.0063 289.14 20.3484 288.423C13.2977 287.99 7.81225 282.125 7.84976 275.06C7.77037 272.208 13.0307 267.868 17.6323 270.072C22.2339 272.276 30.6989 280.196 37.8796 280.901" fill="#F2A397"/>
<path d="M37.8797 280.901C37.8797 280.901 73.5459 272.037 87.9754 261.321C102.406 250.606 111.29 241.902 122.403 239.516C133.515 237.129 142.014 243.334 141.969 251.572C141.923 259.81 136.288 265.299 122.108 272.821C107.928 280.344 86.5445 285.048 71.5008 287.4C56.4571 289.753 39.5619 288.855 36.3921 288.855" fill="#58595B"/>
<path d="M17.6097 270.038C21.0186 271.674 26.5293 276.436 32.0854 279.128C32.5827 279.977 32.6045 281.022 32.1421 281.889C31.1989 283.495 29.8466 284.82 28.222 285.73C28.222 285.73 30.494 288.344 36.3912 288.832C33.2101 288.742 28.0056 289.117 20.3476 288.401C13.2969 287.967 7.81148 282.102 7.849 275.038C7.74691 272.174 13.0072 267.834 17.6088 270.038H17.6097Z" fill="#273339" stroke="#273339" stroke-width="6.3" stroke-linecap="round" stroke-linejoin="round"/>
<path d="M128.835 287.435C129.971 286.833 131.108 286.185 132.119 285.605C135.062 283.798 139.277 281.06 139.482 276.514C139.629 273.389 137.21 270.15 135.733 268.435C138.789 269.105 141.334 271.707 141.334 273.662C141.554 280.732 136.212 286.743 129.166 287.354L128.836 287.434L128.835 287.435Z" fill="white" stroke="#273339" stroke-width="6.3" stroke-linecap="round" stroke-linejoin="round"/>
<path d="M113.167 288.253C118.518 288.236 123.864 287.952 129.187 287.4C136.234 286.789 141.576 280.778 141.356 273.708C141.356 270.855 135.982 266.663 131.448 268.992C126.915 271.322 118.609 279.481 111.439 280.424" fill="#F2A397"/>
<path d="M115.158 219.402C115.011 224.444 110.757 228.391 105.657 228.25C100.572 228.111 96.5661 223.921 96.7171 218.886C96.868 213.863 101.124 209.91 106.216 210.047C111.313 210.185 115.309 214.382 115.16 219.402H115.158Z" fill="#F7A08D"/>
<path d="M138.67 188.339L130.325 180.852C113.851 196.398 107.9 202.628 99.3101 212.557L112.634 225.226C118.025 220.434 131.834 203.323 138.67 188.341V188.339Z" fill="#F7A08D"/>
<path d="M88.3881 168.736C82.7055 161.723 65.5277 170.388 70.7915 179.74C77.0246 190.815 93.5577 217.819 98.4341 224.171L114.463 215.212C114.463 215.212 97.5163 179.997 88.3881 168.736Z" fill="#F7A08D"/>
<path d="M112.856 224.208C117.262 221.747 118.801 216.149 116.326 211.689C113.854 207.247 108.286 205.623 103.888 208.083C99.5057 210.533 97.9579 216.131 100.431 220.587C102.908 225.042 108.472 226.662 112.857 224.208H112.856Z" fill="#F7A08D"/>
<path d="M73.1788 165.523C79.6876 161.477 89.1622 164.642 93.2036 171.153L111.833 199.845C112.826 201.438 108.347 206.012 101.838 210.057C95.3264 214.103 89.2503 216.089 88.2556 214.497L69.6285 185.804C65.5819 179.29 66.6638 169.568 73.1761 165.523H73.177H73.1788Z" fill="#9ED7D7"/>
<path d="M84.7188 200.849C84.7839 200.849 84.7839 200.954 84.7188 200.954C84.6501 200.954 84.6501 200.849 84.7188 200.849Z" fill="#020202"/>
<path d="M90.0834 243.485C90.1017 249.753 81.2719 254.268 67.8389 254.432C52.8833 254.614 33.2013 249.784 33.58 242.75C33.9683 235.48 35.6644 240.105 35.7682 235.735C36.1216 220.932 30.2811 174.577 30.2811 174.577C30.2811 166.616 37.1538 160.75 61.9477 160.75C88.163 160.75 90.6548 168.86 90.6548 176.819C90.6548 176.819 89.7771 206.813 89.8835 227.68C89.9272 236.19 90.0694 238.773 90.0834 243.488V243.486V243.485Z" fill="#9ED7D7"/>
<path d="M30.3721 222.902C33.1964 227.076 32.0499 232.77 27.8261 235.634C23.618 238.492 17.9188 237.427 15.0989 233.253C12.292 229.087 13.435 223.389 17.6492 220.529C21.8713 217.664 27.5652 218.735 30.3721 222.9V222.902Z" fill="#F7A08D"/>
<path d="M61.8806 249.069L66.2929 238.761C46.2672 228.166 41.1726 226.984 26.2886 219.598L18.5844 236.29C24.8585 239.855 45.4994 247.423 61.8797 249.069H61.8815H61.8806Z" fill="#F7A08D"/>
<path d="M23.7942 173.264C26.8322 164.761 45.9811 167.512 43.9865 178.058C41.6264 190.545 34.5975 221.418 32.0132 229.002L13.9628 225.642C13.8703 219.105 17.7329 190.227 23.7951 173.265L23.7942 173.264Z" fill="#F7A08D"/>
<path d="M30.8919 231.517C28.167 235.762 22.487 236.952 18.19 234.208C13.9094 231.464 12.6312 225.806 15.3552 221.569C18.0713 217.347 23.7557 216.148 28.0501 218.893C32.3446 221.64 33.6158 227.296 30.8919 231.519V231.517Z" fill="#F7A08D"/>
<path d="M37.1756 165.353C29.7148 163.604 21.7532 169.633 20.0073 177.092L11.5353 210.239C11.1078 212.068 16.8087 214.967 24.2739 216.716C31.7347 218.464 38.1336 218.402 38.5585 216.576L47.0305 183.431C48.779 175.967 44.6425 167.101 37.1773 165.352H37.1756V165.353Z" fill="#9ED7D7"/>
<path d="M83.5676 239.979C82.9193 242.008 79.6727 241.136 77.8509 241.19C76.0588 241.241 70.7644 242.23 70.7644 242.23C69.7663 241.951 62.3107 239.818 63.1204 238.998C65.7973 236.286 69.9007 236.133 70.9197 236.145C74.5293 236.177 76.9575 236.831 78.9555 237.148C80.8689 237.447 84.3641 237.463 83.5684 239.979H83.5667L83.5676 239.979Z" fill="#F7A08D"/>
<path d="M75.6174 245.485L87.5419 248.509C88.6195 248.793 89.6735 248.349 89.9143 247.337C90.1621 246.33 89.2974 245.537 88.2129 245.255L73.5147 240.602C72.4302 240.317 74.5338 245.198 75.6174 245.486V245.485ZM69.1155 251.149C68.6042 252.056 67.3094 253.22 68.3015 253.734L80.4528 259.201C81.4536 259.714 83.0852 259.577 83.6 258.672C84.1104 257.767 83.6488 256.809 82.6577 256.299L71.692 250.737C70.6965 250.221 69.6329 250.245 69.1138 251.15H69.1155V251.149Z" fill="#F7A08D"/>
<path d="M72.8454 245.775C72.472 246.867 73.17 248.092 74.3941 248.519L87.897 252.939C89.1185 253.362 90.3129 253.059 90.682 251.97C91.0485 250.877 90.1315 249.921 88.9056 249.496L75.7299 244.575C74.4979 244.145 73.211 244.684 72.8463 245.774V245.776L72.8454 245.775Z" fill="#F7A08D"/>
<path d="M70.5805 248.396C70.1355 249.451 69.9401 250.989 71.1415 251.481L84.9803 256.196C86.1809 256.688 87.6013 256.61 88.0515 255.546C88.5043 254.489 87.6685 253.582 86.4749 253.091L73.5741 247.366C72.3761 246.874 71.0386 247.337 70.5814 248.395L70.5805 248.396Z" fill="#F7A08D"/>
<path d="M76.5065 241.829C72.6509 240.777 66.0033 235.364 62.4818 239.586C58.956 243.811 58.4151 250.392 68.6635 254.051C76.0702 256.547 76.5065 241.827 76.5065 241.827V241.829Z" fill="#F7A08D"/>
<path d="M69.3825 164.719C68.1523 168.268 64.3551 168.989 61.0283 168.847C57.3559 168.692 52.5257 167.693 51.3417 163.629C50.5277 160.827 51.2763 157.663 51.3793 154.805C51.4491 152.906 51.4473 151.002 51.3531 149.102C51.2973 147.936 51.2048 146.769 51.0748 145.61C50.9683 144.672 50.8444 143.736 50.7005 142.802C50.6027 142.175 50.498 141.548 50.382 140.926C50.3026 140.49 49.8184 139.308 50.3305 139.023C50.8043 138.761 51.7326 139.612 52.113 139.858C57.7093 143.456 63.5708 146.644 69.6364 149.385C69.8755 149.492 70.1241 149.61 70.2602 149.833C70.3885 150.044 70.3859 150.307 70.3789 150.557C70.3187 152.552 70.2559 154.55 70.1974 156.545C70.1765 157.321 70.1721 158.1 70.1582 158.875C70.1329 160.851 70.0421 162.821 69.3851 164.718L69.3834 164.72L69.3825 164.719Z" fill="#F7A08D"/>
<path d="M70.1573 158.876C64.869 157.24 59.8111 154.89 55.2209 151.816C53.9444 150.962 52.6304 150.061 51.3539 149.102C51.2981 147.937 51.2056 146.77 51.0756 145.61C50.9692 144.673 50.8453 143.737 50.7013 142.803C50.6036 142.176 50.4989 141.549 50.3828 140.927C50.3035 140.491 49.8192 139.308 50.3314 139.024C50.8051 138.762 52.3573 138.247 52.7377 138.492C58.334 142.089 63.5716 146.644 69.6373 149.385C69.8763 149.492 70.125 149.61 70.2611 149.833C70.3894 150.044 70.3867 150.307 70.3798 150.557C70.3196 152.552 70.2567 154.55 70.1983 156.545C70.1773 157.32 70.173 158.1 70.159 158.875L70.1573 158.877V158.876Z" fill="#D9897D"/>
<path d="M74.6419 136.72C75.4062 139.407 78.2052 140.963 80.8925 140.198C83.5799 139.433 85.1364 136.634 84.3703 133.947C83.606 131.26 80.807 129.704 78.1197 130.469C75.4324 131.233 73.8759 134.032 74.6419 136.72Z" fill="#F7A08D"/>
<path d="M79.8072 119.407C81.1046 125.03 83.285 137.947 77.0597 148.233C75.6532 150.557 73.3585 154.232 69.4933 154.823C65.5836 155.422 62.2358 152.534 60.1322 150.719C54.5438 145.898 52.9916 139.592 52.7369 138.49C51.2728 132.169 51.1725 119.354 60.0615 115.057C65.9475 112.21 73.8506 114.031 79.8072 119.407V119.407Z" fill="#F7A08D"/>
<path d="M75.8661 131.309C76.0511 132.064 76.8128 132.527 77.5693 132.341C78.324 132.157 78.7873 131.394 78.6006 130.638C78.4156 129.883 77.6539 129.42 76.8992 129.606C76.1445 129.79 75.6812 130.553 75.8679 131.309H75.8661ZM63.9678 131.35C64.1528 132.105 64.9145 132.568 65.6709 132.382C66.4256 132.198 66.8889 131.435 66.7022 130.679C66.5173 129.924 65.7556 129.461 64.9991 129.647C64.2444 129.831 63.7811 130.594 63.9678 131.35Z" fill="#141414"/>
<path d="M72.7974 132.631L75.2971 136.297L73.0749 137.623" stroke="#895250" stroke-miterlimit="10"/>
<path d="M74.3058 143.785L67.8127 144.254C67.8127 144.254 67.9095 146.264 71.2198 146.046C74.5301 145.829 74.305 143.785 74.305 143.785H74.3067H74.3058Z" fill="white"/>
<path d="M47.4304 136.521C47.4418 136.711 47.4671 136.901 47.5063 137.093C47.5264 137.196 47.5534 137.3 47.5822 137.404C47.8763 138.433 48.5289 139.261 49.3665 139.793C49.6963 140.003 50.0575 140.167 50.4362 140.278C50.8733 140.408 51.3349 140.467 51.8034 140.443C52.1219 140.43 52.4438 140.38 52.7649 140.288C54.9915 139.653 56.2828 137.332 55.6494 135.105C55.0151 132.878 52.6934 131.587 50.4667 132.221C49.8621 132.393 49.3255 132.69 48.8788 133.077C47.8972 133.923 47.3449 135.197 47.4304 136.52V136.521Z" fill="#F7A08D"/>
<path d="M82.7657 126.909C84.6668 126.469 85.8508 124.57 85.4102 122.669C84.9696 120.768 83.0712 119.584 81.17 120.025C79.2689 120.465 78.0849 122.364 78.5255 124.265C78.9661 126.166 80.8645 127.35 82.7657 126.909Z" fill="#11153B"/>
<path d="M77.0369 126.997C78.6868 126.997 80.0243 125.659 80.0243 124.009C80.0243 122.359 78.6868 121.022 77.0369 121.022C75.387 121.022 74.0494 122.359 74.0494 124.009C74.0494 125.659 75.387 126.997 77.0369 126.997Z" fill="#11153B"/>
<path d="M76.6845 122.21C78.3344 122.21 79.6719 120.873 79.6719 119.223C79.6719 117.573 78.3344 116.236 76.6845 116.236C75.0345 116.236 73.697 117.573 73.697 119.223C73.697 120.873 75.0345 122.21 76.6845 122.21Z" fill="#11153B"/>
<path d="M65.6664 124.491C67.3163 124.491 68.6539 123.153 68.6539 121.503C68.6539 119.853 67.3163 118.516 65.6664 118.516C64.0165 118.516 62.679 119.853 62.679 121.503C62.679 123.153 64.0165 124.491 65.6664 124.491Z" fill="#11153B"/>
<path d="M64.2373 121.279C65.8873 121.279 67.2248 119.941 67.2248 118.291C67.2248 116.641 65.8873 115.304 64.2373 115.304C62.5874 115.304 61.2499 116.641 61.2499 118.291C61.2499 119.941 62.5874 121.279 64.2373 121.279Z" fill="#11153B"/>
<path d="M58.4815 125.679C60.1314 125.679 61.4689 124.341 61.4689 122.692C61.4689 121.042 60.1314 119.704 58.4815 119.704C56.8315 119.704 55.494 121.042 55.494 122.692C55.494 124.341 56.8315 125.679 58.4815 125.679Z" fill="#11153B"/>
<path d="M56.1048 130.936C57.7547 130.936 59.0922 129.598 59.0922 127.948C59.0922 126.298 57.7547 124.961 56.1048 124.961C54.4548 124.961 53.1173 126.298 53.1173 127.948C53.1173 129.598 54.4548 130.936 56.1048 130.936Z" fill="#11153B"/>
<path d="M56.4903 134.405C58.1402 134.405 59.4777 133.067 59.4777 131.417C59.4777 129.768 58.1402 128.43 56.4903 128.43C54.8403 128.43 53.5028 129.768 53.5028 131.417C53.5028 133.067 54.8403 134.405 56.4903 134.405Z" fill="#11153B"/>
<path d="M53.5028 126.997C55.1528 126.997 56.4903 125.659 56.4903 124.009C56.4903 122.359 55.1528 121.022 53.5028 121.022C51.8529 121.022 50.5154 122.359 50.5154 124.009C50.5154 125.659 51.8529 126.997 53.5028 126.997Z" fill="#11153B"/>
<path d="M75.2746 119.224C76.9245 119.224 78.262 117.886 78.262 116.236C78.262 114.586 76.9245 113.249 75.2746 113.249C73.6246 113.249 72.2871 114.586 72.2871 116.236C72.2871 117.886 73.6246 119.224 75.2746 119.224Z" fill="#11153B"/>
<path d="M85.242 122.607C86.8491 122.233 87.8489 120.628 87.4753 119.021C87.1016 117.414 85.496 116.414 83.8889 116.787C82.2819 117.161 81.282 118.767 81.6557 120.374C82.0293 121.981 83.635 122.981 85.242 122.607Z" fill="#11153B"/>
<path d="M82.7642 120.886C83.4204 119.372 82.7253 117.613 81.2116 116.957C79.6978 116.3 77.9387 116.995 77.2824 118.509C76.6261 120.023 77.3212 121.782 78.835 122.439C80.3487 123.095 82.1079 122.4 82.7642 120.886Z" fill="#11153B"/>
<path d="M81.9248 118.471C83.5518 118.197 84.6484 116.656 84.3741 115.029C84.0998 113.402 82.5585 112.305 80.9316 112.579C79.3046 112.854 78.2081 114.395 78.4823 116.022C78.7566 117.649 80.2979 118.746 81.9248 118.471Z" fill="#11153B"/>
<path d="M77.5252 116.94C79.1523 116.666 80.2494 115.125 79.9757 113.498C79.702 111.871 78.1611 110.774 76.5341 111.048C74.907 111.322 73.8099 112.862 74.0836 114.49C74.3573 116.117 75.8982 117.214 77.5252 116.94Z" fill="#11153B"/>
<path d="M74.404 114.343C76.0064 113.95 76.9869 112.332 76.5939 110.73C76.2009 109.127 74.5833 108.147 72.9809 108.54C71.3785 108.933 70.398 110.551 70.791 112.153C71.184 113.755 72.8016 114.736 74.404 114.343Z" fill="#11153B"/>
<path d="M69.8587 112.794C71.4886 112.537 72.602 111.008 72.3456 109.378C72.0893 107.748 70.5602 106.635 68.9303 106.891C67.3004 107.148 66.187 108.677 66.4433 110.307C66.6997 111.937 68.2288 113.05 69.8587 112.794Z" fill="#11153B"/>
<path d="M65.6664 110.998C67.3163 110.998 68.6539 109.661 68.6539 108.011C68.6539 106.361 67.3163 105.023 65.6664 105.023C64.0165 105.023 62.679 106.361 62.679 108.011C62.679 109.661 64.0165 110.998 65.6664 110.998Z" fill="#11153B"/>
<path d="M60.6557 109.843C62.3057 109.843 63.6432 108.506 63.6432 106.856C63.6432 105.206 62.3057 103.868 60.6557 103.868C59.0058 103.868 57.6683 105.206 57.6683 106.856C57.6683 108.506 59.0058 109.843 60.6557 109.843Z" fill="#11153B"/>
<path d="M57.9965 109.254C59.6023 108.875 60.5968 107.266 60.2178 105.66C59.8388 104.055 58.2298 103.06 56.624 103.439C55.0182 103.818 54.0237 105.427 54.4027 107.033C54.7817 108.639 56.3907 109.633 57.9965 109.254Z" fill="#11153B"/>
<path d="M56.0647 113.205C57.6933 112.941 58.7992 111.406 58.5349 109.778C58.2706 108.149 56.736 107.043 55.1074 107.308C53.4788 107.572 52.3729 109.107 52.6372 110.735C52.9015 112.364 54.4361 113.47 56.0647 113.205Z" fill="#11153B"/>
<path d="M54.9351 115.568C55.5665 114.044 54.8426 112.296 53.3183 111.665C51.794 111.033 50.0465 111.757 49.4151 113.281C48.7838 114.806 49.5077 116.553 51.032 117.185C52.5563 117.816 54.3038 117.092 54.9351 115.568Z" fill="#11153B"/>
<path d="M52.1759 113.986C53.8259 113.986 55.1634 112.649 55.1634 110.999C55.1634 109.349 53.8259 108.011 52.1759 108.011C50.526 108.011 49.1885 109.349 49.1885 110.999C49.1885 112.649 50.526 113.986 52.1759 113.986Z" fill="#11153B"/>
<path d="M48.4501 119.224C50.1 119.224 51.4376 117.886 51.4376 116.236C51.4376 114.586 50.1 113.249 48.4501 113.249C46.8002 113.249 45.4626 114.586 45.4626 116.236C45.4626 117.886 46.8002 119.224 48.4501 119.224Z" fill="#11153B"/>
<path d="M45.9445 123.387C47.5944 123.387 48.9319 122.049 48.9319 120.399C48.9319 118.749 47.5944 117.412 45.9445 117.412C44.2946 117.412 42.957 118.749 42.957 120.399C42.957 122.049 44.2946 123.387 45.9445 123.387Z" fill="#11153B"/>
<path d="M47.484 126.105C48.1153 124.58 47.3914 122.833 45.8671 122.201C44.3428 121.57 42.5953 122.294 41.964 123.818C41.3326 125.342 42.0565 127.09 43.5808 127.721C45.1051 128.353 46.8526 127.629 47.484 126.105Z" fill="#11153B"/>
<path d="M45.1732 132.446C46.8232 132.446 48.1607 131.108 48.1607 129.458C48.1607 127.809 46.8232 126.471 45.1732 126.471C43.5233 126.471 42.1858 127.809 42.1858 129.458C42.1858 131.108 43.5233 132.446 45.1732 132.446Z" fill="#11153B"/>
<path d="M43.2152 134.406C43.2152 136.056 44.5519 137.393 46.2018 137.393C46.4199 137.393 46.6311 137.369 46.8361 137.324C47.0717 137.274 47.2968 137.195 47.5071 137.093C47.4678 136.901 47.4425 136.711 47.4311 136.521C47.3448 135.197 47.8971 133.924 48.8795 133.077C48.3918 132.092 47.3762 131.418 46.2027 131.418C44.5528 131.418 43.2161 132.754 43.2161 134.406H43.2152Z" fill="#11153B"/>
<path d="M46.6189 138.325C46.6189 139.36 47.2707 140.242 48.1868 140.582C48.4485 140.68 48.733 140.734 49.0288 140.734C49.5549 140.734 50.04 140.565 50.4361 140.278C50.0574 140.168 49.6971 140.004 49.3664 139.793C48.5288 139.261 47.8762 138.433 47.5821 137.404C47.5533 137.301 47.5263 137.197 47.5062 137.093C47.467 136.902 47.4417 136.712 47.4303 136.521C47.1808 136.744 46.9775 137.015 46.8353 137.323C46.6965 137.627 46.6189 137.966 46.6189 138.324V138.325Z" fill="#11153B"/>
<path d="M47.6467 142.102C47.6467 143.434 48.7269 144.511 50.0557 144.511C51.3846 144.511 52.4647 143.433 52.4647 142.102C52.4647 141.459 52.2117 140.875 51.8025 140.444C51.3331 140.467 50.8715 140.409 50.4353 140.279C50.0566 140.168 49.6963 140.004 49.3656 139.794C48.8962 139.932 48.4878 140.212 48.1868 140.582C47.8492 140.996 47.6459 141.527 47.6459 142.102H47.6467Z" fill="#11153B"/>
<path d="M74.9386 122.725C75.8793 121.784 75.8793 120.259 74.9386 119.318C73.9979 118.377 72.4727 118.377 71.5319 119.318C70.5912 120.259 70.5912 121.784 71.5319 122.725C72.4727 123.666 73.9979 123.666 74.9386 122.725Z" fill="#11153B"/>
<path d="M71.4907 122.624C72.3833 121.637 72.3072 120.114 71.3207 119.221C70.3343 118.329 68.8109 118.405 67.9183 119.391C67.0257 120.378 67.1018 121.901 68.0883 122.794C69.0748 123.687 70.5981 123.611 71.4907 122.624Z" fill="#11153B"/>
<path d="M61.7754 120.641C63.0703 120.335 63.8722 119.038 63.5666 117.743C63.2611 116.448 61.9636 115.646 60.6688 115.952C59.3739 116.257 58.5719 117.555 58.8775 118.85C59.1831 120.145 60.4805 120.947 61.7754 120.641Z" fill="#11153B"/>
<path d="M60.6555 108.011L69.3928 109.843L81.0084 116.236L83.5143 122.211L73.6977 121.974L67.7752 121.504L63.0855 118.613L60.303 118.902L58.4821 122.693L56.4911 128.989V131.419L52.5945 132.447C52.3074 132.334 51.2116 131.946 49.9578 132.405C48.3332 133 47.7809 134.528 47.7093 134.737C46.7147 133.207 45.7191 131.677 44.7245 130.146V122.694L49.1891 116.462L56.854 108.45L60.6564 108.012L60.6555 108.011Z" fill="#11153B"/>
<path d="M111.439 280.423C111.439 280.423 75.5685 272.469 60.8433 262.151C46.118 251.834 36.9829 243.357 25.882 241.266C14.7812 239.175 6.3842 245.607 6.63461 253.845C6.88502 262.083 12.668 267.413 27.0861 274.549C41.5051 281.685 62.9678 285.821 78.0682 287.776C93.1687 289.73 109.996 288.423 113.166 288.253" fill="#58595B"/>
<path d="M122.404 286.23C120.839 285.139 119.452 283.812 118.291 282.299C117.155 280.514 118.54 277.923 118.745 277.549C123.665 274.674 128.357 270.538 131.38 268.992C135.925 266.719 141.288 270.856 141.288 273.708C141.508 280.778 136.166 286.789 129.119 287.401C125.099 287.872 121.055 288.126 117.007 288.162C120.132 287.23 122.404 286.23 122.404 286.23H122.404Z" fill="#273339" stroke="#273339" stroke-width="6.3" stroke-linecap="round" stroke-linejoin="round"/>
<path d="M161.489 160.026C162.022 159.841 162.622 159.788 163.145 159.997C163.895 160.294 164.372 161.111 164.374 161.917C164.375 162.724 163.95 163.496 163.34 164.023C162.729 164.55 161.949 164.851 161.155 164.998C160.999 165.027 160.83 165.049 160.689 164.976C160.562 164.911 160.481 164.782 160.409 164.658C160.052 164.05 159.707 163.421 159.567 162.731C159.254 161.195 160.144 160.491 161.489 160.025V160.026Z" fill="#F7A08D"/>
<path d="M146.359 182.416C145.629 180.144 144.726 177.834 143.019 176.166C137.933 171.195 134.025 177.213 130.559 180.651C128.6 182.593 126.609 184.503 124.589 186.382L127.894 201.158L132.291 198.743C136.188 193.878 139.952 190.994 144.779 187.05C145.572 186.401 146.427 185.689 146.652 184.689C146.822 183.934 146.597 183.152 146.36 182.415L146.359 182.416Z" fill="#F7A08D"/>
<path d="M140.663 187.065C141.12 187.52 141.649 187.921 142.263 188.119C143.119 188.394 144.052 188.247 144.928 188.039C147.985 187.315 155.549 182.534 156.005 181.777C158.28 177.992 156.491 174.366 154.772 170.686C154.226 169.516 153.541 168.394 152.611 167.498C151.681 166.601 150.488 165.943 149.203 165.813C148.494 165.74 147.778 165.828 147.075 165.943C145.305 166.229 143.562 166.681 141.876 167.291C141.382 167.47 140.875 167.674 140.521 168.061C140.178 168.436 140.019 168.94 139.876 169.428C139.164 171.872 138.631 174.454 139.117 176.953C139.306 177.921 139.648 178.96 139.318 179.934C138.965 180.977 138.726 181.857 138.745 183.01C138.782 185.217 139.079 185.484 140.665 187.065H140.663Z" fill="#F7A08D"/>
<path d="M134.398 177.802C134.276 177.192 134.285 176.565 134.295 175.943C134.331 173.691 134.366 171.44 134.402 169.188C134.411 168.628 134.421 168.061 134.58 167.525C134.813 166.743 135.343 166.09 135.837 165.439C138.301 162.196 140.127 158.511 142.523 155.217C142.921 154.669 143.465 154.074 144.138 154.156C144.529 154.204 144.856 154.482 145.101 154.791C145.884 155.781 146.047 157.152 145.823 158.396C145.599 159.639 145.031 160.789 144.469 161.921C143.903 163.062 143.336 164.203 142.769 165.344C142.555 165.777 142.334 166.257 142.451 166.725C142.521 167.004 142.702 167.239 142.878 167.468C144.254 169.257 145.542 171.196 146.022 173.401C146.502 175.607 145.748 180.749 144.048 182.234C141.174 184.743 135.351 182.552 134.398 177.803V177.802Z" fill="#F7A08D"/>
<path d="M161.2 175.526C160.96 175.606 160.707 175.674 160.457 175.633C160.282 175.606 160.119 175.527 159.968 175.433C159.193 174.951 158.702 173.929 159.055 173.086C159.184 172.778 159.409 172.521 159.653 172.294C160.032 171.942 160.493 171.643 161.008 171.6C161.603 171.551 162.178 171.853 162.628 172.246C163.101 172.661 164.506 172.847 164.131 173.497C163.719 174.211 161.938 175.279 161.2 175.526ZM163.535 178.188C163.36 178.345 163.186 178.749 162.089 179.422C161.812 179.592 161.498 179.693 161.196 179.814C160.857 179.95 160.499 180.071 160.135 180.045C159.77 180.021 159.397 179.819 159.268 179.477C159.166 179.208 159.229 178.904 159.344 178.641C159.51 178.259 159.781 177.929 160.082 177.641C160.29 177.442 160.516 177.259 160.773 177.127C161.416 176.795 162.986 176.503 162.854 177.21C162.815 177.414 164.139 177.65 163.535 178.189V178.188ZM162.521 169.796C162.044 170.119 161.511 170.348 160.982 170.576C160.846 170.634 160.706 170.694 160.557 170.696C160.153 170.699 159.876 170.287 159.755 169.902C159.566 169.302 159.569 168.634 159.811 168.053C160.054 167.472 160.547 166.991 161.15 166.809C161.753 166.628 162.454 166.771 162.904 167.21C163.191 167.49 164.483 167.278 164.419 167.7C164.351 168.149 162.863 169.565 162.521 169.796Z" fill="#DD8C7F"/>
<path d="M143.988 181.608L145.396 153.285C145.452 152.146 146.378 151.245 147.518 151.219L159.376 150.951C160.618 150.923 161.631 151.939 161.598 153.182L160.847 181.573C160.816 182.738 159.873 183.671 158.708 183.69L146.193 183.891C144.937 183.911 143.925 182.865 143.987 181.609L143.988 181.608Z" fill="#E8E8F1"/>
<path d="M145.017 180.731L146.483 153.895C146.533 152.901 147.341 152.113 148.336 152.09L158.693 151.856C159.778 151.831 160.663 152.719 160.634 153.804L159.741 180.7C159.714 181.717 158.891 182.532 157.873 182.548L146.944 182.723C145.846 182.741 144.962 181.827 145.017 180.73V180.731Z" fill="white"/>
<path d="M160.395 177.448C160.214 177.212 160.09 176.938 159.994 176.656C159.864 176.274 159.785 175.851 159.92 175.471C160.073 175.044 160.481 174.745 160.918 174.624C161.356 174.503 161.821 174.536 162.268 174.607C162.855 174.701 163.471 174.879 163.86 175.329C164.286 175.823 164.345 176.564 164.128 177.179C163.839 177.996 163.306 178.701 162.425 178.503C161.675 178.333 160.882 178.086 160.395 177.448ZM160.363 172.052C160.404 173.019 161.118 173.963 162.074 174.119C162.399 174.172 162.734 174.136 163.056 174.068C163.461 173.982 163.879 173.826 164.13 173.497C164.401 173.143 164.426 172.658 164.374 172.214C164.291 171.51 164.027 170.808 163.523 170.311C162.024 168.83 160.284 170.225 160.362 172.052H160.363ZM160.712 165.631C160.449 166.162 160.385 166.808 160.633 167.346C160.835 167.781 161.215 168.105 161.603 168.387C161.88 168.587 162.171 168.777 162.499 168.874C162.827 168.97 163.197 168.966 163.491 168.792C163.647 168.701 163.772 168.569 163.892 168.434C164.255 168.021 164.579 167.545 164.661 167.001C164.802 166.046 164.145 165.127 163.327 164.614C162.211 163.914 161.252 164.538 160.712 165.631Z" fill="#F7A08D"/>
<path d="M152.94 164.152C154.612 164.152 155.968 162.797 155.968 161.125C155.968 159.453 154.612 158.097 152.94 158.097C151.268 158.097 149.913 159.453 149.913 161.125C149.913 162.797 151.268 164.152 152.94 164.152Z" fill="#E8E8F1"/>
<path d="M155.526 161.797C155.901 160.366 155.045 158.901 153.614 158.526C152.184 158.15 150.719 159.006 150.344 160.437C149.969 161.868 150.824 163.332 152.255 163.708C153.686 164.083 155.15 163.228 155.526 161.797Z" fill="#0E2339"/>
<path d="M152.377 162.686L151.204 161.634C151.107 161.547 151.099 161.399 151.186 161.302C151.273 161.205 151.421 161.197 151.518 161.283L152.365 162.043L154.303 160.176C154.397 160.086 154.546 160.089 154.637 160.182C154.727 160.276 154.724 160.425 154.63 160.516L152.377 162.686Z" fill="white"/>
<path d="M148.5 168H147V169.5H148.5V168Z" fill="#E8E8F1"/>
<path d="M150.5 168H149V169.5H150.5V168Z" fill="#E8E8F1"/>
<path d="M152.5 168H151V169.5H152.5V168Z" fill="#E8E8F1"/>
<path d="M154.5 168H153V169.5H154.5V168Z" fill="#E8E8F1"/>
<path d="M156.5 168H155V169.5H156.5V168Z" fill="#E8E8F1"/>
<path d="M158.5 168H157V169.5H158.5V168Z" fill="#E8E8F1"/>
<path d="M155.528 172.257H150.3C149.746 172.257 149.297 172.706 149.297 173.26C149.297 173.814 149.746 174.263 150.3 174.263H155.528C156.082 174.263 156.531 173.814 156.531 173.26C156.531 172.706 156.082 172.257 155.528 172.257Z" fill="#0E2339"/>
<path d="M150.449 166.269C150.388 166.235 150.339 166.187 150.303 166.125C150.267 166.064 150.249 165.994 150.249 165.917C150.249 165.84 150.267 165.771 150.303 165.71C150.338 165.649 150.387 165.601 150.449 165.567C150.51 165.533 150.578 165.516 150.653 165.516C150.727 165.516 150.794 165.533 150.856 165.567C150.917 165.601 150.966 165.649 151.002 165.71C151.037 165.771 151.055 165.84 151.055 165.917C151.055 165.994 151.037 166.063 151.001 166.125C150.965 166.186 150.916 166.234 150.855 166.269C150.794 166.303 150.727 166.32 150.653 166.32C150.578 166.32 150.511 166.303 150.449 166.269ZM150.803 166.083C150.84 166.041 150.859 165.986 150.859 165.917C150.859 165.848 150.84 165.792 150.803 165.751C150.765 165.71 150.715 165.689 150.653 165.689C150.591 165.689 150.539 165.71 150.501 165.75C150.463 165.791 150.444 165.847 150.444 165.917C150.444 165.987 150.463 166.042 150.501 166.083C150.538 166.124 150.589 166.145 150.653 166.145C150.716 166.145 150.765 166.124 150.803 166.082V166.083ZM151.724 165.527V165.681H151.516V166.312H151.325V165.681H151.118V165.527H151.725H151.724ZM152.387 165.905C152.366 165.942 152.334 165.973 152.291 165.996C152.248 166.018 152.194 166.031 152.13 166.031H152.011V166.312H151.82V165.527H152.13C152.193 165.527 152.245 165.538 152.289 165.559C152.332 165.581 152.364 165.611 152.385 165.648C152.407 165.687 152.418 165.73 152.418 165.779C152.418 165.825 152.407 165.866 152.386 165.904L152.387 165.905ZM152.197 165.853C152.214 165.835 152.224 165.812 152.224 165.78C152.224 165.749 152.215 165.724 152.197 165.708C152.179 165.69 152.152 165.682 152.115 165.682H152.011V165.88H152.115C152.152 165.88 152.179 165.871 152.197 165.854V165.853ZM152.773 165.711C152.806 165.65 152.853 165.603 152.913 165.569C152.973 165.535 153.041 165.518 153.117 165.518C153.211 165.518 153.29 165.543 153.356 165.593C153.423 165.641 153.467 165.709 153.489 165.794H153.279C153.263 165.761 153.241 165.736 153.212 165.719C153.184 165.702 153.151 165.694 153.115 165.694C153.056 165.694 153.008 165.714 152.972 165.755C152.935 165.796 152.917 165.851 152.917 165.919C152.917 165.987 152.935 166.042 152.972 166.083C153.008 166.124 153.056 166.144 153.115 166.144C153.151 166.144 153.184 166.135 153.212 166.119C153.241 166.101 153.263 166.077 153.279 166.044H153.489C153.466 166.128 153.423 166.195 153.356 166.244C153.29 166.293 153.211 166.318 153.117 166.318C153.041 166.318 152.973 166.301 152.913 166.267C152.853 166.233 152.807 166.186 152.773 166.126C152.739 166.065 152.722 165.996 152.722 165.919C152.722 165.841 152.739 165.772 152.773 165.711ZM153.774 166.269C153.713 166.235 153.664 166.187 153.628 166.125C153.592 166.064 153.574 165.994 153.574 165.917C153.574 165.84 153.592 165.771 153.628 165.71C153.664 165.649 153.712 165.601 153.774 165.567C153.835 165.533 153.904 165.516 153.978 165.516C154.052 165.516 154.119 165.533 154.181 165.567C154.242 165.601 154.291 165.649 154.327 165.71C154.362 165.771 154.38 165.84 154.38 165.917C154.38 165.994 154.362 166.063 154.326 166.125C154.29 166.186 154.241 166.234 154.18 166.269C154.119 166.303 154.052 166.32 153.978 166.32C153.904 166.32 153.836 166.303 153.774 166.269ZM154.128 166.083C154.165 166.041 154.184 165.986 154.184 165.917C154.184 165.848 154.165 165.792 154.128 165.751C154.09 165.71 154.04 165.689 153.978 165.689C153.916 165.689 153.863 165.71 153.826 165.75C153.788 165.791 153.769 165.847 153.769 165.917C153.769 165.987 153.788 166.042 153.826 166.083C153.863 166.124 153.914 166.145 153.978 166.145C154.041 166.145 154.09 166.124 154.128 166.082V166.083ZM154.996 165.577C155.058 165.61 155.106 165.655 155.14 165.715C155.174 165.774 155.19 165.842 155.19 165.92C155.19 165.997 155.174 166.065 155.14 166.124C155.106 166.183 155.058 166.229 154.996 166.263C154.934 166.296 154.862 166.311 154.78 166.311H154.485V165.526H154.78C154.862 165.526 154.935 165.543 154.997 165.575L154.996 165.577ZM154.936 166.088C154.976 166.049 154.996 165.993 154.996 165.921C154.996 165.848 154.976 165.792 154.936 165.752C154.896 165.712 154.839 165.692 154.767 165.692H154.677V166.148H154.767C154.84 166.148 154.896 166.128 154.936 166.089V166.088ZM155.489 165.681V165.839H155.744V165.987H155.489V166.159H155.779V166.312H155.298V165.527H155.779V165.681H155.489Z" fill="#0E2339"/>
<path d="M151.29 172.968L151.049 173.647H150.842L150.601 172.968H150.777L150.946 173.481L151.115 172.968H151.29ZM151.782 173.528H151.528L151.487 173.648H151.314L151.56 172.969H151.752L151.998 173.648H151.822L151.781 173.528H151.782ZM151.74 173.4L151.655 173.151L151.572 173.4H151.74ZM152.239 173.52H152.456V173.648H152.074V172.969H152.24V173.521L152.239 173.52ZM152.701 172.968V173.647H152.535V172.968H152.701ZM153.263 173.01C153.316 173.039 153.358 173.079 153.388 173.13C153.417 173.181 153.431 173.241 153.431 173.308C153.431 173.375 153.417 173.434 153.388 173.485C153.358 173.537 153.317 173.577 153.263 173.606C153.209 173.634 153.147 173.648 153.075 173.648H152.821V172.969H153.075C153.147 172.969 153.21 172.983 153.263 173.011V173.01ZM153.211 173.453C153.246 173.419 153.263 173.37 153.263 173.307C153.263 173.244 153.246 173.195 153.211 173.161C153.176 173.126 153.127 173.108 153.064 173.108H152.986V173.503H153.064C153.127 173.503 153.176 173.486 153.211 173.452V173.453ZM153.948 173.528H153.694L153.653 173.648H153.479L153.725 172.969H153.917L154.163 173.648H153.988L153.947 173.528H153.948ZM153.905 173.4L153.82 173.151L153.738 173.4H153.905ZM154.728 172.968V173.1H154.548V173.647H154.382V173.1H154.203V172.968H154.729H154.728ZM154.977 173.1V173.238H155.198V173.366H154.977V173.516H155.228V173.648H154.812V172.969H155.228V173.101H154.977V173.1Z" fill="white"/>
<path d="M222.64 112.728C221.637 112.195 221.136 111.357 221.136 110.216C221.136 109.64 221.285 109.117 221.584 108.648C221.883 108.168 222.336 107.789 222.944 107.512C223.552 107.224 224.299 107.08 225.184 107.08C226.069 107.08 226.811 107.224 227.408 107.512C228.016 107.789 228.469 108.168 228.768 108.648C229.067 109.117 229.216 109.64 229.216 110.216C229.216 110.792 229.077 111.293 228.8 111.72C228.533 112.147 228.171 112.483 227.712 112.728C228.288 113.005 228.731 113.389 229.04 113.88C229.349 114.36 229.504 114.925 229.504 115.576C229.504 116.333 229.312 116.989 228.928 117.544C228.544 118.088 228.021 118.504 227.36 118.792C226.709 119.08 225.984 119.224 225.184 119.224C224.384 119.224 223.653 119.08 222.992 118.792C222.341 118.504 221.824 118.088 221.44 117.544C221.056 116.989 220.864 116.333 220.864 115.576C220.864 114.915 221.019 114.344 221.328 113.864C221.637 113.373 222.075 112.995 222.64 112.728ZM226.56 110.632C226.56 110.195 226.432 109.859 226.176 109.624C225.931 109.379 225.6 109.256 225.184 109.256C224.768 109.256 224.432 109.379 224.176 109.624C223.931 109.869 223.808 110.211 223.808 110.648C223.808 111.064 223.936 111.395 224.192 111.64C224.448 111.875 224.779 111.992 225.184 111.992C225.589 111.992 225.92 111.869 226.176 111.624C226.432 111.379 226.56 111.048 226.56 110.632ZM225.184 113.912C224.683 113.912 224.277 114.051 223.968 114.328C223.659 114.595 223.504 114.968 223.504 115.448C223.504 115.896 223.653 116.264 223.952 116.552C224.261 116.84 224.672 116.984 225.184 116.984C225.696 116.984 226.096 116.84 226.384 116.552C226.683 116.264 226.832 115.896 226.832 115.448C226.832 114.979 226.677 114.605 226.368 114.328C226.069 114.051 225.675 113.912 225.184 113.912ZM235.319 115.576C235.479 116.419 235.97 116.84 236.791 116.84C237.356 116.84 237.756 116.589 237.991 116.088C238.226 115.587 238.343 114.771 238.343 113.64C238.108 113.971 237.788 114.227 237.383 114.408C236.978 114.589 236.524 114.68 236.023 114.68C235.34 114.68 234.732 114.541 234.199 114.264C233.666 113.976 233.244 113.555 232.935 113C232.636 112.435 232.487 111.752 232.487 110.952C232.487 110.163 232.647 109.475 232.967 108.888C233.298 108.301 233.762 107.848 234.359 107.528C234.967 107.208 235.682 107.048 236.503 107.048C238.082 107.048 239.186 107.539 239.815 108.52C240.444 109.501 240.759 110.947 240.759 112.856C240.759 114.243 240.631 115.389 240.375 116.296C240.13 117.192 239.708 117.875 239.111 118.344C238.524 118.813 237.719 119.048 236.695 119.048C235.884 119.048 235.191 118.888 234.615 118.568C234.05 118.248 233.612 117.827 233.303 117.304C233.004 116.781 232.834 116.205 232.791 115.576H235.319ZM236.647 112.52C237.095 112.52 237.452 112.387 237.719 112.12C237.986 111.843 238.119 111.469 238.119 111C238.119 110.488 237.98 110.093 237.703 109.816C237.426 109.539 237.052 109.4 236.583 109.4C236.114 109.4 235.74 109.544 235.463 109.832C235.196 110.109 235.063 110.493 235.063 110.984C235.063 111.443 235.196 111.816 235.463 112.104C235.74 112.381 236.135 112.52 236.647 112.52ZM249.275 110.472C249.189 110.077 249.04 109.784 248.827 109.592C248.613 109.389 248.309 109.288 247.915 109.288C247.307 109.288 246.869 109.555 246.603 110.088C246.336 110.611 246.197 111.443 246.187 112.584C246.421 112.211 246.757 111.917 247.195 111.704C247.643 111.491 248.133 111.384 248.667 111.384C249.712 111.384 250.549 111.715 251.179 112.376C251.819 113.037 252.139 113.96 252.139 115.144C252.139 115.923 251.979 116.605 251.659 117.192C251.349 117.779 250.891 118.237 250.283 118.568C249.685 118.899 248.976 119.064 248.155 119.064C246.512 119.064 245.371 118.552 244.731 117.528C244.091 116.493 243.771 115.011 243.771 113.08C243.771 111.053 244.107 109.549 244.779 108.568C245.461 107.576 246.549 107.08 248.043 107.08C248.843 107.08 249.515 107.24 250.059 107.56C250.613 107.869 251.029 108.28 251.307 108.792C251.595 109.304 251.765 109.864 251.819 110.472H249.275ZM248.011 113.544C247.552 113.544 247.168 113.683 246.859 113.96C246.56 114.227 246.411 114.611 246.411 115.112C246.411 115.624 246.549 116.024 246.827 116.312C247.115 116.6 247.52 116.744 248.043 116.744C248.512 116.744 248.88 116.605 249.147 116.328C249.424 116.04 249.563 115.651 249.563 115.16C249.563 114.659 249.429 114.264 249.163 113.976C248.896 113.688 248.512 113.544 248.011 113.544ZM254.87 116.808C255.233 116.52 255.398 116.387 255.366 116.408C256.412 115.544 257.233 114.835 257.83 114.28C258.438 113.725 258.95 113.144 259.366 112.536C259.782 111.928 259.99 111.336 259.99 110.76C259.99 110.323 259.889 109.981 259.686 109.736C259.484 109.491 259.18 109.368 258.774 109.368C258.369 109.368 258.049 109.523 257.814 109.832C257.59 110.131 257.478 110.557 257.478 111.112H254.838C254.86 110.205 255.052 109.448 255.414 108.84C255.788 108.232 256.273 107.784 256.87 107.496C257.478 107.208 258.15 107.064 258.886 107.064C260.156 107.064 261.11 107.389 261.75 108.04C262.401 108.691 262.726 109.539 262.726 110.584C262.726 111.725 262.337 112.787 261.558 113.768C260.78 114.739 259.788 115.688 258.582 116.616H262.902V118.84H254.87V116.808ZM268.331 115.576C268.491 116.419 268.982 116.84 269.803 116.84C270.368 116.84 270.768 116.589 271.003 116.088C271.238 115.587 271.355 114.771 271.355 113.64C271.12 113.971 270.8 114.227 270.395 114.408C269.99 114.589 269.536 114.68 269.035 114.68C268.352 114.68 267.744 114.541 267.211 114.264C266.678 113.976 266.256 113.555 265.947 113C265.648 112.435 265.499 111.752 265.499 110.952C265.499 110.163 265.659 109.475 265.979 108.888C266.31 108.301 266.774 107.848 267.371 107.528C267.979 107.208 268.694 107.048 269.515 107.048C271.094 107.048 272.198 107.539 272.827 108.52C273.456 109.501 273.771 110.947 273.771 112.856C273.771 114.243 273.643 115.389 273.387 116.296C273.142 117.192 272.72 117.875 272.123 118.344C271.536 118.813 270.731 119.048 269.707 119.048C268.896 119.048 268.203 118.888 267.627 118.568C267.062 118.248 266.624 117.827 266.315 117.304C266.016 116.781 265.846 116.205 265.803 115.576H268.331ZM269.659 112.52C270.107 112.52 270.464 112.387 270.731 112.12C270.998 111.843 271.131 111.469 271.131 111C271.131 110.488 270.992 110.093 270.715 109.816C270.438 109.539 270.064 109.4 269.595 109.4C269.126 109.4 268.752 109.544 268.475 109.832C268.208 110.109 268.075 110.493 268.075 110.984C268.075 111.443 268.208 111.816 268.475 112.104C268.752 112.381 269.147 112.52 269.659 112.52ZM276.223 109.864V107.32H280.655V119H277.807V109.864H276.223Z" fill="white"/>
</svg>
