<svg width="64" height="64" viewBox="0 0 64 64" fill="none" xmlns="http://www.w3.org/2000/svg">
<path d="M32.63 2.22C32.26 1.92 31.74 1.92 31.37 2.22C30.91 2.6 20 11.61 20 23C20 23.55 20.45 24 21 24H43C43.55 24 44 23.55 44 23C44 11.61 33.1 2.6 32.63 2.22ZM45.46 26.18C45.29 26.06 45.09 26 44.88 26H19.12C18.91 26 18.71 26.06 18.55 26.18C13.12 29.99 10 35.76 10 42C10 48.24 13.11 54 18.55 57.82C18.72 57.94 18.92 58 19.12 58H44.88C45.09 58 45.29 57.94 45.46 57.82C50.89 54.01 54 48.24 54 42C54 35.76 50.89 30 45.46 26.18Z" fill="#F2D9BB"/>
<path d="M35 26H29C28.4477 26 28 26.4477 28 27V33C28 33.5523 28.4477 34 29 34H35C35.5523 34 36 33.5523 36 33V27C36 26.4477 35.5523 26 35 26Z" fill="#DA4956"/>
<path d="M35 50H29C28.45 50 28 50.45 28 51V58H36V51C36 50.45 35.55 50 35 50Z" fill="#DA4956"/>
<path d="M32 52C37.5228 52 42 47.5228 42 42C42 36.4772 37.5228 32 32 32C26.4772 32 22 36.4772 22 42C22 47.5228 26.4772 52 32 52Z" fill="#F17456"/>
<path d="M36 41H33V39H36C36.55 39 37 38.55 37 38C37 37.45 36.55 37 36 37H32C31.45 37 31 37.45 31 38V41H29V38C29 37.45 28.55 37 28 37C27.45 37 27 37.45 27 38V42C27 42.55 27.45 43 28 43H31V45H28C27.45 45 27 45.45 27 46C27 46.55 27.45 47 28 47H32C32.55 47 33 46.55 33 46V43H35V46C35 46.55 35.45 47 36 47C36.55 47 37 46.55 37 46V42C37 41.45 36.55 41 36 41Z" fill="white"/>
<path d="M47 45C48.6569 45 50 43.6569 50 42C50 40.3431 48.6569 39 47 39C45.3431 39 44 40.3431 44 42C44 43.6569 45.3431 45 47 45Z" fill="#DA4956"/>
<path d="M17 45C18.6569 45 20 43.6569 20 42C20 40.3431 18.6569 39 17 39C15.3431 39 14 40.3431 14 42C14 43.6569 15.3431 45 17 45Z" fill="#DA4956"/>
<path d="M45 22H19C18.4477 22 18 22.4477 18 23V27C18 27.5523 18.4477 28 19 28H45C45.5523 28 46 27.5523 46 27V23C46 22.4477 45.5523 22 45 22Z" fill="#28345A"/>
<path d="M53.4502 18.05C40.7602 11.62 34.2002 22.38 34.1402 22.49C33.9602 22.8 33.9502 23.18 34.1402 23.49C34.3202 23.8 34.6502 23.99 35.0102 23.99H45.9202C45.5002 21.84 50.3802 20.33 53.1602 19.92C53.5902 19.86 53.9302 19.52 54.0002 19.09C54.0702 18.66 53.8502 18.23 53.4702 18.04L53.4502 18.05ZM10.5502 18.05C10.1602 18.25 9.95016 18.67 10.0202 19.1C10.0902 19.53 10.4302 19.87 10.8602 19.93C13.6402 20.34 18.5202 21.85 18.1002 24H29.0102C29.3702 24 29.7002 23.81 29.8802 23.5C30.0602 23.19 30.0502 22.8 29.8802 22.5C29.8202 22.39 23.2602 11.63 10.5702 18.06L10.5502 18.05Z" fill="#DA4956"/>
<path d="M32.5796 14.19C32.2296 13.94 31.7596 13.94 31.4096 14.19C31.1696 14.36 25.2696 18.65 26.0696 24H37.9196C38.7196 18.65 32.8096 14.36 32.5796 14.19Z" fill="#F17456"/>
<path d="M47.8504 61.53C47.6704 61.82 47.3504 62 47.0004 62H17.0004C16.6504 62 16.3304 61.82 16.1504 61.53C15.9704 61.23 15.9504 60.86 16.1104 60.55L17.8804 57H46.1204L47.8904 60.55C48.0504 60.86 48.0304 61.23 47.8504 61.53Z" fill="#28345A"/>
</svg>
