<svg width="59" height="56" viewBox="0 0 59 56" fill="none" xmlns="http://www.w3.org/2000/svg">
<path d="M51.1047 26.0104L52.4347 18.4804C52.503 18.0923 52.647 17.7215 52.8586 17.3892C53.0702 17.0568 53.3452 16.7693 53.6679 16.5432C53.9906 16.3171 54.3546 16.1568 54.7393 16.0713C55.1239 15.9859 55.5216 15.9771 55.9097 16.0454C56.2977 16.1137 56.6686 16.2577 57.0009 16.4693C57.3333 16.6809 57.6208 16.9559 57.8469 17.2786C58.073 17.6013 58.2333 17.9653 58.3187 18.35C58.4042 18.7346 58.413 19.1323 58.3447 19.5204L54.5247 41.1804L49.7147 45.4104L49.3747 47.3804L37.5547 45.3004L38.9347 37.4704L40.4547 35.6604L47.8047 26.9004C48.1423 26.4955 48.5809 26.187 49.0761 26.0061C49.5714 25.8252 50.1056 25.7784 50.6247 25.8704C50.7902 25.8957 50.9516 25.9428 51.1047 26.0104Z" fill="#FFC477"/>
<path d="M51.3453 47.7302L49.9553 55.6102L34.1953 52.8302L35.5853 44.9502L37.5553 45.3002L49.3753 47.3802L51.3453 47.7302Z" fill="#1E81CE"/>
<path d="M22.8049 44.9502L24.1949 52.8302L8.43492 55.6102L7.04492 47.7302L9.01492 47.3802L20.8349 45.3002L22.8049 44.9502Z" fill="#1E81CE"/>
<path d="M7.2854 26.0104C7.43854 25.9428 7.59994 25.8957 7.7654 25.8704C8.28452 25.7784 8.81873 25.8252 9.31394 26.0061C9.80915 26.187 10.2478 26.4955 10.5854 26.9004L17.9354 35.6604L19.4554 37.4704L20.8354 45.3004L9.0154 47.3804L8.6754 45.4104L3.8654 41.1804L0.0454041 19.5204C-0.0228832 19.1324 -0.0140686 18.7347 0.0713448 18.35C0.156758 17.9654 0.317097 17.6013 0.543208 17.2786C0.769319 16.9559 1.05677 16.6809 1.38916 16.4693C1.72154 16.2578 2.09235 16.1137 2.4804 16.0454C3.26412 15.9075 4.07052 16.0866 4.72221 16.5432C5.04489 16.7693 5.31988 17.0568 5.53147 17.3892C5.74306 17.7216 5.88712 18.0924 5.9554 18.4804L7.2854 26.0104Z" fill="#FFC477"/>
<path d="M19.8529 45.4728L18.5179 37.9068L9.81794 27.5418C9.59152 27.2731 9.29854 27.0685 8.96829 26.9485C8.63803 26.8284 8.28206 26.7972 7.93594 26.8578C7.85149 26.8715 7.76848 26.8929 7.68794 26.9218C7.65532 26.9363 7.62194 26.949 7.58794 26.9598C7.36813 27.0344 7.16452 27.1501 6.98794 27.3008C6.58526 27.6436 6.33417 28.1315 6.28923 28.6585C6.24429 29.1854 6.40913 29.7087 6.74794 30.1148L14.0959 38.8708L12.5649 40.1568L5.21994 31.3998C4.54099 30.5857 4.21183 29.5359 4.3044 28.4799C4.39696 27.4239 4.90371 26.4474 5.71394 25.7638C6.0728 25.4631 6.48306 25.2296 6.92494 25.0748C7.13889 24.9879 7.36197 24.9255 7.58994 24.8888C8.2819 24.767 8.99371 24.8293 9.65401 25.0694C10.3143 25.3095 10.8999 25.719 11.3519 26.2568L20.2229 36.8298C20.3359 36.9637 20.4111 37.1252 20.4409 37.2978L21.8219 45.1298L19.8529 45.4728ZM38.5389 45.4728L36.5699 45.1298L37.9509 37.3008C37.9802 37.1272 38.0555 36.9645 38.1689 36.8298L47.0399 26.2578C47.4923 25.7209 48.0776 25.3121 48.7374 25.0722C49.3972 24.8323 50.1084 24.7698 50.7999 24.8908C51.0286 24.9273 51.2524 24.9897 51.4669 25.0768C51.9046 25.2299 52.3111 25.4605 52.6669 25.7578C53.4794 26.4412 53.9882 27.4186 54.0819 28.4761C54.1756 29.5336 53.8466 30.5852 53.1669 31.4008L45.8169 40.1588L44.2959 38.8708L51.6439 30.1138C51.9829 29.7056 52.1467 29.18 52.0997 28.6516C52.0526 28.1231 51.7986 27.6347 51.3929 27.2928C51.2193 27.1457 51.0195 27.0327 50.8039 26.9598C50.7701 26.9486 50.7367 26.9359 50.7039 26.9218C50.6228 26.8927 50.5391 26.8712 50.4539 26.8578C50.1082 26.7989 49.753 26.8309 49.4234 26.9509C49.0937 27.0708 48.801 27.2745 48.5739 27.5418L39.8739 37.9068L38.5389 45.4728Z" fill="#FFB655"/>
<g clip-path="url(#clip0_4398_7585)">
<path d="M33.3732 27.3697C33.628 27.367 33.8733 27.2787 34.0642 27.1208C34.2551 26.9629 34.3788 26.746 34.4128 26.5098C35.1765 21.3639 40.3036 20.9604 39.7237 14.1278C39.4986 11.5355 38.2094 9.12524 36.1264 7.40216C34.0434 5.67908 31.3283 4.77688 28.5499 4.88463C25.7715 4.99237 23.1455 6.10169 21.2221 7.98013C19.2988 9.85857 18.2274 12.3603 18.2324 14.9612C18.2324 21.4102 22.9706 21.5755 23.607 26.49C23.6348 26.7303 23.756 26.9528 23.9477 27.115C24.1394 27.2772 24.3881 27.3678 24.6466 27.3697H33.3732Z" fill="url(#paint0_linear_4398_7585)"/>
<path d="M26.0115 7.98388C24.9443 8.38845 23.9816 9.00127 23.1878 9.78143C22.3939 10.5616 21.787 11.4911 21.4077 12.5081C21.3647 12.6123 21.2806 12.6972 21.1728 12.7451C21.0649 12.7931 20.9414 12.8006 20.8278 12.766C20.7153 12.7272 20.6234 12.6487 20.5719 12.5473C20.5204 12.446 20.5132 12.3298 20.552 12.2237C20.974 11.0943 21.6481 10.0619 22.5297 9.1952C23.4113 8.32846 24.4801 7.64722 25.665 7.19678C25.7767 7.15498 25.9015 7.1558 26.0125 7.19909C26.1236 7.24237 26.2121 7.32466 26.259 7.42828C26.3019 7.53291 26.3001 7.64894 26.254 7.75236C26.2079 7.85578 26.1211 7.93867 26.0115 7.98388Z" fill="url(#paint1_linear_4398_7585)"/>
<path d="M34.4138 26.5099C34.3813 26.7467 34.2579 26.9643 34.0667 27.1225C33.8755 27.2806 33.6295 27.3685 33.3742 27.3697H24.6476C24.3882 27.3709 24.1378 27.2812 23.9454 27.1185C23.7531 26.9557 23.6328 26.7315 23.608 26.49C23.205 23.4078 21.1966 22.1907 19.7539 20.1403C20.7092 21.1656 21.8835 21.9924 23.2012 22.5673C24.5189 23.1423 25.9507 23.4526 27.4045 23.4784C28.8583 23.5042 30.3017 23.2449 31.6417 22.7171C32.9818 22.1894 34.1888 21.4049 35.185 20.4142C36.1811 19.4236 36.9443 18.2487 37.4254 16.9653C37.9065 15.682 38.0948 14.3186 37.9782 12.963C37.8616 11.6074 37.4426 10.2897 36.7483 9.09483C36.054 7.89993 35.0998 6.85433 33.9471 6.02539C35.5606 6.8129 36.9359 7.96814 37.9457 9.38435C38.9556 10.8005 39.5674 12.432 39.7247 14.1279C40.3046 20.9605 35.1705 21.364 34.4138 26.5099Z" fill="url(#paint2_linear_4398_7585)"/>
<path d="M27.002 30.6172C27.1447 31.0094 27.4151 31.35 27.7753 31.5912C28.1355 31.8324 28.5674 31.9621 29.0104 31.9621C29.4533 31.9621 29.8852 31.8324 30.2454 31.5912C30.6056 31.35 30.876 31.0094 31.0187 30.6172H27.002Z" fill="url(#paint3_linear_4398_7585)"/>
<path d="M32.645 31.0146H25.3752C25.1876 31.0146 25.0077 30.9449 24.8751 30.8209C24.7425 30.6968 24.668 30.5286 24.668 30.3532V27.3701H33.3734V30.3333C33.3763 30.4235 33.3595 30.5134 33.3239 30.5973C33.2884 30.6812 33.2348 30.7574 33.1666 30.8212C33.0983 30.885 33.0169 30.9351 32.9272 30.9683C32.8375 31.0016 32.7414 31.0173 32.645 31.0146Z" fill="url(#paint4_linear_4398_7585)"/>
<path d="M33.5218 28.21H24.5052C24.1927 28.21 23.9395 28.4469 23.9395 28.7391C23.9395 29.0313 24.1927 29.2682 24.5052 29.2682H33.5218C33.8342 29.2682 34.0875 29.0313 34.0875 28.7391C34.0875 28.4469 33.8342 28.21 33.5218 28.21Z" fill="url(#paint5_linear_4398_7585)"/>
<path d="M34.0876 28.7458H23.9395C23.9386 28.6757 23.9525 28.6062 23.9805 28.5412C24.0085 28.4763 24.0501 28.4172 24.1027 28.3673C24.1553 28.3175 24.218 28.2779 24.2871 28.2509C24.3562 28.2239 24.4303 28.21 24.5052 28.21H33.5077C33.5835 28.2091 33.6587 28.2223 33.7291 28.2489C33.7994 28.2754 33.8634 28.3147 33.9173 28.3646C33.9712 28.4144 34.0141 28.4738 34.0433 28.5392C34.0725 28.6046 34.0876 28.6748 34.0876 28.7458Z" fill="url(#paint6_linear_4398_7585)"/>
<path d="M29.7599 0.714345C29.7599 0.319823 29.418 0 28.9962 0C28.5744 0 28.2324 0.319823 28.2324 0.714345V2.72509C28.2324 3.11961 28.5744 3.43944 28.9962 3.43944C29.418 3.43944 29.7599 3.11961 29.7599 2.72509V0.714345Z" fill="url(#paint7_linear_4398_7585)"/>
<path d="M28.9967 1.68157e-07V3.43944C28.7941 3.43944 28.5999 3.36418 28.4566 3.23021C28.3134 3.09625 28.2329 2.91455 28.2329 2.72509V0.740802C28.2291 0.64479 28.2461 0.549048 28.2828 0.459302C28.3194 0.369557 28.3751 0.287654 28.4464 0.218493C28.5177 0.149332 28.6032 0.0943348 28.6977 0.0567926C28.7923 0.0192503 28.894 -6.57521e-05 28.9967 1.68157e-07Z" fill="url(#paint8_linear_4398_7585)"/>
<path d="M22.0426 2.26269C21.8317 1.92103 21.3646 1.80397 20.9993 2.00123C20.634 2.19849 20.5089 2.63537 20.7198 2.97704L21.7947 4.7184C22.0056 5.06006 22.4727 5.17713 22.838 4.97987C23.2033 4.78261 23.3285 4.34572 23.1176 4.00405L22.0426 2.26269Z" fill="url(#paint9_linear_4398_7585)"/>
<path d="M20.9974 1.98438L22.8361 4.96081C22.7499 5.00819 22.6545 5.03911 22.5554 5.05179C22.4563 5.06446 22.3555 5.05863 22.2588 5.03465C22.1621 5.01066 22.0715 4.96899 21.9922 4.91203C21.9128 4.85508 21.8463 4.78399 21.7966 4.70285L20.7216 2.98313C20.6674 2.90118 20.6315 2.80981 20.6161 2.71452C20.6006 2.61924 20.6059 2.52202 20.6317 2.42871C20.6575 2.3354 20.7031 2.24793 20.766 2.17157C20.8289 2.09521 20.9076 2.03153 20.9974 1.98438Z" fill="url(#paint10_linear_4398_7585)"/>
<path d="M16.185 7.22048C15.8197 7.02322 15.3525 7.14028 15.1416 7.48195C14.9307 7.82361 15.0559 8.2605 15.4212 8.45776L17.283 9.46313C17.6483 9.66039 18.1154 9.54333 18.3263 9.20166C18.5372 8.86 18.4121 8.42311 18.0468 8.22585L16.185 7.22048Z" fill="url(#paint11_linear_4398_7585)"/>
<path d="M15.1213 7.48047L18.3036 9.20019C18.2544 9.28187 18.1884 9.3536 18.1093 9.41121C18.0302 9.46882 17.9397 9.51117 17.843 9.53578C17.7463 9.5604 17.6453 9.56679 17.5459 9.5546C17.4465 9.54241 17.3507 9.51187 17.264 9.46476L15.4254 8.45939C15.336 8.41443 15.2571 8.35326 15.1933 8.27947C15.1295 8.20567 15.0821 8.12073 15.0538 8.02959C15.0255 7.93846 15.0168 7.84296 15.0284 7.74867C15.04 7.65439 15.0716 7.56321 15.1213 7.48047Z" fill="url(#paint12_linear_4398_7585)"/>
<path d="M13.7638 14.2539C13.3419 14.2539 13 14.5738 13 14.9683C13 15.3628 13.3419 15.6826 13.7638 15.6826H15.9136C16.3354 15.6826 16.6773 15.3628 16.6773 14.9683C16.6773 14.5738 16.3354 14.2539 15.9136 14.2539H13.7638Z" fill="url(#paint13_linear_4398_7585)"/>
<path d="M13 14.9619H16.6773C16.6773 15.1514 16.5969 15.3331 16.4536 15.467C16.3104 15.601 16.1162 15.6763 15.9136 15.6763H13.792C13.6894 15.6798 13.587 15.664 13.4911 15.6297C13.3951 15.5954 13.3076 15.5433 13.2336 15.4766C13.1597 15.4099 13.1009 15.33 13.0607 15.2415C13.0206 15.1531 12.9999 15.058 13 14.9619Z" fill="url(#paint14_linear_4398_7585)"/>
<path d="M15.4192 21.4749C15.0539 21.6721 14.9287 22.109 15.1396 22.4507C15.3505 22.7924 15.8176 22.9094 16.1829 22.7122L18.0447 21.7068C18.41 21.5095 18.5352 21.0726 18.3243 20.731C18.1134 20.3893 17.6463 20.2722 17.281 20.4695L15.4192 21.4749Z" fill="url(#paint15_linear_4398_7585)"/>
<path d="M15.1211 22.4492L18.3034 20.7295C18.3541 20.8101 18.3871 20.8994 18.4007 20.9921C18.4142 21.0848 18.408 21.179 18.3824 21.2695C18.3567 21.3599 18.3122 21.4446 18.2513 21.5188C18.1904 21.5931 18.1144 21.6552 18.0276 21.7018L16.1889 22.7072C16.1013 22.7579 16.0036 22.7915 15.9017 22.8059C15.7999 22.8204 15.6959 22.8154 15.5962 22.7913C15.4964 22.7672 15.4029 22.7245 15.3212 22.6657C15.2396 22.6069 15.1715 22.5333 15.1211 22.4492Z" fill="url(#paint16_linear_4398_7585)"/>
<path d="M41.815 22.7053C42.1803 22.9026 42.6475 22.7855 42.8584 22.4438C43.0693 22.1022 42.9441 21.6653 42.5788 21.468L40.717 20.4626C40.3517 20.2654 39.8846 20.3825 39.6737 20.7241C39.4628 21.0658 39.5879 21.5027 39.9532 21.6999L41.815 22.7053Z" fill="url(#paint17_linear_4398_7585)"/>
<path d="M42.8574 22.4487L39.668 20.729C39.7178 20.6471 39.7846 20.5752 39.8643 20.5175C39.944 20.4599 40.0351 20.4175 40.1324 20.3929C40.2297 20.3683 40.3312 20.362 40.4311 20.3742C40.5311 20.3865 40.6274 20.4172 40.7146 20.4644L42.5745 21.4698C42.6621 21.5165 42.7389 21.5789 42.8006 21.6534C42.8623 21.728 42.9076 21.8132 42.9338 21.9042C42.9601 21.9952 42.9669 22.0902 42.9538 22.1836C42.9407 22.2771 42.9079 22.3672 42.8574 22.4487Z" fill="url(#paint18_linear_4398_7585)"/>
<path d="M44.2362 15.6826C44.6581 15.6826 45 15.3628 45 14.9683C45 14.5737 44.6581 14.2539 44.2362 14.2539H42.0864C41.6646 14.2539 41.3227 14.5737 41.3227 14.9683C41.3227 15.3628 41.6646 15.6826 42.0864 15.6826H44.2362Z" fill="url(#paint19_linear_4398_7585)"/>
<path d="M44.9996 14.9619H41.3223C41.3223 14.7724 41.4027 14.5908 41.546 14.4568C41.6892 14.3228 41.8835 14.2476 42.086 14.2476H44.2076C44.3102 14.244 44.4126 14.2598 44.5085 14.2942C44.6045 14.3285 44.6921 14.3805 44.766 14.4472C44.84 14.5139 44.8988 14.5938 44.9389 14.6823C44.979 14.7707 44.9997 14.8658 44.9996 14.9619Z" fill="url(#paint20_linear_4398_7585)"/>
<path d="M42.5789 8.45773C42.9442 8.26047 43.0693 7.82359 42.8584 7.48192C42.6475 7.14025 42.1804 7.02319 41.8151 7.22045L39.9533 8.22583C39.588 8.42309 39.4629 8.85997 39.6738 9.20164C39.8847 9.54331 40.3518 9.66037 40.7171 9.46311L42.5789 8.45773Z" fill="url(#paint21_linear_4398_7585)"/>
<path d="M42.8563 7.4809L39.6669 9.20062C39.6166 9.11956 39.5839 9.02996 39.5709 8.93701C39.5578 8.84405 39.5647 8.7496 39.591 8.65914C39.6173 8.56868 39.6626 8.48401 39.7242 8.41005C39.7858 8.33609 39.8625 8.27432 39.9498 8.22831L41.8097 7.22294C41.8965 7.1754 41.9924 7.14436 42.0921 7.1316C42.1917 7.11884 42.2931 7.12461 42.3903 7.14858C42.4875 7.17255 42.5788 7.21424 42.6587 7.27127C42.7387 7.3283 42.8059 7.39954 42.8563 7.4809Z" fill="url(#paint22_linear_4398_7585)"/>
<path d="M37.273 2.97752C37.4839 2.63585 37.3588 2.19897 36.9935 2.0017C36.6282 1.80444 36.1611 1.92151 35.9502 2.26317L34.8752 4.00453C34.6643 4.3462 34.7895 4.78308 35.1548 4.98034C35.5201 5.17761 35.9872 5.06054 36.1981 4.71888L37.273 2.97752Z" fill="url(#paint23_linear_4398_7585)"/>
<path d="M37.0014 1.98397L35.1627 4.96041C35.0754 4.91441 34.9987 4.85263 34.9371 4.77867C34.8755 4.70471 34.8302 4.62004 34.8039 4.52958C34.7776 4.43912 34.7707 4.34467 34.7838 4.25172C34.7968 4.15877 34.8295 4.06916 34.8798 3.98811L35.9547 2.24855C36.0046 2.16663 36.0713 2.09476 36.151 2.03708C36.2307 1.97939 36.3219 1.93703 36.4192 1.91244C36.5165 1.88784 36.618 1.8815 36.7179 1.89378C36.8178 1.90606 36.9142 1.93671 37.0014 1.98397Z" fill="url(#paint24_linear_4398_7585)"/>
</g>
<defs>
<linearGradient id="paint0_linear_4398_7585" x1="28.9958" y1="3.77644" x2="28.9958" y2="37.1191" gradientUnits="userSpaceOnUse">
<stop offset="0.12" stop-color="#F7D334"/>
<stop offset="1" stop-color="#FE299F"/>
</linearGradient>
<linearGradient id="paint1_linear_4398_7585" x1="27.2773" y1="5.06036" x2="21.8556" y2="12.3654" gradientUnits="userSpaceOnUse">
<stop stop-color="white"/>
<stop offset="1" stop-color="white" stop-opacity="0"/>
</linearGradient>
<linearGradient id="paint2_linear_4398_7585" x1="29.7676" y1="5.65499" x2="29.7676" y2="32.1387" gradientUnits="userSpaceOnUse">
<stop stop-color="#F7D334"/>
<stop offset="1" stop-color="#FE299F"/>
</linearGradient>
<linearGradient id="paint3_linear_4398_7585" x1="29.0104" y1="32.0789" x2="29.0104" y2="30.8553" gradientUnits="userSpaceOnUse">
<stop stop-color="#71D0E6"/>
<stop offset="0.05" stop-color="#6FC7E4"/>
<stop offset="0.37" stop-color="#6091D4"/>
<stop offset="0.65" stop-color="#5569C9"/>
<stop offset="0.87" stop-color="#4E51C2"/>
<stop offset="1" stop-color="#4C48C0"/>
</linearGradient>
<linearGradient id="paint4_linear_4398_7585" x1="29.0101" y1="22.9253" x2="29.0101" y2="32.7145" gradientUnits="userSpaceOnUse">
<stop stop-color="white"/>
<stop offset="0.13" stop-color="#F5FCFD"/>
<stop offset="0.36" stop-color="#DAF3F8"/>
<stop offset="0.65" stop-color="#AEE4F1"/>
<stop offset="1" stop-color="#71D0E6"/>
</linearGradient>
<linearGradient id="paint5_linear_4398_7585" x1="29.01" y1="27.8396" x2="29.01" y2="29.4667" gradientUnits="userSpaceOnUse">
<stop stop-color="white"/>
<stop offset="0.13" stop-color="#F5FCFD"/>
<stop offset="0.36" stop-color="#DAF3F8"/>
<stop offset="0.65" stop-color="#AEE4F1"/>
<stop offset="1" stop-color="#71D0E6"/>
</linearGradient>
<linearGradient id="paint6_linear_4398_7585" x1="29.01" y1="26.4771" x2="29.01" y2="33.217" gradientUnits="userSpaceOnUse">
<stop stop-color="white"/>
<stop offset="0.13" stop-color="#F5FCFD"/>
<stop offset="0.36" stop-color="#DAF3F8"/>
<stop offset="0.65" stop-color="#AEE4F1"/>
<stop offset="1" stop-color="#71D0E6"/>
</linearGradient>
<linearGradient id="paint7_linear_4398_7585" x1="28.9962" y1="-0.0595287" x2="28.9962" y2="4.21331" gradientUnits="userSpaceOnUse">
<stop stop-color="#F7D334"/>
<stop offset="1" stop-color="#FE299F"/>
</linearGradient>
<linearGradient id="paint8_linear_4398_7585" x1="28.6148" y1="-1.32947" x2="28.6148" y2="3.52542" gradientUnits="userSpaceOnUse">
<stop stop-color="#F7D334"/>
<stop offset="1" stop-color="#FE299F"/>
</linearGradient>
<linearGradient id="paint9_linear_4398_7585" x1="20.9675" y1="1.94967" x2="23.0271" y2="5.76372" gradientUnits="userSpaceOnUse">
<stop stop-color="#F7D334"/>
<stop offset="1" stop-color="#FE299F"/>
</linearGradient>
<linearGradient id="paint10_linear_4398_7585" x1="19.9561" y1="1.03199" x2="22.2999" y2="5.37232" gradientUnits="userSpaceOnUse">
<stop stop-color="#F7D334"/>
<stop offset="1" stop-color="#FE299F"/>
</linearGradient>
<linearGradient id="paint11_linear_4398_7585" x1="15.0865" y1="7.45218" x2="18.9003" y2="9.80636" gradientUnits="userSpaceOnUse">
<stop stop-color="#F7D334"/>
<stop offset="1" stop-color="#FE299F"/>
</linearGradient>
<linearGradient id="paint12_linear_4398_7585" x1="13.7147" y1="7.12196" x2="18.0606" y2="9.80463" gradientUnits="userSpaceOnUse">
<stop stop-color="#F7D334"/>
<stop offset="1" stop-color="#FE299F"/>
</linearGradient>
<linearGradient id="paint13_linear_4398_7585" x1="12.9364" y1="14.9683" x2="17.5048" y2="14.9683" gradientUnits="userSpaceOnUse">
<stop stop-color="#F7D334"/>
<stop offset="1" stop-color="#FE299F"/>
</linearGradient>
<linearGradient id="paint14_linear_4398_7585" x1="11.5786" y1="15.3191" x2="16.7693" y2="15.3191" gradientUnits="userSpaceOnUse">
<stop stop-color="#F7D334"/>
<stop offset="1" stop-color="#FE299F"/>
</linearGradient>
<linearGradient id="paint15_linear_4398_7585" x1="15.0845" y1="22.4805" x2="18.9042" y2="20.1226" gradientUnits="userSpaceOnUse">
<stop stop-color="#F7D334"/>
<stop offset="1" stop-color="#FE299F"/>
</linearGradient>
<linearGradient id="paint16_linear_4398_7585" x1="14.1038" y1="23.4201" x2="18.4438" y2="20.741" gradientUnits="userSpaceOnUse">
<stop stop-color="#F7D334"/>
<stop offset="1" stop-color="#FE299F"/>
</linearGradient>
<linearGradient id="paint17_linear_4398_7585" x1="42.9099" y1="22.4793" x2="39.0903" y2="20.1215" gradientUnits="userSpaceOnUse">
<stop stop-color="#F7D334"/>
<stop offset="1" stop-color="#FE299F"/>
</linearGradient>
<linearGradient id="paint18_linear_4398_7585" x1="44.2744" y1="22.8001" x2="39.9344" y2="20.1211" gradientUnits="userSpaceOnUse">
<stop stop-color="#F7D334"/>
<stop offset="1" stop-color="#FE299F"/>
</linearGradient>
<linearGradient id="paint19_linear_4398_7585" x1="45.0636" y1="14.9683" x2="40.4952" y2="14.9683" gradientUnits="userSpaceOnUse">
<stop stop-color="#F7D334"/>
<stop offset="1" stop-color="#FE299F"/>
</linearGradient>
<linearGradient id="paint20_linear_4398_7585" x1="46.4211" y1="14.6047" x2="41.2303" y2="14.6047" gradientUnits="userSpaceOnUse">
<stop stop-color="#F7D334"/>
<stop offset="1" stop-color="#FE299F"/>
</linearGradient>
<linearGradient id="paint21_linear_4398_7585" x1="42.9171" y1="7.45789" x2="39.1033" y2="9.81207" gradientUnits="userSpaceOnUse">
<stop stop-color="#F7D334"/>
<stop offset="1" stop-color="#FE299F"/>
</linearGradient>
<linearGradient id="paint22_linear_4398_7585" x1="43.8988" y1="6.50947" x2="39.5528" y2="9.19215" gradientUnits="userSpaceOnUse">
<stop stop-color="#F7D334"/>
<stop offset="1" stop-color="#FE299F"/>
</linearGradient>
<linearGradient id="paint23_linear_4398_7585" x1="37.0314" y1="1.95346" x2="34.9718" y2="5.7675" gradientUnits="userSpaceOnUse">
<stop stop-color="#F7D334"/>
<stop offset="1" stop-color="#FE299F"/>
</linearGradient>
<linearGradient id="paint24_linear_4398_7585" x1="37.3799" y1="0.677639" x2="35.0362" y2="5.01796" gradientUnits="userSpaceOnUse">
<stop stop-color="#F7D334"/>
<stop offset="1" stop-color="#FE299F"/>
</linearGradient>
<clipPath id="clip0_4398_7585">
<rect width="32" height="32" fill="white" transform="translate(13)"/>
</clipPath>
</defs>
</svg>
