<svg xmlns="http://www.w3.org/2000/svg" enable-background="new 0 0 512 512" viewBox="0 0 512 512" id="store"><g><path fill="#FFD15C" d="M454.2,244.3c-26.4-2.5-45.8-26.2-45.8-52.7v2.2c0,35-35.4,61.7-72.3,46.4c-18.1-7.5-29.3-26-29.3-45.6   v-0.8c0,29.7-25.5,53.4-55.8,50.5c-26.4-2.5-45.8-26.2-45.8-52.7v2.2c0,35-35.4,61.7-72.3,46.4c-18.1-7.5-29.3-26-29.3-45.6v-14.1   h0v13.3c0,29.7-25.5,53.4-55.8,50.6c-2.2-0.2-4.2-0.8-6.3-1.3v267H468V243.7C463.6,244.5,459,244.7,454.2,244.3z"></path><rect width="428.6" height="56.6" x="41.5" y="2" fill="#CDD6E0"></rect><polygon fill="#F2F2F2" points="41.5 58.6 2 151.6 103.6 151.6 127.3 58.6"></polygon><polygon fill="#FF7058" points="127.3 58.6 103.6 151.6 205.2 151.6 213.1 58.6"></polygon><polygon fill="#F2F2F2" points="298.9 58.6 213.1 58.6 205.2 151.6 306.8 151.6"></polygon><polygon fill="#FF7058" points="384.7 58.6 298.9 58.6 306.8 151.6 408.4 151.6"></polygon><polygon fill="#F2F2F2" points="470.5 58.6 384.7 58.6 408.4 151.6 510 151.6"></polygon><path fill="#FFF" d="M368.5,309h-8.3c-34.8,0-62.9,28.2-62.9,62.9v138h134.2V372C431.5,337.2,403.3,309,368.5,309z"></path><rect width="170.3" height="104.5" x="78" y="357.3" fill="#FFF"></rect><rect width="147.7" height="81.9" x="89.3" y="368.6" fill="#84DBFF"></rect><path fill="#F8B64C" d="M41.5,190.6v63.2c3.6,1,7.4,1.4,11.3,1.4c14,0,26.7-5.7,35.9-14.9s14.9-21.9,14.9-35.9   c0,28,22.8,50.8,50.8,50.8c28,0,50.8-22.8,50.8-50.8c0,28,22.8,50.8,50.8,50.8c28,0,50.8-22.8,50.8-50.8c0,28,22.8,50.8,50.8,50.8   c28,0,50.8-22.8,50.8-50.8c0,28,22.8,50.8,50.8,50.8c3,0,5.9-0.3,8.8-0.8v-63.7H41.5z"></path><g><g><path fill="#F1543F" d="M306.8 151.6L306.8 151.6l0 42.9c0 19.6 11.2 38.1 29.3 45.6 36.9 15.4 72.3-11.4 72.3-46.4v-42.1H306.8zM103.6 151.6v42.9c0 19.6 11.2 38.1 29.3 45.6 36.9 15.4 72.3-11.4 72.3-46.4v-42.1L103.6 151.6 103.6 151.6z"></path></g><g><path fill="#CDD6E0" d="M408.4 151.6v40c0 26.5 19.4 50.2 45.8 52.7 30.3 2.9 55.8-20.9 55.8-50.6v-42.1H408.4zM205.2 191.5c0 26.5 19.4 50.2 45.8 52.7 30.3 2.9 55.8-20.9 55.8-50.6v-42.1H205.2V191.5zM2 191.5c0 26.5 19.4 50.2 45.8 52.7 30.3 2.9 55.8-20.9 55.8-50.6v-42.1H2V191.5z"></path></g></g></g></svg>