<svg width="32" height="32" viewBox="0 0 32 32" fill="none" xmlns="http://www.w3.org/2000/svg">
<g clip-path="url(#clip0_60_19259)">
<path d="M16 32C24.8366 32 32 24.8366 32 16C32 7.16344 24.8366 0 16 0C7.16344 0 0 7.16344 0 16C0 24.8366 7.16344 32 16 32Z" fill="#FCB742"/>
<path d="M23.5406 27.0384H8.45943C8.37072 27.0384 8.29468 26.9624 8.29468 26.8737V5.12633C8.29468 5.03762 8.37072 4.96158 8.45943 4.96158H23.5406C23.6293 4.96158 23.7054 5.03762 23.7054 5.12633V26.8737C23.7054 26.9624 23.6293 27.0384 23.5406 27.0384Z" fill="#324A5E"/>
<path d="M21.9184 7.26178H10.0816V23.6356H21.9184V7.26178Z" fill="white"/>
<path d="M16 26.0182C16.4585 26.0182 16.8301 25.6466 16.8301 25.1881C16.8301 24.7297 16.4585 24.358 16 24.358C15.5416 24.358 15.1699 24.7297 15.1699 25.1881C15.1699 25.6466 15.5416 26.0182 16 26.0182Z" fill="#2B3B4E"/>
<path d="M18.7691 6.48872H15.1129C14.9228 6.48872 14.7643 6.33664 14.7643 6.1402C14.7643 5.9501 14.9164 5.79169 15.1129 5.79169H18.7691C18.9592 5.79169 19.1176 5.94377 19.1176 6.1402C19.1113 6.33664 18.9592 6.48872 18.7691 6.48872Z" fill="#2B3B4E"/>
<path d="M13.8139 6.48872H13.2309C13.0408 6.48872 12.8824 6.33664 12.8824 6.1402C12.8824 5.9501 13.0345 5.79169 13.2309 5.79169H13.8139C14.004 5.79169 14.1624 5.94377 14.1624 6.1402C14.1624 6.33664 14.0103 6.48872 13.8139 6.48872Z" fill="#2B3B4E"/>
<path d="M12.2994 22.9386L11.444 23.4265L11.539 23.6356H14.6693C14.0547 23.097 13.8075 22.2162 14.118 21.4051C14.5172 20.3659 15.6768 19.8463 16.716 20.2455C17.7553 20.6447 18.2749 21.8043 17.8757 22.8436C17.7553 23.1604 17.5652 23.4265 17.3244 23.6356H20.4357L20.6131 23.1731L19.7386 22.7358C19.8147 22.2542 19.802 21.7727 19.6943 21.3101L20.5497 20.8222L20.0048 19.5992L19.0733 19.9097C18.8008 19.5295 18.4523 19.1937 18.0404 18.9275L18.3002 17.9834L17.0456 17.5018L16.6083 18.3762C16.1267 18.3002 15.6452 18.3129 15.1826 18.4206L14.6947 17.5651L13.4717 18.1101L13.7822 19.0416C13.402 19.314 13.0661 19.6626 12.8 20.0744L11.8559 19.8146L11.3743 21.0693L12.2614 21.5129C12.179 21.9944 12.198 22.476 12.2994 22.9386Z" fill="#84DBFF"/>
<path d="M16.8428 10.1576C16.8428 11.52 16.4626 13.5794 16 13.5794C15.5374 13.5794 15.1572 11.52 15.1572 10.1576C15.1572 8.79525 15.5374 8.64951 16 8.64951C16.4626 8.64951 16.8428 8.80159 16.8428 10.1576Z" fill="#FF7058"/>
<path d="M16 15.7592C16.371 15.7592 16.6717 15.4585 16.6717 15.0875C16.6717 14.7166 16.371 14.4158 16 14.4158C15.629 14.4158 15.3283 14.7166 15.3283 15.0875C15.3283 15.4585 15.629 15.7592 16 15.7592Z" fill="#FF7058"/>
</g>
<defs>
<clipPath id="clip0_60_19259">
<rect width="32" height="32" fill="white"/>
</clipPath>
</defs>
</svg>
