<svg id="Component_48_17" data-name="Component 48 – 17" xmlns="http://www.w3.org/2000/svg" width="30" height="30" viewBox="0 0 30 30">
  <rect id="Rectangle_21008" data-name="Rectangle 21008" width="30" height="30" fill="none"/>
  <path id="Subtraction_2" data-name="Subtraction 2" d="M24275.8,19017.176h-12.6a4.205,4.205,0,0,1-4.2-4.2v-8.4a4.205,4.205,0,0,1,4.2-4.2h.719c.865.941,1.742,1.883,2.609,2.8h-3.328a1.4,1.4,0,0,0-1.4,1.4v8.4a1.4,1.4,0,0,0,1.4,1.4h12.6a1.388,1.388,0,0,0,1.082-.512l1.936,2.035A4.177,4.177,0,0,1,24275.8,19017.176Zm9.8-1.395h0a1.432,1.432,0,0,1-.615-.158l-4.986-2.488c0,.1-.01.18-.018.258l-2.781-2.936v-5.879a1.4,1.4,0,0,0-1.4-1.4h-5.49l-2.656-2.8h8.146a4.184,4.184,0,0,1,4.2,4.047l4.943-2.437a1.36,1.36,0,0,1,2.061,1.193v11.2a1.4,1.4,0,0,1-1.4,1.4Zm-1.4-10.332h0l-4.2,2.1v2.461l4.2,2.1Z" transform="translate(-24258 -18993.379)" fill="#ef5862"/>
  <path id="Path" d="M22.831,23.286l-.763.806a.667.667,0,0,1-1.008,0l-5.214-5.487S4.814,7.52.218,2.1a.757.757,0,0,1,0-1.064L.982.23A.667.667,0,0,1,1.99.23L22.831,22.223a.757.757,0,0,1,0,1.064Z" transform="translate(1.785 3.621)" fill="#ef5862"/>
</svg>
