<svg id="Component_48_14" data-name="Component 48 – 14" xmlns="http://www.w3.org/2000/svg" width="30" height="30" viewBox="0 0 30 30">
  <rect id="Rectangle_21008" data-name="Rectangle 21008" width="30" height="30" fill="none"/>
  <path id="video" d="M29.342,7.61a1.4,1.4,0,0,0-1.4,0L23,10.046A4.2,4.2,0,0,0,18.8,6H6.2A4.2,4.2,0,0,0,2,10.2v8.4a4.2,4.2,0,0,0,4.2,4.2H18.8A4.2,4.2,0,0,0,23,18.754l4.984,2.492A1.387,1.387,0,0,0,30,20V8.8A1.4,1.4,0,0,0,29.342,7.61ZM20.2,18.6A1.4,1.4,0,0,1,18.8,20H6.2a1.4,1.4,0,0,1-1.4-1.4V10.2A1.4,1.4,0,0,1,6.2,8.8H18.8a1.4,1.4,0,0,1,1.4,1.4Zm7-.868-4.2-2.1V13.168l4.2-2.1Z" transform="translate(-1 1.233)" fill="#fff"/>
</svg>
