<svg xmlns="http://www.w3.org/2000/svg" width="15.868" height="21.818" viewBox="0 0 15.868 21.818">
  <path id="hourglass" d="M18.868,20.837h-.992V19.183a4.959,4.959,0,0,0-.3-1.664c-.011-.029-.022-.056-.036-.084a4.936,4.936,0,0,0-.659-1.227L15.5,14.357a2.994,2.994,0,0,1-.6-1.786v-1a3,3,0,0,1,.871-2.1l.652-.652A4.9,4.9,0,0,0,17.809,6c0-.014.008-.025.008-.039l0-.014a4.977,4.977,0,0,0,.062-.638V2.985h.992a.992.992,0,0,0,0-1.983H4.983a.992.992,0,0,0,0,1.983h.992V5.309a4.977,4.977,0,0,0,.062.638l0,.014c0,.014.007.025.008.039A4.9,4.9,0,0,0,7.427,8.815l.652.652a3,3,0,0,1,.871,2.1v1a3,3,0,0,1-.595,1.786L6.966,16.209a4.941,4.941,0,0,0-.659,1.227c-.013.027-.025.054-.035.083a4.962,4.962,0,0,0-.3,1.664v1.653H4.983a.992.992,0,0,0,0,1.983H18.868a.992.992,0,1,0,0-1.983ZM7.959,4.969V2.985h7.934V4.969ZM8.83,7.412a2.946,2.946,0,0,1-.374-.46H15.4a2.946,2.946,0,0,1-.374.46l-.652.652a4.919,4.919,0,0,0-1.41,2.855H10.892a4.919,4.919,0,0,0-1.41-2.855Zm1.113,8.134a5,5,0,0,0,.98-2.644h2.006a4.992,4.992,0,0,0,.981,2.644L14.9,16.87H8.95Zm5.95,5.29H7.959V19.183a2.93,2.93,0,0,1,.027-.33h7.88a2.93,2.93,0,0,1,.027.33Z" transform="translate(-3.992 -1.002)" fill="#fff"/>
</svg>
