<svg width="164" height="164" viewBox="0 0 164 164" fill="none" xmlns="http://www.w3.org/2000/svg">
<path d="M100.883 119.973C98.1506 120.451 95.3954 120.77 92.6993 121.035C78.4805 122.436 63.75 120.97 49.9674 117.267C45.2344 115.994 40.5374 114.4 36.3718 111.822C26.9156 105.977 19.2535 90.387 26.9877 80.4518C32.7966 72.9931 42.4759 70.7201 50.0691 65.7082C54.625 62.7005 57.2851 58.361 60.5389 54.1266C65.7869 47.2943 72.278 40.6884 81.1537 39.2714C91.0461 37.6905 101.509 40.8327 110.375 45.0541C118.831 49.0786 127.07 54.6284 132.86 62.0871C147.229 80.5962 132.276 105.324 114.702 115.371C110.487 117.785 105.721 119.126 100.883 119.973Z" fill="#FFECCB"/>
<path d="M57.6393 101.965C75.3956 101.965 89.7899 87.5711 89.7899 69.8148C89.7899 52.0585 75.3956 37.6642 57.6393 37.6642C39.8831 37.6642 25.4888 52.0585 25.4888 69.8148C25.4888 87.5711 39.8831 101.965 57.6393 101.965Z" fill="#263156"/>
<path d="M57.6395 99.7087C74.1495 99.7087 87.5334 86.3247 87.5334 69.8148C87.5334 53.3048 74.1495 39.9209 57.6395 39.9209C41.1296 39.9209 27.7456 53.3048 27.7456 69.8148C27.7456 86.3247 41.1296 99.7087 57.6395 99.7087Z" fill="white"/>
<path d="M56.7003 70.0082L56.925 69.448L35.9787 61.0434L35.7539 61.6035L56.7003 70.0082Z" fill="#ECC351"/>
<path d="M57.3115 97.58H57.9675V94.2639H57.3115V97.58Z" fill="#263156"/>
<path d="M43.2739 93.6468L43.842 93.9748L45.5001 91.103L44.932 90.775L43.2739 93.6468Z" fill="#263156"/>
<path d="M33.0819 83.2139L33.4099 83.782L36.2817 82.124L35.9537 81.5559L33.0819 83.2139Z" fill="#263156"/>
<path d="M29.4744 69.0876V69.7436H32.7904V69.0876H29.4744Z" fill="#263156"/>
<path d="M33.4103 55.049L33.0823 55.6172L35.9541 57.2752L36.2821 56.7071L33.4103 55.049Z" fill="#263156"/>
<path d="M43.8396 44.8585L43.2715 45.1865L44.9295 48.0583L45.4976 47.7303L43.8396 44.8585Z" fill="#263156"/>
<path d="M57.9675 41.2493H57.3115V44.5653H57.9675V41.2493Z" fill="#263156"/>
<path d="M72.0044 45.1862L71.4363 44.8582L69.7782 47.7301L70.3464 48.0581L72.0044 45.1862Z" fill="#263156"/>
<path d="M82.1969 55.6135L81.8689 55.0454L78.9971 56.7034L79.3251 57.2715L82.1969 55.6135Z" fill="#263156"/>
<path d="M85.8052 69.743V69.087H82.4891V69.743H85.8052Z" fill="#263156"/>
<path d="M81.8705 83.7791L82.1985 83.211L79.3267 81.553L78.9987 82.1211L81.8705 83.7791Z" fill="#263156"/>
<path d="M71.4404 93.9738L72.0085 93.6458L70.3505 90.774L69.7824 91.102L71.4404 93.9738Z" fill="#263156"/>
<path d="M57.6395 50.1873L56.4226 69.0014H58.8564L57.6395 50.1873Z" fill="#EF5862"/>
<path d="M47.2778 80.4748L58.1642 71.2383L56.5143 69.5918L47.2778 80.4748Z" fill="#EF5862"/>
<path d="M57.6395 72.0649C58.8822 72.0649 59.8896 71.0575 59.8896 69.8148C59.8896 68.5721 58.8822 67.5647 57.6395 67.5647C56.3968 67.5647 55.3894 68.5721 55.3894 69.8148C55.3894 71.0575 56.3968 72.0649 57.6395 72.0649Z" fill="#EF5862"/>
<path d="M57.6393 71.012C58.3005 71.012 58.8365 70.476 58.8365 69.8148C58.8365 69.1536 58.3005 68.6176 57.6393 68.6176C56.9781 68.6176 56.4421 69.1536 56.4421 69.8148C56.4421 70.476 56.9781 71.012 57.6393 71.012Z" fill="#0E2339"/>
<path d="M60.0634 31.0944H55.2156V39.3698H60.0634V31.0944Z" fill="#263156"/>
<path d="M60.9326 35.0566H54.3496C53.0999 35.0566 52.0864 34.0431 52.0864 32.7934C52.0864 31.5438 53.0999 30.5302 54.3496 30.5302H60.9326C62.1823 30.5302 63.1958 31.5438 63.1958 32.7934C63.1958 34.0398 62.1823 35.0566 60.9326 35.0566Z" fill="#E25469"/>
<path d="M123.905 42.6498C119.399 42.6498 115.745 46.3038 115.745 50.8105C115.745 53.3033 116.866 55.537 118.628 57.0326L118.352 59.6763L120.963 58.4234C121.875 58.7776 122.866 58.9711 123.905 58.9711C128.412 58.9711 132.066 55.3172 132.066 50.8105C132.066 46.3038 128.412 42.6498 123.905 42.6498Z" fill="white"/>
<path d="M118.139 59.9814L118.437 57.1081C116.611 55.5206 115.564 53.2311 115.564 50.8105C115.564 46.2086 119.307 42.4662 123.909 42.4662C128.51 42.4662 132.253 46.2086 132.253 50.8105C132.253 55.4123 128.51 59.1548 123.909 59.1548C122.902 59.1548 121.914 58.9744 120.976 58.6234L118.139 59.9814ZM123.905 42.8302C119.503 42.8302 115.925 46.4087 115.925 50.8105C115.925 53.1557 116.952 55.373 118.746 56.8949L118.818 56.9572L118.569 59.3746L120.96 58.2266L121.032 58.2561C121.954 58.6103 122.921 58.7907 123.909 58.7907C128.31 58.7907 131.889 55.2122 131.889 50.8105C131.889 46.4087 128.304 42.8302 123.905 42.8302Z" fill="#263156"/>
<path d="M123.846 55.5665C123.062 55.5665 122.538 55.0417 122.538 54.3857C122.538 53.7067 123.062 53.1786 123.846 53.1786C124.617 53.1786 125.142 53.7034 125.142 54.3857C125.142 55.0384 124.617 55.5665 123.846 55.5665ZM122.626 46.1332H125.001L124.745 52.2799H122.885L122.626 46.1332Z" fill="#E25469"/>
<path d="M114.78 109.119H97.2488C96.1697 109.119 95.2939 108.243 95.2939 107.164C95.2939 106.085 96.1697 105.209 97.2488 105.209H114.78C115.86 105.209 116.735 106.085 116.735 107.164C116.735 108.247 115.863 109.119 114.78 109.119Z" fill="#AEBEF9"/>
<path d="M95.7563 144.241L95.1692 144.195L98.1605 106.488L98.7477 106.534L95.7563 144.241Z" fill="#AEBEF9"/>
<path d="M116.886 144.241L117.522 144.192L114.508 106.485L113.872 106.534L116.886 144.241Z" fill="#AEBEF9"/>
<path d="M105.934 144.266H106.544V106.46H105.934V144.266Z" fill="#AEBEF9"/>
<path d="M115.377 119.986H97.2554V120.54H115.377V119.986Z" fill="#AEBEF9"/>
<path d="M111.366 56.9474C112.153 58.4168 113.071 59.8305 113.586 61.4147C114.105 63.0088 114.164 64.8554 113.265 66.2691C112.232 67.896 110.126 68.5946 108.21 68.4011C106.295 68.2076 104.54 67.2564 102.939 66.1838C100.998 64.8817 99.2003 63.363 97.5865 61.6706C96.9141 60.9654 96.0679 60.2044 95.694 59.2991C95.2872 58.3184 95.0248 57.1671 94.6936 56.1438C93.3848 52.1225 92.5714 47.7404 94.9428 43.9356C96.0908 42.0922 98.7148 41.5346 100.752 41.4789C103.674 41.4002 106.042 42.1546 107.292 44.9557C108.033 46.6186 108.345 48.3931 108.768 50.1479C109.339 52.503 110.205 54.7858 111.346 56.9211C111.356 56.9277 111.363 56.9375 111.366 56.9474Z" fill="#263156"/>
<path d="M106.718 60.4537L105.993 62.1658C105.993 62.1658 104.147 64.9506 104.094 64.944C104.042 64.9374 97.157 63.2876 97.157 63.2876L98.9741 59.8338L99.2332 54.1856L105.216 52.5259L105.272 52.5095C105.272 52.5095 105.308 55.2877 105.836 57.459C105.961 57.974 106.367 59.4533 106.367 59.4533L106.718 60.4537Z" fill="#FFE8C4"/>
<path d="M105.245 47.6748C105.245 47.6748 105.711 58.6562 100.634 59.5845C98.3704 59.9978 96.4844 57.1114 95.6644 54.0249C94.7001 50.4005 95.015 46.4514 95.015 46.4514L102.014 42.5285L105.245 47.6748Z" fill="#FFE8C4"/>
<path d="M100.201 59.7026C100.066 59.7026 99.935 59.6927 99.8038 59.6698C99.7612 59.6632 99.7317 59.6238 99.7382 59.5779C99.7448 59.5353 99.7874 59.5058 99.8301 59.5123C100.092 59.555 100.358 59.5517 100.621 59.5058C101.693 59.309 102.598 58.6333 103.307 57.4951C103.33 57.459 103.379 57.4459 103.415 57.4689C103.451 57.4918 103.464 57.541 103.441 57.5771C102.707 58.7546 101.765 59.4566 100.65 59.6599C100.502 59.6894 100.352 59.7026 100.201 59.7026Z" fill="#263156"/>
<path d="M97.1538 52.9108C97.3574 52.8078 97.4212 52.5238 97.2961 52.2765C97.171 52.0291 96.9045 51.9121 96.7008 52.0151C96.4972 52.1181 96.4334 52.4021 96.5585 52.6495C96.6836 52.8968 96.9501 53.0138 97.1538 52.9108Z" fill="#263156"/>
<path d="M106.019 50.4661C105.409 49.036 103.687 48.7408 102.264 48.5735C99.4234 48.239 98.4 45.9266 98.4 45.9266C98.4 45.9266 97.8752 50.5875 94.792 50.2332C94.792 50.2332 93.4964 42.2497 99.8432 42.0791C107.577 41.8692 106.019 50.4661 106.019 50.4661ZM99.2692 55.045C99.1511 55.045 99.033 55.0023 98.9445 54.9203C98.833 54.8219 98.7739 54.6776 98.7805 54.5267L98.81 53.9265C98.8133 53.8839 98.8494 53.8511 98.892 53.8511C98.9346 53.8543 98.9674 53.8904 98.9674 53.9331L98.9379 54.5333C98.9346 54.635 98.974 54.7334 99.0494 54.8023C99.1249 54.8711 99.2266 54.9007 99.325 54.8843L99.4463 54.8646C99.489 54.858 99.5283 54.8875 99.5382 54.9302C99.5447 54.9728 99.5152 55.0122 99.4726 55.022L99.3512 55.0417C99.3217 55.0417 99.2954 55.045 99.2692 55.045Z" fill="#263156"/>
<path d="M100.057 50.3874C100.057 50.3874 101.155 49.856 102.057 50.4005L100.057 50.3874ZM97.4194 50.8892C97.4194 50.8892 96.4781 50.6694 95.6777 51.4894L97.4194 50.8892Z" fill="#263156"/>
<path d="M105.337 49.9544C105.337 49.9544 107.276 49.633 107.125 51.227C106.977 52.8211 104.934 53.9232 104.934 53.9232L105.337 49.9544Z" fill="#FFE8C4"/>
<path d="M105.928 50.7842C105.928 50.7842 107.574 50.512 105.632 52.3422L105.928 50.7842ZM106.229 49.5018C106.229 49.5018 106.003 49.6264 105.678 50.161C105.354 50.6957 104.983 53.2278 104.816 53.218C104.648 53.2082 104.819 49.5936 102.336 47.9011C99.8531 46.2086 103.73 46.0118 103.73 46.0118C103.73 46.0118 105.774 47.455 105.787 47.6256C105.8 47.7929 106.229 49.5018 106.229 49.5018ZM96.8683 51.9618C96.8683 51.9618 96.2156 51.9486 95.8909 52.5718C95.8909 52.5718 96.3566 52.257 96.7207 52.2438L96.8683 51.9618Z" fill="#263156"/>
<path d="M101.276 52.0243C101.3 51.7463 101.134 51.5054 100.907 51.4862C100.679 51.4669 100.476 51.6767 100.452 51.9546C100.429 52.2326 100.594 52.4736 100.822 52.4928C101.049 52.512 101.253 52.3023 101.276 52.0243Z" fill="#263156"/>
<path d="M98.7019 57.1376C98.7019 57.1376 99.4793 55.924 101.067 56.826L98.7019 57.1376Z" fill="#0E2339"/>
<path d="M100.726 51.5026C100.726 51.5026 101.326 51.2402 101.86 51.6928C101.86 51.6928 101.309 51.5813 100.968 51.7059L100.726 51.5026Z" fill="#263156"/>
<path d="M109.231 118.943L113.15 125.099C113.15 125.099 114.898 127.618 114.2 130.908C113.501 134.198 112.799 136.786 111.33 137.206C109.86 137.626 106.853 135.946 106.853 135.946C106.853 135.946 108.217 132.728 108.427 130.734C108.637 128.74 108.286 127.412 108.043 126.956C107.8 126.5 103.353 121.426 103.353 121.426L109.231 118.943ZM87.5071 128.956L88.5338 129.032C88.5338 129.032 88.8716 130.829 89.1111 131.912C89.3505 132.994 89.2652 133.129 89.2291 134.618C89.1898 136.107 89.3538 138.157 89.3538 138.157C89.3538 138.157 89.6457 140.925 88.9831 141.22C88.3206 141.512 84.7552 141.539 84.0697 140.955C83.3842 140.371 82.7839 140.02 82.7839 140.02C82.7839 140.02 83.5515 136.133 83.9779 133.949C84.4043 131.764 84.9192 128.763 84.9192 128.763L87.5071 128.956Z" fill="#FFE8C4"/>
<path d="M84.5552 126.3L84.5945 130.908L89.1636 131.856L89.9737 124.781L84.5552 126.3Z" fill="#FFE8C4"/>
<path d="M89.3539 138.16C89.3539 138.16 89.0095 139.279 86.9759 139.085C84.9423 138.892 83.4335 137.881 83.4761 136.327C83.4761 136.327 82.21 140.482 82.4429 141.043C82.6758 141.604 83.4171 143.034 83.9583 143.287C84.4962 143.539 87.9664 144.189 88.4716 143.825C88.9767 143.461 89.4687 141.926 89.6196 140.768C89.7704 139.607 89.3539 138.16 89.3539 138.16ZM92.4568 91.0102C103.72 92.0598 111.668 87.0512 111.668 87.0512C111.668 87.0512 117.149 100.909 113.167 105.137C110.605 107.856 104.937 110.736 104.937 110.736C104.937 110.736 107.473 113.714 111.671 121.412C111.671 121.412 107.158 125.896 103.238 125.827C103.238 125.827 92.6929 112.419 92.9028 108.43C92.9028 108.43 92.3616 110.146 92.3616 117.394C92.3616 123.515 92.1255 126.929 92.1255 126.929C92.1255 126.929 88.324 127.638 86.4904 127.402C85.9033 127.326 84.2272 126.713 84.2272 126.713C84.2272 126.713 81.7968 109.578 82.3544 104.192C83.194 96.0778 92.0468 93.375 92.0468 93.375L92.4568 91.0102Z" fill="#263156"/>
<path d="M92.8307 108.437C92.8307 108.424 92.6897 107.2 93.0833 105.619C93.4474 104.17 94.3461 102.12 96.5699 100.542C96.4059 100.129 95.2514 97.2717 94.4084 96.7239L94.4839 96.6091C95.4252 97.2192 96.6651 100.407 96.7175 100.542L96.7372 100.591L96.6946 100.621C94.474 102.175 93.5786 104.215 93.2178 105.649C92.8275 107.204 92.9652 108.404 92.9685 108.417L92.8307 108.437Z" fill="#AEBEF9"/>
<path d="M96.6944 100.621L96.6091 100.516C96.6387 100.489 99.6628 98.0261 103.297 97.311L103.323 97.4455C99.7219 98.154 96.7239 100.594 96.6944 100.621Z" fill="#AEBEF9"/>
<path d="M113.147 125.099C113.147 125.099 114.301 129.052 113.777 131.781C113.252 134.51 112.763 136.189 112.238 136.294C111.714 136.399 107.479 135.805 107.059 135.385C107.059 135.385 104.645 138.255 105.941 138.813C107.236 139.374 111.887 139.826 113.288 138.603C113.288 138.603 113.708 137.501 113.724 136.136C113.741 134.772 114.443 132.322 114.843 131.239C115.246 130.154 115.509 129.088 114.807 127.372C114.111 125.66 113.147 125.099 113.147 125.099Z" fill="#263156"/>
<path d="M92.4369 80.1173C91.4332 75.9353 88.8125 64.3569 91.7219 61.723C93.0765 60.4963 98.846 60.047 98.8526 60.0699C99.3184 61.6935 99.4069 62.7038 100.621 63.5238C101.762 64.2946 104.281 63.409 106.528 60.1027L111.845 61.3458C111.845 61.3458 112.652 66.6496 112.694 71.1366C112.734 75.6237 111.894 78.5921 111.828 82.0131C111.759 85.6441 112.632 90.305 112.261 90.8396C111.487 91.7187 100.496 92.0007 98.6656 91.9023C96.4188 91.7842 92.6108 91.0922 92.2828 91.0758C92.2795 91.0725 93.4012 86.3394 92.4369 80.1173Z" fill="#FCB742"/>
<path d="M91.1348 73.5901C91.0889 73.5901 91.0463 73.554 91.043 73.5048C91.0397 73.4622 90.6625 69.2539 90.879 67.3482C90.8856 67.299 90.9315 67.263 90.9807 67.2662C91.0299 67.2728 91.0692 67.3187 91.0627 67.3679C90.8462 69.2539 91.2234 73.4458 91.2267 73.4884C91.23 73.5376 91.1939 73.5835 91.1447 73.5901C91.1414 73.5901 91.1381 73.5901 91.1348 73.5901Z" fill="#263156"/>
<path d="M114.246 81.8885L105.695 92.7256L108.886 94.8543C108.886 94.8543 113.252 91.8236 116.217 89.8294C119.349 87.7203 120.176 85.713 120.176 85.713L120.914 83.1316L117.827 79.7598C117.827 79.7598 115.643 79.95 115.594 80.1402C115.544 80.3305 114.246 81.8885 114.246 81.8885Z" fill="#FFE8C4"/>
<path d="M105.137 99.2298C105.249 98.7149 105.544 98.259 107.023 97.1634C107.912 96.5042 108.87 94.9855 109.139 94.5722L106.639 92.3025C106.006 92.6698 104.658 92.9421 103.766 93.2602C102.648 93.6604 101.201 93.8769 100.775 94.7297C100.053 96.1794 99.3971 98.1081 99.9612 98.3541C100.532 98.5968 101.414 96.924 101.414 96.924C101.414 96.924 101.113 97.9375 101.634 98.2983C102.156 98.6558 102.877 98.2262 102.877 98.2262C103.018 98.9937 104.002 98.8592 104.002 98.8592C104.153 99.5283 105.049 99.6398 105.137 99.2298Z" fill="#FFE8C4"/>
<path d="M104.002 98.9281C103.999 98.9281 103.999 98.9281 103.996 98.9281C103.956 98.9248 103.93 98.892 103.933 98.8526C103.936 98.8166 104.025 97.9638 104.714 97.1897C104.74 97.1602 104.783 97.1569 104.812 97.1831C104.842 97.2094 104.845 97.252 104.819 97.2815C104.16 98.0228 104.074 98.8592 104.071 98.8658C104.068 98.9018 104.038 98.9281 104.002 98.9281ZM102.877 98.295H102.874C102.834 98.2918 102.805 98.259 102.808 98.2196C102.811 98.1737 102.89 97.0782 103.471 96.2746C103.494 96.245 103.536 96.2352 103.569 96.2582C103.599 96.2811 103.608 96.3238 103.586 96.3566C103.028 97.1274 102.949 98.2196 102.949 98.2294C102.943 98.2655 102.913 98.295 102.877 98.295ZM101.414 96.9929C101.408 96.9929 101.401 96.9929 101.395 96.9896C101.358 96.9798 101.335 96.9404 101.345 96.9043C101.355 96.865 101.624 95.9498 102.356 95.2282C102.382 95.202 102.428 95.202 102.454 95.2282C102.48 95.2545 102.48 95.3004 102.454 95.3266C101.749 96.022 101.483 96.9306 101.48 96.9404C101.473 96.9732 101.447 96.9929 101.414 96.9929Z" fill="#0E2339"/>
<path d="M111.841 61.3426C111.841 61.3426 116.876 61.8182 118.018 67.5188C119.159 73.2194 122.911 83.3317 120.061 85.9918C120.061 85.9918 120.255 80.1238 113.462 82.879L111.986 75.545L111.415 63.9108L111.841 61.3426Z" fill="#FCB742"/>
<path d="M113.517 82.9086C113.494 82.9086 113.471 82.902 113.455 82.8856C113.419 82.8495 113.416 82.7938 113.448 82.7544C113.452 82.7478 113.918 82.2493 114.606 81.7179C115.246 81.2292 116.22 80.6126 117.217 80.4617C117.27 80.4551 117.316 80.4879 117.322 80.5404C117.329 80.5896 117.296 80.6388 117.243 80.6454C115.4 80.9242 113.599 82.8594 113.58 82.879C113.567 82.8987 113.54 82.9086 113.517 82.9086Z" fill="#263156"/>
<path d="M118.234 81.5146C118.218 81.5146 118.201 81.5113 118.188 81.5014C117.158 80.9045 115.685 81.2653 115.669 81.2718C115.62 81.285 115.571 81.2554 115.558 81.2062C115.544 81.157 115.574 81.1078 115.623 81.0947C115.685 81.0783 117.181 80.7077 118.28 81.344C118.323 81.3702 118.339 81.426 118.313 81.4686C118.296 81.4982 118.264 81.5146 118.234 81.5146Z" fill="#263156"/>
<path d="M112.396 77.0374C112.392 77.0374 112.389 77.0374 112.386 77.0374C112.337 77.0308 112.297 76.9882 112.304 76.9357L112.816 71.6746C112.819 71.6254 112.865 71.586 112.917 71.5926C112.966 71.5991 113.006 71.6418 112.999 71.6942L112.488 76.9554C112.481 77.0013 112.442 77.0374 112.396 77.0374Z" fill="#263156"/>
<path d="M91.7188 61.7198C91.7188 61.7198 83.6238 65.6394 79.5894 68.4503C79.5894 68.4503 85.454 67.8402 86.005 72.301L91.9943 71.0186L91.7188 61.7198Z" fill="#FCB742"/>
<path d="M91.0167 70.1198C90.9675 70.1198 90.9248 70.0805 90.9248 70.0313C90.9248 70.005 90.9051 69.3917 91.0232 68.5881C91.1315 67.8402 91.384 66.7841 91.9679 65.9969C91.9974 65.9542 92.0564 65.9477 92.0958 65.9772C92.1384 66.0067 92.145 66.0657 92.1155 66.1051C91.0429 67.5614 91.1085 70.0018 91.1085 70.028C91.1118 70.0772 91.0724 70.1198 91.0167 70.1198Z" fill="#263156"/>
<path d="M94.8183 74.1083L95.1102 70.2871C95.1102 70.2871 89.7933 69.2178 83.745 69.126C83.745 69.126 81.4523 68.0272 79.5892 68.4536C79.5892 68.4536 75.8632 70.7135 77.0833 73.3408C78.31 75.9681 94.1492 73.9246 94.8183 74.1083Z" fill="#FFE8C4"/>
<path d="M104.917 75.2662C104.917 75.2662 105.468 76.3354 105.222 77.5261C104.976 78.7167 104.245 81.2226 103.664 79.786C103.664 79.786 102.854 80.442 102.549 79.2054C102.549 79.2054 101.634 79.2349 101.86 77.7852C101.86 77.7852 99.9449 77.6343 98.8133 76.4896C96.6124 74.2592 94.8149 74.1083 94.8149 74.1083L95.1069 70.2871C95.1069 70.2871 101.765 71.2941 102.654 71.8156C103.54 72.3338 103.356 72.8849 103.356 72.8849C103.356 72.8849 103.999 73.1604 104.058 73.8328C104.061 73.8295 104.98 74.3182 104.917 75.2662Z" fill="#FFE8C4"/>
<path d="M101.864 77.877C101.857 77.877 101.847 77.877 101.841 77.8738C101.542 77.7983 101.011 77.4769 101.132 76.8045C101.395 75.3416 101.355 74.3215 101.017 73.9345C100.529 73.3703 99.6137 72.8127 99.6038 72.8062C99.5612 72.7799 99.5448 72.7242 99.5743 72.6782C99.6005 72.6356 99.6563 72.6192 99.7022 72.6487C99.7416 72.6717 100.653 73.2293 101.159 73.8131C101.641 74.3674 101.509 75.7647 101.316 76.8373C101.218 77.3818 101.644 77.6048 101.818 77.6704C101.975 77.3391 102.625 75.9025 102.821 74.479C102.828 74.4298 102.874 74.3937 102.926 74.4002C102.976 74.4068 103.012 74.4527 103.005 74.5052C102.776 76.1518 101.959 77.8082 101.949 77.8246C101.929 77.8574 101.897 77.877 101.864 77.877ZM102.549 79.2973C102.533 79.2973 102.513 79.2907 102.497 79.2809C102.454 79.2514 102.444 79.1956 102.471 79.153C102.484 79.1366 103.668 77.3457 103.914 75.4662C103.92 75.417 103.966 75.381 104.019 75.3875C104.068 75.3941 104.104 75.44 104.097 75.4925C103.845 77.4178 102.635 79.2415 102.625 79.2579C102.608 79.2842 102.579 79.2973 102.549 79.2973ZM103.664 79.8778C103.651 79.8778 103.638 79.8746 103.628 79.8713C103.582 79.8516 103.559 79.7958 103.582 79.7499C103.589 79.7335 104.268 78.1854 104.468 76.7487C104.475 76.6995 104.521 76.6634 104.573 76.67C104.622 76.6766 104.658 76.7225 104.652 76.775C104.445 78.2378 103.76 79.809 103.75 79.8254C103.733 79.8582 103.701 79.8778 103.664 79.8778Z" fill="#263156"/>
<path d="M92.9683 74.5905C92.0958 71.2219 93.9949 70.0378 93.9949 70.0378L95.5824 70.3462C95.5824 70.3462 94.0146 71.7008 94.5558 74.5675L92.9683 74.5905Z" fill="#263156"/>
<path d="M93.2112 69.9526L93.7261 69.7295C93.8901 69.6606 94.0705 69.6377 94.2444 69.6705L95.6351 69.9198C95.9401 69.9755 96.1993 70.1854 96.3141 70.4741L96.3206 70.4938L93.2112 69.9526Z" fill="#263156"/>
<path d="M102.339 106.321L102.224 106.391L104.869 110.768L104.984 110.698L102.339 106.321Z" fill="#AEBEF9"/>
<path d="M56.3799 135.93L56.2979 135.589C55.6124 132.696 55.163 130.787 54.7071 126.182C54.2479 121.544 51.2303 121.501 51.1746 121.501V121.35C51.2336 121.35 54.3857 121.396 54.858 126.168C55.3139 130.764 55.7633 132.669 56.4455 135.556L56.5275 135.897L56.3799 135.93Z" fill="#263156"/>
<path d="M51.0927 121.399C51.0927 121.399 47.8881 122.623 48.8984 127.362C49.5872 130.6 53.7692 131.748 53.7692 131.748C53.7692 131.748 52.7458 130.318 53.7331 127.572C54.5006 125.437 54.7007 119.966 51.0927 121.399Z" fill="#68B19C"/>
<path d="M51.7157 129.399C51.0204 128.392 50.6497 127.195 50.5251 125.982C50.512 125.968 50.5021 125.959 50.489 125.945L50.5186 125.919C50.5054 125.775 50.4923 125.631 50.4857 125.486C50.4628 125.076 50.4693 124.666 50.4956 124.256C50.2201 124.601 49.9773 124.978 49.7871 125.378C49.6789 125.614 49.587 125.857 49.5247 126.109C49.469 126.362 49.4427 126.624 49.4657 126.884C49.4263 126.624 49.4394 126.359 49.4821 126.1C49.528 125.84 49.61 125.588 49.7084 125.342C49.9118 124.853 50.1774 124.397 50.5021 123.971L50.512 123.984C50.5284 123.79 50.5481 123.6 50.571 123.407C50.653 122.797 50.735 122.305 50.899 121.737C50.9384 121.599 51.0401 121.485 51.1746 121.429C51.0466 121.803 50.9449 122.19 50.8597 122.58C51.3713 122.829 51.8273 123.154 52.2307 123.541C52.6506 123.938 52.9884 124.42 53.2278 124.942C52.9654 124.433 52.6046 123.977 52.175 123.607C51.7715 123.256 51.3123 122.961 50.8269 122.751C50.781 122.977 50.7383 123.203 50.7022 123.43C50.6694 123.646 50.6432 123.863 50.6235 124.079L50.6333 124.086C50.6301 124.089 50.6268 124.096 50.6235 124.099C50.5809 124.558 50.5612 125.02 50.5743 125.483C50.5776 125.608 50.5841 125.732 50.594 125.857L50.6235 125.834C50.922 126.198 51.2369 126.552 51.5649 126.89C51.8962 127.228 52.2405 127.556 52.6341 127.815C52.2209 127.579 51.8568 127.267 51.5026 126.952C51.1942 126.67 50.899 126.375 50.6104 126.07C50.7186 127.244 51.0597 128.405 51.7157 129.399ZM57.6853 137.114L57.5345 137.107C57.728 132.361 56.7046 127.717 55.7993 123.617C55.5173 122.334 55.2483 121.124 55.0351 119.982C54.5661 117.486 55.0384 115.958 55.514 115.115C56.0355 114.193 56.6653 113.875 56.6915 113.862L56.7604 113.996C56.7341 114.01 54.3102 115.282 55.186 119.953C55.3992 121.091 55.6681 122.301 55.9502 123.581C56.8522 127.694 57.8789 132.348 57.6853 137.114Z" fill="#263156"/>
<path d="M56.7439 113.849C56.7439 113.849 59.5647 111.9 62.9005 115.417C65.1801 117.818 63.7566 121.914 63.7566 121.914C63.7566 121.914 63.1563 120.261 60.3355 119.52C58.1445 118.943 53.523 116.01 56.7439 113.849Z" fill="#68B19C"/>
<path d="M62.9859 118.89C62.5496 117.749 61.7723 116.765 60.844 115.974C60.8408 115.958 60.8375 115.941 60.8342 115.925L60.7948 115.935C60.6833 115.843 60.5718 115.751 60.457 115.663C60.1323 115.413 59.7912 115.184 59.4369 114.974C59.8764 114.944 60.3258 114.957 60.7653 115.026C61.0212 115.069 61.2737 115.131 61.5164 115.223C61.7559 115.322 61.9855 115.446 62.1888 115.613C61.9953 115.436 61.7723 115.295 61.5328 115.184C61.2934 115.076 61.0376 115 60.7817 114.941C60.2635 114.833 59.7354 114.793 59.204 114.82L59.2073 114.836C59.04 114.741 58.8695 114.649 58.6989 114.561C58.1512 114.282 57.6985 114.072 57.1344 113.885C56.9966 113.839 56.8457 113.855 56.7244 113.934C57.1048 114.042 57.482 114.177 57.8494 114.324C57.7641 114.885 57.774 115.446 57.8658 116C57.9576 116.571 58.161 117.122 58.4562 117.614C58.184 117.109 58.0134 116.555 57.9511 115.987C57.8888 115.456 57.9052 114.908 58.0068 114.39C58.22 114.479 58.43 114.574 58.6366 114.672C58.8334 114.767 59.0269 114.869 59.2172 114.977V114.99C59.2237 114.99 59.2303 114.99 59.2368 114.99C59.6403 115.213 60.0306 115.459 60.4045 115.735C60.5062 115.807 60.6046 115.886 60.703 115.964L60.6669 115.974C60.7981 116.427 60.9129 116.886 61.0048 117.349C61.0933 117.811 61.172 118.28 61.1622 118.756C61.2016 118.283 61.1524 117.804 61.09 117.335C61.0343 116.922 60.9556 116.509 60.867 116.099C61.7756 116.847 62.5398 117.788 62.9859 118.89Z" fill="#263156"/>
<path d="M55.3762 134.762L55.2254 134.756C55.4156 129.967 56.3832 127.877 57.1606 126.198C57.7969 124.82 58.302 123.735 58.2003 121.655C57.974 117.083 52.3652 115.456 52.3062 115.44L52.3455 115.295C52.4046 115.312 58.1183 116.965 58.3479 121.649C58.4529 123.764 57.9412 124.866 57.295 126.26C56.5275 127.93 55.5665 130.006 55.3762 134.762Z" fill="#263156"/>
<path d="M52.3029 119.553C50.676 120.333 45.7232 120.573 44.7786 120.071C43.834 119.569 45.1656 115.918 47.5076 114.938C49.774 113.987 51.2894 114.708 52.234 115.312C52.2668 115.331 52.2964 115.351 52.3259 115.371C52.3521 115.387 52.3751 115.404 52.398 115.42C53.8904 116.463 53.9036 118.785 52.3029 119.553Z" fill="#68B19C"/>
<path d="M52.3981 115.417C52.1357 115.502 51.8306 115.627 51.5715 115.722C51.6273 116.358 51.4928 116.991 51.1943 117.529C51.4403 116.978 51.5125 116.355 51.4141 115.781C50.6859 116.053 49.9676 116.358 49.2657 116.699C49.2624 116.699 49.2591 116.702 49.2526 116.706C49.269 116.942 49.246 117.165 49.2001 117.385C49.1509 117.611 49.0787 117.831 48.9771 118.034C48.777 118.447 48.4752 118.802 48.1243 119.084C48.4555 118.779 48.7278 118.411 48.8983 117.998C48.9869 117.795 49.0394 117.578 49.0754 117.362C49.105 117.171 49.1115 116.975 49.0918 116.788C48.8196 116.925 48.5539 117.07 48.2915 117.217L48.2784 117.257C48.2653 117.253 48.2522 117.25 48.2423 117.247C47.6126 117.608 47.0123 118.018 46.4711 118.513C46.9861 118.018 47.5601 117.598 48.1669 117.227C47.8651 117.135 47.547 117.073 47.2321 117.037C46.8778 116.994 46.5138 116.994 46.1562 117.047C46.5072 116.965 46.8746 116.935 47.2387 116.948C47.6027 116.962 47.9635 117.007 48.3243 117.096L48.3112 117.142C48.613 116.962 48.9147 116.791 49.2231 116.63C49.5806 116.443 49.9414 116.273 50.3054 116.105C49.9315 115.918 49.5281 115.771 49.1148 115.676C48.6556 115.564 48.1767 115.525 47.7044 115.571C48.1767 115.499 48.6622 115.508 49.1345 115.594C49.6068 115.676 50.066 115.814 50.5088 116.017C51.0763 115.764 51.647 115.528 52.2341 115.318C52.2669 115.338 52.2964 115.358 52.3259 115.377C52.3522 115.384 52.3751 115.4 52.3981 115.417Z" fill="#263156"/>
<path d="M56.6358 136.517C56.5931 129.35 57.9314 126.818 59.0597 125.955C59.7911 125.398 60.4012 125.558 60.4274 125.565L60.3881 125.709C60.3815 125.709 59.8174 125.562 59.1482 126.077C58.0494 126.923 56.7473 129.419 56.7899 136.514L56.6358 136.517Z" fill="#263156"/>
<path d="M67.5122 131.744C67.5122 131.744 61.8542 130.974 60.06 129.291C58.4331 127.766 60.083 125.962 60.4077 125.637C60.4405 125.604 60.4602 125.585 60.4602 125.585C60.4602 125.585 60.4733 125.558 60.4995 125.512C60.7258 125.112 61.9657 123.167 64.2781 124.502C66.843 125.985 67.5122 131.744 67.5122 131.744Z" fill="#68B19C"/>
<path d="M66.302 130.291C65.6067 129.435 64.7801 128.701 63.9175 128.018C63.9109 128.018 63.9043 128.022 63.8978 128.022L63.8945 127.999C63.7797 127.91 63.6682 127.822 63.5534 127.736C63.3435 127.579 63.127 127.425 62.9138 127.271C62.9072 127.648 62.9335 128.028 62.9892 128.405C63.0581 128.822 63.1663 129.239 63.3861 129.606C63.1434 129.252 63.0023 128.838 62.9072 128.419C62.8154 128.002 62.7629 127.579 62.7465 127.149C62.0085 126.631 61.1918 126.093 60.4111 125.637C60.4439 125.604 60.4636 125.585 60.4636 125.585C60.4636 125.585 60.4767 125.558 60.503 125.512L60.5063 125.509C60.9327 125.768 61.3525 126.044 61.7625 126.323C62.3037 126.26 62.8416 126.228 63.3828 126.244C63.9207 126.264 64.4718 126.316 64.9671 126.523C64.4587 126.342 63.9142 126.319 63.3828 126.329C62.9105 126.342 62.4382 126.388 61.9757 126.464C62.53 126.847 63.0778 127.248 63.6091 127.664C63.6977 127.736 63.7863 127.808 63.8748 127.881L63.8683 127.851C64.1635 127.815 64.4521 127.818 64.7407 127.851C65.0261 127.887 65.3115 127.959 65.5673 128.091C65.3016 127.989 65.0163 127.943 64.7375 127.936C64.498 127.933 64.252 127.953 64.0191 127.995C64.8457 128.691 65.6362 129.435 66.302 130.291Z" fill="#263156"/>
<path d="M63.4385 134.244L63.3073 135.051L63.0908 136.396L63.0285 136.792L62.9432 137.327L62.9399 137.34L62.8514 137.875L62.0806 142.657C61.9887 143.228 61.4967 143.651 60.9129 143.651H52.6211C52.0438 143.651 51.5452 143.228 51.4534 142.657L50.6826 137.875L50.594 137.34L50.5907 137.327L50.5055 136.792L50.4431 136.396L50.2267 135.051L50.0955 134.244H63.4385Z" fill="#ECC351"/>
<path d="M63.3072 135.051L63.094 136.396H50.4464L50.2332 135.051H63.3072Z" fill="#263156"/>
<path d="M62.9432 137.327L62.9399 137.343L62.8546 137.878H50.6858L50.5973 137.343L50.594 137.327H62.9432Z" fill="#263156"/>
<path d="M140.187 143.753H26.7944V144.861H140.187V143.753Z" fill="#263156"/>
<path d="M96.5928 21.5726C99.3447 24.4852 99.617 28.0801 96.724 30.8123C93.8311 33.5446 90.4559 32.8 87.7631 29.953L86.0312 31.4257L83.5417 28.7918L87.0841 25.2429L87.9959 26.2072C90.1017 28.4343 92.0861 29.7234 93.9951 27.88C95.2382 26.7058 95.2808 25.2068 94.0869 23.9407C92.8536 22.6353 91.3743 22.5697 90.1083 23.7636L87.4383 20.9362C89.9869 18.4434 93.6375 18.4434 96.5928 21.5726ZM79.6549 34.932C78.6217 33.8398 78.6643 32.3408 79.6516 31.4093C80.6389 30.4778 82.1379 30.5204 83.1711 31.6126C84.1616 32.6622 84.119 34.1612 83.135 35.0927C82.1477 36.0242 80.6487 35.9816 79.6549 34.932Z" fill="#D6E0FA"/>
</svg>
